<?xml version="1.0" encoding="UTF-8" standalone="no"?>
<!-- Created with Inkscape (http://www.inkscape.org/) -->

<svg
   width="160"
   height="90"
   id="svg1968"
   sodipodi:version="0.32"
   inkscape:version="1.1.2 (0a00cf5339, 2022-02-04)"
   version="1.0"
   sodipodi:docname="pascal-logo.svg"
   inkscape:export-filename="/home/michael/programming/websites/workspace/src/content/pascal/pascal-logo.png"
   inkscape:export-xdpi="1228.8"
   inkscape:export-ydpi="1228.8"
   xmlns:inkscape="http://www.inkscape.org/namespaces/inkscape"
   xmlns:sodipodi="http://sodipodi.sourceforge.net/DTD/sodipodi-0.dtd"
   xmlns="http://www.w3.org/2000/svg"
   xmlns:svg="http://www.w3.org/2000/svg"
   xmlns:rdf="http://www.w3.org/1999/02/22-rdf-syntax-ns#"
   xmlns:cc="http://creativecommons.org/ns#"
   xmlns:dc="http://purl.org/dc/elements/1.1/">
  <defs
     id="defs1970" />
  <sodipodi:namedview
     id="base"
     pagecolor="#ffffff"
     bordercolor="#666666"
     borderopacity="1.0"
     inkscape:pageopacity="0.0"
     inkscape:pageshadow="2"
     inkscape:zoom="9.05625"
     inkscape:cx="76.908213"
     inkscape:cy="53.830228"
     inkscape:document-units="px"
     inkscape:current-layer="Ebene_x0020_1"
     width="68.51mm"
     height="129.89mm"
     units="mm"
     inkscape:window-width="2496"
     inkscape:window-height="1369"
     inkscape:window-x="2624"
     inkscape:window-y="34"
     inkscape:pagecheckerboard="0"
     showgrid="false"
     inkscape:window-maximized="1"
     inkscape:snap-to-guides="false" />
  <metadata
     id="metadata1973">
    <rdf:RDF>
      <cc:Work
         rdf:about="">
        <dc:format>image/svg+xml</dc:format>
        <dc:type
           rdf:resource="http://purl.org/dc/dcmitype/StillImage" />
      </cc:Work>
    </rdf:RDF>
  </metadata>
  <g
     inkscape:label="Ebene 1"
     inkscape:groupmode="layer"
     id="layer1"
     transform="translate(3824.556,782.8939)">
    <g
       id="Ebene_x0020_1"
       transform="translate(-3826.724,-785.8793)"
       inkscape:label="Ebene 1"
       inkscape:groupmode="layer">
      <metadata
         id="CorelCorpID_0Corel-Layer" />
      <path
         style="fill:#4d4d4d;fill-opacity:1;stroke-width:0.150832"
         d="m 30.033098,70.366571 c -0.940747,-0.290007 -1.805822,-1.077175 -2.337981,-2.127436 l -0.447806,-0.883791 -0.04112,-12.432676 c -0.04028,-12.172222 -0.03463,-12.451856 0.266674,-13.34869 0.6006,-1.787444 2.04686,-3.278424 3.997765,-4.121421 1.840928,-0.795477 2.938058,-1.002734 5.279139,-0.997316 1.857807,0.0042 2.273962,0.05419 3.461714,0.415053 2.63354,0.800079 4.796185,2.182026 5.573351,3.561411 l 0.46739,0.82958 0.04407,7.803553 c 0.02866,5.063414 -0.01096,8.007893 -0.112623,8.385488 -0.216458,0.803871 -0.878043,1.743371 -1.603133,2.276625 -2.119693,1.558823 -4.440962,2.403565 -7.033952,2.559721 -0.972028,0.05857 -1.796375,0.136935 -1.831869,0.174223 -0.03548,0.03724 -0.108099,1.129026 -0.161348,2.42609 -0.10734,2.615094 -0.200717,3.087844 -0.773062,3.913726 -1.028503,1.484129 -2.953049,2.118943 -4.747208,1.56586 z M 35.59664,58.618359 c 0.795115,-0.411167 1.658378,-1.278559 2.018799,-2.028465 0.32454,-0.675228 0.337003,-0.875717 0.384623,-6.187956 0.06581,-7.342853 -0.05292,-8.234936 -1.256936,-9.438901 -0.878759,-0.878768 -1.641551,-1.190988 -2.934587,-1.201167 -0.981489,-0.0076 -1.238194,0.0503 -1.939039,0.43852 -0.982915,0.544419 -1.598043,1.26136 -1.923839,2.242243 -0.212245,0.639002 -0.241814,1.567251 -0.219702,6.895611 0.01407,3.386471 0.08148,6.352228 0.149845,6.590571 0.377105,1.314903 1.541187,2.477198 2.894946,2.890488 0.703534,0.21479 2.232157,0.106093 2.82589,-0.200944 z m 59.977866,3.740269 c -1.949464,-0.301265 -4.362281,-1.246832 -5.425309,-2.126156 -0.746789,-0.617724 -1.635053,-1.814029 -2.046861,-2.756673 -0.357725,-0.818837 -0.363758,-0.912592 -0.465646,-7.23997 -0.05831,-3.622741 -0.04416,-6.852887 0.03269,-7.427955 0.430389,-3.22118 3.053472,-5.503644 7.144976,-6.217139 3.465875,-0.6044 6.973634,0.09563 9.714084,1.938586 1.34695,0.905834 2.03633,1.752337 2.37454,2.915727 0.91235,3.138362 -2.24651,6.133048 -5.37367,5.094373 -0.54943,-0.182498 -1.04419,-0.506414 -1.584178,-1.037174 -0.785029,-0.771613 -0.942666,-1.087516 -1.495648,-2.997357 -0.597428,-2.063326 -2.959731,-3.299844 -5.151777,-2.696631 -1.358284,0.373786 -2.579743,1.596425 -2.943147,2.946021 -0.113239,0.420563 -0.145413,2.558551 -0.10118,6.726318 0.06008,5.665657 0.08662,6.162651 0.364457,6.837011 1.160955,2.817748 4.727144,3.554088 6.86788,1.418063 0.595982,-0.594676 0.776423,-0.910831 1.032975,-1.809992 0.612158,-2.145445 1.2897,-2.994323 2.868868,-3.594359 1.53032,-0.581473 3.15406,-0.239346 4.37183,0.921163 1.36419,1.300063 1.70436,3.251373 0.85621,4.911504 -0.82016,1.605307 -3.11387,3.083732 -5.97319,3.850062 -1.124546,0.301391 -4.057161,0.500785 -5.067943,0.344578 z M 54.472603,62.083899 c -3.641523,-0.781675 -6.134118,-2.814943 -6.858035,-5.594258 -0.992513,-3.81048 1.558234,-7.733088 5.442162,-8.36914 0.488382,-0.07997 2.318211,-0.145808 4.066292,-0.146288 3.68965,-8.43e-4 4.168964,-0.10456 5.334393,-1.152377 1.831894,-1.647028 1.781317,-4.430791 -0.110744,-6.096257 -1.541828,-1.357172 -3.885689,-1.380809 -5.434823,-0.05478 -0.744825,0.637544 -1.078676,1.252124 -1.453684,2.676096 -0.5584,2.120349 -2.004887,3.264687 -4.130243,3.26751 -1.274185,0.0017 -1.810498,-0.203253 -2.791432,-1.066702 -2.059172,-1.812554 -1.792769,-4.862688 0.581564,-6.658558 3.990755,-3.018482 9.803881,-3.404891 14.143175,-0.940131 1.027947,0.58389 2.040422,1.699357 2.635714,2.903862 0.523276,1.058764 0.55657,1.217018 0.652316,3.099987 0.05545,1.09135 0.1106,4.495635 0.122482,7.565075 l 0.02157,5.580809 -0.442295,0.931207 c -0.333548,0.702245 -0.656117,1.099019 -1.311946,1.613767 -1.095892,0.860128 -2.967063,1.792407 -4.433177,2.208764 -1.468481,0.417024 -4.607736,0.537451 -6.033308,0.231442 z m 1.050759,-3.33849 c 0.598704,-0.177796 1.007318,-0.442185 1.601144,-1.03602 1.114852,-1.114843 1.290533,-1.78253 1.236205,-4.698358 l -0.04188,-2.247282 -2.323072,-0.04179 c -2.712812,-0.0487 -3.537893,0.124135 -4.492839,0.941539 -1.88949,1.61734 -1.889094,4.545379 8.43e-4,6.208973 1.169332,1.029279 2.511521,1.320761 4.019591,0.872912 z m 19.160822,3.341979 c -2.736515,-0.60741 -5.471143,-2.146651 -6.456383,-3.634084 -1.966773,-2.969287 0.330734,-6.841098 3.869072,-6.520249 1.054769,0.09564 1.872191,0.493311 2.608403,1.268944 0.688045,0.724887 0.952688,1.252301 1.178736,2.349187 0.661543,3.209973 4.445639,4.483999 6.793992,2.287385 0.995209,-0.930895 1.417381,-1.945165 1.319125,-3.169228 -0.132738,-1.653517 -1.003618,-2.892967 -2.517807,-3.583363 -0.616182,-0.28094 -1.079973,-0.322476 -4.532646,-0.405976 -4.021419,-0.09724 -4.227697,-0.129419 -5.723599,-0.892563 -2.697719,-1.376276 -4.108772,-4.867036 -3.180935,-7.869222 0.734831,-2.377695 2.243937,-3.803622 5.058299,-4.779491 4.127436,-1.431168 9.505405,-0.359064 12.392009,2.470364 0.764906,0.749746 0.975928,1.068632 1.186471,1.792895 0.622409,2.141004 -0.57441,4.441823 -2.661045,5.115727 -1.021374,0.329874 -1.757763,0.313998 -2.755779,-0.0594 -1.427746,-0.534189 -2.238307,-1.603461 -2.867205,-3.782369 -0.825368,-2.859597 -4.366488,-3.840952 -6.710821,-1.859778 -0.65154,0.550605 -1.373756,2.058624 -1.373908,2.86879 -3.03e-4,1.571422 0.946806,3.149207 2.331003,3.883161 0.563034,0.298544 0.91272,0.330667 4.531761,0.416291 3.442172,0.08141 4.043084,0.132342 4.914901,0.416324 4.615084,1.503309 6.174516,7.393574 2.91673,11.017014 -1.156026,1.285781 -2.902043,2.176734 -5.222225,2.664803 -1.243024,0.261475 -3.930478,0.264036 -5.098149,0.005 z m 40.585326,0.05107 c -4.40047,-0.863355 -7.08729,-3.628647 -7.095,-7.302219 -0.004,-1.784417 0.55182,-3.161839 1.82363,-4.521404 1.73631,-1.856121 2.70155,-2.137221 7.70871,-2.244991 4.20664,-0.09054 4.55629,-0.168063 5.61466,-1.244944 1.8855,-1.918462 1.58074,-4.862857 -0.65986,-6.375208 -0.62975,-0.425063 -0.93184,-0.522552 -1.8151,-0.585752 -1.38516,-0.09911 -2.25082,0.153796 -3.10746,0.90784 -0.79739,0.701899 -1.11627,1.274859 -1.57355,2.827423 -0.28399,0.964156 -0.44822,1.243478 -1.11188,1.891049 -0.97504,0.95139 -2.11508,1.364445 -3.36156,1.217946 -3.88124,-0.456166 -5.12882,-5.028612 -2.05511,-7.532118 0.47848,-0.389713 1.48083,-1.012282 2.22744,-1.383481 3.76693,-1.872839 7.98347,-1.86871 11.68954,0.01138 1.59834,0.810849 2.73112,2.093764 3.36325,3.80904 0.29359,0.796624 0.32193,1.2816 0.41588,7.114454 0.0554,3.442754 0.0783,6.788153 0.0508,7.434216 -0.082,1.923307 -0.72184,2.986166 -2.46564,4.095204 -2.3095,1.468852 -4.37281,2.054124 -7.15297,2.028987 -1.0056,-0.0091 -2.12869,-0.07542 -2.49578,-0.147468 z m 1.52405,-3.512131 c 0.78483,-0.381538 1.61923,-1.238725 1.99058,-2.044981 0.27179,-0.590118 0.32489,-1.037747 0.36907,-3.111481 0.0434,-2.041678 0.0151,-2.452516 -0.181,-2.61522 -0.17364,-0.144106 -0.83622,-0.179634 -2.61435,-0.140179 -2.08611,0.04626 -2.47415,0.09523 -3.12597,0.394237 -1.4523,0.666212 -2.41616,2.15988 -2.40536,3.727536 0.0124,1.795036 1.08053,3.325453 2.75514,3.947483 0.73581,0.273314 2.50416,0.186662 3.21189,-0.157395 z m 15.05522,3.544229 c -1.23946,-0.406633 -2.13044,-1.209779 -2.69721,-2.43134 l -0.38534,-0.8305 -0.0586,-15.198566 -0.0586,-15.198576 0.40143,-0.820472 c 0.43088,-0.880697 0.96465,-1.408828 1.95218,-1.931573 0.93847,-0.496767 2.62344,-0.464871 3.63755,0.06885 1.16507,0.613198 1.85487,1.477304 2.15939,2.705016 0.11965,0.48244 0.18168,3.863384 0.20202,11.010786 0.0161,5.673015 0.0683,12.181121 0.11604,14.462464 0.0477,2.281344 0.0371,4.440305 -0.0235,4.797701 -0.22405,1.321013 -1.0602,2.449702 -2.27391,3.069465 -0.68439,0.349467 -2.31449,0.512255 -2.97143,0.296732 z"
         id="path2558"
         sodipodi:nodetypes="sscscsccsccscscssssssssccsccsscssscsssssssssssssssscccsscsscscsssscscssscccscccsccccssscsssssssscssssssssssccccsssssssssssssscscccssssssssssscccsssssccsss"
         inkscape:export-filename="/home/michael/programming/websites/workspace/src/content/pascal/path2558.png"
         inkscape:export-xdpi="1228.8"
         inkscape:export-ydpi="1228.8" />
    </g>
  </g>
</svg>
