<?xml version="1.0" encoding="UTF-8" standalone="no"?>
<!-- Created with Inkscape (http://www.inkscape.org/) -->

<svg
   width="160"
   height="90"
   id="svg1968"
   sodipodi:version="0.32"
   inkscape:version="1.1.2 (0a00cf5339, 2022-02-04)"
   version="1.0"
   sodipodi:docname="nasm-logo.svg"
   inkscape:export-filename="/home/michael/programming/websites/workspace/src/content/nasm/nasm-logo.png"
   inkscape:export-xdpi="1228.8"
   inkscape:export-ydpi="1228.8"
   xmlns:inkscape="http://www.inkscape.org/namespaces/inkscape"
   xmlns:sodipodi="http://sodipodi.sourceforge.net/DTD/sodipodi-0.dtd"
   xmlns="http://www.w3.org/2000/svg"
   xmlns:svg="http://www.w3.org/2000/svg"
   xmlns:rdf="http://www.w3.org/1999/02/22-rdf-syntax-ns#"
   xmlns:cc="http://creativecommons.org/ns#"
   xmlns:dc="http://purl.org/dc/elements/1.1/">
  <defs
     id="defs1970" />
  <sodipodi:namedview
     id="base"
     pagecolor="#ffffff"
     bordercolor="#666666"
     borderopacity="1.0"
     inkscape:pageopacity="0.0"
     inkscape:pageshadow="2"
     inkscape:zoom="9.05625"
     inkscape:cx="80"
     inkscape:cy="44.996549"
     inkscape:document-units="px"
     inkscape:current-layer="g2452"
     width="68.51mm"
     height="129.89mm"
     units="mm"
     inkscape:window-width="2496"
     inkscape:window-height="1369"
     inkscape:window-x="2624"
     inkscape:window-y="34"
     inkscape:pagecheckerboard="0"
     showgrid="false"
     inkscape:window-maximized="1"
     inkscape:snap-to-guides="false" />
  <metadata
     id="metadata1973">
    <rdf:RDF>
      <cc:Work
         rdf:about="">
        <dc:format>image/svg+xml</dc:format>
        <dc:type
           rdf:resource="http://purl.org/dc/dcmitype/StillImage" />
      </cc:Work>
    </rdf:RDF>
  </metadata>
  <g
     inkscape:label="Ebene 1"
     inkscape:groupmode="layer"
     id="layer1"
     transform="translate(3824.556,782.8939)">
    <g
       id="Ebene_x0020_1"
       transform="translate(-3826.724,-785.8793)"
       inkscape:label="Ebene 1"
       inkscape:groupmode="layer">
      <metadata
         id="CorelCorpID_0Corel-Layer" />
      <g
         id="g2452"
         transform="matrix(0.20328214,0,0,0.20328214,51.065833,12.985399)">
        <g
           transform="matrix(2.2053429,0,0,2.2053429,-314.58563,-307.79536)"
           id="g2555">
	<path
   fill="#113b6a"
   d="m 218.613,139.429 c -8.074,0 -14.617,6.545 -14.617,14.616 0,2.838 0.822,5.478 2.222,7.72 l -9.306,9.306 c -11.691,-10.58 -27.193,-17.026 -44.203,-17.026 -36.396,0 -65.904,29.508 -65.904,65.904 0,36.398 29.508,65.903 65.904,65.903 36.397,0 65.904,-29.505 65.904,-65.903 0,-17.009 -6.447,-32.512 -17.027,-44.204 l 9.307,-9.306 c 2.242,1.399 4.883,2.222 7.721,2.222 8.07,0 14.613,-6.544 14.613,-14.615 0,-8.071 -6.543,-14.617 -14.614,-14.617 z"
   id="path2503" />

	<g
   id="g2543">
		<path
   fill="#113b6a"
   d="m 246.466,207.278 c 0.042,0.154 0.024,0.294 -0.053,0.42 -0.077,0.127 -0.187,0.211 -0.326,0.252 -0.252,0.084 -0.522,0.154 -0.81,0.211 -0.288,0.057 -0.571,0.102 -0.852,0.137 -0.281,0.035 -0.544,0.06 -0.789,0.074 -0.246,0.014 -0.452,0.021 -0.621,0.021 -0.659,0 -1.191,-0.095 -1.598,-0.284 -0.407,-0.189 -0.723,-0.438 -0.947,-0.746 -0.224,-0.309 -0.375,-0.663 -0.452,-1.063 -0.077,-0.4 -0.115,-0.816 -0.115,-1.252 v -4.689 h -0.926 c -0.168,0 -0.284,-0.039 -0.347,-0.116 -0.063,-0.077 -0.095,-0.192 -0.095,-0.347 v -1.578 c 0,-0.154 0.031,-0.27 0.095,-0.348 0.063,-0.076 0.179,-0.115 0.347,-0.115 h 0.946 v -2.061 c 0,-0.168 0.042,-0.291 0.127,-0.369 0.084,-0.076 0.196,-0.137 0.336,-0.178 l 2.125,-0.568 c 0.153,-0.056 0.28,-0.053 0.378,0.011 0.099,0.063 0.147,0.179 0.147,0.347 v 2.818 h 2.146 c 0.196,0 0.318,0.035 0.368,0.105 0.049,0.07 0.073,0.183 0.073,0.336 v 1.6 c 0,0.154 -0.024,0.27 -0.073,0.347 -0.05,0.077 -0.172,0.116 -0.368,0.116 h -2.167 l 0.021,3.912 c 0,0.195 0.011,0.364 0.031,0.504 0.021,0.141 0.074,0.256 0.158,0.348 0.084,0.091 0.21,0.161 0.379,0.21 0.168,0.05 0.406,0.073 0.715,0.073 0.168,0 0.386,-0.006 0.652,-0.021 0.266,-0.015 0.532,-0.035 0.799,-0.063 0.14,0 0.252,0.014 0.337,0.043 0.084,0.027 0.14,0.16 0.168,0.398 z"
   id="path2505" />

		<path
   fill="#113b6a"
   d="m 257.382,207.761 c 0,0.113 -0.024,0.219 -0.073,0.316 -0.05,0.098 -0.172,0.146 -0.368,0.146 h -2.314 c -0.309,0 -0.462,-0.154 -0.462,-0.463 0,-0.224 0,-0.602 0,-1.135 0,-0.533 0.003,-1.098 0.01,-1.693 0.007,-0.595 0.011,-1.16 0.011,-1.693 0,-0.533 0,-0.911 0,-1.136 0,-0.575 -0.102,-0.981 -0.305,-1.22 -0.203,-0.239 -0.529,-0.357 -0.979,-0.357 -0.154,0 -0.326,0.021 -0.515,0.063 -0.189,0.043 -0.379,0.095 -0.568,0.158 -0.189,0.063 -0.368,0.129 -0.536,0.199 -0.168,0.07 -0.315,0.134 -0.441,0.189 v 6.625 c 0,0.113 -0.025,0.219 -0.074,0.316 -0.049,0.097 -0.172,0.146 -0.368,0.146 h -2.313 c -0.168,0 -0.284,-0.041 -0.347,-0.125 -0.063,-0.085 -0.095,-0.197 -0.095,-0.338 v -13.924 c 0,-0.14 0.031,-0.252 0.095,-0.336 0.063,-0.084 0.179,-0.127 0.347,-0.127 h 2.335 c 0.196,0 0.318,0.05 0.368,0.148 0.049,0.098 0.073,0.203 0.073,0.314 v 4.754 c 0.435,-0.238 0.933,-0.455 1.493,-0.652 0.561,-0.195 1.107,-0.294 1.641,-0.294 0.785,0 1.406,0.123 1.861,0.368 0.456,0.245 0.796,0.568 1.021,0.967 0.224,0.4 0.364,0.846 0.421,1.336 0.056,0.491 0.084,0.982 0.084,1.473 v 5.975 z"
   id="path2507" />

		<path
   fill="#113b6a"
   d="m 262.535,203.786 c 0.014,0.406 0.076,0.736 0.188,0.988 0.112,0.252 0.264,0.453 0.452,0.6 0.189,0.147 0.421,0.246 0.694,0.295 0.273,0.049 0.586,0.073 0.937,0.073 0.322,0 0.708,-0.021 1.156,-0.063 0.449,-0.041 0.891,-0.091 1.325,-0.146 0.28,-0.028 0.456,-0.025 0.526,0.01 0.069,0.035 0.133,0.187 0.188,0.453 l 0.169,0.988 c 0.042,0.238 0.042,0.424 0,0.557 -0.042,0.134 -0.225,0.264 -0.547,0.39 -0.211,0.07 -0.46,0.137 -0.747,0.2 -0.287,0.063 -0.582,0.115 -0.883,0.157 -0.302,0.042 -0.607,0.073 -0.915,0.095 -0.309,0.021 -0.589,0.031 -0.842,0.031 -1.052,0 -1.903,-0.146 -2.556,-0.441 -0.651,-0.295 -1.156,-0.684 -1.515,-1.168 -0.357,-0.482 -0.599,-1.044 -0.726,-1.682 -0.126,-0.639 -0.188,-1.308 -0.188,-2.009 0,-0.505 0.042,-1.073 0.126,-1.704 0.084,-0.631 0.287,-1.227 0.609,-1.787 0.323,-0.561 0.803,-1.031 1.441,-1.41 0.638,-0.379 1.511,-0.567 2.618,-0.567 1.01,0 1.823,0.144 2.44,0.431 0.616,0.288 1.097,0.663 1.44,1.125 0.344,0.463 0.578,0.979 0.705,1.547 0.126,0.568 0.188,1.133 0.188,1.693 0,0.435 -0.08,0.768 -0.241,0.998 -0.162,0.232 -0.467,0.348 -0.915,0.348 h -5.127 z m 1.514,-3.681 c -0.491,0 -0.852,0.151 -1.083,0.452 -0.231,0.302 -0.361,0.746 -0.389,1.336 h 2.923 c 0,-0.506 -0.104,-0.93 -0.315,-1.273 -0.21,-0.343 -0.589,-0.515 -1.136,-0.515 z"
   id="path2509" />

		<path
   fill="#113b6a"
   d="m 248.685,227.718 c -0.05,0.092 -0.172,0.137 -0.368,0.137 h -2.313 c -0.309,0 -0.463,-0.146 -0.463,-0.441 0,-0.926 0.003,-1.844 0.011,-2.756 0.007,-0.91 0.011,-1.829 0.011,-2.754 0,-0.59 -0.103,-1.007 -0.306,-1.252 -0.203,-0.246 -0.529,-0.368 -0.978,-0.368 -0.337,0 -0.701,0.081 -1.094,0.241 -0.393,0.162 -0.715,0.285 -0.968,0.369 v 6.52 c 0,0.113 -0.024,0.215 -0.073,0.305 -0.05,0.092 -0.172,0.137 -0.368,0.137 h -2.293 c -0.183,0 -0.305,-0.038 -0.368,-0.115 -0.063,-0.076 -0.095,-0.186 -0.095,-0.326 v -9.465 c 0,-0.14 0.032,-0.252 0.095,-0.336 0.063,-0.084 0.186,-0.127 0.368,-0.127 h 2.293 c 0.196,0 0.318,0.05 0.368,0.147 0.049,0.099 0.073,0.204 0.073,0.315 v 0.505 c 0.014,0 0.024,0.003 0.031,0.011 0.007,0.007 0.018,0.01 0.032,0.01 0.463,-0.35 1.002,-0.634 1.619,-0.852 0.617,-0.217 1.178,-0.326 1.683,-0.326 0.743,0 1.328,0.123 1.757,0.369 0.427,0.244 0.746,0.567 0.957,0.967 0.21,0.4 0.339,0.846 0.389,1.336 0.049,0.49 0.073,0.981 0.073,1.473 v 5.973 c 0,0.111 -0.025,0.213 -0.073,0.303 z"
   id="path2511" />

		<path
   fill="#113b6a"
   d="m 253.933,223.417 c 0.014,0.406 0.076,0.736 0.188,0.988 0.112,0.252 0.264,0.453 0.452,0.6 0.189,0.147 0.421,0.246 0.694,0.295 0.273,0.049 0.586,0.073 0.937,0.073 0.322,0 0.708,-0.021 1.156,-0.063 0.449,-0.041 0.891,-0.091 1.325,-0.146 0.28,-0.028 0.456,-0.025 0.526,0.01 0.069,0.035 0.133,0.187 0.188,0.453 l 0.169,0.988 c 0.042,0.238 0.042,0.424 0,0.557 -0.042,0.134 -0.225,0.264 -0.547,0.39 -0.211,0.07 -0.46,0.137 -0.747,0.2 -0.287,0.063 -0.582,0.115 -0.883,0.157 -0.302,0.042 -0.607,0.073 -0.915,0.095 -0.309,0.021 -0.589,0.031 -0.842,0.031 -1.052,0 -1.903,-0.146 -2.556,-0.441 -0.651,-0.295 -1.156,-0.684 -1.515,-1.168 -0.357,-0.482 -0.599,-1.044 -0.726,-1.682 -0.126,-0.639 -0.188,-1.308 -0.188,-2.009 0,-0.505 0.042,-1.073 0.126,-1.704 0.084,-0.631 0.287,-1.227 0.609,-1.787 0.323,-0.561 0.803,-1.031 1.441,-1.41 0.638,-0.379 1.511,-0.567 2.618,-0.567 1.01,0 1.823,0.144 2.44,0.431 0.616,0.288 1.097,0.663 1.44,1.125 0.344,0.463 0.578,0.979 0.705,1.547 0.126,0.568 0.188,1.133 0.188,1.693 0,0.435 -0.08,0.768 -0.241,0.998 -0.162,0.232 -0.467,0.348 -0.915,0.348 h -5.127 z m 1.513,-3.681 c -0.491,0 -0.852,0.151 -1.083,0.452 -0.231,0.302 -0.361,0.746 -0.389,1.336 h 2.923 c 0,-0.506 -0.104,-0.93 -0.315,-1.273 -0.21,-0.343 -0.589,-0.515 -1.136,-0.515 z"
   id="path2513" />

		<path
   fill="#113b6a"
   d="m 269.413,226.909 c 0.042,0.154 0.024,0.294 -0.053,0.42 -0.077,0.127 -0.187,0.211 -0.326,0.252 -0.252,0.084 -0.522,0.154 -0.81,0.211 -0.288,0.057 -0.571,0.102 -0.852,0.137 -0.281,0.035 -0.544,0.06 -0.789,0.074 -0.246,0.014 -0.452,0.021 -0.621,0.021 -0.659,0 -1.191,-0.095 -1.598,-0.284 -0.407,-0.189 -0.723,-0.438 -0.947,-0.746 -0.224,-0.309 -0.375,-0.663 -0.452,-1.063 -0.077,-0.4 -0.115,-0.816 -0.115,-1.252 v -4.689 h -0.926 c -0.168,0 -0.284,-0.039 -0.347,-0.116 -0.063,-0.077 -0.095,-0.192 -0.095,-0.347 v -1.578 c 0,-0.154 0.031,-0.27 0.095,-0.348 0.063,-0.076 0.179,-0.115 0.347,-0.115 h 0.946 v -2.061 c 0,-0.168 0.042,-0.291 0.127,-0.369 0.084,-0.076 0.196,-0.137 0.336,-0.178 l 2.125,-0.568 c 0.153,-0.056 0.28,-0.053 0.378,0.011 0.099,0.063 0.147,0.179 0.147,0.347 v 2.818 h 2.146 c 0.196,0 0.318,0.035 0.368,0.105 0.049,0.07 0.073,0.183 0.073,0.336 v 1.6 c 0,0.154 -0.024,0.27 -0.073,0.347 -0.05,0.077 -0.172,0.116 -0.368,0.116 h -2.167 l 0.021,3.912 c 0,0.195 0.011,0.364 0.031,0.504 0.021,0.141 0.074,0.256 0.158,0.348 0.084,0.091 0.21,0.161 0.379,0.21 0.168,0.05 0.406,0.073 0.715,0.073 0.168,0 0.386,-0.006 0.652,-0.021 0.266,-0.015 0.532,-0.035 0.799,-0.063 0.14,0 0.252,0.014 0.337,0.043 0.084,0.027 0.14,0.16 0.168,0.398 z"
   id="path2515" />

		<path
   fill="#113b6a"
   d="m 278.667,217.99 c 0.196,0.632 0.386,1.259 0.568,1.883 0.182,0.624 0.364,1.251 0.547,1.882 l 0.631,2.188 h 0.084 l 0.673,-2.629 0.862,-3.344 c 0.057,-0.196 0.116,-0.326 0.18,-0.39 0.063,-0.063 0.171,-0.095 0.325,-0.095 h 2.356 c 0.196,0 0.308,0.046 0.336,0.137 0.028,0.092 0.021,0.193 -0.021,0.305 l -2.903,9.276 c -0.07,0.21 -0.154,0.372 -0.252,0.483 -0.099,0.113 -0.287,0.168 -0.568,0.168 h -1.767 c -0.238,0 -0.406,-0.038 -0.505,-0.115 -0.098,-0.076 -0.188,-0.242 -0.273,-0.494 l -0.505,-1.515 -0.693,-2.062 h -0.063 l -0.778,2.125 -0.525,1.451 c -0.07,0.182 -0.151,0.33 -0.242,0.441 -0.091,0.113 -0.291,0.168 -0.6,0.168 h -1.619 c -0.281,0 -0.474,-0.041 -0.578,-0.125 -0.105,-0.085 -0.193,-0.238 -0.264,-0.463 l -3.134,-9.318 c -0.014,-0.042 -0.021,-0.098 -0.021,-0.168 0,-0.196 0.111,-0.295 0.336,-0.295 h 2.377 c 0.182,0 0.315,0.028 0.399,0.084 0.084,0.057 0.154,0.176 0.211,0.357 l 0.946,3.514 0.736,2.691 h 0.104 l 0.758,-2.377 0.567,-1.661 -0.736,-2.146 c -0.042,-0.111 -0.038,-0.217 0.011,-0.315 0.049,-0.098 0.15,-0.147 0.305,-0.147 h 2.104 c 0.211,0 0.351,0.025 0.421,0.074 0.07,0.049 0.14,0.194 0.21,0.432 z"
   id="path2517" />

		<path
   fill="#113b6a"
   d="m 290.13,214.73 c 0,0.196 -0.021,0.39 -0.063,0.578 -0.042,0.189 -0.123,0.358 -0.242,0.505 -0.119,0.147 -0.287,0.267 -0.505,0.357 -0.218,0.092 -0.501,0.137 -0.852,0.137 -0.365,0 -0.659,-0.045 -0.884,-0.137 -0.225,-0.091 -0.396,-0.213 -0.515,-0.368 -0.12,-0.153 -0.197,-0.322 -0.231,-0.505 -0.035,-0.182 -0.053,-0.371 -0.053,-0.567 0,-0.435 0.111,-0.803 0.336,-1.104 0.225,-0.301 0.674,-0.452 1.347,-0.452 0.336,0 0.613,0.038 0.831,0.116 0.217,0.076 0.389,0.186 0.515,0.326 0.126,0.14 0.211,0.305 0.253,0.494 0.042,0.189 0.063,0.397 0.063,0.62 z m -0.105,12.662 c 0,0.113 -0.025,0.219 -0.074,0.316 -0.049,0.097 -0.165,0.146 -0.347,0.146 h -2.313 c -0.183,0 -0.306,-0.041 -0.368,-0.125 -0.063,-0.085 -0.095,-0.197 -0.095,-0.338 v -9.465 c 0,-0.153 0.031,-0.27 0.095,-0.347 0.063,-0.077 0.186,-0.116 0.368,-0.116 h 2.313 c 0.182,0 0.298,0.053 0.347,0.158 0.049,0.105 0.074,0.207 0.074,0.305 z"
   id="path2519" />

		<path
   fill="#113b6a"
   d="m 301.971,227.413 c 0,0.113 -0.024,0.215 -0.074,0.305 -0.049,0.092 -0.173,0.137 -0.37,0.137 h -2.329 c -0.17,0 -0.282,-0.034 -0.339,-0.104 -0.057,-0.07 -0.085,-0.175 -0.085,-0.315 v -0.547 c -0.014,0 -0.024,-0.004 -0.031,-0.011 -0.007,-0.007 -0.018,-0.011 -0.031,-0.011 -0.463,0.352 -0.954,0.631 -1.473,0.842 -0.519,0.21 -1.023,0.315 -1.515,0.315 -0.715,0 -1.301,-0.13 -1.756,-0.39 -0.456,-0.259 -0.813,-0.62 -1.072,-1.083 -0.26,-0.462 -0.438,-1.013 -0.537,-1.651 -0.098,-0.638 -0.146,-1.335 -0.146,-2.092 0,-0.842 0.052,-1.603 0.157,-2.283 0.105,-0.68 0.312,-1.262 0.62,-1.745 0.308,-0.483 0.743,-0.858 1.305,-1.126 0.561,-0.266 1.29,-0.398 2.188,-0.398 0.477,0 0.894,0.031 1.251,0.094 0.357,0.063 0.697,0.145 1.021,0.242 l 0.021,-0.021 v -4.08 c 0,-0.141 0.028,-0.256 0.085,-0.348 0.057,-0.09 0.177,-0.137 0.36,-0.137 h 2.308 c 0.197,0 0.321,0.053 0.37,0.158 0.05,0.105 0.074,0.215 0.074,0.326 v 13.923 z m -3.218,-7.172 c -0.365,-0.098 -0.673,-0.161 -0.926,-0.189 -0.252,-0.027 -0.491,-0.042 -0.715,-0.042 -0.295,0 -0.547,0.038 -0.758,0.116 -0.21,0.076 -0.382,0.217 -0.515,0.42 -0.134,0.203 -0.229,0.477 -0.284,0.82 -0.055,0.343 -0.084,0.789 -0.084,1.336 0,0.519 0.024,0.936 0.073,1.251 0.049,0.315 0.127,0.562 0.231,0.736 0.105,0.175 0.238,0.291 0.399,0.347 0.161,0.057 0.348,0.084 0.558,0.084 0.168,0 0.344,-0.021 0.526,-0.063 0.182,-0.042 0.364,-0.095 0.547,-0.158 0.182,-0.063 0.354,-0.133 0.515,-0.21 0.161,-0.077 0.306,-0.144 0.432,-0.2 v -4.248 z"
   id="path2521" />

		<path
   fill="#113b6a"
   d="m 307.167,223.417 c 0.014,0.406 0.076,0.736 0.188,0.988 0.112,0.252 0.264,0.453 0.452,0.6 0.189,0.147 0.421,0.246 0.694,0.295 0.273,0.049 0.586,0.073 0.937,0.073 0.322,0 0.708,-0.021 1.156,-0.063 0.449,-0.041 0.891,-0.091 1.325,-0.146 0.28,-0.028 0.456,-0.025 0.526,0.01 0.069,0.035 0.133,0.187 0.188,0.453 l 0.169,0.988 c 0.042,0.238 0.042,0.424 0,0.557 -0.042,0.134 -0.225,0.264 -0.547,0.39 -0.211,0.07 -0.46,0.137 -0.747,0.2 -0.287,0.063 -0.582,0.115 -0.883,0.157 -0.302,0.042 -0.607,0.073 -0.915,0.095 -0.309,0.021 -0.589,0.031 -0.842,0.031 -1.052,0 -1.903,-0.146 -2.556,-0.441 -0.651,-0.295 -1.156,-0.684 -1.515,-1.168 -0.357,-0.482 -0.599,-1.044 -0.726,-1.682 -0.126,-0.639 -0.188,-1.308 -0.188,-2.009 0,-0.505 0.042,-1.073 0.126,-1.704 0.084,-0.631 0.287,-1.227 0.609,-1.787 0.323,-0.561 0.803,-1.031 1.441,-1.41 0.638,-0.379 1.511,-0.567 2.618,-0.567 1.01,0 1.823,0.144 2.44,0.431 0.616,0.288 1.097,0.663 1.44,1.125 0.344,0.463 0.578,0.979 0.705,1.547 0.126,0.568 0.188,1.133 0.188,1.693 0,0.435 -0.08,0.768 -0.241,0.998 -0.162,0.232 -0.467,0.348 -0.915,0.348 h -5.127 z m 1.514,-3.681 c -0.491,0 -0.852,0.151 -1.083,0.452 -0.231,0.302 -0.361,0.746 -0.389,1.336 h 2.923 c 0,-0.506 -0.104,-0.93 -0.315,-1.273 -0.211,-0.343 -0.589,-0.515 -1.136,-0.515 z"
   id="path2523" />

		<path
   fill="#113b6a"
   d="m 245.562,246.224 c -0.281,0.252 -0.582,0.471 -0.905,0.652 -0.322,0.182 -0.651,0.333 -0.988,0.452 -0.336,0.119 -0.666,0.203 -0.988,0.253 -0.323,0.049 -0.617,0.073 -0.884,0.073 -0.617,0 -1.118,-0.088 -1.504,-0.263 -0.386,-0.176 -0.684,-0.403 -0.894,-0.684 -0.21,-0.281 -0.354,-0.607 -0.432,-0.979 -0.078,-0.372 -0.115,-0.76 -0.115,-1.168 -0.014,-0.645 0.073,-1.191 0.263,-1.64 0.19,-0.449 0.459,-0.81 0.81,-1.083 0.351,-0.273 0.778,-0.471 1.283,-0.59 0.505,-0.119 1.065,-0.178 1.683,-0.178 h 2.419 v -0.337 c 0,-0.224 -0.024,-0.413 -0.073,-0.567 -0.05,-0.154 -0.141,-0.281 -0.273,-0.379 -0.134,-0.098 -0.319,-0.172 -0.558,-0.221 -0.239,-0.049 -0.554,-0.074 -0.946,-0.074 -0.154,0 -0.348,0.008 -0.579,0.021 -0.23,0.014 -0.473,0.027 -0.726,0.041 -0.252,0.015 -0.504,0.035 -0.757,0.064 -0.252,0.027 -0.483,0.049 -0.694,0.063 -0.294,0.028 -0.487,0.028 -0.578,0 -0.092,-0.027 -0.165,-0.147 -0.221,-0.357 l -0.231,-1.094 c -0.028,-0.182 -0.004,-0.333 0.073,-0.453 0.077,-0.118 0.277,-0.241 0.6,-0.367 0.238,-0.084 0.516,-0.158 0.831,-0.221 0.315,-0.063 0.638,-0.116 0.968,-0.158 0.329,-0.042 0.655,-0.073 0.978,-0.095 0.322,-0.021 0.603,-0.031 0.842,-0.031 0.981,0 1.77,0.091 2.366,0.273 0.596,0.183 1.052,0.441 1.367,0.778 0.315,0.336 0.521,0.75 0.62,1.24 0.098,0.492 0.147,1.053 0.147,1.684 v 3.322 c 0,0.225 0.011,0.4 0.031,0.526 0.021,0.126 0.06,0.221 0.116,0.284 0.056,0.063 0.133,0.108 0.231,0.137 0.098,0.027 0.23,0.049 0.399,0.063 0.182,0.015 0.301,0.046 0.357,0.096 0.056,0.049 0.084,0.137 0.084,0.262 v 1.347 c 0,0.28 -0.203,0.463 -0.61,0.547 -0.393,0.098 -0.827,0.147 -1.304,0.147 -0.519,0 -0.975,-0.088 -1.367,-0.264 -0.393,-0.175 -0.659,-0.543 -0.799,-1.104 z m -0.316,-3.114 h -1.894 c -0.393,0 -0.701,0.092 -0.926,0.273 -0.224,0.184 -0.336,0.52 -0.336,1.01 0,0.323 0.066,0.547 0.199,0.674 0.134,0.126 0.382,0.189 0.747,0.189 0.322,0 0.697,-0.078 1.125,-0.232 0.428,-0.154 0.789,-0.322 1.084,-0.504 v -1.41 z"
   id="path2525" />

		<path
   fill="#113b6a"
   d="m 259.569,244.214 c 0,0.656 -0.13,1.206 -0.39,1.646 -0.26,0.441 -0.606,0.794 -1.041,1.06 -0.435,0.266 -0.929,0.458 -1.482,0.577 -0.555,0.119 -1.133,0.178 -1.735,0.178 -0.253,0 -0.526,-0.01 -0.82,-0.031 -0.295,-0.021 -0.593,-0.052 -0.895,-0.094 -0.302,-0.041 -0.589,-0.09 -0.862,-0.146 -0.273,-0.055 -0.515,-0.117 -0.726,-0.188 -0.351,-0.125 -0.575,-0.254 -0.673,-0.386 -0.099,-0.132 -0.112,-0.337 -0.042,-0.615 l 0.231,-1.001 c 0.042,-0.196 0.105,-0.314 0.189,-0.357 0.084,-0.042 0.245,-0.042 0.483,0 0.491,0.084 1.023,0.15 1.599,0.2 0.576,0.05 1.044,0.073 1.409,0.073 0.533,0 0.911,-0.059 1.136,-0.179 0.225,-0.12 0.337,-0.319 0.337,-0.601 0,-0.311 -0.084,-0.518 -0.253,-0.623 -0.168,-0.105 -0.477,-0.186 -0.925,-0.242 -0.575,-0.084 -1.112,-0.183 -1.609,-0.295 -0.498,-0.113 -0.937,-0.281 -1.314,-0.506 -0.379,-0.225 -0.677,-0.527 -0.895,-0.907 -0.217,-0.38 -0.325,-0.879 -0.325,-1.497 0,-0.563 0.107,-1.055 0.323,-1.477 0.216,-0.422 0.512,-0.772 0.888,-1.054 0.376,-0.282 0.826,-0.492 1.349,-0.633 0.523,-0.141 1.093,-0.211 1.71,-0.211 0.238,0 0.501,0.011 0.788,0.032 0.288,0.021 0.579,0.049 0.873,0.084 0.295,0.035 0.579,0.082 0.853,0.139 0.274,0.057 0.521,0.127 0.746,0.212 0.28,0.099 0.487,0.201 0.621,0.308 0.133,0.105 0.164,0.293 0.094,0.562 l -0.23,1.082 c -0.057,0.196 -0.116,0.316 -0.18,0.358 -0.063,0.042 -0.214,0.049 -0.452,0.021 -0.238,-0.028 -0.497,-0.061 -0.777,-0.096 -0.281,-0.034 -0.558,-0.063 -0.831,-0.084 -0.273,-0.021 -0.529,-0.038 -0.768,-0.053 -0.239,-0.014 -0.442,-0.021 -0.61,-0.021 -0.533,-0.014 -0.866,0.046 -0.999,0.179 -0.134,0.133 -0.2,0.311 -0.2,0.535 0,0.266 0.123,0.437 0.37,0.514 0.246,0.076 0.56,0.15 0.939,0.221 0.549,0.069 1.069,0.156 1.563,0.262 0.492,0.105 0.926,0.275 1.299,0.514 0.373,0.239 0.672,0.557 0.897,0.955 0.224,0.399 0.337,0.927 0.337,1.585 z"
   id="path2527" />

		<path
   fill="#113b6a"
   d="m 269.834,244.214 c 0,0.656 -0.13,1.206 -0.39,1.646 -0.26,0.441 -0.606,0.794 -1.041,1.06 -0.435,0.266 -0.929,0.458 -1.482,0.577 -0.555,0.119 -1.133,0.178 -1.735,0.178 -0.253,0 -0.526,-0.01 -0.82,-0.031 -0.295,-0.021 -0.593,-0.052 -0.895,-0.094 -0.302,-0.041 -0.589,-0.09 -0.862,-0.146 -0.273,-0.055 -0.515,-0.117 -0.726,-0.188 -0.351,-0.125 -0.575,-0.254 -0.673,-0.386 -0.099,-0.132 -0.112,-0.337 -0.042,-0.615 l 0.231,-1.001 c 0.042,-0.196 0.105,-0.314 0.189,-0.357 0.084,-0.042 0.245,-0.042 0.483,0 0.491,0.084 1.023,0.15 1.599,0.2 0.576,0.05 1.044,0.073 1.409,0.073 0.533,0 0.911,-0.059 1.136,-0.179 0.225,-0.12 0.337,-0.319 0.337,-0.601 0,-0.311 -0.084,-0.518 -0.253,-0.623 -0.168,-0.105 -0.477,-0.186 -0.925,-0.242 -0.575,-0.084 -1.112,-0.183 -1.609,-0.295 -0.498,-0.113 -0.937,-0.281 -1.314,-0.506 -0.379,-0.225 -0.677,-0.527 -0.895,-0.907 -0.217,-0.38 -0.325,-0.879 -0.325,-1.497 0,-0.563 0.107,-1.055 0.323,-1.477 0.216,-0.422 0.512,-0.772 0.888,-1.054 0.376,-0.282 0.826,-0.492 1.349,-0.633 0.523,-0.141 1.093,-0.211 1.71,-0.211 0.238,0 0.501,0.011 0.788,0.032 0.288,0.021 0.579,0.049 0.873,0.084 0.295,0.035 0.579,0.082 0.853,0.139 0.274,0.057 0.521,0.127 0.746,0.212 0.28,0.099 0.487,0.201 0.621,0.308 0.133,0.105 0.164,0.293 0.094,0.562 l -0.23,1.082 c -0.057,0.196 -0.116,0.316 -0.18,0.358 -0.063,0.042 -0.214,0.049 -0.452,0.021 -0.238,-0.028 -0.497,-0.061 -0.777,-0.096 -0.281,-0.034 -0.558,-0.063 -0.831,-0.084 -0.273,-0.021 -0.529,-0.038 -0.768,-0.053 -0.239,-0.014 -0.442,-0.021 -0.61,-0.021 -0.533,-0.014 -0.866,0.046 -0.999,0.179 -0.134,0.133 -0.2,0.311 -0.2,0.535 0,0.266 0.123,0.437 0.37,0.514 0.246,0.076 0.56,0.15 0.939,0.221 0.549,0.069 1.069,0.156 1.563,0.262 0.492,0.105 0.926,0.275 1.299,0.514 0.373,0.239 0.672,0.557 0.897,0.955 0.224,0.399 0.337,0.927 0.337,1.585 z"
   id="path2529" />

		<path
   fill="#113b6a"
   d="m 274.776,243.048 c 0.014,0.406 0.076,0.736 0.188,0.988 0.112,0.252 0.264,0.453 0.452,0.6 0.189,0.147 0.421,0.246 0.694,0.295 0.273,0.049 0.586,0.073 0.937,0.073 0.322,0 0.708,-0.021 1.156,-0.063 0.449,-0.041 0.891,-0.091 1.325,-0.146 0.28,-0.028 0.456,-0.025 0.526,0.01 0.069,0.035 0.133,0.187 0.188,0.453 l 0.169,0.988 c 0.042,0.238 0.042,0.424 0,0.557 -0.042,0.134 -0.225,0.264 -0.547,0.39 -0.211,0.07 -0.46,0.137 -0.747,0.2 -0.287,0.063 -0.582,0.115 -0.883,0.157 -0.302,0.042 -0.607,0.073 -0.915,0.095 -0.309,0.021 -0.589,0.031 -0.842,0.031 -1.052,0 -1.903,-0.146 -2.556,-0.441 -0.651,-0.295 -1.156,-0.684 -1.515,-1.168 -0.357,-0.482 -0.599,-1.044 -0.726,-1.682 -0.126,-0.639 -0.188,-1.308 -0.188,-2.009 0,-0.505 0.042,-1.073 0.126,-1.704 0.084,-0.631 0.287,-1.227 0.609,-1.787 0.323,-0.561 0.803,-1.031 1.441,-1.41 0.638,-0.379 1.511,-0.567 2.618,-0.567 1.01,0 1.823,0.144 2.44,0.431 0.616,0.288 1.097,0.663 1.44,1.125 0.344,0.463 0.578,0.979 0.705,1.547 0.126,0.568 0.188,1.133 0.188,1.693 0,0.435 -0.08,0.768 -0.241,0.998 -0.162,0.232 -0.467,0.348 -0.915,0.348 h -5.127 z m 1.514,-3.681 c -0.491,0 -0.852,0.151 -1.083,0.452 -0.231,0.302 -0.361,0.746 -0.389,1.336 h 2.923 c 0,-0.506 -0.104,-0.93 -0.315,-1.273 -0.21,-0.343 -0.589,-0.515 -1.136,-0.515 z"
   id="path2531" />

		<path
   fill="#113b6a"
   d="m 298.448,247.349 c -0.05,0.092 -0.165,0.137 -0.348,0.137 h -2.313 c -0.183,0 -0.305,-0.038 -0.368,-0.115 -0.063,-0.076 -0.095,-0.186 -0.095,-0.326 v -5.531 c 0,-0.645 -0.098,-1.072 -0.294,-1.283 -0.196,-0.211 -0.491,-0.315 -0.884,-0.315 -0.252,0 -0.561,0.066 -0.925,0.2 -0.365,0.133 -0.681,0.27 -0.947,0.41 v 6.52 c 0,0.113 -0.024,0.215 -0.073,0.305 -0.049,0.092 -0.172,0.137 -0.368,0.137 h -2.313 c -0.168,0 -0.284,-0.038 -0.347,-0.115 -0.063,-0.076 -0.095,-0.186 -0.095,-0.326 v -5.595 c 0,-0.589 -0.096,-0.991 -0.286,-1.21 -0.19,-0.217 -0.477,-0.325 -0.858,-0.325 -0.254,0 -0.561,0.063 -0.921,0.188 -0.36,0.127 -0.688,0.268 -0.984,0.422 v 6.52 c 0,0.113 -0.028,0.215 -0.084,0.305 -0.056,0.092 -0.182,0.137 -0.376,0.137 h -2.299 c -0.167,0 -0.282,-0.038 -0.345,-0.115 -0.063,-0.076 -0.094,-0.186 -0.094,-0.326 v -9.465 c 0,-0.14 0.031,-0.252 0.094,-0.336 0.063,-0.084 0.178,-0.127 0.345,-0.127 h 2.299 c 0.194,0 0.32,0.05 0.376,0.147 0.056,0.099 0.084,0.204 0.084,0.315 v 0.484 l 0.042,0.021 c 0.448,-0.364 0.938,-0.648 1.472,-0.853 0.533,-0.202 1.073,-0.305 1.62,-0.305 0.631,0 1.185,0.116 1.661,0.348 0.477,0.23 0.827,0.592 1.052,1.083 0.491,-0.407 1.048,-0.747 1.672,-1.021 0.624,-0.274 1.252,-0.41 1.883,-0.41 0.743,0 1.321,0.123 1.735,0.369 0.413,0.244 0.722,0.564 0.926,0.957 0.203,0.393 0.325,0.834 0.368,1.324 0.042,0.491 0.063,0.982 0.063,1.473 v 5.994 c -0.002,0.111 -0.026,0.213 -0.075,0.303 z"
   id="path2533" />

		<path
   fill="#113b6a"
   d="m 303.718,237.264 c 0.407,-0.126 0.791,-0.218 1.149,-0.273 0.359,-0.056 0.686,-0.084 0.981,-0.084 0.928,0 1.681,0.13 2.258,0.39 0.576,0.259 1.023,0.623 1.34,1.094 0.316,0.469 0.531,1.027 0.644,1.672 0.113,0.645 0.169,1.354 0.169,2.124 0,0.827 -0.063,1.581 -0.189,2.261 -0.126,0.681 -0.368,1.259 -0.726,1.735 -0.357,0.478 -0.849,0.845 -1.473,1.104 -0.624,0.259 -1.434,0.389 -2.429,0.389 -0.351,0 -0.723,-0.014 -1.115,-0.041 -0.393,-0.029 -0.778,-0.067 -1.156,-0.116 -0.379,-0.05 -0.744,-0.112 -1.094,-0.189 -0.352,-0.077 -0.66,-0.171 -0.926,-0.284 -0.267,-0.111 -0.438,-0.252 -0.516,-0.42 -0.077,-0.169 -0.115,-0.372 -0.115,-0.61 v -12.915 c 0,-0.14 0.031,-0.252 0.094,-0.336 0.063,-0.084 0.185,-0.127 0.366,-0.127 h 2.298 c 0.195,0 0.317,0.053 0.365,0.158 0.049,0.105 0.074,0.207 0.074,0.305 v 4.163 z m 3.238,5.09 c 0,-0.519 -0.031,-0.95 -0.095,-1.294 -0.064,-0.343 -0.159,-0.616 -0.286,-0.82 -0.127,-0.203 -0.289,-0.35 -0.486,-0.441 -0.198,-0.091 -0.431,-0.137 -0.699,-0.137 -0.282,0 -0.529,0.015 -0.741,0.043 -0.211,0.027 -0.522,0.091 -0.931,0.189 v 4.879 c 0.239,0.042 0.482,0.07 0.729,0.084 0.247,0.014 0.47,0.021 0.667,0.021 0.254,0 0.494,-0.028 0.72,-0.084 0.227,-0.057 0.424,-0.172 0.594,-0.348 0.169,-0.175 0.299,-0.428 0.391,-0.757 0.092,-0.329 0.137,-0.774 0.137,-1.335 z"
   id="path2535" />

		<path
   fill="#113b6a"
   d="m 315.601,244.268 c 0,0.294 0.07,0.478 0.21,0.547 0.141,0.07 0.372,0.112 0.694,0.126 0.211,0.015 0.337,0.035 0.379,0.063 0.042,0.028 0.077,0.119 0.105,0.273 l 0.104,1.577 c 0.014,0.197 -0.098,0.352 -0.336,0.463 -0.253,0.113 -0.547,0.186 -0.884,0.221 -0.337,0.035 -0.603,0.053 -0.799,0.053 -0.912,0 -1.585,-0.207 -2.02,-0.62 -0.435,-0.413 -0.652,-1.104 -0.652,-2.071 v -11.801 c 0,-0.14 0.032,-0.252 0.095,-0.336 0.063,-0.084 0.186,-0.127 0.368,-0.127 h 2.293 c 0.196,0 0.318,0.05 0.368,0.148 0.049,0.098 0.073,0.203 0.073,0.314 v 11.17 z"
   id="path2537" />

		<path
   fill="#113b6a"
   d="m 321.616,243.048 c 0.014,0.406 0.076,0.736 0.188,0.988 0.112,0.252 0.264,0.453 0.452,0.6 0.189,0.147 0.421,0.246 0.694,0.295 0.273,0.049 0.586,0.073 0.937,0.073 0.322,0 0.708,-0.021 1.156,-0.063 0.449,-0.041 0.891,-0.091 1.325,-0.146 0.28,-0.028 0.456,-0.025 0.526,0.01 0.069,0.035 0.133,0.187 0.188,0.453 l 0.169,0.988 c 0.042,0.238 0.042,0.424 0,0.557 -0.042,0.134 -0.225,0.264 -0.547,0.39 -0.211,0.07 -0.46,0.137 -0.747,0.2 -0.287,0.063 -0.582,0.115 -0.883,0.157 -0.302,0.042 -0.607,0.073 -0.915,0.095 -0.309,0.021 -0.589,0.031 -0.842,0.031 -1.052,0 -1.903,-0.146 -2.556,-0.441 -0.651,-0.295 -1.156,-0.684 -1.515,-1.168 -0.357,-0.482 -0.599,-1.044 -0.726,-1.682 -0.126,-0.639 -0.188,-1.308 -0.188,-2.009 0,-0.505 0.042,-1.073 0.126,-1.704 0.084,-0.631 0.287,-1.227 0.609,-1.787 0.323,-0.561 0.803,-1.031 1.441,-1.41 0.638,-0.379 1.511,-0.567 2.618,-0.567 1.01,0 1.823,0.144 2.44,0.431 0.616,0.288 1.097,0.663 1.44,1.125 0.344,0.463 0.578,0.979 0.705,1.547 0.126,0.568 0.188,1.133 0.188,1.693 0,0.435 -0.08,0.768 -0.241,0.998 -0.162,0.232 -0.467,0.348 -0.915,0.348 h -5.127 z m 1.514,-3.681 c -0.491,0 -0.852,0.151 -1.083,0.452 -0.231,0.302 -0.361,0.746 -0.389,1.336 h 2.923 c 0,-0.506 -0.104,-0.93 -0.315,-1.273 -0.21,-0.343 -0.589,-0.515 -1.136,-0.515 z"
   id="path2539" />

		<path
   fill="#113b6a"
   d="m 333.184,238.567 0.042,0.043 c 0.182,-0.197 0.402,-0.383 0.662,-0.559 0.26,-0.174 0.529,-0.336 0.81,-0.482 0.28,-0.148 0.558,-0.271 0.831,-0.369 0.273,-0.098 0.522,-0.168 0.747,-0.21 0.224,-0.028 0.389,-0.021 0.494,0.021 0.105,0.043 0.172,0.197 0.199,0.463 l 0.253,2.062 c 0.014,0.099 0.021,0.179 0.021,0.242 0,0.063 -0.021,0.119 -0.063,0.168 -0.042,0.05 -0.105,0.091 -0.189,0.126 -0.084,0.035 -0.203,0.066 -0.357,0.096 -1.262,0.238 -2.412,0.539 -3.449,0.904 v 5.951 c 0,0.113 -0.025,0.219 -0.073,0.316 -0.049,0.098 -0.171,0.146 -0.366,0.146 h -2.298 c -0.182,0 -0.304,-0.041 -0.366,-0.125 -0.063,-0.085 -0.094,-0.197 -0.094,-0.338 v -9.465 c 0,-0.14 0.031,-0.252 0.094,-0.336 0.063,-0.084 0.185,-0.127 0.366,-0.127 h 2.277 c 0.194,0 0.32,0.053 0.376,0.158 0.056,0.105 0.084,0.207 0.084,0.305 v 1.01 z"
   id="path2541" />

	</g>

	<g
   id="g2553">
		<path
   fill="#ffffff"
   d="m 122.023,231.043 c -0.102,0.19 -0.357,0.284 -0.766,0.284 h -4.815 c -0.643,0 -0.963,-0.307 -0.963,-0.919 0,-1.927 0.006,-3.838 0.021,-5.735 0.015,-1.896 0.021,-3.809 0.021,-5.735 0,-1.226 -0.212,-2.094 -0.635,-2.604 -0.423,-0.51 -1.103,-0.766 -2.035,-0.766 -0.7,0 -1.46,0.168 -2.276,0.503 -0.817,0.336 -1.488,0.592 -2.014,0.767 v 13.571 c 0,0.233 -0.052,0.444 -0.154,0.635 -0.102,0.19 -0.357,0.284 -0.766,0.284 h -4.771 c -0.379,0 -0.635,-0.08 -0.766,-0.241 -0.132,-0.159 -0.197,-0.387 -0.197,-0.678 v -19.701 c 0,-0.291 0.065,-0.525 0.197,-0.7 0.131,-0.175 0.387,-0.263 0.766,-0.263 h 4.771 c 0.408,0 0.664,0.104 0.766,0.307 0.103,0.204 0.154,0.423 0.154,0.656 v 1.051 c 0.028,0 0.051,0.008 0.064,0.022 0.016,0.015 0.037,0.021 0.066,0.021 0.964,-0.729 2.087,-1.32 3.371,-1.772 1.283,-0.452 2.451,-0.679 3.502,-0.679 1.547,0 2.766,0.256 3.655,0.766 0.891,0.512 1.554,1.182 1.993,2.014 0.438,0.832 0.707,1.759 0.809,2.781 0.103,1.021 0.154,2.042 0.154,3.063 v 12.434 c 0.003,0.233 -0.049,0.444 -0.152,0.634 z"
   id="path2545" />

		<path
   fill="#ffffff"
   d="m 138.903,228.7 c -0.584,0.525 -1.212,0.978 -1.882,1.357 -0.672,0.379 -1.357,0.693 -2.058,0.941 -0.701,0.248 -1.387,0.422 -2.058,0.525 -0.672,0.101 -1.284,0.153 -1.838,0.153 -1.285,0 -2.328,-0.183 -3.131,-0.548 -0.803,-0.364 -1.423,-0.839 -1.86,-1.423 -0.438,-0.583 -0.738,-1.262 -0.897,-2.036 -0.162,-0.772 -0.241,-1.582 -0.241,-2.43 -0.03,-1.342 0.153,-2.479 0.548,-3.414 0.394,-0.934 0.955,-1.686 1.685,-2.255 0.729,-0.568 1.62,-0.978 2.671,-1.226 1.05,-0.248 2.218,-0.372 3.502,-0.372 h 5.035 v -0.7 c 0,-0.467 -0.053,-0.861 -0.153,-1.182 -0.104,-0.321 -0.292,-0.584 -0.569,-0.788 -0.278,-0.204 -0.664,-0.357 -1.16,-0.46 -0.497,-0.102 -1.153,-0.154 -1.97,-0.154 -0.322,0 -0.724,0.016 -1.204,0.045 -0.482,0.029 -0.984,0.059 -1.51,0.088 -0.526,0.029 -1.052,0.072 -1.577,0.131 -0.525,0.059 -1.007,0.103 -1.444,0.132 -0.613,0.058 -1.015,0.058 -1.204,0 -0.19,-0.059 -0.343,-0.308 -0.46,-0.745 l -0.481,-2.276 c -0.059,-0.379 -0.007,-0.692 0.153,-0.941 0.16,-0.247 0.576,-0.503 1.248,-0.766 0.496,-0.176 1.072,-0.328 1.729,-0.46 0.657,-0.131 1.328,-0.241 2.014,-0.328 0.687,-0.088 1.365,-0.153 2.037,-0.197 0.67,-0.044 1.254,-0.065 1.751,-0.065 2.042,0 3.684,0.19 4.925,0.569 1.24,0.379 2.188,0.919 2.845,1.619 0.657,0.7 1.087,1.563 1.292,2.584 0.204,1.021 0.307,2.188 0.307,3.502 v 6.916 c 0,0.468 0.021,0.832 0.066,1.095 0.043,0.263 0.123,0.46 0.24,0.591 0.116,0.132 0.276,0.228 0.48,0.284 0.205,0.06 0.482,0.104 0.832,0.132 0.38,0.03 0.627,0.096 0.744,0.197 0.117,0.103 0.176,0.285 0.176,0.547 v 2.803 c 0,0.583 -0.424,0.963 -1.27,1.138 -0.817,0.204 -1.723,0.307 -2.715,0.307 -1.079,0 -2.029,-0.184 -2.846,-0.547 -0.816,-0.365 -1.372,-1.131 -1.663,-2.299 z m -0.656,-6.479 h -3.939 c -0.818,0 -1.46,0.19 -1.927,0.569 -0.468,0.379 -0.701,1.081 -0.701,2.102 0,0.672 0.139,1.138 0.416,1.4 0.277,0.262 0.796,0.395 1.555,0.395 0.671,0 1.451,-0.16 2.343,-0.482 0.89,-0.319 1.642,-0.67 2.254,-1.05 v -2.934 z"
   id="path2547" />

		<path
   fill="#ffffff"
   d="m 167.013,224.516 c 0,1.369 -0.27,2.512 -0.81,3.428 -0.541,0.918 -1.262,1.653 -2.167,2.206 -0.905,0.553 -1.935,0.953 -3.086,1.201 -1.153,0.246 -2.357,0.37 -3.612,0.37 -0.525,0 -1.094,-0.021 -1.707,-0.064 -0.613,-0.044 -1.233,-0.109 -1.86,-0.195 -0.628,-0.087 -1.227,-0.188 -1.795,-0.305 -0.569,-0.115 -1.073,-0.245 -1.511,-0.391 -0.73,-0.261 -1.197,-0.528 -1.4,-0.804 -0.205,-0.274 -0.234,-0.701 -0.088,-1.28 l 0.481,-2.084 c 0.088,-0.407 0.219,-0.656 0.395,-0.743 0.175,-0.088 0.51,-0.088 1.007,0 1.021,0.175 2.129,0.314 3.326,0.416 1.197,0.103 2.175,0.153 2.934,0.153 1.108,0 1.896,-0.124 2.364,-0.373 0.467,-0.249 0.7,-0.665 0.7,-1.251 0,-0.644 -0.175,-1.075 -0.524,-1.295 -0.351,-0.219 -0.993,-0.387 -1.927,-0.504 -1.197,-0.176 -2.313,-0.382 -3.35,-0.614 -1.036,-0.234 -1.948,-0.586 -2.735,-1.055 -0.788,-0.468 -1.408,-1.097 -1.861,-1.887 -0.453,-0.79 -0.678,-1.829 -0.678,-3.116 0,-1.17 0.224,-2.194 0.674,-3.072 0.448,-0.877 1.065,-1.609 1.848,-2.193 0.782,-0.586 1.719,-1.024 2.807,-1.318 1.087,-0.292 2.274,-0.438 3.558,-0.438 0.496,0 1.044,0.022 1.643,0.066 0.598,0.044 1.204,0.104 1.816,0.176 0.613,0.075 1.204,0.17 1.773,0.287 0.569,0.119 1.087,0.265 1.554,0.442 0.584,0.205 1.015,0.419 1.291,0.64 0.277,0.221 0.344,0.61 0.197,1.17 l -0.481,2.251 c -0.116,0.41 -0.24,0.658 -0.372,0.747 -0.131,0.087 -0.445,0.102 -0.941,0.044 -0.496,-0.059 -1.035,-0.124 -1.619,-0.197 -0.585,-0.073 -1.16,-0.133 -1.729,-0.176 -0.569,-0.043 -1.103,-0.08 -1.598,-0.109 -0.497,-0.029 -0.919,-0.043 -1.27,-0.043 -1.109,-0.029 -1.803,0.095 -2.08,0.371 -0.277,0.275 -0.416,0.647 -0.416,1.113 0,0.553 0.256,0.909 0.77,1.069 0.513,0.161 1.165,0.313 1.956,0.458 1.142,0.146 2.226,0.328 3.252,0.546 1.025,0.219 1.926,0.575 2.702,1.07 0.776,0.495 1.398,1.157 1.868,1.987 0.467,0.829 0.701,1.927 0.701,3.296 z"
   id="path2549" />

		<path
   fill="#ffffff"
   d="m 202.192,231.043 c -0.103,0.19 -0.344,0.284 -0.722,0.284 h -4.815 c -0.38,0 -0.636,-0.08 -0.767,-0.241 -0.131,-0.159 -0.197,-0.387 -0.197,-0.678 v -11.514 c 0,-1.343 -0.204,-2.232 -0.613,-2.671 -0.408,-0.438 -1.021,-0.656 -1.838,-0.656 -0.525,0 -1.168,0.139 -1.927,0.416 -0.759,0.276 -1.415,0.562 -1.97,0.854 v 13.571 c 0,0.233 -0.051,0.444 -0.153,0.635 -0.102,0.191 -0.357,0.284 -0.766,0.284 h -4.815 c -0.352,0 -0.591,-0.08 -0.723,-0.241 -0.131,-0.159 -0.197,-0.387 -0.197,-0.678 v -11.646 c 0,-1.226 -0.197,-2.064 -0.594,-2.517 -0.398,-0.453 -0.993,-0.679 -1.786,-0.679 -0.53,0 -1.169,0.131 -1.918,0.394 -0.751,0.263 -1.433,0.555 -2.05,0.876 v 13.571 c 0,0.233 -0.059,0.444 -0.175,0.635 -0.115,0.19 -0.376,0.284 -0.782,0.284 h -4.783 c -0.35,0 -0.588,-0.08 -0.719,-0.241 -0.131,-0.159 -0.194,-0.387 -0.194,-0.678 v -19.701 c 0,-0.291 0.063,-0.525 0.194,-0.7 0.131,-0.175 0.369,-0.263 0.719,-0.263 h 4.783 c 0.406,0 0.667,0.104 0.782,0.307 0.116,0.204 0.175,0.423 0.175,0.656 v 1.007 l 0.088,0.044 c 0.934,-0.758 1.955,-1.349 3.063,-1.772 1.109,-0.423 2.233,-0.635 3.372,-0.635 1.313,0 2.465,0.24 3.458,0.722 0.991,0.481 1.722,1.234 2.188,2.255 1.022,-0.846 2.182,-1.554 3.48,-2.123 1.298,-0.569 2.605,-0.854 3.918,-0.854 1.547,0 2.752,0.256 3.612,0.766 0.86,0.512 1.503,1.176 1.926,1.992 0.423,0.817 0.679,1.737 0.767,2.758 0.087,1.021 0.131,2.043 0.131,3.064 v 12.478 c 0.002,0.234 -0.049,0.445 -0.152,0.635 z"
   id="path2551" />

	</g>

</g>
      </g>
    </g>
  </g>
</svg>
