<?xml version="1.0" standalone="no"?>
<!DOCTYPE svg PUBLIC "-//W3C//DTD SVG 1.1//EN" "http://www.w3.org/Graphics/SVG/1.1/DTD/svg11.dtd">
<svg xmlns="http://www.w3.org/2000/svg">
  <defs>
    <font id="Exo2" horiz-adv-x="504">
      <font-face font-family="Exo 2 Light" units-per-em="1000" panose-1="0 0 0 0 0 0 0 0 0 0" ascent="999" descent="-201" alphabetic="0"/>
      <glyph unicode=" " glyph-name="gid185" horiz-adv-x="225"/>
      <glyph unicode="!" glyph-name="gid195" horiz-adv-x="266" d="M165,695V377l-6-169H108l-7,169V695h64ZM142,107q13,0 19-6t6-19V25q0-14-6-19.5T142,0H125q-14,0-19.5,5.5T100,25V82q0,13 5.5,19t19.5,6h17Z"/>
      <glyph unicode="&quot;" glyph-name="gid227" horiz-adv-x="344" d="M267,690l-4-213H219l-5,213h53Zm-137,0l-5-213H80L76,690h54Z"/>
      <glyph unicode="#" glyph-name="gid202" horiz-adv-x="679" d="M300,690L180,0H128L248,690h52Zm251,0L431,0H379L499,690h52Zm77-191l-8-43H92l8,43H628ZM586,262l-8-44H50l8,44H586Z"/>
      <glyph unicode="$" glyph-name="gid243" horiz-adv-x="562" d="M280,702q48-1 98.5-5T478,684l-5-48q-43,3-93,5t-98,2q-41,0-70-3t-48-14t-27.5-36T128,520q0-64 22-90.5T223,393l144-30q79-16 109.5-61T507,174q0-61-14-97.5T451.5,21T382-5T282-12q-36,0-89,3T72,5l5,49q51-1 85.5-2.5t62.5-2T285,49q58,1 91.5,10T425,94.5T440,175q0,45-10,70.5t-31,39T343,304L197,335q-74,15-105,60.5T61,521q0,61 13.5,97.5t40,54.5t68,23.5T280,702ZM265,352l37-3L269-130H232l33,482Zm70,449L306,349l-38,3l31,449h36Z"/>
      <glyph unicode="%" glyph-name="gid264" horiz-adv-x="890" d="M208,703q59,0 93.5-21T351,616t15-118q0-72-15-117t-49.5-66.5T208,293q-58,0-92.5,21.5T66.5,381T52,498q0,73 14.5,118t49,66T208,703Zm0-42q-40,0-63-16t-33-52t-10-95t10-95t33-52t63-16q41,0 64.5,16t33,52t9.5,95t-9.5,95t-33,52T208,661Zm489,29L238,0H191L649,690h48ZM681,400q59,0 93-21t48.5-66T837,196T822.5,79T774,13T681-8q-58,0-92.5,21t-49,66T525,196t14.5,117t49,66T681,400Zm-1-41q-40,0-63-16t-32.5-52T575,196q0-58 9.5-94.5T617,49t63-16q41,0 64.5,16t33,52.5T787,196q0,59-9.5,95t-33,52T680,359Z"/>
      <glyph unicode="&amp;" glyph-name="gid230" horiz-adv-x="776" d="M351,699q32,0 73-1.5t86-7.5l-8-48q-9,1-27.5,1.5t-41,1t-45,0.5T349,645q-71,0-113-9.5t-60-37T158,513q0-52 14-80t47-39t88-11H701l-2-51H305q-60,0-96.5-13T156,274t-16-90q0-52 13.5-82T199,60t86-12q82,1 136.5,25.5T518,151l14-41q-33-44-70.5-70.5T378.5,2T273-9Q201-9 156.5,8T92,65T72,175q0,79 29.5,126.5T207,356v4q-63,6-89,46.5T92,521q0,60 15,96t47,53.5t80.5,23T351,699ZM569,521V119q0-37 17-54t53-17h79l7-45q-14-4-33-6.5T655.5-7T627-8q-58,0-88,28.5T509,101V362l8,159h52Z"/>
      <glyph unicode="&apos;" glyph-name="gid228" horiz-adv-x="206" d="M130,690l-5-213H80L76,690h54Z"/>
      <glyph unicode="(" glyph-name="gid211" horiz-adv-x="358" d="M313,790l9-33Q218,705 170,595.5T122,313q0-113 21-200T208-34.5T322-132l-9-33Q182-110 120.5,5.5T59,312q0,192 61.5,308T313,790Z"/>
      <glyph unicode=")" glyph-name="gid212" horiz-adv-x="358" d="M44,790q132-54 193.5-170T299,312q0-191-61.5-306.5T44-165l-7,33q69,37 112.5,97.5T214,113t21,200q0,173-47.5,282.5T37,757l7,33Z"/>
      <glyph unicode="*" glyph-name="gid201" horiz-adv-x="451" d="M247,691l-7-159l98-129l-33-23L225,503L146,381l-34,23l98,128l-5,159h42ZM74,598l120-45l-1-18l-8-12L60,558l14,40Zm304-1l14-40L266,523l-9,12v18l121,44Z"/>
      <glyph unicode="+" glyph-name="gid252" horiz-adv-x="552" d="M491,323V274H60v49H491ZM301,503L300,93H251l-1,410h51Z"/>
      <glyph unicode="," glyph-name="gid191" horiz-adv-x="221" d="M121,107q13,0 18.5-6T145,82V18q0-25-4-50T131-81t-15-46L86-117q4,30 6,55T94,0Q75,0 76,22V82q0,13 6.5,19t18.5,6h20Z"/>
      <glyph unicode="-" glyph-name="gid207" horiz-adv-x="461" d="M384,277V227H77v50H384Z"/>
      <glyph unicode="." glyph-name="gid190" horiz-adv-x="221" d="M121,107q14,0 19.5-6T146,82V25q0-14-5.5-19.5T121,0H99Q86,0 80,5.5T74,25V82q0,13 6,19t19,6h22Z"/>
      <glyph unicode="/" glyph-name="gid203" horiz-adv-x="509" d="M478,690L85-64H31L424,690h54Z"/>
      <glyph unicode="0" glyph-name="gid131" horiz-adv-x="596" d="M298,703q86,0 136-37.5T506,549t22-204q0-124-22-203.5t-72-117T298-13q-85,0-135.5,37.5t-72,117T69,345q0,125 21.5,204t72,116.5T298,703Zm0-58q-47,0-78.5-17T169,575t-27.5-93T133,345q0-79 8.5-136.5T169,115t50.5-53T298,45q46,0 78,17t51.5,53T455,208.5T463,345q0,80-8,137t-27.5,93T376,628t-78,17Z"/>
      <glyph unicode="1" glyph-name="gid132" horiz-adv-x="391" d="M274,690V0H208V572q0,14 1,28t3,27L37,571L27,618l181,72h66Z"/>
      <glyph unicode="2" glyph-name="gid133" horiz-adv-x="560" d="M269,702q65,0 111.5-10.5t71.5-42T477,557q0-45-13-84t-41.5-81T348,298L138,60q27,1 57,2t58,1H504V0H57V40q0,9 2.5,16.5T68,70L282,314q67,75 98.5,132.5T410,557q-2,39-19.5,57t-49,24T266,644q-31,0-60-1.5T144.5,637T69,625l-6,51q48,11 82.5,16.5t64,7.5t59.5,2Z"/>
      <glyph unicode="3" glyph-name="gid134" horiz-adv-x="555" d="M254,703q76,0 122-14.5T443.5,639T465,543q0-43-9.5-79.5t-32-61.5T361,369v-4q69-11 95.5-57.5T484,192T464.5,77.5T397,9.5T269-13q-54,0-108,5.5T55,5l6,52q32-3 64-5.5t64-4T254,46q60,0 95.5,14.5t52.5,48T419,198q0,39-11.5,70.5T364,319t-94,19H141v51l129,1q44,0 71,13t40,33t17,44.5t4,49.5q-1,47-15.5,71.5t-48,33.5T247,644q-49,0-94-3t-80-6l-7,50q50,9 95.5,13.5T254,703Z"/>
      <glyph unicode="4" glyph-name="gid135" horiz-adv-x="608" d="M322,690L117,277q-9-20 0-32t27-12H560V186l-94-7H110q-25,0-42,14.5t-22,37T51,275L257,690h65ZM473,559V0H411V444l12,115h50Z"/>
      <glyph unicode="5" glyph-name="gid136" horiz-adv-x="532" d="M452,690l-3-56H152L141,418l67-3q71-4 121-15t82-34.5t46.5-62T472,206q0-42-7.5-80.5T434,56T367.5,6.5T253-12q-39,0-90.5,6.5T57,14l8,52q47-9 94-14.5T240,46q71,0 106.5,19.5t48.5,55T408,206q1,53-13.5,83.5t-45.5,45t-81.5,20T143,362l-34,2q-12,2-19.5,10T83,394L98,690H452Z"/>
      <glyph unicode="6" glyph-name="gid137" horiz-adv-x="569" d="M334,702q20,0 56-2t76-12l-8-48q-21,3-38.5,4T382,645t-48,0q-56,0-94-12t-61-45.5t-32.5-99T137,316q0-76 4.5-128.5T162,104t48.5-45.5T298,44q66,0 97.5,20.5T437,124t10,94q0,64-11.5,102T393,375.5T306,393q-35,0-65-8.5t-60-30T113,294l-4,34q33,46 63,72t66,36.5T322,447q72,0 113-22t58-72.5T510,217q0-52-7.5-94.5T472.5,50T408,4T297-12Q226-12 181,4.5t-68.5,55T80,161.5T71,319q0,125 16,201t47.5,115.5t81.5,53T334,702Z"/>
      <glyph unicode="7" glyph-name="gid138" horiz-adv-x="510" d="M428,690q19,0 29.5-6.5t13.5-18T468,636L249,0H183L386,587q5,13 9,24.5t9,22.5H45l-3,56H428Z"/>
      <glyph unicode="8" glyph-name="gid139" horiz-adv-x="608" d="M305,699q64,0 106-10.5T476.5,656t33-56.5T519,518q0-46-10-80t-31.5-54T421,360v-4q43-4 67.5-27t35-62T534,172q0-64-19-104T447,9.5T305-9Q214-9 164,9.5T94.5,68T75,172q0,56 10.5,95T121,329t67,27v4q-35,4-57,24T99,438T89,518q0,47 10,81t34,56.5t65.5,33T305,699Zm1-367q-51,0-84-6.5t-51.5-22t-26-44.5T137,184q0-50 14-80t50.5-43T305,48q68,0 103.5,13t49,43T471,184q0,47-7.5,76T438,304.5T388,326t-82,6Zm-1,313q-62,0-95.5-12.5T163,591t-13-78q0-53 13-81t47-38t96-10q65,0 97.5,10.5t44,38.5T459,513q0,49-12,78t-45,41.5T305,645Z"/>
      <glyph unicode="9" glyph-name="gid140" horiz-adv-x="570" d="M274,702q74,0 118.5-17.5T459,627t29-107t7-167q0-117-15-189T434,53.5t-81-52T233-12q-22,0-59.5,2T92,2l8,48q23-2 40.5-3t39-1.5T233,45q55,0 93,12t61,44.5T420.5,195T431,354q0,83-4,139.5t-18,90t-46,48T273,646q-62,0-94.5-21T134,564t-12-97q0-54 12-92.5T176.5,316T261,296q35,0 64.5,9t60,30.5T454,396l4-34q-33-46-63.5-72T329,253.5T246,243q-71,0-111.5,28t-58,78.5T59,468q0,76 19.5,128T145,675t129,27Z"/>
      <glyph unicode=":" glyph-name="gid192" horiz-adv-x="225" d="M122,437q14,0 19.5-6t5.5-19V355q0-14-5.5-19.5T122,330H100q-13,0-19,5.5T75,355v57q0,13 6,19t19,6h22Zm0-330q14,0 19.5-6T147,82V25q0-14-5.5-19.5T122,0H100Q87,0 81,5.5T75,25V82q0,13 6,19t19,6h22Z"/>
      <glyph unicode=";" glyph-name="gid193" horiz-adv-x="227" d="M124,437q14,0 19.5-6t5.5-19V355q0-14-5.5-19.5T124,330H102q-13,0-19,5.5T77,355v57q0,13 6,19t19,6h22Zm0-330q13,0 18.5-6T148,82V18q0-25-4-50T134-81t-15-46L89-117q4,30 6,55T97,0Q78,0 79,22V82q0,13 6.5,19t18.5,6h20Z"/>
      <glyph unicode="&lt;" glyph-name="gid258" horiz-adv-x="534" d="M459,500V448L114,297L459,150V98L57,271v52L459,500Z"/>
      <glyph unicode="=" glyph-name="gid256" horiz-adv-x="586" d="M509,422V373H78v49H509Zm0-212V161H78v49H509Z"/>
      <glyph unicode="&gt;" glyph-name="gid257" horiz-adv-x="534" d="M75,500L477,323V271L75,98v52L420,297L75,448v52Z"/>
      <glyph unicode="?" glyph-name="gid197" horiz-adv-x="506" d="M258,712q99,0 149-37.5T457,557q0-45-18-78t-45.5-60T339,363t-46-65.5T273,208H217q-1,56 16,96t43,70t52,56t44,53.5T390,547q2,57-33,84T246,658q-49,0-80.5-1.5t-57-4T49,646l-5,46q25,5 45.5,8t42.5,6t52,4.5t74,1.5Zm-4-605q13,0 18.5-6T278,82V25q0-14-5.5-19.5T254,0H235q-13,0-18.5,5.5T211,25V82q0,13 5.5,19t18.5,6h19Z"/>
      <glyph unicode="@" glyph-name="gid229" horiz-adv-x="709" d="M489,579q68,0 106-30.5T633,445V131H585l-7,77q-18-18-51.5-37.5t-74.5-33T368,124q-39,0-68,13t-45,38.5T239,238v52q0,48 29.5,74.5T354,391H573v53q0,40-19.5,60.5T479,525H347q-68,0-108.5-6.5t-61.5-31t-27.5-77T143,266q0-77 4.5-126.5t17.5-78T203.5,20t68-16.5T377,0H629V-48q-63-3-125.5-4.5T378-54q-80-1-133.5,5t-86,24t-49,53.5T87.5,122T82,265q0,83 4.5,139T106,494.5T150,547t77,24.5T347,579H489Zm84-227l-200-4q-38-1-55.5-17T300,284V248q0-37 19.5-54.5T377,176q32,0 68,9t69.5,25.5T573,248V352Z"/>
      <glyph unicode="A" glyph-name="gid1" horiz-adv-x="615" d="M345,690q9,0 16.5-5t9.5-14L602,0H534L340,582q-4,14-9,28.5T322,638H293q-4-13-8.5-27.5T275,582L81,0H13L244,671q3,9 10,14t16,5h75ZM482,286V229H132v57H482Z"/>
      <glyph unicode="B" glyph-name="gid10" horiz-adv-x="617" d="M306,698q84,0 133.5-15.5T511,628t22-110q0-74-27.5-113T416,360v-4q77-7 107.5-54T554,172q0-71-21.5-110T463,7.5T337-8q-57,0-97.5,0.5T165-5T93,0l14,52q21-1 81-2t140-1q60,0 94.5,10.5t49.5,39T487,182q0,59-15.5,91t-52,45T320,332H106v51H320q55,1 87.5,11.5t47,38.5T469,512q0,53-15.5,81t-52,38T303,641q-47,0-85,0t-66-0.5T107,638L93,690q33,4 63,5.5t65.5,2T306,698Zm-149-8V0H93V690h64Z"/>
      <glyph unicode="C" glyph-name="gid11" horiz-adv-x="567" d="M332,702q42,0 72.5-2t56.5-6t54-11l-8-50q-30,4-54.5,6t-53,3.5T332,644q-74,0-117-28.5T154,522T136,345t18-177t61-93.5T332,46q62,0 105,3t84,9l8-49Q487-2 442.5-7T332-12q-97,0-155.5,34.5T92,135T66,345T92,555t84.5,112.5T332,702Z"/>
      <glyph unicode="D" glyph-name="gid13" horiz-adv-x="662" d="M333,699q72,0 122-18.5T536,621t45-109t14-167T581,178T536,69T455,9.5T333-9Q263-9 204-6.5T93,0l29,52q44-1 95.5-2T333,49q72,0 114.5,27.5t61,92.5T527,345T508.5,521t-61,93T333,642q-63,0-114-1t-98-3L93,690q52,4 111.5,6.5T333,699Zm-175-9V0H93V690h65Z"/>
      <glyph unicode="E" glyph-name="gid15" horiz-adv-x="557" d="M209,691q49,0 99,0t99.5-1.5T504,685l-3-51H220q-33,0-50.5-18T152,563V127q0-35 17.5-53.5T220,55H501l3-50q-47-3-96.5-4T308-0.5T209-1q-55,0-88.5,31.5T87,113V577q0,52 33.5,83T209,691ZM104,393H461V340H104v53Z"/>
      <glyph unicode="F" glyph-name="gid20" horiz-adv-x="536" d="M212,691q48,0 97-0.5t96.5-1.5t93.5-4l-4-51H228q-35,0-53.5-18T156,563V0H90V574q0,54 33.5,85.5T212,691ZM107,385H456V332H107v53Z"/>
      <glyph unicode="G" glyph-name="gid21" horiz-adv-x="626" d="M344,703q39,0 72-2t63-6.5T538,683l-8-49q-31,4-61,6t-60,3t-61,1q-60,0-100.5-13t-65-46.5T147,492T136,342q0-107 16-172t53.5-95T305,45q42,0 75.5,13t62,32.5T497,131l10-41q-21-25-53.5-48.5T380,2.5T289-13q-79,0-128,38T89.5,142.5T67,346q0,136 26.5,213.5T181,670t163,33ZM553,399V0H506L494,101l-5,17V399h64Z"/>
      <glyph unicode="H" glyph-name="gid22" horiz-adv-x="664" d="M158,690V0H93V690h65ZM517,398V341H150v57H517Zm54,292V0H506V690h65Z"/>
      <glyph unicode="I" glyph-name="gid23" horiz-adv-x="251" d="M158,690V0H93V690h65Z"/>
      <glyph unicode="J" glyph-name="gid28" horiz-adv-x="334" d="M245,690V134q0-70-33-106T115-8Q103-8 88-6.5t-30,4T33,3l7,45H93q86,0 86,85V690h66Z"/>
      <glyph unicode="K" glyph-name="gid29" horiz-adv-x="581" d="M542,690L330,397q-8-11-15.5-19.5T298,360v-2q10-9 19-18.5T333,319L557,0H482L229,361L469,690h73Zm-385,0V467q0-29-2-53.5T149,361q3-28 5.5-54t2.5-52V0H93V690h64ZM269,386V333H132v53H269Z"/>
      <glyph unicode="L" glyph-name="gid30" horiz-adv-x="512" d="M155,690V127q0-34 19-52.5T228,56H485l2-51Q421,1 353,0T217-1q-65,0-96,34.5T90,119V690h65Z"/>
      <glyph unicode="M" glyph-name="gid31" horiz-adv-x="869" d="M733,690q28,0 28-29L791,0H725L698,635H676L496,94q-6-22-29-22H401q-23,0-30,22L192,635H170L144,0H78l28,661q2,29 30,29h79q22,0 28-23L394,217q9-23 15.5-46.5T424,123h21q7,24 14,47.5T474,219L625,667q6,23 29,23h79Z"/>
      <glyph unicode="N" glyph-name="gid32" horiz-adv-x="699" d="M606,690V28q0-28-27-28H509q-12,0-19.5,5.5T477,22L213,546q-9,19-20,41.5T175,629H156q1-20 1.5-41t0.5-42V0H93V662q0,28 28,28h67q12,0 19.5-5.5T220,668L476,156q11-21 23-45t23-48h21q0,25-1,50t-1,49V690h65Z"/>
      <glyph unicode="O" glyph-name="gid34" horiz-adv-x="666" d="M333,703q74,0 125-18.5t82-60T585,514t14-169T585,176T540,65.5t-82-60T333-13T208,5.5t-82,60T80.5,176T66,345T80.5,514T126,624.5t82,60T333,703Zm0-59q-74,0-117.5-28.5T154,522T136,345t18-177t61.5-93.5T333,46T450,74.5T511.5,168T530,345T511.5,522T450,615.5T333,644Z"/>
      <glyph unicode="P" glyph-name="gid42" horiz-adv-x="587" d="M324,699q79,0 126-19t67.5-64.5T538,487T518,358t-65.5-64T330,276q-41,0-78,1.5t-67.5,4t-52,5.5T103,292l3,41q51,0 107,0t110,0q55,1 87.5,14T457,393.5T471,487q0,62-14,95t-46.5,46T323,641q-80,0-138-0.5T107,638L93,690q37,4 69,6t70,2.5t92,0.5Zm-166-9V0H93V690h65Z"/>
      <glyph unicode="Q" glyph-name="gid44" horiz-adv-x="667" d="M334,703q73,0 124.5-18.5t82-60t45-110.5T600,345T585.5,176t-45-110.5t-82-60T334-13Q259-13 208,5.5t-82,60T81,176T67,345T81,514t45,110.5t82,60T334,703ZM295-46q55-28 116.5-46T546-121l-21-66q-73,14-136.5,41T275-85l20,39Zm39,690q-74,0-117.5-28.5t-62-93.5T136,345t18.5-177t62-93.5T334,46T450.5,74.5T512,168t19,177T512,522t-61.5,93.5T334,644Z"/>
      <glyph unicode="R" glyph-name="gid45" horiz-adv-x="614" d="M325,699q77,0 124-17.5t68.5-60T539,501q0-58-13-95.5T485,348t-73-27v-4q17-5 33-18t29-33t20-47L564,0H494L428,217q-14,43-38.5,61T328,296q-59,0-104.5,0.5T148,298t-45,2l3,53H323q56,1 88.5,13.5t46.5,44T472,498q0,57-14,88t-46.5,43T323,641q-80,0-138-0.5T107,639L93,690q37,4 69,6t70.5,2.5T325,699Zm-167-9V0H93V690h65Z"/>
      <glyph unicode="S" glyph-name="gid46" horiz-adv-x="559" d="M277,702q49-1 99-5t100-13l-5-48q-44,3-94,5t-97,2q-41,0-70.5-3T161,626t-27.5-36T125,520q0-64 22-90.5T220,393l145-30q78-16 108.5-61T504,174q0-61-14-97.5T448.5,21T379-5t-99-7q-36,0-89,3T70,5l5,48q51-2 85.5-3.5t62.5-2T282,47q58,1 92,10t48.5,36T437,175q0,45-9.5,70.5t-31,39T341,304L194,335q-74,15-104.5,60.5T59,521q0,61 13.5,97.5t40,54.5T180,696.5t97,5.5Z"/>
      <glyph unicode="T" glyph-name="gid47" horiz-adv-x="575" d="M320,690V0H254V690h66Zm230,0V632H25v58H550Z"/>
      <glyph unicode="U" glyph-name="gid48" horiz-adv-x="666" d="M579,690V261q0-99-24-159T478,14.5T336-13q-91,0-145.5,27.5T112,102T88,261V690h65V261q0-80 17.5-127t57-67.5T333,46T438.5,66.5t57,67.5T513,261V690h66Z"/>
      <glyph unicode="V" glyph-name="gid53" horiz-adv-x="603" d="M583,690L364,19q-3-8-10-13.5T338,0H265q-9,0-16.5,5.5T239,19L20,690H88L266,126q6-19 11.5-37T288,52h27q6,19 11,37.5T338,127L514,690h69Z"/>
      <glyph unicode="W" glyph-name="gid54" horiz-adv-x="942" d="M910,690L755,20q-3-8-10-14T727,0H648q-10,0-17.5,6T621,21L499,562q-4,20-8.5,39.5T482,640H459q-4-19-8-39t-8-39L321,21q-2-9-9.5-15T294,0H214q-10,0-17.5,6T187,20L32,690h69L227,130q5-18 8.5-38T243,51h25q4,21 8,40.5t8,38.5L406,667q2,11 9.5,17t17.5,6h76q10,0 17-6t9-17L658,130q5-20 8.5-39.5T673,51h26q4,20 7.5,39.5T714,129L841,690h69Z"/>
      <glyph unicode="X" glyph-name="gid55" horiz-adv-x="605" d="M562,690L371,358L575,0H502L303,358L490,690h72Zm-447,0L302,358L102,0H30L232,358L43,690h72ZM347,385V333H260v52h87Z"/>
      <glyph unicode="Y" glyph-name="gid56" horiz-adv-x="559" d="M543,690L308,240H251L15,690H85L243,384q9-18 17-37t16-37h7q7,18 16,37t17,36L473,690h70ZM312,291V0H246V291h66Z"/>
      <glyph unicode="Z" glyph-name="gid58" horiz-adv-x="563" d="M437,634l71-1L122,56L49,57L437,634ZM515,57V0H49V57H515Zm-7,633V633H54v57H508Z"/>
      <glyph unicode="[" glyph-name="gid215" horiz-adv-x="323" d="M279,768V724H170q-13,0-13-15V-106q0-15 13-15H279v-44H142q-19,0-32.5,11.5T96-119V722q0,21 13.5,33.5T142,768H279Z"/>
      <glyph unicode="\" glyph-name="gid204" horiz-adv-x="509" d="M86,690L479-64H424L31,690H86Z"/>
      <glyph unicode="]" glyph-name="gid216" horiz-adv-x="323" d="M180,768q21,0 33.5-12.5T226,722V-119q0-20-12.5-33T180-165H44v44H152q14,0 14,15V709q0,15-14,15H44v44H180Z"/>
      <glyph unicode="^" glyph-name="gid262" horiz-adv-x="414" d="M230,591L384,386l-26-19L212,544h-8L57,367L30,386L184,591h46Z"/>
      <glyph unicode="_" glyph-name="gid210" horiz-adv-x="436" d="M436,0V-50H0V0H436Z"/>
      <glyph unicode="`" glyph-name="gid274" horiz-adv-x="302" d="M79,718L243,572l-24-30L41,670l38,48Z"/>
      <glyph unicode="a" glyph-name="gid60" horiz-adv-x="545" d="M310,497q50,0 84.5-14.5t52.5-47T465,348V0H415L405,106l-4,9V348q0,46-21.5,70T298,442q-44,0-102-4T83,428l-6,47q34,6 72,10.5t79,8t82,3.5ZM432,296l-1-48l-237-2q-38-1-55.5-20.5T121,171V129q0-41 21-61t64-20q32-1 70.5,11T353,94t67,54V99q-12-15-34.5-33t-52-35t-65-28T195-8Q153-8 122,7T73.5,51.5T56,123v56q0,56 33.5,86.5T184,296H432Z"/>
      <glyph unicode="b" glyph-name="gid68" horiz-adv-x="566" d="M331,497q92,0 133.5-58.5T506,243q0-65-10.5-113T461,50.5t-64-47T298-12q-25,0-52.5,2T190-3.5T134.5,7T82,22l51,43q30-8 58-13.5t54-7T297,43q52,0 83.5,19T426,125t14,118q0,73-11.5,116.5T389,422t-78,19q-42,0-81.5-23.5T138,353l-4,45q32,32 64,53.5T263.5,485T331,497ZM145,700V506q0-31-1-55t-6-49l6-15l1-368L82,22V700h63Z"/>
      <glyph unicode="c" glyph-name="gid69" horiz-adv-x="485" d="M287,497q20,0 46-2t53-6.5T436,476l-9-42q-31,4-68,6t-62,2q-63,0-100.5-17.5t-54-61T126,243t16.5-121t54-61.5T297,43q15,0 39,1t51,3t51,6l8-43Q410-1 368.5-6.5T286-12q-82,0-132,25T81.5,93.5T59,243q0,93 22.5,149T154,472.5T287,497Z"/>
      <glyph unicode="d" glyph-name="gid71" horiz-adv-x="569" d="M242,497q48,0 96-13t94-38l-3-42q-52,17-91.5,27T255,441q-46,0-74.5-17.5T139,363T126,244t13-119.5t40.5-62T251,44q31,0 56.5,8.5T362,80t67,47l5-48q-45-40-95-65.5T233-12q-92,0-132,62.5T61,243q0,94 19.5,149.5t59,80T242,497ZM484,700V0H435l-8,85l-6,6V426l5,15q-4,28-4.5,52T421,545V700h63Z"/>
      <glyph unicode="e" glyph-name="gid73" horiz-adv-x="533" d="M277,497q104,0 152.5-38T479,346q1-65-25-100t-87-35H86v50H353q37,0 50,24t12,60q-1,52-33,74.5T280,442q-58,0-92-18t-48-60.5T126,248q0-81 17-125.5t54-62T294,43q42,0 87.5,3.5T461,55l7-43Q447,4 414.5-1t-67-8T286-12q-82,0-131.5,25.5T82,95.5T59,244q0,95 22.5,150T152,473t125,24Z"/>
      <glyph unicode="f" glyph-name="gid78" horiz-adv-x="371" d="M254,716q15,0 39-0.5t48.5-1.5t42.5-4l-4-47H276q-52,0-73.5-21T181,571V0H118V576q0,46 13.5,76.5t43,47T254,716Zm91-231V433H30v47l93,5H345Z"/>
      <glyph unicode="g" glyph-name="gid79" horiz-adv-x="553" d="M270,497q75,0 119-16.5t63.5-50T472,344q0-52-19.5-86t-64-50.5T270,191q-75,0-119.5,16.5t-64,50T67,343q0,53 19.5,87t64,50.5T270,497Zm0-50q-80,0-112-24.5T126,344t32-78.5T270,241t111,24.5T412,344t-31,78.5T270,447Zm259,38l-4-37l-122-8l-35,45H529ZM134,224l39-5q-21-19-28-43.5t4.5-44.5T198,105L384,74q66-10 91-42t25-91q0-55-21.5-87t-71-46T275-206q-64,0-107.5,7.5T97-174T58.5-129.5T47-61q0,33 7.5,55.5t26,40T130,68l53,29l34-11L168,51q-22-15-35-30T114.5-12T109-57q0-36 15-57t51.5-29t99.5-8q62,0 97.5,8.5t50.5,29T438-57q0,28-6.5,44t-25,25T353,26L169,54q-31,5-49.5,20t-26,36T89,152.5t14.5,41T134,224Z"/>
      <glyph unicode="h" glyph-name="gid80" horiz-adv-x="577" d="M365,497q131,0 131-133V0H432V347q0,52-19.5,73.5T349,442q-49,0-96.5-22.5T140,354l-2,47q58,44 115,70t112,26ZM147,700l1-201q0-30-2-57t-6-49l7-15V0H84V700h63Z"/>
      <glyph unicode="i" glyph-name="gid81" horiz-adv-x="238" d="M150,485V0H88V485h62ZM134,689q21,0 21-21V609q0-21-21-21H104q-21,0-21,21v59q0,21 21,21h30Z"/>
      <glyph unicode="j" glyph-name="gid88" horiz-adv-x="239" d="M152,485V-24q0-37-10.5-70T112-155T68-205L33-178q28,35 41.5,70.5T88-24V485h64ZM135,689q20,0 20-21V609q0-21-20-21H106q-21,0-21,21v59q0,21 21,21h29Z"/>
      <glyph unicode="k" glyph-name="gid90" horiz-adv-x="496" d="M458,485L295,303q-6-7-15-15.5T265,275v-2q6-5 15-15t15-19L474,0H399L196,278L382,485h76ZM147,700l1-318q0-30-2-54t-6-52q4-28 5.5-54t1.5-52V0H84V700h63Zm89-401V251H122v48H236Z"/>
      <glyph unicode="l" glyph-name="gid91" horiz-adv-x="287" d="M147,700V121q0-35 19-53t53-18h51l7-47q-8-4-22.5-6.5T224-7T197-8q-51,0-81.5,30T85,108V700h62Z"/>
      <glyph unicode="m" glyph-name="gid92" horiz-adv-x="877" d="M669,497q62,0 95-34t33-99V0H734V347q-1,49-21,72t-65,23q-29,0-55.5-9.5t-56.5-29T465,354l-4,46q54,48 105.5,72.5T669,497ZM136,485l5-92l6-15V0H84V485h52Zm208,12q61,0 94-33.5T471,364V0H410V347q0,51-21.5,73T324,442q-28,0-54.5-9t-57-28.5T140,354l-4,46q54,48 105,72.5T344,497Z"/>
      <glyph unicode="n" glyph-name="gid93" horiz-adv-x="577" d="M365,497q131,0 131-133V0H433V347q0,52-20,73.5T349,442q-49,0-96-23T141,354l-3,47q59,46 115.5,71T365,497ZM137,485l5-92l5-15V0H84V485h53Z"/>
      <glyph unicode="o" glyph-name="gid95" horiz-adv-x="565" d="M283,497q81,0 130-25t70.5-81T505,242T483.5,93T413,12T283-13T153,12T82,93T60,242T82,391t71,81t130,25Zm0-55q-59,0-93-18t-48.5-61.5T127,242q0-76 14.5-120T190,60t93-18q58,0 92.5,18t49,62T439,242q0,77-14.5,120.5t-49,61.5T283,442Z"/>
      <glyph unicode="p" glyph-name="gid103" horiz-adv-x="573" d="M342,497q92,0 131-63t39-193q0-93-19-148.5t-59-80T331-12q-48,0-95.5,13.5T141,41l3,40q52-17 91.5-27T318,44q47,0 75,17.5T434,122t13,119q0,74-12.5,117.5t-39,63T324,441q-42,0-83.5-21T143,355l-4,46q30,30 63.5,51.5t69.5,33T342,497ZM136,485l7-97l4-9V59l-3-12q3-28 3-52t0-52V-204H84V485h52Z"/>
      <glyph unicode="q" glyph-name="gid105" horiz-adv-x="566" d="M272,497q23,0 49.5-2t54.5-6.5t55.5-11T484,464l-52-45q-29,9-57.5,14t-54,7.5T273,442q-54-1-86.5-19t-47-62.5T125,237q0-101 26-147t95-46q48,0 88.5,21T428,124l9-43q-34-29-68-50T300-1.5T226-13q-85,0-125.5,61T60,241q0,65 11,113t35,80t64.5,47.5T272,497Zm149-31l63-2V-204H421L420-25q0,30 1.5,54T428,78l-7,15V466Z"/>
      <glyph unicode="r" glyph-name="gid106" horiz-adv-x="395" d="M133,485l8-92l6-15V0H84V485h49Zm242,12l-8-60H343q-47,0-92.5-20.5T141,358l-5,42q56,45 111,71t107,26h21Z"/>
      <glyph unicode="s" glyph-name="gid107" horiz-adv-x="505" d="M240,497q31,0 65.5-2t68.5-5t64-7l-6-47q-45,3-92,4.5T248,442q-48,1-76.5-2.5t-42-20T116,365q0-43 19-58.5T191,284l149-28q56-11 83.5-40T451,127q0-61-22-90T362-1.5T250-11q-29,0-77.5,2T65,2l5,46q27-1 54-2.5t55.5-2T239,43q57,1 90,6.5T376,73t14,54q0,42-22.5,57T310,206L162,233q-37,8-61,23.5t-35.5,42T54,365q0,58 20,86.5T135,489t105,8Z"/>
      <glyph unicode="t" glyph-name="gid109" horiz-adv-x="369" d="M180,631V121q0-37 17.5-54T251,50h79l8-47q-15-4-34.5-6.5T266-7T237-8q-59,0-89.5,31T117,113V631h63ZM344,485V433H29v47l95,5H344Z"/>
      <glyph unicode="u" glyph-name="gid110" horiz-adv-x="566" d="M144,485V137q-1-50 20.5-72T233,43q45,0 88.5,22T426,128l7-46Q375,35 321,11T212-13Q81-13 81,120V485h63Zm338,0V0H432l-6,91l-7,15V485h63Z"/>
      <glyph unicode="v" glyph-name="gid115" horiz-adv-x="522" d="M499,485L314,16q-3-7-9-11.5T290,0H231q-8,0-14.5,4.5T207,16L22,485H90L222,134q9-21 16.5-43.5T254,47h13q9,22 17,44t16,44L432,485h67Z"/>
      <glyph unicode="w" glyph-name="gid116" horiz-adv-x="820" d="M792,485L641,19q-3-9-10-14T615,0H556q-9,0-16.5,5.5T530,21L434,368q-5,19-9,37.5T416,443H404q-4-19-9.5-37.5T385,368L290,21q-3-10-10-15.5T263,0H205q-9,0-16,5T179,19L28,485H94L208,113q6-17 10-34.5T226,43h14q5,18 10,35.5t9,34.5l97,351q2,9 8.5,15t16.5,6h58q10,0 16.5-6t9.5-16l96-350q4-17 9-34t9-36h14q5,19 8.5,36t9.5,34L726,485h66Z"/>
      <glyph unicode="x" glyph-name="gid117" horiz-adv-x="520" d="M480,485L322,251L492,0H422L255,251L410,485h70Zm-370,0L265,251L98,0H28L197,251L40,485h70ZM303,277V227H217v50h86Z"/>
      <glyph unicode="y" glyph-name="gid118" horiz-adv-x="521" d="M498,485L294-34q-12-31-28.5-60T226-147t-53.5-40T102-207l-8,41q60,20 91,55.5T236-27l22,54q8,19 15.5,40.5T288,107L430,485h68ZM90,485L233,106q5-14 10.5-28T253,50h21L253,0H230q-8,0-14.5,4.5T206,17L22,485H90Z"/>
      <glyph unicode="z" glyph-name="gid121" horiz-adv-x="506" d="M381,433l72-1L122,51L50,52L381,433ZM456,52V0H50V52H456Zm-3,433V432H53v53H453Z"/>
      <glyph unicode="{" glyph-name="gid213" horiz-adv-x="312" d="M266,768V727q-55,0-75-22.5T171,634V445q1-40-6-63t-25.5-35T87,328q35-11 54-24t26.5-33.5T175,215V-31q0-48 20-70.5T270-124v-41q-56-3-90.5,11t-50,44T114-34V227q0,27-6.5,40T87,287T50,303v50q25,8 38,14t17.5,20t4.5,46V637q0,47 15.5,76.5t50,43.5T266,768Z"/>
      <glyph unicode="|" glyph-name="gid239" horiz-adv-x="242" d="M145,781V-169H97V781h48Z"/>
      <glyph unicode="}" glyph-name="gid214" horiz-adv-x="312" d="M46,768q56,3 90.5-11t50-43.5T202,637V433q0-32 5-46t18-20t38-14V303q-23-9-37.5-16t-21-20T198,227V-34q0-46-15.5-76t-50-44T42-165v41q56,0 75.5,22.5T137-31V215q0,35 8,55.5T172,304t53,24q-33,7-51.5,19T148,382t-7,63V634q0,48-19.5,70.5T46,727v41Z"/>
      <glyph unicode="~" glyph-name="gid260" horiz-adv-x="528" d="M157,342q28-2 54-11t51-20t50-20.5T364,279q28-2 39,11.5T414,337h34q6-54-16-81.5T372,230q-33,2-60,11t-51.5,20t-48,20.5T165,293q-29,3-39.5-12T115,233H81q-4,38 5.5,62t28,36T157,342Z"/>
      <glyph unicode="&#xa0;" glyph-name="gid186" horiz-adv-x="225"/>
      <glyph unicode="&#xa1;" glyph-name="gid196" horiz-adv-x="248" d="M150,280l6-168V-199H92V112l6,168h52ZM134,488q13,0 18.5-5.5T158,463V406q0-13-5.5-18.5T134,382H116q-13,0-19,5.5T91,406v57q0,14 6,19.5t19,5.5h18Z"/>
      <glyph unicode="&#xa2;" glyph-name="gid241" horiz-adv-x="507" d="M286,604q21,0 46.5-2t52.5-6.5T435,582l-9-43q-30,6-67,8t-62,2q-65,0-103-18t-55-61T122,349q0-77 17-120.5T194,167t103-18q14,0 38.5,1t51.5,4t51,7l7-43q-36-11-77.5-17T286,95q-82,0-132,24.5T81.5,200T59,349q0,94 22.5,149.5T154,579t132,25Zm1-478L276,0H239l12,126h36Zm35,442L288,124H251l34,444h37Zm11,122L322,566H286l10,124h37Z"/>
      <glyph unicode="&#xa3;" glyph-name="gid245" horiz-adv-x="566" d="M317,702q20,0 47-1t59-3t65-6l-4-52q-21,1-39.5,2T407,644t-43,1t-56,0q-66,0-91.5-27T194,524l15-268q2-47-3.5-84T184,106T137,54q16,2 32,2t32,0H512V0H66V56q52,29 67.5,80.5T145,256L130,523q-3,59 9.5,94.5t37,53.5t61,24.5T317,702ZM428,385l-2-44H60l-1,44H428Z"/>
      <glyph unicode="&#xa4;" glyph-name="gid242" horiz-adv-x="597" d="M297,506q-41,0-76-20.5T165,430t-21-78q0-42 21-77.5T221,219t76-20q42,0 76.5,20T429,274t21,78q0,42-21,77.5t-55.5,56T297,506ZM103,576l83-83l-29-29L74,546l29,30Zm390,0l30-30l-81-80l-29,29l80,81ZM160,246l31-31l-88-88L72,158l88,88Zm276-4l87-86l-30-29l-86,86l29,29ZM297,546q55,0 98.5-26T465,450t26-99q0-53-26-97t-70-70.5T297,157q-53,0-97.5,26.5T129,254t-26,97q0,55 26,99t70.5,70T297,546Z"/>
      <glyph unicode="&#xa5;" glyph-name="gid246" horiz-adv-x="612" d="M570,690L335,264H277L42,690h68L267,405q10-17 18.5-36.5T303,330h6q9,19 18.5,38T345,404L501,690h69ZM339,315V0H273V315h66ZM524,205V165H93l-1,40H524Zm0,112V276H93l-1,41H524Z"/>
      <glyph unicode="&#xa6;" glyph-name="gid240" horiz-adv-x="244" d="M146,781V381H98V781h48Zm0-550V-169H98V231h48Z"/>
      <glyph unicode="&#xa7;" glyph-name="gid232" horiz-adv-x="544" d="M129,398q-4-44 0-76.5T149,265t47-42L376,122q34-20 56.5-41t34-48T478-32q0-57-24.5-83.5t-67-33.5T288-156q-32,1-68,2.5t-73.5,4T71-144l5,50q36-2 67.5-3.5t63.5-2t68-1.5q40,0 70.5,3T393-80t17,50q2,39-18.5,62.5T341,73L169,170q-47,25-69,57T75,301.5T81,398h48ZM257,703q33,0 71-1.5t76-4t69-6.5l-4-49q-31,2-57.5,3t-59,2T271,648q-41,1-72-2.5t-48-18T134,580q-1-39 19-62t51-41l173-97q47-26 68.5-58.5t24.5-75T463,150H416q4,44-0.5,77T395,284.5T348,327L168,430q-34,19-57,40T77,518T66,581q0,52 22.5,78T154,694t103,9Z"/>
      <glyph unicode="&#xa8;" glyph-name="gid272" horiz-adv-x="407" d="M303,686q19,0 19-19V611q0-19-19-19H282q-19,0-19,19v56q0,19 19,19h21Zm-177,0q19,0 19-19V611q0-19-19-19H104q-18,0-18,19v56q0,19 18,19h22Z"/>
      <glyph unicode="&#xa9;" glyph-name="gid233" horiz-adv-x="844" d="M422,703q75,0 139.5-26.5t114-74.5t77-113.5T780,345T752.5,201.5T675.5,88t-114-74.5T422-13T282.5,13.5T169,88T92,201.5T64,345T92,488.5T169,602t113.5,74.5T422,703Zm5-131q47,0 76-2.5T561,559l-7-36q-32,2-58.5,3T426,527q-53,0-85-17t-45-56T283,347q0-67 13-106t45-56t85-17q47,0 78.5,1t61.5,5l6-37q-31-7-63.5-10.5T427,123q-71,0-114,22t-62,71T232,347q0,83 19,132t62,71t114,22Zm-5,94q-66,0-124-24T196,574.5T126.5,473T101,345q0-69 25.5-127.5t69.5-102T298,48T422,24T546.5,48t102,67.5t68.5,102T742,345q0,70-25,128T648.5,574.5T546.5,642T422,666Z"/>
      <glyph unicode="&#xaa;" glyph-name="gid129" horiz-adv-x="442" d="M255,605q51,0 79.5-23T363,502V271H324l-8,72l-2,7V503q0,26-14.5,43T246,563q-35,0-76.5-2.5T90,554l-6,37q24,3 50.5,6.5t57,5.5t63.5,2Zm84-135l-1-29l-165-7q-29-1-42-13.5T118,386V361q0-28 15.5-40T178,309q26,0 54,9.5t53.5,25T328,376V345q-8-11-24.5-24.5t-38-26T218,274t-54-8q-43,0-69,21.5T69,351v39q0,38 24,59t66,21H339Z"/>
      <glyph unicode="&#xab;" glyph-name="gid223" horiz-adv-x="473" d="M381,457l33-23L280,251L415,64L382,41L220,243v16L381,457Zm-173,0l33-23L107,251L242,64L209,41L47,243v16L208,457Z"/>
      <glyph unicode="&#xac;" glyph-name="gid261" horiz-adv-x="591" d="M509,322V272H78v50H509Zm0-11V131H458V311h51Z"/>
      <glyph unicode="&#xae;" glyph-name="gid234" horiz-adv-x="563" d="M282,702q62,0 112-30t80-80t30-112T474,367.5T394,287T282,257T169.5,287T89,367.5T59,480T89,592t80.5,80T282,702Zm-68-89V346H182V613h32Zm68,64q-54,0-99-26.5T111.5,579T85,480q0-55 26.5-100T183,308.5T282,282t98.5,26.5t71,71.5T478,480q0,54-26.5,99t-71,71.5T282,677Zm10-61q55,0 78.5-16T394,539q0-31-14-47.5T334,471v-2q12-1 22.5-11T373,431l32-85H371l-31,83q-7,16-18,23t-28,7q-44,0-70,0t-37,1l1,23H291q39,1 55,12t15,41q1,33-15,43.5T291,590q-37,0-64.5,0T189,589l-7,24q26,2 48.5,2.5T292,616Z"/>
      <glyph unicode="&#xaf;" glyph-name="gid280" horiz-adv-x="400" d="M336,663V615H64v48H336Z"/>
      <glyph unicode="&#xb0;" glyph-name="gid236" horiz-adv-x="370" d="M186,703q34,0 63-17t46-45.5T312,577t-17-63.5t-46-46T186,450q-35,0-64.5,17.5T75,513.5T58,577t17,63t46,45.5T186,703Zm0-41q-36,0-61-24t-25-61q0-23 11.5-43t31-31.5T186,491q23,0 42.5,11.5T259,534t11,43q0,37-24.5,61T186,662Z"/>
      <glyph unicode="&#xb1;" glyph-name="gid259" horiz-adv-x="592" d="M511,379V330H81v49H511Zm0-251V79H81v49H511ZM321,517l-1-325H271V517h50Z"/>
      <glyph unicode="&#xb2;" glyph-name="gid177" horiz-adv-x="396" d="M197,766q43,0 73.5-8t46-28T332,674q0-37-21.5-71.5T248,525L127,401q17,1 32,1t32,0l159-1V358H57v25q0,7 2,12t7,9L198,540q27,28 44,49t25.5,40t7.5,40q0,33-21,43t-58,10q-30,0-60-2.5T67,710l-4,39q44,11 77,14t57,3Z"/>
      <glyph unicode="&#xb3;" glyph-name="gid178" horiz-adv-x="400" d="M187,767q73,0 104.5-20.5T323,674q0-40-14.5-67T256,572v-2q43-8 60-33t18-68q1-61-31.5-90T195,350q-36,0-72,4t-66,9l5,39q21-3 41-5t40.5-3t41.5-1q52,0 73.5,18T280,474q0,20-6,36.5T249.5,537T194,547l-84,1v38l84,2q37,0 53,12t20.5,29.5T271,663q0,36-19,48t-71,12q-30,0-61-2.5T67,714l-4,38q31,6 62.5,10.5T187,767Z"/>
      <glyph unicode="&#xb4;" glyph-name="gid275" horiz-adv-x="301" d="M217,723l38-49L77,547L53,577L217,723Z"/>
      <glyph unicode="&#xb5;" glyph-name="gid263" horiz-adv-x="575" d="M146,485V143q0-54 23.5-75.5T238,46q49,0 91,27t68,71.5T424,242l3-126q-18-39-49-68T309,3.5T229-12q-43,0-75.5,15.5T102.5,50T84,128V485h62Zm0-401V-86l-9-118H84V164l62-80ZM487,485V102q0-17 2-31t8-22t21-8h34l5-38q-16-6-32.5-9T491-9q-34,0-49,23.5T427,79v37l-3,16V485h63Z"/>
      <glyph unicode="&#xb6;" glyph-name="gid231" horiz-adv-x="594" d="M348,702q30,0 71-3.5T494,685l-6-39q-25,5-57,7.5T368.5,657T316,658L285,200q-129,10-184.5,68T45,450q0,93 30.5,148t97,79.5T348,702Zm-22-17V-210H275V685h51Zm168,0V0H443V685h51Z"/>
      <glyph unicode="&#xb7;" glyph-name="gid199" horiz-adv-x="225" d="M124,311q14,0 19.5-6t5.5-19V229q0-14-5.5-19.5T124,204H102q-13,0-19,5.5T77,229v57q0,13 6,19t19,6h22Z"/>
      <glyph unicode="&#xb8;" glyph-name="gid281" horiz-adv-x="229" d="M95-45q34,3 56-2t33-20t10-43q-1-39-21-67t-55-41t-81-7l10,34q45-1 72,21t28,55q0,22-12,30T88-76l7,31Z"/>
      <glyph unicode="&#xb9;" glyph-name="gid176" horiz-adv-x="292" d="M195,760V358H144V680q0,8 0.5,16.5T146,714L38,682l-7,36l113,42h51Z"/>
      <glyph unicode="&#xba;" glyph-name="gid130" horiz-adv-x="446" d="M223,605q87,0 122.5-38.5T381,434q0-62-15.5-100t-50-54.5T223,263q-88,0-123,38.5T65,434t35.5,132.5T223,605Zm0-41q-60,0-83.5-27.5T116,434q0-74 23.5-101.5T223,305q59,0 82.5,27.5T329,434q0,75-23.5,102.5T223,564Z"/>
      <glyph unicode="&#xbb;" glyph-name="gid224" horiz-adv-x="473" d="M92,457L253,259V243L91,41L58,64L193,251L59,434l33,23Zm174,0L427,259V243L265,41L231,64L366,251L232,434l34,23Z"/>
      <glyph unicode="&#xbc;" glyph-name="gid173" horiz-adv-x="855" d="M640,690L181,0H133L592,690h48Zm-426,0V276H164V608q0,9 1,18t2,18L50,612l-6,35l120,43h50ZM655,414L523,168q-4-9 1.5-16.5T541,144H809V108l-60-5H508q-24,0-37,17t0,42L605,414h50Zm107-79V0H714V267l10,68h38Z"/>
      <glyph unicode="&#xbd;" glyph-name="gid172" horiz-adv-x="881" d="M636,690L177,0H129L588,690h48Zm-422,0V276H164V608q0,9 1,18t2,18L50,612l-6,35l120,43h50ZM665,421q47,0 79-6.5T793,388t17-58q0-37-21-71.5T724,180L588,44q19,1 36,1.5T661,45H829L828,0H524V29q0,6 1.5,11.5T531,51L671,189q42,42 63,75t21,63q0,34-25,42t-67,8q-31,0-59.5-1.5T532,368l-4,38q48,10 79.5,12.5T665,421Z"/>
      <glyph unicode="&#xbe;" glyph-name="gid174" horiz-adv-x="945" d="M742,690L283,0H235L694,690h48Zm-546,5q82,0 113.5-20.5T341,600q0-40-15.5-69T265,495v-2q49-7 67.5-34T352,389q2-63-31-93T205,266q-36,0-73,3.5T60,277l4,38q23-2 44-3t42.5-2t43.5-1q58,0 82,19t24,67q0,21-7,38t-27.5,28T204,472l-86,1v35l86,2q40,1 58.5,13.5T286,554t5,34q0,39-22,52t-80,13q-32,0-62.5-1.5T72,648l-4,37q34,5 65,7.5t63,2.5ZM745,414L614,168q-5-9 0.5-16.5T632,144H900V108l-60-5H598q-24,0-37,17t0,42L696,414h49Zm102-79V0H800V267l9,68h38Z"/>
      <glyph unicode="&#xbf;" glyph-name="gid198" horiz-adv-x="501" d="M287,288q0-56-17-96t-42.5-69.5T175.5,67t-44-54T113-52q-1-56 34-82.5T258-161q50,0 81,1t57,3.5t59,5.5l5-45q-25-4-45.5-8t-43-6.5t-52-4T246-216q-98,0-149,38T46-61q0,45 18.5,78T110,77.5t54.5,56t46.5,65T231,288h56ZM269,496q13,0 18.5-5.5T293,472V413q0-13-5.5-18.5T269,389H251q-13,0-18.5,5.5T227,413v59q0,13 5.5,18.5T251,496h18Z"/>
      <glyph unicode="&#xc0;" glyph-name="gid6" horiz-adv-x="615" d="M345,690q9,0 16.5-5t9.5-14L602,0H534L340,582q-4,14-9,28.5T322,638H293q-4-13-8.5-27.5T275,582L81,0H13L244,671q3,9 10,14t16,5h75ZM482,286V229H132v57H482ZM195,902L359,756l-24-30L157,854l38,48Z"/>
      <glyph unicode="&#xc1;" glyph-name="gid2" horiz-adv-x="615" d="M345,690q9,0 16.5-5t9.5-14L602,0H534L340,582q-4,14-9,28.5T322,638H293q-4-13-8.5-27.5T275,582L81,0H13L244,671q3,9 10,14t16,5h75ZM482,286V229H132v57H482ZM409,907l38-49L269,731l-24,30L409,907Z"/>
      <glyph unicode="&#xc2;" glyph-name="gid4" horiz-adv-x="615" d="M345,690q9,0 16.5-5t9.5-14L602,0H534L340,582q-4,14-9,28.5T322,638H293q-4-13-8.5-27.5T275,582L81,0H13L244,671q3,9 10,14t16,5h75ZM482,286V229H132v57H482ZM330,886L464,762l-23-28L312,833h-8L174,734l-23,28L284,886h46Z"/>
      <glyph unicode="&#xc3;" glyph-name="gid8" horiz-adv-x="615" d="M345,690q9,0 16.5-5t9.5-14L602,0H534L340,582q-4,14-9,28.5T322,638H293q-4-13-8.5-27.5T275,582L81,0H13L244,671q3,9 10,14t16,5h75ZM482,286V229H132v57H482ZM231,870q23-2 40.5-10.5t33.5-19t33-19T377,810q30-3 41,10.5T429,865h32q4-52-18-79t-59-24q-34,3-57.5,17t-44,28T237,823q-29,3-40-11.5T186,765H154q-3,36 6.5,60.5t28,35.5t42.5,9Z"/>
      <glyph unicode="&#xc4;" glyph-name="gid5" horiz-adv-x="615" d="M345,690q9,0 16.5-5t9.5-14L602,0H534L340,582q-4,14-9,28.5T322,638H293q-4-13-8.5-27.5T275,582L81,0H13L244,671q3,9 10,14t16,5h75ZM482,286V229H132v57H482ZM406,861q19,0 19-19V786q0-19-19-19H385q-19,0-19,19v56q0,19 19,19h21Zm-177,0q19,0 19-19V786q0-19-19-19H207q-18,0-18,19v56q0,19 18,19h22Z"/>
      <glyph unicode="&#xc5;" glyph-name="gid7" horiz-adv-x="615" d="M345,690q9,0 16.5-5t9.5-14L602,0H534L340,582q-4,14-9,28.5T322,638H293q-4-13-8.5-27.5T275,582L81,0H13L244,671q3,9 10,14t16,5h75ZM482,286V229H132v57H482ZM308,918q28,0 51.5-13.5T397,868t14-51q0-27-14-50.5T360,729t-52-14q-28,0-52,13.5T218,765t-14,52q0,28 14,51t38,36.5T308,918Zm0-35q-28,0-46.5-18.5T243,817q0-30 18.5-48T308,751t46.5,18T373,817q0,29-18.5,47.5T308,883Z"/>
      <glyph unicode="&#xc6;" glyph-name="gid9" horiz-adv-x="910" d="M570,691q93,0 159-1t128-5l-2-51H595q-33,0-53-20t-20-54V128q0-35 18.5-53.5T595,56H855l2-51Q786,1 714.5,0T570-1q-49,0-80,32.5T459,113V568q0,22 11,44t25,30h-8q-14-7-31-24t-33-42L73,0H3L366,590q18,31 38,51t44,30.5t54,15t68,4.5ZM479,297V242H187l10,55H479Zm-5,97l340-1V340l-340-1v55Z"/>
      <glyph unicode="&#xc7;" glyph-name="gid12" horiz-adv-x="567" d="M332,702q42,0 72.5-2t56.5-6t54-11l-8-50q-30,4-54.5,6t-53,3.5T332,644q-74,0-117-28.5T154,522T136,345t18-177t61-93.5T332,46q62,0 105,3t84,9l8-49Q487-2 442.5-7T332-12q-97,0-155.5,34.5T92,135T66,345T92,555t84.5,112.5T332,702ZM289-57q34,3 56-2t33-20t10-43q-1-39-21-67t-55-41t-81-7l10,34q45-1 72,21t28,55q0,22-12,30t-47,9l7,31Z"/>
      <glyph unicode="&#xc8;" glyph-name="gid19" horiz-adv-x="557" d="M209,691q49,0 99,0t99.5-1.5T504,685l-3-51H220q-33,0-50.5-18T152,563V127q0-35 17.5-53.5T220,55H501l3-50q-47-3-96.5-4T308-0.5T209-1q-55,0-88.5,31.5T87,113V577q0,52 33.5,83T209,691ZM104,393H461V340H104v53Zm93,531L361,778l-24-30L159,876l38,48Z"/>
      <glyph unicode="&#xc9;" glyph-name="gid16" horiz-adv-x="557" d="M209,691q49,0 99,0t99.5-1.5T504,685l-3-51H220q-33,0-50.5-18T152,563V127q0-35 17.5-53.5T220,55H501l3-50q-47-3-96.5-4T308-0.5T209-1q-55,0-88.5,31.5T87,113V577q0,52 33.5,83T209,691ZM104,393H461V340H104v53ZM411,929l38-49L271,753l-24,30L411,929Z"/>
      <glyph unicode="&#xca;" glyph-name="gid17" horiz-adv-x="557" d="M209,691q49,0 99,0t99.5-1.5T504,685l-3-51H220q-33,0-50.5-18T152,563V127q0-35 17.5-53.5T220,55H501l3-50q-47-3-96.5-4T308-0.5T209-1q-55,0-88.5,31.5T87,113V577q0,52 33.5,83T209,691ZM104,393H461V340H104v53ZM332,908L466,784l-23-28L314,855h-8L176,756l-23,28L286,908h46Z"/>
      <glyph unicode="&#xcb;" glyph-name="gid18" horiz-adv-x="557" d="M209,691q49,0 99,0t99.5-1.5T504,685l-3-51H220q-33,0-50.5-18T152,563V127q0-35 17.5-53.5T220,55H501l3-50q-47-3-96.5-4T308-0.5T209-1q-55,0-88.5,31.5T87,113V577q0,52 33.5,83T209,691ZM104,393H461V340H104v53ZM408,882q19,0 19-19V807q0-19-19-19H387q-19,0-19,19v56q0,19 19,19h21Zm-177,0q19,0 19-19V807q0-19-19-19H209q-18,0-18,19v56q0,19 18,19h22Z"/>
      <glyph unicode="&#xcc;" glyph-name="gid27" horiz-adv-x="251" d="M158,690V0H93V690h65ZM12,907L176,761l-24-30L-26,859l38,48Z"/>
      <glyph unicode="&#xcd;" glyph-name="gid24" horiz-adv-x="251" d="M158,690V0H93V690h65Zm69,222l38-49L87,736L63,766L227,912Z"/>
      <glyph unicode="&#xce;" glyph-name="gid25" horiz-adv-x="251" d="M158,690V0H93V690h65ZM147,891L281,767l-23-28L129,838h-8L-9,739l-23,28L101,891h46Z"/>
      <glyph unicode="&#xcf;" glyph-name="gid26" horiz-adv-x="251" d="M158,690V0H93V690h65Zm66,175q19,0 19-19V790q0-19-19-19H203q-19,0-19,19v56q0,19 19,19h21ZM47,865q19,0 19-19V790q0-19-19-19H25Q7,771 7,790v56q0,19 18,19H47Z"/>
      <glyph unicode="&#xd0;" glyph-name="gid14" horiz-adv-x="667" d="M325,387V349H23v38H325Zm11,312q73,0 123-18.5T540,621t45-109t14-167T585,178T540,69T459,9.5T336-9Q267-9 208-6.5T96,0l29,52q45-1 96.5-2T336,49q72,0 115,27.5T512,169t18,176T512,521t-61,93T336,642q-62,0-113-1t-99-3L96,690q53,4 112,6.5T336,699Zm-174-9V0H96V690h66Z"/>
      <glyph unicode="&#xd1;" glyph-name="gid33" horiz-adv-x="699" d="M606,690V28q0-28-27-28H509q-12,0-19.5,5.5T477,22L213,546q-9,19-20,41.5T175,629H156q1-20 1.5-41t0.5-42V0H93V662q0,28 28,28h67q12,0 19.5-5.5T220,668L476,156q11-21 23-45t23-48h21q0,25-1,50t-1,49V690h65ZM285,875q23-2 40.5-10.5t33.5-19t33-19T431,815q30-3 41,10.5T483,870h32q4-52-18-79t-59-24q-34,3-57.5,17t-44,28T291,828q-29,3-40-11.5T240,770H208q-3,36 6.5,60.5t28,35.5t42.5,9Z"/>
      <glyph unicode="&#xd2;" glyph-name="gid38" horiz-adv-x="666" d="M333,703q74,0 125-18.5t82-60T585,514t14-169T585,176T540,65.5t-82-60T333-13T208,5.5t-82,60T80.5,176T66,345T80.5,514T126,624.5t82,60T333,703Zm0-59q-74,0-117.5-28.5T154,522T136,345t18-177t61.5-93.5T333,46T450,74.5T511.5,168T530,345T511.5,522T450,615.5T333,644ZM221,907L385,761l-24-30L183,859l38,48Z"/>
      <glyph unicode="&#xd3;" glyph-name="gid35" horiz-adv-x="666" d="M333,703q74,0 125-18.5t82-60T585,514t14-169T585,176T540,65.5t-82-60T333-13T208,5.5t-82,60T80.5,176T66,345T80.5,514T126,624.5t82,60T333,703Zm0-59q-74,0-117.5-28.5T154,522T136,345t18-177t61.5-93.5T333,46T450,74.5T511.5,168T530,345T511.5,522T450,615.5T333,644ZM436,912l38-49L296,736l-24,30L436,912Z"/>
      <glyph unicode="&#xd4;" glyph-name="gid36" horiz-adv-x="666" d="M333,703q74,0 125-18.5t82-60T585,514t14-169T585,176T540,65.5t-82-60T333-13T208,5.5t-82,60T80.5,176T66,345T80.5,514T126,624.5t82,60T333,703Zm0-59q-74,0-117.5-28.5T154,522T136,345t18-177t61.5-93.5T333,46T450,74.5T511.5,168T530,345T511.5,522T450,615.5T333,644Zm24,247L491,767l-23-28L339,838h-8L201,739l-23,28L311,891h46Z"/>
      <glyph unicode="&#xd5;" glyph-name="gid40" horiz-adv-x="666" d="M333,703q74,0 125-18.5t82-60T585,514t14-169T585,176T540,65.5t-82-60T333-13T208,5.5t-82,60T80.5,176T66,345T80.5,514T126,624.5t82,60T333,703Zm0-59q-74,0-117.5-28.5T154,522T136,345t18-177t61.5-93.5T333,46T450,74.5T511.5,168T530,345T511.5,522T450,615.5T333,644ZM258,875q23-2 40.5-10.5t33.5-19t33-19T404,815q30-3 41,10.5T456,870h32q4-52-18-79t-59-24q-34,3-57.5,17t-44,28T264,828q-29,3-40-11.5T213,770H181q-3,36 6.5,60.5t28,35.5t42.5,9Z"/>
      <glyph unicode="&#xd6;" glyph-name="gid37" horiz-adv-x="666" d="M333,703q74,0 125-18.5t82-60T585,514t14-169T585,176T540,65.5t-82-60T333-13T208,5.5t-82,60T80.5,176T66,345T80.5,514T126,624.5t82,60T333,703Zm0-59q-74,0-117.5-28.5T154,522T136,345t18-177t61.5-93.5T333,46T450,74.5T511.5,168T530,345T511.5,522T450,615.5T333,644ZM433,865q19,0 19-19V790q0-19-19-19H412q-19,0-19,19v56q0,19 19,19h21Zm-177,0q19,0 19-19V790q0-19-19-19H234q-18,0-18,19v56q0,19 18,19h22Z"/>
      <glyph unicode="&#xd7;" glyph-name="gid254" horiz-adv-x="485" d="M407,467L53,149l32-39L439,429l-32,38ZM85,467L53,428L407,110l32,39L85,467Z"/>
      <glyph unicode="&#xd8;" glyph-name="gid39" horiz-adv-x="666" d="M494,747l37-16L162-56L125-39L494,747ZM333,703q74,0 125-18.5t82-60T585,514t14-169T585,176T540,65.5t-82-60T333-13T208,5.5t-82,60T80.5,176T66,345T80.5,514T126,624.5t82,60T333,703Zm0-59q-74,0-117.5-28.5T154,522T136,345t18-177t61.5-93.5T333,46T450,74.5T511.5,168T530,345T511.5,522T450,615.5T333,644Z"/>
      <glyph unicode="&#xd9;" glyph-name="gid52" horiz-adv-x="666" d="M579,690V261q0-99-24-159T478,14.5T336-13q-91,0-145.5,27.5T112,102T88,261V690h65V261q0-80 17.5-127t57-67.5T333,46T438.5,66.5t57,67.5T513,261V690h66ZM221,907L385,761l-24-30L183,859l38,48Z"/>
      <glyph unicode="&#xda;" glyph-name="gid49" horiz-adv-x="666" d="M579,690V261q0-99-24-159T478,14.5T336-13q-91,0-145.5,27.5T112,102T88,261V690h65V261q0-80 17.5-127t57-67.5T333,46T438.5,66.5t57,67.5T513,261V690h66ZM436,912l38-49L296,736l-24,30L436,912Z"/>
      <glyph unicode="&#xdb;" glyph-name="gid50" horiz-adv-x="666" d="M579,690V261q0-99-24-159T478,14.5T336-13q-91,0-145.5,27.5T112,102T88,261V690h65V261q0-80 17.5-127t57-67.5T333,46T438.5,66.5t57,67.5T513,261V690h66ZM356,891L490,767l-23-28L338,838h-8L200,739l-23,28L310,891h46Z"/>
      <glyph unicode="&#xdc;" glyph-name="gid51" horiz-adv-x="666" d="M579,690V261q0-99-24-159T478,14.5T336-13q-91,0-145.5,27.5T112,102T88,261V690h65V261q0-80 17.5-127t57-67.5T333,46T438.5,66.5t57,67.5T513,261V690h66ZM433,865q19,0 19-19V790q0-19-19-19H412q-19,0-19,19v56q0,19 19,19h21Zm-177,0q19,0 19-19V790q0-19-19-19H234q-18,0-18,19v56q0,19 18,19h22Z"/>
      <glyph unicode="&#xdd;" glyph-name="gid57" horiz-adv-x="559" d="M543,690L308,240H251L15,690H85L243,384q9-18 17-37t16-37h7q7,18 16,37t17,36L473,690h70ZM312,291V0H246V291h66Zm70,614l38-49L242,729l-24,30L382,905Z"/>
      <glyph unicode="&#xde;" glyph-name="gid43" horiz-adv-x="589" d="M325,563q79,0 125.5-19t67-64.5T538,350T518,220t-65.5-64.5T330,137q-41,0-78,1.5T184.5,143t-52,5.5T103,153l3,42q51,0 107,0t110,0q55,1 87.5,13.5t46.5,46T471,350q0,63-14,96.5T410.5,493T323,506q-80,0-138-0.5T107,503L93,555q37,4 69,5.5t70,2t93,0.5ZM158,690V0H93V690h65Z"/>
      <glyph unicode="&#xdf;" glyph-name="gid108" horiz-adv-x="666" d="M337,718q74,0 123-11t72.5-38T556,593q0-32-8.5-54.5T519,498t-55-36q-36-16-61-27t-37-25.5T354,366q0-30 17.5-44T419,296l114-44q31-12 51-27.5t30.5-39T625,125q0-59-20.5-88T546-1.5T454-11q-32,0-72,2T292,0l4,48q40-4 77.5-5T444,42q41,1 67,6t38.5,23T562,127q0,27-8.5,42t-24,24.5T492,211L377,256q-38,15-61,40t-23,69q0,40 17.5,62t48,37T427,496q39,18 54.5,38T497,591q0,27-16,43t-50.5,23.5T339,665q-59,0-93.5-11t-49-39T182,533V0H118V539q0,60 15.5,96T178,689t69,23.5t90,5.5ZM153,485V433H31v48l92,4h30Z"/>
      <glyph unicode="&#xe0;" glyph-name="gid64" horiz-adv-x="545" d="M310,497q50,0 84.5-14.5t52.5-47T465,348V0H415L405,106l-4,9V348q0,46-21.5,70T298,442q-44,0-102-4T83,428l-6,47q34,6 72,10.5t79,8t82,3.5ZM432,296l-1-48l-237-2q-38-1-55.5-20.5T121,171V129q0-41 21-61t64-20q32-1 70.5,11T353,94t67,54V99q-12-15-34.5-33t-52-35t-65-28T195-8Q153-8 122,7T73.5,51.5T56,123v56q0,56 33.5,86.5T184,296H432ZM158,726L322,580l-24-30L120,678l38,48Z"/>
      <glyph unicode="&#xe1;" glyph-name="gid61" horiz-adv-x="545" d="M310,497q50,0 84.5-14.5t52.5-47T465,348V0H415L405,106l-4,9V348q0,46-21.5,70T298,442q-44,0-102-4T83,428l-6,47q34,6 72,10.5t79,8t82,3.5ZM432,296l-1-48l-237-2q-38-1-55.5-20.5T121,171V129q0-41 21-61t64-20q32-1 70.5,11T353,94t67,54V99q-12-15-34.5-33t-52-35t-65-28T195-8Q153-8 122,7T73.5,51.5T56,123v56q0,56 33.5,86.5T184,296H432ZM373,731l38-49L233,555l-24,30L373,731Z"/>
      <glyph unicode="&#xe2;" glyph-name="gid62" horiz-adv-x="545" d="M310,497q50,0 84.5-14.5t52.5-47T465,348V0H415L405,106l-4,9V348q0,46-21.5,70T298,442q-44,0-102-4T83,428l-6,47q34,6 72,10.5t79,8t82,3.5ZM432,296l-1-48l-237-2q-38-1-55.5-20.5T121,171V129q0-41 21-61t64-20q32-1 70.5,11T353,94t67,54V99q-12-15-34.5-33t-52-35t-65-28T195-8Q153-8 122,7T73.5,51.5T56,123v56q0,56 33.5,86.5T184,296H432ZM293,710L427,586l-23-28L275,657h-8L137,558l-23,28L247,710h46Z"/>
      <glyph unicode="&#xe3;" glyph-name="gid66" horiz-adv-x="545" d="M310,497q50,0 84.5-14.5t52.5-47T465,348V0H415L405,106l-4,9V348q0,46-21.5,70T298,442q-44,0-102-4T83,428l-6,47q34,6 72,10.5t79,8t82,3.5ZM432,296l-1-48l-237-2q-38-1-55.5-20.5T121,171V129q0-41 21-61t64-20q32-1 70.5,11T353,94t67,54V99q-12-15-34.5-33t-52-35t-65-28T195-8Q153-8 122,7T73.5,51.5T56,123v56q0,56 33.5,86.5T184,296H432ZM195,694q23-2 40.5-10.5t33.5-19t33-19T341,634q30-3 41,10.5T393,689h32q4-52-18-79t-59-24q-34,3-57.5,17t-44,28T201,647q-29,3-40-11.5T150,589H118q-3,36 6.5,60.5t28,35.5t42.5,9Z"/>
      <glyph unicode="&#xe4;" glyph-name="gid63" horiz-adv-x="545" d="M310,497q50,0 84.5-14.5t52.5-47T465,348V0H415L405,106l-4,9V348q0,46-21.5,70T298,442q-44,0-102-4T83,428l-6,47q34,6 72,10.5t79,8t82,3.5ZM432,296l-1-48l-237-2q-38-1-55.5-20.5T121,171V129q0-41 21-61t64-20q32-1 70.5,11T353,94t67,54V99q-12-15-34.5-33t-52-35t-65-28T195-8Q153-8 122,7T73.5,51.5T56,123v56q0,56 33.5,86.5T184,296H432ZM370,684q19,0 19-19V609q0-19-19-19H349q-19,0-19,19v56q0,19 19,19h21Zm-177,0q19,0 19-19V609q0-19-19-19H171q-18,0-18,19v56q0,19 18,19h22Z"/>
      <glyph unicode="&#xe5;" glyph-name="gid65" horiz-adv-x="545" d="M310,497q50,0 84.5-14.5t52.5-47T465,348V0H415L405,106l-4,9V348q0,46-21.5,70T298,442q-44,0-102-4T83,428l-6,47q34,6 72,10.5t79,8t82,3.5ZM432,296l-1-48l-237-2q-38-1-55.5-20.5T121,171V129q0-41 21-61t64-20q32-1 70.5,11T353,94t67,54V99q-12-15-34.5-33t-52-35t-65-28T195-8Q153-8 122,7T73.5,51.5T56,123v56q0,56 33.5,86.5T184,296H432ZM272,742q28,0 51.5-13.5T361,692t14-51q0-27-14-50.5T324,553t-52-14q-28,0-52,13.5T182,589t-14,52q0,28 14,51t38,36.5T272,742Zm0-35q-28,0-46.5-18.5T207,641q0-30 18.5-48T272,575t46.5,18T337,641q0,29-18.5,47.5T272,707Z"/>
      <glyph unicode="&#xe6;" glyph-name="gid67" horiz-adv-x="874" d="M618,497q104,0 153-38t50-113q0-46-13.5-76t-43-44.5T688,211H427v50H674q48,0 66,22.5T756,345q0,50-32.5,73.5T621,442q-58,0-92-18t-48-60.5T467,248q0-81 17-125.5t54-62T635,43q43,0 88,3.5T802,55l7-43Q789,4 756.5-1T689-9t-62-3q-81,0-131,25.5t-72.5,82T401,244q0,95 22,150t70,79t125,24ZM432,296l-1-48l-237-2q-38-1-55.5-20.5T121,171V129q0-41 21-61t64-20q33-1 73.5,11.5t80.5,37T430,154V104q-13-15-36-34.5t-54.5-37t-68-29T195-8Q153-8 122,7T73.5,51.5T56,123v56q0,56 33.5,86.5T184,296H432ZM310,497q50,0 84.5-14.5t52.5-47T465,348V235H401V348q0,46-21.5,70T298,442q-44,0-102-4T83,428l-6,47q34,6 72,10.5t79,8t82,3.5Z"/>
      <glyph unicode="&#xe7;" glyph-name="gid70" horiz-adv-x="485" d="M287,497q20,0 46-2t53-6.5T436,476l-9-42q-31,4-68,6t-62,2q-63,0-100.5-17.5t-54-61T126,243t16.5-121t54-61.5T297,43q15,0 39,1t51,3t51,6l8-43Q410-1 368.5-6.5T286-12q-82,0-132,25T81.5,93.5T59,243q0,93 22.5,149T154,472.5T287,497ZM243-57q34,3 56-2t33-20t10-43q-1-39-21-67t-55-41t-81-7l10,34q45-1 72,21t28,55q0,22-12,30t-47,9l7,31Z"/>
      <glyph unicode="&#xe8;" glyph-name="gid77" horiz-adv-x="533" d="M277,497q104,0 152.5-38T479,346q1-65-25-100t-87-35H86v50H353q37,0 50,24t12,60q-1,52-33,74.5T280,442q-58,0-92-18t-48-60.5T126,248q0-81 17-125.5t54-62T294,43q42,0 87.5,3.5T461,55l7-43Q447,4 414.5-1t-67-8T286-12q-82,0-131.5,25.5T82,95.5T59,244q0,95 22.5,150T152,473t125,24ZM166,726L330,580l-24-30L128,678l38,48Z"/>
      <glyph unicode="&#xe9;" glyph-name="gid74" horiz-adv-x="533" d="M277,497q104,0 152.5-38T479,346q1-65-25-100t-87-35H86v50H353q37,0 50,24t12,60q-1,52-33,74.5T280,442q-58,0-92-18t-48-60.5T126,248q0-81 17-125.5t54-62T294,43q42,0 87.5,3.5T461,55l7-43Q447,4 414.5-1t-67-8T286-12q-82,0-131.5,25.5T82,95.5T59,244q0,95 22.5,150T152,473t125,24ZM381,731l38-49L241,555l-24,30L381,731Z"/>
      <glyph unicode="&#xea;" glyph-name="gid75" horiz-adv-x="533" d="M277,497q104,0 152.5-38T479,346q1-65-25-100t-87-35H86v50H353q37,0 50,24t12,60q-1,52-33,74.5T280,442q-58,0-92-18t-48-60.5T126,248q0-81 17-125.5t54-62T294,43q42,0 87.5,3.5T461,55l7-43Q447,4 414.5-1t-67-8T286-12q-82,0-131.5,25.5T82,95.5T59,244q0,95 22.5,150T152,473t125,24Zm25,213L436,586l-23-28L284,657h-8L146,558l-23,28L256,710h46Z"/>
      <glyph unicode="&#xeb;" glyph-name="gid76" horiz-adv-x="533" d="M277,497q104,0 152.5-38T479,346q1-65-25-100t-87-35H86v50H353q37,0 50,24t12,60q-1,52-33,74.5T280,442q-58,0-92-18t-48-60.5T126,248q0-81 17-125.5t54-62T294,43q42,0 87.5,3.5T461,55l7-43Q447,4 414.5-1t-67-8T286-12q-82,0-131.5,25.5T82,95.5T59,244q0,95 22.5,150T152,473t125,24ZM378,684q19,0 19-19V609q0-19-19-19H357q-19,0-19,19v56q0,19 19,19h21Zm-177,0q19,0 19-19V609q0-19-19-19H179q-18,0-18,19v56q0,19 18,19h22Z"/>
      <glyph unicode="&#xec;" glyph-name="gid87" horiz-adv-x="239" d="M151,485V0H88V485h63ZM6,726L170,580l-24-30L-32,678L6,726Z"/>
      <glyph unicode="&#xed;" glyph-name="gid83" horiz-adv-x="239" d="M151,485V0H88V485h63Zm70,246l38-49L81,555L57,585L221,731Z"/>
      <glyph unicode="&#xee;" glyph-name="gid84" horiz-adv-x="239" d="M151,485V0H88V485h63ZM141,710L275,586l-23-28L123,657h-8L-15,558l-23,28L95,710h46Z"/>
      <glyph unicode="&#xef;" glyph-name="gid85" horiz-adv-x="239" d="M151,485V0H88V485h63Zm67,199q19,0 19-19V609q0-19-19-19H197q-19,0-19,19v56q0,19 19,19h21ZM41,684q19,0 19-19V609q0-19-19-19H19Q1,590 1,609v56q0,19 18,19H41Z"/>
      <glyph unicode="&#xf0;" glyph-name="gid72" horiz-adv-x="555" d="M127,698q47,2 98-8t97.5-36t83-73.5t58-121T485,282q0-63-7.5-116.5T448,72T383.5,9.5T273-13Q165-13 112.5,42.5T60,220q0,71 20,122t64.5,78T263,447q28,0 58-5.5t62-21T447,377l-7-29q-46,26-85.5,36T270,394q-55,0-86-21.5T140,312t-13-93q0-97 36-137T274,42q64,0 95,29.5t41,84T420,287q0,99-19.5,165t-52,106.5t-72,60.5T196,646t-78,6l9,46Zm286,9l24-31L237,528l-24,30L413,707Z"/>
      <glyph unicode="&#xf1;" glyph-name="gid94" horiz-adv-x="577" d="M365,497q131,0 131-133V0H433V347q0,52-20,73.5T349,442q-49,0-96-23T141,354l-3,47q59,46 115.5,71T365,497ZM137,485l5-92l5-15V0H84V485h53Zm86,209q23-2 40.5-10.5t33.5-19t33-19T369,634q30-3 41,10.5T421,689h32q4-52-18-79t-59-24q-34,3-57.5,17t-44,28T229,647q-29,3-40-11.5T178,589H146q-3,36 6.5,60.5t28,35.5t42.5,9Z"/>
      <glyph unicode="&#xf2;" glyph-name="gid99" horiz-adv-x="565" d="M283,497q81,0 130-25t70.5-81T505,242T483.5,93T413,12T283-13T153,12T82,93T60,242T82,391t71,81t130,25Zm0-55q-59,0-93-18t-48.5-61.5T127,242q0-76 14.5-120T190,60t93-18q58,0 92.5,18t49,62T439,242q0,77-14.5,120.5t-49,61.5T283,442ZM170,723L334,577l-24-30L132,675l38,48Z"/>
      <glyph unicode="&#xf3;" glyph-name="gid96" horiz-adv-x="565" d="M283,497q81,0 130-25t70.5-81T505,242T483.5,93T413,12T283-13T153,12T82,93T60,242T82,391t71,81t130,25Zm0-55q-59,0-93-18t-48.5-61.5T127,242q0-76 14.5-120T190,60t93-18q58,0 92.5,18t49,62T439,242q0,77-14.5,120.5t-49,61.5T283,442ZM385,728l38-49L245,552l-24,30L385,728Z"/>
      <glyph unicode="&#xf4;" glyph-name="gid97" horiz-adv-x="565" d="M283,497q81,0 130-25t70.5-81T505,242T483.5,93T413,12T283-13T153,12T82,93T60,242T82,391t71,81t130,25Zm0-55q-59,0-93-18t-48.5-61.5T127,242q0-76 14.5-120T190,60t93-18q58,0 92.5,18t49,62T439,242q0,77-14.5,120.5t-49,61.5T283,442Zm22,265L439,583l-23-28L287,654h-8L149,555l-23,28L259,707h46Z"/>
      <glyph unicode="&#xf5;" glyph-name="gid101" horiz-adv-x="565" d="M283,497q81,0 130-25t70.5-81T505,242T483.5,93T413,12T283-13T153,12T82,93T60,242T82,391t71,81t130,25Zm0-55q-59,0-93-18t-48.5-61.5T127,242q0-76 14.5-120T190,60t93-18q58,0 92.5,18t49,62T439,242q0,77-14.5,120.5t-49,61.5T283,442ZM207,691q23-2 40.5-10.5t33.5-19t33-19T353,631q30-3 41,10.5T405,686h32q4-52-18-79t-59-24q-34,3-57.5,17t-44,28T213,644q-29,3-40-11.5T162,586H130q-3,36 6.5,60.5t28,35.5t42.5,9Z"/>
      <glyph unicode="&#xf6;" glyph-name="gid98" horiz-adv-x="565" d="M283,497q81,0 130-25t70.5-81T505,242T483.5,93T413,12T283-13T153,12T82,93T60,242T82,391t71,81t130,25Zm0-55q-59,0-93-18t-48.5-61.5T127,242q0-76 14.5-120T190,60t93-18q58,0 92.5,18t49,62T439,242q0,77-14.5,120.5t-49,61.5T283,442Zm99,240q19,0 19-19V607q0-19-19-19H361q-19,0-19,19v56q0,19 19,19h21Zm-177,0q19,0 19-19V607q0-19-19-19H183q-18,0-18,19v56q0,19 18,19h22Z"/>
      <glyph unicode="&#xf7;" glyph-name="gid255" horiz-adv-x="577" d="M504,320V271H73v49H504ZM296,176q13,0 19-5.5t6-19.5V98q0-14-6-19.5T296,73H278q-13,0-18.5,5.5T254,98v53q0,14 5.5,19.5T278,176h18Zm0,341q13,0 19-6t6-19V438q0-13-6-18.5T296,414H278q-13,0-18.5,5.5T254,438v54q0,13 5.5,19t18.5,6h18Z"/>
      <glyph unicode="&#xf8;" glyph-name="gid100" horiz-adv-x="565" d="M405,553l32-16L153-70L122-55L405,553ZM283,497q81,0 130-25t70.5-81T505,242T483.5,93T413,12T283-13T153,12T82,93T60,242T82,391t71,81t130,25Zm0-55q-59,0-93-18t-48.5-61.5T127,242q0-76 14.5-120T190,60t93-18q58,0 92.5,18t49,62T439,242q0,77-14.5,120.5t-49,61.5T283,442Z"/>
      <glyph unicode="&#xf9;" glyph-name="gid114" horiz-adv-x="566" d="M144,485V137q-1-50 20.5-72T233,43q45,0 88.5,22T426,128l7-46Q375,35 321,11T212-13Q81-13 81,120V485h63Zm338,0V0H432l-6,91l-7,15V485h63ZM170,728L334,582l-24-30L132,680l38,48Z"/>
      <glyph unicode="&#xfa;" glyph-name="gid111" horiz-adv-x="566" d="M144,485V137q-1-50 20.5-72T233,43q45,0 88.5,22T426,128l7-46Q375,35 321,11T212-13Q81-13 81,120V485h63Zm338,0V0H432l-6,91l-7,15V485h63ZM384,733l38-49L244,557l-24,30L384,733Z"/>
      <glyph unicode="&#xfb;" glyph-name="gid112" horiz-adv-x="566" d="M144,485V137q-1-50 20.5-72T233,43q45,0 88.5,22T426,128l7-46Q375,35 321,11T212-13Q81-13 81,120V485h63Zm338,0V0H432l-6,91l-7,15V485h63ZM305,712L439,588l-23-28L287,659h-8L149,560l-23,28L259,712h46Z"/>
      <glyph unicode="&#xfc;" glyph-name="gid113" horiz-adv-x="566" d="M144,485V137q-1-50 20.5-72T233,43q45,0 88.5,22T426,128l7-46Q375,35 321,11T212-13Q81-13 81,120V485h63Zm338,0V0H432l-6,91l-7,15V485h63ZM382,686q19,0 19-19V611q0-19-19-19H361q-19,0-19,19v56q0,19 19,19h21Zm-177,0q19,0 19-19V611q0-19-19-19H183q-18,0-18,19v56q0,19 18,19h22Z"/>
      <glyph unicode="&#xfd;" glyph-name="gid119" horiz-adv-x="521" d="M498,485L294-34q-12-31-28.5-60T226-147t-53.5-40T102-207l-8,41q60,20 91,55.5T236-27l22,54q8,19 15.5,40.5T288,107L430,485h68ZM90,485L233,106q5-14 10.5-28T253,50h21L253,0H230q-8,0-14.5,4.5T206,17L22,485H90ZM364,731l38-49L224,555l-24,30L364,731Z"/>
      <glyph unicode="&#xfe;" glyph-name="gid104" horiz-adv-x="570" d="M333,497q95,0 134.5-60.5T507,240q0-93-18-148.5t-57-80T331-13Q280-13 229,1.5T129,44l11,41q52-21 92.5-32.5T313,41q47,0 75,19t41,62.5T442,241T429,360t-40.5,62.5T315,441q-41,0-81-19.5T143,364l-12,44q47,42 96.5,65.5T333,497ZM147,700V518q0-28 0-52t-3-51l3-12V59l-3-12q3-28 3-52t0-52V-204H84V700h63Z"/>
      <glyph unicode="&#xff;" glyph-name="gid120" horiz-adv-x="521" d="M498,485L294-34q-12-31-28.5-60T226-147t-53.5-40T102-207l-8,41q60,20 91,55.5T236-27l22,54q8,19 15.5,40.5T288,107L430,485h68ZM90,485L233,106q5-14 10.5-28T253,50h21L253,0H230q-8,0-14.5,4.5T206,17L22,485H90ZM362,684q19,0 19-19V609q0-19-19-19H341q-19,0-19,19v56q0,19 19,19h21Zm-177,0q19,0 19-19V609q0-19-19-19H163q-18,0-18,19v56q0,19 18,19h22Z"/>
      <glyph unicode="&#x2013;" glyph-name="gid208" horiz-adv-x="603" d="M526,277V227H77v50H526Z"/>
      <glyph unicode="&#x2014;" glyph-name="gid209" horiz-adv-x="909" d="M832,277V227H77v50H832Z"/>
      <glyph unicode="&#x2018;" glyph-name="gid221" horiz-adv-x="210" d="M95,508q-13,0-18.5,5.5T71,532v60q1,36 8.5,72T100,730l30-9q-4-29-6-52.5T122,609q19,0 18-20l-1-57q0-13-6-18.5T115,508H95Z"/>
      <glyph unicode="&#x2019;" glyph-name="gid222" horiz-adv-x="207" d="M114,722q13,0 18.5-5.5T138,698V637q-1-35-8.5-71T109,499l-29,9q3,30 5,53.5T87,620q-18,0-18,20l1,58q0,13 6,18.5T95,722h19Z"/>
      <glyph unicode="&#x201a;" glyph-name="gid217" horiz-adv-x="221" d="M121,102q14,0 19.5-5T146,79V18q0-24-4-48T132-77t-16-43l-30,9q4,29 6,52.5T94,1Q75,1 76,21V79q0,13 6.5,18t18.5,5h20Z"/>
      <glyph unicode="&#x201c;" glyph-name="gid219" horiz-adv-x="348" d="M95,508q-13,0-18.5,5.5T71,532v60q1,36 8.5,72T100,730l30-9q-4-29-6-52.5T122,609q19,0 18-20l-1-57q0-13-6-18.5T115,508H95Zm139,0q-13,0-18,5.5T210,532l1,60q1,36 8,72t20,66l30-9q-4-29-6-52.5T261,609q19,0 18-20V532q-1-13-7-18.5T254,508H234Z"/>
      <glyph unicode="&#x201d;" glyph-name="gid220" horiz-adv-x="346" d="M253,722q14,0 19-5.5t5-18.5V637q-1-35-8-71t-21-67l-29,9q4,30 5.5,53.5T226,620q-18,0-17,20v58q0,13 6,18.5t19,5.5h19Zm-139,0q13,0 18.5-5.5T138,698V637q-1-35-8.5-71T109,499l-29,9q3,30 5,53.5T87,620q-18,0-18,20l1,58q0,13 6,18.5T95,722h19Z"/>
      <glyph unicode="&#x201e;" glyph-name="gid218" horiz-adv-x="360" d="M259,102q14,0 19-5t6-18l-1-61q-1-36-8-72t-20-66l-30,9q4,29 6,52.5T233,1q-19,0-18,20V79q1,13 7,18t18,5h19Zm-139,0q14,0 19-5t6-18l-1-61q-1-36-8-72t-20-66l-30,9q4,29 5.5,52.5T93,1Q75,1 76,21V79q0,13 6,18t19,5h19Z"/>
      <glyph unicode="&#x2022;" glyph-name="gid200" horiz-adv-x="359" d="M186,351q43,0 59.5-17T262,274V263q0-45-16.5-62T186,184H175q-45,0-62,17T96,263v11q0,43 17,60t62,17h11Z"/>
      <glyph unicode="&#x2039;" glyph-name="gid225" horiz-adv-x="264" d="M192,457l33-23L91,251L226,64L193,41L31,243v16L192,457Z"/>
      <glyph unicode="&#x203a;" glyph-name="gid226" horiz-adv-x="265" d="M71,457L233,259V243L70,41L38,64L172,251L39,434l32,23Z"/>
    </font>
</defs>
</svg>
