<?xml version="1.0" standalone="no"?>
<!DOCTYPE svg PUBLIC "-//W3C//DTD SVG 1.1//EN" "http://www.w3.org/Graphics/SVG/1.1/DTD/svg11.dtd">
<svg xmlns="http://www.w3.org/2000/svg">
  <defs>
    <font id="Exo2" horiz-adv-x="507">
      <font-face font-family="Exo 2" units-per-em="1000" panose-1="0 0 0 0 0 0 0 0 0 0" ascent="999" descent="-201" alphabetic="0"/>
      <glyph unicode=" " glyph-name="gid185" horiz-adv-x="223"/>
      <glyph unicode="!" glyph-name="gid195" horiz-adv-x="271" d="M234,695L191,389L158,211H91l16,178l43,306h84ZM121,118q17,0 24-8t4-25l-7-55q-2-15-10-22.5T109,0H86Q52,0 56,33l8,56q4,29 34,29h23Z"/>
      <glyph unicode="&quot;" glyph-name="gid227" horiz-adv-x="350" d="M337,690L302,475H243l25,215h69Zm-144,0L157,475H99l25,215h69Z"/>
      <glyph unicode="#" glyph-name="gid202" horiz-adv-x="682" d="M616,690L399,0H332L549,690h67ZM593,268l-17-55H31l18,55H593ZM365,690L148,0H81L298,690h67ZM669,503l-19-55H106l19,55H669Z"/>
      <glyph unicode="$" glyph-name="gid243" horiz-adv-x="564" d="M334,702q50-1 102.5-5T538,682l-10-64q-33,2-65.5,3T398,622.5T331,623q-34,0-60-1.5T226,611t-31-30.5T178,520q-4-34 0.5-54t21-31.5T247,411l135-50q52-19 79-44.5t34.5-62T496,167Q486,92 456.5,53.5T374,1.5T239-12q-31,0-86,3T29,7L40,72q59-2 95-3.5T194.5,67T239,67q58,0 92.5,7.5T384,105t24,71q5,36 0,55.5T386.5,263T339,286L201,337q-48,18-75,44.5t-35,63T90,529q8,58 27.5,92.5t50.5,52t72.5,23T334,702ZM274,353l41-2L212-127H170L274,353ZM417,799L321,351l-41,2l95,446h42Z"/>
      <glyph unicode="%" glyph-name="gid264" horiz-adv-x="894" d="M758,690L214,0H148L692,690h66ZM259,649q-41,0-64.5-15t-36-49T138,495q-7-55-3.5-87.5t21-46.5T207,347q42,0 65.5,15T309,411t20,90q8,55 5,87.5T313,635t-54,14Zm-2,54q61,0 94.5-21.5t43-67T394,495q-10-72-31-116.5t-57.5-65T210,293q-60,0-93.5,21.5T73.5,382T74,501q11,73 31.5,117t57,64.5T257,703ZM700,346q-41,0-64.5-15t-36-49T579,191q-7-55-4-87.5T595.5,57T648,43q42,0 65.5,15T750,107.5T770,198q8,55 5,87.5T754,332t-54,14Zm-2,54q61,0 94.5-21.5t43-67.5T834,191q-10-72-31-116T745.5,10.5T650-10q-60,0-93.5,21.5T514,79t1,119t30.5,117T603,379.5T698,400Z"/>
      <glyph unicode="&amp;" glyph-name="gid230" horiz-adv-x="755" d="M380,700q41,0 80.5-4T549,679l-15-66q-32,8-72.5,11.5T382,628q-59,0-95-9t-55-35t-27-77q-7-46 2-71.5t38.5-35T326,391H727l-11-67H317q-57,0-93.5-11.5t-57-41T137,186q-6-36-2.5-59.5t16.5-37t36-19T244,65q86,0 142,29t90,80q44,62 55.5,150T541,520h78q2-119-13-214T547,141q-31-51-76-84.5T368,6.5T238-11Q162-11 116.5,7t-63,59.5T44,178q8,56 28.5,94.5t56,59.5T216,356l1,5q-43,3-67.5,23T118,439.5t1,84.5q13,75 45.5,112.5t86,50.5T380,700Z"/>
      <glyph unicode="&apos;" glyph-name="gid228" horiz-adv-x="206" d="M193,690L157,475H99l25,215h69Z"/>
      <glyph unicode="(" glyph-name="gid211" horiz-adv-x="356" d="M383,791l10-42Q287,700 225,593.5T139,310q-16-111-8.5-196T171-30.5T265-125l-11-39Q126-111 77.5,7.5T56,317T161.5,623.5T383,791Z"/>
      <glyph unicode=")" glyph-name="gid212" horiz-adv-x="356" d="M108,789q128-51 177.5-168.5T307,307Q279,117 200.5,2T-21-166l-9,42Q77-72 138.5,37.5T224,316q16,112 8.5,197.5T192,658.5T97,750l11,39Z"/>
      <glyph unicode="*" glyph-name="gid201" horiz-adv-x="448" d="M306,691L274,530l84-129l-43-30L254,494L160,372l-40,31L239,530l14,161h53ZM108,601l117-46l-3-22l-13-14L88,553l20,48Zm313,0l11-52L303,519l-9,14l1,22l126,46Z"/>
      <glyph unicode="+" glyph-name="gid252" horiz-adv-x="547" d="M337,507L278,90H213l58,417h66ZM498,331l-9-64H51l9,64H498Z"/>
      <glyph unicode="," glyph-name="gid191" horiz-adv-x="227" d="M104,118q17,0 23.5-7.5T131,85l-9-64q-3-25-11-51.5T91.5-83T66-133L24-118Q34-88 42-61T57,2Q43,1 36.5,8.5T31,29l8,59q4,17 11.5,23.5T78,118h26Z"/>
      <glyph unicode="-" glyph-name="gid207" horiz-adv-x="447" d="M374,285l-8-65H61l9,65H374Z"/>
      <glyph unicode="." glyph-name="gid190" horiz-adv-x="225" d="M101,118q18,0 24.5-8T130,85l-7-55q-2-15-10-22.5T89,0H61Q27,0 31,33l8,56q4,29 34,29h28Z"/>
      <glyph unicode="/" glyph-name="gid203" horiz-adv-x="524" d="M551,690L52-66H-21L478,690h73Z"/>
      <glyph unicode="0" glyph-name="gid131" horiz-adv-x="601" d="M266-13q-69,0-115,24T82.5,85.5T60,213q0,64 7.5,133T93,478.5t51,114T227,673t122,30q71,0 116.5-24t68-73.5T556,479q0-67-6.5-137T525,208.5T474.5,95T391,16T266-13Zm4,77q58,0 95,27t59,72t32,99.5T469,373t3,103q0,81-32,115.5T343,626q-55,0-91-27t-58-72t-32.5-99.5T147.5,317T144,214q0-81 31.5-115.5T270,64Z"/>
      <glyph unicode="1" glyph-name="gid132" horiz-adv-x="395" d="M339,690L242,0H155l77,549q2,15 5,30t7,30L68,554l-2,65l185,71h88Z"/>
      <glyph unicode="2" glyph-name="gid133" horiz-adv-x="557" d="M322,702q58,0 102.5-9.5t70-36.5T520,577q0-54-20.5-100.5T443,387t-81-87L136,81q26,2 54,3t53,1H478L466,0H13l8,57q2,11 5,20.5T36,94L269,320q42,40 79,81.5t59.5,83T430,566q0,26-13.5,38.5t-39.5,16T315,624q-33,0-63-1t-63-4.5T112,608l-1,68q49,11 85,16.5t66.5,7.5t59.5,2Z"/>
      <glyph unicode="3" glyph-name="gid134" horiz-adv-x="550" d="M309,703q107,0 151.5-34T505,567q0-46-14-91t-42-76t-69-35l-1-4q50-9 75.5-41.5T480,235q0-77-31-131.5T359,19T215-13q-43-1-94,3.5T14,5L25,73q34-2 65-5t61-4t58,2q89,6 136,50t47,121q0,25-11,45.5t-37,33T273,328l-130,2l9,67H278q74,1 108.5,41.5T421,556q0,41-27.5,55T290,625q-37,0-85.5-2.5T119,617l-3,68q55,9 104,13.5t89,4.5Z"/>
      <glyph unicode="4" glyph-name="gid135" horiz-adv-x="610" d="M384,690L134,280q-12-19-7-29t23-10H561l-9-63l-93-9H110q-34,0-54.5,17.5T31.5,231T45,284L295,690h89ZM516,558L438,0H355l62,444l32,114h67Z"/>
      <glyph unicode="5" glyph-name="gid136" horiz-adv-x="533" d="M515,690l-15-75H210L174,427l71-6q71-5 121-22.5T442,345t26-96q0-118-66-186.5T215-12q-41-2-92.5,3.5T16,13L32,84q45-11 87-15.5T196,66q90,5 138.5,49.5T383,247q0,39-19.5,60.5T302,338T192,350l-65,5q-17,2-27.5,14.5T93,400l56,290H515Z"/>
      <glyph unicode="6" glyph-name="gid137" horiz-adv-x="569" d="M254-12Q187-12 145,5.5t-63,57t-23,105T70,328q17,118 41.5,192t61,113.5t86.5,54T376,702q14,0 39-0.5t55-3.5t56-11l-17-64q-21,2-41.5,3t-43,1T372,627q-47,0-81.5-12t-60-44T187,479.5T156,325q-10-73-13.5-123t6-80.5t37-44.5T265,63q59,0 95,28t52,78.5T428,286q0,45-19,68.5T330,378q-52,0-101.5-26.5T119,258l-1,57q39,50 74,79.5T265,437t85,13q83,0 122-37t39-104q0-100-26.5-172t-83-110.5T254-12Z"/>
      <glyph unicode="7" glyph-name="gid138" horiz-adv-x="510" d="M481,690q32,0 42-16.5T519,628L216,0H128L401,566q7,13 14,26t15,25L84,615l6,75H481Z"/>
      <glyph unicode="8" glyph-name="gid139" horiz-adv-x="606" d="M354,700q89,0 135-20t59.5-60.5T553,515q-6-44-20.5-78T494,383t-61-24l-2-4q42-4 64-28t27-64t-3-94q-8-62-32.5-101.5T410,9.5T265-10Q178-10 128,9.5T60,70T51,175q8,53 23,92.5t42.5,63T189,358l2,4q-50,6-68,48t-8,111q9,63 32,102.5T219,682t135,18ZM306,323q-46,0-76-5.5T181.5,298t-29-40.5T136,187q-6-46 2-72.5t40-38T273,65q60,0 94,12.5T417,118t22,76q6,40 3.5,65.5t-17,39t-43.5,19T306,323Zm42,306q-59,0-90-11.5t-44.5-38T193,507q-6-46 1.5-71T232,402t88-9q43,0 70.5,5.5t43.5,19T458.5,454T472,513q7,44 0,69.5t-35.5,36T348,629Z"/>
      <glyph unicode="9" glyph-name="gid140" horiz-adv-x="569" d="M333,702q68,0 110-18.5T505.5,624t21-108.5T512,350q-18-113-42.5-184.5T409,55.5t-86.5-53T202-12q-28,0-68.5,3T47,4L60,68q22-2 44.5-3t46-1.5T197,63q58,2 96.5,15.5t63,46T397,214t31,145q13,76 16.5,127.5T438,569t-36.5,44.5T327,627q-57,0-90.5-17.5t-50-54T162,461q-7-54-0.5-87.5t31-48.5T262,310q36,1 65.5,12t62,37.5T464,432l1-53q-37-52-71-82.5t-69.5-43T245,240q-55-1-90.5,15.5t-54,47T78,375t2,93q8,63 26.5,108t50,72.5T232,689t101,13Z"/>
      <glyph unicode=":" glyph-name="gid192" horiz-adv-x="235" d="M150,440q18,0 24.5-8t4.5-25l-7-55q-2-15-10-22.5T138,322H110q-34,0-30,33l8,56q4,29 34,29h28ZM105,118q18,0 24.5-8T134,85l-7-55q-2-15-10-22.5T93,0H65Q31,0 35,33l8,56q4,29 34,29h28Z"/>
      <glyph unicode=";" glyph-name="gid193" horiz-adv-x="239" d="M151,440q18,0 24.5-8t4.5-25l-7-55q-2-15-10-22.5T139,322H111q-34,0-30,33l8,56q4,29 34,29h28ZM111,118q17,0 23.5-7.5T138,85l-9-64q-3-25-11-51.5T98.5-83T73-133L31-118Q41-88 49-61T64,2Q50,1 43.5,8.5T38,29l8,59q4,17 11.5,23.5T85,118h26Z"/>
      <glyph unicode="&lt;" glyph-name="gid258" horiz-adv-x="526" d="M487,504l-10-71L125,296L438,158l-9-66L47,264l9,68L487,504Z"/>
      <glyph unicode="=" glyph-name="gid256" horiz-adv-x="586" d="M531,430l-9-63H84l9,63H531ZM502,219l-9-64H55l9,64H502Z"/>
      <glyph unicode="&gt;" glyph-name="gid257" horiz-adv-x="526" d="M99,506L481,332l-10-68L41,93l9,72L402,302L89,440l10,66Z"/>
      <glyph unicode="?" glyph-name="gid197" horiz-adv-x="499" d="M308,712q98,0 147-39t38-119q-6-45-28.5-77.5t-53-59.5T350,362t-55-64.5T262,209l-72,1q7,55 29,95t51,70.5T327.5,432T377,485t25,61q8,54-18,74t-94,20q-51,0-83-1t-58-3.5T89,630l-1,61q26,5 48,8.5t45,6.5t53.5,4.5T308,712ZM222,118q18,0 25-8t5-25l-8-55q-1-15-9.5-22.5T211,0H188q-34,0-30,33l8,55q5,30 34,30h22Z"/>
      <glyph unicode="@" glyph-name="gid229" horiz-adv-x="772" d="M430,642q98,1 158.5-10T678,587.5t33-99T700,314q-12-96-27.5-158.5t-39-98T575,7T490-8Q454-8 431,2.5t-35.5,30T380,79.5t2,60.5l45,288h83L462,114q-3-27 5-38.5T497,64q29,0 48.5,13t33,42t23,79T621,321t12.5,120T627,514.5T594.5,553t-64,15T428,571H111l7,63q50,3 103,4.5T327,641t103,1ZM295,451q53,0 104-6t111-17l-37-51q-61,3-94.5,4T324,382q-51,0-83-6t-51.5-22.5t-30.5-48T139,222q-10-61-8.5-96.5t18-50.5T199,60q54,0 101.5,34T408,197l17-41q-30-43-64.5-81.5T282.5,12T181-12q-42,0-71,14.5t-44,44t-17,75T57,229q12,72 31.5,116T137,412t68,31t90,8Z"/>
      <glyph unicode="A" glyph-name="gid1" horiz-adv-x="619" d="M412,690q12,0 20.5-7.5T442,664L571,0H483L384,564q-2,15-4,30t-4,29H346q-6-13-13-29t-13-30L63,0H-30L286,667q4,12 13,17.5t21,5.5h92Zm74-398l-10-77H126l10,77H486Z"/>
      <glyph unicode="B" glyph-name="gid10" horiz-adv-x="618" d="M363,698q82,0 131.5-16t68-56T571,515q-10-73-42-111.5T433,359l-1-4q77-7 100.5-56.5T544,169Q533,98 506.5,59.5t-75-53T305-8Q245-8 201.5-7.5T121.5-5T45,0L67,70q23-1 83-2t142-1q57,0 91,10t51.5,37T458,190q8,53-1.5,81.5t-40,40T329,324H104l10,67H333q50,1 81.5,11T463,438t23,73q7,47-3,71t-40,32.5T359,623q-50,0-90,0t-69.5,0T150,621l-8,69q35,4 67,5.5t68.5,2T363,698Zm-135-8L131,0H45l97,690h86Z"/>
      <glyph unicode="C" glyph-name="gid11" horiz-adv-x="566" d="M383,702q45,0 77-2t58-6.5T571,681l-14-66q-29,3-54.5,5T449,623t-67,1q-51,0-87.5-13T232,567t-43.5-86T160,342q-15-105-7.5-165t42-85T294,66q66,0 110,3t87,8l5-67Q451-2 405-7T293-12q-99,0-154.5,37.5t-72,117T68,348q14,98 37.5,166t60,109.5t90,60T383,702Z"/>
      <glyph unicode="D" glyph-name="gid13" horiz-adv-x="662" d="M368,699q106,0 165-33.5T609.5,554T608,342q-16-112-41.5-181.5t-64-106t-95-50T274-9Q222-9 161-6.5T45,0L91,72q41-1 93-2.5T273,68q59,0 100,11t68.5,41t45,85T517,348q12,85 10.5,139T509,570.5t-52,41T366,623q-24,0-59-0.5t-71-1T174,620l-32,70q34,3 75,5t80.5,3t70.5,1Zm-138-9L133,0H45l97,690h88Z"/>
      <glyph unicode="E" glyph-name="gid15" horiz-adv-x="558" d="M264,691q51,0 102,0t100.5-1.5T562,685l-12-69H275q-34,0-50-16t-21-52L148,139q-5-34 8-49.5T203,74H473L471,5q-44-3-91-4T285.5-0.5T192-1Q116-1 82.5,36T58,137l61,436q8,56 44.5,87T264,691ZM113,398H480l-9-68H103l10,68Z"/>
      <glyph unicode="F" glyph-name="gid20" horiz-adv-x="537" d="M268,691q74,0 148-1t140-6l-12-68H287q-38,0-56-14.5T208,548L131,0H43l79,569q9,59 47,90.5T268,691ZM114,387H474l-10-67l-360-1l10,68Z"/>
      <glyph unicode="G" glyph-name="gid21" horiz-adv-x="624" d="M395,703q35,0 68.5-2t66.5-7t63-13l-13-65q-31,3-62,5t-59.5,2.5T406,624q-60,0-102-12t-70-42t-45.5-85.5T160,342q-11-102-5-163t33-87.5T267,65q38,0 69,13t61.5,37.5T462,174l9-59q-24-30-49.5-53.5T368,21T307.5-4.5T238-13q-72,0-114.5,37.5T67.5,142T68,348q14,108 40.5,177.5t67,108t95,54T395,703ZM573,400L516,0H453l2,108l-5,20l38,272h85Z"/>
      <glyph unicode="H" glyph-name="gid22" horiz-adv-x="666" d="M231,690L134,0H45l97,690h89ZM519,406l-10-76H172l11,76H519ZM636,690L539,0H452l97,690h87Z"/>
      <glyph unicode="I" glyph-name="gid23" horiz-adv-x="261" d="M231,690L134,0H45l97,690h89Z"/>
      <glyph unicode="J" glyph-name="gid28" horiz-adv-x="339" d="M312,690L234,143Q224,68 185.5,29.5T84-9Q70-9 52.5-7t-34,5T-9,4L8,66H55q40,0 63.5,20T147,143l76,547h89Z"/>
      <glyph unicode="K" glyph-name="gid29" horiz-adv-x="593" d="M618,690L378,404q-10-12-21-23t-26-21v-4q9-10 17.5-23.5T364,306L534,0H434L236,362L511,690H618Zm-388,0L199,473q-4-31-10.5-58T171,358q2-28 1-55.5T167,249L133,0H45l97,690h88Zm60-295l-10-71H148l9,71H290Z"/>
      <glyph unicode="L" glyph-name="gid30" horiz-adv-x="509" d="M228,690L151,139q-4-30 8-47.5T206,74H456L454,5Q389,1 320.5,0T187-1q-42,0-72.5,16t-44,48T64,142l75,548h89Z"/>
      <glyph unicode="M" glyph-name="gid31" horiz-adv-x="876" d="M791,690q18,0 27-10.5t7-28.5L762,0H674l64,617H718L493,107q-6-15-15.5-22T452,78H373q-16,0-25,8.5T336,110L249,617H229L119,0H32L151,655q3,17 12.5,26t26.5,9h97q14,0 22.5-8.5T320,658l74-420q5-24 7.5-47.5T407,144h19q10,25 19.5,48T465,237L652,661q7,15 16.5,21.5T693,689l98,1Z"/>
      <glyph unicode="N" glyph-name="gid32" horiz-adv-x="703" d="M673,690L580,33q-2-17-10-25T545,0H465q-15,0-23,8T429,30L256,519q-7,19-14.5,43.5T229,608H212q-1-22-3-45t-5-46L133,0H45l92,657q3,17 12,25t25,8h78q15,0 23-8t13-22L456,184q8-22 16.5-48.5T488,84h19q2,26 4,51t6,50l69,505h87Z"/>
      <glyph unicode="O" glyph-name="gid34" horiz-adv-x="666" d="M387,703q95,0 151.5-35T613,554t-1-212q-13-100-37-168.5T514.5,64t-90-59T297-13q-95,0-152,34T69,134T68,348q14,98 37,165.5T165,623t91.5,61T387,703Zm-5-79q-70,0-113.5-25.5t-68.5-87T160,342q-14-105-6.5-165T196,91.5T299,66q69,0 112,26t69,87.5T521,348q16,108 8,168t-43.5,84T382,624Z"/>
      <glyph unicode="P" glyph-name="gid42" horiz-adv-x="588" d="M376,699q80,0 127-21t63.5-69T571,480q-12-88-39.5-134T455,283.5T327,267q-38,0-75,2.5t-68.5,6t-54,7.5T98,290l6,53q53,0 109.5,0T324,343q55,0 86.5,12.5T459,399t25,88q8,55-0.5,84.5T448,612t-75,11q-83,0-143-1t-81-3l-7,71q38,4 71,6t71,2.5t92,0.5Zm-146-9L133,0H45l97,690h88Z"/>
      <glyph unicode="Q" glyph-name="gid44" horiz-adv-x="666" d="M387,703q95,0 151.5-35T613,554t-1-212q-13-100-37-168.5T514.5,64t-90-59T297-13q-95,0-152,34T69,134T68,348q14,98 37,165.5T165,623t91.5,61T387,703ZM242-44q56-28 120-47t137-30l-35-88q-78,18-141.5,47.5T208-96l34,52ZM382,624q-70,0-113.5-25.5t-68.5-87T160,342q-14-105-6.5-165T196,91.5T299,66q69,0 112,26t69,87.5T521,348q16,108 8,168t-43.5,84T382,624Z"/>
      <glyph unicode="R" glyph-name="gid45" horiz-adv-x="618" d="M376,699q72,0 120-18t69.5-62T576,496q-7-52-25-89t-49.5-58T422,322l-1-5q19-5 33.5-18T479,265.5T494,216L538,0H448L407,218q-7,39-26,54.5T329,288q-63,1-107.5,1.5t-74,1T98,291l11,73H330q51,1 82.5,13T462,418t25,81q7,48-1,75t-35,38t-77,11q-85,0-144.5-1T149,621l-7,69q38,4 72.5,6t73,2.5T376,699Zm-148-9L131,0H45l97,690h86Z"/>
      <glyph unicode="S" glyph-name="gid46" horiz-adv-x="560" d="M331,702q50-1 102.5-5T535,682l-9-64q-34,2-66.5,3T395,622.5T329,623t-60.5-1.5T223,611t-31-30.5T175,520q-4-34 0.5-54t21-31.5T244,411l135-50q52-19 79-44.5t34.5-62T493,167Q483,92 453.5,53.5T371,1.5T236-12q-31,0-86,3T26,7L37,72q59-2 95-3.5T192,67t45,0q57,0 91.5,7.5T381,105t24,71q5,36 0,55.5T383.5,263T336,286L199,337q-48,18-75,44.5t-35,63T87,529q8,58 27.5,92.5t50.5,52t72.5,23T331,702Z"/>
      <glyph unicode="T" glyph-name="gid47" horiz-adv-x="573" d="M386,690L289,0H201l97,690h88Zm222,0l-10-78H65l11,78H608Z"/>
      <glyph unicode="U" glyph-name="gid48" horiz-adv-x="664" d="M639,690L579,263q-14-100-47-161T442,14T298-13q-88,0-142,28T82.5,104.5T78,267l58,423h89L165,263q-10-74-1.5-117.5T204,84t92-18q61,0 100.5,19t62,63.5T492,267l58,423h89Z"/>
      <glyph unicode="V" glyph-name="gid53" horiz-adv-x="605" d="M645,690L340,23Q331,0 306,0H218q-12,0-20,8T188,27L69,690h89l87-548q3-19 6-38t4-38h26q7,19 15,39.5T312,145L552,690h93Z"/>
      <glyph unicode="W" glyph-name="gid54" horiz-adv-x="943" d="M969,690L734,24q-4-12-13-18T698,0H600q-13,0-22,8T568,29L532,548q-1,20-3,38.5T526,624H505q-7-19-13.5-40T478,544L299,25q-4-12-13.5-18.5T263,0H166q-13,0-22.5,8T133,28L83,690h90l32-539q2-20 2-41.5T208,65h24q8,23 15,45.5T261,154L438,662q8,28 36,28h95q13,0 21-9t9-22l41-509q2-21 3-42.5T644,65h25q6,21 13,43.5T696,152L877,690h92Z"/>
      <glyph unicode="X" glyph-name="gid55" horiz-adv-x="609" d="M184,690L317,349L84,0H-18L228,357L94,690h90ZM372,392l-10-68H256l10,68H372ZM630,690L400,357L545,0H455L311,367L533,690h97Z"/>
      <glyph unicode="Y" glyph-name="gid56" horiz-adv-x="565" d="M609,690L312,234H233L64,690h90L258,397q6-18 11.5-38t8.5-40h8q7,19 18.5,41.5T327,400L513,690h96ZM324,296L283,0H194l43,296h87Z"/>
      <glyph unicode="Z" glyph-name="gid58" horiz-adv-x="562" d="M459,616l97-1L112,74L16,75L459,616ZM487,75L476,0H6L16,75H487Zm80,615l-11-75H97l11,75H567Z"/>
      <glyph unicode="[" glyph-name="gid215" horiz-adv-x="325" d="M352,768l-8-56H246q-7,0-13-5t-7-13L115-95q-2-14 10-14H229l-8-56H81q-23,0-37.5,13.5T33-110L149,716q3,24 19,38t40,14H352Z"/>
      <glyph unicode="\" glyph-name="gid204" horiz-adv-x="508" d="M146,690L435-66H368L79,690h67Z"/>
      <glyph unicode="]" glyph-name="gid216" horiz-adv-x="325" d="M245,768q24,0 38.5-16T294,713L178-113q-3-23-19.5-37.5T119-165H-25l7,56H80q7,0 13.5,5.5T101-91L212,698q2,14-11,14H98l8,56H245Z"/>
      <glyph unicode="^" glyph-name="gid262" horiz-adv-x="426" d="M294,601L417,389l-37-21L263,542h-8L84,368L50,390L232,601h62Z"/>
      <glyph unicode="_" glyph-name="gid210" horiz-adv-x="438" d="M404,0L394-65H-44L-34,0H404Z"/>
      <glyph unicode="`" glyph-name="gid274" horiz-adv-x="314" d="M125,723L295,576l-31-38L79,663l46,60Z"/>
      <glyph unicode="a" glyph-name="gid60" horiz-adv-x="573" d="M294,499q26,0 55.5-1.5t59.5-5t59.5-7.5t54.5-9l-38-53q-55,2-98.5,3.5T320,428q-50,0-82-6.5T187,396t-30.5-56T136,242q-10-73-8.5-112t18-53.5T195,62q36,0 71.5,15.5t73.5,46T419,197l17-41q-25-45-64.5-83T283,11.5T178-12q-58,0-90.5,24.5T46,94.5T51,249q12,82 32,132t49.5,75.5t69.5,34t92,8.5Zm143-23h86L456,0H389l7,115l-9,8l50,353Z"/>
      <glyph unicode="b" glyph-name="gid68" horiz-adv-x="573" d="M380,499q56,0 89-22.5t43-79T508,238q-12-83-32-133T427.5,29.5T361-4.5T275-13q-28,0-59,2.5T153.5-3T92.5,8.5T37,23L77,67q36-3 68.5-5t58-3T244,58q49,0 80,6.5t49,26T402,147t19,97q11,75 8.5,114t-19,53T360,425q-38,0-95.5-33.5T140,295l-17,38q20,27 50,56.5t65,54t71.5,40T380,499ZM216,700L189,498q-5-34-11-62.5T162,377l7-12L121,19L37,23l95,677h84Z"/>
      <glyph unicode="c" glyph-name="gid69" horiz-adv-x="484" d="M308,499q35,0 78.5-5T464,475l-14-53q-32,3-68.5,4T322,427q-59,0-97-15t-59-55T135,240q-10-75-1-113.5T174,74t87-14q16,0 40.5,1T354,64t53,6l6-58Q375,0 331-6t-85-6q-85,0-133.5,26t-64,83T46,247q14,93 43.5,148.5T172,475t136,24Z"/>
      <glyph unicode="d" glyph-name="gid71" horiz-adv-x="572" d="M285,499q53,0 114-6.5T508,476l-23-51q-55,2-98.5,3T317,429q-49,0-80.5-6.5T186,397t-30-56t-20-99q-10-70-8.5-109T144,78t48-16q53,0 105,33.5T418,197l17-41q-18-26-45-55T328.5,46t-75-42T168-12q-49,0-80,24.5t-41,82T50,249q12,82 32,131.5t49,75T198,490t87,9ZM553,700L455,0H388l7,110l-8,7l47,345l9,16q0,26 2,50t6,52l17,120h85Z"/>
      <glyph unicode="e" glyph-name="gid73" horiz-adv-x="537" d="M314,499q77,0 119-17.5T489.5,429t5.5-86q-8-47-29.5-75T406,226t-96-19L73,185l9,64l227,22q33,3 53.5,10.5t32,24T411,350q6,37-5,53.5T369,424t-66,4t-68-7t-47-25.5T157,343t-21-89q-12-81-1-123t42.5-56.5T260,60q27,0 58.5,1.5T381,66t58,6l6-57Q420,5 384-1T311.5-9.5T246-12q-84,0-131.5,28.5t-63,88T48,255q10,72 29,119.5T127,449t77,38.5T314,499Z"/>
      <glyph unicode="f" glyph-name="gid78" horiz-adv-x="377" d="M312,717q17,0 42-0.5t51-2t45-4.5l-13-63H339q-48,0-70.5-17T238,563L150-60q-9-67-46.5-104T-4-201q-22,0-51.5,1.5T-120-194l13,64h76q47,0 69,16.5T67-47l87,623q10,68 48.5,104.5T312,717Zm71-230l-10-67H45l8,62l93,5H383Z"/>
      <glyph unicode="g" glyph-name="gid79" horiz-adv-x="575" d="M440,476h86L458,9q-6-49-25-89t-52.5-69t-83-44.5T181-211q-13,0-42.5,0.5t-63,4.5T15-195l9,57q21-1 43-1.5t50-0.5t65,1q71,2 124,31T372-8q8,35 15.5,67T412,118l-23,10l51,348ZM286,499q38,0 80-3t83-8t75-12l-38-53q-55,2-98.5,3.5T318,428q-49,0-80-6.5T188,396t-30-56t-20-98q-11-72-9.5-111t18-54T196,62q36,0 71.5,15.5t73,45.5T420,197l18-39q-25-45-65-83.5T283,12T176-12q-52,0-85,23.5T47.5,92T52,249q12,83 32,132.5t49,75t67,34t86,8.5Z"/>
      <glyph unicode="h" glyph-name="gid80" horiz-adv-x="578" d="M400,499q61,0 92.5-34T515,364L463,0H378l49,343q6,48-6,66t-47,18q-48,0-98-30.5T157,311l1,63q69,62 127.5,93.5T400,499ZM219,700L192,504q-5-40-13.5-80.5T162,360l6-14L120,0H35l99,700h85Z"/>
      <glyph unicode="i" glyph-name="gid81" horiz-adv-x="246" d="M192,487L124,0H40l68,487h84Zm5,207q14,0 20-8t4-20l-7-57q-4-24-28-24H147q-28,0-25,28l8,56q3,25 27,25h40Z"/>
      <glyph unicode="j" glyph-name="gid88" horiz-adv-x="246" d="M192,487L122-14q-5-39-21-74.5T60.5-153T5-204l-46,39q34,35 53,71.5T38-10l70,497h84Zm5,207q14,0 20-8t4-20l-7-57q-4-24-28-24H147q-28,0-25,28l8,56q3,25 27,25h40Z"/>
      <glyph unicode="k" glyph-name="gid90" horiz-adv-x="521" d="M219,700L174,362q-4-34-12.5-63.5T140,236q2-10 5-19t5-18L120,0H36l98,700h85ZM497,487q-24-73-65-124.5T339.5,275T233,213.5T128,166l-6,71q65,27 124.5,64t103,84T410,487h87ZM322,284q11-16 21-34t18-36L457,0H366L255,258l67,26Z"/>
      <glyph unicode="l" glyph-name="gid91" horiz-adv-x="293" d="M220,700L140,132q-5-34 8-48.5T195,69h49l3-66q-9-4-26-6.5t-34-4T159-9Q103-9 74,24T53,117l82,583h85Z"/>
      <glyph unicode="m" glyph-name="gid92" horiz-adv-x="872" d="M169,487l-7-126l6-15L120,0H35l69,487h65Zm207,12q64,0 93-36.5T489,364L438,0H356l48,343q6,44-6.5,64T345,427q-26,0-52-11.5T235,379t-78-67l-1,62q62,64 115,94.5T376,499Zm319,0q65,0 94-36.5T809,364L758,0H674l48,343q6,48-9,66t-50,18q-25,0-50-11t-56.5-35.5T479,313l-1,61q62,65 113.5,95T695,499Z"/>
      <glyph unicode="n" glyph-name="gid93" horiz-adv-x="578" d="M400,499q41,0 68.5-15t40-45t6.5-75L463,0H378l49,343q6,48-6,66t-47,18q-48,0-98-30.5T157,312l1,62q69,62 127.5,93.5T400,499ZM172,487l-8-126l4-15L120,0H35l69,487h68Z"/>
      <glyph unicode="o" glyph-name="gid95" horiz-adv-x="564" d="M307,499q82,0 130-25.5T501.5,391T504,239q-13-92-42.5-147.5t-82-80T245-13q-81,0-129.5,25.5T50,95T46,246q13,92 42.5,147.5T171,474t136,25Zm0-72q-54,0-88-16t-53.5-56.5T135,239q-10-69-3.5-108.5t34-55.5T245,59q55,0 89,17t53.5,58T417,246t3.5,110t-34,55T307,427Z"/>
      <glyph unicode="p" glyph-name="gid103" horiz-adv-x="575" d="M384,499q57,0 89.5-23.5t41-80T509,238q-12-82-31.5-132T429,30.5T360.5-4T271-13q-24,0-52.5,2T161-6T104,1.5T52,11L75,62q56-2 99.5-3.5T240,57q50,0 82,6.5t51,26T403,146t20,98q11,74 9,113t-18,53.5T365,425q-25,0-61.5-16T225,363t-84-73l-16,40q19,29 49,58.5T240,443t73.5,40.5T384,499ZM172,487l-7-110l8-8L126,25L117,8q-1-26-2-49.5T109-93L92-203H6l99,690h67Z"/>
      <glyph unicode="q" glyph-name="gid105" horiz-adv-x="570" d="M278,499q30,0 62-2.5t63.5-7t61-10.5T520,465l-39-45q-36,4-68,5.5T355,428t-44,1q-47,0-77.5-6.5t-49-26T155,340t-19-98q-10-71-8-110.5T146,77t50-15q37,0 69,14t68.5,44T419,196l16-40q-26-37-65-75.5T281.5,15T172-12q-49,0-81,23T47.5,91T50,249q12,82 31.5,132t48,75.5t65.5,34t83,8.5Zm157-31l85-3L425-203H340L368-12q5,36 12.5,65T399,113l-12,8l48,347Z"/>
      <glyph unicode="r" glyph-name="gid106" horiz-adv-x="398" d="M169,487l-8-134l6-15L120,0H35l69,487h65Zm242,12l-21-80H365q-44,0-91.5-28.5T157,310l-4,55q63,64 122,99t111,35h25Z"/>
      <glyph unicode="s" glyph-name="gid107" horiz-adv-x="506" d="M264,499q34,0 71-2.5t71.5-5.5t62.5-7l-11-61q-46,2-92,3t-100,2q-42,0-68-2.5t-39-13T143,378q-4-30 12-43.5T202,307l136-60q38-16 61-33.5t32-42t4-62.5q-7-54-35.5-79.5T323-3.5T207-11q-47,0-74.5,2T81-4T21,3L31,65q24-2 51-3t54-1.5T187,60q62,1 96,5.5T332.5,82T352,117q3,21-4,32t-22,18.5T289,185L153,245q-34,16-56.5,34T65,322.5T60,384q6,48 30.5,73t68,34T264,499Z"/>
      <glyph unicode="t" glyph-name="gid109" horiz-adv-x="377" d="M245,631L175,132q-5-35 7-49t47-14h76l3-65q-16-4-37.5-7t-41-4.5T199-9q-63,0-91,35T89,124l72,507h84ZM380,487l-10-67H42l8,62l96,5H380Z"/>
      <glyph unicode="u" glyph-name="gid110" horiz-adv-x="567" d="M186,487L137,144q-7-45 7-64t51-19q47,0 91.5,29.5T396,179l8-61Q339,53 282,20T166-13Q99-13 69.5,23.5T50,123l51,364h85Zm332,0L450,0H384l9,134l-6,14l46,339h85Z"/>
      <glyph unicode="v" glyph-name="gid115" horiz-adv-x="531" d="M517,487q-10-51-25.5-102t-33-97T424,204q-22-49-45-89.5T339,51q-12-17-25-28.5t-29.5-17T243,0H168q-10,0-18,6.5T140,23L45,487h89L208,67h16q18,0 30,5.5T279,96q13,17 33,53.5T354,239q29,65 45.5,121T429,487h88Z"/>
      <glyph unicode="w" glyph-name="gid116" horiz-adv-x="850" d="M162,0q-10,0-17.5,6.5T135,23L45,487h88L202,67h13q13,0 24,7t23,28q13,23 27.5,58.5T317,239q11,33 19.5,64.5t16,70T369,466q2,10 8.5,15.5T393,487h93q9,0 15-6t7-14L557,67h12q13,0 23,9t18,22q20,31 36,60t35,81q23,59 38.5,120T746,487h89q-11-48-24.5-97T781,294.5T746,204q-22-49-45.5-91.5T660,48q-12-16-24.5-26.5t-27-16T574,0H518q-11,0-18,6.5T491,23L445,431H432q-3-28-9.5-64.5t-16-75T386,218q-9-29-20-58t-23-54T319,63q-14-24-31-38T252,5.5T212,0H162Z"/>
      <glyph unicode="x" glyph-name="gid117" horiz-adv-x="526" d="M148,487L265,244L76,0H-19L180,252L63,487h85ZM315,286l-10-66H201l10,66H315ZM520,487L336,251L463,0H377L250,258L428,487h92Z"/>
      <glyph unicode="y" glyph-name="gid118" horiz-adv-x="539" d="M523,487q-10-43-20.5-84T479,321.5T450.5,241t-34-79.5T375,81Q322-18 272-76.5t-103.5-88T51-206L35-145q38,9 72,25.5T173.5-75t64,72.5T301,106q31,61 55.5,119t44,121.5T435,487h88Zm-390,0L210,86q5-19 23-19h57L251,0H195q-22,0-37,12.5T138,45L44,487h89Z"/>
      <glyph unicode="z" glyph-name="gid121" horiz-adv-x="504" d="M374,418l98-1L113,68L15,69L374,418ZM426,69L416,0H6L16,69H426Zm55,418l-10-70H69l9,70H481Z"/>
      <glyph unicode="{" glyph-name="gid213" horiz-adv-x="318" d="M340,768l-3-54q-52,0-75.5-20.5T232,627L207,448q-5-41-15.5-65t-31-36.5T102,327q34-11 52-25t23-36.5t0-57.5L144-28q-7-46 8.5-64.5T220-111l-3-54q-59-4-95.5,10.5t-51,46T63-31L99,225q4,26-1,38.5T80,283T45,298l8,62q25,8 39,14t21.5,20T125,439l28,198q6,47 26,78t59.5,44.5T340,768Z"/>
      <glyph unicode="|" glyph-name="gid239" horiz-adv-x="245" d="M222,781L89-169H26L159,781h63Z"/>
      <glyph unicode="}" glyph-name="gid214" horiz-adv-x="319" d="M107,768q62,5 98-10.5T254,710t7-76L233,435q-4-31-1.5-45t15-19T283,358l-8-62q-24-8-39-15t-24-20t-13-40L164-34q-6-47-26-77.5t-59-44T-24-165l3,54q53,0 75.5,20.5T83-25l34,237q6,35 16,56.5t32,35T226,329q-33,7-50.5,19.5T153,386t1,66l26,179q6,45-9,64t-68,19l4,54Z"/>
      <glyph unicode="~" glyph-name="gid260" horiz-adv-x="522" d="M155,348q27-1 53-9.5t51-19T307.5,300T353,289q28-3 40.5,10.5T411,344l43-3q-1-60-26-89t-62-27q-31,2-58,10t-51.5,18.5T210,273t-43,11q-28,3-40.5-11.5T110,226l-44,4q1,42 13.5,68T112,336.5T155,348Z"/>
      <glyph unicode="&#xa0;" glyph-name="gid186" horiz-adv-x="223"/>
      <glyph unicode="&#xa1;" glyph-name="gid196" horiz-adv-x="255" d="M160,282L143,104L101-196H17L59,104L93,282h67Zm6,211q17,0 24-8t4-25l-7-55q-2-15-10-22.5T153,375H131q-35,0-29,33l7,55q4,30 34,30h23Z"/>
      <glyph unicode="&#xa2;" glyph-name="gid241" horiz-adv-x="505" d="M323,603q34,0 78-5t77-19l-13-53q-32,3-68.5,4.5T336,532q-59,0-96.5-15T181,462T150,345q-9-75-0.5-114t39-53T275,164q16,0 41,1t53,3.5t53,6.5l6-59q-38-12-82.5-18T260,92q-85,0-133.5,26T63,201T61,351q14,93 43.5,148.5T187,579t136,24ZM268,133L237,0H195l31,133h42Zm96,424L269,131H227l94,426h43Zm32,133L364,555H322l32,135h42Z"/>
      <glyph unicode="&#xa3;" glyph-name="gid245" horiz-adv-x="568" d="M369,702q32,0 80-2.5T549,692l-10-70q-19,1-36,1.5t-35.5,1t-42.5,1T366,626q-61,0-89.5-23T243,518L223,262q-4-46-15-80.5t-31-61T124,71q16,3 32.5,3.5T189,75H488L478,0H19L29,76q56,26 79.5,76T137,264l21,259q6,59 22.5,94.5t43,53.5t63,24.5T369,702Zm77-312l-10-52H64l7,52H446Z"/>
      <glyph unicode="&#xa4;" glyph-name="gid242" horiz-adv-x="596" d="M326,549q61,0 103-26t61-71t12-103T466,247.5T391,180T285,156q-58,0-100,25t-62,70T110,355q8,59 36,102.5T220,525t106,24ZM151,255l35-41L88,126L52,167l99,88Zm291-19l77-86l-39-36l-76,86l38,36ZM324,500q-68,0-111.5-41T161,349q-7-65 26.5-104T284,205q46,0 81.5,18T423,275.5T450,356q5,43-9,75.5T397.5,482T324,500ZM135,594l73-85l-40-36L95,557l40,37Zm388-13l35-42l-92-80l-36,39l93,83Z"/>
      <glyph unicode="&#xa5;" glyph-name="gid246" horiz-adv-x="615" d="M634,690L338,242H259L89,690h89L283,405q6-18 11.5-38t8.5-40h9q7,19 19,41.5T354,408L538,690h96ZM350,304L307,0H219l43,304h88Zm165-94l-8-51H68l6,51H515Zm15,113l-7-52H84l6,52H530Z"/>
      <glyph unicode="&#xa6;" glyph-name="gid240" horiz-adv-x="245" d="M222,781L166,381H103l57,400h62ZM145,231L89-169H26L82,231h63Z"/>
      <glyph unicode="&#xa7;" glyph-name="gid232" horiz-adv-x="544" d="M91,386h62q-9-43-10-73t11-51.5T196,221l160-99q21-13 38-27.5T422,62t15-41.5T437-35q-8-57-36-84t-72-35t-103-8q-30,1-66.5,2t-75,3.5T8-150L19-83q50-3 92.5-4.5T206-90q39,0 69,3.5t49,17T347-26q5,35-9.5,55T298,64L148,155q-45,27-64,59.5T68.5,289T91,386ZM311,703q29,0 68-1.5t79.5-4T531,691l-11-66q-29,2-54,3t-55.5,1.5T334,630q-44,1-74.5-2.5t-47-16.5T191,569q-5-34 9.5-54T241,479l152-93q45-27 62.5-60.5t14.5-76T448,152H386q9,43 9.5,74.5t-11.5,55T342,323L183,422q-29,18-49.5,38.5t-29,48.5T102,578q7,53 33,80t70.5,36T311,703Z"/>
      <glyph unicode="&#xa8;" glyph-name="gid272" horiz-adv-x="411" d="M198,694q15,0 19.5-6t2.5-18l-8-55q-1-12-7.5-18T185,591H157q-24,0-21,23l8,56q2,12 8.5,18t19.5,6h26Zm169,0q15,0 19.5-6t2.5-18l-8-55q-1-12-7.5-18T354,591H326q-24,0-21,23l8,56q2,12 8.5,18t19.5,6h26Z"/>
      <glyph unicode="&#xa9;" glyph-name="gid233" horiz-adv-x="834" d="M464,703q105,0 182-45.5T760,531t23-189q-13-102-66-182T578.5,33.5T383-13q-81,0-144.5,27T133,90T73.5,204.5T66,348q13,101 65,181T268.5,656T464,703Zm1-135q38,0 67-3.5T591,554l-10-48q-31,2-57.5,3T471,510q-56,0-90-12.5t-52-48T301,344q-8-61-2-95.5t31-49T401,185q32,0 56.5,0.5t45,2T544,191l4-49q-32-7-65-11t-72-4q-78,0-120,21t-54.5,70.5T235,351q12,83 37.5,130t72,67T465,568Zm2,91q-96,0-172-41T171.5,505.5T112,342q-11-94 20.5-164T229,69.5T382,31q96,0 172,41T678,184.5T737,348q12,91-18.5,161t-95,110T467,659Z"/>
      <glyph unicode="&#xaa;" glyph-name="gid129" horiz-adv-x="446" d="M247,607q37,0 83.5-4.5T412,590l-28-39q-38,2-70,2t-45,0q-43,0-67.5-7T165,514t-20-79q-7-49-4.5-73T155,330t34-8q32,0 68,21t78,59l14-29q-14-26-39-51.5T251,280t-75-16q-38,0-63,15.5T79,333t0,106q8,57 23,91t36.5,50.5t49,21.5t59.5,5Zm101-17h64L368,271H315l2,69l-3,6l34,244Z"/>
      <glyph unicode="&#xab;" glyph-name="gid223" horiz-adv-x="477" d="M406,459l35-32L288,250L397,68L354,39L218,246l1,19L406,459Zm-181,0l35-32L107,250L216,68L173,39L37,246l1,19L225,459Z"/>
      <glyph unicode="&#xac;" glyph-name="gid261" horiz-adv-x="587" d="M515,330l-10-65H68l9,65H515Zm0,0L487,133H422l27,189l66,8Z"/>
      <glyph unicode="&#xae;" glyph-name="gid234" horiz-adv-x="554" d="M323,702q63,0 111-26t73.5-76.5T525,476q-7-67-39-116t-83-76T286,257q-69,0-117.5,29T97,366.5T81,485q8,67 40,115.5t84,75T323,702Zm-63-92L224,352H184l37,258h39Zm62,64q-94,0-148-54.5T111,481q-6-63 14.5-107t62-67T286,284q60,0 105,25t72,70t32,104q6,62-14,104.5T420,652t-98,22Zm6-61q29,0 52-5t35-21.5t7-51.5q-3-28-16.5-42.5T361,471v-2q10-4 15.5-12.5T386,431l21-79H365l-19,80q-4,17-12.5,21.5T311,458q-35,0-55,0.5t-30.5,1T207,460l3,28h99q35,1 52,9.5T382,538q4,29-9,36.5T327,582q-23,0-44,0t-35.5-0.5T227,581l-6,29q27,2 50,2.5t57,0.5Z"/>
      <glyph unicode="&#xaf;" glyph-name="gid280" horiz-adv-x="400" d="M399,672l-8-63H112l8,63H399Z"/>
      <glyph unicode="&#xb0;" glyph-name="gid236" horiz-adv-x="363" d="M230,703q40,0 68-17.5t42-47T350,572q-5-56-44-90t-95-34q-41,0-69,18.5T101.5,515T92,580q5,55 43.5,89T230,703Zm-3-51q-33,0-55.5-20.5T145,577q-3-35 16-56.5T214,499t56.5,21T296,575q3,33-15,55t-54,22Z"/>
      <glyph unicode="&#xb1;" glyph-name="gid259" horiz-adv-x="585" d="M358,524L311,193H246l46,331h66ZM489,133l-9-63H42l9,63H489Zm36,258l-9-64H78l9,64H525Z"/>
      <glyph unicode="&#xb2;" glyph-name="gid177" horiz-adv-x="414" d="M275,773q65,0 99.5-15T409,697q0-31-14.5-59.5t-38-53.5T306,535L170,416q17,2 32,2t32,0l154-1l-10-58H73l5,36q2,8 5,15t10,13L236,547q25,21 47,43.5T319,636t14,45q0,23-18.5,29T264,716q-31,0-61-2t-71-7l3,51q47,10 81.5,12.5T275,773Z"/>
      <glyph unicode="&#xb3;" glyph-name="gid178" horiz-adv-x="407" d="M267,774q70,0 101.5-16.5T400,702q0-46-21-82.5T312,576v-2q38-6 53.5-25T381,499q0-53-18.5-86t-54-47.5T220,351q-40,0-77.5,3.5T73,363l12,50q23-2 43-3.5t40.5-2T211,407q51,0 76.5,20.5T313,497q0,20-14.5,34T239,546H154l7,50l85,1q44,0 64.5,20.5T331,678q0,24-17.5,32T252,718q-32,0-63.5-1.5T134,712l2,49q35,6 67,9.5t64,3.5Z"/>
      <glyph unicode="&#xb4;" glyph-name="gid275" horiz-adv-x="314" d="M293,724l41-66L127,538l-26,39L293,724Z"/>
      <glyph unicode="&#xb5;" glyph-name="gid263" horiz-adv-x="582" d="M197,487L148,144q-5-40 10.5-58T212,68q32,0 71.5,19.5t74,64T407,272L386,104q-20-33-50.5-59.5t-67-42T192-13q-46,0-76.5,22t-44,56.5T63,138l49,349h85Zm325,0L469,108q-4-25-0.5-39T491,55h41L531,4Q511-2 489.5-6T450-10q-38,0-56,20.5T382,77l4,27l-1,14l52,369h85ZM138,76L117-76L88-197H16L69,181L138,76Z"/>
      <glyph unicode="&#xb6;" glyph-name="gid231" horiz-adv-x="590" d="M393,702q34,0 78.5-4T550,685l-11-50q-23,5-54,7t-60.5,3T374,646L266,200q-84,7-133.5,36.5T66,321T60,458q13,93 50.5,146T217,679.5T393,702Zm-6-17L261-210H196L322,685h65Zm163,0L454,0H388l97,685h65Z"/>
      <glyph unicode="&#xb7;" glyph-name="gid199" horiz-adv-x="233" d="M132,317q18,0 24.5-8t4.5-25l-7-55q-2-15-10-22.5T120,199H92q-34,0-30,33l8,56q4,29 34,29h28Z"/>
      <glyph unicode="&#xb8;" glyph-name="gid281" horiz-adv-x="234" d="M47-43q39,4 64-0.5T146.5-64t4.5-48q-6-41-31.5-69.5T55-222.5T-31-229l16,45q41-1 70.5,20T90-111q3,17-7,22T37-83L47-43Z"/>
      <glyph unicode="&#xb9;" glyph-name="gid176" horiz-adv-x="295" d="M284,767L226,359H160l44,310q2,9 3.5,18.5T212,707L100,678l-2,47l119,42h67Z"/>
      <glyph unicode="&#xba;" glyph-name="gid130" horiz-adv-x="441" d="M258,607q91,0 124-39.5T401,432q-8-62-29-99t-57.5-53T220,264q-88,0-122,40T77,439q13,93 53,130.5T258,607Zm0-53q-39,0-61.5-11T162,505.5T143,432q-9-67 7-90.5T221,318t79.5,25.5T335,439q10,68-6.5,91.5T258,554Z"/>
      <glyph unicode="&#xbb;" glyph-name="gid224" horiz-adv-x="478" d="M59,37L24,69L177,246L68,428l43,29L247,250l-1-19L59,37Zm181,0L205,69L358,246L249,428l43,29L428,250l-1-19L240,37Z"/>
      <glyph unicode="&#xbc;" glyph-name="gid173" horiz-adv-x="858" d="M698,690L154,0H91L636,690h62Zm-424,0L216,276H149l44,317q2,10 3.5,19.5T201,632L86,601l-1,46l122,43h67ZM681,414L525,170q-5-8-2.5-14t13.5-6H801l-7-47l-62-6H486q-16,0-28.5,8.5T443,129t10,35L615,414h66Zm94-79L728,0H666l36,267l21,68h52Z"/>
      <glyph unicode="&#xbd;" glyph-name="gid172" horiz-adv-x="878" d="M691,690L147,0H85L629,690h62Zm-418,0L215,276H148l45,317q2,10 3.5,19.5T201,632L86,601l-1,46l122,43h66ZM679,421q51,0 84.5-7.5t48-28.5t8.5-62q-4-33-28-67t-72-75L571,58q19,2 35,2t35,0l160-1L792,0H480l6,39q1,9 3.5,16T498,68L644,192q47,40 73,72t31,60t-15,34t-56,6q-22,0-42-0.5t-42-2T541,356l-2,50q50,11 83,13t57,2Z"/>
      <glyph unicode="&#xbe;" glyph-name="gid174" horiz-adv-x="952" d="M801,690L257,0H194L739,690h62Zm-555,5q85,0 115.5-21.5T384,596q-3-26-12-47.5t-26.5-35T298,495l-6-3q48-7 63.5-34T366,385q-5-41-22-67.5t-51-39T204,266q-39,0-76.5,3.5T55,277l5,50q24-2 44.5-3t40.5-1.5t41-0.5q56,0 82,18t32,61q3,18-1,32.5t-21,23T224,465H137l6,50h84q36,1 55,12t26.5,27.5T318,587q5,32-11.5,42.5T239,640q-34,0-66-1t-56-3l-2,49q35,5 67.5,7.5T246,695ZM774,414L618,170q-5-8-2.5-14t13.5-6H894l-7-47l-62-6H579q-16,0-28.5,8.5T536,129t10,35L708,414h66Zm92-79L819,0H756l37,267l21,68h52Z"/>
      <glyph unicode="&#xbf;" glyph-name="gid198" horiz-adv-x="494" d="M292,287q-7-55-28.5-95T213,122T156,66.5T107,14T80-47q-8-48 18.5-70.5T192-140q51,0 84.5,1t60,3t56.5,5l1-61q-26-4-48-8t-45-7t-53-4.5T174-213Q71-213 25.5-169T-11-54q6,44 28.5,76.5t53,60t62,55.5T188,202t33,85h71Zm3,212q17,0 24.5-8t5.5-25l-8-55q-2-16-10-23t-24-7H262q-34,0-30,33l8,56q3,29 33,29h22Z"/>
      <glyph unicode="&#xc0;" glyph-name="gid6" horiz-adv-x="619" d="M412,690q12,0 20.5-7.5T442,664L571,0H483L384,564q-2,15-4,30t-4,29H346q-6-13-13-29t-13-30L63,0H-30L286,667q4,12 13,17.5t21,5.5h92Zm74-398l-10-77H126l10,77H486ZM257,913L427,766l-31-38L211,853l46,60Z"/>
      <glyph unicode="&#xc1;" glyph-name="gid2" horiz-adv-x="619" d="M412,690q12,0 20.5-7.5T442,664L571,0H483L384,564q-2,15-4,30t-4,29H346q-6-13-13-29t-13-30L63,0H-30L286,667q4,12 13,17.5t21,5.5h92Zm74-398l-10-77H126l10,77H486Zm18,622l41-66L338,728l-26,39L504,914Z"/>
      <glyph unicode="&#xc2;" glyph-name="gid4" horiz-adv-x="619" d="M412,690q12,0 20.5-7.5T442,664L571,0H483L384,564q-2,15-4,30t-4,29H346q-6-13-13-29t-13-30L63,0H-30L286,667q4,12 13,17.5t21,5.5h92Zm74-398l-10-77H126l10,77H486ZM424,896L548,763l-32-33L397,831h-8L240,731l-25,38L364,896h60Z"/>
      <glyph unicode="&#xc3;" glyph-name="gid8" horiz-adv-x="619" d="M412,690q12,0 20.5-7.5T442,664L571,0H483L384,564q-2,15-4,30t-4,29H346q-6-13-13-29t-13-30L63,0H-30L286,667q4,12 13,17.5t21,5.5h92Zm74-398l-10-77H126l10,77H486ZM310,879q24-2 41.5-9.5T384,852t30.5-18T450,824q30-4 43.5,10T511,876l40-3q-1-57-26.5-85.5T462,762q-26,2-45,10t-35,18t-30.5,18.5T320,819q-29,3-42.5-11.5T260,763l-40,4q2,60 28.5,87.5T310,879Z"/>
      <glyph unicode="&#xc4;" glyph-name="gid5" horiz-adv-x="619" d="M412,690q12,0 20.5-7.5T442,664L571,0H483L384,564q-2,15-4,30t-4,29H346q-6-13-13-29t-13-30L63,0H-30L286,667q4,12 13,17.5t21,5.5h92Zm74-398l-10-77H126l10,77H486ZM321,870q15,0 19.5-6t2.5-18l-8-55q-1-12-7.5-18T308,767H280q-24,0-21,23l8,56q2,12 8.5,18t19.5,6h26Zm169,0q15,0 19.5-6t2.5-18l-8-55q-1-12-7.5-18T477,767H449q-24,0-21,23l8,56q2,12 8.5,18t19.5,6h26Z"/>
      <glyph unicode="&#xc5;" glyph-name="gid7" horiz-adv-x="619" d="M412,690q12,0 20.5-7.5T442,664L571,0H483L384,564q-2,15-4,30t-4,29H346q-6-13-13-29t-13-30L63,0H-30L286,667q4,12 13,17.5t21,5.5h92Zm74-398l-10-77H126l10,77H486ZM393,924q45,0 73-26.5T494,828q0-49-32-81.5T380,714q-45,0-73,26.5T279,810q0,49 32.5,81.5T393,924Zm-1-44q-31,0-48-19t-17-47q0-24 14-40t41-16q29,0 46.5,19.5T446,825q0,24-14,39.5T392,880Z"/>
      <glyph unicode="&#xc6;" glyph-name="gid9" horiz-adv-x="912" d="M619,691q95,0 163-1t134-5l-12-69H649q-31,0-51.5-16T572,547L516,139q-4-34 8.5-49.5T571,74H829L825,5Q758,1 690.5,0T555-1q-64,0-98,36.5T433,137l59,423q2,21 13.5,41T532,630h-5q-14-7-31.5-23T460,565L52,0H-42L382,583q23,33 46.5,54T479,669.5T540,686t79,5ZM479,299l-11-75H168l19,77l292-2Zm4,100l352-1l-9-69H472l11,70Z"/>
      <glyph unicode="&#xc7;" glyph-name="gid12" horiz-adv-x="566" d="M383,702q45,0 77-2t58-6.5T571,681l-14-66q-29,3-54.5,5T449,623t-67,1q-51,0-87.5-13T232,567t-43.5-86T160,342q-15-105-7.5-165t42-85T294,66q66,0 110,3t87,8l5-67Q451-2 405-7T293-12q-99,0-154.5,37.5t-72,117T68,348q14,98 37.5,166t60,109.5t90,60T383,702ZM228-55q39,4 64-0.5T327.5-76t4.5-48q-6-41-31.5-69.5t-64.5-41T150-241l16,45q41-1 70.5,20T271-123q3,17-7,22t-46,6l10,40Z"/>
      <glyph unicode="&#xc8;" glyph-name="gid19" horiz-adv-x="558" d="M264,691q51,0 102,0t100.5-1.5T562,685l-12-69H275q-34,0-50-16t-21-52L148,139q-5-34 8-49.5T203,74H473L471,5q-44-3-91-4T285.5-0.5T192-1Q116-1 82.5,36T58,137l61,436q8,56 44.5,87T264,691ZM113,398H480l-9-68H103l10,68ZM255,934L425,787l-31-38L209,874l46,60Z"/>
      <glyph unicode="&#xc9;" glyph-name="gid16" horiz-adv-x="558" d="M264,691q51,0 102,0t100.5-1.5T562,685l-12-69H275q-34,0-50-16t-21-52L148,139q-5-34 8-49.5T203,74H473L471,5q-44-3-91-4T285.5-0.5T192-1Q116-1 82.5,36T58,137l61,436q8,56 44.5,87T264,691ZM113,398H480l-9-68H103l10,68ZM502,935l41-66L336,749l-26,39L502,935Z"/>
      <glyph unicode="&#xca;" glyph-name="gid17" horiz-adv-x="558" d="M264,691q51,0 102,0t100.5-1.5T562,685l-12-69H275q-34,0-50-16t-21-52L148,139q-5-34 8-49.5T203,74H473L471,5q-44-3-91-4T285.5-0.5T192-1Q116-1 82.5,36T58,137l61,436q8,56 44.5,87T264,691ZM113,398H480l-9-68H103l10,68ZM422,917L546,784l-32-33L395,852h-8L238,752l-25,38L362,917h60Z"/>
      <glyph unicode="&#xcb;" glyph-name="gid18" horiz-adv-x="558" d="M264,691q51,0 102,0t100.5-1.5T562,685l-12-69H275q-34,0-50-16t-21-52L148,139q-5-34 8-49.5T203,74H473L471,5q-44-3-91-4T285.5-0.5T192-1Q116-1 82.5,36T58,137l61,436q8,56 44.5,87T264,691ZM113,398H480l-9-68H103l10,68ZM319,891q15,0 19.5-6t2.5-18l-8-55q-1-12-7.5-18T306,788H278q-24,0-21,23l8,56q2,12 8.5,18t19.5,6h26Zm169,0q15,0 19.5-6t2.5-18l-8-55q-1-12-7.5-18T475,788H447q-24,0-21,23l8,56q2,12 8.5,18t19.5,6h26Z"/>
      <glyph unicode="&#xcc;" glyph-name="gid27" horiz-adv-x="261" d="M231,690L134,0H45l97,690h89ZM76,913L246,766l-31-38L30,853l46,60Z"/>
      <glyph unicode="&#xcd;" glyph-name="gid24" horiz-adv-x="261" d="M231,690L134,0H45l97,690h89Zm92,224l41-66L157,728l-26,39L323,914Z"/>
      <glyph unicode="&#xce;" glyph-name="gid25" horiz-adv-x="261" d="M231,690L134,0H45l97,690h89Zm12,206L367,763l-32-33L216,831h-8L59,731L34,769L183,896h60Z"/>
      <glyph unicode="&#xcf;" glyph-name="gid26" horiz-adv-x="261" d="M231,690L134,0H45l97,690h89ZM140,870q15,0 19.5-6t2.5-18l-8-55q-1-12-7.5-18T127,767H99q-24,0-21,23l8,56q2,12 8.5,18t19.5,6h26Zm169,0q15,0 19.5-6t2.5-18l-8-55q-1-12-7.5-18T296,767H268q-24,0-21,23l8,56q2,12 8.5,18t19.5,6h26Z"/>
      <glyph unicode="&#xd0;" glyph-name="gid14" horiz-adv-x="662" d="M342,391l-6-49H27l7,49H342Zm26,308q106,0 165-33.5T609.5,554T608,342q-16-112-41.5-181.5t-64-106t-95-50T274-9Q222-9 161-6.5T45,0L91,72q41-1 93-2.5T273,68q59,0 100,11t68.5,41t45,85T517,348q12,85 10.5,139T509,570.5t-52,41T366,623q-24,0-59-0.5t-71-1T174,620l-32,70q34,3 75,5t80.5,3t70.5,1Zm-138-9L133,0H45l97,690h88Z"/>
      <glyph unicode="&#xd1;" glyph-name="gid33" horiz-adv-x="703" d="M673,690L580,33q-2-17-10-25T545,0H465q-15,0-23,8T429,30L256,519q-7,19-14.5,43.5T229,608H212q-1-22-3-45t-5-46L133,0H45l92,657q3,17 12,25t25,8h78q15,0 23-8t13-22L456,184q8-22 16.5-48.5T488,84h19q2,26 4,51t6,50l69,505h87ZM357,879q24-2 41.5-9.5T431,852t30.5-18T497,824q30-4 43.5,10T558,876l40-3q-1-57-26.5-85.5T509,762q-26,2-45,10t-35,18t-30.5,18.5T367,819q-29,3-42.5-11.5T307,763l-40,4q2,60 28.5,87.5T357,879Z"/>
      <glyph unicode="&#xd2;" glyph-name="gid38" horiz-adv-x="666" d="M387,703q95,0 151.5-35T613,554t-1-212q-13-100-37-168.5T514.5,64t-90-59T297-13q-95,0-152,34T69,134T68,348q14,98 37,165.5T165,623t91.5,61T387,703Zm-5-79q-70,0-113.5-25.5t-68.5-87T160,342q-14-105-6.5-165T196,91.5T299,66q69,0 112,26t69,87.5T521,348q16,108 8,168t-43.5,84T382,624ZM273,913L443,766l-31-38L227,853l46,60Z"/>
      <glyph unicode="&#xd3;" glyph-name="gid35" horiz-adv-x="666" d="M387,703q95,0 151.5-35T613,554t-1-212q-13-100-37-168.5T514.5,64t-90-59T297-13q-95,0-152,34T69,134T68,348q14,98 37,165.5T165,623t91.5,61T387,703Zm-5-79q-70,0-113.5-25.5t-68.5-87T160,342q-14-105-6.5-165T196,91.5T299,66q69,0 112,26t69,87.5T521,348q16,108 8,168t-43.5,84T382,624ZM520,914l41-66L354,728l-26,39L520,914Z"/>
      <glyph unicode="&#xd4;" glyph-name="gid36" horiz-adv-x="666" d="M387,703q95,0 151.5-35T613,554t-1-212q-13-100-37-168.5T514.5,64t-90-59T297-13q-95,0-152,34T69,134T68,348q14,98 37,165.5T165,623t91.5,61T387,703Zm-5-79q-70,0-113.5-25.5t-68.5-87T160,342q-14-105-6.5-165T196,91.5T299,66q69,0 112,26t69,87.5T521,348q16,108 8,168t-43.5,84T382,624Zm58,272L564,763l-32-33L413,831h-8L256,731l-25,38L380,896h60Z"/>
      <glyph unicode="&#xd5;" glyph-name="gid40" horiz-adv-x="666" d="M387,703q95,0 151.5-35T613,554t-1-212q-13-100-37-168.5T514.5,64t-90-59T297-13q-95,0-152,34T69,134T68,348q14,98 37,165.5T165,623t91.5,61T387,703Zm-5-79q-70,0-113.5-25.5t-68.5-87T160,342q-14-105-6.5-165T196,91.5T299,66q69,0 112,26t69,87.5T521,348q16,108 8,168t-43.5,84T382,624ZM326,879q24-2 41.5-9.5T400,852t30.5-18T466,824q30-4 43.5,10T527,876l40-3q-1-57-26.5-85.5T478,762q-26,2-45,10t-35,18t-30.5,18.5T336,819q-29,3-42.5-11.5T276,763l-40,4q2,60 28.5,87.5T326,879Z"/>
      <glyph unicode="&#xd6;" glyph-name="gid37" horiz-adv-x="666" d="M387,703q95,0 151.5-35T613,554t-1-212q-13-100-37-168.5T514.5,64t-90-59T297-13q-95,0-152,34T69,134T68,348q14,98 37,165.5T165,623t91.5,61T387,703Zm-5-79q-70,0-113.5-25.5t-68.5-87T160,342q-14-105-6.5-165T196,91.5T299,66q69,0 112,26t69,87.5T521,348q16,108 8,168t-43.5,84T382,624ZM337,870q15,0 19.5-6t2.5-18l-8-55q-1-12-7.5-18T324,767H296q-24,0-21,23l8,56q2,12 8.5,18t19.5,6h26Zm169,0q15,0 19.5-6t2.5-18l-8-55q-1-12-7.5-18T493,767H465q-24,0-21,23l8,56q2,12 8.5,18t19.5,6h26Z"/>
      <glyph unicode="&#xd7;" glyph-name="gid254" horiz-adv-x="525" d="M445,477l39-55L81,102L42,157L445,477Zm-315-6L438,151l-46-47L83,424l47,47Z"/>
      <glyph unicode="&#xd8;" glyph-name="gid39" horiz-adv-x="666" d="M560,753l42-24L123-60L82-35L560,753ZM387,703q95,0 151.5-35T613,554t-1-212q-13-100-37-168.5T514.5,64t-90-59T297-13q-95,0-152,34T69,134T68,348q14,98 37,165.5T165,623t91.5,61T387,703Zm-5-79q-70,0-113.5-25.5t-68.5-87T160,342q-14-105-6.5-165T196,91.5T299,66q69,0 112,26t69,87.5T521,348q16,108 8,168t-43.5,84T382,624Z"/>
      <glyph unicode="&#xd9;" glyph-name="gid52" horiz-adv-x="664" d="M639,690L579,263q-14-100-47-161T442,14T298-13q-88,0-142,28T82.5,104.5T78,267l58,423h89L165,263q-10-74-1.5-117.5T204,84t92-18q61,0 100.5,19t62,63.5T492,267l58,423h89ZM273,913L443,766l-31-38L227,853l46,60Z"/>
      <glyph unicode="&#xda;" glyph-name="gid49" horiz-adv-x="664" d="M639,690L579,263q-14-100-47-161T442,14T298-13q-88,0-142,28T82.5,104.5T78,267l58,423h89L165,263q-10-74-1.5-117.5T204,84t92-18q61,0 100.5,19t62,63.5T492,267l58,423h89ZM520,914l41-66L354,728l-26,39L520,914Z"/>
      <glyph unicode="&#xdb;" glyph-name="gid50" horiz-adv-x="664" d="M639,690L579,263q-14-100-47-161T442,14T298-13q-88,0-142,28T82.5,104.5T78,267l58,423h89L165,263q-10-74-1.5-117.5T204,84t92-18q61,0 100.5,19t62,63.5T492,267l58,423h89ZM440,896L564,763l-32-33L413,831h-8L256,731l-25,38L380,896h60Z"/>
      <glyph unicode="&#xdc;" glyph-name="gid51" horiz-adv-x="664" d="M639,690L579,263q-14-100-47-161T442,14T298-13q-88,0-142,28T82.5,104.5T78,267l58,423h89L165,263q-10-74-1.5-117.5T204,84t92-18q61,0 100.5,19t62,63.5T492,267l58,423h89ZM337,870q15,0 19.5-6t2.5-18l-8-55q-1-12-7.5-18T324,767H296q-24,0-21,23l8,56q2,12 8.5,18t19.5,6h26Zm169,0q15,0 19.5-6t2.5-18l-8-55q-1-12-7.5-18T493,767H465q-24,0-21,23l8,56q2,12 8.5,18t19.5,6h26Z"/>
      <glyph unicode="&#xdd;" glyph-name="gid57" horiz-adv-x="565" d="M609,690L312,234H233L64,690h90L258,397q6-18 11.5-38t8.5-40h8q7,19 18.5,41.5T327,400L513,690h96ZM324,296L283,0H194l43,296h87ZM462,914l41-66L296,728l-26,39L462,914Z"/>
      <glyph unicode="&#xde;" glyph-name="gid43" horiz-adv-x="589" d="M358,567q76,0 123.5-19.5T547,480t5-134q-12-85-39-132t-75-65T316,131q-57,0-106.5,4t-84,9T79,153l6,54q53,0 110,0t110,0q52,1 84,13t50,43.5T465,353q8,56 0.5,86t-34,41.5T355,492q-83,0-142.5-1T131,488l-7,71q39,4 71.5,5.5t70.5,2t92,0.5ZM230,690L133,0H45l97,690h88Z"/>
      <glyph unicode="&#xdf;" glyph-name="gid108" horiz-adv-x="672" d="M394,721q85,0 135-12.5T598,667t12-80q-3-26-13.5-48T564,497t-58-41q-27-14-51.5-26T414,403.5T394,367t10-35t41-30l98-59q41-25 59.5-52.5T614,110q-7-51-31.5-77t-65-35T420-11q-31,0-71.5,2T261,0l10,65q38-2 73.5-3.5T405,61q40,0 66,4.5T511,83t17,39q3,20-3,32.5t-17.5,22T479,196L378,257q-35,21-53,49t-13,64q4,32 22.5,53T382,461.5T447,498q25,15 42.5,28t27,28T528,589q2,19-6,33t-35.5,21.5T401,651t-92-10t-51-35.5T234,532L150-60q-7-48-26-79T71.5-185.5T-10-201q-14,0-45,1.5t-65,5.5l13,64h76q47,0 69,16.5T67-47l83,591q8,59 28,94t51,53t72.5,24t92.5,6ZM187,487l-11-67H44l9,61l93,6h41Z"/>
      <glyph unicode="&#xe0;" glyph-name="gid64" horiz-adv-x="573" d="M294,499q26,0 55.5-1.5t59.5-5t59.5-7.5t54.5-9l-38-53q-55,2-98.5,3.5T320,428q-50,0-82-6.5T187,396t-30.5-56T136,242q-10-73-8.5-112t18-53.5T195,62q36,0 71.5,15.5t73.5,46T419,197l17-41q-25-45-64.5-83T283,11.5T178-12q-58,0-90.5,24.5T46,94.5T51,249q12,82 32,132t49.5,75.5t69.5,34t92,8.5Zm143-23h86L456,0H389l7,115l-9,8l50,353ZM206,733L376,586l-31-38L160,673l46,60Z"/>
      <glyph unicode="&#xe1;" glyph-name="gid61" horiz-adv-x="573" d="M294,499q26,0 55.5-1.5t59.5-5t59.5-7.5t54.5-9l-38-53q-55,2-98.5,3.5T320,428q-50,0-82-6.5T187,396t-30.5-56T136,242q-10-73-8.5-112t18-53.5T195,62q36,0 71.5,15.5t73.5,46T419,197l17-41q-25-45-64.5-83T283,11.5T178-12q-58,0-90.5,24.5T46,94.5T51,249q12,82 32,132t49.5,75.5t69.5,34t92,8.5Zm143-23h86L456,0H389l7,115l-9,8l50,353Zm16,258l41-66L287,548l-26,39L453,734Z"/>
      <glyph unicode="&#xe2;" glyph-name="gid62" horiz-adv-x="573" d="M294,499q26,0 55.5-1.5t59.5-5t59.5-7.5t54.5-9l-38-53q-55,2-98.5,3.5T320,428q-50,0-82-6.5T187,396t-30.5-56T136,242q-10-73-8.5-112t18-53.5T195,62q36,0 71.5,15.5t73.5,46T419,197l17-41q-25-45-64.5-83T283,11.5T178-12q-58,0-90.5,24.5T46,94.5T51,249q12,82 32,132t49.5,75.5t69.5,34t92,8.5Zm143-23h86L456,0H389l7,115l-9,8l50,353ZM373,716L497,583l-32-33L346,651h-8L189,551l-25,38L313,716h60Z"/>
      <glyph unicode="&#xe3;" glyph-name="gid66" horiz-adv-x="573" d="M294,499q26,0 55.5-1.5t59.5-5t59.5-7.5t54.5-9l-38-53q-55,2-98.5,3.5T320,428q-50,0-82-6.5T187,396t-30.5-56T136,242q-10-73-8.5-112t18-53.5T195,62q36,0 71.5,15.5t73.5,46T419,197l17-41q-25-45-64.5-83T283,11.5T178-12q-58,0-90.5,24.5T46,94.5T51,249q12,82 32,132t49.5,75.5t69.5,34t92,8.5Zm143-23h86L456,0H389l7,115l-9,8l50,353ZM259,699q24-2 41.5-9.5T333,672t30.5-18T399,644q30-4 43.5,10T460,696l40-3q-1-57-26.5-85.5T411,582q-26,2-45,10t-35,18t-30.5,18.5T269,639q-29,3-42.5-11.5T209,583l-40,4q2,60 28.5,87.5T259,699Z"/>
      <glyph unicode="&#xe4;" glyph-name="gid63" horiz-adv-x="573" d="M294,499q26,0 55.5-1.5t59.5-5t59.5-7.5t54.5-9l-38-53q-55,2-98.5,3.5T320,428q-50,0-82-6.5T187,396t-30.5-56T136,242q-10-73-8.5-112t18-53.5T195,62q36,0 71.5,15.5t73.5,46T419,197l17-41q-25-45-64.5-83T283,11.5T178-12q-58,0-90.5,24.5T46,94.5T51,249q12,82 32,132t49.5,75.5t69.5,34t92,8.5Zm143-23h86L456,0H389l7,115l-9,8l50,353ZM270,690q15,0 19.5-6t2.5-18l-8-55q-1-12-7.5-18T257,587H229q-24,0-21,23l8,56q2,12 8.5,18t19.5,6h26Zm169,0q15,0 19.5-6t2.5-18l-8-55q-1-12-7.5-18T426,587H398q-24,0-21,23l8,56q2,12 8.5,18t19.5,6h26Z"/>
      <glyph unicode="&#xe5;" glyph-name="gid65" horiz-adv-x="573" d="M294,499q26,0 55.5-1.5t59.5-5t59.5-7.5t54.5-9l-38-53q-55,2-98.5,3.5T320,428q-50,0-82-6.5T187,396t-30.5-56T136,242q-10-73-8.5-112t18-53.5T195,62q36,0 71.5,15.5t73.5,46T419,197l17-41q-25-45-64.5-83T283,11.5T178-12q-58,0-90.5,24.5T46,94.5T51,249q12,82 32,132t49.5,75.5t69.5,34t92,8.5Zm143-23h86L456,0H389l7,115l-9,8l50,353ZM342,744q45,0 73-26.5T443,648q0-49-32-81.5T329,534q-45,0-73,26.5T228,630q0,49 32.5,81.5T342,744Zm-1-44q-31,0-48-19t-17-47q0-24 14-40t41-16q29,0 46.5,19.5T395,645q0,24-14,39.5T341,700Z"/>
      <glyph unicode="&#xe6;" glyph-name="gid67" horiz-adv-x="873" d="M292,499q37,0 78.5-3.5t83-9T530,473l-40-52q-38,2-70.5,3.5t-58,2.5T318,428q-49,0-80.5-7T187,395t-29.5-56T138,242q-10-72-9-111t16.5-54T192,62q37,0 72,15.5T335.5,123T413,197l17-40q-24-45-62-83.5t-86.5-62T175-12T85,13.5t-40,83T50,249q12,82 32,132t49.5,75.5t69.5,34t91,8.5Zm359,0q77,0 119-17.5T826,429t6-86q-8-47-29.5-75T743,226t-96-19L409,185l10,64l227,22q32,3 52.5,10.5t32.5,24T747,350q6,37-4.5,53.5T706,424t-66,4t-68-7t-47-25.5T493.5,343T473,254q-12-81-1.5-123T514,74.5T597,60q26,0 57,1.5T716,66t56,6l6-57Q754,5 718.5-1t-72-8.5T582-12q-83,0-131,28.5t-63,88T385,255q10,72 28.5,119.5T463,449t77.5,38.5T651,499Z"/>
      <glyph unicode="&#xe7;" glyph-name="gid70" horiz-adv-x="484" d="M308,499q35,0 78.5-5T464,475l-14-53q-32,3-68.5,4T322,427q-59,0-97-15t-59-55T135,240q-10-75-1-113.5T174,74t87-14q16,0 40.5,1T354,64t53,6l6-58Q375,0 331-6t-85-6q-85,0-133.5,26t-64,83T46,247q14,93 43.5,148.5T172,475t136,24ZM182-55q39,4 64-0.5T281.5-76t4.5-48q-6-41-31.5-69.5t-64.5-41T104-241l16,45q41-1 70.5,20T225-123q3,17-7,22t-46,6l10,40Z"/>
      <glyph unicode="&#xe8;" glyph-name="gid77" horiz-adv-x="537" d="M314,499q77,0 119-17.5T489.5,429t5.5-86q-8-47-29.5-75T406,226t-96-19L73,185l9,64l227,22q33,3 53.5,10.5t32,24T411,350q6,37-5,53.5T369,424t-66,4t-68-7t-47-25.5T157,343t-21-89q-12-81-1-123t42.5-56.5T260,60q27,0 58.5,1.5T381,66t58,6l6-57Q420,5 384-1T311.5-9.5T246-12q-84,0-131.5,28.5t-63,88T48,255q10,72 29,119.5T127,449t77,38.5T314,499ZM201,733L371,586l-31-38L155,673l46,60Z"/>
      <glyph unicode="&#xe9;" glyph-name="gid74" horiz-adv-x="537" d="M314,499q77,0 119-17.5T489.5,429t5.5-86q-8-47-29.5-75T406,226t-96-19L73,185l9,64l227,22q33,3 53.5,10.5t32,24T411,350q6,37-5,53.5T369,424t-66,4t-68-7t-47-25.5T157,343t-21-89q-12-81-1-123t42.5-56.5T260,60q27,0 58.5,1.5T381,66t58,6l6-57Q420,5 384-1T311.5-9.5T246-12q-84,0-131.5,28.5t-63,88T48,255q10,72 29,119.5T127,449t77,38.5T314,499ZM448,734l41-66L282,548l-26,39L448,734Z"/>
      <glyph unicode="&#xea;" glyph-name="gid75" horiz-adv-x="537" d="M314,499q77,0 119-17.5T489.5,429t5.5-86q-8-47-29.5-75T406,226t-96-19L73,185l9,64l227,22q33,3 53.5,10.5t32,24T411,350q6,37-5,53.5T369,424t-66,4t-68-7t-47-25.5T157,343t-21-89q-12-81-1-123t42.5-56.5T260,60q27,0 58.5,1.5T381,66t58,6l6-57Q420,5 384-1T311.5-9.5T246-12q-84,0-131.5,28.5t-63,88T48,255q10,72 29,119.5T127,449t77,38.5T314,499Zm54,217L492,583l-32-33L341,651h-8L184,551l-25,38L308,716h60Z"/>
      <glyph unicode="&#xeb;" glyph-name="gid76" horiz-adv-x="537" d="M314,499q77,0 119-17.5T489.5,429t5.5-86q-8-47-29.5-75T406,226t-96-19L73,185l9,64l227,22q33,3 53.5,10.5t32,24T411,350q6,37-5,53.5T369,424t-66,4t-68-7t-47-25.5T157,343t-21-89q-12-81-1-123t42.5-56.5T260,60q27,0 58.5,1.5T381,66t58,6l6-57Q420,5 384-1T311.5-9.5T246-12q-84,0-131.5,28.5t-63,88T48,255q10,72 29,119.5T127,449t77,38.5T314,499ZM265,690q15,0 19.5-6t2.5-18l-8-55q-1-12-7.5-18T252,587H224q-24,0-21,23l8,56q2,12 8.5,18t19.5,6h26Zm169,0q15,0 19.5-6t2.5-18l-8-55q-1-12-7.5-18T421,587H393q-24,0-21,23l8,56q2,12 8.5,18t19.5,6h26Z"/>
      <glyph unicode="&#xec;" glyph-name="gid87" horiz-adv-x="246" d="M193,487L124,0H39l69,487h85ZM44,733L214,586l-31-38L-2,673l46,60Z"/>
      <glyph unicode="&#xed;" glyph-name="gid83" horiz-adv-x="246" d="M193,487L124,0H39l69,487h85Zm98,247l41-66L125,548L99,587L291,734Z"/>
      <glyph unicode="&#xee;" glyph-name="gid84" horiz-adv-x="246" d="M193,487L124,0H39l69,487h85Zm18,229L335,583l-32-33L184,651h-8L27,551L2,589L151,716h60Z"/>
      <glyph unicode="&#xef;" glyph-name="gid85" horiz-adv-x="246" d="M193,487L124,0H39l69,487h85ZM108,690q15,0 19.5-6t2.5-18l-8-55q-1-12-7.5-18T95,587H67q-24,0-21,23l8,56q2,12 8.5,18T82,690h26Zm169,0q15,0 19.5-6t2.5-18l-8-55q-1-12-7.5-18T264,587H236q-24,0-21,23l8,56q2,12 8.5,18t19.5,6h26Z"/>
      <glyph unicode="&#xf0;" glyph-name="gid72" horiz-adv-x="555" d="M181,698q56,2 108-9t94.5-38.5t71.5-76t39-121T491,279q-9-67-25.5-120.5t-46-92T344,7.5T230-13q-75,0-120,25.5t-60.5,78T44,222q14,105 66,165.5T269,448q23,0 47-4t47.5-15t45-31.5T448,343l-7-35q-23,27-48,42t-51.5,21T287,377q-51,0-82.5-19T156,303t-24-87q-13-87 12-122t90-35q56,0 90,25t52.5,76.5T405,291q12,92 4.5,154.5T380,546t-55.5,58T251,630.5T168,636l13,62Zm287,12l25-36L267,518l-23,34L468,710Z"/>
      <glyph unicode="&#xf1;" glyph-name="gid94" horiz-adv-x="578" d="M400,499q41,0 68.5-15t40-45t6.5-75L463,0H378l49,343q6,48-6,66t-47,18q-48,0-98-30.5T157,312l1,62q69,62 127.5,93.5T400,499ZM172,487l-8-126l4-15L120,0H35l69,487h68Zm92,212q24-2 41.5-9.5T338,672t30.5-18T404,644q30-4 43.5,10T465,696l40-3q-1-57-26.5-85.5T416,582q-26,2-45,10t-35,18t-30.5,18.5T274,639q-29,3-42.5-11.5T214,583l-40,4q2,60 28.5,87.5T264,699Z"/>
      <glyph unicode="&#xf2;" glyph-name="gid99" horiz-adv-x="564" d="M307,499q82,0 130-25.5T501.5,391T504,239q-13-92-42.5-147.5t-82-80T245-13q-81,0-129.5,25.5T50,95T46,246q13,92 42.5,147.5T171,474t136,25Zm0-72q-54,0-88-16t-53.5-56.5T135,239q-10-69-3.5-108.5t34-55.5T245,59q55,0 89,17t53.5,58T417,246t3.5,110t-34,55T307,427ZM201,733L371,586l-31-38L155,673l46,60Z"/>
      <glyph unicode="&#xf3;" glyph-name="gid96" horiz-adv-x="564" d="M307,499q82,0 130-25.5T501.5,391T504,239q-13-92-42.5-147.5t-82-80T245-13q-81,0-129.5,25.5T50,95T46,246q13,92 42.5,147.5T171,474t136,25Zm0-72q-54,0-88-16t-53.5-56.5T135,239q-10-69-3.5-108.5t34-55.5T245,59q55,0 89,17t53.5,58T417,246t3.5,110t-34,55T307,427ZM448,734l41-66L282,548l-26,39L448,734Z"/>
      <glyph unicode="&#xf4;" glyph-name="gid97" horiz-adv-x="564" d="M307,499q82,0 130-25.5T501.5,391T504,239q-13-92-42.5-147.5t-82-80T245-13q-81,0-129.5,25.5T50,95T46,246q13,92 42.5,147.5T171,474t136,25Zm0-72q-54,0-88-16t-53.5-56.5T135,239q-10-69-3.5-108.5t34-55.5T245,59q55,0 89,17t53.5,58T417,246t3.5,110t-34,55T307,427Zm61,289L492,583l-32-33L341,651h-8L184,551l-25,38L308,716h60Z"/>
      <glyph unicode="&#xf5;" glyph-name="gid101" horiz-adv-x="564" d="M307,499q82,0 130-25.5T501.5,391T504,239q-13-92-42.5-147.5t-82-80T245-13q-81,0-129.5,25.5T50,95T46,246q13,92 42.5,147.5T171,474t136,25Zm0-72q-54,0-88-16t-53.5-56.5T135,239q-10-69-3.5-108.5t34-55.5T245,59q55,0 89,17t53.5,58T417,246t3.5,110t-34,55T307,427ZM254,699q24-2 41.5-9.5T328,672t30.5-18T394,644q30-4 43.5,10T455,696l40-3q-1-57-26.5-85.5T406,582q-26,2-45,10t-35,18t-30.5,18.5T264,639q-29,3-42.5-11.5T204,583l-40,4q2,60 28.5,87.5T254,699Z"/>
      <glyph unicode="&#xf6;" glyph-name="gid98" horiz-adv-x="564" d="M307,499q82,0 130-25.5T501.5,391T504,239q-13-92-42.5-147.5t-82-80T245-13q-81,0-129.5,25.5T50,95T46,246q13,92 42.5,147.5T171,474t136,25Zm0-72q-54,0-88-16t-53.5-56.5T135,239q-10-69-3.5-108.5t34-55.5T245,59q55,0 89,17t53.5,58T417,246t3.5,110t-34,55T307,427ZM265,690q15,0 19.5-6t2.5-18l-8-55q-1-12-7.5-18T252,587H224q-24,0-21,23l8,56q2,12 8.5,18t19.5,6h26Zm169,0q15,0 19.5-6t2.5-18l-8-55q-1-12-7.5-18T421,587H393q-24,0-21,23l8,56q2,12 8.5,18t19.5,6h26Z"/>
      <glyph unicode="&#xf7;" glyph-name="gid255" horiz-adv-x="567" d="M508,327l-10-64H60l10,64H508ZM275,176q17,0 24.5-8.5T305,142l-8-49q-1-15-9.5-22T264,64H241q-17,0-23.5,8.5T213,98l7,47q2,16 10,23.5t22,7.5h23Zm49,349q18-1 25-9t4-25l-6-49q-2-15-10.5-22T313,413H291q-17,0-24.5,8.5T261,446l7,48q2,16 10,23.5t24,7.5h22Z"/>
      <glyph unicode="&#xf8;" glyph-name="gid100" horiz-adv-x="564" d="M449,563l38-22L113-75L76-53L449,563ZM307,499q82,0 130-25.5T501.5,391T504,239q-13-92-42.5-147.5t-82-80T245-13q-81,0-129.5,25.5T50,95T46,246q13,92 42.5,147.5T171,474t136,25Zm0-72q-54,0-88-16t-53.5-56.5T135,239q-10-69-3.5-108.5t34-55.5T245,59q55,0 89,17t53.5,58T417,246t3.5,110t-34,55T307,427Z"/>
      <glyph unicode="&#xf9;" glyph-name="gid114" horiz-adv-x="567" d="M186,487L137,144q-7-45 7-64t51-19q47,0 91.5,29.5T396,179l8-61Q339,53 282,20T166-13Q99-13 69.5,23.5T50,123l51,364h85Zm332,0L450,0H384l9,134l-6,14l46,339h85ZM205,737L375,590l-31-38L159,677l46,60Z"/>
      <glyph unicode="&#xfa;" glyph-name="gid111" horiz-adv-x="567" d="M186,487L137,144q-7-45 7-64t51-19q47,0 91.5,29.5T396,179l8-61Q339,53 282,20T166-13Q99-13 69.5,23.5T50,123l51,364h85Zm332,0L450,0H384l9,134l-6,14l46,339h85ZM452,738l41-66L286,552l-26,39L452,738Z"/>
      <glyph unicode="&#xfb;" glyph-name="gid112" horiz-adv-x="567" d="M186,487L137,144q-7-45 7-64t51-19q47,0 91.5,29.5T396,179l8-61Q339,53 282,20T166-13Q99-13 69.5,23.5T50,123l51,364h85Zm332,0L450,0H384l9,134l-6,14l46,339h85ZM372,720L496,587l-32-33L345,655h-8L188,555l-25,38L312,720h60Z"/>
      <glyph unicode="&#xfc;" glyph-name="gid113" horiz-adv-x="567" d="M186,487L137,144q-7-45 7-64t51-19q47,0 91.5,29.5T396,179l8-61Q339,53 282,20T166-13Q99-13 69.5,23.5T50,123l51,364h85Zm332,0L450,0H384l9,134l-6,14l46,339h85ZM269,694q15,0 19.5-6t2.5-18l-8-55q-1-12-7.5-18T256,591H228q-24,0-21,23l8,56q2,12 8.5,18t19.5,6h26Zm169,0q15,0 19.5-6t2.5-18l-8-55q-1-12-7.5-18T425,591H397q-24,0-21,23l8,56q2,12 8.5,18t19.5,6h26Z"/>
      <glyph unicode="&#xfd;" glyph-name="gid119" horiz-adv-x="539" d="M523,487q-10-43-20.5-84T479,321.5T450.5,241t-34-79.5T375,81Q322-18 272-76.5t-103.5-88T51-206L35-145q38,9 72,25.5T173.5-75t64,72.5T301,106q31,61 55.5,119t44,121.5T435,487h88Zm-390,0L210,86q5-19 23-19h57L251,0H195q-22,0-37,12.5T138,45L44,487h89ZM420,734l41-66L254,548l-26,39L420,734Z"/>
      <glyph unicode="&#xfe;" glyph-name="gid104" horiz-adv-x="573" d="M384,499q53,0 85.5-23.5t43-80T509,238q-12-82-32-132T428,30.5T360-4t-89-9q-49,0-109.5,7T54,11L77,63q55-1 98-2.5T240,59q50,0 81.5,6.5t50,25.5T401,146.5T421,244q11,74 9.5,113t-17,53.5T365,425q-36,0-72-16t-73-46t-79-73l-17,40q26,46 65.5,84T279,475.5T384,499ZM219,700L193,513q-4-28-8-54t-12-55l2-10L128,50l-6-14q-1-28-4-54t-8-55L92-201H8L134,700h85Z"/>
      <glyph unicode="&#xff;" glyph-name="gid120" horiz-adv-x="539" d="M523,487q-10-43-20.5-84T479,321.5T450.5,241t-34-79.5T375,81Q322-18 272-76.5t-103.5-88T51-206L35-145q38,9 72,25.5T173.5-75t64,72.5T301,106q31,61 55.5,119t44,121.5T435,487h88Zm-390,0L210,86q5-19 23-19h57L251,0H195q-22,0-37,12.5T138,45L44,487h89ZM237,690q15,0 19.5-6t2.5-18l-8-55q-1-12-7.5-18T224,587H196q-24,0-21,23l8,56q2,12 8.5,18t19.5,6h26Zm169,0q15,0 19.5-6t2.5-18l-8-55q-1-12-7.5-18T393,587H365q-24,0-21,23l8,56q2,12 8.5,18t19.5,6h26Z"/>
      <glyph unicode="&#x2013;" glyph-name="gid208" horiz-adv-x="591" d="M518,285l-9-65H61l9,65H518Z"/>
      <glyph unicode="&#x2014;" glyph-name="gid209" horiz-adv-x="895" d="M822,285l-9-65H61l9,65H822Z"/>
      <glyph unicode="&#x2018;" glyph-name="gid221" horiz-adv-x="217" d="M123,491q-17,0-23.5,7T96,522l9,59q3,24 11,48.5t19.5,49T161,725l41-14q-9-28-17.5-53T170,599q14,2 20.5-5.5T195,574l-8-55q-3-16-10.5-22T149,491H123Z"/>
      <glyph unicode="&#x2019;" glyph-name="gid222" horiz-adv-x="215" d="M181,716q17,0 23.5-7t3.5-24l-9-59q-3-24-11-48.5t-19.5-49T143,482l-41,14q9,28 17.5,53T134,608q-14-2-20.5,5.5T109,633l8,55q3,16 10.5,22t27.5,6h26Z"/>
      <glyph unicode="&#x201a;" glyph-name="gid217" horiz-adv-x="228" d="M103,109q17,0 23.5-7T130,78l-9-59q-3-23-11-48T90.5-78.5T65-125L23-111Q33-83 41-58T56,1Q42,0 35.5,7T30,26l8,55q4,17 11.5,22.5T77,109h26Z"/>
      <glyph unicode="&#x201c;" glyph-name="gid219" horiz-adv-x="369" d="M123,491q-17,0-23.5,7T96,522l9,59q3,24 11,48.5t19.5,49T161,725l41-14q-9-28-17.5-53T170,599q14,2 20.5-5.5T195,574l-8-55q-3-16-10.5-22T149,491H123Zm152,0q-17,0-23.5,7T248,522l9,59q3,24 11,48.5t19.5,49T313,725l41-14q-9-28-17.5-53T322,599q14,2 20.5-5.5T347,574l-8-55q-3-16-10.5-22T301,491H275Z"/>
      <glyph unicode="&#x201d;" glyph-name="gid220" horiz-adv-x="368" d="M333,716q17,0 23.5-7t3.5-24l-9-59q-3-24-11-48.5t-19.5-49T295,482l-41,14q9,28 17.5,53T286,608q-14-2-20.5,5.5T261,633l8,55q3,16 10.5,22t27.5,6h26Zm-152,0q17,0 23.5-7t3.5-24l-9-59q-3-24-11-48.5t-19.5-49T143,482l-41,14q9,28 17.5,53T134,608q-14-2-20.5,5.5T109,633l8,55q3,16 10.5,22t27.5,6h26Z"/>
      <glyph unicode="&#x201e;" glyph-name="gid218" horiz-adv-x="380" d="M255,109q17,0 23.5-7T282,78l-9-59q-3-24-11-48.5t-19.5-49T217-125l-41,14q9,28 17.5,53T208,1q-14-2-20.5,5.5T183,26l8,55q3,16 10.5,22t27.5,6h26Zm-152,0q17,0 23.5-7T130,78l-9-59q-3-24-11-48.5t-19.5-49T65-125L24-111q9,28 17.5,53T56,1Q42-1 35.5,6.5T31,26l8,55q3,16 10.5,22T77,109h26Z"/>
      <glyph unicode="&#x2022;" glyph-name="gid200" horiz-adv-x="361" d="M195,358q46,0 63-19t11-66l-2-13q-4-33-14-51t-29-25t-50-7H162q-49,0-66,19.5T86,265l2,13q4,32 14,49t29.5,24t51.5,7h12Z"/>
      <glyph unicode="&#x2039;" glyph-name="gid225" horiz-adv-x="296" d="M225,459l35-32L107,250L216,68L173,39L37,246l1,19L225,459Z"/>
      <glyph unicode="&#x203a;" glyph-name="gid226" horiz-adv-x="297" d="M111,459L247,253l-1-19L59,39L24,71L177,249L69,431l42,28Z"/>
    </font>
</defs>
</svg>
