<?xml version="1.0" standalone="no"?>
<!DOCTYPE svg PUBLIC "-//W3C//DTD SVG 1.1//EN" "http://www.w3.org/Graphics/SVG/1.1/DTD/svg11.dtd">
<svg xmlns="http://www.w3.org/2000/svg">
  <defs>
    <font id="Exo2" horiz-adv-x="503">
      <font-face font-family="Exo 2 Light" units-per-em="1000" panose-1="0 0 0 0 0 0 0 0 0 0" ascent="999" descent="-201" alphabetic="0"/>
      <glyph unicode=" " glyph-name="gid185" horiz-adv-x="225"/>
      <glyph unicode="!" glyph-name="gid195" horiz-adv-x="264" d="M220,695L175,377L146,208H95l17,169l45,318h63ZM115,107q13,0 18.5-6.5T136,81l-7-58q-2-12-8.5-17.5T103,0H84Q58,0 61,26l8,58q4,23 27,23h19Z"/>
      <glyph unicode="&quot;" glyph-name="gid227" horiz-adv-x="340" d="M321,690L287,477H242l26,213h53Zm-138,0L148,477H104l26,213h53Z"/>
      <glyph unicode="#" glyph-name="gid202" horiz-adv-x="675" d="M605,690L388,0H337L554,690h51ZM580,262l-13-44H37l14,44H580ZM354,690L137,0H86L303,690h51ZM656,499l-15-43H113l14,43H656Z"/>
      <glyph unicode="$" glyph-name="gid243" horiz-adv-x="563" d="M334,702q50-1 100-5t98-13l-8-48q-37,3-69,4.5t-62.5,2T326,643q-34,0-62-2.5T215,628t-35-33.5T160,528q-4-35 1-57.5t22.5-37T235,405l141-55q52-20 79-45t34.5-59.5T490,160Q480,86 449.5,49t-83-49T237-12q-30,0-83.5,3T34,5l8,48q51-2 85.5-3.5t61.5-2T241,47q60,1 97.5,9t58,33.5T424,167q6,39 0.5,61t-24,36.5T348,292L205,348q-48,19-74.5,44.5T96,453t-2,82q8,57 27.5,91T172,676t71.5,21t90.5,5ZM277,352l34-3L211-130H176L277,352ZM408,801L315,349l-34,3l92,449h35Z"/>
      <glyph unicode="%" glyph-name="gid264" horiz-adv-x="888" d="M753,690L198,0H147L702,690h51ZM261,661q-44,0-70.5-16.5t-40.5-53T128,495q-8-57-3.5-92.5T149,351t59-16q45,0 71,16.5T319.5,405T342,501q8,58 4,93.5t-24,51T261,661Zm-2,42q60,0 92.5-22T393,613.5T392,495q-10-71-31-115.5T304,314t-94-21t-90.5,22T78,383t1,118q11,72 31,116t56,65t93,21ZM695,359q-45,0-71.5-17t-40-53.5T561,192q-7-57-3-92.5T582,48t59-16q45,0 71,17t41,54t22,95q8,59 4.5,94t-24,51T695,359Zm-2,41q59,0 91.5-21.5T826,311t-2-119q-10-71-31-115T736,12T643-9q-59,0-91.5,21.5T510.5,80T512,198t30,116.5t56.5,65T693,400Z"/>
      <glyph unicode="&amp;" glyph-name="gid230" horiz-adv-x="768" d="M383,699q37,0 77.5-4T547,678l-11-49q-35,8-75.5,12T383,645q-61,0-100-10t-60-38.5T193,512q-9-51 2-79.5t45-39T332,383H734l-9-51H326q-65,0-107.5-11.5t-66.5-44T117,181q-7-42-2-68.5t20.5-41t40.5-20T235,46q92,0 152.5,31T487,170q43,65 57,153t12,197h59q1-120-15-212.5T540,145q-33-55-78-89T361.5,6T239-11Q164-12 118.5,5.5T56,64.5T48,177q9,58 31.5,97t60,59.5T231,356l1,5q-46,3-72,23t-33,55.5t1,84.5q13,73 44,111t83,51t128,13Z"/>
      <glyph unicode="&apos;" glyph-name="gid228" horiz-adv-x="202" d="M183,690L148,477H104l26,213h53Z"/>
      <glyph unicode="(" glyph-name="gid211" horiz-adv-x="355" d="M380,791l8-34Q277,705 213,596.5T124,310q-16-113-7.5-199T160-35.5T259-133l-9-31Q127-110 80.5,8.5T61,317Q88,506 164.5,621.5T380,791Z"/>
      <glyph unicode=")" glyph-name="gid212" horiz-adv-x="355" d="M110,789q122-52 170-169t20-313Q273,119 196,4T-20-166l-6,34Q85-77 149,33.5T237,316q16,113 7.5,199.5T201,663t-99,95l8,31Z"/>
      <glyph unicode="*" glyph-name="gid201" horiz-adv-x="448" d="M300,691L271,532l81-129l-35-23L254,503L158,381l-32,25L242,532l16,159h42ZM110,597l118-44l-2-18l-11-12L94,559l16,38Zm308,0l9-41L297,523l-7,12l1,18l127,44Z"/>
      <glyph unicode="+" glyph-name="gid252" horiz-adv-x="548" d="M329,503L271,93H222l56,410h51ZM494,323l-7-49H56l7,49H494Z"/>
      <glyph unicode="," glyph-name="gid191" horiz-adv-x="219" d="M96,107q13,0 18-6t2-20l-9-64Q104-6 97-30.5t-17-49T58-127L25-116Q35-86 42-60T56,2Q45,1 40.5,7T37,23l8,60q3,13 9,18.5T75,107H96Z"/>
      <glyph unicode="-" glyph-name="gid207" horiz-adv-x="459" d="M380,277l-6-50H67l7,50H380Z"/>
      <glyph unicode="." glyph-name="gid190" horiz-adv-x="218" d="M94,107q14,0 18.5-6.5T116,81l-8-58q-2-12-8-17.5T82,0H60Q33,0 37,26l8,58q3,23 27,23H94Z"/>
      <glyph unicode="/" glyph-name="gid203" horiz-adv-x="514" d="M538,690L40-64H-17L481,690h57Z"/>
      <glyph unicode="0" glyph-name="gid131" horiz-adv-x="594" d="M265-13q-66,0-111,23.5t-67,72T65,206q0,61 6.5,130t23,134T143,587.5t80.5,84T344,703q67,0 111.5-23.5t67-71.5T545,485q0-63-6-132.5T516.5,218t-48-117t-81-83T265-13Zm2,58q61,0 100,29.5t62.5,78T464,259t14.5,117T482,483q0,86-35.5,124T341,645q-59,0-97.5-29.5t-62-78T146.5,431t-15-117T128,207q0-86 35-124T267,45Z"/>
      <glyph unicode="1" glyph-name="gid132" horiz-adv-x="387" d="M326,690L229,0H164l81,574q2,13 4.5,27t6.5,28L73,571l-2,47l190,72h65Z"/>
      <glyph unicode="2" glyph-name="gid133" horiz-adv-x="554" d="M320,702q59,0 102-9t67.5-34.5T514,583q0-55-22-103.5t-59.5-93T349,296L107,60q28,1 56,2t55,1H470L461,0H15l6,42q1,9 3.5,16T33,71L282,315q44,42 81.5,85.5t60,87.5T446,575q0,31-15.5,45.5t-44.5,19T318,644q-33,0-62.5-1.5T193,637t-77-12l-3,51q49,11 84.5,16.5t65,7.5t57.5,2Z"/>
      <glyph unicode="3" glyph-name="gid134" horiz-adv-x="548" d="M307,703q104,0 148.5-31T500,573q0-47-14.5-92.5t-43-77T371,366l-1-4q53-9 78-43t25-86q0-74-30.5-128t-88-84.5T215-13q-42-1-93.5,3.5T16,5L26,55q32-3 63.5-6T152,45t57,1q96,7 147.5,56.5T408,235q0,27-11.5,50.5t-40,38T277,338l-130,1l7,50l127,1q81,1 118,47t37,128q0,47-30.5,63T295,644q-41,0-88-3t-84-6l-4,50q53,9 99.5,13.5T307,703Z"/>
      <glyph unicode="4" glyph-name="gid135" horiz-adv-x="603" d="M376,690L114,275q-12-19-6.5-30.5T131,233H549l-7-47l-94-7H103q-29,0-47,15.5T35.5,234T48,281L308,690h68ZM508,559L429,0H367l62,444l29,115h50Z"/>
      <glyph unicode="5" glyph-name="gid136" horiz-adv-x="530" d="M508,690l-12-56H199L158,418l65-3q76-4 129.5-19t81-49.5T461,250q0-120-65.5-188T209-12q-40-2-88,3.5T20,14L33,66q44-12 86-17t76-3q98,5 150.5,56T398,249q0,47-24,70t-74.5,31.5T170,361l-46,3q-14,2-22,11.5T97,399l56,291H508Z"/>
      <glyph unicode="6" glyph-name="gid137" horiz-adv-x="567" d="M253-12Q187-12 146,5.5T85,62T63.5,164T74,319q18,122 42.5,198t61,116t86,54.5T378,702q14,0 37.5-0.5t52-3.5T520,688l-14-48q-20,3-40,4t-42,1t-49,0q-52,0-90-12.5T220,585T173.5,485T139,316q-10-74-12.5-125.5t9-84T177,59t84-15q68,0 107.5,32t56,87.5T441,290q0,48-21.5,75.5T333,393q-54,0-107-26.5T112,269l-1,42q38,52 74.5,81.5t76,42T348,447q83,0 119.5-37T504,304q0-96-25-167T399,27T253-12Z"/>
      <glyph unicode="7" glyph-name="gid138" horiz-adv-x="506" d="M478,690q30,0 38-14t-4-41L205,0H138L423,589q6,12 12.5,23.5T449,635L88,634l4,56H478Z"/>
      <glyph unicode="8" glyph-name="gid139" horiz-adv-x="608" d="M356,699q88,1 132.5-19T546,619.5T550,515q-7-45-21.5-79T490,382.5T430,359l-3-4q42-4 64-27t27.5-63T515,169q-8-63-32-102T408,10T265-9Q178-9 129.5,10t-65,59.5T57,175q8,54 23.5,93.5t43,62T195,357l2,4q-50,6-68,47.5T121,521q9,62 32,101.5T224,681t132,18ZM310,332q-51,0-84.5-6t-54-21.5t-32.5-45T121,181q-7-50 2-79t44-42T270,47q67,0 105,14t56,44t24,82q7,46 4,74.5T440,305t-47.5,21T310,332Zm43,313q-64,0-99-13t-51-42t-23-80q-7-52 1.5-79.5t41-37T319,384q48,0 78.5,6T446,410t27.5,39.5T489,515q7,49-0.5,77.5t-39,40.5T353,645Z"/>
      <glyph unicode="9" glyph-name="gid140" horiz-adv-x="567" d="M331,702q68,0 109.5-19.5T501,621t19-109T505,351q-18-115-42.5-186.5t-60-110T317,2T198-12q-26,0-64.5,2.5T51,3L62,50q22-2 43-3t42-2t44-1q61,1 102.5,14.5t68.5,47T407,200t34,157q13,78 16.5,132.5T450,579t-40.5,51T327,646q-61,0-97.5-20T174,566T146,464q-8-62 0-99.5T182,311t77-15q38,2 69.5,13.5t65.5,38T469,421l1-40q-36-50-70-80t-70.5-43T247,243q-53-2-88.5,13T104,301T81,373.5T85,471q8,59 25.5,103T158,646t73,42t100,14Z"/>
      <glyph unicode=":" glyph-name="gid192" horiz-adv-x="224" d="M154,437q14,0 18.5-6.5T176,411l-8-58q-2-12-8-17.5T142,330H120q-27,0-23,26l8,58q3,23 27,23h22ZM108,107q14,0 18.5-6.5T130,81l-8-58q-2-12-8-17.5T96,0H74Q47,0 51,26l8,58q3,23 27,23h22Z"/>
      <glyph unicode=";" glyph-name="gid193" horiz-adv-x="228" d="M144,437q14,0 18.5-6.5T166,411l-8-58q-2-12-8-17.5T132,330H110q-27,0-23,26l8,58q3,23 27,23h22ZM101,107q13,0 18-6t2-20l-9-64q-3-23-10-47.5t-17-49T63-127L30-116Q40-86 47-60T61,2Q50,1 45.5,7T42,23l8,60q3,13 9,18.5T80,107h21Z"/>
      <glyph unicode="&lt;" glyph-name="gid258" horiz-adv-x="530" d="M486,499l-8-55L112,296L436,148l-7-51L52,271l7,52L486,499Z"/>
      <glyph unicode="=" glyph-name="gid256" horiz-adv-x="588" d="M527,422l-7-49H89l7,49H527ZM498,210l-7-49H60l7,49H498Z"/>
      <glyph unicode="&gt;" glyph-name="gid257" horiz-adv-x="529" d="M102,500L479,323l-8-52L45,98l7,55L418,300L94,450l8,50Z"/>
      <glyph unicode="?" glyph-name="gid197" horiz-adv-x="498" d="M306,712q98,0 145.5-39T488,554q-6-45-29-77.5t-54-60T342,361t-56-65t-32-89l-55,1q7,56 30,95.5t53,70t60,57T394,485t26,66q9,59-21,83T295,658q-51,0-83-1.5t-58-4T94,646l-2,46q25,5 46,8t43.5,6t52.5,4.5t72,1.5ZM220,107q13,0 18.5-6.5T243,81l-9-57q-1-12-7.5-18T209,0H190q-26,0-23,26l8,57q4,24 27,24h18Z"/>
      <glyph unicode="@" glyph-name="gid229" horiz-adv-x="760" d="M426,632q95,0 152.5-10.5T663,578t29.5-97.5T680,309q-12-93-26-154.5T619,57T566,6T487-9q-31,0-51.5,9T404,26T390.5,67t1.5,53l46,308h63L452,103q-4-31 5-44.5T492,45q30,0 50.5,12.5t34,42.5T600,182.5T621,314q11,76 13.5,125.5t-7,78t-33,41t-65,16T425,578H117l5,47q46,2 98,3.5T324.5,631T426,632ZM304,447q46,0 93-4.5T501,428l-28-39q-59,4-92,5t-57,1q-54,0-89-7t-56-25t-33.5-52.5T123,221q-10-60-9-99.5T133,62t59-20q56,0 109,35.5T414,182l11-36q-34-44-71-80T274,9T180-12q-46,0-73.5,17T66,53.5T53,129t9,98q12,69 30,112.5t46.5,67t69,32T304,447Z"/>
      <glyph unicode="A" glyph-name="gid1" horiz-adv-x="612" d="M400,690q9,0 16-5.5t8-14.5L561,0H495L383,581q-2,15-4,29.5T374,639H344q-6-14-13-29t-13-29L43,0H-27L299,672q3,10 10,14t16,4h75Zm82-404l-8-58H124l8,58H482Z"/>
      <glyph unicode="B" glyph-name="gid10" horiz-adv-x="615" d="M359,698q83,0 131.5-16t66-56T564,515q-10-73-42.5-111.5T426,359l-1-4q76-7 99.5-56T536,169Q526,99 500,60T425.5,6.5T299-8q-58,0-99,0.5T124-5T51,0L71,52q22-1 80.5-2T290,49q61,0 98.5,11t57,40.5T472,184q9,59-2.5,90.5t-45.5,44T328,332H111l8,51H331q55,1 90,12t53.5,39.5T500,514q8,53-3.5,80.5t-45.5,37T357,641q-48,0-87,0t-67,0t-45-1l-10,50q34,4 64,5.5t65,2t82,0.5Zm-147-8L115,0H51l97,690h64Z"/>
      <glyph unicode="C" glyph-name="gid11" horiz-adv-x="563" d="M384,702q43,0 74.5-2t56.5-6t52-12l-12-49q-28,4-53,6.5T449.5,643T384,644q-57,0-97-15t-68.5-49t-47-92T142,342q-16-111-7.5-175.5t47-92T292,46q64,0 107.5,3T485,58l5-49Q446-2 401.5-7T292-12q-98,0-152,36.5t-69.5,116T73,348q14,98 37.5,166T170,623.5t88.5,60T384,702Z"/>
      <glyph unicode="D" glyph-name="gid13" horiz-adv-x="661" d="M375,699q101,0 157-34t72-112t-2-211q-15-107-40-176T500,59T409,6T280-9Q223-9 163.5-6.5T51,0L86,52q44-1 95.5-2T279,49q61,0 103.5,13t72,46t48,91.5T534,348q12,87 10,144.5t-20.5,90t-55,46T374,642q-31,0-67-0.5T235.5,640T172,638l-24,52q34,3 73.5,5t79,3t74.5,1Zm-161-9L117,0H51l97,690h66Z"/>
      <glyph unicode="E" glyph-name="gid15" horiz-adv-x="554" d="M260,691q50,0 100.5,0t100-1.5T557,685l-9-51H269q-37,0-56-18t-24-55L129,126q-5-34 10-52t50-18H466L465,5q-46-3-94-4T275-0.5T180-1Q115-1 84.5,33.5T62,125l64,454q7,51 41,81.5T260,691ZM118,392H474l-7-51l-357-1l8,52Z"/>
      <glyph unicode="F" glyph-name="gid20" horiz-adv-x="535" d="M264,691q73,0 146.5-1T552,685l-9-51H278q-38,0-59-16.5T193,561L114,0H49l80,576q8,55 43.5,85T264,691ZM119,383H468l-7-50l-349-1l7,51Z"/>
      <glyph unicode="G" glyph-name="gid21" horiz-adv-x="623" d="M393,703q38,0 71.5-2t64.5-6.5T589,682l-10-48q-31,4-61,6t-59,3t-59,1q-63,0-107-14t-73.5-47.5t-48-92T141,342q-12-108-4.5-173.5t38.5-94T266,46q40,0 74.5,14.5t67,40.5T474,160l7-45q-25-30-51.5-53.5T374,21.5T313-4t-66-9q-76,0-119.5,37.5T71,141.5T73,348q14,104 39,173t64,108.5T268.5,686T393,703ZM567,400L510,0H463l5,112l-2,17l37,271h64Z"/>
      <glyph unicode="H" glyph-name="gid22" horiz-adv-x="663" d="M214,690L117,0H51l97,690h66ZM531,397l-7-57H157l8,57H531Zm96,293L530,0H465l97,690h65Z"/>
      <glyph unicode="I" glyph-name="gid23" horiz-adv-x="250" d="M214,690L117,0H51l97,690h66Z"/>
      <glyph unicode="J" glyph-name="gid28" horiz-adv-x="333" d="M300,690L221,133q-9-70-46-105.5T76-8Q64-8 48.5-6.5T18-2.5T-7,3L6,48H56q44,0 69.5,22T157,134l77,556h66Z"/>
      <glyph unicode="K" glyph-name="gid29" horiz-adv-x="581" d="M600,690L351,400q-9-10-19-20t-23-20v-3q7-9 14.5-20T337,315L518,0H443L237,362L520,690h80Zm-387,0L182,466q-4-29-9.5-54T158,358q1-27-1-53t-6-51L116,0H51l97,690h65Zm69-304l-7-53H138l7,53H282Z"/>
      <glyph unicode="L" glyph-name="gid30" horiz-adv-x="506" d="M211,690L133,126q-5-32 9.5-51T193,56H451L449,5Q382,1 313.5,0T178-1q-37,0-64.5,15.5T74,59t-6,69l77,562h66Z"/>
      <glyph unicode="M" glyph-name="gid31" horiz-adv-x="869" d="M786,690q14,0 21-8.5t6-22.5L749,0H683l64,635H726L471,93q-5-11-12-16t-19-5H374q-12,0-19,6.5T345,96L239,635H217L102,0H37L158,662q3,14 10.5,21t20.5,7h77q11,0 18-6.5t8-17.5l91-450q5-24 8.5-47.5T399,122h22q10,24 21,48t21,46L676,668q6,12 13,16.5t19,4.5l78,1Z"/>
      <glyph unicode="N" glyph-name="gid32" horiz-adv-x="698" d="M662,690L568,26q-2-13-8.5-19.5T540,0H474q-12,0-19,6T444,24L248,548q-7,18-14,40t-13,41H201q-2-21-4-42.5T192,543L117,0H51l93,664q3,14 10,20t20,6h63q12,0 19-6t11-18L458,155q8-21 16.5-45.5T490,62h22q3,24 5,47.5t6,47.5l74,533h65Z"/>
      <glyph unicode="O" glyph-name="gid34" horiz-adv-x="664" d="M387,703q95,0 149.5-35t71-114T605,342q-13-99-36.5-167.5T509,65T420,5.5T295-13q-95,0-150.5,34.5T72,135t1,213q14,98 37,165.5T169.5,623t90,61T387,703Zm-4-59q-76,0-123.5-28T185,522T142,342q-16-111-7-175.5T183,74T295,46q76,0 123,28.5T493.5,169T537,348q17,113 8,177.5T497,617T383,644Z"/>
      <glyph unicode="P" glyph-name="gid42" horiz-adv-x="585" d="M377,699q78,0 123-20t60.5-66.5T564,485q-11-85-38-130t-74.5-62T327,276q-39,0-75.5,1.5T185,282t-51,5.5T104,292l5,41q52,0 107.5,0T325,333q58,0 92.5,14T471,394.5T499,491q9,60-0.5,93T459,629t-84,12q-80,0-138.5-0.5T157,638l-9,52q37,4 69.5,6t69.5,2.5t90,0.5Zm-163-9L117,0H51l97,690h66Z"/>
      <glyph unicode="Q" glyph-name="gid44" horiz-adv-x="664" d="M387,703q95,0 149.5-35t71-114T605,342q-13-99-36.5-167.5T509,65T420,5.5T295-13q-95,0-150.5,34.5T72,135t1,213q14,98 37,165.5T169.5,623t90,61T387,703ZM244-46q51-30 110.5-49.5T485-126l-25-66q-74,15-134.5,43T218-85l26,39ZM383,644q-76,0-123.5-28T185,522T142,342q-16-111-7-175.5T183,74T295,46q76,0 123,28.5T493.5,169T537,348q17,113 8,177.5T497,617T383,644Z"/>
      <glyph unicode="R" glyph-name="gid45" horiz-adv-x="614" d="M377,699q73,0 118.5-18T560,619.5T568,498q-8-55-26.5-92.5T492,348t-78-27l-1-4q18-5 32-18.5t23.5-34T483,217L527,0H460L418,218q-8,43-29.5,60T332,296q-61,1-105,1.5t-73.5,1T105,300l9,53H330q55,1 89.5,14t54,45T501,501q8,56-1,86t-39,42t-85,12q-82,0-140-0.5T157,639l-9,51q37,4 70,6t71,2.5t88,0.5Zm-165-9L115,0H51l97,690h64Z"/>
      <glyph unicode="S" glyph-name="gid46" horiz-adv-x="558" d="M330,702q50-1 100.5-5T528,684l-7-48q-38,3-69.5,4.5t-62.5,2T323,643q-34,0-62.5-2.5T211,628t-35-33.5T157,528q-4-35 0.5-57.5t22-37T232,405l140-55q52-20 79-45t35-59.5t1-85.5Q476,86 445.5,49T363,0T233-12q-30,0-83,3T30,5l8,48q52-2 86.5-3.5t61-2T238,47q59,1 96.5,9t58,33.5T421,167q5,39 0,61t-23.5,36.5T344,292L202,348q-48,19-74.5,44.5T93,453t-2,82q8,57 27.5,91t50,50t71,21t90.5,5Z"/>
      <glyph unicode="T" glyph-name="gid47" horiz-adv-x="568" d="M372,690L275,0H210l97,690h65Zm230,0l-8-58H69l8,58H602Z"/>
      <glyph unicode="U" glyph-name="gid48" horiz-adv-x="665" d="M634,690L574,260q-14-99-46.5-159T439,14T297-13q-88,0-140,28T87,103.5T83,263l59,427h67L148,260q-10-80-0.5-127T193,66T295,46q67,0 110,21t67.5,69T509,263l59,427h66Z"/>
      <glyph unicode="V" glyph-name="gid53" horiz-adv-x="599" d="M635,690L321,18Q314,0 294,0H223q-10,0-16,6t-8,15L72,690h67l99-565q4-19 7-37.5T250,50h26q7,19 15.5,39T309,128L566,690h69Z"/>
      <glyph unicode="W" glyph-name="gid54" horiz-adv-x="937" d="M962,690L712,19q-4-9-11-14T683,0H605q-10,0-17,6.5T580,23L533,564q-1,20-3,38t-4,37H504q-7-19-14-39t-14-40L279,20q-3-10-10.5-15T251,0H173q-10,0-17.5,6.5T147,22L84,690h67l48-561q2-19 2.5-39T203,49h26q8,21 14.5,42T257,132L454,668q6,22 28,22h75q10,0 16.5-7t7.5-17l50-537q2-20 3.5-40T637,49h26q6,20 13,41t14,40L893,690h69Z"/>
      <glyph unicode="X" glyph-name="gid55" horiz-adv-x="602" d="M166,690L309,352L63,0H-13L241,358L98,690h68ZM360,385l-8-52H265l8,52h87ZM618,690L380,358L534,0H466L313,366L545,690h73Z"/>
      <glyph unicode="Y" glyph-name="gid56" horiz-adv-x="554" d="M595,690L297,240H239L67,690h67L249,382q6-17 12.5-36T272,308h7q9,18 21,39t22,38L523,690h72ZM307,291L267,0H200l42,291h65Z"/>
      <glyph unicode="Z" glyph-name="gid58" horiz-adv-x="559" d="M481,634l74-1L87,56L15,57L481,634ZM480,57L471,0H7l8,57H480Zm83,633l-8-57H100l8,57H563Z"/>
      <glyph unicode="[" glyph-name="gid215" horiz-adv-x="319" d="M343,768l-6-44H231q-6,0-11.5-4.5T213,708L99-108q-2-13 9-13H218l-6-44H78q-20,0-32,12t-9,35L155,724q3,20 16.5,32T206,768H343Z"/>
      <glyph unicode="\" glyph-name="gid204" horiz-adv-x="499" d="M134,690L423-64H371L82,690h52Z"/>
      <glyph unicode="]" glyph-name="gid216" horiz-adv-x="319" d="M243,768q20,0 32-13.5t9-33.5L166-121q-3-19-17-31.5T115-165H-22l5,44H89q6,0 12,5t7,11L223,711q2,13-11,13H103l6,44H243Z"/>
      <glyph unicode="^" glyph-name="gid262" horiz-adv-x="414" d="M279,592L405,385l-29-18L257,544h-8L76,367L50,386L233,592h46Z"/>
      <glyph unicode="_" glyph-name="gid210" horiz-adv-x="436" d="M402,0l-8-50H-42l8,50H402Z"/>
      <glyph unicode="`" glyph-name="gid274" horiz-adv-x="301" d="M127,718L283,571l-25-29L91,673l36,45Z"/>
      <glyph unicode="a" glyph-name="gid60" horiz-adv-x="570" d="M303,497q24,0 51-1.5t54-4.5t54-6t52-8l-28-40q-55,2-96,4t-69,2q-54,0-88.5-7.5T177,407t-33.5-61.5T121,241q-11-76-9-119t20.5-60.5T190,44q35,0 73,16t79,47t82,75l11-36q-31-46-73-81.5t-88.5-56T179-12q-59,0-90,25.5T51,96t7,151q12,79 30.5,128.5t47,76t69.5,36t98,9.5Zm147-20h64L447,0H397l10,117l-7,7l50,353Z"/>
      <glyph unicode="b" glyph-name="gid68" horiz-adv-x="569" d="M372,497q56,0 88.5-23t42-79T498,238q-12-81-30.5-131t-46-76T356-4t-89-9q-29,0-58,2.5t-57.5,7T96,7.5T43,22L76,56q35-5 66.5-8.5t58-5T245,41q52,0 84.5,8t52,30T413,140.5T433,243q11,78 8,121t-22.5,60T358,441q-42,0-98.5-33T133,312l-12,32q26,29 57,56.5t64,49T308,484t64,13ZM200,700L172,498q-5-36-10.5-65.5T147,372l5-13L105,19L42,22l96,678h62Z"/>
      <glyph unicode="c" glyph-name="gid69" horiz-adv-x="481" d="M310,497q32,0 73.5-4.5T458,475l-12-41q-29,5-65.5,6.5T321,442q-64,0-105-17t-64-60.5T118,240q-11-80-1-122.5T161,59t96-16q16,0 40,1t52,3t52,6l5-43Q370-1 328-6.5T247-12q-84,0-131,25.5t-62.5,82T51,245q14,93 43.5,148.5T176,473t134,24Z"/>
      <glyph unicode="d" glyph-name="gid71" horiz-adv-x="568" d="M297,497q49,0 104-5.5T504,477l-19-39q-54,2-95,4t-72,2q-53,0-87.5-8T175,407t-33-61T120,241q-10-72-8.5-115T130,63.5T185,44q55,0 112.5,34.5T422,182l11-36q-22-29-51-57T319,38T247,1.5T169-12q-52,0-81,26.5T51.5,98T56,247q12,79 31,128.5T134,451t68,36t95,10ZM544,700L445,0H396l10,118l-6,6l46,339l8,16q1,26 3,49t6,50l17,122h64Z"/>
      <glyph unicode="e" glyph-name="gid73" horiz-adv-x="533" d="M313,497q70,0 111.5-16T482,431.5t4-88.5q-8-44-28.5-70t-56-39T311,216L72,192l6,49l232,24q37,4 59.5,12T405,302t19,47q9,43-3.5,63T379,437.5T308,443q-45,0-76.5-7.5T178,408t-36-58.5T118,249q-12-85-1.5-129.5t45-61T254,42q28,0 60,2t62.5,5T432,55l5-43Q415,4 379.5-1.5T307-9.5T242-12q-82,0-128,27.5T54,101T53,251q11,74 30,122t50,75t75,38t105,11Z"/>
      <glyph unicode="f" glyph-name="gid78" horiz-adv-x="368" d="M309,716q16,0 39.5-0.5t48-1.5t43.5-4l-9-47H329q-52,0-77-20t-33-74L129-66q-9-67-43.5-102.5T-17-204q-20,0-48.5,1t-57.5,5l9,47h77q50,0 73.5,20T67-57l89,635q10,67 46.5,102.5T309,716Zm62-231l-8-52H49l6,47l93,5H371Z"/>
      <glyph unicode="g" glyph-name="gid79" horiz-adv-x="573" d="M455,477h64L448,4q-6-49-24.5-88t-50-67.5t-76.5-44T192-214q-16-1-47-1t-65.5,3T17-203l7,43q24-1 49-1.5t54-0.5t63,2q77,5 128.5,40T384-7q8,43 15.5,76T420,125l-17,9l52,343ZM298,497q35,0 72-2.5t74.5-7T515,477l-28-40q-55,2-96,4t-72,2q-53,0-87-7.5T177.5,407t-33-61.5T122,241q-11-75-9.5-118T133,62t58-18q35,0 73,16t78.5,46.5T424,182l14-33q-32-47-74.5-83t-90-57T178-12q-55,0-86.5,25T52,94.5T58,247q12,80 31,129t47,75.5t68,36t94,9.5Z"/>
      <glyph unicode="h" glyph-name="gid80" horiz-adv-x="574" d="M391,497q62,0 92.5-34T505,363L453,0H390l50,349q6,52-9.5,72.5T373,442q-50,0-103-31.5T144,320l1,50q70,61 130,94t116,33ZM203,700L175,497q-4-36-12-74t-15-63l5-15L104,0H41l99,700h63Z"/>
      <glyph unicode="i" glyph-name="gid81" horiz-adv-x="236" d="M176,485L108,0H46l68,485h62Zm11,204q11,0 16-6.5t3-16.5l-8-59q-3-19-22-19H147q-23,0-20,23l8,58q3,20 22,20h30Z"/>
      <glyph unicode="j" glyph-name="gid88" horiz-adv-x="236" d="M176,485L105-26q-5-36-19.5-69.5t-37-61T-2-206l-34,29q33,34 52,70.5T42-22l72,507h62Zm11,204q11,0 16-6.5t3-16.5l-8-59q-3-19-22-19H147q-23,0-20,23l8,58q3,20 22,20h30Z"/>
      <glyph unicode="k" glyph-name="gid90" horiz-adv-x="509" d="M203,700L155,344q-4-32-10.5-58T127,229q2-7 4-13.5t3-12.5L104,0H42l98,700h63ZM484,485q-26-73-68.5-124t-94-85.5T216,217.5T115,176l-4,54q74,26 136,63.5T354,379t65,106h65ZM303,279q9-15 18-31.5T338,214L438,0H370L252,259l51,20Z"/>
      <glyph unicode="l" glyph-name="gid91" horiz-adv-x="283" d="M204,700L123,119q-6-36 9-52.5T182,50h53l2-48q-8-3-23-5.5T183.5-7T158-8Q105-8 77.5,22.5T58,110l83,590h63Z"/>
      <glyph unicode="m" glyph-name="gid92" horiz-adv-x="873" d="M158,485L148,361l4-16L104,0H41l69,485h48Zm208,12q65,0 93.5-35.5T479,363L428,0H367l49,349q7,49-9.5,71T345,442q-28,0-56.5-13t-63-39T144,322v48q63,62 116.5,94.5T366,497Zm325,0q65,0 93.5-35.5T804,363L753,0H691l49,349q6,52-11.5,72.5T669,442q-28,0-56-12.5T551.5,391T470,322v48q63,63 116,95t105,32Z"/>
      <glyph unicode="n" glyph-name="gid93" horiz-adv-x="574" d="M391,497q41,0 68.5-15T499,437t6-74L453,0H390l50,349q6,52-9.5,72.5T373,442q-50,0-103-31.5T144,322l1,48q70,61 130,94t116,33ZM160,485L149,361l3-16L104,0H41l69,485h50Z"/>
      <glyph unicode="o" glyph-name="gid95" horiz-adv-x="562" d="M306,497q81,0 127-25.5t61-82T496,239q-13-92-42-147.5t-80-80T243-13T116,12.5t-62.5,82T51,245q13,92 42,147t80.5,80T306,497Zm0-55q-59,0-96.5-18t-59-62T118,239q-11-75-3-118t39-61t89-18q59,0 96.5,18.5t59,63T431,245q11,76 3,118.5T395,424t-89,18Z"/>
      <glyph unicode="p" glyph-name="gid103" horiz-adv-x="571" d="M378,497q59,0 90-25t37.5-81.5T499,238q-12-80-30.5-129T422,33.5T353-3T257-13q-23,0-49.5,2t-53,4.5T102-0.5T52,7L70,46q56-2 97-4t69-2q54,0 88.5,7.5t55.5,29T413,138t22,105q11,76 9,119t-20.5,61T366,441q-27,0-66-16.5t-82-47T133,302l-10,36q23,31 54.5,59.5T244,448t70,35.5T378,497ZM160,485L150,366l6-6L109,22L101,5q-1-26-2.5-48.5T93-93L75-209H11l99,694h50Z"/>
      <glyph unicode="q" glyph-name="gid105" horiz-adv-x="568" d="M284,497q30,0 59.5-2.5t58-7t56-10.5T511,464l-33-36q-35,6-66,9t-57.5,4.5T307,443q-50,0-82.5-8T172,405.5T140.5,344T120,241q-10-75-7.5-118T134,62t60-18q38,0 71,14t70.5,44.5T423,181l10-35q-34-43-73.5-78.5T275,10T177-12q-50,0-82,23T52.5,90.5T56,247q11,80 29.5,129.5t46,75.5T197,487.5t87,9.5Zm164-31l63-2L416-209H352L381-11q6,39 12.5,68.5T410,119l-9,9l47,338Z"/>
      <glyph unicode="r" glyph-name="gid106" horiz-adv-x="393" d="M158,485L148,355l4-15L104,0H41l69,485h48Zm245,12l-17-60H365q-48,0-98.5-31T144,319l-2,44q65,64 125,99t113,35h23Z"/>
      <glyph unicode="s" glyph-name="gid107" horiz-adv-x="503" d="M264,497q33,0 68-2.5t68.5-5T462,483l-8-46q-45,2-91.5,3.5T266,443q-47,0-76-3t-44-16t-20-44q-5-36 11-51.5T187,299l145-60q36-15 58.5-31t32-40t4.5-62q-7-53-35-78T317.5-4T206-11q-38,0-65,1.5T87.5-5T25,2l8,46q27-2 54-3.5t54-2T194,42q62,1 97.5,6.5t52,20T365,112q3,25-4,38.5t-23,22T299,191L155,251q-32,14-54.5,30T69,322t-5,63q7,49 31.5,73T162,490t102,7Z"/>
      <glyph unicode="t" glyph-name="gid109" horiz-adv-x="364" d="M225,631L153,119q-5-37 9-53t50-16h81l2-47q-15-4-35-6.5T222.5-7T195-8q-61,0-87.5,32T89,114l73,517h63ZM368,485l-8-52H46l6,47l95,5H368Z"/>
      <glyph unicode="u" glyph-name="gid110" horiz-adv-x="563" d="M170,485L120,136q-7-49 10-71t60-22q50,0 98.5,32T405,170l6-48Q344,55 285.5,21T170-13q-66,0-95.5,36T55,122l51,363h64Zm338,0L440,0H391l12,133l-5,15l47,337h63Z"/>
      <glyph unicode="v" glyph-name="gid115" horiz-adv-x="521" d="M506,485q-13-59-29.5-110T441,280t-39-83q-27-53-52-93.5T308,41q-11-14-22-23.5T261.5,4T228,0H169q-7,0-13.5,5T147,18L50,485h66L198,51h17q17,0 27.5,5.5T266,78q14,18 36.5,55.5T350,223q35,69 55.5,130T440,485h66Z"/>
      <glyph unicode="w" glyph-name="gid116" horiz-adv-x="837" d="M162,0q-8,0-14,5t-8,13L50,485h65L190,51h13q12,0 21.5,5.5T246,81q14,22 32,59.5T313,224q14,37 25.5,74.5t21.5,79T380,468q1,8 6.5,12.5T399,485h69q7,0 12-5t6-12L542,51h12q13,0 22.5,8T594,80q23,33 41,64.5T673,224q30,66 48,130t30,131h66q-12-55-26.5-104.5t-31.5-95T722,197q-25-52-50.5-95T630,39q-10-13-20-21.5t-22.5-13T557,0H514q-8,0-14,5t-7,13L439,441H427q-4-26-13-65.5T392.5,292T365,208q-10-29-24-59.5t-28-57T286,48q-11-18-24-28.5t-28.5-15T201,0H162Z"/>
      <glyph unicode="x" glyph-name="gid117" horiz-adv-x="517" d="M132,485L256,246L58,0H-15L191,252L67,485h65ZM300,277l-8-50H207l7,50h86ZM506,485L316,251L450,0H385L250,256L436,485h70Z"/>
      <glyph unicode="y" glyph-name="gid118" horiz-adv-x="529" d="M510,485q-10-43-22-84t-26-82.5T430.5,236T393,154.5T349,73Q298-17 251-75t-96-89T48-207L36-163q37,10 69,28.5T168-86t61.5,73.5T292,91q37,65 64.5,126.5t49,126.5T445,485h65Zm-395,0L198,72q5-21 26-21h55L249,0H197q-20,0-34.5,12T144,42L48,485h67Z"/>
      <glyph unicode="z" glyph-name="gid121" horiz-adv-x="497" d="M391,433l75-1L89,51L14,52L391,433ZM415,52L408,0H7l8,52H415Zm58,433l-8-53H72l7,53H473Z"/>
      <glyph unicode="{" glyph-name="gid213" horiz-adv-x="311" d="M331,768l-2-41q-55,0-79.5-23.5T219,632L192,444q-5-41-15-64t-29.5-34.5T92,327q33-11 50-24t22-34t0-56L129-32q-7-48 9.5-70T210-124l-3-41q-54-3-87,11T74.5-109.5T69-33l36,261q4,27-1,40T85.5,288T49,304l7,50q26,8 40.5,14t22,20.5T130,435l29,204q6,46 25,76t55,43.5t92,9.5Z"/>
      <glyph unicode="|" glyph-name="gid239" horiz-adv-x="241" d="M213,781L80-169H31L164,781h49Z"/>
      <glyph unicode="}" glyph-name="gid214" horiz-adv-x="311" d="M109,768q57,3 89.5-11.5t44-45T248,636L219,432q-4-32-1-46.5t16-20T271,352l-7-50q-24-9-39.5-16t-25-20T186,225L150-36q-6-46-24.5-75.5T71-154.5T-22-165l2,41q56,0 79.5,23.5T89-30l35,246q6,35 15.5,55.5t30.5,33T228,329q-31,7-48,18.5t-21.5,35T160,447l27,188q7,48-9,70t-72,22l3,41Z"/>
      <glyph unicode="~" glyph-name="gid260" horiz-adv-x="526" d="M159,342q29-2 54-11t48.5-20t47-20.5T357,279q30-2 43.5,12T419,338l34-3q-2-54-26.5-80.5T366,230q-33,2-60,11t-50,20t-44.5,20.5T167,293q-29,3-43.5-12.5T105,231l-34,3q2,38 14,62t31.5,35.5T159,342Z"/>
      <glyph unicode="&#xa0;" glyph-name="gid186" horiz-adv-x="225"/>
      <glyph unicode="&#xa1;" glyph-name="gid196" horiz-adv-x="246" d="M147,280L129,112L85-199H22L66,112L96,280h51Zm12,208q13,0 18.5-6t3.5-20l-8-56q-1-12-7.5-18T146,382H129q-27,0-23,26l8,57q3,23 27,23h18Z"/>
      <glyph unicode="&#xa2;" glyph-name="gid241" horiz-adv-x="504" d="M325,603q32,0 74-4.5T473,581l-11-40q-29,4-66,6t-60,2q-64,0-105-17t-64-60.5T133,347q-10-80-0.5-123T176,165t96-16q15,0 40,1t53,3.5t52,6.5l5-44q-37-11-79.5-16.5T261,94q-83,0-130.5,25.5t-62,82T67,351q14,93 43,148.5T191.5,579T325,603ZM260,126L232,0H197l29,126h34Zm98,442L261,124H226l96,444h36Zm28,122L358,566H323l28,124h35Z"/>
      <glyph unicode="&#xa3;" glyph-name="gid245" horiz-adv-x="564" d="M371,702q32,0 77-2.5t95-7.5l-8-52q-20,1-38.5,2T459,643.5t-42,1T362,645q-68,0-98.5-27.5T227,522L205,257q-4-47-15-84.5t-31.5-67T104,54q15,2 31,2t31,0H479L472,0H23l7,57q57,29 81,81t30,119l22,268q6,59 23,94t43.5,53t62,24t79.5,6Zm71-318l-8-41H68l5,41H442Z"/>
      <glyph unicode="&#xa4;" glyph-name="gid242" horiz-adv-x="597" d="M326,547q61,0 102.5-26t60-70.5T501,349q-7-57-35.5-100t-74-67T287,158q-58,0-99.5,25T126,252.5T113,355q7,57 34.5,100t73,67.5T326,547ZM155,249l27-32L86,132L58,163l97,86Zm284-18l76-85l-31-27l-74,85l29,27ZM325,509q-73,0-118.5-44.5T153,349q-7-67 28.5-109T284,196q48,0 86,19.5T431.5,271T460,355q5,45-9.5,79.5t-46,54.5T325,509ZM132,590l72-84l-31-28l-72,83l31,29Zm393-13l27-33l-91-79l-28,30l92,82Z"/>
      <glyph unicode="&#xa5;" glyph-name="gid246" horiz-adv-x="610" d="M623,690L327,255l-57,1L95,690h67L278,398q6-17 12.5-36.5T302,323h8q8,19 20.5,40T354,400L551,690h72ZM338,306L294,0H229l43,306h66ZM509,205l-7-40H72l4,40H509Zm15,112l-6-41H87l5,41H524Z"/>
      <glyph unicode="&#xa6;" glyph-name="gid240" horiz-adv-x="241" d="M213,781L157,381H108l57,400h48ZM136,231L80-169H31L87,231h49Z"/>
      <glyph unicode="&#xa7;" glyph-name="gid232" horiz-adv-x="544" d="M96,397l47-1q-9-44-11-76t10-55t42-42L351,120q22-14 39.5-29t28-33t14-40.5T432-35q-8-55-35.5-81T327-149t-99-7q-30,1-65.5,2t-73,3.5T12-144l8,50q53-3 98.5-4.5T215-101q40,0 72.5,3.5t53,19T365-27q6,39-10,61.5T312,73L153,170q-44,27-62,58.5t-15,73T96,397ZM310,703q26,0 64.5-1.5t80-4T528,691l-8-49q-31,2-57,3t-58,2t-80,1q-45,1-77-3t-50.5-19T173,577q-5-38 10.5-60.5T228,477l160-99q44-27 61-59.5T463.5,244T444,148l-48,1q10,44 11,77t-10.5,58T354,327L189,430q-31,20-51.5,41.5t-28,48.5T107,584q7,51 32.5,76.5t68,34T310,703Z"/>
      <glyph unicode="&#xa8;" glyph-name="gid272" horiz-adv-x="407" d="M191,688q11,0 15-5t2-14l-8-55q-1-10-6-15t-16-5H157q-19,0-17,19l8,56q2,9 7,14t16,5h20Zm171,0q12,0 15.5-5t2.5-14l-8-55q-1-10-6-15t-16-5H329q-19,0-17,19l8,56q2,9 7,14t15,5h20Z"/>
      <glyph unicode="&#xa9;" glyph-name="gid233" horiz-adv-x="842" d="M471,703q103,0 179.5-45.5T764,531.5T786,342q-13-102-66-182T581.5,33.5T385-13q-79,0-141.5,26.5t-105,75T78,202.5T71,348q13,101 65.5,181t138,127T471,703Zm-4-131q42,0 70.5-3T596,559l-9-36q-31,3-57.5,4T472,528q-59,0-95.5-15T320,458.5T289,345q-9-67-1.5-105.5t36-55T404,168q32,0 56.5,0.5t45,2T547,174l3-37q-31-7-64-10.5T411,123q-76,0-117.5,22T240,217t-1,134q12,83 37.5,131t72,69T467,572Zm6,96q-100,0-178-42.5T168.5,510T107,342q-11-96 21.5-168T228,62T384,22q100,0 178,42.5T689,180t60,168q13,95-19,166.5T631.5,627T473,668Z"/>
      <glyph unicode="&#xaa;" glyph-name="gid129" horiz-adv-x="445" d="M257,605q34,0 74.5-4T406,590l-21-30q-37,2-66,2.5T272,563q-45,0-72.5-8.5t-42-36T134,433q-7-53-4-80t18-36t41-9q32,0 70.5,21.5T339,390l10-25q-19-27-45-50.5T246.5,277T181,263q-38,0-63,14.5t-34,52T84,437q8,54 23,88t36.5,51t50,23t63.5,6Zm101-15h48L362,270H322l4,71l-2,5l34,244Z"/>
      <glyph unicode="&#xab;" glyph-name="gid223" horiz-adv-x="468" d="M402,457l27-25L268,250L381,64L348,41L212,246l1,15L402,457Zm-173,0l27-25L95,250L208,64L175,41L39,246l1,15L229,457Z"/>
      <glyph unicode="&#xac;" glyph-name="gid261" horiz-adv-x="588" d="M511,322l-7-50H74l7,50H511Zm0,0L485,133H434l26,181l51,8Z"/>
      <glyph unicode="&#xae;" glyph-name="gid234" horiz-adv-x="563" d="M328,702q66,0 113.5-27t72-77.5T530,476q-8-65-40-114t-83-77T289,257T173.5,285.5t-72,80.5T86,485q8,68 40.5,116.5t85,74.5T328,702Zm-71-88L219,347H187l38,267h32Zm71,64q-96,0-151.5-55.5T111,481q-6-63 14.5-108t63-69T289,280q61,0 107,26t74.5,72T504,482q7,63-13,106.5T428.5,655T328,678Zm0-61q33,0 56.5-5T420,590t7-52q-3-32-18-47t-48-21v-2q11-4 17.5-12.5T389,429l22-82H377l-20,83q-4,18-14,23.5T318,459q-41,0-61.5,0.5t-29.5,1T211,461l2,23H314q39,1 58,10.5T395,541q4,33-11,41.5T329,591q-19,0-40,0t-36.5-0.5T231,590l-6,24q28,2 51,2.5t52,0.5Z"/>
      <glyph unicode="&#xaf;" glyph-name="gid280" horiz-adv-x="400" d="M395,663l-6-48H116l6,48H395Z"/>
      <glyph unicode="&#xb0;" glyph-name="gid236" horiz-adv-x="369" d="M234,703q39,0 66-17t41-46t10-66q-5-57-44.5-90.5T213,450q-40,0-67,18.5t-39.5,48T97,580q6,56 44.5,89.5T234,703Zm-2-40q-37,0-63-24t-30-62t17-62.5T215,490q37,0 63.5,23.5T309,577q4,37-16.5,61.5T232,663Z"/>
      <glyph unicode="&#xb1;" glyph-name="gid259" horiz-adv-x="589" d="M351,517L305,192H256l45,325h50ZM487,127l-8-48H49l7,48H487Zm35,252l-7-49H84l7,49H522Z"/>
      <glyph unicode="&#xb2;" glyph-name="gid177" horiz-adv-x="396" d="M271,766q59,0 91-15.5T394,691q0-31-15-60t-39-55t-52-51L149,401q17,1 32,1t32,0l160-1l-7-43H73l4,25q1,7 3.5,12t7.5,9L240,540q26,23 48,45.5t35,46T336,680q0,26-19.5,34T264,722q-30,0-60.5-2.5T133,710l2,39q45,11 78.5,14t57.5,3Z"/>
      <glyph unicode="&#xb3;" glyph-name="gid178" horiz-adv-x="400" d="M259,767q66,0 96-16.5T385,695q0-44-19.5-79.5T303,572v-2q35-7 49.5-26T367,495q0-50-17.5-82.5T298,365t-85-15q-38,0-74,4t-65,9l11,39q20-3 40-5t41-3t43-1q54,0 79.5,24.5T314,494q0,22-15,37t-62,16l-84,1l5,38l85,2q47,0 68,24t21,66q0,27-18.5,36T249,723q-30,0-61.5-2.5T134,714l1,38q32,6 63.5,10.5T259,767Z"/>
      <glyph unicode="&#xb4;" glyph-name="gid275" horiz-adv-x="301" d="M286,719l32-49L124,542l-22,30L286,719Z"/>
      <glyph unicode="&#xb5;" glyph-name="gid263" horiz-adv-x="576" d="M180,485L130,136q-6-46 11-67t61-21q38,0 81.5,21T363,134t51,115L398,115q-24-39-58-68T267,2.5T189-13q-45,0-74,19.5T74,59t-7,73l50,353h63Zm330,0L457,102q-4-28-0.5-44.5T483,41h42V3q-17-5-36-8.5T454-9q-38,0-52.5,22T393,79l5,37l-1,16l50,353h63ZM122,81L99-86L73-197H21L72,168l50-87Z"/>
      <glyph unicode="&#xb6;" glyph-name="gid231" horiz-adv-x="592" d="M395,702q33,0 76-4t77-13l-10-39q-24,5-55,7.5T421.5,657T370,658L272,200q-84,7-133.5,38.5T71.5,326T66,462q13,94 50,146t105,73t174,21Zm-15-17L254-210H203L329,685h51Zm168,0L452,0H400l97,685h51Z"/>
      <glyph unicode="&#xb7;" glyph-name="gid199" horiz-adv-x="223" d="M124,311q14,0 18.5-6.5T146,285l-8-58q-2-12-8-17.5T112,204H90q-27,0-23,26l8,58q3,23 27,23h22Z"/>
      <glyph unicode="&#xb8;" glyph-name="gid281" horiz-adv-x="229" d="M52-45q34,3 56.5-2.5t31.5-21t4-44.5q-5-39-29-66T54-218.5T-28-225l12,34q46-1 77,22.5T97-111q3,20-7.5,27T44-76l8,31Z"/>
      <glyph unicode="&#xb9;" glyph-name="gid176" horiz-adv-x="292" d="M268,760L210,358H160l46,322q1,8 2.5,16.5T213,714L100,682l-2,36l119,42h51Z"/>
      <glyph unicode="&#xba;" glyph-name="gid130" horiz-adv-x="443" d="M260,605q89,0 120-39.5T398,431q-9-62-29-99t-56-53t-93-16q-86,0-118,39.5T83,437q13,93 52.5,130.5T260,605Zm0-41q-41,0-66.5-12.5t-39-41T133,431q-10-73 8.5-99.5T220,305q61,0 88.5,28.5T347,437q10,74-8.5,100.5T260,564Z"/>
      <glyph unicode="&#xbb;" glyph-name="gid224" horiz-adv-x="468" d="M54,40L27,65L188,248L75,434l32,22L243,251l-1-15L54,40Zm173,0L200,65L361,248L248,434l32,22L416,251l-1-15L227,40Z"/>
      <glyph unicode="&#xbc;" glyph-name="gid173" horiz-adv-x="849" d="M692,690L136,0H87L643,690h49Zm-426,0L208,276H157l47,334q2,9 3,18t4,17L91,612l-1,35l125,43h51ZM668,414L502,167q-6-9-2.5-16t14.5-7H786l-5-36l-63-5H478q-15,0-26,8.5t-13,22t9,30.5L617,414h51Zm96-79L717,0H669l37,267l18,68h40Z"/>
      <glyph unicode="&#xbd;" glyph-name="gid172" horiz-adv-x="872" d="M687,690L131,0H83L638,690h49Zm-422,0L207,276H156l47,334q2,9 3.5,18t4.5,17L91,612l-2,35l126,43h50ZM674,421q49,0 81-7t46-27t8-60q-4-35-29-69.5T704,179L546,44q19,1 36.5,1.5T619,45H789L782,0H477l4,30q1,7 3.5,12.5T491,52L649,189q49,43 75,76.5T755,330q5,33-18,40t-63,7q-21,0-41-0.5T591,374t-52-6l-3,38q50,11 81.5,13t56.5,2Z"/>
      <glyph unicode="&#xbe;" glyph-name="gid174" horiz-adv-x="942" d="M796,690L240,0H191L747,690h49Zm-550,5q83,0 112.5-21.5T380,597q-3-26-12-47.5T341.5,514T294,495l-5-3q48-7 63-34.5T362,386q-5-41-21.5-67.5t-50-39.5T203,266q-38,0-74.5,3.5T58,277l4,38q23-2 43.5-3t41.5-2t43-1q59,0 87.5,20T312,398q3,20-1.5,37t-23,27T228,472H141l5,38h85q39,1 60,14t29,31.5T330,591q6,37-13,49.5T241,653q-33,0-64.5-1.5T121,648l-2,37q34,5 65,7.5t62,2.5ZM760,414L594,167q-5-9-2-16t15-7H879l-5-36l-64-5H570q-15,0-26,8.5t-13,22t9,30.5L709,414h51Zm91-79L804,0H756l37,267l19,68h39Z"/>
      <glyph unicode="&#xbf;" glyph-name="gid198" horiz-adv-x="495" d="M283,287q-7-56-29.5-96T201,121T141.5,65T90,10.5T62-55q-9-55 21-80.5T187-161q51,0 84,1t59.5,3.5T388-151l3-45q-26-4-47-8t-43.5-6.5t-52-4T176-216Q75-216 30-174T-6-58Q0-13 23,19.5t54,60t63,56t56.5,65T229,287h54Zm10,209q13,0 19-6t4-20l-8-57q-2-13-8-18.5T282,389H264q-26,0-23,26l9,58q2,23 25,23h18Z"/>
      <glyph unicode="&#xc0;" glyph-name="gid6" horiz-adv-x="612" d="M400,690q9,0 16-5.5t8-14.5L561,0H495L383,581q-2,15-4,29.5T374,639H344q-6-14-13-29t-13-29L43,0H-27L299,672q3,10 10,14t16,4h75Zm82-404l-8-58H124l8,58H482ZM261,907L417,760l-25-29L225,862l36,45Z"/>
      <glyph unicode="&#xc1;" glyph-name="gid2" horiz-adv-x="612" d="M400,690q9,0 16-5.5t8-14.5L561,0H495L383,581q-2,15-4,29.5T374,639H344q-6-14-13-29t-13-29L43,0H-27L299,672q3,10 10,14t16,4h75Zm82-404l-8-58H124l8,58H482Zm14,622l32-49L334,731l-22,30L496,908Z"/>
      <glyph unicode="&#xc2;" glyph-name="gid4" horiz-adv-x="612" d="M400,690q9,0 16-5.5t8-14.5L561,0H495L383,581q-2,15-4,29.5T374,639H344q-6-14-13-29t-13-29L43,0H-27L299,672q3,10 10,14t16,4h75Zm82-404l-8-58H124l8,58H482ZM412,891L535,763l-25-25L392,839h-8L236,738l-20,29L366,891h46Z"/>
      <glyph unicode="&#xc3;" glyph-name="gid8" horiz-adv-x="612" d="M400,690q9,0 16-5.5t8-14.5L561,0H495L383,581q-2,15-4,29.5T374,639H344q-6-14-13-29t-13-29L43,0H-27L299,672q3,10 10,14t16,4h75Zm82-404l-8-58H124l8,58H482ZM309,875q24-2 40.5-10.5t31-19T410,826t36-11q31-3 45.5,11.5T510,871l31-2q-2-52-26.5-78.5T454,767q-26,2-44,11t-33,19.5T348,817t-32,11q-30,3-44.5-12.5T253,768l-32,3q3,55 28.5,81T309,875Z"/>
      <glyph unicode="&#xc4;" glyph-name="gid5" horiz-adv-x="612" d="M400,690q9,0 16-5.5t8-14.5L561,0H495L383,581q-2,15-4,29.5T374,639H344q-6-14-13-29t-13-29L43,0H-27L299,672q3,10 10,14t16,4h75Zm82-404l-8-58H124l8,58H482ZM312,865q11,0 15-5t2-14l-8-55q-1-10-6-15t-16-5H278q-19,0-17,19l8,56q2,9 7,14t16,5h20Zm171,0q12,0 15.5-5t2.5-14l-8-55q-1-10-6-15t-16-5H450q-19,0-17,19l8,56q2,9 7,14t15,5h20Z"/>
      <glyph unicode="&#xc5;" glyph-name="gid7" horiz-adv-x="612" d="M400,690q9,0 16-5.5t8-14.5L561,0H495L383,581q-2,15-4,29.5T374,639H344q-6-14-13-29t-13-29L43,0H-27L299,672q3,10 10,14t16,4h75Zm82-404l-8-58H124l8,58H482ZM389,919q43,0 69.5-25.5T485,827q0-47-31.5-79T374,716q-44,0-70.5,25.5T277,808q0,47 32,79t80,32Zm-1-35q-33,0-52.5-21.5T316,811q0-25 15-42.5T375,751q33,0 52.5,22T447,825q0,25-15.5,42T388,884Z"/>
      <glyph unicode="&#xc6;" glyph-name="gid9" horiz-adv-x="909" d="M623,691q94,0 160-1t128-5l-8-51H643q-33,0-55.5-18T560,560L500,126q-5-34 10-52t50-18H822L819,5Q751,1 683.5,0T548-1q-58,0-89,34t-22,92l62,445q3,22 15.5,43T543,642h-4q-16-7-35.5-23.5T464,574L34,0H-38L408,591q23,31 45.5,50.5t47.5,30t54.5,15T623,691ZM481,297l-9-56H180l19,58l282-2Zm8,96l340-1l-7-52H481l8,53Z"/>
      <glyph unicode="&#xc7;" glyph-name="gid12" horiz-adv-x="563" d="M384,702q43,0 74.5-2t56.5-6t52-12l-12-49q-28,4-53,6.5T449.5,643T384,644q-57,0-97-15t-68.5-49t-47-92T142,342q-16-111-7.5-175.5t47-92T292,46q64,0 107.5,3T485,58l5-49Q446-2 401.5-7T292-12q-98,0-152,36.5t-69.5,116T73,348q14,98 37.5,166T170,623.5t88.5,60T384,702ZM236-57q34,3 56.5-2.5t31.5-21t4-44.5q-5-39-29-66t-61-39.5T156-237l12,34q46-1 77,22.5T281-123q3,20-7.5,27T228-88l8,31Z"/>
      <glyph unicode="&#xc8;" glyph-name="gid19" horiz-adv-x="554" d="M260,691q50,0 100.5,0t100-1.5T557,685l-9-51H269q-37,0-56-18t-24-55L129,126q-5-34 10-52t50-18H466L465,5q-46-3-94-4T275-0.5T180-1Q115-1 84.5,33.5T62,125l64,454q7,51 41,81.5T260,691ZM118,392H474l-7-51l-357-1l8,52ZM262,929L418,782l-25-29L226,884l36,45Z"/>
      <glyph unicode="&#xc9;" glyph-name="gid16" horiz-adv-x="554" d="M260,691q50,0 100.5,0t100-1.5T557,685l-9-51H269q-37,0-56-18t-24-55L129,126q-5-34 10-52t50-18H466L465,5q-46-3-94-4T275-0.5T180-1Q115-1 84.5,33.5T62,125l64,454q7,51 41,81.5T260,691ZM118,392H474l-7-51l-357-1l8,52ZM497,930l32-49L335,753l-22,30L497,930Z"/>
      <glyph unicode="&#xca;" glyph-name="gid17" horiz-adv-x="554" d="M260,691q50,0 100.5,0t100-1.5T557,685l-9-51H269q-37,0-56-18t-24-55L129,126q-5-34 10-52t50-18H466L465,5q-46-3-94-4T275-0.5T180-1Q115-1 84.5,33.5T62,125l64,454q7,51 41,81.5T260,691ZM118,392H474l-7-51l-357-1l8,52ZM412,913L535,785l-25-25L392,861h-8L236,760l-20,29L366,913h46Z"/>
      <glyph unicode="&#xcb;" glyph-name="gid18" horiz-adv-x="554" d="M260,691q50,0 100.5,0t100-1.5T557,685l-9-51H269q-37,0-56-18t-24-55L129,126q-5-34 10-52t50-18H466L465,5q-46-3-94-4T275-0.5T180-1Q115-1 84.5,33.5T62,125l64,454q7,51 41,81.5T260,691ZM118,392H474l-7-51l-357-1l8,52ZM312,887q11,0 15-5t2-14l-8-55q-1-10-6-15t-16-5H278q-19,0-17,19l8,56q2,9 7,14t16,5h20Zm171,0q12,0 15.5-5t2.5-14l-8-55q-1-10-6-15t-16-5H450q-19,0-17,19l8,56q2,9 7,14t15,5h20Z"/>
      <glyph unicode="&#xcc;" glyph-name="gid27" horiz-adv-x="250" d="M214,690L117,0H51l97,690h66ZM80,907L236,760l-25-29L44,862l36,45Z"/>
      <glyph unicode="&#xcd;" glyph-name="gid24" horiz-adv-x="250" d="M214,690L117,0H51l97,690h66ZM315,908l32-49L153,731l-22,30L315,908Z"/>
      <glyph unicode="&#xce;" glyph-name="gid25" horiz-adv-x="250" d="M214,690L117,0H51l97,690h66Zm16,201L353,763l-25-25L210,839h-8L54,738L34,767L184,891h46Z"/>
      <glyph unicode="&#xcf;" glyph-name="gid26" horiz-adv-x="250" d="M214,690L117,0H51l97,690h66ZM130,865q11,0 15-5t2-14l-8-55q-1-10-6-15t-16-5H96q-19,0-17,19l8,56q2,9 7,14t16,5h20Zm171,0q12,0 15.5-5t2.5-14l-8-55q-1-10-6-15t-16-5H268q-19,0-17,19l8,56q2,9 7,14t15,5h20Z"/>
      <glyph unicode="&#xd0;" glyph-name="gid14" horiz-adv-x="661" d="M335,387l-5-38H28l6,38H335Zm40,312q101,0 157-34t72-112t-2-211q-15-107-40-176T500,59T409,6T280-9Q223-9 163.5-6.5T51,0L86,52q44-1 95.5-2T279,49q61,0 103.5,13t72,46t48,91.5T534,348q12,87 10,144.5t-20.5,90t-55,46T374,642q-31,0-67-0.5T235.5,640T172,638l-24,52q34,3 73.5,5t79,3t74.5,1Zm-161-9L117,0H51l97,690h66Z"/>
      <glyph unicode="&#xd1;" glyph-name="gid33" horiz-adv-x="698" d="M662,690L568,26q-2-13-8.5-19.5T540,0H474q-12,0-19,6T444,24L248,548q-7,18-14,40t-13,41H201q-2-21-4-42.5T192,543L117,0H51l93,664q3,14 10,20t20,6h63q12,0 19-6t11-18L458,155q8-21 16.5-45.5T490,62h22q3,24 5,47.5t6,47.5l74,533h65ZM358,875q24-2 40.5-10.5t31-19T459,826t36-11q31-3 45.5,11.5T559,871l31-2q-2-52-26.5-78.5T503,767q-26,2-44,11t-33,19.5T397,817t-32,11q-30,3-44.5-12.5T302,768l-32,3q3,55 28.5,81T358,875Z"/>
      <glyph unicode="&#xd2;" glyph-name="gid38" horiz-adv-x="664" d="M387,703q95,0 149.5-35t71-114T605,342q-13-99-36.5-167.5T509,65T420,5.5T295-13q-95,0-150.5,34.5T72,135t1,213q14,98 37,165.5T169.5,623t90,61T387,703Zm-4-59q-76,0-123.5-28T185,522T142,342q-16-111-7-175.5T183,74T295,46q76,0 123,28.5T493.5,169T537,348q17,113 8,177.5T497,617T383,644ZM282,907L438,760l-25-29L246,862l36,45Z"/>
      <glyph unicode="&#xd3;" glyph-name="gid35" horiz-adv-x="664" d="M387,703q95,0 149.5-35t71-114T605,342q-13-99-36.5-167.5T509,65T420,5.5T295-13q-95,0-150.5,34.5T72,135t1,213q14,98 37,165.5T169.5,623t90,61T387,703Zm-4-59q-76,0-123.5-28T185,522T142,342q-16-111-7-175.5T183,74T295,46q76,0 123,28.5T493.5,169T537,348q17,113 8,177.5T497,617T383,644ZM517,908l32-49L355,731l-22,30L517,908Z"/>
      <glyph unicode="&#xd4;" glyph-name="gid36" horiz-adv-x="664" d="M387,703q95,0 149.5-35t71-114T605,342q-13-99-36.5-167.5T509,65T420,5.5T295-13q-95,0-150.5,34.5T72,135t1,213q14,98 37,165.5T169.5,623t90,61T387,703Zm-4-59q-76,0-123.5-28T185,522T142,342q-16-111-7-175.5T183,74T295,46q76,0 123,28.5T493.5,169T537,348q17,113 8,177.5T497,617T383,644Zm49,247L555,763l-25-25L412,839h-8L256,738l-20,29L386,891h46Z"/>
      <glyph unicode="&#xd5;" glyph-name="gid40" horiz-adv-x="664" d="M387,703q95,0 149.5-35t71-114T605,342q-13-99-36.5-167.5T509,65T420,5.5T295-13q-95,0-150.5,34.5T72,135t1,213q14,98 37,165.5T169.5,623t90,61T387,703Zm-4-59q-76,0-123.5-28T185,522T142,342q-16-111-7-175.5T183,74T295,46q76,0 123,28.5T493.5,169T537,348q17,113 8,177.5T497,617T383,644ZM329,875q24-2 40.5-10.5t31-19T430,826t36-11q31-3 45.5,11.5T530,871l31-2q-2-52-26.5-78.5T474,767q-26,2-44,11t-33,19.5T368,817t-32,11q-30,3-44.5-12.5T273,768l-32,3q3,55 28.5,81T329,875Z"/>
      <glyph unicode="&#xd6;" glyph-name="gid37" horiz-adv-x="664" d="M387,703q95,0 149.5-35t71-114T605,342q-13-99-36.5-167.5T509,65T420,5.5T295-13q-95,0-150.5,34.5T72,135t1,213q14,98 37,165.5T169.5,623t90,61T387,703Zm-4-59q-76,0-123.5-28T185,522T142,342q-16-111-7-175.5T183,74T295,46q76,0 123,28.5T493.5,169T537,348q17,113 8,177.5T497,617T383,644ZM332,865q11,0 15-5t2-14l-8-55q-1-10-6-15t-16-5H298q-19,0-17,19l8,56q2,9 7,14t16,5h20Zm171,0q12,0 15.5-5t2.5-14l-8-55q-1-10-6-15t-16-5H470q-19,0-17,19l8,56q2,9 7,14t15,5h20Z"/>
      <glyph unicode="&#xd7;" glyph-name="gid254" horiz-adv-x="525" d="M447,469l31-42L77,109L47,151L447,469Zm-321-5L433,147l-36-37L90,428l36,36Z"/>
      <glyph unicode="&#xd8;" glyph-name="gid39" horiz-adv-x="664" d="M562,749l34-19L118-57L84-37L562,749ZM387,703q95,0 149.5-35t71-114T605,342q-13-99-36.5-167.5T509,65T420,5.5T295-13q-95,0-150.5,34.5T72,135t1,213q14,98 37,165.5T169.5,623t90,61T387,703Zm-4-59q-76,0-123.5-28T185,522T142,342q-16-111-7-175.5T183,74T295,46q76,0 123,28.5T493.5,169T537,348q17,113 8,177.5T497,617T383,644Z"/>
      <glyph unicode="&#xd9;" glyph-name="gid52" horiz-adv-x="665" d="M634,690L574,260q-14-99-46.5-159T439,14T297-13q-88,0-140,28T87,103.5T83,263l59,427h67L148,260q-10-80-0.5-127T193,66T295,46q67,0 110,21t67.5,69T509,263l59,427h66ZM282,907L438,760l-25-29L246,862l36,45Z"/>
      <glyph unicode="&#xda;" glyph-name="gid49" horiz-adv-x="665" d="M634,690L574,260q-14-99-46.5-159T439,14T297-13q-88,0-140,28T87,103.5T83,263l59,427h67L148,260q-10-80-0.5-127T193,66T295,46q67,0 110,21t67.5,69T509,263l59,427h66ZM517,908l32-49L355,731l-22,30L517,908Z"/>
      <glyph unicode="&#xdb;" glyph-name="gid50" horiz-adv-x="665" d="M634,690L574,260q-14-99-46.5-159T439,14T297-13q-88,0-140,28T87,103.5T83,263l59,427h67L148,260q-10-80-0.5-127T193,66T295,46q67,0 110,21t67.5,69T509,263l59,427h66ZM432,891L555,763l-25-25L412,839h-8L256,738l-20,29L386,891h46Z"/>
      <glyph unicode="&#xdc;" glyph-name="gid51" horiz-adv-x="665" d="M634,690L574,260q-14-99-46.5-159T439,14T297-13q-88,0-140,28T87,103.5T83,263l59,427h67L148,260q-10-80-0.5-127T193,66T295,46q67,0 110,21t67.5,69T509,263l59,427h66ZM332,865q11,0 15-5t2-14l-8-55q-1-10-6-15t-16-5H298q-19,0-17,19l8,56q2,9 7,14t16,5h20Zm171,0q12,0 15.5-5t2.5-14l-8-55q-1-10-6-15t-16-5H470q-19,0-17,19l8,56q2,9 7,14t15,5h20Z"/>
      <glyph unicode="&#xdd;" glyph-name="gid57" horiz-adv-x="554" d="M595,690L297,240H239L67,690h67L249,382q6-17 12.5-36T272,308h7q9,18 21,39t22,38L523,690h72ZM307,291L267,0H200l42,291h65ZM456,908l32-49L294,731l-22,30L456,908Z"/>
      <glyph unicode="&#xde;" glyph-name="gid43" horiz-adv-x="587" d="M359,563q75,0 120.5-19t62-66T545,347q-12-82-38-128t-73.5-64T313,137q-56,0-103.5,3t-80,6.5T85,153l5,42q52,0 107.5,0T305,195q57,1 92,14t54.5,47T480,353q9,62 0,95t-38.5,45.5T357,506q-80,0-138.5-0.5T139,503l-10,52q38,4 70,5.5t69.5,2T359,563ZM214,690L117,0H51l97,690h66Z"/>
      <glyph unicode="&#xdf;" glyph-name="gid108" horiz-adv-x="663" d="M388,718q80,0 128-11.5t68-39T598,591q-3-31-15.5-53.5t-36-41T489,461q-32-13-59.5-24.5T385,409t-20-43q-4-25 9-39.5T417,296l108-60q43-24 62-50.5T599,106q-6-50-31-75T503-2.5T408-11q-28,0-68.5,2T251,0l8,48q40-2 77-4t66-1q42,1 70,6t44,20.5T535,116q4,25-3,39t-20,23.5T482,198L372,258q-37,21-55,47.5T303,369q5,35 25,56.5T379.5,463T450,496q22,11 41.5,23.5t32,30T538,594q2,22-8,38t-40.5,24.5T396,665q-62,0-99.5-11t-56-40T214,531L129-66q-7-48-24.5-78.5t-49-45T-23-204q-12,0-41.5,1t-58.5,5l9,47h77q50,0 73.5,20T67-57l84,597q9,60 29,95.5T230.5,689T301,712.5t87,5.5ZM179,485l-9-52H48l7,46l93,6h31Z"/>
      <glyph unicode="&#xe0;" glyph-name="gid64" horiz-adv-x="570" d="M303,497q24,0 51-1.5t54-4.5t54-6t52-8l-28-40q-55,2-96,4t-69,2q-54,0-88.5-7.5T177,407t-33.5-61.5T121,241q-11-76-9-119t20.5-60.5T190,44q35,0 73,16t79,47t82,75l11-36q-31-46-73-81.5t-88.5-56T179-12q-59,0-90,25.5T51,96t7,151q12,79 30.5,128.5t47,76t69.5,36t98,9.5Zm147-20h64L447,0H397l10,117l-7,7l50,353ZM217,726L373,579l-25-29L181,681l36,45Z"/>
      <glyph unicode="&#xe1;" glyph-name="gid61" horiz-adv-x="570" d="M303,497q24,0 51-1.5t54-4.5t54-6t52-8l-28-40q-55,2-96,4t-69,2q-54,0-88.5-7.5T177,407t-33.5-61.5T121,241q-11-76-9-119t20.5-60.5T190,44q35,0 73,16t79,47t82,75l11-36q-31-46-73-81.5t-88.5-56T179-12q-59,0-90,25.5T51,96t7,151q12,79 30.5,128.5t47,76t69.5,36t98,9.5Zm147-20h64L447,0H397l10,117l-7,7l50,353Zm1,250l32-49L289,550l-22,30L451,727Z"/>
      <glyph unicode="&#xe2;" glyph-name="gid62" horiz-adv-x="570" d="M303,497q24,0 51-1.5t54-4.5t54-6t52-8l-28-40q-55,2-96,4t-69,2q-54,0-88.5-7.5T177,407t-33.5-61.5T121,241q-11-76-9-119t20.5-60.5T190,44q35,0 73,16t79,47t82,75l11-36q-31-46-73-81.5t-88.5-56T179-12q-59,0-90,25.5T51,96t7,151q12,79 30.5,128.5t47,76t69.5,36t98,9.5Zm147-20h64L447,0H397l10,117l-7,7l50,353ZM367,710L490,582l-25-25L347,658h-8L191,557l-20,29L321,710h46Z"/>
      <glyph unicode="&#xe3;" glyph-name="gid66" horiz-adv-x="570" d="M303,497q24,0 51-1.5t54-4.5t54-6t52-8l-28-40q-55,2-96,4t-69,2q-54,0-88.5-7.5T177,407t-33.5-61.5T121,241q-11-76-9-119t20.5-60.5T190,44q35,0 73,16t79,47t82,75l11-36q-31-46-73-81.5t-88.5-56T179-12q-59,0-90,25.5T51,96t7,151q12,79 30.5,128.5t47,76t69.5,36t98,9.5Zm147-20h64L447,0H397l10,117l-7,7l50,353ZM264,694q24-2 40.5-10.5t31-19T365,645t36-11q31-3 45.5,11.5T465,690l31-2q-2-52-26.5-78.5T409,586q-26,2-44,11t-33,19.5T303,636t-32,11q-30,3-44.5-12.5T208,587l-32,3q3,55 28.5,81T264,694Z"/>
      <glyph unicode="&#xe4;" glyph-name="gid63" horiz-adv-x="570" d="M303,497q24,0 51-1.5t54-4.5t54-6t52-8l-28-40q-55,2-96,4t-69,2q-54,0-88.5-7.5T177,407t-33.5-61.5T121,241q-11-76-9-119t20.5-60.5T190,44q35,0 73,16t79,47t82,75l11-36q-31-46-73-81.5t-88.5-56T179-12q-59,0-90,25.5T51,96t7,151q12,79 30.5,128.5t47,76t69.5,36t98,9.5Zm147-20h64L447,0H397l10,117l-7,7l50,353ZM267,684q11,0 15-5t2-14l-8-55q-1-10-6-15t-16-5H233q-19,0-17,19l8,56q2,9 7,14t16,5h20Zm171,0q12,0 15.5-5t2.5-14l-8-55q-1-10-6-15t-16-5H405q-19,0-17,19l8,56q2,9 7,14t15,5h20Z"/>
      <glyph unicode="&#xe5;" glyph-name="gid65" horiz-adv-x="570" d="M303,497q24,0 51-1.5t54-4.5t54-6t52-8l-28-40q-55,2-96,4t-69,2q-54,0-88.5-7.5T177,407t-33.5-61.5T121,241q-11-76-9-119t20.5-60.5T190,44q35,0 73,16t79,47t82,75l11-36q-31-46-73-81.5t-88.5-56T179-12q-59,0-90,25.5T51,96t7,151q12,79 30.5,128.5t47,76t69.5,36t98,9.5Zm147-20h64L447,0H397l10,117l-7,7l50,353ZM344,738q43,0 69.5-25.5T440,646q0-47-31.5-79T329,535q-44,0-70.5,25.5T232,627q0,47 32,79t80,32Zm-1-35q-33,0-52.5-21.5T271,630q0-25 15-42.5T330,570q33,0 52.5,22T402,644q0,25-15.5,42T343,703Z"/>
      <glyph unicode="&#xe6;" glyph-name="gid67" horiz-adv-x="873" d="M299,497q37,0 76-3.5t78.5-8.5T528,472l-33-40q-39,3-70.5,5.5t-57.5,4T317,443q-53,0-87-8.5t-55-30t-32.5-61T121,241q-10-74-9-117t18.5-61.5T185,44q36,0 73,15.5T333.5,106T413,182l11-35q-29-45-68.5-81T270,9T173-12q-58,0-88,27.5t-36,85T56,247q12,79 31,128.5t47.5,76t69,36T299,497Zm353,0q70,0 112-16t57-49.5t5-88.5q-8-44-28.5-70T741,234t-91-18L410,192l8,49l232,24q36,4 58.5,12T744,302t19,47q9,43-3,63t-41.5,25.5T647,443q-44,0-76-7.5T517.5,408t-36-58.5T458,249q-13-85-2.5-129.5t45-61T594,42q27,0 58.5,2T715,49t54,6l5-43Q752,4 717-1.5t-72-8T581-12q-82,0-128,27.5T393.5,101T392,251q11,74 30,122t50,75t75.5,38T652,497Z"/>
      <glyph unicode="&#xe7;" glyph-name="gid70" horiz-adv-x="481" d="M310,497q32,0 73.5-4.5T458,475l-12-41q-29,5-65.5,6.5T321,442q-64,0-105-17t-64-60.5T118,240q-11-80-1-122.5T161,59t96-16q16,0 40,1t52,3t52,6l5-43Q370-1 328-6.5T247-12q-84,0-131,25.5t-62.5,82T51,245q14,93 43.5,148.5T176,473t134,24ZM191-57q34,3 56.5-2.5t31.5-21t4-44.5q-5-39-29-66t-61-39.5T111-237l12,34q46-1 77,22.5T236-123q3,20-7.5,27T183-88l8,31Z"/>
      <glyph unicode="&#xe8;" glyph-name="gid77" horiz-adv-x="533" d="M313,497q70,0 111.5-16T482,431.5t4-88.5q-8-44-28.5-70t-56-39T311,216L72,192l6,49l232,24q37,4 59.5,12T405,302t19,47q9,43-3.5,63T379,437.5T308,443q-45,0-76.5-7.5T178,408t-36-58.5T118,249q-12-85-1.5-129.5t45-61T254,42q28,0 60,2t62.5,5T432,55l5-43Q415,4 379.5-1.5T307-9.5T242-12q-82,0-128,27.5T54,101T53,251q11,74 30,122t50,75t75,38t105,11ZM209,726L365,579l-25-29L173,681l36,45Z"/>
      <glyph unicode="&#xe9;" glyph-name="gid74" horiz-adv-x="533" d="M313,497q70,0 111.5-16T482,431.5t4-88.5q-8-44-28.5-70t-56-39T311,216L72,192l6,49l232,24q37,4 59.5,12T405,302t19,47q9,43-3.5,63T379,437.5T308,443q-45,0-76.5-7.5T178,408t-36-58.5T118,249q-12-85-1.5-129.5t45-61T254,42q28,0 60,2t62.5,5T432,55l5-43Q415,4 379.5-1.5T307-9.5T242-12q-82,0-128,27.5T54,101T53,251q11,74 30,122t50,75t75,38t105,11ZM444,727l32-49L282,550l-22,30L444,727Z"/>
      <glyph unicode="&#xea;" glyph-name="gid75" horiz-adv-x="533" d="M313,497q70,0 111.5-16T482,431.5t4-88.5q-8-44-28.5-70t-56-39T311,216L72,192l6,49l232,24q37,4 59.5,12T405,302t19,47q9,43-3.5,63T379,437.5T308,443q-45,0-76.5-7.5T178,408t-36-58.5T118,249q-12-85-1.5-129.5t45-61T254,42q28,0 60,2t62.5,5T432,55l5-43Q415,4 379.5-1.5T307-9.5T242-12q-82,0-128,27.5T54,101T53,251q11,74 30,122t50,75t75,38t105,11Zm46,213L482,582l-25-25L339,658h-8L183,557l-20,29L313,710h46Z"/>
      <glyph unicode="&#xeb;" glyph-name="gid76" horiz-adv-x="533" d="M313,497q70,0 111.5-16T482,431.5t4-88.5q-8-44-28.5-70t-56-39T311,216L72,192l6,49l232,24q37,4 59.5,12T405,302t19,47q9,43-3.5,63T379,437.5T308,443q-45,0-76.5-7.5T178,408t-36-58.5T118,249q-12-85-1.5-129.5t45-61T254,42q28,0 60,2t62.5,5T432,55l5-43Q415,4 379.5-1.5T307-9.5T242-12q-82,0-128,27.5T54,101T53,251q11,74 30,122t50,75t75,38t105,11ZM259,684q11,0 15-5t2-14l-8-55q-1-10-6-15t-16-5H225q-19,0-17,19l8,56q2,9 7,14t16,5h20Zm171,0q12,0 15.5-5t2.5-14l-8-55q-1-10-6-15t-16-5H397q-19,0-17,19l8,56q2,9 7,14t15,5h20Z"/>
      <glyph unicode="&#xec;" glyph-name="gid87" horiz-adv-x="236" d="M177,485L108,0H45l69,485h63ZM48,726L204,579l-25-29L12,681l36,45Z"/>
      <glyph unicode="&#xed;" glyph-name="gid83" horiz-adv-x="236" d="M177,485L108,0H45l69,485h63ZM283,727l32-49L121,550L99,580L283,727Z"/>
      <glyph unicode="&#xee;" glyph-name="gid84" horiz-adv-x="236" d="M177,485L108,0H45l69,485h63Zm21,225L321,582l-25-25L178,658h-8L22,557L2,586L152,710h46Z"/>
      <glyph unicode="&#xef;" glyph-name="gid85" horiz-adv-x="236" d="M177,485L108,0H45l69,485h63ZM98,684q11,0 15-5t2-14l-8-55q-1-10-6-15t-16-5H64q-19,0-17,19l8,56q2,9 7,14t16,5H98Zm171,0q12,0 15.5-5t2.5-14l-8-55q-1-10-6-15t-16-5H236q-19,0-17,19l8,56q2,9 7,14t15,5h20Z"/>
      <glyph unicode="&#xf0;" glyph-name="gid72" horiz-adv-x="551" d="M179,698q50,2 99.5-8t92-36.5t72.5-74T484,458t-3-180q-9-62-24-115T414.5,70.5T342,9T229-13q-72,0-116,25.5T54,90T49,222q14,104 66,164.5T274,447q23,0 47-4t48-15t46-31.5T454,341l-7-28q-22,33-49,50.5t-56,24T284,394q-56,0-90.5-22t-53-61.5T115,217q-14-97 15-136T232,42q63,0 100,28.5t56,84T418,290q13,98 3.5,164T386,559.5t-62,60T247.5,646T169,652l10,46Zm289,8l20-30L267,529l-17,28L468,706Z"/>
      <glyph unicode="&#xf1;" glyph-name="gid94" horiz-adv-x="574" d="M391,497q41,0 68.5-15T499,437t6-74L453,0H390l50,349q6,52-9.5,72.5T373,442q-50,0-103-31.5T144,322l1,48q70,61 130,94t116,33ZM160,485L149,361l3-16L104,0H41l69,485h50ZM262,694q24-2 40.5-10.5t31-19T363,645t36-11q31-3 45.5,11.5T463,690l31-2q-2-52-26.5-78.5T407,586q-26,2-44,11t-33,19.5T301,636t-32,11q-30,3-44.5-12.5T206,587l-32,3q3,55 28.5,81T262,694Z"/>
      <glyph unicode="&#xf2;" glyph-name="gid99" horiz-adv-x="562" d="M306,497q81,0 127-25.5t61-82T496,239q-13-92-42-147.5t-80-80T243-13T116,12.5t-62.5,82T51,245q13,92 42,147t80.5,80T306,497Zm0-55q-59,0-96.5-18t-59-62T118,239q-11-75-3-118t39-61t89-18q59,0 96.5,18.5t59,63T431,245q11,76 3,118.5T395,424t-89,18ZM209,726L365,579l-25-29L173,681l36,45Z"/>
      <glyph unicode="&#xf3;" glyph-name="gid96" horiz-adv-x="562" d="M306,497q81,0 127-25.5t61-82T496,239q-13-92-42-147.5t-80-80T243-13T116,12.5t-62.5,82T51,245q13,92 42,147t80.5,80T306,497Zm0-55q-59,0-96.5-18t-59-62T118,239q-11-75-3-118t39-61t89-18q59,0 96.5,18.5t59,63T431,245q11,76 3,118.5T395,424t-89,18ZM444,727l32-49L282,550l-22,30L444,727Z"/>
      <glyph unicode="&#xf4;" glyph-name="gid97" horiz-adv-x="562" d="M306,497q81,0 127-25.5t61-82T496,239q-13-92-42-147.5t-80-80T243-13T116,12.5t-62.5,82T51,245q13,92 42,147t80.5,80T306,497Zm0-55q-59,0-96.5-18t-59-62T118,239q-11-75-3-118t39-61t89-18q59,0 96.5,18.5t59,63T431,245q11,76 3,118.5T395,424t-89,18Zm53,268L482,582l-25-25L339,658h-8L183,557l-20,29L313,710h46Z"/>
      <glyph unicode="&#xf5;" glyph-name="gid101" horiz-adv-x="562" d="M306,497q81,0 127-25.5t61-82T496,239q-13-92-42-147.5t-80-80T243-13T116,12.5t-62.5,82T51,245q13,92 42,147t80.5,80T306,497Zm0-55q-59,0-96.5-18t-59-62T118,239q-11-75-3-118t39-61t89-18q59,0 96.5,18.5t59,63T431,245q11,76 3,118.5T395,424t-89,18ZM256,694q24-2 40.5-10.5t31-19T357,645t36-11q31-3 45.5,11.5T457,690l31-2q-2-52-26.5-78.5T401,586q-26,2-44,11t-33,19.5T295,636t-32,11q-30,3-44.5-12.5T200,587l-32,3q3,55 28.5,81T256,694Z"/>
      <glyph unicode="&#xf6;" glyph-name="gid98" horiz-adv-x="562" d="M306,497q81,0 127-25.5t61-82T496,239q-13-92-42-147.5t-80-80T243-13T116,12.5t-62.5,82T51,245q13,92 42,147t80.5,80T306,497Zm0-55q-59,0-96.5-18t-59-62T118,239q-11-75-3-118t39-61t89-18q59,0 96.5,18.5t59,63T431,245q11,76 3,118.5T395,424t-89,18ZM259,684q11,0 15-5t2-14l-8-55q-1-10-6-15t-16-5H225q-19,0-17,19l8,56q2,9 7,14t16,5h20Zm171,0q12,0 15.5-5t2.5-14l-8-55q-1-10-6-15t-16-5H397q-19,0-17,19l8,56q2,9 7,14t15,5h20Z"/>
      <glyph unicode="&#xf7;" glyph-name="gid255" horiz-adv-x="575" d="M507,320l-8-49H69l7,49H507ZM278,176q13,0 18.5-6.5T301,149l-9-54q-1-11-7.5-16.5T266,73H248q-13,0-18.5,6.5T226,99l8,52q1,13 7.5,19t17.5,6h19Zm47,341q14-1 19.5-7.5T348,490l-7-53q-2-12-8.5-17.5T314,414H296q-13,0-19,6.5T273,440l8,53q1,12 7.5,18t18.5,6h18Z"/>
      <glyph unicode="&#xf8;" glyph-name="gid100" horiz-adv-x="562" d="M448,554l30-17L110-70L80-53L448,554ZM306,497q81,0 127-25.5t61-82T496,239q-13-92-42-147.5t-80-80T243-13T116,12.5t-62.5,82T51,245q13,92 42,147t80.5,80T306,497Zm0-55q-59,0-96.5-18t-59-62T118,239q-11-75-3-118t39-61t89-18q59,0 96.5,18.5t59,63T431,245q11,76 3,118.5T395,424t-89,18Z"/>
      <glyph unicode="&#xf9;" glyph-name="gid114" horiz-adv-x="563" d="M170,485L120,136q-7-49 10-71t60-22q50,0 98.5,32T405,170l6-48Q344,55 285.5,21T170-13q-66,0-95.5,36T55,122l51,363h64Zm338,0L440,0H391l12,133l-5,15l47,337h63ZM210,728L366,581l-25-29L174,683l36,45Z"/>
      <glyph unicode="&#xfa;" glyph-name="gid111" horiz-adv-x="563" d="M170,485L120,136q-7-49 10-71t60-22q50,0 98.5,32T405,170l6-48Q344,55 285.5,21T170-13q-66,0-95.5,36T55,122l51,363h64Zm338,0L440,0H391l12,133l-5,15l47,337h63ZM445,729l32-49L283,552l-22,30L445,729Z"/>
      <glyph unicode="&#xfb;" glyph-name="gid112" horiz-adv-x="563" d="M170,485L120,136q-7-49 10-71t60-22q50,0 98.5,32T405,170l6-48Q344,55 285.5,21T170-13q-66,0-95.5,36T55,122l51,363h64Zm338,0L440,0H391l12,133l-5,15l47,337h63ZM360,712L483,584l-25-25L340,660h-8L184,559l-20,29L314,712h46Z"/>
      <glyph unicode="&#xfc;" glyph-name="gid113" horiz-adv-x="563" d="M170,485L120,136q-7-49 10-71t60-22q50,0 98.5,32T405,170l6-48Q344,55 285.5,21T170-13q-66,0-95.5,36T55,122l51,363h64Zm338,0L440,0H391l12,133l-5,15l47,337h63ZM260,687q11,0 15-5t2-14l-8-55q-1-10-6-15t-16-5H226q-19,0-17,19l8,56q2,9 7,14t16,5h20Zm171,0q12,0 15.5-5t2.5-14l-8-55q-1-10-6-15t-16-5H398q-19,0-17,19l8,56q2,9 7,14t15,5h20Z"/>
      <glyph unicode="&#xfd;" glyph-name="gid119" horiz-adv-x="529" d="M510,485q-10-43-22-84t-26-82.5T430.5,236T393,154.5T349,73Q298-17 251-75t-96-89T48-207L36-163q37,10 69,28.5T168-86t61.5,73.5T292,91q37,65 64.5,126.5t49,126.5T445,485h65Zm-395,0L198,72q5-21 26-21h55L249,0H197q-20,0-34.5,12T144,42L48,485h67ZM413,727l32-49L251,550l-22,30L413,727Z"/>
      <glyph unicode="&#xfe;" glyph-name="gid104" horiz-adv-x="570" d="M379,497q56,0 87-25t39-81.5T499,238q-12-80-30.5-129t-47-75.5T352.5-3T257-13q-46,0-100,6T57,7L76,47q53-2 93-3.5T236,42q54,0 88.5,7.5t55,28.5T412,138.5T434,243q11,76 9.5,119T424,423t-58,18q-34,0-72.5-16.5t-78.5-47T133,302l-11,36q32,47 74,82.5t89,56T379,497ZM204,700L174,487q-4-27-7.5-51T155,384l2-10L111,37l-6-13q-1-28-3.5-52T94-80L76-204H14L140,700h64Z"/>
      <glyph unicode="&#xff;" glyph-name="gid120" horiz-adv-x="529" d="M510,485q-10-43-22-84t-26-82.5T430.5,236T393,154.5T349,73Q298-17 251-75t-96-89T48-207L36-163q37,10 69,28.5T168-86t61.5,73.5T292,91q37,65 64.5,126.5t49,126.5T445,485h65Zm-395,0L198,72q5-21 26-21h55L249,0H197q-20,0-34.5,12T144,42L48,485h67ZM229,684q11,0 15-5t2-14l-8-55q-1-10-6-15t-16-5H195q-19,0-17,19l8,56q2,9 7,14t16,5h20Zm171,0q12,0 15.5-5t2.5-14l-8-55q-1-10-6-15t-16-5H367q-19,0-17,19l8,56q2,9 7,14t15,5h20Z"/>
      <glyph unicode="&#x2013;" glyph-name="gid208" horiz-adv-x="602" d="M523,277l-7-50H67l7,50H523Z"/>
      <glyph unicode="&#x2014;" glyph-name="gid209" horiz-adv-x="908" d="M829,277l-7-50H67l7,50H829Z"/>
      <glyph unicode="&#x2018;" glyph-name="gid221" horiz-adv-x="209" d="M123,504q-13,0-18,5.5T102,528l10,62q2,21 9.5,44.5t17,47.5T160,727l32-11q-9-29-16-53t-13-59q10,1 14.5-4.5T181,584l-9-58q-2-12-7.5-17T143,504H123Z"/>
      <glyph unicode="&#x2019;" glyph-name="gid222" horiz-adv-x="207" d="M175,718q13,0 18-5.5t3-18.5l-10-62q-2-21-9.5-44.5t-17-47.5T138,495l-32,11q9,29 16,53t13,59q-10-1-14.5,4.5T117,638l9,58q2,12 7.5,17t21.5,5h20Z"/>
      <glyph unicode="&#x201a;" glyph-name="gid217" horiz-adv-x="220" d="M96,101q12,0 17-5.5T116,77L106,15q-2-21-9.5-44.5T79-77T57-122L25-111q9,29 16,53T55,1Q45,0 40,6T36,21l9,58q3,13 8.5,17.5T75,101H96Z"/>
      <glyph unicode="&#x201c;" glyph-name="gid219" horiz-adv-x="347" d="M123,504q-13,0-18,5.5T102,528l10,62q2,21 9.5,44.5t17,47.5T160,727l32-11q-9-29-16-53t-13-59q10,1 14.5-4.5T181,584l-9-58q-2-12-7.5-17T143,504H123Zm138,0q-13,0-17.5,5.5T241,528l9,62q3,21 10,44.5T277,682t22,45l31-11q-8-29-15.5-53T301,604q10,1 15-4.5t3-15.5l-8-58q-2-12-7.5-17T282,504H261Z"/>
      <glyph unicode="&#x201d;" glyph-name="gid220" horiz-adv-x="346" d="M314,718q13,0 17.5-5.5T334,694l-9-62q-3-21-10-44.5T298,540t-22-45l-31,11q8,29 15.5,53T274,618q-10-1-15,4.5T256,638l8,58q2,12 8,17t21,5h21Zm-139,0q13,0 18-5.5t3-18.5l-10-62q-2-21-9.5-44.5t-17-47.5T138,495l-32,11q9,29 16,53t13,59q-10-1-14.5,4.5T117,638l9,58q2,12 7.5,17t21.5,5h20Z"/>
      <glyph unicode="&#x201e;" glyph-name="gid218" horiz-adv-x="358" d="M233,101q13,0 17.5-5.5T253,77l-9-62q-3-21-10-44.5T217-77t-22-45l-31,11q9,29 16,53T193,1q-10-1-15,5t-3,15l8,58q2,12 8,17t21,5h21ZM94,101q13,0 18-5.5T115,77L105,15q-2-21-9-44.5T79-77T57-122L25-111q9,29 16.5,53T54,1Q44,0 39.5,6T36,21l9,58q2,12 7.5,17T74,101H94Z"/>
      <glyph unicode="&#x2022;" glyph-name="gid200" horiz-adv-x="358" d="M192,351q42,0 57.5-18T260,273l-2-14q-4-30-13-46t-26.5-22.5T172,184H161q-44,0-60,18t-9,63l2,13q4,30 13,45t27,21.5t47,6.5h11Z"/>
      <glyph unicode="&#x2039;" glyph-name="gid225" horiz-adv-x="295" d="M229,457l27-25L95,250L208,64L175,41L39,246l1,15L229,457Z"/>
      <glyph unicode="&#x203a;" glyph-name="gid226" horiz-adv-x="296" d="M108,457L244,253l-1-15L54,41L27,66L189,250L76,436l32,21Z"/>
    </font>
</defs>
</svg>
