<?xml version="1.0" standalone="no"?>
<!DOCTYPE svg PUBLIC "-//W3C//DTD SVG 1.1//EN" "http://www.w3.org/Graphics/SVG/1.1/DTD/svg11.dtd">
<svg xmlns="http://www.w3.org/2000/svg">
  <defs>
    <font id="Exo2" horiz-adv-x="535">
      <font-face font-family="Exo 2 ExtraBold" units-per-em="1000" panose-1="0 0 0 0 0 0 0 0 0 0" ascent="999" descent="-201" alphabetic="0"/>
      <glyph unicode=" " glyph-name="gid185" horiz-adv-x="213"/>
      <glyph unicode="!" glyph-name="gid195" horiz-adv-x="316" d="M248,695V445L229,223H87L68,445V695H248ZM179,170q36,0 49.5-13.5T242,107V63q0-36-13.5-49.5T179,0H138Q102,0 88.5,13.5T75,63v44q0,36 13.5,49.5T138,170h41Z"/>
      <glyph unicode="&quot;" glyph-name="gid227" horiz-adv-x="384" d="M341,690L331,465H225L214,690H341Zm-171,0L160,465H53L43,690H170Z"/>
      <glyph unicode="#" glyph-name="gid202" horiz-adv-x="728" d="M367,690L247,0H111L231,690H367Zm251,0L498,0H362L482,690H618Zm83-169L680,414H69L90,521H701ZM659,296L638,189H27L48,296H659Z"/>
      <glyph unicode="$" glyph-name="gid243" horiz-adv-x="588" d="M303,704q52-1 114.5-7T538,672L526,550q-43,1-105,2t-122,1q-22,0-37-1.5t-24.5-6t-13-13T221,509q0-24 14-36.5T287,447l124-48q82-33 115-81.5T559,192q0-58-13.5-98T501,31T419.5-3T294-14q-34,0-99.5,5T44,17L55,150q58-1 104-2.5t79.5-2T292,145q32,0 49.5,3.5t25,13T374,188t-5.5,27T351,232t-34,14L184,301q-80,34-113,81T38,505q0,60 14,98t46,60t82.5,31.5T303,704ZM263,360h50L269-114H218l45,474ZM381,791L333,360H281l48,431h52Z"/>
      <glyph unicode="%" glyph-name="gid264" horiz-adv-x="915" d="M204,704q66,0 105-19t56-63.5T382,498q0-78-17-123t-56-64T204,292q-65,0-103.5,19T45,375T28,498q0,79 17,123.5T100.5,685T204,704Zm0-97q-18,0-27-7t-12.5-30.5T161,498t3.5-71.5T177,396t27-7t27.5,7T245,426.5t4,71.5t-4,71.5T231.5,600T204,607Zm506,83L315,0H204L599,690H710Zm0-292q66,0 105-19t56-63.5T888,193T871,70T815,6T710-13Q645-13 606.5,6T551,70T534,193t17,122.5T606.5,379T710,398Zm0-96q-18,0-27-7t-12.5-30T667,193q0-48 3.5-71.5t12.5-31T710,83t27.5,7.5t13.5,31t4,71.5q0,49-4,72t-13.5,30T710,302Z"/>
      <glyph unicode="&amp;" glyph-name="gid230" horiz-adv-x="763" d="M338,703q32,0 75.5-2T502,690L481,567q-14,0-30.5,0.5t-35,1t-39,1T333,570q-32,0-49-6t-24-22.5T253,491q0-31 6-48t21.5-23.5T325,413H718V296H315q-31,0-47-7t-22-24.5T240,214t5.5-51.5t21-25T311,131q40,1 84,10.5T468,167l15-97q-28-29-59-47.5t-71-27T255-13Q180-13 133,5T64,64.5T42,176q0,79 30.5,125.5T179,355v6q-62,6-88.5,45T64,520q0,61 15,97.5T126.5,672t85,24.5T338,703ZM623,510V170q0-22 9-32t31-10h55L738,10Q720,2 694-3t-52-7.5T598-13q-69,0-107.5,35.5T452,121V359l17,151H623Z"/>
      <glyph unicode="&apos;" glyph-name="gid228" horiz-adv-x="213" d="M170,690L160,465H53L43,690H170Z"/>
      <glyph unicode="(" glyph-name="gid211" horiz-adv-x="369" d="M336,790l21-77q-83-35-116.5-139T207,313q0-102 15-183T269.5-6.5T357-88l-21-77Q179-120 105.5-4T32,312q0,202 73.5,318T336,790Z"/>
      <glyph unicode=")" glyph-name="gid212" horiz-adv-x="369" d="M33,790q158-44 231.5-160T338,312q0-200-73.5-316T33-165L12-88Q67-62 100-6.5T147.5,130T162,313q0,157-33.5,261T12,713l21,77Z"/>
      <glyph unicode="*" glyph-name="gid201" horiz-adv-x="455" d="M277,692L262,520L372,391l-78-58L227,453L161,333L82,391L194,519L178,692h99ZM60,617l115-50l-1-43l-22-26L30,524l30,93Zm335,1l30-94L304,498l-22,26l-2,43l115,51Z"/>
      <glyph unicode="+" glyph-name="gid252" horiz-adv-x="529" d="M496,370V235H33V370H496ZM331,532V73H198V532H331Z"/>
      <glyph unicode="," glyph-name="gid191" horiz-adv-x="249" d="M142,170q35,0 48.5-13.5T205,107V43q0-45-7-79.5t-20.5-63T145-155L76-133q10,33 13,65.5T93,0Q42,0 40,56l3,51q1,36 14.5,49.5T105,170h37Z"/>
      <glyph unicode="-" glyph-name="gid207" horiz-adv-x="395" d="M345,311V201H50V311H345Z"/>
      <glyph unicode="." glyph-name="gid190" horiz-adv-x="252" d="M147,170q36,0 49.5-14T210,107V63q0-35-13.5-49T147,0H105Q69,0 55.5,14T42,63v44q0,35 13.5,49T105,170h42Z"/>
      <glyph unicode="/" glyph-name="gid203" horiz-adv-x="572" d="M554,690L161-76H18L411,690H554Z"/>
      <glyph unicode="0" glyph-name="gid131" horiz-adv-x="646" d="M322,704q105,0 167-33.5t89-112T605,345T578,131.5t-89-112T322-14Q218-14 156,19.5t-88.5,112T41,345T67.5,558.5t88.5,112T322,704Zm-1-142q-28,0-46.5-8.5t-29-31T231,457t-4-112t4-112t14.5-65.5t29-31T321,128q29,0 48,8.5t30,31T414.5,233T419,345t-4.5,112T399,522.5t-30,31T321,562Z"/>
      <glyph unicode="1" glyph-name="gid132" horiz-adv-x="451" d="M370,690V0H183V458q0,21 1,41.5t6,40.5L29,505L7,622l176,68H370Z"/>
      <glyph unicode="2" glyph-name="gid133" horiz-adv-x="591" d="M291,702q75,0 129.5-13.5t85-49.5T536,535q0-37-8-68t-31.5-65T427,321L256,151q24,6 47.5,8t49.5,1H554V0H38V96q0,23 6,41t20,35L221,332q58,60 91,106t33,75q-1,15-9,21.5t-24.5,9T268,546q-36,0-67-0.5T134,544t-83-3L44,679q51,10 92.5,15t79.5,6.5t75,1.5Z"/>
      <glyph unicode="3" glyph-name="gid134" horiz-adv-x="573" d="M279,704q86,0 137-14.5T490,640t23-97q0-49-9-85.5t-33-59T402,369v-4q73-11 100.5-52.5T531,192q1-73-23-118.5T429.5,7T283-14q-62,0-126,5.5T33,5l6,134q44-3 75.5-4t59.5-1.5t57-0.5q45,0 70,6t35,24.5T346,217q0,30-7,48t-26.5,26.5T255,299l-132-1V416H255q29,0 45.5,5.5t24.5,15t10.5,24T338,492q-1,28-9,42t-27.5,19T246,558q-54,0-104-0.5T54,557L48,685q58,10 116,14.5T279,704Z"/>
      <glyph unicode="4" glyph-name="gid135" horiz-adv-x="649" d="M370,690L218,298q-5-13 1-20.5t18-7.5H626V164l-80-17H94q-28,0-48,14.5t-27,39T22,250L196,690H370ZM545,555V0H373V447l31,108H545Z"/>
      <glyph unicode="5" glyph-name="gid136" horiz-adv-x="561" d="M506,690l-6-137H215l-7-98l116-15q61-6 100-26.5T486,362t32-69t9-80q0-46-12-87T474.5,54t-77-48.5T275-12q-52,0-115.5,5T30,8L47,148q50-3 96.5-6t82.5-3q46,0 70,8.5t34,26T341,219q2,25-4.5,40.5t-21.5,25T276,298t-59,7L109,318q-24,3-39,20.5T56,379L74,690H506Z"/>
      <glyph unicode="6" glyph-name="gid137" horiz-adv-x="600" d="M344,702q27,0 76-2.5T522,682l-8-115q-28,1-52,1t-51,0t-67,0t-64.5-8.5t-37-33.5T226,453t-4-126q0-66 2.5-106.5t11-62t26.5-29t50-7.5q38,0 55,11.5T388.5,170t4.5,67q0,38-6.5,57.5t-24.5,27T310,329q-25,0-45.5-6.5T219,301t-66-41l-4,66q34,51 64,79t66.5,39T366,455q79,0 123-22t61.5-69T568,241q0-66-10.5-113.5T519,49T440.5,3T310-12Q233-12 181,3.5t-82,54T55.5,164T42,337q0,118 19,190.5T117.5,638t94,51T344,702Z"/>
      <glyph unicode="7" glyph-name="gid138" horiz-adv-x="536" d="M451,690q27,0 46-12.5T523,644t-2-46L312,0H129L296,467q6,18 14,36.5T330,539H28L20,690H451Z"/>
      <glyph unicode="8" glyph-name="gid139" horiz-adv-x="632" d="M316,703q80,0 129.5-11t77-33.5t38-57T571,518q0-37-11-72t-34-58.5T465,360v-4q50-4 76.5-30.5t36.5-67T588,172q0-68-22-108.5T485,5T316-13Q209-13 149.5,5T67,63.5T44,172q0,46 10,86.5t37,67T168,356v4q-38,4-61.5,27.5T72.5,446T62,518q0,49 10.5,83.5t38,57T188,692t128,11Zm2-404q-30,0-49.5-4t-30-14T224,253t-4-46q0-34 8-53t29-26t60-7t59.5,7T404,154t7,53q0,29-4,46.5T393,281t-28,14t-47,4Zm-1,280q-35,0-54-7t-26-25t-7-53q0-32 7-48.5T264,423t55-6q36,0 54,6t24,22.5t6,48.5q0,35-6.5,53t-25,25T317,579Z"/>
      <glyph unicode="9" glyph-name="gid140" horiz-adv-x="600" d="M291,702q82,0 134.5-16T506,631.5T545,525t11-174q0-117-16.5-189T488,52T395,1T255-12q-30,0-81.5,3T62,8l9,116q31-1 55.5-1.5t54-0.5t74.5,0q41,0 65.5,11T357,170.5T373,244t4,118q0,66-2.5,107T364,531.5t-25.5,29T290,568q-36,0-53.5-11T214,520.5T209,453q0-36 7-56t24-28t49-8q25,0 45.5,6.5T380,389t64,41l4-66q-33-51-63-79t-65.5-39T233,235q-77,0-120.5,27T51,337T33,449q0,89 22,144.5t78.5,82T291,702Z"/>
      <glyph unicode=":" glyph-name="gid192" horiz-adv-x="268" d="M148,457q36,0 49.5-14T211,394V350q0-35-13.5-49T148,287H106q-36,0-49.5,14T43,350v44q0,35 13.5,49T106,457h42Zm0-286q36,0 49.5-14T211,108V64q0-35-13.5-49T148,1H106Q70,1 56.5,15T43,64v44q0,35 13.5,49T106,171h42Z"/>
      <glyph unicode=";" glyph-name="gid193" horiz-adv-x="268" d="M156,457q36,0 49.5-14T219,394V350q0-35-13.5-49T156,287H114q-36,0-49.5,14T51,350v44q0,35 13.5,49T114,457h42Zm-5-287q35,0 48.5-13.5T214,107V43q0-45-7-79.5t-20.5-63T154-155L85-133q10,33 13,65.5T102,0Q51,0 49,56l3,51q1,36 14.5,49.5T114,170h37Z"/>
      <glyph unicode="&lt;" glyph-name="gid258" horiz-adv-x="511" d="M461,533V392L185,302l276-89V71L32,232V372L461,533Z"/>
      <glyph unicode="=" glyph-name="gid256" horiz-adv-x="574" d="M523,471V344H52V471H523Zm0-215V129H52V256H523Z"/>
      <glyph unicode="&gt;" glyph-name="gid257" horiz-adv-x="508" d="M50,533L476,372V232L50,71V213l273,89L50,392V533Z"/>
      <glyph unicode="?" glyph-name="gid197" horiz-adv-x="529" d="M282,712q112,0 166.5-37.5T503,557q0-43-17-75t-42-58t-51.5-53.5T346,308t-25-85H178q-3,52 9,91t31.5,69.5T258,438t35,43.5T310,520q4,26-13,36.5T237,567q-50,0-83,0t-60-0.5T33,565L28,686q29,5 53.5,10t51.5,8.5t62,5.5t87,2ZM270,170q35,0 48.5-13.5T332,107V63q0-36-13.5-49.5T270,0H228q-35,0-49,13.5T165,63v44q0,36 14,49.5T228,170h42Z"/>
      <glyph unicode="@" glyph-name="gid229" horiz-adv-x="782" d="M546,610q91,0 139-39t48-140V137H601l-15,65q-15-18-39-36t-55.5-29.5T421,125q-41,0-75,14t-54.5,42T271,251v46q0,54 37,84.5T411,412H567v19q0,28-12.5,40T509,483H388q-58,0-93-4.5T242.5,455T219,392t-6-123q0-66 4-107.5T234,98t37.5-31.5t65-11T436,54H733V-59q-73-7-147.5-11T436-74q-105,0-175,7T148-40T83,18T54,117.5T47,269t6,150t25.5,98t57,58t99,27.5T388,610H546Zm21-277l-94-5q-20-1-30.5-10T432,293V277q0-18 11.5-27.5T476,240q14,0 30,3.5t32,11T567,271v62Z"/>
      <glyph unicode="A" glyph-name="gid1" horiz-adv-x="669" d="M421,690q23,0 40.5-13T485,641L674,0H482L361,476q-4,17-7,36.5T348,549H321q-2-17-5.5-36.5T308,476L187,0H-5L184,641q6,23 23.5,36T248,690H421Zm95-391V164H153V299H516Z"/>
      <glyph unicode="B" glyph-name="gid10" horiz-adv-x="651" d="M341,698q94,0 149.5-15.5T570,628t24-110q0-74-28.5-112.5T470,361v-6q82-7 114.5-53.5T617,172q0-71-25.5-110t-79-54.5T374-8Q303-8 249.5-7.5T151.5-5T60,0L75,126q26-1 97.5-2T340,123q36,0 55.5,6.5t27,25.5t7.5,54q0,37-8,57t-27.5,27.5T338,301H74V414H336q31,0 48,6t24,23t7,49q0,31-7,47.5t-25,22T332,567q-60,0-105,0.5t-81.5,0T75,564L60,690q43,4 83,5.5t88,2T341,698Zm-98-8V0H60V690H243Z"/>
      <glyph unicode="C" glyph-name="gid11" horiz-adv-x="597" d="M342,702q52,0 88.5-3t67-8T560,677L546,539q-34,2-63,2.5t-62,1T342,543q-41,0-64.5-17T245,466t-9-121t9-121t32.5-60T342,147q73,0 121.5,2t97.5,7L575,19Q525,2 472.5-5T342-12Q231-12 164.5,22.5T68.5,135T39,345T68.5,555t96,112.5T342,702Z"/>
      <glyph unicode="D" glyph-name="gid13" horiz-adv-x="693" d="M344,700q85,0 144.5-17t96-57t53-108.5T654,345T637.5,172.5T584.5,64t-96-57T344-10q-83,0-152.5,3T60,0l77,135q36-3 89-4.5T344,129q43,0 67.5,18T446,212t10,133T446,478t-34.5,65T344,561q-61,0-108.5,0T144,561L60,690q63,4 131.5,7T344,700Zm-96-10V0H60V690H248Z"/>
      <glyph unicode="E" glyph-name="gid15" horiz-adv-x="588" d="M210,693q58,0 118.5,0t119-2.5T555,682l-9-134H288q-22,0-34-11.5T242,505V185q0-20 12-31.5T288,142H546L555,8Q506,3 447.5,0.5t-119-3T210-3Q141-3 98,38T55,145V545q0,67 43,107.5T210,693ZM73,419H510V292H73V419Z"/>
      <glyph unicode="F" glyph-name="gid20" horiz-adv-x="566" d="M215,693q56,0 115-0.5t115.5-3T548,681l-9-133H294q-23,0-35.5-11.5T246,505V0H58V544q0,67 43.5,108T215,693ZM76,406H502V279H76V406Z"/>
      <glyph unicode="G" glyph-name="gid21" horiz-adv-x="659" d="M355,704q51,0 90.5-3t74-8.5T588,677L574,541q-36,1-70,1.5t-69,1T357,544q-35,0-58.5-8t-37-30T242,444.5T236,344q0-77 9.5-120T277,164t61-17q26,0 47.5,3.5t39,10T455,172l19-82q-13-20-41.5-44.5T362,3.5T265-14q-78,0-128.5,36.5T62.5,138T39,345q0,134 30.5,212.5T169.5,670T355,704ZM615,397V0H477L452,106l-17,33V397H615Z"/>
      <glyph unicode="H" glyph-name="gid22" horiz-adv-x="704" d="M248,690V0H61V690H248ZM466,434V299H240V434H466ZM643,690V0H455V690H643Z"/>
      <glyph unicode="I" glyph-name="gid23" horiz-adv-x="308" d="M247,690V0H61V690H247Z"/>
      <glyph unicode="J" glyph-name="gid28" horiz-adv-x="390" d="M332,690V131q0-69-46-106.5T160-13q-20,0-48.5,2.5T56.5-3T15,10L35,129H82q64,0 64,45V690H332Z"/>
      <glyph unicode="K" glyph-name="gid29" horiz-adv-x="657" d="M648,690L480,416q-12-20-27-34.5T424,359v-3q14-8 33-25.5T487,292L659,0H451L254,361L447,690H648Zm-400,0V506q0-36-6.5-73.5T222,362q10-31 18-66.5t8-64.5V0H61V690H248Zm65-269V296H193V421H313Z"/>
      <glyph unicode="L" glyph-name="gid30" horiz-adv-x="547" d="M245,690V193q0-20 13-31.5T293,150H529L538,9Q463,0 380-1.5T216-3Q141-3 99.5,39T58,148V690H245Z"/>
      <glyph unicode="M" glyph-name="gid31" horiz-adv-x="935" d="M795,690q65,0 67-66L888,0H717L695,548H679L591,161q-10-58-72-58H414q-61,0-73,58L253,548H237L218,0H47L72,624q3,66 67,66H307q60,0 71-59l68-307q5-24 8.5-49.5T461,223h11q4,26 7,51.5t8,50.5l66,306q11,59 72,59H795Z"/>
      <glyph unicode="N" glyph-name="gid32" horiz-adv-x="731" d="M671,690V66q0-66-65-66H522q-30,0-44.5,14T448,55L279,349q-12,25-24,54t-20,58h-9q4-29 6.5-59.5T235,343V0H60V624q0,66 66,66h83q30,0 44-14t30-41L445,352q14-24 27-53t25-61h9q-3,31-5,61t-2,60l-1,331H671Z"/>
      <glyph unicode="O" glyph-name="gid34" horiz-adv-x="698" d="M349,704q86,0 145-17t96-57.5T643,520t16-175q0-105-16-174.5t-53-110T494,3T349-14Q264-14 204.5,3T108,60.5t-53,110T39,345q0,106 16,175t53,109.5T204.5,687T349,704Zm0-143q-44,0-68.5-18T246,478T236,345t10-133t34.5-65T349,129t68.5,18t34,65T461,345t-9.5,133t-34,65T349,561Z"/>
      <glyph unicode="P" glyph-name="gid42" horiz-adv-x="633" d="M339,700q104,0 163-20.5T586,609t25-140T587.5,329.5T510,260T365,240q-48,0-95.5,4.5t-88.5,12t-70,16T71,287l3,88q62,0 129,0t132,0q35,1 54,8.5t26.5,28T423,469q0,38-7.5,59T389,556.5T335,564q-97,0-166-1t-94-4L60,690q44,5 83,7t85,2.5T339,700Zm-91-10V0H60V690H248Z"/>
      <glyph unicode="Q" glyph-name="gid44" horiz-adv-x="698" d="M349,704q86,0 145.5-17t96-57.5t53-109.5T660,345q0-105-16.5-174.5t-53-110T494.5,3T349-14Q264-14 204.5,3t-96,57.5t-53,110T39,345q0,106 16.5,175t53,109.5t96,57.5T349,704ZM294-30q71-27 147.5-43.5T609-103L561-258q-96,26-173,61.5T253-122l41,92Zm55,591q-44,0-68.5-18T246,478T236,345t10-133t34.5-65T349,129t68.5,18T452,212t10,133T452,478t-34.5,65T349,561Z"/>
      <glyph unicode="R" glyph-name="gid45" horiz-adv-x="663" d="M340,700q97,0 158-19t89.5-63.5T616,492q0-44-12.5-80T561,353.5T479,325v-6q19-2 40.5-12t40-32.5T586,213L643,0H446L397,207q-7,32-22,42.5T331,260q-72,1-119,1t-79.5,1T71,265l3,131H336q36,0 55.5,7T419,428.5t8,51.5q0,34-8,52t-27.5,25T336,564q-99,0-167.5-1T75,560L60,690q44,5 83,7t85.5,2.5T340,700Zm-96-10V0H60V690H244Z"/>
      <glyph unicode="S" glyph-name="gid46" horiz-adv-x="599" d="M306,704q53-1 117-7t124-25L535,550q-44,1-107.5,2T303,553q-23,0-38.5-1.5t-25-6t-13.5-13T222,509q0-24 14.5-36.5T288,447l129-48q84-33 117.5-81.5T568,192q0-58-14-98T508.5,31t-83-34T298-14q-35,0-102.5,5T43,17L54,149q60-1 106.5-2.5t81-2T296,144q34,0 52,3.5t25,13t7,27.5q0,17-5,27t-17.5,17T324,246L186,301q-82,34-116,81T36,505q0,60 15,98t46.5,60T181,694.5T306,704Z"/>
      <glyph unicode="T" glyph-name="gid47" horiz-adv-x="613" d="M401,690V0H213V690H401Zm199,0V547H13V690H600Z"/>
      <glyph unicode="U" glyph-name="gid48" horiz-adv-x="696" d="M641,690V280q0-107-27.5-171.5T524,15T358-14Q246-14 179.5,15T84,108.5T55,280V690H243V280q0-59 9-92t32.5-46T348,129q41,0 64,13t32,46t9,92V690H641Z"/>
      <glyph unicode="V" glyph-name="gid53" horiz-adv-x="656" d="M654,690L477,51q-6-23-23.5-37T412,0H245q-25,0-42.5,14T180,51L2,690H195L301,219q4-19 8-39t7-39h24q3,19 7,39t8,39L461,690H654Z"/>
      <glyph unicode="W" glyph-name="gid54" horiz-adv-x="991" d="M968,690L870,51q-4-23-22.5-37T805,0H640q-25,0-43.5,14T575,51L514,463q-3,24-5,48t-5,48H486q-1-24-3.5-48.5T477,462L417,51q-3-23-22-37T352,0H186q-25,0-43.5,14T121,51L22,690H209l52-449q2-24 3.5-51t2.5-57h17q4,25 8.5,54t7.5,55l60,392q3,25 21,40.5T424,690H566q25,0 42.5-15.5T630,634l61-394q3-26 7-54t8-53h18q0,26 2.5,54t3.5,52l51,451H968Z"/>
      <glyph unicode="X" glyph-name="gid55" horiz-adv-x="662" d="M646,690L484,353L660,0H472L309,353L459,690H646Zm-443,0L353,353L190,0H2L178,353L16,690H203ZM417,409V301H232V409H417Z"/>
      <glyph unicode="Y" glyph-name="gid56" horiz-adv-x="635" d="M640,690L407,212H228L-5,690H189L289,456q9-21 13.5-45.5T312,364h12q4,22 9.5,47T347,457l99,233H640ZM412,321V0H224V321H412Z"/>
      <glyph unicode="Z" glyph-name="gid58" horiz-adv-x="596" d="M348,556l207-1L240,134L33,135L348,556ZM564,135V0H33V135H564Zm-9,555V555H42V690H555Z"/>
      <glyph unicode="[" glyph-name="gid215" horiz-adv-x="355" d="M327,768V656H258q-20,0-20-20V-33q0-20 20-20h69V-165H158q-40,0-65,19T68-75V678q0,40 25,65t65,25H327Z"/>
      <glyph unicode="\" glyph-name="gid204" horiz-adv-x="572" d="M161,690L554-76H411L18,690H161Z"/>
      <glyph unicode="]" glyph-name="gid216" horiz-adv-x="355" d="M197,768q40,0 65-25t25-65V-75q0-40-25-65t-65-25H28V-53H97q21,0 21,20V636q0,20-21,20H28V768H197Z"/>
      <glyph unicode="^" glyph-name="gid262" horiz-adv-x="481" d="M307,641L451,409l-70-38L246,532h-8L100,371L30,409L176,641H307Z"/>
      <glyph unicode="_" glyph-name="gid210" horiz-adv-x="448" d="M448,0V-109H0V0H448Z"/>
      <glyph unicode="`" glyph-name="gid274" horiz-adv-x="375" d="M111,757L330,608l-50-75L39,639l72,118Z"/>
      <glyph unicode="a" glyph-name="gid60" horiz-adv-x="581" d="M327,511q67,0 113.5-18T511,433t24-116V0H390L365,107l-12,18V318q-1,31-15.5,44.5T285,376q-39,0-96-1.5T70,369L54,486q37,7 86.5,12.5t99.5,9t87,3.5ZM463,305l-1-92H249q-23-1-33.5-11.5T205,173V154q0-19 12.5-29.5T255,114t53,11t55,30t47,41V132q-8-16-24.5-40T343,43.5T280,3T194-13q-45,0-83,16T50.5,50T28,128v50q0,60 42.5,93.5T186,305H463Z"/>
      <glyph unicode="b" glyph-name="gid68" horiz-adv-x="607" d="M388,511q102,0 144-60t42-197q0-54-10.5-101.5T526,67.5T448.5,9T317-12q-27,0-63.5,2.5T178.5-2T106,10.5T50,28L195,129q14-5 35.5-9t44-5.5T313,113q28,2 44,13.5T380,168t7,85q0,48-6,73.5T358.5,362T313,372t-51-9.5T214,338l-13,76q23,26 52,48t63.5,35.5T388,511ZM231,700l2-149q1-35-3.5-69.5T213,416l18-13V20L50,28V700H231Z"/>
      <glyph unicode="c" glyph-name="gid69" horiz-adv-x="519" d="M292,511q29,0 64-3t70-10.5T489,477L471,364q-45,0-81,0.5T323,365q-38,0-60-9.5T232,321t-9-72q0-46 9-71.5t31-35t60-9.5q17,0 42,0.5t55,2t60,4.5L497,26Q454,5 399.5-3.5T290-12q-94,0-151,25.5t-82,83T32,249q0,97 25.5,154T140,485.5T292,511Z"/>
      <glyph unicode="d" glyph-name="gid71" horiz-adv-x="609" d="M223,511q55,0 104-16t83-55l-13-75q-26,8-48.5,15.5T292,388q-25,0-40.5-9t-23-37.5T221,255q0-52 7-77.5t22.5-34T289,135q24,0 40.5,4.5t31.5,13T394,172l12-80q-24-44-71-74T213-12Q116-12 75,57.5T34,254q0,101 21.5,156.5t63.5,78T223,511ZM558,700V0H414L396,94l-19,13V426l6,13q-3,31-4.5,66T377,574V700H558Z"/>
      <glyph unicode="e" glyph-name="gid73" horiz-adv-x="578" d="M302,511q134,0 191-44t57-130q1-69-38-101T374,204H102v91H323q34,0 43.5,10t9.5,36q-1,29-16,39t-52,10q-35,1-53.5-8T229,346t-7-81t8.5-83t31-41T325,129q32,0 84.5,2.5T520,140L537,30Q505,14 466.5,5T387-8t-82-4Q205-12 145,16T58.5,101.5T32,246q0,98 27,156t86.5,83.5T302,511Z"/>
      <glyph unicode="f" glyph-name="gid78" horiz-adv-x="416" d="M272,722q19,0 50.5-1t65-3.5T445,710L427,598H337q-33,0-45-13t-12-46V0H97V564q0,47 17,82.5T169.5,702T272,722ZM407,497V384H13V492l86,5H407Z"/>
      <glyph unicode="g" glyph-name="gid79" horiz-adv-x="594" d="M284,511q91,0 144.5-16t77-50T529,353q0-57-23-91.5t-77.5-50T283,196q-90,0-144.5,15.5T60,261.5T36,353t24.5,91.5t79,50.5T284,511Zm-1-104q-45,0-61.5-11.5T205,353t16.5-42.5T283,299q46,0 62,11.5T361,353t-16,42.5T283,407Zm303,90l-9-70L441,406l-37,91H586ZM129,225l86-15q-12-5-17.5-19.5t2.5-28T232,147l182-16q83-7 117.5-44.5T566-22q0-67-28-102.5T449.5-173T290-186q-85,0-138.5,8T68-153.5t-41.5,44T15-42q0,31 11.5,54t42,41T153,86l80,22l62-23L259,63q-28-20-44-31T192,11.5T185-16t9-27.5t31.5-13T287-60q43,0 66.5,3.5t33,12T396-20T388,3T362.5,13.5T316,20L171,33q-41,4-65.5,22T72,98.5T67,150t20.5,46.5T129,225Z"/>
      <glyph unicode="h" glyph-name="gid80" horiz-adv-x="612" d="M420,511q144,0 144-139V0H382V315q0,24-9.5,33T339,357q-25,0-53.5-7T214,324l-18,84q54,51 111.5,77T420,511ZM233,700l1-159q0-42-6-81t-13-63l18-13V0H51V700H233Z"/>
      <glyph unicode="i" glyph-name="gid81" horiz-adv-x="291" d="M236,497V0H55V497H236ZM184,721q53,0 53-54V615q0-54-53-54H106q-53,0-53,54v52q0,54 53,54h78Z"/>
      <glyph unicode="j" glyph-name="gid88" horiz-adv-x="292" d="M237,497V42q0-49-18-95t-50.5-82.5T90-193L-10-113Q27-75 41.5-38.5T56,42V497H237ZM183,729q53,0 53-54V623q0-54-53-54H105q-53,0-53,54v52q0,54 53,54h78Z"/>
      <glyph unicode="k" glyph-name="gid90" horiz-adv-x="586" d="M571,497L455,330q-10-18-26-33t-26-21v-4q10-6 26-24t26-36L589,0H388L232,277L371,497H571ZM233,700V422q0-36-4.5-73T214,278q8-31 13.5-66t5.5-64V0H51V700H233Zm61-372V222H178V328H294Z"/>
      <glyph unicode="l" glyph-name="gid91" horiz-adv-x="344" d="M233,700V171q0-22 13.5-32T286,129h37L343,10Q330,2 305-3t-51-7.5T210-13Q136-13 94,23T52,124V700H233Z"/>
      <glyph unicode="m" glyph-name="gid92" horiz-adv-x="883" d="M694,511q69,0 105-35.5T835,372V0H654V315q0,23-9,32.5T612,357q-13,0-26-2.5T556.5,345T515,324l-10,93q46,47 90,70.5T694,511ZM194,497l20-100l18-13V0H51V497H194Zm198,14q68,0 103-35t36-104V0H356V315q0,24-10.5,33T312,357q-12,0-25.5-2.5T256,345t-43-21l-10,93q46,47 89.5,70.5T392,511Z"/>
      <glyph unicode="n" glyph-name="gid93" horiz-adv-x="612" d="M420,511q144,0 144-139V0H382V315q0,24-9.5,33T339,357q-25,0-53.5-7T214,324l-9,94q52,46 107,69.5T420,511ZM195,497l22-100l16-13V0H51V497H195Z"/>
      <glyph unicode="o" glyph-name="gid95" horiz-adv-x="601" d="M301,511q98,0 157-25.5t85-83T569,248q0-96-26-152.5t-85-82T301-12T144,13.5t-85,82T33,248q0,97 26,154.5t85,83T301,511Zm0-127q-31,0-47.5-11T230,333t-7-85q0-55 7-84t23.5-39.5T301,114t48,10.5T372.5,164t6.5,84q0,56-6.5,85T349,373t-48,11Z"/>
      <glyph unicode="p" glyph-name="gid103" horiz-adv-x="611" d="M400,509q96,0 136.5-69T577,243q0-101-21.5-156.5t-63-78T389-14Q334-14 285,2.5T203,57l12,75q26-8 48.5-15.5T319,109q26,0 41.5,9.5t22.5,38t7,85.5t-7,86t-21.5,38.5T324,376q-30,0-50-9t-45-24l-24,74q16,26 46,47t68.5,33T400,509ZM197,497l17-84l19-15V71l-6-12q3-31 4.5-66.5T233-76V-185H51V497H197Z"/>
      <glyph unicode="q" glyph-name="gid105" horiz-adv-x="607" d="M291,511q26,0 62.5-2.5t75-7.5T501,488.5T557,470L412,369q-13,6-35,10t-44.5,5.5T294,385q-28-1-44-12.5T227,331t-7-86q0-66 14.5-88.5T291,134q31,0 54.5,10T396,166l14-69q-19-24-48-49.5T295.5,5T217-12Q117-12 75,54.5T33,245q0,59 10.5,108t38,84T160,491.5T291,511Zm85-32l181-9V-185H376V-46q-1,35 3.5,70T394,90l-18,12V479Z"/>
      <glyph unicode="r" glyph-name="gid106" horiz-adv-x="440" d="M193,497l22-100l18-13V0H51V497H193Zm242,14L419,344H371q-30,0-66-6t-91-20l-11,99q50,47 102.5,70.5T407,511h28Z"/>
      <glyph unicode="s" glyph-name="gid107" horiz-adv-x="543" d="M252,511q39,0 83.5-3t87.5-7t74-11L485,382q-49,0-98.5,0.5T291,383q-36,0-54-1t-24.5-5.5T206,360q0-15 13-20t48-15l122-30q65-17 96-49.5T516,148q0-62-23.5-96.5T417,3T282-11q-34,0-100,3T38,8L49,117q15,0 43.5-0.5T156,116t69,0q49,0 74,1.5t33.5,7.5t8.5,18q0,15-15,20.5T273,179L156,210q-51,14-78.5,36T40,298T30,367q0,49 21,80.5T120.5,495T252,511Z"/>
      <glyph unicode="t" glyph-name="gid109" horiz-adv-x="425" d="M281,631V171q0-22 11-32t37-10h58L407,10Q387,2 358.5-3T301-10.5T251-13q-70,0-110.5,36.5T100,125V631H281ZM410,497V384H14V492l96,5H410Z"/>
      <glyph unicode="u" glyph-name="gid110" horiz-adv-x="605" d="M230,497V182q-1-23 10-33t36-10q24,0 49.5,7T390,172l12-93Q350,32 299,9T193-14Q48-14 48,125V497H230Zm324,0V0H411L389,100l-18,12V497H554Z"/>
      <glyph unicode="v" glyph-name="gid115" horiz-adv-x="585" d="M583,497L428,43q-6-20-21.5-31.5T370,0H214q-20,0-35.5,11.5T157,43L2,497H194l74-291q6-22 10-45.5t8-46.5h13q4,23 9,46.5t9,45.5l74,291H583Z"/>
      <glyph unicode="w" glyph-name="gid116" horiz-adv-x="864" d="M852,497L741,46q-4-21-20.5-33.5T681,0H550q-24,0-42,15T487,54L446,305q-2,22-3.5,43T438,390H425q-1-21-3.5-42T416,305L376,54q-3-24-21-39T312,0H183q-22,0-39,12.5T123,46L12,497H193l50-299q3-21 6-42t4-43h12q3,22 6,43t5,42l40,246q3,23 20.5,38T379,497H485q24,0 41.5-15T547,443l39-245q3-21 6.5-42t5.5-43h12q3,22 5,43t6,42l50,299H852Z"/>
      <glyph unicode="x" glyph-name="gid117" horiz-adv-x="588" d="M574,497L436,254L585,0H404L265,254L393,497H574Zm-379,0L324,254L185,0H3L152,254L14,497H195ZM387,309V203H203V309H387Z"/>
      <glyph unicode="y" glyph-name="gid118" horiz-adv-x="585" d="M583,497L416,5q-13-39-36-80t-59.5-73.5T232-196t-122-3L97-99q61,14 96.5,38T248,6l34,75q11,24 19.5,59.5T315,201l74,296H583Zm-388,0l75-296q4-21 7.5-43t6.5-43h28L256,0H214q-21,0-36.5,12T156,43L2,497H195Z"/>
      <glyph unicode="z" glyph-name="gid121" horiz-adv-x="534" d="M285,378l210-1L244,119L34,120L285,378ZM500,120V0H34V120H500Zm-5,377V377H39V497H495Z"/>
      <glyph unicode="{" glyph-name="gid213" horiz-adv-x="350" d="M318,768V657q-40,0-54.5-8T249,608V471q1-42-8-71.5t-33.5-47T139,328q45-12 69.5-31.5t34.5-46T253,189V-8q0-32 14.5-39T322-54V-165q-86-13-139.5,3T104-109T79-22V208q0,23-5,33.5t-16.5,16T27,271V385q21,7 31,11.5T71.5,413T75,452V625q0,51 25,87.5T178.5,765T318,768Z"/>
      <glyph unicode="|" glyph-name="gid239" horiz-adv-x="269" d="M198,781V-169H71V781H198Z"/>
      <glyph unicode="}" glyph-name="gid214" horiz-adv-x="350" d="M32,768q86,13 139.5-3T250,712.5T275,625V452q0-27 3.5-39t14-16.5T323,385V271q-18-8-30-13.5t-17-16T271,208V-22q0-50-25-87t-78.5-53T28-165V-54q40,0 55,7T98-8V189q1,35 10.5,61.5t34,46T211,328q-44,7-68,24.5t-33,47T102,471V608q0,33-15,41t-55,8V768Z"/>
      <glyph unicode="~" glyph-name="gid260" horiz-adv-x="506" d="M135,370q20-1 49.5-7.5t61-15T304,332t40-9q23-4 27.5,6t4.5,36h78q14-81-12-120t-72-38q-20,1-49.5,7.5T260,229t-57.5,15.5T161,254q-23,4-27-6t-4-36H52q-9,56 1,91t32.5,51.5T135,370Z"/>
      <glyph unicode="&#xa0;" glyph-name="gid186" horiz-adv-x="213"/>
      <glyph unicode="&#xa1;" glyph-name="gid196" horiz-adv-x="299" d="M221,291L240,69V-180H60V69L79,291H221ZM171,514q36,0 49.5-13.5T234,451V407q0-36-13.5-49.5T171,344H130q-36,0-49.5,13.5T67,407v44q0,36 13.5,49.5T130,514h41Z"/>
      <glyph unicode="&#xa2;" glyph-name="gid241" horiz-adv-x="534" d="M294,609q28,0 63.5-3t71-10.5T492,575L474,469q-45,1-82,1.5T325,471q-44,0-69-10t-35-36.5T211,347q0-50 10-76.5t35-37T325,223q16,0 41.5,0.5t56,2.5t60.5,5l17-107q-43-20-98-29T292,86q-96,0-153,25.5t-82,83T32,347q0,97 25.5,154t83,82.5T294,609Zm26-444L301,0H248l19,165h53Zm41,340L323,165H270l38,340h53Zm25,185L364,505H311l21,185h54Z"/>
      <glyph unicode="&#xa3;" glyph-name="gid245" horiz-adv-x="595" d="M318,703q23,0 58-1t77.5-3t86.5-6l-9-136q-15,0-26.5,0.5T476,558t-46.5,0T348,558q-35,0-49-12.5T287,504l20-209q3-46-6.5-74.5t-27.5-47T233,138q20,6 40.5,7t41.5,1H562V0H43V146q53,25 67.5,63t9.5,86L103,512q-3,58 8.5,95T150,665t69,29.5t99,8.5ZM476,409l-4-90H42l-2,90H476Z"/>
      <glyph unicode="&#xa4;" glyph-name="gid242" horiz-adv-x="579" d="M289,457q-28,0-51-14t-37-37.5T187,353t14-52.5T238,263t51-14q27,0 50.5,14T377,300.5T391,353t-14,52.5T339.5,443T289,457ZM118,599l86-88l-74-74L43,524l75,75Zm346,0l74-75l-84-84l-74,74l84,85ZM133,279l79-80l-94-94L38,185l95,94Zm313-10l92-90l-75-75l-91,91l74,74ZM289,558q58,0 104-28t74-74.5T495,352T467,248.5T392.5,174T289,146q-56,0-103,28t-75,74.5T83,352t28,103.5T185.5,530T289,558Z"/>
      <glyph unicode="&#xa5;" glyph-name="gid246" horiz-adv-x="689" d="M667,690L434,216H255L22,690H215L315,460q10-21 14.5-46t9.5-47h12q5,22 10.5,47.5T375,460l99,230H667ZM439,326V0H251V326H439ZM593,224V135H99l-2,89H593Zm0,126V261H99l-2,89H593Z"/>
      <glyph unicode="&#xa6;" glyph-name="gid240" horiz-adv-x="271" d="M199,781V381H72V781H199Zm0-550V-169H72V231H199Z"/>
      <glyph unicode="&#xa7;" glyph-name="gid232" horiz-adv-x="560" d="M187,343q0-37 5.5-59T216,247.5T267,214l151-81q22-12 45.5-29T504,55.5T521-31q0-64-27.5-98.5t-80.5-47T283-189q-24,0-65,1t-86,4t-81,7L63-52q27-1 49-2t49-1t67,0q33,0 54.5,2t32,8.5T326-24q4,20-11,32T279,30L153,93q-59,29-85.5,64.5T41,238.5T62,343H187Zm91,361q24,0 64.5-1.5t86-4T509,692L497,567q-25,2-47.5,2t-49,0T333,569q-33,0-54.5-2t-32-7.5T234,540q-3-21 12-33t36-22l126-63q60-28 86-64t25.5-81.5T499,172H373q1,37-4.5,58.5t-23,36.5T293,301L142,382q-21,12-44.5,29T57,459.5T40,546q0,63 26.5,97.5T146,691t132,13Z"/>
      <glyph unicode="&#xa8;" glyph-name="gid272" horiz-adv-x="430" d="M338,714q36,0 36-36V617q0-36-36-36H279q-36,0-36,36v61q0,36 36,36h59Zm-186,0q35,0 35-36V617q0-36-35-36H92q-35,0-35,36v61q0,36 35,36h60Z"/>
      <glyph unicode="&#xa9;" glyph-name="gid233" horiz-adv-x="794" d="M397,704q77,0 142.5-26.5t115-74.5T732,489t28-144T732,201T654.5,87T539,12.5T397-14T255,12.5t-115.5,75T62,201.5T34,345T62,489t77.5,114T255,677.5T397,704Zm4-157q50,0 78.5-3.5T539,532l-10-96q-32,0-58.5,0.5T401,437q-23,0-35-7t-16.5-27T345,346t4.5-56.5t16.5-27t35-7.5q46,0 76.5,1t61.5,3l10-95q-33-10-65.5-14.5T402,145q-72,0-114.5,19.5T226,228T207,346t19,118.5T288,528t113,19Zm-4,71q-56,0-105-20t-87-57t-59.5-86.5T124,345q0-59 21.5-109T205,149t87-57T397,72q57,0 106.5,20t87,57T649,236t21,109T649,454t-58.5,87t-87,57T397,618Z"/>
      <glyph unicode="&#xaa;" glyph-name="gid129" horiz-adv-x="435" d="M245,619q69,0 105.5-28.5T387,486V276H282l-18,72l-8,13V487q0,18-9,26.5T215,522q-28,0-66.5-1T68,518L56,603q25,5 59,8.5t69,5.5t61,2Zm92-138l-1-53L195,415q-16-1-23-7t-7-16V382q0-11 8-17.5t24-6.5q18,0 36.5,8T269,386.5T297,412V368q-4-11-15.5-28t-29-34t-43-28T150,267q-46,0-79,24T38,361v34q0,40 28.5,63T145,481H337Z"/>
      <glyph unicode="&#xab;" glyph-name="gid223" horiz-adv-x="537" d="M408,468l95-61L408,251L503,89L408,29L249,232v38L408,468Zm-223,0l95-61L185,251L280,89L185,29L26,232v38L185,468Z"/>
      <glyph unicode="&#xac;" glyph-name="gid261" horiz-adv-x="575" d="M521,369V243H48V369H521Zm0-10V137l-135-1V350l135,9Z"/>
      <glyph unicode="&#xae;" glyph-name="gid234" horiz-adv-x="507" d="M254,704q62,0 112-30t80-80t30-112T446,369.5T366,289T254,259T141.5,289T61,369.5T31,482T61,594t80.5,80T254,704ZM229,595V376H155V595h74Zm25,58q-47,0-86-23.5t-62-62T83,482q0-48 23-87t62-62.5T254,309t85,23.5T400.5,395T424,482q0,47-23.5,85.5t-61.5,62T254,653Zm5-55q54,0 79-14t25-52q0-19-11-34t-41-18v-2q12-1 24-7t17-28l20-67H293l-15,64q-4,10-9,12.5T255,455q-41,0-60,0t-35,1v45h96q19,0 25,5t6,18t-6,17t-25,4q-35,0-60.5,0T161,544l-6,51q24,2 45.5,2.5T259,598Z"/>
      <glyph unicode="&#xaf;" glyph-name="gid280" horiz-adv-x="400" d="M355,704V594H45V704H355Z"/>
      <glyph unicode="&#xb0;" glyph-name="gid236" horiz-adv-x="334" d="M167,704q38,0 70-18.5t50.5-49T306,568t-19-69.5t-50.5-50T167,430T97,448.5t-51,50T27,568t19,68.5t51,49T167,704Zm0-82q-21,0-37-15t-16-40q0-15 7.5-28T141,519t26-7q15,0 26.5,7t19,20t7.5,28q0,25-15.5,40T167,622Z"/>
      <glyph unicode="&#xb1;" glyph-name="gid259" horiz-adv-x="565" d="M514,448V315H51V448H514Zm0-283V31H51V165H514ZM349,562V202H216V562H349Z"/>
      <glyph unicode="&#xb2;" glyph-name="gid177" horiz-adv-x="427" d="M201,779q59,0 98.5-8.5t58.5-33T377,666q0-22-17-51.5T309,555l-97-85q15,4 28.5,6t29.5,1l119-3l-1-114H42v69q0,17 4,30.5T61,485l86,77q23,20 39,35.5t26.5,28T226,647q4,12-7,15t-32,3q-33,0-62.5,0T50,664L46,767q49,8 90.5,10t64.5,2Z"/>
      <glyph unicode="&#xb3;" glyph-name="gid178" horiz-adv-x="410" d="M204,781q90,0 125-20.5T364,685q0-47-15-73t-63-32v-2q51-7 70-30.5T376,474q1-67-37.5-95T206,351q-43,0-86,3.5T37,363l5,99q30-1 50-1.5t37.5-0.5t36.5,0q43,0 55,6t12,28q0,12-3,19t-14,10.5T183,527l-87,3v83l87,3q21,1 30.5,4T226,630t3,17q0,17-9,21.5T179,673q-35,0-69,0t-59,0l-4,96q40,6 79.5,9t77.5,3Z"/>
      <glyph unicode="&#xb4;" glyph-name="gid275" horiz-adv-x="374" d="M261,743l72-117L93,519L42,594L261,743Z"/>
      <glyph unicode="&#xb5;" glyph-name="gid263" horiz-adv-x="623" d="M232,497V196q0-36 11.5-46T274,140q23,0 45,18t36.5,54.5T370,302l3-214q-13-28-35-51T287.5,0T224-14q-47,0-86.5,13.5t-63,45T51,130V497H232Zm0-387L231-67L209-185H51V185l181-75ZM551,497V150q0-16 2-26.5t7.5-15.5t16.5-5h30l7-90Q588,3 554-4.5T483-12q-46,0-78,21.5T373,80v8l-3,16V497H551Z"/>
      <glyph unicode="&#xb6;" glyph-name="gid231" horiz-adv-x="615" d="M355,702q37,0 88.5-3.5T537,685l-6-103q-25,5-58.5,7.5t-66,3.5T350,594L269,200Q138,210 81.5,268T25,450q0,93 33,148t105.5,79.5T355,702Zm17-17V-210H259V685H372Zm165,0V0H424V685H537Z"/>
      <glyph unicode="&#xb7;" glyph-name="gid199" horiz-adv-x="258" d="M150,343q36,0 49.5-14T213,280V236q0-35-13.5-49T150,173H108q-36,0-49.5,14T45,236v44q0,35 13.5,49T108,343h42Z"/>
      <glyph unicode="&#xb8;" glyph-name="gid281" horiz-adv-x="256" d="M76-35q58,6 94,5t52.5-17T237-100q-1-54-31.5-88t-79-47.5T19-241l19,70q35,0 60.5,10.5T127-116q2,13-10.5,14.5T59-100L76-35Z"/>
      <glyph unicode="&#xb9;" glyph-name="gid176" horiz-adv-x="315" d="M260,772V360H122V609q0,13 0.5,26.5T127,664L27,646L11,733l111,39H260Z"/>
      <glyph unicode="&#xba;" glyph-name="gid130" horiz-adv-x="437" d="M219,619q101,0 142.5-40T403,442q0-64-18-102.5t-58-55T219,268q-102,0-143.5,39T34,442q0,97 41.5,137T219,619Zm0-91q-29,0-38-16t-9-70q0-52 9-68t38-16q28,0 37,16t9,68q0,54-9,70t-37,16Z"/>
      <glyph unicode="&#xbb;" glyph-name="gid224" horiz-adv-x="537" d="M129,468L288,270V232L129,29L34,89l95,162L34,407l95,61Zm223,0L511,270V232L352,29L257,89l95,162L257,407l95,61Z"/>
      <glyph unicode="&#xbc;" glyph-name="gid173" horiz-adv-x="926" d="M674,690L274,0H163L563,690H674Zm-407,0V276H128V526q0,14 1,27.5t4,27.5L39,564L23,650l105,40H267ZM732,414L640,184q-2-7 1-10t11-3H898V93L850,81H547q-28,0-43,19.5T500,146L608,414H732Zm120-82V0H724V269l22,63H852Z"/>
      <glyph unicode="&#xbd;" glyph-name="gid172" horiz-adv-x="930" d="M673,690L272,0H161L561,690H673Zm-406,0V276H128V526q0,14 1,27.5t4,27.5L39,564L23,650l105,40H267ZM709,421q60,0 99-8.5t58-33T885,308q0-22-17-52t-50-59l-96-86q16,4 29,5.5t29,0.5l116-2V0H552V70q0,17 4,30.5T572,126l84,77q32,29 52.5,51T734,289q4,12-6.5,15T695,307q-33,0-61.5,0T560,307l-4,101q49,9 90,11t63,2Z"/>
      <glyph unicode="&#xbe;" glyph-name="gid174" horiz-adv-x="1003" d="M756,690L355,0H244L644,690H756Zm-554,6q89,0 123-20.5T359,599q0-46-14.5-72.5T281,494v-2q52-7 70-30.5T370,388q2-67-36-95.5T203,264q-42,0-84.5,3.5T36,276l4,99q30-1 50.5-1.5T128,373t35,0q42,0 53.5,6.5T228,408q0,13-3.5,21T211,440.5T180,444H95v83l85,1q20,0 29.5,3.5t12,11T224,561q0,17-8.5,21.5T176,588q-35,1-68,1t-59,0l-4,95q40,6 79,9t78,3ZM811,414L719,184q-3-7 0.5-10t11.5-3H976V93L929,81H626q-28,0-43.5,19.5T579,146L687,414H811Zm119-82V0H802V269l22,63H930Z"/>
      <glyph unicode="&#xbf;" glyph-name="gid198" horiz-adv-x="524" d="M349,290q3-51-9-90t-31.5-69.5T269,76T234,32T217-6q-4-26 13.5-36.5T290-53q51,0 83,0t59.5,0.5T494-51l5-121q-30-5-54-10t-51-9t-62-5.5T245-198q-111,0-166,38T24-43Q24,1 41,32.5T83,90t51.5,53.5T181,206t25,84H349ZM299,514q36,0 49.5-13.5T362,451V407q0-36-13.5-49.5T299,344H258q-36,0-49.5,13.5T195,407v44q0,36 13.5,49.5T258,514h41Z"/>
      <glyph unicode="&#xc0;" glyph-name="gid6" horiz-adv-x="669" d="M421,690q23,0 40.5-13T485,641L674,0H482L361,476q-4,17-7,36.5T348,549H321q-2-17-5.5-36.5T308,476L187,0H-5L184,641q6,23 23.5,36T248,690H421Zm95-391V164H153V299H516ZM207,960L426,811l-50-75L135,842l72,118Z"/>
      <glyph unicode="&#xc1;" glyph-name="gid2" horiz-adv-x="669" d="M421,690q23,0 40.5-13T485,641L674,0H482L361,476q-4,17-7,36.5T348,549H321q-2-17-5.5-36.5T308,476L187,0H-5L184,641q6,23 23.5,36T248,690H421Zm95-391V164H153V299H516ZM460,946l72-117L292,722l-51,75L460,946Z"/>
      <glyph unicode="&#xc2;" glyph-name="gid4" horiz-adv-x="669" d="M421,690q23,0 40.5-13T485,641L674,0H482L361,476q-4,17-7,36.5T348,549H321q-2-17-5.5-36.5T308,476L187,0H-5L184,641q6,23 23.5,36T248,690H421Zm95-391V164H153V299H516ZM402,921L537,783l-44-62L340,815h-8L178,721l-46,68L271,921H402Z"/>
      <glyph unicode="&#xc3;" glyph-name="gid8" horiz-adv-x="669" d="M421,690q23,0 40.5-13T485,641L674,0H482L361,476q-4,17-7,36.5T348,549H321q-2-17-5.5-36.5T308,476L187,0H-5L184,641q6,23 23.5,36T248,690H421Zm95-391V164H153V299H516ZM236,909q25-2 46.5-7.5t41-13T362,874t38-10q25-4 29.5,5.5T434,904h76q14-77-12-118t-71-38q-34,3-63,12.5t-54,20T261,794q-23,4-27.5-6T229,753H153q-10,55 0.5,90.5T187,895t49,14Z"/>
      <glyph unicode="&#xc4;" glyph-name="gid5" horiz-adv-x="669" d="M421,690q23,0 40.5-13T485,641L674,0H482L361,476q-4,17-7,36.5T348,549H321q-2-17-5.5-36.5T308,476L187,0H-5L184,641q6,23 23.5,36T248,690H421Zm95-391V164H153V299H516ZM457,895q36,0 36-36V798q0-36-36-36H398q-36,0-36,36v61q0,36 36,36h59Zm-186,0q35,0 35-36V798q0-36-35-36H211q-35,0-35,36v61q0,36 35,36h60Z"/>
      <glyph unicode="&#xc5;" glyph-name="gid7" horiz-adv-x="669" d="M421,690q23,0 40.5-13T485,641L674,0H482L361,476q-4,17-7,36.5T348,549H321q-2-17-5.5-36.5T308,476L187,0H-5L184,641q6,23 23.5,36T248,690H421Zm95-391V164H153V299H516ZM336,954q34,0 62-16t45-43.5T460,834q0-34-17-61.5T398,729t-62-16t-62,16t-45,43.5T212,834q0,33 17,60.5T274,938t62,16Zm0-72q-20,0-33.5-14T289,833t13.5-34.5T336,785t34,13.5T384,833t-14,35t-34,14Z"/>
      <glyph unicode="&#xc6;" glyph-name="gid9" horiz-adv-x="945" d="M574,692q95,0 173.5-1.5T912,682l-9-132H663q-20,0-33-12t-13-31V183q0-20 12-31.5T663,140H903L912,8Q835-1 750-2T581-3Q517-3 479.5,38T442,145V512q0,17 5.5,34.5T461,576H448q-8-9-16-22.5T417,528L177,0H-15L249,545q19,40 42.5,68t59,45.5t90,25.5T574,692ZM486,307V176H141l2,131H486ZM452,416l416-1V296H452V416Z"/>
      <glyph unicode="&#xc7;" glyph-name="gid12" horiz-adv-x="597" d="M342,702q52,0 88.5-3t67-8T560,677L546,539q-34,2-63,2.5t-62,1T342,543q-41,0-64.5-17T245,466t-9-121t9-121t32.5-60T342,147q73,0 121.5,2t97.5,7L575,19Q525,2 472.5-5T342-12Q231-12 164.5,22.5T68.5,135T39,345T68.5,555t96,112.5T342,702ZM261-62q58,6 94,5t52.5-17T422-127q-1-54-31.5-88t-79-47.5T204-268l19,70q35,0 60.5,10.5T312-143q2,13-10.5,14.5T244-127l17,65Z"/>
      <glyph unicode="&#xc8;" glyph-name="gid19" horiz-adv-x="588" d="M210,693q58,0 118.5,0t119-2.5T555,682l-9-134H288q-22,0-34-11.5T242,505V185q0-20 12-31.5T288,142H546L555,8Q506,3 447.5,0.5t-119-3T210-3Q141-3 98,38T55,145V545q0,67 43,107.5T210,693ZM73,419H510V292H73V419ZM191,965L410,816l-50-75L119,847l72,118Z"/>
      <glyph unicode="&#xc9;" glyph-name="gid16" horiz-adv-x="588" d="M210,693q58,0 118.5,0t119-2.5T555,682l-9-134H288q-22,0-34-11.5T242,505V185q0-20 12-31.5T288,142H546L555,8Q506,3 447.5,0.5t-119-3T210-3Q141-3 98,38T55,145V545q0,67 43,107.5T210,693ZM73,419H510V292H73V419ZM444,951l72-117L276,727l-51,75L444,951Z"/>
      <glyph unicode="&#xca;" glyph-name="gid17" horiz-adv-x="588" d="M210,693q58,0 118.5,0t119-2.5T555,682l-9-134H288q-22,0-34-11.5T242,505V185q0-20 12-31.5T288,142H546L555,8Q506,3 447.5,0.5t-119-3T210-3Q141-3 98,38T55,145V545q0,67 43,107.5T210,693ZM73,419H510V292H73V419ZM386,925L521,787l-44-62L324,819h-8L162,725l-46,68L255,925H386Z"/>
      <glyph unicode="&#xcb;" glyph-name="gid18" horiz-adv-x="588" d="M210,693q58,0 118.5,0t119-2.5T555,682l-9-134H288q-22,0-34-11.5T242,505V185q0-20 12-31.5T288,142H546L555,8Q506,3 447.5,0.5t-119-3T210-3Q141-3 98,38T55,145V545q0,67 43,107.5T210,693ZM73,419H510V292H73V419ZM441,899q36,0 36-36V802q0-36-36-36H382q-36,0-36,36v61q0,36 36,36h59Zm-186,0q35,0 35-36V802q0-36-35-36H195q-35,0-35,36v61q0,36 35,36h60Z"/>
      <glyph unicode="&#xcc;" glyph-name="gid27" horiz-adv-x="308" d="M247,690V0H61V690H247ZM25,962L244,813l-50-75L-47,844L25,962Z"/>
      <glyph unicode="&#xcd;" glyph-name="gid24" horiz-adv-x="308" d="M247,690V0H61V690H247Zm31,258l72-117L110,724L59,799L278,948Z"/>
      <glyph unicode="&#xce;" glyph-name="gid25" horiz-adv-x="308" d="M247,690V0H61V690H247ZM221,923L356,785l-44-62L159,817h-8L-3,723l-46,68L90,923H221Z"/>
      <glyph unicode="&#xcf;" glyph-name="gid26" horiz-adv-x="308" d="M247,690V0H61V690H247Zm28,206q36,0 36-36V799q0-36-36-36H216q-36,0-36,36v61q0,36 36,36h59ZM89,896q35,0 35-36V799q0-36-35-36H29q-35,0-35,36v61q0,36 35,36H89Z"/>
      <glyph unicode="&#xd0;" glyph-name="gid14" horiz-adv-x="694" d="M360,405V313H10v92H360ZM345,700q85,0 144.5-17t96-57t53-108.5T655,345T638.5,172.5T585.5,64t-96-57T345-10q-83,0-152.5,3T61,0l77,135q36-3 89-4.5T345,129q43,0 67.5,18T447,212t10,133T447,478t-34.5,65T345,561q-61,0-108.5,0T144,561L61,690q63,4 131.5,7T345,700Zm-96-10V0H61V690H249Z"/>
      <glyph unicode="&#xd1;" glyph-name="gid33" horiz-adv-x="731" d="M671,690V66q0-66-65-66H522q-30,0-44.5,14T448,55L279,349q-12,25-24,54t-20,58h-9q4-29 6.5-59.5T235,343V0H60V624q0,66 66,66h83q30,0 44-14t30-41L445,352q14-24 27-53t25-61h9q-3,31-5,61t-2,60l-1,331H671ZM277,910q25-2 46.5-7.5t41-13T403,875t38-10q25-4 29.5,5.5T475,905h76q14-77-12-118t-71-38q-34,3-63,12.5t-54,20T302,795q-23,4-27.5-6T270,754H194q-10,55 0.5,90.5T228,896t49,14Z"/>
      <glyph unicode="&#xd2;" glyph-name="gid38" horiz-adv-x="698" d="M349,704q86,0 145-17t96-57.5T643,520t16-175q0-105-16-174.5t-53-110T494,3T349-14Q264-14 204.5,3T108,60.5t-53,110T39,345q0,106 16,175t53,109.5T204.5,687T349,704Zm0-143q-44,0-68.5-18T246,478T236,345t10-133t34.5-65T349,129t68.5,18t34,65T461,345t-9.5,133t-34,65T349,561ZM219,962L438,813l-50-75L147,844l72,118Z"/>
      <glyph unicode="&#xd3;" glyph-name="gid35" horiz-adv-x="698" d="M349,704q86,0 145-17t96-57.5T643,520t16-175q0-105-16-174.5t-53-110T494,3T349-14Q264-14 204.5,3T108,60.5t-53,110T39,345q0,106 16,175t53,109.5T204.5,687T349,704Zm0-143q-44,0-68.5-18T246,478T236,345t10-133t34.5-65T349,129t68.5,18t34,65T461,345t-9.5,133t-34,65T349,561ZM472,963l72-117L304,739l-51,75L472,963Z"/>
      <glyph unicode="&#xd4;" glyph-name="gid36" horiz-adv-x="698" d="M349,704q86,0 145-17t96-57.5T643,520t16-175q0-105-16-174.5t-53-110T494,3T349-14Q264-14 204.5,3T108,60.5t-53,110T39,345q0,106 16,175t53,109.5T204.5,687T349,704Zm0-143q-44,0-68.5-18T246,478T236,345t10-133t34.5-65T349,129t68.5,18t34,65T461,345t-9.5,133t-34,65T349,561Zm66,362L550,785l-44-62L353,817h-8L191,723l-46,68L284,923H415Z"/>
      <glyph unicode="&#xd5;" glyph-name="gid40" horiz-adv-x="698" d="M349,704q86,0 145-17t96-57.5T643,520t16-175q0-105-16-174.5t-53-110T494,3T349-14Q264-14 204.5,3T108,60.5t-53,110T39,345q0,106 16,175t53,109.5T204.5,687T349,704Zm0-143q-44,0-68.5-18T246,478T236,345t10-133t34.5-65T349,129t68.5,18t34,65T461,345t-9.5,133t-34,65T349,561ZM248,910q25-2 46.5-7.5t41-13T374,875t38-10q25-4 29.5,5.5T446,905h76q14-77-12-118t-71-38q-34,3-63,12.5t-54,20T273,795q-23,4-27.5-6T241,754H165q-10,55 0.5,90.5T199,896t49,14Z"/>
      <glyph unicode="&#xd6;" glyph-name="gid37" horiz-adv-x="698" d="M349,704q86,0 145-17t96-57.5T643,520t16-175q0-105-16-174.5t-53-110T494,3T349-14Q264-14 204.5,3T108,60.5t-53,110T39,345q0,106 16,175t53,109.5T204.5,687T349,704Zm0-143q-44,0-68.5-18T246,478T236,345t10-133t34.5-65T349,129t68.5,18t34,65T461,345t-9.5,133t-34,65T349,561ZM469,896q36,0 36-36V799q0-36-36-36H410q-36,0-36,36v61q0,36 36,36h59Zm-186,0q35,0 35-36V799q0-36-35-36H223q-35,0-35,36v61q0,36 35,36h60Z"/>
      <glyph unicode="&#xd7;" glyph-name="gid254" horiz-adv-x="501" d="M394,507L25,178L109,78L479,406L394,507Zm-285,0L25,405L394,78l85,100L109,507Z"/>
      <glyph unicode="&#xd8;" glyph-name="gid39" horiz-adv-x="698" d="M504,755l55-25L186-68L131-43L504,755ZM349,704q86,0 145-17t96-57.5T643,520t16-175q0-105-16-174.5t-53-110T494,3T349-14Q264-14 204.5,3T108,60.5t-53,110T39,345q0,106 16,175t53,109.5T204.5,687T349,704Zm0-143q-44,0-68.5-18T246,478T236,345t10-133t34.5-65T349,129t68.5,18t34,65T461,345t-9.5,133t-34,65T349,561Z"/>
      <glyph unicode="&#xd9;" glyph-name="gid52" horiz-adv-x="696" d="M641,690V280q0-107-27.5-171.5T524,15T358-14Q246-14 179.5,15T84,108.5T55,280V690H243V280q0-59 9-92t32.5-46T348,129q41,0 64,13t32,46t9,92V690H641ZM220,962L439,813l-50-75L148,844l72,118Z"/>
      <glyph unicode="&#xda;" glyph-name="gid49" horiz-adv-x="696" d="M641,690V280q0-107-27.5-171.5T524,15T358-14Q246-14 179.5,15T84,108.5T55,280V690H243V280q0-59 9-92t32.5-46T348,129q41,0 64,13t32,46t9,92V690H641ZM473,948l72-117L305,724l-51,75L473,948Z"/>
      <glyph unicode="&#xdb;" glyph-name="gid50" horiz-adv-x="696" d="M641,690V280q0-107-27.5-171.5T524,15T358-14Q246-14 179.5,15T84,108.5T55,280V690H243V280q0-59 9-92t32.5-46T348,129q41,0 64,13t32,46t9,92V690H641ZM416,923L551,785l-44-62L354,817h-8L192,723l-46,68L285,923H416Z"/>
      <glyph unicode="&#xdc;" glyph-name="gid51" horiz-adv-x="696" d="M641,690V280q0-107-27.5-171.5T524,15T358-14Q246-14 179.5,15T84,108.5T55,280V690H243V280q0-59 9-92t32.5-46T348,129q41,0 64,13t32,46t9,92V690H641ZM470,896q36,0 36-36V799q0-36-36-36H411q-36,0-36,36v61q0,36 36,36h59Zm-186,0q35,0 35-36V799q0-36-35-36H224q-35,0-35,36v61q0,36 35,36h60Z"/>
      <glyph unicode="&#xdd;" glyph-name="gid57" horiz-adv-x="635" d="M640,690L407,212H228L-5,690H189L289,456q9-21 13.5-45.5T312,364h12q4,22 9.5,47T347,457l99,233H640ZM412,321V0H224V321H412Zm30,624l72-117L274,721l-51,75L442,945Z"/>
      <glyph unicode="&#xde;" glyph-name="gid43" horiz-adv-x="624" d="M334,576q102,0 160-20.5T576,485t24-141q0-90-23-139.5T501,135T360,115q-48,0-94,4.5t-86.5,12T111,147T71,162l3,88q61,0 126,0t130,0q32,1 50,8.5t25,28t7,57.5q0,39-7,59.5T380,432t-50,8q-95,0-162.5-1T75,435L61,566q43,5 80.5,7t83,2.5T334,576ZM248,690V0H61V690H248Z"/>
      <glyph unicode="&#xdf;" glyph-name="gid108" horiz-adv-x="724" d="M362,737q101,0 155.5-15.5t75-51T613,577q0-21-4-38t-15.5-35.5T558,460q-15-14-27.5-27t-20-25T503,382q0-19 18.5-33.5T564,315l63-43q31-24 49.5-42T703,191.5t8-53.5q0-50-18-83T631,5.5T511-11q-40,0-80.5,3T335,0l11,114q29-1 58-1.5t64-0.5q23,1 36,2t18,8t5,22q0,14-10,26.5T489.5,196T451,225l-47,26q-33,24-52.5,51T332,369q0,25 9.5,42.5t26.5,34T407,487q23,27 32,42.5t9,36.5q0,18-7,28t-24.5,14.5T364,613t-54-5.5T284.5,586T278,539V0H96V561q0,51 15,85.5T158,701t82.5,28T362,737ZM185,497V384H13V493l84,4h88Z"/>
      <glyph unicode="&#xe0;" glyph-name="gid64" horiz-adv-x="581" d="M327,511q67,0 113.5-18T511,433t24-116V0H390L365,107l-12,18V318q-1,31-15.5,44.5T285,376q-39,0-96-1.5T70,369L54,486q37,7 86.5,12.5t99.5,9t87,3.5ZM463,305l-1-92H249q-23-1-33.5-11.5T205,173V154q0-19 12.5-29.5T255,114t53,11t55,30t47,41V132q-8-16-24.5-40T343,43.5T280,3T194-13q-45,0-83,16T50.5,50T28,128v50q0,60 42.5,93.5T186,305H463ZM167,789L386,640l-50-75L95,671l72,118Z"/>
      <glyph unicode="&#xe1;" glyph-name="gid61" horiz-adv-x="581" d="M327,511q67,0 113.5-18T511,433t24-116V0H390L365,107l-12,18V318q-1,31-15.5,44.5T285,376q-39,0-96-1.5T70,369L54,486q37,7 86.5,12.5t99.5,9t87,3.5ZM463,305l-1-92H249q-23-1-33.5-11.5T205,173V154q0-19 12.5-29.5T255,114t53,11t55,30t47,41V132q-8-16-24.5-40T343,43.5T280,3T194-13q-45,0-83,16T50.5,50T28,128v50q0,60 42.5,93.5T186,305H463ZM420,775l72-117L252,551l-51,75L420,775Z"/>
      <glyph unicode="&#xe2;" glyph-name="gid62" horiz-adv-x="581" d="M327,511q67,0 113.5-18T511,433t24-116V0H390L365,107l-12,18V318q-1,31-15.5,44.5T285,376q-39,0-96-1.5T70,369L54,486q37,7 86.5,12.5t99.5,9t87,3.5ZM463,305l-1-92H249q-23-1-33.5-11.5T205,173V154q0-19 12.5-29.5T255,114t53,11t55,30t47,41V132q-8-16-24.5-40T343,43.5T280,3T194-13q-45,0-83,16T50.5,50T28,128v50q0,60 42.5,93.5T186,305H463ZM363,750L498,612l-44-62L301,644h-8L139,550L93,618L232,750H363Z"/>
      <glyph unicode="&#xe3;" glyph-name="gid66" horiz-adv-x="581" d="M327,511q67,0 113.5-18T511,433t24-116V0H390L365,107l-12,18V318q-1,31-15.5,44.5T285,376q-39,0-96-1.5T70,369L54,486q37,7 86.5,12.5t99.5,9t87,3.5ZM463,305l-1-92H249q-23-1-33.5-11.5T205,173V154q0-19 12.5-29.5T255,114t53,11t55,30t47,41V132q-8-16-24.5-40T343,43.5T280,3T194-13q-45,0-83,16T50.5,50T28,128v50q0,60 42.5,93.5T186,305H463ZM196,738q25-2 46.5-7.5t41-13T322,703t38-10q25-4 29.5,5.5T394,733h76q14-77-12-118t-71-38q-34,3-63,12.5t-54,20T221,623q-23,4-27.5-6T189,582H113q-10,55 0.5,90.5T147,724t49,14Z"/>
      <glyph unicode="&#xe4;" glyph-name="gid63" horiz-adv-x="581" d="M327,511q67,0 113.5-18T511,433t24-116V0H390L365,107l-12,18V318q-1,31-15.5,44.5T285,376q-39,0-96-1.5T70,369L54,486q37,7 86.5,12.5t99.5,9t87,3.5ZM463,305l-1-92H249q-23-1-33.5-11.5T205,173V154q0-19 12.5-29.5T255,114t53,11t55,30t47,41V132q-8-16-24.5-40T343,43.5T280,3T194-13q-45,0-83,16T50.5,50T28,128v50q0,60 42.5,93.5T186,305H463ZM417,724q36,0 36-36V627q0-36-36-36H358q-36,0-36,36v61q0,36 36,36h59Zm-186,0q35,0 35-36V627q0-36-35-36H171q-35,0-35,36v61q0,36 35,36h60Z"/>
      <glyph unicode="&#xe5;" glyph-name="gid65" horiz-adv-x="581" d="M327,511q67,0 113.5-18T511,433t24-116V0H390L365,107l-12,18V318q-1,31-15.5,44.5T285,376q-39,0-96-1.5T70,369L54,486q37,7 86.5,12.5t99.5,9t87,3.5ZM463,305l-1-92H249q-23-1-33.5-11.5T205,173V154q0-19 12.5-29.5T255,114t53,11t55,30t47,41V132q-8-16-24.5-40T343,43.5T280,3T194-13q-45,0-83,16T50.5,50T28,128v50q0,60 42.5,93.5T186,305H463ZM296,784q34,0 62-16t45-43.5T420,664q0-34-17-61.5T358,559t-62-16t-62,16t-45,43.5T172,664q0,33 17,60.5T234,768t62,16Zm0-72q-20,0-33.5-14T249,663t13.5-34.5T296,615t34,13.5T344,663t-14,35t-34,14Z"/>
      <glyph unicode="&#xe6;" glyph-name="gid67" horiz-adv-x="883" d="M610,511q133,0 188.5-44T855,337q1-46-16-75.5T783,218T677,204H415v91H627q34,0 44,10t9,36q0,29-14.5,39T616,390q-36,1-55.5-8T534,346t-7-81t8.5-83T567,141t67-12q30,0 81.5,2.5T825,140L842,30Q810,14 772.5,5t-78-13T613-12q-98,0-157,28t-85.5,85.5T344,246q0,98 26.5,156t85,83.5T610,511ZM456,303l-1-92l-208,2q-21-1-31.5-11.5T205,173V154q0-19 12-29.5T253,114t51,11t53.5,30T403,197l8-72q-8-15-24.5-38T344,41T280,2.5T191-13q-45,0-82,16T50,50T28,128v50q0,58 41.5,91.5T183,303H456ZM323,511q66,0 111.5-18t69-60T527,317V228H344v90q0,31-14,44.5T280,376q-38,0-94-1.5T69,369L53,486q36,7 85,12.5t98.5,9T323,511Z"/>
      <glyph unicode="&#xe7;" glyph-name="gid70" horiz-adv-x="519" d="M292,511q29,0 64-3t70-10.5T489,477L471,364q-45,0-81,0.5T323,365q-38,0-60-9.5T232,321t-9-72q0-46 9-71.5t31-35t60-9.5q17,0 42,0.5t55,2t60,4.5L497,26Q454,5 399.5-3.5T290-12q-94,0-151,25.5t-82,83T32,249q0,97 25.5,154T140,485.5T292,511ZM214-51q58,6 94,5t52.5-17T375-116q-1-54-31.5-88t-79-47.5T157-257l19,70q35,0 60.5,10.5T265-132q2,13-10.5,14.5T197-116l17,65Z"/>
      <glyph unicode="&#xe8;" glyph-name="gid77" horiz-adv-x="578" d="M302,511q134,0 191-44t57-130q1-69-38-101T374,204H102v91H323q34,0 43.5,10t9.5,36q-1,29-16,39t-52,10q-35,1-53.5-8T229,346t-7-81t8.5-83t31-41T325,129q32,0 84.5,2.5T520,140L537,30Q505,14 466.5,5T387-8t-82-4Q205-12 145,16T58.5,101.5T32,246q0,98 27,156t86.5,83.5T302,511ZM176,783L395,634l-50-75L104,665l72,118Z"/>
      <glyph unicode="&#xe9;" glyph-name="gid74" horiz-adv-x="578" d="M302,511q134,0 191-44t57-130q1-69-38-101T374,204H102v91H323q34,0 43.5,10t9.5,36q-1,29-16,39t-52,10q-35,1-53.5-8T229,346t-7-81t8.5-83t31-41T325,129q32,0 84.5,2.5T520,140L537,30Q505,14 466.5,5T387-8t-82-4Q205-12 145,16T58.5,101.5T32,246q0,98 27,156t86.5,83.5T302,511ZM429,769l72-117L261,545l-51,75L429,769Z"/>
      <glyph unicode="&#xea;" glyph-name="gid75" horiz-adv-x="578" d="M302,511q134,0 191-44t57-130q1-69-38-101T374,204H102v91H323q34,0 43.5,10t9.5,36q-1,29-16,39t-52,10q-35,1-53.5-8T229,346t-7-81t8.5-83t31-41T325,129q32,0 84.5,2.5T520,140L537,30Q505,14 466.5,5T387-8t-82-4Q205-12 145,16T58.5,101.5T32,246q0,98 27,156t86.5,83.5T302,511Zm69,233L506,606l-44-62L309,638h-8L147,544l-46,68L240,744H371Z"/>
      <glyph unicode="&#xeb;" glyph-name="gid76" horiz-adv-x="578" d="M302,511q134,0 191-44t57-130q1-69-38-101T374,204H102v91H323q34,0 43.5,10t9.5,36q-1,29-16,39t-52,10q-35,1-53.5-8T229,346t-7-81t8.5-83t31-41T325,129q32,0 84.5,2.5T520,140L537,30Q505,14 466.5,5T387-8t-82-4Q205-12 145,16T58.5,101.5T32,246q0,98 27,156t86.5,83.5T302,511ZM426,718q36,0 36-36V621q0-36-36-36H367q-36,0-36,36v61q0,36 36,36h59Zm-186,0q35,0 35-36V621q0-36-35-36H180q-35,0-35,36v61q0,36 35,36h60Z"/>
      <glyph unicode="&#xec;" glyph-name="gid87" horiz-adv-x="292" d="M237,497V0H55V497H237ZM15,783L234,634l-50-75L-57,665L15,783Z"/>
      <glyph unicode="&#xed;" glyph-name="gid83" horiz-adv-x="292" d="M237,497V0H55V497H237Zm31,272l72-117L100,545L49,620L268,769Z"/>
      <glyph unicode="&#xee;" glyph-name="gid84" horiz-adv-x="292" d="M237,497V0H55V497H237ZM211,744L346,606l-44-62L149,638h-8L-13,544l-46,68L80,744H211Z"/>
      <glyph unicode="&#xef;" glyph-name="gid85" horiz-adv-x="292" d="M237,497V0H55V497H237Zm28,221q36,0 36-36V621q0-36-36-36H206q-36,0-36,36v61q0,36 36,36h59ZM79,718q35,0 35-36V621q0-36-35-36H19q-35,0-35,36v61q0,36 35,36H79Z"/>
      <glyph unicode="&#xf0;" glyph-name="gid72" horiz-adv-x="594" d="M142,698q82,5 148-10.5t116-50t84-86T541,434t17-145q0-82-15-139.5T496,56T413.5,3T292-14Q159-14 96,41.5T33,215q0,80 21.5,132.5t70,78.5T254,452q26,0 60.5-5t67-21T433,376l-8-73q-23,11-56.5,17T295,326q-25,0-41-8t-23-31t-7-69q0-61 15-82.5T294,114q32,0 47.5,15t21,53.5T368,289q0,70-7.5,121.5t-24,86.5t-44,55T224,580t-97,3l15,115Zm286,31l47-56L243,475l-49,56L428,729Z"/>
      <glyph unicode="&#xf1;" glyph-name="gid94" horiz-adv-x="612" d="M420,511q144,0 144-139V0H382V315q0,24-9.5,33T339,357q-25,0-53.5-7T214,324l-9,94q52,46 107,69.5T420,511ZM195,497l22-100l16-13V0H51V497H195Zm15,235q25-2 46.5-7.5t41-13T336,697t38-10q25-4 29.5,5.5T408,727h76q14-77-12-118t-71-38q-34,3-63,12.5t-54,20T235,617q-23,4-27.5-6T203,576H127q-10,55 0.5,90.5T161,718t49,14Z"/>
      <glyph unicode="&#xf2;" glyph-name="gid99" horiz-adv-x="601" d="M301,511q98,0 157-25.5t85-83T569,248q0-96-26-152.5t-85-82T301-12T144,13.5t-85,82T33,248q0,97 26,154.5t85,83T301,511Zm0-127q-31,0-47.5-11T230,333t-7-85q0-55 7-84t23.5-39.5T301,114t48,10.5T372.5,164t6.5,84q0,56-6.5,85T349,373t-48,11ZM172,775L391,626l-50-75L100,657l72,118Z"/>
      <glyph unicode="&#xf3;" glyph-name="gid96" horiz-adv-x="601" d="M301,511q98,0 157-25.5t85-83T569,248q0-96-26-152.5t-85-82T301-12T144,13.5t-85,82T33,248q0,97 26,154.5t85,83T301,511Zm0-127q-31,0-47.5-11T230,333t-7-85q0-55 7-84t23.5-39.5T301,114t48,10.5T372.5,164t6.5,84q0,56-6.5,85T349,373t-48,11ZM425,761l72-117L257,537l-51,75L425,761Z"/>
      <glyph unicode="&#xf4;" glyph-name="gid97" horiz-adv-x="601" d="M301,511q98,0 157-25.5t85-83T569,248q0-96-26-152.5t-85-82T301-12T144,13.5t-85,82T33,248q0,97 26,154.5t85,83T301,511Zm0-127q-31,0-47.5-11T230,333t-7-85q0-55 7-84t23.5-39.5T301,114t48,10.5T372.5,164t6.5,84q0,56-6.5,85T349,373t-48,11Zm67,351L503,597l-44-62L306,629h-8L144,535L98,603L237,735H368Z"/>
      <glyph unicode="&#xf5;" glyph-name="gid101" horiz-adv-x="601" d="M301,511q98,0 157-25.5t85-83T569,248q0-96-26-152.5t-85-82T301-12T144,13.5t-85,82T33,248q0,97 26,154.5t85,83T301,511Zm0-127q-31,0-47.5-11T230,333t-7-85q0-55 7-84t23.5-39.5T301,114t48,10.5T372.5,164t6.5,84q0,56-6.5,85T349,373t-48,11ZM201,723q25-2 46.5-7.5t41-13T327,688t38-10q25-4 29.5,5.5T399,718h76q14-77-12-118t-71-38q-34,3-63,12.5t-54,20T226,608q-23,4-27.5-6T194,567H118q-10,55 0.5,90.5T152,709t49,14Z"/>
      <glyph unicode="&#xf6;" glyph-name="gid98" horiz-adv-x="601" d="M301,511q98,0 157-25.5t85-83T569,248q0-96-26-152.5t-85-82T301-12T144,13.5t-85,82T33,248q0,97 26,154.5t85,83T301,511Zm0-127q-31,0-47.5-11T230,333t-7-85q0-55 7-84t23.5-39.5T301,114t48,10.5T372.5,164t6.5,84q0,56-6.5,85T349,373t-48,11ZM422,709q36,0 36-36V612q0-36-36-36H363q-36,0-36,36v61q0,36 36,36h59Zm-186,0q35,0 35-36V612q0-36-35-36H176q-35,0-35,36v61q0,36 35,36h60Z"/>
      <glyph unicode="&#xf7;" glyph-name="gid255" horiz-adv-x="543" d="M507,356V229H36V356H507ZM293,176q38,0 52-14.5T359,109V84q0-37-14-51.5T293,18H249q-38,0-52.5,14.5T182,84v25q0,38 14.5,52.5T249,176h44Zm0,389q38,0 52-14.5T359,498V473q0-37-14-51.5T293,407H249q-38,0-52.5,14.5T182,473v25q0,38 14.5,52.5T249,565h44Z"/>
      <glyph unicode="&#xf8;" glyph-name="gid100" horiz-adv-x="601" d="M430,589l44-22L169-89L125-68L430,589ZM301,511q98,0 157-25.5t85-83T569,248q0-96-26-152.5t-85-82T301-12T144,13.5t-85,82T33,248q0,97 26,154.5t85,83T301,511Zm0-127q-31,0-47.5-11T230,333t-7-85q0-55 7-84t23.5-39.5T301,114t48,10.5T372.5,164t6.5,84q0,56-6.5,85T349,373t-48,11Z"/>
      <glyph unicode="&#xf9;" glyph-name="gid114" horiz-adv-x="605" d="M230,497V182q-1-23 10-33t36-10q24,0 49.5,7T390,172l12-93Q350,32 299,9T193-14Q48-14 48,125V497H230Zm324,0V0H411L389,100l-18,12V497H554ZM172,784L391,635l-50-75L100,666l72,118Z"/>
      <glyph unicode="&#xfa;" glyph-name="gid111" horiz-adv-x="605" d="M230,497V182q-1-23 10-33t36-10q24,0 49.5,7T390,172l12-93Q350,32 299,9T193-14Q48-14 48,125V497H230Zm324,0V0H411L389,100l-18,12V497H554ZM425,770l72-117L257,546l-51,75L425,770Z"/>
      <glyph unicode="&#xfb;" glyph-name="gid112" horiz-adv-x="605" d="M230,497V182q-1-23 10-33t36-10q24,0 49.5,7T390,172l12-93Q350,32 299,9T193-14Q48-14 48,125V497H230Zm324,0V0H411L389,100l-18,12V497H554ZM368,745L503,607l-44-62L306,639h-8L144,545L98,613L237,745H368Z"/>
      <glyph unicode="&#xfc;" glyph-name="gid113" horiz-adv-x="605" d="M230,497V182q-1-23 10-33t36-10q24,0 49.5,7T390,172l12-93Q350,32 299,9T193-14Q48-14 48,125V497H230Zm324,0V0H411L389,100l-18,12V497H554ZM422,719q36,0 36-36V622q0-36-36-36H363q-36,0-36,36v61q0,36 36,36h59Zm-186,0q35,0 35-36V622q0-36-35-36H176q-35,0-35,36v61q0,36 35,36h60Z"/>
      <glyph unicode="&#xfd;" glyph-name="gid119" horiz-adv-x="585" d="M583,497L416,5q-13-39-36-80t-59.5-73.5T232-196t-122-3L97-99q61,14 96.5,38T248,6l34,75q11,24 19.5,59.5T315,201l74,296H583Zm-388,0l75-296q4-21 7.5-43t6.5-43h28L256,0H214q-21,0-36.5,12T156,43L2,497H195ZM421,769l72-117L253,545l-51,75L421,769Z"/>
      <glyph unicode="&#xfe;" glyph-name="gid104" horiz-adv-x="610" d="M395,509q98,0 139-68t41-198q0-101-21-157T492,8T389-14Q333-14 282,2.5T197,58l16,76q26-10 49-18t55-8q26,0 41.5,9.5T381,156t7,86q0,58-7,86.5t-22,38T320,376q-28,0-48.5-8.5T229,345l-28,74q26,38 72,64t122,26ZM233,700V584q0-33-2-68.5T227,449l6-12V71l-6-12q2-31 4-66.5T233-76V-185H51V700H233Z"/>
      <glyph unicode="&#xff;" glyph-name="gid120" horiz-adv-x="585" d="M583,497L416,5q-13-39-36-80t-59.5-73.5T232-196t-122-3L97-99q61,14 96.5,38T248,6l34,75q11,24 19.5,59.5T315,201l74,296H583Zm-388,0l75-296q4-21 7.5-43t6.5-43h28L256,0H214q-21,0-36.5,12T156,43L2,497H195ZM418,718q36,0 36-36V621q0-36-36-36H359q-36,0-36,36v61q0,36 36,36h59Zm-186,0q35,0 35-36V621q0-36-35-36H172q-35,0-35,36v61q0,36 35,36h60Z"/>
      <glyph unicode="&#x2013;" glyph-name="gid208" horiz-adv-x="543" d="M493,311V201H50V311H493Z"/>
      <glyph unicode="&#x2014;" glyph-name="gid209" horiz-adv-x="836" d="M786,311V201H50V311H786Z"/>
      <glyph unicode="&#x2018;" glyph-name="gid221" horiz-adv-x="220" d="M96,418q-31,0-43,12.5T40,475v58q0,63 14.5,103.5T93,715l62-20q-9-31-12-60.5T139,573q46,0 47-51l-2-47q-1-32-13-44.5T129,418H96Z"/>
      <glyph unicode="&#x2019;" glyph-name="gid222" horiz-adv-x="217" d="M123,705q31,0 43-12.5T179,648V590q0-63-14-103.5T126,409L64,428q9,31 12,60.5T80,550q-46,0-47,51l2,47q1,32 13,44.5T90,705h33Z"/>
      <glyph unicode="&#x201a;" glyph-name="gid217" horiz-adv-x="231" d="M132,168q31,0 43-13.5T188,106V43q0-45-6.5-79T163-98t-28-55L73-131q9,33 12,65T88,0Q43,0 42,56l1,50q1,35 13.5,48.5T99,168h33Z"/>
      <glyph unicode="&#x201c;" glyph-name="gid219" horiz-adv-x="408" d="M96,418q-31,0-43,12.5T40,475v58q0,63 14.5,103.5T93,715l62-20q-9-31-12-60.5T139,573q46,0 47-51l-2-47q-1-32-13-44.5T129,418H96Zm189,0q-32,0-43.5,12.5T229,475v58q0,63 14,103.5T282,715l61-20q-9-31-11.5-60.5T328,573q46,0 46-51l-1-47q-1-32-13-44.5T317,418H285Z"/>
      <glyph unicode="&#x201d;" glyph-name="gid220" horiz-adv-x="406" d="M312,705q31,0 43-12.5T367,648V590q0-63-14-103.5T315,409l-62,19q9,31 12,60.5t3,61.5q-45,0-46,51l2,47q1,32 12.5,44.5T279,705h33Zm-189,0q31,0 43-12.5T179,648V590q0-63-14-103.5T126,409L64,428q9,31 12,60.5T80,550q-46,0-47,51l2,47q1,32 13,44.5T90,705h33Z"/>
      <glyph unicode="&#x201e;" glyph-name="gid218" horiz-adv-x="418" d="M319,143q32,0 43.5-12T375,86V28q0-62-14-103t-39-78l-61,20q9,30 11.5,60T276-11q-45,0-46,50l1,47q1,33 13,45t43,12h32Zm-188,0q31,0 43-12t13-45V28q-1-62-15-103t-38-78L72-133q9,30 12,60t4,62Q42-11 41,39l2,47q1,33 12.5,45T98,143h33Z"/>
      <glyph unicode="&#x2022;" glyph-name="gid200" horiz-adv-x="377" d="M200,392q63,0 88-25t25-88V263q0-68-25-94t-88-26H184q-68,0-94,26T64,263v16q0,63 26,88t94,25h16Z"/>
      <glyph unicode="&#x2039;" glyph-name="gid225" horiz-adv-x="310" d="M183,468l95-61L183,251L278,89L183,29L24,232v38L183,468Z"/>
      <glyph unicode="&#x203a;" glyph-name="gid226" horiz-adv-x="310" d="M127,468L285,270V232L126,29L31,89l96,162L32,407l95,61Z"/>
    </font>
</defs>
</svg>
