<?xml version="1.0" standalone="no"?>
<!DOCTYPE svg PUBLIC "-//W3C//DTD SVG 1.1//EN" "http://www.w3.org/Graphics/SVG/1.1/DTD/svg11.dtd">
<svg xmlns="http://www.w3.org/2000/svg">
  <defs>
    <font id="Exo2" horiz-adv-x="535">
      <font-face font-family="Exo 2 ExtraBold" units-per-em="1000" panose-1="0 0 0 0 0 0 0 0 0 0" ascent="999" descent="-201" alphabetic="0"/>
      <glyph unicode=" " glyph-name="gid185" horiz-adv-x="213"/>
      <glyph unicode="!" glyph-name="gid195" horiz-adv-x="315" d="M304,695L269,445L219,223H77L89,445l35,250H304ZM154,170q31,0 48-16.5T214,104l-6-45q-4-30-20.5-44.5T138,0H102Q34,0 42,66l6,45q8,59 70,59h36Z"/>
      <glyph unicode="&quot;" glyph-name="gid227" horiz-adv-x="384" d="M397,690L355,465H248l22,225H397Zm-172,0L183,465H77L98,690H225Z"/>
      <glyph unicode="#" glyph-name="gid202" horiz-adv-x="729" d="M675,690L458,0H321L538,690H675ZM661,296L625,189H12L48,296H661ZM424,690L207,0H70L287,690H424ZM735,521L699,414H86l36,107H735Z"/>
      <glyph unicode="$" glyph-name="gid243" horiz-adv-x="579" d="M345,704q54-1 116-8t116-25L560,550q-30,1-68,1.5t-79,1T332,553q-20,0-34-1.5t-24-6T258.5,532T251,508q-2-13 0.5-23T265,467t33-19l116-54q54-26 82-55t36-66.5t2-88.5q-9-78-38.5-121T409,3T258-14q-40,0-108,6.5T7,18L25,149q57-1 102.5-2.5t77.5-2t46-0.5q34,0 54,4t30,14.5T348,191q2,16-0.5,25T336,232t-26,15L185,306q-54,27-82,58.5T67.5,433T65,514q7,57 27,94t54,57.5T230,695t115,9ZM267,360h52L210-114H158L267,360ZM446,791L337,360H285L394,791h52Z"/>
      <glyph unicode="%" glyph-name="gid264" horiz-adv-x="913" d="M767,690L274,0H159L651,690H767ZM247,607q-20,0-30.5-8.5t-17-33.5T187,491q-6-43-6-65t8.5-29.5T216,389q20,0 31,8.5T264,431t12,74q5,43 5,65t-8,29.5T247,607Zm2,97q65,0 104-20t52.5-66.5T408,491q-11-76-32.5-119.5T315,310T212,292T109.5,312T58,379T55,505q11,77 32.5,120T148,686t101,18ZM711,302q-20,0-30.5-8.5t-17-33.5T651,186q-6-44-6-66t8.5-29.5T680,83q20,0 31,8.5t17.5,34T741,200q5,43 4.5,65T737,294.5T711,302Zm2,96q65,0 104-19.5t53-66T872,186q-11-76-32.5-120T779,4.5T676-13T573.5,7T522,73.5T520,200q10,76 31.5,119.5t60.5,61T713,398Z"/>
      <glyph unicode="&amp;" glyph-name="gid230" horiz-adv-x="758" d="M375,703q37,0 81.5-4.5T545,680L516,557q-29,6-65,9.5T380,570t-56-5.5t-32-22T276,492q-4-31 1-48.5t21-24t43-6.5H754L737,296H324q-29,0-50-7t-33.5-26T223,207q-3-22 0.5-37t13-23.5t25.5-12t38-3.5q56,0 100,20.5T473,230q25,45 36,113t13,163H672q0-94-12-178T615,177q-28-59-74-101.5T425.5,10T259-13Q168-13 113,8T36,72.5T22,183q7,48 25.5,85.5t52,61T184,355l1,6q-36,3-59,26T94,447t-1,80q13,77 51.5,114.5t97,49.5T375,703Z"/>
      <glyph unicode="&apos;" glyph-name="gid228" horiz-adv-x="213" d="M225,690L183,465H77L98,690H225Z"/>
      <glyph unicode="(" glyph-name="gid211" horiz-adv-x="369" d="M399,791l22-80q-88-35-138.5-139.5T209,306q-14-99-12-178.5t26.5-134T300-86l-23-75Q126-116 66.5,2T35,319Q64,518 150,632.5T399,791Z"/>
      <glyph unicode=")" glyph-name="gid212" horiz-adv-x="369" d="M98,787q151-44 211-161.5T340,305Q312,108 225.5-6.5T-24-166L-45-86Q43-47 93.5,58T166,320q14,102 12,181T152.5,634T76,711l22,76Z"/>
      <glyph unicode="*" glyph-name="gid201" horiz-adv-x="455" d="M335,692L295,520l92-129l-82-58L255,453L172,333L97,391L226,519l8,173H335ZM102,619l110-51l-3-43l-27-25L63,525l39,94Zm337-1l19-95L335,497l-22,27l9,43l117,51Z"/>
      <glyph unicode="+" glyph-name="gid252" horiz-adv-x="526" d="M364,532L299,73H166l65,459H364ZM506,370L486,235H24L44,370H506Z"/>
      <glyph unicode="," glyph-name="gid191" horiz-adv-x="250" d="M123,170q35,0 49-15.5t9-50.5l-9-64q-4-33-16-69.5T127-99T90-158L15-130Q29-97 38-64T55,4Q27,3 16.5,17T9,59l8,49q5,36 22,49t51,13h33Z"/>
      <glyph unicode="-" glyph-name="gid207" horiz-adv-x="397" d="M348,311L333,201H39L55,311H348Z"/>
      <glyph unicode="." glyph-name="gid190" horiz-adv-x="248" d="M123,170q31,0 47.5-16.5T183,104l-7-45q-3-30-19.5-44.5T107,0H70Q1,0 9,66l6,45q9,59 70,59h38Z"/>
      <glyph unicode="/" glyph-name="gid203" horiz-adv-x="580" d="M616,690L115-76H-32L469,690H616Z"/>
      <glyph unicode="0" glyph-name="gid131" horiz-adv-x="644" d="M293-13Q216-13 158.5,7.5T70,77T40,211q1,81 8.5,155T75,501.5T130,608t93,70t141,25q80,0 136.5-20.5t87-69T618,481q0-80-7-153.5T585,192T529.5,84t-94-71.5T293-13Zm16,141q33,0 55,18t36,49.5T420.5,269t10,91T435,461q1,54-20.5,77.5T346,562q-32,0-53-18t-34.5-49.5t-20.5-74T227.5,329T223,227q-1-52 19.5-75.5T309,128Z"/>
      <glyph unicode="1" glyph-name="gid132" horiz-adv-x="452" d="M427,690L330,0H143l67,462q3,21 7,41.5T228,544L63,505L48,619l198,71H427Z"/>
      <glyph unicode="2" glyph-name="gid133" horiz-adv-x="583" d="M328,702q75,0 127.5-11.5T535,648t27-89q0-50-15.5-90.5T502,392t-70-72L237,148q26,7 50.5,9.5T336,160H530L509,0H-6L9,100q3,22 9,40t21,34L220,335q38,36 73.5,68.5t57.5,62T373,519q0,11-7,17t-20.5,8T311,546q-38,0-70.5-0.5t-68-1.5T89,541l3,139q53,10 96.5,14.5t78.5,6t61,1.5Z"/>
      <glyph unicode="3" glyph-name="gid134" horiz-adv-x="566" d="M318,704q112,0 167.5-31.5T541,560q0-51-14.5-92.5t-44.5-68T406,367l-1-4q61-8 87-40t26-84q0-88-35.5-143.5T381,13.5T221-14q-50,0-108.5,5.5T-1,6L12,138q43-3 73.5-4.5t57-1.5t54.5,1q67,1 103,30t36,89q0,16-7.5,26T306,293.5T266,299l-142,1l16,116H277q50,0 69,23t19,75q0,24-14.5,34T290,558q-52,0-103.5-0.5T97,557V686q61,10 119,14t102,4Z"/>
      <glyph unicode="4" glyph-name="gid135" horiz-adv-x="643" d="M430,690L221,295q-7-13-5.5-19t14.5-6H617L602,164l-74-17H87q-34,0-55,15.5t-25.5,41T16,255L251,690H430ZM583,555L505,0H334l61,447l45,108H583Z"/>
      <glyph unicode="5" glyph-name="gid136" horiz-adv-x="553" d="M553,690L528,553H258L236,449l80-9q75-9 118-35.5t61.5-64T514,260q0-126-77-195.5T224-12q-52-3-110,3.5T-4,8L20,148q49-5 92.5-8t77.5-1q61,4 99.5,28.5T328,252q0,19-10.5,29.5t-33,16T224,306L123,320q-28,5-44,25T69,392l58,298H553Z"/>
      <glyph unicode="6" glyph-name="gid137" horiz-adv-x="596" d="M277-12Q202-12 151,4.5T72.5,60T39,166.5T48,337Q65,453 93,525t71,110.5T264,688t131,14q18,0 44.5-1t58-5T563,682L539,567q-28,1-49,1t-46.5,0T378,568q-38,0-62.5-9.5t-41-35t-27.5-73T226,327q-9-64-14-104t-1.5-62T231,130.5t51-8.5q43,0 64,22.5t28.5,57T384,271q1,24-15.5,40.5T315,328q-39,0-76-24.5T152,238l-3,69q32,52 67.5,84T294,438.5T389,454q90,0 132.5-39.5T562,311q-3-104-29.5-176.5T445,25T277-12Z"/>
      <glyph unicode="7" glyph-name="gid138" horiz-adv-x="539" d="M500,690q51,0 67.5-26.5T565,595L269,0H85L318,470q9,19 20.5,36.5T365,541H61L72,690H500Z"/>
      <glyph unicode="8" glyph-name="gid139" horiz-adv-x="628" d="M356,703q102,0 157-21.5t73.5-64T595,511q-5-38-19.5-70.5t-41-54T465,360l-2-4q51-5 74.5-32.5t28.5-69T564,165q-9-63-35-102.5t-83-58T287-14Q178-14 118,7.5T37,72T24,179q6,45 21.5,84t47,64.5T175,356l1,4q-56,10-75,55T90,525q8,62 34.5,101.5t81.5,58T356,703ZM311,299q-25,0-44-3t-31.5-13.5t-20-30T204,200q-4-30 1-48t25-24.5t59-6.5q35,0 56.5,7T378,155t16,59q4,27 2,43.5T385,283t-26.5,12.5T311,299Zm43,280q-34,0-54-7t-30-27t-15-58q-3-28 0.5-43t21-21t53.5-6q26,0 43,3.5T400.5,433T417,458.5t9,42.5q5,32 0.5,48.5t-21,23T354,579Z"/>
      <glyph unicode="9" glyph-name="gid140" horiz-adv-x="597" d="M342,700q79,0 129-17t75-57.5t28-110T562,343q-15-107-39.5-176t-63-108.5t-95-56T229-14q-33,0-89,4.5T25,8L38,124q30-1 56.5-1t56.5,0t68,0q45,0 73,12t46,40t28.5,75T386,367q9,64 12.5,103.5T397,531t-22,28.5T325,567t-52.5-9t-29-30T229,467q-4-42-1-65.5T244.5,369t39.5-9q31,0 55,7.5T391,395t68,56l1-71q-36-58-73-90t-76-44t-81-12q-62,0-99.5,20T76,308T55.5,382T58,462q8,64 24.5,110t48,74T213,687t129,13Z"/>
      <glyph unicode=":" glyph-name="gid192" horiz-adv-x="266" d="M160,457q31,0 47.5-16.5T220,391l-7-45q-3-30-19.5-44.5T144,287H107q-69,0-61,66l6,45q9,59 70,59h38ZM119,171q31,0 47.5-16.5T179,105l-7-45q-3-30-19.5-44.5T103,1H66Q-3,1 5,67l6,45q9,59 70,59h38Z"/>
      <glyph unicode=";" glyph-name="gid193" horiz-adv-x="265" d="M171,457q31,0 47.5-16.5T231,391l-7-45q-3-30-19.5-44.5T155,287H118q-69,0-61,66l6,45q9,59 70,59h38ZM132,170q35,0 49-15.5t9-50.5l-9-64q-4-33-16-69.5T136-99T99-158L24-130Q38-97 47-64T64,4Q36,3 25.5,17T18,59l8,49q5,36 22,49t51,13h33Z"/>
      <glyph unicode="&lt;" glyph-name="gid258" horiz-adv-x="508" d="M492,533L473,387L186,303l261-91L429,72L23,232L42,372L492,533Z"/>
      <glyph unicode="=" glyph-name="gid256" horiz-adv-x="574" d="M547,471L528,338H59L78,471H547ZM518,259L498,126H29L49,259H518Z"/>
      <glyph unicode="&gt;" glyph-name="gid257" horiz-adv-x="506" d="M82,533L486,372L466,232L19,71L38,216l285,92L65,401L82,533Z"/>
      <glyph unicode="?" glyph-name="gid197" horiz-adv-x="531" d="M330,712q115,0 167.5-40T539,550q-6-43-26.5-73.5t-49.5-56t-58.5-52t-55-61T312,224H168q5,48 21.5,86.5t39,69t45,55t40,45T338,519q10,30-2.5,39T288,567q-54,0-87.5,0t-61-0.5T77,565l1,121q31,6 56,10.5t52,8t61,5.5t83,2ZM249,170q32,0 48.5-16.5T310,104l-6-45q-4-30-20-44.5T235,0H198q-68,0-61,66l7,44q8,60 69,60h36Z"/>
      <glyph unicode="@" glyph-name="gid229" horiz-adv-x="811" d="M428,652q119,1 193-10.5t111.5-45t44-100.5T767,319q-13-95-28.5-158.5t-44-102t-77-55T490-13q-55,0-89,16T349.5,44.5T327,99.5T326,156l45,271H533L488,146q-3-20 3-29t21-9q25,0 39,9t23,32.5T591,216t20,110q10,59 11.5,97.5t-7,59.5t-31,30.5t-61,12T426,528H85l9,115q54,3 111,4.5t113.5,3T428,652ZM279,454q63,0 124.5-7.5T533,427l-72-90q-67,2-103,2.5T301,340q-22,0-38-3t-28-14.5T213.5,288T197,224q-8-45-6.5-67T203,128t29-7q37,0 67,36.5T372,270l26-52q-22-59-51.5-111.5T275,21T172-12Q130-12 99.5,2.5T51.5,47t-22,76T35,231q12,73 33.5,118t52,67.5t70,30T279,454Z"/>
      <glyph unicode="A" glyph-name="gid1" horiz-adv-x="665" d="M472,690q22,0 39.5-15T532,638L630,0H442L392,478q-2,19-2.5,37T389,551H361q-4-15-9-34t-13-37L150,0H-45L233,645q8,22 25.5,33.5T299,690H472Zm42-389L498,162H138l17,139H514Z"/>
      <glyph unicode="B" glyph-name="gid10" horiz-adv-x="648" d="M385,698q89,0 143.5-16.5t76-57T616,511q-10-71-40.5-107.5T475,361l-1-6q81-7 108.5-56T598,165q-9-69-38.5-107T476,6T338-8Q264-8 210-7.5T111-5T19,0L46,128q25-1 95.5-2T303,125q37,0 59,7.5t33,27T411,216q5,34 0.5,51.5t-21,24.5T341,299H75L91,416H345q32,0 50,6.5T422.5,447T437,499q3,26-1,40t-18,20t-40,6q-61,0-107,0t-82-0.5T119,562l-3,128q41,4 80.5,5.5t85,2T385,698Zm-86-8L202,0H19l97,690H299Z"/>
      <glyph unicode="C" glyph-name="gid11" horiz-adv-x="595" d="M389,702q51,0 88-3t68-8.5T607,676L585,539q-35,2-65,2.5t-62.5,1T380,543q-32,0-54-7.5T288.5,507T262,445T243,338q-11-76-9.5-117.5t21-57.5T317,147q73,0 121,2.5t95,6.5l7-138Q487,2 435-5T309-12Q198-12 134,23T49,138T47,352Q62,455 86,523t63,107t98,55.5T389,702Z"/>
      <glyph unicode="D" glyph-name="gid13" horiz-adv-x="691" d="M384,700q111,0 178.5-32t92-111T659,338q-15-105-39.5-173.5t-64-106T456,5.5T310-10q-82,0-153.5,3T19,0l90,135q35-3 90.5-4.5T308,129q33,0 58,8.5T409,170t31,68t22,114q9,64 10,105t-8,64t-30,31.5T378,561q-34,0-67.5,0T246,561t-58,0L116,690q38,3 82,5.5t91.5,3.5t94.5,1Zm-81-10L206,0H19l97,690H303Z"/>
      <glyph unicode="E" glyph-name="gid15" horiz-adv-x="580" d="M260,693q59,0 119-0.5t116-3T597,681L576,548H328q-27,0-39.5-10T272,502L228,187q-3-22 7-33.5T270,142H516L513,7Q466,1 410.5-0.5t-113-2T188-3Q105-3 66.5,46T38,173L90,548q10,67 53.5,106T260,693ZM91,419H520L504,292H71L91,419Z"/>
      <glyph unicode="F" glyph-name="gid20" horiz-adv-x="560" d="M263,693q85,0 173-1.5T592,680L571,548H335q-30,0-43-10t-17-36L205,0H17L93,547q10,69 56,107.5T263,693ZM92,406H513L497,279H73L92,406Z"/>
      <glyph unicode="G" glyph-name="gid21" horiz-adv-x="660" d="M414,704q40,0 78-3t75-9t71-16L616,541q-35,1-69,1.5t-68,1T405,544q-39,0-66-9.5T294,502t-30-63T244,338q-11-76-8.5-117.5T256,163t55-16q33,0 54.5,9T404,178.5T436,203l30-79q-14-18-36-41T378.5,37.5T311,0.5T226-14q-69,0-115,35T47.5,136.5T48,352Q63,459 90.5,528T162,635.5T268,689t146,15ZM631,398L575,0H438l-9,107l-13,33l36,258H631Z"/>
      <glyph unicode="H" glyph-name="gid22" horiz-adv-x="696" d="M304,690L207,0H19l97,690H304ZM479,435L460,298H242l18,137H479ZM692,690L595,0H407l97,690H692Z"/>
      <glyph unicode="I" glyph-name="gid23" horiz-adv-x="308" d="M304,690L207,0H19l97,690H304Z"/>
      <glyph unicode="J" glyph-name="gid28" horiz-adv-x="382" d="M380,690L302,128Q292,59 245.5,23T126-13q-23,0-51.5,3T20-1.5T-21,12L10,129H49q34,0 50.5,12.5T119,177l74,513H380Z"/>
      <glyph unicode="K" glyph-name="gid29" horiz-adv-x="651" d="M701,690L497,402q-15-22-32.5-35T431,347l-1-4q13-7 27-26.5T480,277L611,0H408L262,355L491,690H701Zm-396,0L277,493q-4-34-15-69t-31-69q9-30 11-64.5T240,227L208,0H19l97,690H305Zm24-269L312,296H194l17,125H329Z"/>
      <glyph unicode="L" glyph-name="gid30" horiz-adv-x="542" d="M301,690L229,195q-2-23 6.5-34T269,150H502L499,8Q431,0 347.5-1.5T182-3Q134-3 99.5,16.5T48,71.5T38,154l75,536H301Z"/>
      <glyph unicode="M" glyph-name="gid31" horiz-adv-x="931" d="M842,690q33,0 49.5-18.5T905,620L842,0H672l56,548H713L572,157q-9-29-27.5-41.5T495,103H392q-30,0-47.5,16T324,164L290,548H273L178,0H7L120,627q6,33 22,48t48,15H354q30,0 47.5-16T420,628l26-307q3-25 2.5-50T447,220h12q7,28 14,51.5T487,319L595,635q8,29 27,42t49,13H842Z"/>
      <glyph unicode="N" glyph-name="gid32" horiz-adv-x="724" d="M720,690L632,62q-4-32-20.5-47T563,0H489q-30,0-43,15.5T421,59L291,353q-11,23-19,51t-14,57H248q1-30-0.5-59.5T242,341L193,0H19l88,628q4,32 20.5,47T176,690h74q29,0 42-16t25-43L444,350q11-25 21.5-53T484,235h11q-2,32-1.5,58.5T498,348l49,342H720Z"/>
      <glyph unicode="O" glyph-name="gid34" horiz-adv-x="692" d="M389,704q109,0 176-33t91-112t5-221q-14-105-40-173.5T554.5,57T455,2T316-14Q203-14 137,19T49.5,131.5T47,352Q62,455 87.5,523.5t65.5,108t98,56T389,704Zm-3-143q-44,0-70.5-18t-42-66T244,338q-13-85-10.5-130T257,146t64-17q45,0 71,18t42,66.5T464,352q13,85 10.5,130t-24,62T386,561Z"/>
      <glyph unicode="P" glyph-name="gid42" horiz-adv-x="627" d="M384,700q100,0 158-21.5T620.5,605T628,462q-12-89-41-137t-83-66.5T362,240q-48,0-95,5t-87,12.5t-68,16T73,289l6,86q65,0 134,0t133,0q33,0 51.5,7t29,28.5T443,476q5,34 1,53t-19.5,27T379,564q-98,0-167-1.5T119,559l-3,131q43,5 80.5,7t81.5,2.5T384,700Zm-81-10L206,0H19l97,690H303Z"/>
      <glyph unicode="Q" glyph-name="gid44" horiz-adv-x="692" d="M389,704q109,0 176-33t91-112t5-221q-14-105-40-173.5T554.5,57T455,2T316-14Q203-14 137,19T49.5,131.5T47,352Q62,455 87.5,523.5t65.5,108t98,56T389,704ZM241-31q68-28 142-44.5T546-106L478-261q-94,27-166,62.5T187-122l54,91ZM386,561q-44,0-70.5-18t-42-66T244,338q-13-85-10.5-130T257,146t64-17q45,0 71,18t42,66.5T464,352q13,85 10.5,130t-24,62T386,561Z"/>
      <glyph unicode="R" glyph-name="gid45" horiz-adv-x="657" d="M385,700q90,0 150.5-19.5t87-66.5T638,485q-6-42-22-76t-47.5-56T482,325l-1-6q18-3 36.5-14T550,271.5T568,210L598,0H405L381,211q-2,31-12.5,40T333,260q-74,1-121,1t-79,1t-61,3L87,396H349q35,0 55,7.5T434.5,431T451,487q4,30-0.5,47t-21,23.5T383,564q-103,0-171.5-1.5T119,559l-3,131q43,5 81.5,7t82.5,2.5T385,700Zm-86-10L202,0H19l97,690H299Z"/>
      <glyph unicode="S" glyph-name="gid46" horiz-adv-x="592" d="M351,704q56-1 118.5-8T588,671L572,550q-31,1-70,1.5t-80,1T340,553q-21,0-36.5-1.5t-26-6T261,532t-9-24q-1-13 2-23t14.5-18T302,448l120-54q56-25 84.5-54t37-67t2.5-89q-10-78-39.5-121T419,3T265-14q-41,0-110,6.5T9,18L27,149q58-1 104.5-2.5t78.5-2t46-0.5q37,0 58.5,4t32,14.5T360,191q3,16 0,25t-13,16t-28,15L190,306q-55,27-83.5,58T70,432.5T67,514q7,57 27.5,94t55,57.5t85,29.5T351,704Z"/>
      <glyph unicode="T" glyph-name="gid47" horiz-adv-x="608" d="M453,690L356,0H169l97,690H453Zm198,0L631,547H48L68,690H651Z"/>
      <glyph unicode="U" glyph-name="gid48" horiz-adv-x="692" d="M694,690L635,277q-15-108-50-171.5T485.5,14T317-14Q215-14 151.5,15.5T63,110.5T52,284l58,406H298L239,277q-8-57-4.5-89.5t24-45.5T320,129q43,0 68,14t38,48t23,93l57,406H694Z"/>
      <glyph unicode="V" glyph-name="gid53" horiz-adv-x="651" d="M705,690L437,47Q419,0 371,0H205q-25,0-41.5,15.5T145,54L57,690H246l38-465q3-22 3-44t0-43h26q4,22 10.5,43T338,222L508,690H705Z"/>
      <glyph unicode="W" glyph-name="gid54" horiz-adv-x="983" d="M1016,690L828,47q-6-23-23.5-35T761,0H598q-24,0-42.5,15.5T538,55l-3,403q1,26 1.5,49t1.5,49H519q-5-24-10-48.5T497,459L380,47q-6-22-24-34.5T313,0H147q-25,0-43.5,15.5T86,54L76,690H261L248,238q-1-24-3-51t-3-58h19q6,30 13.5,60.5T289,245L403,637q14,53 68,53H609q26,0 42.5-17T668,630l9-393q1-26 0.5-54T676,129h20q4,27 10,58t12,55L831,690h185Z"/>
      <glyph unicode="X" glyph-name="gid55" horiz-adv-x="658" d="M256,690L360,336L161,0H-40L185,353L74,690H256ZM431,409L415,301H231l16,108H431ZM700,690L490,353L613,0H428L319,372L507,690H700Z"/>
      <glyph unicode="Y" glyph-name="gid56" horiz-adv-x="630" d="M691,690L393,212H214L50,690H238l64-237q7-28 8.5-51t1.5-45h13q4,20 12.5,46T358,452L491,690H691ZM411,321L367,0H178l45,321H411Z"/>
      <glyph unicode="Z" glyph-name="gid58" horiz-adv-x="590" d="M370,556l215-1L226,134L11,135L370,556ZM535,135L516,0H-7L11,135H535Zm69,555L585,555H80L99,690H604Z"/>
      <glyph unicode="[" glyph-name="gid215" horiz-adv-x="355" d="M395,768L379,656H315q-14,0-21-5t-8-19L192-32q-3-21 17-21h70L264-165H100q-40,0-65,20.5T17-71L123,681q6,40 31.5,63.5T220,768H395Z"/>
      <glyph unicode="\" glyph-name="gid204" horiz-adv-x="564" d="M208,690L498-76H362L72,690H208Z"/>
      <glyph unicode="]" glyph-name="gid216" horiz-adv-x="355" d="M259,768q40,0 64-27t18-67L235-78q-5-40-31-63.5T138-165H-36L-20-53H44q13,0 20,5.5T72-29l94,664q3,21-16,21H79L95,768H259Z"/>
      <glyph unicode="^" glyph-name="gid262" horiz-adv-x="481" d="M357,641L473,408l-73-37L288,532h-8L120,371L52,409L226,641H357Z"/>
      <glyph unicode="_" glyph-name="gid210" horiz-adv-x="448" d="M413,0L398-109H-50L-35,0H413Z"/>
      <glyph unicode="`" glyph-name="gid274" horiz-adv-x="374" d="M157,742L378,592l-59-75L85,627l72,115Z"/>
      <glyph unicode="a" glyph-name="gid60" horiz-adv-x="604" d="M340,511q26,0 60.5-3t69.5-7.5t64.5-9.5T580,481L446,387q-32,1-60,1.5T326,389q-24,0-42-4.5t-30.5-17t-22-37.5T216,264q-8-56-9.5-85.5T214,139t31-10q23,2 49,19.5T344.5,195T389,259l30-53q-17-66-52-114T283,18T172-12Q103-16 68,15T25.5,108.5T31,261q13,87 39,137.5T135,473t90.5,31T340,511Zm62-16l178-14L512,0H372V110l-23,15l53,370Z"/>
      <glyph unicode="b" glyph-name="gid68" horiz-adv-x="606" d="M426,511q60,0 96-27.5t47-86T566,246q-8-57-25.5-104.5T492,60T411,7T287-12q-28,0-66,2.5T143.5-2t-74,12.5T13,28l144,96q15-4 36-6.5t43-4t36-0.5q26,1 44,7.5t30.5,22t20.5,44T382,259q7,45 6,68.5t-10.5,32T348,368q-35,0-68.5-19.5T209,299l-25,60q19,30 45,57.5T285.5,465t66,33.5T426,511ZM289,700L271,559q-4-36-12-70t-24-71l16-9L194,20L13,28l94,672H289Z"/>
      <glyph unicode="c" glyph-name="gid69" horiz-adv-x="524" d="M304,511q53,0 111-8.5T517,475L492,364q-51,1-93,1t-72,0q-37,0-59-10.5t-34-35T216,250q-7-49-2-74t24-34t55-9q19,0 45.5,0.5t57,2T456,140L469,24Q422,4 367-4T261-12q-88,0-145,27T36.5,101T27,256q13,91 43,147t86.5,82T304,511Z"/>
      <glyph unicode="d" glyph-name="gid71" horiz-adv-x="607" d="M247,511q76,0 143-10.5T496,467l-20-71q-40,0-73.5,0.5T325,397q-28,0-47-5t-30.5-19t-19-40T215,264q-5-44-6.5-72t7.5-40.5T248,139q36,2 67.5,22T379,209l34-76q-14-17-37.5-41.5t-55-48T252,4T173-12q-59,0-95,29T30,106.5T30,261q10,76 30,125t47.5,76.5t63,38T247,511ZM613,700L515,0H371l-3,129l-17,10l47,340l9,16q0,25 1.5,50.5T414,599l18,101H613Z"/>
      <glyph unicode="e" glyph-name="gid73" horiz-adv-x="578" d="M323,511q98,0 151.5-21t72-60.5T556,331q-6-45-30.5-70.5t-67.5-38T349,205L90,184l12,91l205,21q23,2 38.5,6.5t25,15T382,349q3,17-2,26t-18.5,12.5T322,390q-25,0-42-6t-28.5-19.5t-19-39T218,259q-9-56-4.5-84t25-37t57.5-9q23,0 58,1.5t73.5,4T495,140L508,28Q475,14 436,4.5t-79-13T279-12Q172-12 114,18.5t-77,90T27,254q9,78 31.5,128.5t59,78t88,39T323,511Z"/>
      <glyph unicode="f" glyph-name="gid78" horiz-adv-x="413" d="M319,722q22,0 54-1t64.5-4t55.5-8L466,598H382q-35,0-50-13t-21-49L227-38q-9-70-50.5-112.5T46-193q-28,0-63,3.5t-84,9.5L-73-69h55q36,0 51,13.5T54-7l82,574q11,71 52.5,113T319,722ZM432,497L416,384H27L41,492l87,5H432Z"/>
      <glyph unicode="g" glyph-name="gid79" horiz-adv-x="608" d="M407,495l178-14L527,72Q515-15 487-70t-69.5-84T325-194T217-206q-18,0-55.5,2T82-195.5T7-175L17-75q16,0 32.5,0t40,0T150-75q71,1 122,18T344,4q15,28 20.5,56.5T384,114l-31,12l54,369ZM296,511q60,0 116.5-4.5T514,495t70-14L450,387q-32,1-60.5,1.5T328,389q-30,0-49-6t-30.5-19.5t-18.5-38T217,264q-10-56-10-86t10-40.5t31-8.5q24,3 49.5,20T348,194.5T393,259l30-52q-17-65-53-111.5t-85.5-72T174-4Q106-7 70.5,23.5t-44,91T32,261q13,87 36.5,137.5t56,74.5T200,504t96,7Z"/>
      <glyph unicode="h" glyph-name="gid80" horiz-adv-x="610" d="M439,511q74,0 108.5-37T572,369L520,0H339l45,318q3,24-2.5,31.5T357,357q-29,0-59-14.5T223,292l-27,82q66,71 128,104t115,33ZM290,700L268,537q-7-51-21.5-98T220,364l21-10L192,0H10l98,700H290Z"/>
      <glyph unicode="i" glyph-name="gid81" horiz-adv-x="291" d="M264,497L195,0H14L83,497H264ZM238,721q29,0 42-14t10-43l-7-53q-6-50-60-50H151q-58,0-51,57l7,53q5,50 59,50h72Z"/>
      <glyph unicode="j" glyph-name="gid88" horiz-adv-x="292" d="M267,497L201,39q-6-49-28-95t-57.5-81.5T34-195L-66-111Q-25-72-5-35T21,46L86,497H267ZM238,721q30,0 42.5-14t8.5-43l-7-53q-6-50-61-50H151q-58,0-52,57l7,53q6,50 62,50h70Z"/>
      <glyph unicode="k" glyph-name="gid90" horiz-adv-x="589" d="M290,700L251,413q-5-32-15-61.5T210,290q2-30 4.5-69T214,153L192,0H10l98,700H290ZM580,497q-20-80-62.5-136T420,267.5t-116-63T186,161L169,273q52,20 99,53.5T348,404t45,93H580ZM377,280q33-15 52.5-37.5T460,195L552,0H365L258,236l119,44Z"/>
      <glyph unicode="l" glyph-name="gid91" horiz-adv-x="345" d="M290,700L214,168q-4-23 5-31t38-8h42L309,8Q294,1 269-3.5t-50-7T178-13Q101-13 60.5,24.5T28,127l81,573H290Z"/>
      <glyph unicode="m" glyph-name="gid92" horiz-adv-x="881" d="M221,497l5-107l17-13L191,0H10L80,497H221Zm192,14q71,0 104.5-37.5T541,369L489,0H315l44,318q4,23-3,31t-25,8q-14,0-30.5-5.5t-38-19.5T211,294l-28,80q63,72 116,104.5T413,511Zm302,0q73,0 106-38t24-104L793,0H613l44,318q3,24-5,31.5T629,357q-13,0-29-5.5t-37-19T514,294l-29,80q63,72 116,104.5T715,511Z"/>
      <glyph unicode="n" glyph-name="gid93" horiz-adv-x="610" d="M446,511q41,0 72-16t46.5-47.5T573,369L521,0H339l44,311q4,27-3,37.5T350,357q-25,0-55-15t-72-49l-27,81q54,64 120.5,100.5T446,511ZM222,497l3-132l16-13L192,0H10L79,497H222Z"/>
      <glyph unicode="o" glyph-name="gid95" horiz-adv-x="603" d="M322,511q96,0 154.5-27t80-86T564,241q-13-94-45.5-149.5T426,12T271-12T117,14T35.5,98.5T27,255q13,95 45.5,150.5t93,80.5T322,511Zm-3-127q-33,0-52-11t-30.5-42T216,241q-7-52-5-79.5T229,124t48-10t50.5,11.5t29.5,42T377,255q7,53 5,80.5t-17,38T319,384Z"/>
      <glyph unicode="p" glyph-name="gid103" horiz-adv-x="606" d="M427,509q57,0 91.5-29.5t46-89.5T564,236q-11-78-31.5-127.5T482.5,33t-68-36.5T330-14q-24,0-55.5,2.5T209.5-4T147,9.5T98,30l21,71q40,0 73.5-0.5T269,100q30,0 49,5.5T348,125t17.5,40.5T378,233q8,55 8,84t-9,40t-29,11q-18,0-41.5-10.5t-47-28.5T218,288l-33,71q12,18 35,43t55.5,50T347,493t80,16ZM224,497l-2-122l19-15L199,27L188,10q1-25-0.5-50T181-94l-15-91H-16L79,497H224Z"/>
      <glyph unicode="q" glyph-name="gid105" horiz-adv-x="606" d="M305,511q30,0 68.5-2.5t78-7.5t74-12.5T582,470L438,374q-15,5-38,7.5T355.5,385T322,386q-26-1-44-7t-30-19.5T228,321t-14-66q-6-42-6-67.5t10-37T251,139q24,0 44.5,10T337,174.5T380,207l34-72q-28-42-67.5-75T264,7.5T181-12Q118-12 79.5,14.5t-51,85T29,253q9,63 25,111t46,80.5T180,494t125,17Zm95-32l182-9L488-185H307L324-61q5,42 14.5,83.5T363,101l-16,8l53,370Z"/>
      <glyph unicode="r" glyph-name="gid106" horiz-adv-x="440" d="M222,497l6-109l16-13L193,0H10L80,497H222Zm242,14L426,344H384q-31,0-67.5-9T223,308l-7,103q56,50 110.5,75T430,511h34Z"/>
      <glyph unicode="s" glyph-name="gid107" horiz-adv-x="538" d="M275,511q38,0 83-3t87-7.5T516,489L501,382q-49,0-97,0.5T309,383q-36,0-56.5-1T224,377t-10-13q-2-12 9-20t42-17l116-36q40-12 66-32t37.5-50t6.5-71q-8-64-39-95.5T368.5,0T243-11q-35,0-72,1.5t-78,6T2,9L18,117q15-1 43-1t60.5,0t61.5,0q54,0 82,2t39,7.5T316,141q2,9-2.5,14T296,165t-36,12L148,214q-44,15-69.5,38t-34,55T41,378q7,45 30.5,74T144,496t131,15Z"/>
      <glyph unicode="t" glyph-name="gid109" horiz-adv-x="425" d="M329,631L263,168q-3-23 4-31t32-8h63L371,9Q350,1 321-3.5t-57-7T218-13q-73,0-112,38T77,129l73,502H329ZM438,497L423,384H27L41,492l96,5H438Z"/>
      <glyph unicode="u" glyph-name="gid110" horiz-adv-x="603" d="M259,497L213,179q-3-23 5.5-31.5T244,139q29,0 57,15.5T372,205l30-81Q336,53 277.5,19.5T159-14Q84-14 49.5,23.5T25,128L76,497H259Zm321,0L511,0H369l-2,134l-16,12l49,351H580Z"/>
      <glyph unicode="v" glyph-name="gid115" horiz-adv-x="590" d="M591,497q-6-40-15.5-81.5T555,336t-23-69q-21-61-43-107T453,92q-22-39-46-58.5T353,7T281,0H149q-20,0-35,13.5T97,46L35,497H233l14-384h11q20,0 30,10.5T313,169q11,25 22.5,56.5T358,300q15,54 23,105.5T394,497H591Z"/>
      <glyph unicode="w" glyph-name="gid116" horiz-adv-x="908" d="M126,0Q105,0 91,14T75,49L42,498H227l9-382h8q14,0 24,14t19,45q7,19 13.5,44.5T313,276q6,25 10.5,51.5t9.5,57T343,452q2,15 15,30t39,15H551q21,0 34.5-13T600,452l13-336h9q17,0 24,19t14,48q10,31 17,59t15,61q10,44 17,90.5T721,497H902q-5-38-12-76t-15.5-75T856,274q-13-47-28-89.5T798,110q-16-39-38-63T703,11.5T609,0H537q-22,0-37,14T485,49l-9,339H464q-2-12-5.5-35T450,302.5T439,245q-5-21-10.5-43T417,160.5T406,124q-17-58-43.5-84.5t-61-33T223,0H126Z"/>
      <glyph unicode="x" glyph-name="gid117" horiz-adv-x="586" d="M214,497L316,239L149,0H-39L146,254L44,497H214ZM388,309L373,203H191l14,106H388ZM603,497L430,254L541,0H369L260,270L419,497H603Z"/>
      <glyph unicode="y" glyph-name="gid118" horiz-adv-x="603" d="M605,497q-8-52-23-108T548,278T508.5,174t-39-87.5T437,25Q389-55 332-106.5T209-182T63-206L49-105q36,12 68.5,23.5T179-51T236,2t56,90q30,58 51.5,118t38,130T411,497H605Zm-374,0l24-368q1-16 17-16h57L288,0H163q-24,0-40.5,15T102,51L33,497H231Z"/>
      <glyph unicode="z" glyph-name="gid121" horiz-adv-x="530" d="M290,378l215-1L224,119L8,120L290,378ZM472,120L456,0H-6L9,120H472Zm48,377L504,377H52L68,497H520Z"/>
      <glyph unicode="{" glyph-name="gid213" horiz-adv-x="355" d="M383,767L370,657q-35,0-52.5-10T296,605L277,467q-5-41-17-70t-38-46.5T148,326q40-12 62-31t29-46.5t2-62.5L215-2q-4-26 8.5-39T274-54l-5-112q-89-12-142,4.5t-73.5,55T40-19L72,211q3,23-1.5,33t-16,15T25,272L39,386q21,7 33,12.5t19.5,18T103,456l24,172q6,51 34.5,87t83,50.5T383,767Z"/>
      <glyph unicode="|" glyph-name="gid239" horiz-adv-x="269" d="M267,781L133-169H6L140,781H267Z"/>
      <glyph unicode="}" glyph-name="gid214" horiz-adv-x="355" d="M92,769q89,13 142-4.5t74-55T322,622L297,449q-4-27-0.5-38.5T311,395t29-11L325,270q-19-8-33-14t-22-17.5T259,204L227-25q-7-51-35.5-86.5T109-162t-139-2L-17-54q37,0 53,8.5T56-4L84,193q6,35 18,61t39,44.5T217,330q-41,6-63,24t-27.5,48.5T127,474l21,138q3,25-9.5,35T87,657l5,112Z"/>
      <glyph unicode="~" glyph-name="gid260" horiz-adv-x="505" d="M136,370q20-1 49-7.5t59-15t55-16t38-9.5q28-5 37,8.5T387,368l75-7q2-79-24-116.5T368,207q-21,1-50,7.5t-59,15t-55,16T166,255q-26,4-35.5-8.5T117,208l-75,7q-1,56 11.5,90t35,49.5T136,370Z"/>
      <glyph unicode="&#xa0;" glyph-name="gid186" horiz-adv-x="213"/>
      <glyph unicode="&#xa1;" glyph-name="gid196" horiz-adv-x="299" d="M220,291L208,69L174-180H-6L28,69L78,291H220ZM194,514q31,0 47.5-16.5T254,448l-7-45q-3-30-19.5-44.5T178,344H142q-68,0-60,66l5,44q9,60 71,60h36Z"/>
      <glyph unicode="&#xa2;" glyph-name="gid241" horiz-adv-x="531" d="M314,609q53,0 110.5-8.5T525,574L500,463q-50,0-92,0.5T337,464q-35,0-56-10.5T248.5,418T231,349q-6-49-1.5-74.5T252,240t52-9q19,0 45,1t56,2.5t60,4.5l12-116q-46-21-100.5-28.5T272,87q-85,0-141.5,26.5t-79,86T42,355q13,91 42.5,146.5t85,81.5T314,609ZM304,165L263,0H210l42,165h52Zm95,340L311,165H259l88,340h52Zm46,185L397,505H345l47,185h53Z"/>
      <glyph unicode="&#xa3;" glyph-name="gid245" horiz-adv-x="590" d="M364,703q36,0 97.5-2.5T587,693L570,557q-14,0-26,0t-28.5,0.5T469,558t-82,0q-37,0-53-12t-18-46L306,291q-2-43-15-71t-33.5-47.5T211,135q17,6 37.5,8.5T289,146H536L517,0H4L20,148q55,25 77,64t25,86l13,217q5,58 20.5,95T199,667t68.5,28t96.5,8ZM473,409l-17-90H47l11,90H473Z"/>
      <glyph unicode="&#xa4;" glyph-name="gid242" horiz-adv-x="576" d="M313,558q61,0 106-28.5T486,453t14-108q-7-56-39.5-101t-80-71.5T276,146q-59,0-104.5,28.5t-68,77T89,359q8,57 40,102t80,71t104,26ZM132,286l71-80L100,113L28,193l104,93Zm307-19l85-93l-80-72l-84,93l79,72ZM308,457q-50,0-80-28t-37-75q-6-48 21-76.5T282,248q31,0 55.5,12.5T378,297t20,55q4,32-6.5,56t-32,36.5T308,457ZM148,605l84-94l-80-73L67,532l81,73Zm344-8l72-80l-93-84l-72,80l93,84Z"/>
      <glyph unicode="&#xa5;" glyph-name="gid246" horiz-adv-x="685" d="M717,690L420,213l-179,1L77,690H265l64-235q6-28 8-51t2-45h13q3,20 12,45.5T385,454L516,690H717ZM437,323L393,0H204l46,323H437Zm139-99l-13-89H73l11,89H576Zm17,126l-12-89H91l11,89H593Z"/>
      <glyph unicode="&#xa6;" glyph-name="gid240" horiz-adv-x="271" d="M268,781L212,381H84l57,400H268ZM191,231L135-169H7L63,231H191Z"/>
      <glyph unicode="&#xa7;" glyph-name="gid232" horiz-adv-x="541" d="M68,346l126-6q-5-38-3.5-59T205,245.5T247,212l131-81q13-8 28.5-20T435,81t19.5-47T455-38q-9-63-38.5-95.5t-79-44T219-189q-27,0-68,1.5T67-183t-77,7L10-52q33-1 69-2t77-1q32,0 54,2t35.5,10.5T261-17q3,17-5,28T231,32L125,95q-54,29-75.5,64.5T34,241T68,346ZM313,704q26,0 66.5-1.5t84.5-4t77-6.5L522,567q-18,1-34,1.5t-45,1T359,569q-30,0-49-2.5t-28.5-10T270,533q-2-15 6.5-27.5T308,478l99-58q53-29 74.5-65T498,273.5T463,168l-126,6q6,38 4.5,59t-15,36T284,303L154,389q-23,16-43,36.5t-30.5,51T76,552q8,66 42,98.5t85,43T313,704Z"/>
      <glyph unicode="&#xa8;" glyph-name="gid272" horiz-adv-x="430" d="M221,714q18,0 24-7.5t4-23.5l-10-71q-2-16-9.5-23T206,582H137q-32,0-28,30l10,70q3,17 11,24.5t26,7.5h65Zm185,0q16,0 23-7.5t5-23.5l-10-70q-3-17-10.5-24T390,582H321q-31,0-28,30l11,70q2,18 10.5,25t23.5,7h68Z"/>
      <glyph unicode="&#xa9;" glyph-name="gid233" horiz-adv-x="798" d="M438,704q110,0 188.5-45.5T743,531t25-193q-11-105-62-184T571,30.5T376-14q-82,0-147.5,25t-110,72.5t-64,115T44,352q13,108 65,187T245.5,661T438,704Zm1-157q40,0 70.5-4T570,531l-14-95q-34,0-61.5,0.5T429,437q-25,0-40-6.5t-23-26T354,347q-5-37-2-57t14.5-27t33.5-8q20,0 43.5,0t46,1.5T530,259l8-95q-34-10-67-14.5T402,145q-77,0-120.5,19.5t-58,66T218,353q10,74 34,116.5t69.5,60T439,547Zm2,75q-87,0-153.5-34.5T181,489T132,338q-7-81 18-142t81-94.5T372,68t151.5,33.5T631,199t50,153q8,82-17.5,142.5t-81.5,94T441,622Z"/>
      <glyph unicode="&#xaa;" glyph-name="gid129" horiz-adv-x="448" d="M273,616q53,0 98-6.5T438,595l-99-65q-20,1-37.5,1T263,531q-18,0-31.5-5t-23-21.5T194,452q-5-35-5.5-53.5t5-24.5t19.5-6q20,2 45.5,25.5T301,448l20-35q-11-43-33-74t-53-48.5T163,270q-51-2-76.5,18t-31,61.5T58,451q9,57 27,91t45,49.5t63,20t80,4.5Zm38-11l127-10L393,278H291l-1,71l-15,9l36,247Z"/>
      <glyph unicode="&#xab;" glyph-name="gid223" horiz-adv-x="537" d="M415,468l95-62L407,251L480,90L385,28L244,231l3,39L415,468Zm-222,0l95-62L185,251L258,90L163,28L22,231l3,39L193,468Z"/>
      <glyph unicode="&#xac;" glyph-name="gid261" horiz-adv-x="573" d="M530,374L510,240H39L59,374H530Zm0,0L496,137H352l34,229l144,8Z"/>
      <glyph unicode="&#xae;" glyph-name="gid234" horiz-adv-x="508" d="M308,704q61,0 108-28.5t71-80T501,474q-9-63-41.5-112T375,286T254,259q-63,0-110.5,29T73,369T59,489q9,65 41.5,113t85,75T308,704ZM272,595L241,376H166l31,219h75Zm32,63q-85,0-135.5-50T108,476q-6-53 12-92t54-59.5T257,304q56,0 97.5,23T421,391.5T452,488q6,53-12,91t-54,58.5T304,658Zm-12-60q36,0 60.5-6T388,570.5t7-41.5q-2-17-12.5-31.5T342,480v-2q12-2 20.5-9.5T374,440l9-64H305l-5,65q-1,9-4,11.5T285,455q-30,0-47,0t-28,0.5T188,456l1,45h99q15,0 22.5,3.5T320,523q3,13-1.5,18T298,546q-23,0-43,0t-33.5-0.5T202,545l-5,50q24,2 43.5,2.5T292,598Z"/>
      <glyph unicode="&#xaf;" glyph-name="gid280" horiz-adv-x="400" d="M419,704L404,594H93l15,110H419Z"/>
      <glyph unicode="&#xb0;" glyph-name="gid236" horiz-adv-x="339" d="M215,699q39,0 71-18t49.5-49.5T348,558q-7-58-47.5-93T198,430q-40,0-72,18T78,498T67,572q8,56 46.5,91.5T215,699Zm-4-79q-26,0-40.5-15T154,567q-3-27 10.5-42T203,510q24,0 40,14.5T261,563q2,25-11,41t-39,16Z"/>
      <glyph unicode="&#xb1;" glyph-name="gid259" horiz-adv-x="562" d="M387,562L335,202H203l50,360H387ZM494,165L475,31H13L33,165H494Zm41,283L515,315H54L73,448H535Z"/>
      <glyph unicode="&#xb2;" glyph-name="gid177" horiz-adv-x="427" d="M276,779q80,0 121-16.5T438,690q0-29-12-52.5t-31-44T352,555L243,470q16,4 29.5,6t29.5,1l118-3L404,360H57l10,69q2,17 8,30.5T95,485l96,77q22,17 43.5,35T270,630t14,23t-10,10t-29,2q-33,0-62.5,0T108,664l11,103q49,8 91.5,10t65.5,2Z"/>
      <glyph unicode="&#xb3;" glyph-name="gid178" horiz-adv-x="410" d="M276,781q77,0 114-15.5T427,709q0-58-22.5-91T333,580v-2q40-5 58.5-22T410,507q0-60-21-94.5t-62-48T225,351q-43,0-87.5,3.5T54,363l18,99q30-1 50.5-1.5T160,460t37,0q39,0 55.5,7T269,505q0,11-9,16t-37,6l-87,3l12,83l87,3q30,1 40.5,9T286,655q0,11-9.5,14.5T240,673q-36,0-70,0t-59,0l10,96q41,6 79.5,9t75.5,3Z"/>
      <glyph unicode="&#xb4;" glyph-name="gid275" horiz-adv-x="374" d="M327,746l60-127L135,517L92,592L327,746Z"/>
      <glyph unicode="&#xb5;" glyph-name="gid263" horiz-adv-x="630" d="M276,497L231,184q-3-22 4.5-32.5T262,141q20,0 44,14.5t45.5,51T383,311L360,95q-24-39-52.5-63T248-3T180-14Q130-14 97.5,4t-47,51T43,132L93,497H276Zm315,0L542,150q-4-24-0.5-35.5T561,103h41l-6-90Q568,3 529-4.5T453-12q-46,0-73,21T354,80l1,9v15l53,393H591ZM215,64L196-67L156-184H-2L54,209L215,64Z"/>
      <glyph unicode="&#xb6;" glyph-name="gid231" horiz-adv-x="594" d="M384,702q42,0 93.5-4T570,685L555,583q-24,5-55,7t-61,3t-51,1L247,200q-82,7-130.5,40T51,329T45,458q13,91 50.5,144t108,76.5T384,702Zm28-17L286-210H174L300,685H412Zm158,0L474,0H362l97,685H570Z"/>
      <glyph unicode="&#xb7;" glyph-name="gid199" horiz-adv-x="255" d="M150,343q31,0 47.5-16.5T210,277l-7-45q-3-30-19.5-44.5T134,173H97q-69,0-61,66l6,45q9,59 70,59h38Z"/>
      <glyph unicode="&#xb8;" glyph-name="gid281" horiz-adv-x="256" d="M31-35q50,6 87.5,4T175-50.5T187-107q-8-52-41.5-84.5T62.5-236T-46-241l20,70q35,0 64.5,10.5T75-119q2,12-7.5,15.5T15-100L31-35Z"/>
      <glyph unicode="&#xb9;" glyph-name="gid176" horiz-adv-x="315" d="M334,772L276,360H137l35,249q2,13 5,26.5t8,28.5L83,646l-4,87l116,39H334Z"/>
      <glyph unicode="&#xba;" glyph-name="gid130" horiz-adv-x="436" d="M253,619q101,0 141.5-42T421,435q-8-62-29.5-99T330,283.5T225,268q-100,0-141.5,41T55,449q13,95 58,132.5T253,619Zm-2-91q-19,0-30.5-7.5t-18-27.5T190,435q-5-37 0.5-57T226,358q28,0 40,19t20,72q7,52-1.5,65.5T251,528Z"/>
      <glyph unicode="&#xbb;" glyph-name="gid224" horiz-adv-x="538" d="M110,29L15,91L117,246L45,406l95,63L280,265l-2-39L110,29Zm222,0L237,91L339,246L267,406l95,63L502,265l-2-39L332,29Z"/>
      <glyph unicode="&#xbc;" glyph-name="gid173" horiz-adv-x="935" d="M734,690L237,0H120L617,690H734Zm-411,0L264,276H126l35,254q2,13 5,26.5t8,28.5L78,564l-5,86l111,40H323ZM756,414L637,185q-4-8-1-11.5t9-3.5H889L879,93L829,82H532q-22,0-35,11.5T482.5,123t8.5,35L630,414H756Zm109-82L818,0H696l36,263l31,69H865Z"/>
      <glyph unicode="&#xbd;" glyph-name="gid172" horiz-adv-x="930" d="M730,690L234,0H117L614,690H730Zm-407,0L264,276H125l36,254q2,13 4.5,26.5T173,585L77,564l-4,86l110,40H323ZM718,421q54,0 95-8.5t62-34T887,301q-4-24-21-49t-56-54L691,111q17,5 30,6t29,0l121-2L855,0H511l11,73q2,18 6,31t16,24l97,77q37,28 60,47.5T733,286q9,13 2,19t-24,6q-26,0-46.5,0T622,311t-53,0l-1,98q50,9 91,10.5t59,1.5Z"/>
      <glyph unicode="&#xbe;" glyph-name="gid174" horiz-adv-x="994" d="M810,690L314,0H198L693,690H810Zm-565,8q95,0 128.5-23T399,594q-3-21-12-42.5t-28-36T307,497l-3-3q51-7 67.5-36.5T383,383q-4-34-22-60.5t-55.5-41T202,267q-38,0-81,4t-81,8l7,98q33-1 56-1t40.5-0.5T180,375q36,0 50,12t16,30q1,11-1,17t-9,9t-22,3l-97,2l11,83l95-1q15,1 23.5,5.5T259,548t4,20q1,12-5.5,17.5T229,591q-23,0-56.5,0T98,591l-2,96q40,6 79,8.5t70,2.5ZM819,416L699,187q-4-8-1-11.5t9-3.5H951L941,94L892,83H596q-22,0-35,12t-14.5,29.5T554,159L693,416H819Zm108-83L880,2H758l37,261l30,70H927Z"/>
      <glyph unicode="&#xbf;" glyph-name="gid198" horiz-adv-x="526" d="M348,289q-4-52-20.5-92T289,127.5T244,75T203,32.5T177-5q-8-23 3-35.5T230-53q53,0 87.5,0t62,0.5T440-51l-1-122q-31-5-56-10t-51.5-8.5t-61-5T186-198Q70-198 18.5-157T-23-36Q-17,6 4,36.5t50,55t59.5,51t55,61.5T206,289H348ZM322,514q31,0 48-16.5T382,447l-6-44q-4-30-20-44.5T307,344H271q-69,0-61,66l6,45q8,59 69,59h37Z"/>
      <glyph unicode="&#xc0;" glyph-name="gid6" horiz-adv-x="665" d="M472,690q22,0 39.5-15T532,638L630,0H442L392,478q-2,19-2.5,37T389,551H361q-4-15-9-34t-13-37L150,0H-45L233,645q8,22 25.5,33.5T299,690H472Zm42-389L498,162H138l17,139H514ZM270,947L491,797l-59-75L198,832l72,115Z"/>
      <glyph unicode="&#xc1;" glyph-name="gid2" horiz-adv-x="665" d="M472,690q22,0 39.5-15T532,638L630,0H442L392,478q-2,19-2.5,37T389,551H361q-4-15-9-34t-13-37L150,0H-45L233,645q8,22 25.5,33.5T299,690H472Zm42-389L498,162H138l17,139H514Zm29,650l60-127L351,722l-43,75L543,951Z"/>
      <glyph unicode="&#xc2;" glyph-name="gid4" horiz-adv-x="665" d="M472,690q22,0 39.5-15T532,638L630,0H442L392,478q-2,19-2.5,37T389,551H361q-4-15-9-34t-13-37L150,0H-45L233,645q8,22 25.5,33.5T299,690H472Zm42-389L498,162H138l17,139H514ZM467,920L596,782l-50-60L406,818h-8L237,722l-43,64L344,920H467Z"/>
      <glyph unicode="&#xc3;" glyph-name="gid8" horiz-adv-x="665" d="M472,690q22,0 39.5-15T532,638L630,0H442L392,478q-2,19-2.5,37T389,551H361q-4-15-9-34t-13-37L150,0H-45L233,645q8,22 25.5,33.5T299,690H472Zm42-389L498,162H138l17,139H514ZM309,910q20,0 41.5-6T392,889.5T431,874t33-10q27-6 37,7t13,38l75-7q3-80-24-116.5T495,749q-20,1-42,7t-43.5,14.5t-40,15.5T336,796q-25,5-35-7.5T287,750l-75,7q-1,80 26.5,117T309,910Z"/>
      <glyph unicode="&#xc4;" glyph-name="gid5" horiz-adv-x="665" d="M472,690q22,0 39.5-15T532,638L630,0H442L392,478q-2,19-2.5,37T389,551H361q-4-15-9-34t-13-37L150,0H-45L233,645q8,22 25.5,33.5T299,690H472Zm42-389L498,162H138l17,139H514ZM354,896q18,0 24-7.5t4-23.5l-10-71q-2-16-9.5-23T339,764H270q-32,0-28,30l10,70q3,17 11,24.5t26,7.5h65Zm185,0q16,0 23-7.5t5-23.5l-10-70q-3-17-10.5-24T523,764H454q-31,0-28,30l11,70q2,18 10.5,25t23.5,7h68Z"/>
      <glyph unicode="&#xc5;" glyph-name="gid7" horiz-adv-x="665" d="M472,690q22,0 39.5-15T532,638L630,0H442L392,478q-2,19-2.5,37T389,551H361q-4-15-9-34t-13-37L150,0H-45L233,645q8,22 25.5,33.5T299,690H472Zm42-389L498,162H138l17,139H514ZM412,951q50,0 84.5-29.5T531,844q0-56-36.5-91.5T401,717q-49,0-84,30t-35,77q0,56 37,91.5T412,951Zm-3-68q-23,0-37-14t-14-38q0-20 13-33t33-13q24,0 37.5,14.5T455,838q0,21-12.5,33T409,883Z"/>
      <glyph unicode="&#xc6;" glyph-name="gid9" horiz-adv-x="946" d="M622,692q99,0 178-1.5T963,682L940,550H705q-27,0-39.5-10T649,504L603,185q-2-22 6.5-33.5T644,140H882L878,7Q802-1 718.5-2T558-3Q487-3 451,40.5T425,152l51,363q2,16 9,34t16,30H491q-7-10-17.5-26.5T455,524L141,0H-54L285,548q24,40 51,67.5t64,44T491,684t131,8ZM490,311L472,171H128l20,140H490ZM471,415H885L871,296H453l18,119Z"/>
      <glyph unicode="&#xc7;" glyph-name="gid12" horiz-adv-x="595" d="M389,702q51,0 88-3t68-8.5T607,676L585,539q-35,2-65,2.5t-62.5,1T380,543q-32,0-54-7.5T288.5,507T262,445T243,338q-11-76-9.5-117.5t21-57.5T317,147q73,0 121,2.5t95,6.5l7-138Q487,2 435-5T309-12Q198-12 134,23T49,138T47,352Q62,455 86,523t63,107t98,55.5T389,702ZM207-56q50,6 87.5,4T351-71.5T363-128q-8-52-41.5-84.5t-83-44.5T130-262l20,70q35,0 64.5,10.5T251-140q2,12-7.5,15.5T191-121l16,65Z"/>
      <glyph unicode="&#xc8;" glyph-name="gid19" horiz-adv-x="580" d="M260,693q59,0 119-0.5t116-3T597,681L576,548H328q-27,0-39.5-10T272,502L228,187q-3-22 7-33.5T270,142H516L513,7Q466,1 410.5-0.5t-113-2T188-3Q105-3 66.5,46T38,173L90,548q10,67 53.5,106T260,693ZM91,419H520L504,292H71L91,419ZM255,951L476,801l-59-75L183,836l72,115Z"/>
      <glyph unicode="&#xc9;" glyph-name="gid16" horiz-adv-x="580" d="M260,693q59,0 119-0.5t116-3T597,681L576,548H328q-27,0-39.5-10T272,502L228,187q-3-22 7-33.5T270,142H516L513,7Q466,1 410.5-0.5t-113-2T188-3Q105-3 66.5,46T38,173L90,548q10,67 53.5,106T260,693ZM91,419H520L504,292H71L91,419ZM528,955l60-127L336,726l-43,75L528,955Z"/>
      <glyph unicode="&#xca;" glyph-name="gid17" horiz-adv-x="580" d="M260,693q59,0 119-0.5t116-3T597,681L576,548H328q-27,0-39.5-10T272,502L228,187q-3-22 7-33.5T270,142H516L513,7Q466,1 410.5-0.5t-113-2T188-3Q105-3 66.5,46T38,173L90,548q10,67 53.5,106T260,693ZM91,419H520L504,292H71L91,419ZM452,924L581,786l-50-60L391,822h-8L222,726l-43,64L329,924H452Z"/>
      <glyph unicode="&#xcb;" glyph-name="gid18" horiz-adv-x="580" d="M260,693q59,0 119-0.5t116-3T597,681L576,548H328q-27,0-39.5-10T272,502L228,187q-3-22 7-33.5T270,142H516L513,7Q466,1 410.5-0.5t-113-2T188-3Q105-3 66.5,46T38,173L90,548q10,67 53.5,106T260,693ZM91,419H520L504,292H71L91,419ZM340,901q18,0 24-7.5t4-23.5l-10-71q-2-16-9.5-23T325,769H256q-32,0-28,30l10,70q3,17 11,24.5t26,7.5h65Zm185,0q16,0 23-7.5t5-23.5l-10-70q-3-17-10.5-24T509,769H440q-31,0-28,30l11,70q2,18 10.5,25t23.5,7h68Z"/>
      <glyph unicode="&#xcc;" glyph-name="gid27" horiz-adv-x="308" d="M304,690L207,0H19l97,690H304ZM95,947L316,797l-59-75L23,832L95,947Z"/>
      <glyph unicode="&#xcd;" glyph-name="gid24" horiz-adv-x="308" d="M304,690L207,0H19l97,690H304Zm64,261l60-127L176,722l-43,75L368,951Z"/>
      <glyph unicode="&#xce;" glyph-name="gid25" horiz-adv-x="308" d="M304,690L207,0H19l97,690H304ZM292,920L421,782l-50-60L231,818h-8L62,722L19,786L169,920H292Z"/>
      <glyph unicode="&#xcf;" glyph-name="gid26" horiz-adv-x="308" d="M304,690L207,0H19l97,690H304ZM179,896q18,0 24-7.5t4-23.5l-10-71q-2-16-9.5-23T164,764H95q-32,0-28,30l10,70q3,17 11,24.5t26,7.5h65Zm185,0q16,0 23-7.5t5-23.5l-10-70q-3-17-10.5-24T348,764H279q-31,0-28,30l11,70q2,18 10.5,25t23.5,7h68Z"/>
      <glyph unicode="&#xd0;" glyph-name="gid14" horiz-adv-x="691" d="M366,408l-12-88H12l13,88H366Zm18,292q111,0 178.5-32t92-111T659,338q-15-105-39.5-173.5t-64-106T456,5.5T310-10q-82,0-153.5,3T19,0l90,135q35-3 90.5-4.5T308,129q33,0 58,8.5T409,170t31,68t22,114q9,64 10,105t-8,64t-30,31.5T378,561q-34,0-67.5,0T246,561t-58,0L116,690q38,3 82,5.5t91.5,3.5t94.5,1Zm-81-10L206,0H19l97,690H303Z"/>
      <glyph unicode="&#xd1;" glyph-name="gid33" horiz-adv-x="724" d="M720,690L632,62q-4-32-20.5-47T563,0H489q-30,0-43,15.5T421,59L291,353q-11,23-19,51t-14,57H248q1-30-0.5-59.5T242,341L193,0H19l88,628q4,32 20.5,47T176,690h74q29,0 42-16t25-43L444,350q11-25 21.5-53T484,235h11q-2,32-1.5,58.5T498,348l49,342H720ZM339,910q20,0 41.5-6T422,889.5T461,874t33-10q27-6 37,7t13,38l75-7q3-80-24-116.5T525,749q-20,1-42,7t-43.5,14.5t-40,15.5T366,796q-25,5-35-7.5T317,750l-75,7q-1,80 26.5,117T339,910Z"/>
      <glyph unicode="&#xd2;" glyph-name="gid38" horiz-adv-x="692" d="M389,704q109,0 176-33t91-112t5-221q-14-105-40-173.5T554.5,57T455,2T316-14Q203-14 137,19T49.5,131.5T47,352Q62,455 87.5,523.5t65.5,108t98,56T389,704Zm-3-143q-44,0-70.5-18t-42-66T244,338q-13-85-10.5-130T257,146t64-17q45,0 71,18t42,66.5T464,352q13,85 10.5,130t-24,62T386,561ZM284,947L505,797l-59-75L212,832l72,115Z"/>
      <glyph unicode="&#xd3;" glyph-name="gid35" horiz-adv-x="692" d="M389,704q109,0 176-33t91-112t5-221q-14-105-40-173.5T554.5,57T455,2T316-14Q203-14 137,19T49.5,131.5T47,352Q62,455 87.5,523.5t65.5,108t98,56T389,704Zm-3-143q-44,0-70.5-18t-42-66T244,338q-13-85-10.5-130T257,146t64-17q45,0 71,18t42,66.5T464,352q13,85 10.5,130t-24,62T386,561ZM557,951l60-127L365,722l-43,75L557,951Z"/>
      <glyph unicode="&#xd4;" glyph-name="gid36" horiz-adv-x="692" d="M389,704q109,0 176-33t91-112t5-221q-14-105-40-173.5T554.5,57T455,2T316-14Q203-14 137,19T49.5,131.5T47,352Q62,455 87.5,523.5t65.5,108t98,56T389,704Zm-3-143q-44,0-70.5-18t-42-66T244,338q-13-85-10.5-130T257,146t64-17q45,0 71,18t42,66.5T464,352q13,85 10.5,130t-24,62T386,561Zm95,359L610,782l-50-60L420,818h-8L251,722l-43,64L358,920H481Z"/>
      <glyph unicode="&#xd5;" glyph-name="gid40" horiz-adv-x="692" d="M389,704q109,0 176-33t91-112t5-221q-14-105-40-173.5T554.5,57T455,2T316-14Q203-14 137,19T49.5,131.5T47,352Q62,455 87.5,523.5t65.5,108t98,56T389,704Zm-3-143q-44,0-70.5-18t-42-66T244,338q-13-85-10.5-130T257,146t64-17q45,0 71,18t42,66.5T464,352q13,85 10.5,130t-24,62T386,561ZM323,910q20,0 41.5-6T406,889.5T445,874t33-10q27-6 37,7t13,38l75-7q3-80-24-116.5T509,749q-20,1-42,7t-43.5,14.5t-40,15.5T350,796q-25,5-35-7.5T301,750l-75,7q-1,80 26.5,117T323,910Z"/>
      <glyph unicode="&#xd6;" glyph-name="gid37" horiz-adv-x="692" d="M389,704q109,0 176-33t91-112t5-221q-14-105-40-173.5T554.5,57T455,2T316-14Q203-14 137,19T49.5,131.5T47,352Q62,455 87.5,523.5t65.5,108t98,56T389,704Zm-3-143q-44,0-70.5-18t-42-66T244,338q-13-85-10.5-130T257,146t64-17q45,0 71,18t42,66.5T464,352q13,85 10.5,130t-24,62T386,561ZM369,896q18,0 24-7.5t4-23.5l-10-71q-2-16-9.5-23T354,764H285q-32,0-28,30l10,70q3,17 11,24.5t26,7.5h65Zm185,0q16,0 23-7.5t5-23.5l-10-70q-3-17-10.5-24T538,764H469q-31,0-28,30l11,70q2,18 10.5,25t23.5,7h68Z"/>
      <glyph unicode="&#xd7;" glyph-name="gid254" horiz-adv-x="526" d="M438,513l68-108L86,73L17,183L438,513Zm-291-9L477,180L380,72L51,405l96,99Z"/>
      <glyph unicode="&#xd8;" glyph-name="gid39" horiz-adv-x="692" d="M569,756l54-26L140-69L86-42L569,756ZM389,704q109,0 176-33t91-112t5-221q-14-105-40-173.5T554.5,57T455,2T316-14Q203-14 137,19T49.5,131.5T47,352Q62,455 87.5,523.5t65.5,108t98,56T389,704Zm-3-143q-44,0-70.5-18t-42-66T244,338q-13-85-10.5-130T257,146t64-17q45,0 71,18t42,66.5T464,352q13,85 10.5,130t-24,62T386,561Z"/>
      <glyph unicode="&#xd9;" glyph-name="gid52" horiz-adv-x="692" d="M694,690L635,277q-15-108-50-171.5T485.5,14T317-14Q215-14 151.5,15.5T63,110.5T52,284l58,406H298L239,277q-8-57-4.5-89.5t24-45.5T320,129q43,0 68,14t38,48t23,93l57,406H694ZM284,947L505,797l-59-75L212,832l72,115Z"/>
      <glyph unicode="&#xda;" glyph-name="gid49" horiz-adv-x="692" d="M694,690L635,277q-15-108-50-171.5T485.5,14T317-14Q215-14 151.5,15.5T63,110.5T52,284l58,406H298L239,277q-8-57-4.5-89.5t24-45.5T320,129q43,0 68,14t38,48t23,93l57,406H694ZM557,951l60-127L365,722l-43,75L557,951Z"/>
      <glyph unicode="&#xdb;" glyph-name="gid50" horiz-adv-x="692" d="M694,690L635,277q-15-108-50-171.5T485.5,14T317-14Q215-14 151.5,15.5T63,110.5T52,284l58,406H298L239,277q-8-57-4.5-89.5t24-45.5T320,129q43,0 68,14t38,48t23,93l57,406H694ZM481,920L610,782l-50-60L420,818h-8L251,722l-43,64L358,920H481Z"/>
      <glyph unicode="&#xdc;" glyph-name="gid51" horiz-adv-x="692" d="M694,690L635,277q-15-108-50-171.5T485.5,14T317-14Q215-14 151.5,15.5T63,110.5T52,284l58,406H298L239,277q-8-57-4.5-89.5t24-45.5T320,129q43,0 68,14t38,48t23,93l57,406H694ZM369,896q18,0 24-7.5t4-23.5l-10-71q-2-16-9.5-23T354,764H285q-32,0-28,30l10,70q3,17 11,24.5t26,7.5h65Zm185,0q16,0 23-7.5t5-23.5l-10-70q-3-17-10.5-24T538,764H469q-31,0-28,30l11,70q2,18 10.5,25t23.5,7h68Z"/>
      <glyph unicode="&#xdd;" glyph-name="gid57" horiz-adv-x="630" d="M691,690L393,212H214L50,690H238l64-237q7-28 8.5-51t1.5-45h13q4,20 12.5,46T358,452L491,690H691ZM411,321L367,0H178l45,321H411ZM522,951l60-127L330,722l-43,75L522,951Z"/>
      <glyph unicode="&#xde;" glyph-name="gid43" horiz-adv-x="625" d="M365,576q98,0 156-21.5t79.5-73T609,337q-12-88-41-136.5t-82-67T346,115q-65,0-126.5,8t-105,19.5T57,164l6,86q64,0 133,0t133,0q31,1 49,7.5t29,28T423,351q5,35 2,54t-18,27t-45,8q-98,0-166.5-1.5T102,435l1,131q43,5 79.5,7t79,2.5T365,576ZM304,690L207,0H19l97,690H304Z"/>
      <glyph unicode="&#xdf;" glyph-name="gid108" horiz-adv-x="718" d="M409,737q105,0 160.5-17t73-54t7.5-95q-2-17-8-35.5T622.5,497T585,454q-17-15-32-28t-25-24.5T515,376q-1-16 10.5-29T560,313l58-47q41-37 56-71t8-75q-7-46-29-75T586.5,2.5T468-11q-35,0-75.5,3T298,0l16,114q29-1 57-1t59,0q22,0 38,2.5t25,10t9,23.5q1,10-3.5,19.5t-17,22.5T444,225l-43,30q-32,27-47.5,54T343,376q3,23 13,39.5T384,450t44,43q20,19 31.5,31.5t17.5,24t7,24.5q2,16-3,25t-19.5,12T420,613q-39,0-61.5-6.5t-33-23T311,536L230-38q-7-46-26.5-81T146-173.5T46-193q-24,0-59,3.5T-96-180L-69-69h55q34,0 49,13.5T55-7l80,571q8,51 26,84.5t51,53T293.5,729T409,737ZM213,497L197,384H26L40,492l87,5h86Z"/>
      <glyph unicode="&#xe0;" glyph-name="gid64" horiz-adv-x="604" d="M340,511q26,0 60.5-3t69.5-7.5t64.5-9.5T580,481L446,387q-32,1-60,1.5T326,389q-24,0-42-4.5t-30.5-17t-22-37.5T216,264q-8-56-9.5-85.5T214,139t31-10q23,2 49,19.5T344.5,195T389,259l30-53q-17-66-52-114T283,18T172-12Q103-16 68,15T25.5,108.5T31,261q13,87 39,137.5T135,473t90.5,31T340,511Zm62-16l178-14L512,0H372V110l-23,15l53,370ZM225,761L446,611l-59-75L153,646l72,115Z"/>
      <glyph unicode="&#xe1;" glyph-name="gid61" horiz-adv-x="604" d="M340,511q26,0 60.5-3t69.5-7.5t64.5-9.5T580,481L446,387q-32,1-60,1.5T326,389q-24,0-42-4.5t-30.5-17t-22-37.5T216,264q-8-56-9.5-85.5T214,139t31-10q23,2 49,19.5T344.5,195T389,259l30-53q-17-66-52-114T283,18T172-12Q103-16 68,15T25.5,108.5T31,261q13,87 39,137.5T135,473t90.5,31T340,511Zm62-16l178-14L512,0H372V110l-23,15l53,370Zm96,270l60-127L306,536l-43,75L498,765Z"/>
      <glyph unicode="&#xe2;" glyph-name="gid62" horiz-adv-x="604" d="M340,511q26,0 60.5-3t69.5-7.5t64.5-9.5T580,481L446,387q-32,1-60,1.5T326,389q-24,0-42-4.5t-30.5-17t-22-37.5T216,264q-8-56-9.5-85.5T214,139t31-10q23,2 49,19.5T344.5,195T389,259l30-53q-17-66-52-114T283,18T172-12Q103-16 68,15T25.5,108.5T31,261q13,87 39,137.5T135,473t90.5,31T340,511Zm62-16l178-14L512,0H372V110l-23,15l53,370Zm20,238L551,595l-50-60L361,631h-8L192,535l-43,64L299,733H422Z"/>
      <glyph unicode="&#xe3;" glyph-name="gid66" horiz-adv-x="604" d="M340,511q26,0 60.5-3t69.5-7.5t64.5-9.5T580,481L446,387q-32,1-60,1.5T326,389q-24,0-42-4.5t-30.5-17t-22-37.5T216,264q-8-56-9.5-85.5T214,139t31-10q23,2 49,19.5T344.5,195T389,259l30-53q-17-66-52-114T283,18T172-12Q103-16 68,15T25.5,108.5T31,261q13,87 39,137.5T135,473t90.5,31T340,511Zm62-16l178-14L512,0H372V110l-23,15l53,370ZM264,724q20,0 41.5-6T347,703.5T386,688t33-10q27-6 37,7t13,38l75-7q3-80-24-116.5T450,563q-20,1-42,7t-43.5,14.5t-40,15.5T291,610q-25,5-35-7.5T242,564l-75,7q-1,80 26.5,117T264,724Z"/>
      <glyph unicode="&#xe4;" glyph-name="gid63" horiz-adv-x="604" d="M340,511q26,0 60.5-3t69.5-7.5t64.5-9.5T580,481L446,387q-32,1-60,1.5T326,389q-24,0-42-4.5t-30.5-17t-22-37.5T216,264q-8-56-9.5-85.5T214,139t31-10q23,2 49,19.5T344.5,195T389,259l30-53q-17-66-52-114T283,18T172-12Q103-16 68,15T25.5,108.5T31,261q13,87 39,137.5T135,473t90.5,31T340,511Zm62-16l178-14L512,0H372V110l-23,15l53,370ZM309,710q18,0 24-7.5t4-23.5l-10-71q-2-16-9.5-23T294,578H225q-32,0-28,30l10,70q3,17 11,24.5t26,7.5h65Zm185,0q16,0 23-7.5t5-23.5l-10-70q-3-17-10.5-24T478,578H409q-31,0-28,30l11,70q2,18 10.5,25t23.5,7h68Z"/>
      <glyph unicode="&#xe5;" glyph-name="gid65" horiz-adv-x="604" d="M340,511q26,0 60.5-3t69.5-7.5t64.5-9.5T580,481L446,387q-32,1-60,1.5T326,389q-24,0-42-4.5t-30.5-17t-22-37.5T216,264q-8-56-9.5-85.5T214,139t31-10q23,2 49,19.5T344.5,195T389,259l30-53q-17-66-52-114T283,18T172-12Q103-16 68,15T25.5,108.5T31,261q13,87 39,137.5T135,473t90.5,31T340,511Zm62-16l178-14L512,0H372V110l-23,15l53,370ZM368,765q50,0 84.5-29.5T487,658q0-56-36.5-91.5T357,531q-49,0-84,30t-35,77q0,56 37,91.5T368,765Zm-3-68q-23,0-37-14t-14-38q0-20 13-33t33-13q24,0 37.5,14.5T411,652q0,21-12.5,33T365,697Z"/>
      <glyph unicode="&#xe6;" glyph-name="gid67" horiz-adv-x="906" d="M302,511q59,0 113-4.5T512,495t68-15L444,386q-21,1-40,1.5t-38,1T324,389q-25,0-43-4.5t-30.5-17T230,330t-14-66q-8-56-9.5-85.5T214,139t31-10q22,2 47.5,19.5t50,46.5T384,259l31-52q-18-67-52-115T281,18T170-12Q102-16 67.5,15.5t-42,94T31,261q12,87 35,137.5T122.5,473T201,504t101,7Zm352,0q96,0 149.5-21T875,429.5T885,331q-7-45-30.5-70.5t-67-38T680,205L424,184l13,91l200,21q22,2 37.5,6.5t25,15T711,349q2,17-3,26t-18,12.5T653,390q-27,0-45-6t-29-19.5t-18.5-39T546,259q-8-56-4-84t25-37t61-9q21,0 55.5,1.5t72.5,4t67,5.5L834,28Q802,14 764,4.5t-77.5-13T610-12Q504-12 446.5,18.5t-76,90T361,254q8,78 30.5,128.5t59.5,78t87.5,39T654,511Z"/>
      <glyph unicode="&#xe7;" glyph-name="gid70" horiz-adv-x="524" d="M304,511q53,0 111-8.5T517,475L492,364q-51,1-93,1t-72,0q-37,0-59-10.5t-34-35T216,250q-7-49-2-74t24-34t55-9q19,0 45.5,0.5t57,2T456,140L469,24Q422,4 367-4T261-12q-88,0-145,27T36.5,101T27,256q13,91 43,147t86.5,82T304,511ZM164-47q50,6 87.5,4T308-62.5T320-119q-8-52-41.5-84.5t-83-44.5T87-253l20,70q35,0 64.5,10.5T208-131q2,12-7.5,15.5T148-112l16,65Z"/>
      <glyph unicode="&#xe8;" glyph-name="gid77" horiz-adv-x="578" d="M323,511q98,0 151.5-21t72-60.5T556,331q-6-45-30.5-70.5t-67.5-38T349,205L90,184l12,91l205,21q23,2 38.5,6.5t25,15T382,349q3,17-2,26t-18.5,12.5T322,390q-25,0-42-6t-28.5-19.5t-19-39T218,259q-9-56-4.5-84t25-37t57.5-9q23,0 58,1.5t73.5,4T495,140L508,28Q475,14 436,4.5t-79-13T279-12Q172-12 114,18.5t-77,90T27,254q9,78 31.5,128.5t59,78t88,39T323,511ZM217,761L438,611l-59-75L145,646l72,115Z"/>
      <glyph unicode="&#xe9;" glyph-name="gid74" horiz-adv-x="578" d="M323,511q98,0 151.5-21t72-60.5T556,331q-6-45-30.5-70.5t-67.5-38T349,205L90,184l12,91l205,21q23,2 38.5,6.5t25,15T382,349q3,17-2,26t-18.5,12.5T322,390q-25,0-42-6t-28.5-19.5t-19-39T218,259q-9-56-4.5-84t25-37t57.5-9q23,0 58,1.5t73.5,4T495,140L508,28Q475,14 436,4.5t-79-13T279-12Q172-12 114,18.5t-77,90T27,254q9,78 31.5,128.5t59,78t88,39T323,511ZM490,765l60-127L298,536l-43,75L490,765Z"/>
      <glyph unicode="&#xea;" glyph-name="gid75" horiz-adv-x="578" d="M323,511q98,0 151.5-21t72-60.5T556,331q-6-45-30.5-70.5t-67.5-38T349,205L90,184l12,91l205,21q23,2 38.5,6.5t25,15T382,349q3,17-2,26t-18.5,12.5T322,390q-25,0-42-6t-28.5-19.5t-19-39T218,259q-9-56-4.5-84t25-37t57.5-9q23,0 58,1.5t73.5,4T495,140L508,28Q475,14 436,4.5t-79-13T279-12Q172-12 114,18.5t-77,90T27,254q9,78 31.5,128.5t59,78t88,39T323,511Zm91,222L543,595l-50-60L353,631h-8L184,535l-43,64L291,733H414Z"/>
      <glyph unicode="&#xeb;" glyph-name="gid76" horiz-adv-x="578" d="M323,511q98,0 151.5-21t72-60.5T556,331q-6-45-30.5-70.5t-67.5-38T349,205L90,184l12,91l205,21q23,2 38.5,6.5t25,15T382,349q3,17-2,26t-18.5,12.5T322,390q-25,0-42-6t-28.5-19.5t-19-39T218,259q-9-56-4.5-84t25-37t57.5-9q23,0 58,1.5t73.5,4T495,140L508,28Q475,14 436,4.5t-79-13T279-12Q172-12 114,18.5t-77,90T27,254q9,78 31.5,128.5t59,78t88,39T323,511ZM301,710q18,0 24-7.5t4-23.5l-10-71q-2-16-9.5-23T286,578H217q-32,0-28,30l10,70q3,17 11,24.5t26,7.5h65Zm185,0q16,0 23-7.5t5-23.5l-10-70q-3-17-10.5-24T470,578H401q-31,0-28,30l11,70q2,18 10.5,25t23.5,7h68Z"/>
      <glyph unicode="&#xec;" glyph-name="gid87" horiz-adv-x="292" d="M266,497L197,0H14L84,497H266ZM59,761L280,611l-59-75L-13,646L59,761Z"/>
      <glyph unicode="&#xed;" glyph-name="gid83" horiz-adv-x="292" d="M266,497L197,0H14L84,497H266Zm66,268l60-127L140,536L97,611L332,765Z"/>
      <glyph unicode="&#xee;" glyph-name="gid84" horiz-adv-x="292" d="M266,497L197,0H14L84,497H266ZM256,733L385,595l-50-60L195,631h-8L26,535l-43,64L133,733H256Z"/>
      <glyph unicode="&#xef;" glyph-name="gid85" horiz-adv-x="292" d="M266,497L197,0H14L84,497H266ZM143,710q18,0 24-7.5t4-23.5l-10-71q-2-16-9.5-23T128,578H59q-32,0-28,30l10,70q3,17 11,24.5T78,710h65Zm185,0q16,0 23-7.5t5-23.5l-10-70q-3-17-10.5-24T312,578H243q-31,0-28,30l11,70q2,18 10.5,25t23.5,7h68Z"/>
      <glyph unicode="&#xf0;" glyph-name="gid72" horiz-adv-x="593" d="M194,698q82,5 146.5-7.5t110-43t73-80.5t35-121T554,282q-9-80-31.5-136.5T463.5,54t-88-51.5T254-14q-81,0-136.5,25t-80,77.5T24,222Q40,342 98.5,397T260,452q23,0 50-4t52.5-17t46-38T440,327l-9-68q-15,24-33.5,40.5t-41,25.5T309,334q-32,0-50.5-12.5t-28.5-38T214,219q-9-60 1-82.5T266,114q33,0 51.5,17.5t29,57.5T366,296q10,69 10.5,119.5t-10,85t-34,53.5T270,580.5T173,583l21,115Zm289,31l43-56L271,475l-42,55L483,729Z"/>
      <glyph unicode="&#xf1;" glyph-name="gid94" horiz-adv-x="610" d="M446,511q41,0 72-16t46.5-47.5T573,369L521,0H339l44,311q4,27-3,37.5T350,357q-25,0-55-15t-72-49l-27,81q54,64 120.5,100.5T446,511ZM222,497l3-132l16-13L192,0H10L79,497H222Zm37,227q20,0 41.5-6T342,703.5T381,688t33-10q27-6 37,7t13,38l75-7q3-80-24-116.5T445,563q-20,1-42,7t-43.5,14.5t-40,15.5T286,610q-25,5-35-7.5T237,564l-75,7q-1,80 26.5,117T259,724Z"/>
      <glyph unicode="&#xf2;" glyph-name="gid99" horiz-adv-x="603" d="M322,511q96,0 154.5-27t80-86T564,241q-13-94-45.5-149.5T426,12T271-12T117,14T35.5,98.5T27,255q13,95 45.5,150.5t93,80.5T322,511Zm-3-127q-33,0-52-11t-30.5-42T216,241q-7-52-5-79.5T229,124t48-10t50.5,11.5t29.5,42T377,255q7,53 5,80.5t-17,38T319,384ZM217,761L438,611l-59-75L145,646l72,115Z"/>
      <glyph unicode="&#xf3;" glyph-name="gid96" horiz-adv-x="603" d="M322,511q96,0 154.5-27t80-86T564,241q-13-94-45.5-149.5T426,12T271-12T117,14T35.5,98.5T27,255q13,95 45.5,150.5t93,80.5T322,511Zm-3-127q-33,0-52-11t-30.5-42T216,241q-7-52-5-79.5T229,124t48-10t50.5,11.5t29.5,42T377,255q7,53 5,80.5t-17,38T319,384ZM490,765l60-127L298,536l-43,75L490,765Z"/>
      <glyph unicode="&#xf4;" glyph-name="gid97" horiz-adv-x="603" d="M322,511q96,0 154.5-27t80-86T564,241q-13-94-45.5-149.5T426,12T271-12T117,14T35.5,98.5T27,255q13,95 45.5,150.5t93,80.5T322,511Zm-3-127q-33,0-52-11t-30.5-42T216,241q-7-52-5-79.5T229,124t48-10t50.5,11.5t29.5,42T377,255q7,53 5,80.5t-17,38T319,384Zm95,349L543,595l-50-60L353,631h-8L184,535l-43,64L291,733H414Z"/>
      <glyph unicode="&#xf5;" glyph-name="gid101" horiz-adv-x="603" d="M322,511q96,0 154.5-27t80-86T564,241q-13-94-45.5-149.5T426,12T271-12T117,14T35.5,98.5T27,255q13,95 45.5,150.5t93,80.5T322,511Zm-3-127q-33,0-52-11t-30.5-42T216,241q-7-52-5-79.5T229,124t48-10t50.5,11.5t29.5,42T377,255q7,53 5,80.5t-17,38T319,384ZM256,724q20,0 41.5-6T339,703.5T378,688t33-10q27-6 37,7t13,38l75-7q3-80-24-116.5T442,563q-20,1-42,7t-43.5,14.5t-40,15.5T283,610q-25,5-35-7.5T234,564l-75,7q-1,80 26.5,117T256,724Z"/>
      <glyph unicode="&#xf6;" glyph-name="gid98" horiz-adv-x="603" d="M322,511q96,0 154.5-27t80-86T564,241q-13-94-45.5-149.5T426,12T271-12T117,14T35.5,98.5T27,255q13,95 45.5,150.5t93,80.5T322,511Zm-3-127q-33,0-52-11t-30.5-42T216,241q-7-52-5-79.5T229,124t48-10t50.5,11.5t29.5,42T377,255q7,53 5,80.5t-17,38T319,384ZM301,710q18,0 24-7.5t4-23.5l-10-71q-2-16-9.5-23T286,578H217q-32,0-28,30l10,70q3,17 11,24.5t26,7.5h65Zm185,0q16,0 23-7.5t5-23.5l-10-70q-3-17-10.5-24T470,578H401q-31,0-28,30l11,70q2,18 10.5,25t23.5,7h68Z"/>
      <glyph unicode="&#xf7;" glyph-name="gid255" horiz-adv-x="537" d="M513,359L493,226H24L44,359H513ZM266,176q41,0 56.5-15.5T332,104l-3-22q-5-40-22-54.5T250,13H209q-41,0-56,16t-9,57l3,21q5,41 24,55t59,14h36Zm58,393q40,0 55.5-15.5T389,498l-3-22q-5-40-22-55t-57-15H266q-41,0-56,16.5T201,478l3,22q6,41 24.5,55T287,569h37Z"/>
      <glyph unicode="&#xf8;" glyph-name="gid100" horiz-adv-x="603" d="M478,589l45-22L127-89L82-67L478,589ZM322,511q96,0 154.5-27t80-86T564,241q-13-94-45.5-149.5T426,12T271-12T117,14T35.5,98.5T27,255q13,95 45.5,150.5t93,80.5T322,511Zm-3-127q-33,0-52-11t-30.5-42T216,241q-7-52-5-79.5T229,124t48-10t50.5,11.5t29.5,42T377,255q7,53 5,80.5t-17,38T319,384Z"/>
      <glyph unicode="&#xf9;" glyph-name="gid114" horiz-adv-x="603" d="M259,497L213,179q-3-23 5.5-31.5T244,139q29,0 57,15.5T372,205l30-81Q336,53 277.5,19.5T159-14Q84-14 49.5,23.5T25,128L76,497H259Zm321,0L511,0H369l-2,134l-16,12l49,351H580ZM215,770L436,620l-59-75L143,655l72,115Z"/>
      <glyph unicode="&#xfa;" glyph-name="gid111" horiz-adv-x="603" d="M259,497L213,179q-3-23 5.5-31.5T244,139q29,0 57,15.5T372,205l30-81Q336,53 277.5,19.5T159-14Q84-14 49.5,23.5T25,128L76,497H259Zm321,0L511,0H369l-2,134l-16,12l49,351H580ZM488,774l60-127L296,545l-43,75L488,774Z"/>
      <glyph unicode="&#xfb;" glyph-name="gid112" horiz-adv-x="603" d="M259,497L213,179q-3-23 5.5-31.5T244,139q29,0 57,15.5T372,205l30-81Q336,53 277.5,19.5T159-14Q84-14 49.5,23.5T25,128L76,497H259Zm321,0L511,0H369l-2,134l-16,12l49,351H580ZM412,743L541,605l-50-60L351,641h-8L182,545l-43,64L289,743H412Z"/>
      <glyph unicode="&#xfc;" glyph-name="gid113" horiz-adv-x="603" d="M259,497L213,179q-3-23 5.5-31.5T244,139q29,0 57,15.5T372,205l30-81Q336,53 277.5,19.5T159-14Q84-14 49.5,23.5T25,128L76,497H259Zm321,0L511,0H369l-2,134l-16,12l49,351H580ZM300,719q18,0 24-7.5t4-23.5l-10-71q-2-16-9.5-23T285,587H216q-32,0-28,30l10,70q3,17 11,24.5t26,7.5h65Zm185,0q16,0 23-7.5t5-23.5l-10-70q-3-17-10.5-24T469,587H400q-31,0-28,30l11,70q2,18 10.5,25t23.5,7h68Z"/>
      <glyph unicode="&#xfd;" glyph-name="gid119" horiz-adv-x="603" d="M605,497q-8-52-23-108T548,278T508.5,174t-39-87.5T437,25Q389-55 332-106.5T209-182T63-206L49-105q36,12 68.5,23.5T179-51T236,2t56,90q30,58 51.5,118t38,130T411,497H605Zm-374,0l24-368q1-16 17-16h57L288,0H163q-24,0-40.5,15T102,51L33,497H231ZM477,765l60-127L285,536l-43,75L477,765Z"/>
      <glyph unicode="&#xfe;" glyph-name="gid104" horiz-adv-x="606" d="M419,509q64,0 100-29.5T565.5,390T565,236q-9-71-28.5-119.5t-48-77T424-1.5T347-14Q273-14 205.5-3.5T100,30l20,72q39-1 73-1t76,0q29,0 47.5,5t30,18.5t19,39.5T378,233q7,49 8,78.5t-7.5,43T346,368q-29,0-52-16.5t-43-43T212,250l-26,75q12,44 44.5,86.5t81,70T419,509ZM290,700L273,577q-4-33-10.5-68.5T248,442l3-9L203,69l-9-16q-2-31-4.5-66.5T181-82L166-185H-15L108,700H290Z"/>
      <glyph unicode="&#xff;" glyph-name="gid120" horiz-adv-x="603" d="M605,497q-8-52-23-108T548,278T508.5,174t-39-87.5T437,25Q389-55 332-106.5T209-182T63-206L49-105q36,12 68.5,23.5T179-51T236,2t56,90q30,58 51.5,118t38,130T411,497H605Zm-374,0l24-368q1-16 17-16h57L288,0H163q-24,0-40.5,15T102,51L33,497H231Zm58,213q18,0 24-7.5t4-23.5l-10-71q-2-16-9.5-23T274,578H205q-32,0-28,30l10,70q3,17 11,24.5t26,7.5h65Zm185,0q16,0 23-7.5t5-23.5l-10-70q-3-17-10.5-24T458,578H389q-31,0-28,30l11,70q2,18 10.5,25t23.5,7h68Z"/>
      <glyph unicode="&#x2013;" glyph-name="gid208" horiz-adv-x="545" d="M497,311L481,201H39L55,311H497Z"/>
      <glyph unicode="&#x2014;" glyph-name="gid209" horiz-adv-x="839" d="M790,311L774,201H39L55,311H790Z"/>
      <glyph unicode="&#x2018;" glyph-name="gid221" horiz-adv-x="221" d="M117,417q-30,0-42.5,13.5T66,477l8,58q4,31 14.5,64T114,662.5T147,716l67-26q-12-30-20.5-60T177,568q26,1 35-12t5-38l-6-45q-5-33-19.5-44.5T147,417H117Z"/>
      <glyph unicode="&#x2019;" glyph-name="gid222" horiz-adv-x="220" d="M178,704q30,0 42.5-14t8.5-47l-8-58q-4-30-15-63t-25.5-64T148,405L81,430q12,31 20.5,61T118,552q-26-1-35,12t-6,39l7,45q4,32 19,44t45,12h30Z"/>
      <glyph unicode="&#x201a;" glyph-name="gid217" horiz-adv-x="231" d="M108,143q31,0 43.5-13.5T159,83l-8-59q-4-30-14.5-63T111-102.5T78-156L11-130q13,30 21,60T48-8Q23-9 13.5,3.5T8,42l6,45q5,33 19.5,44.5T79,143h29Z"/>
      <glyph unicode="&#x201c;" glyph-name="gid219" horiz-adv-x="409" d="M117,417q-30,0-42.5,13.5T66,477l8,58q4,31 14.5,64T114,662.5T147,716l67-26q-12-30-20.5-60T177,568q26,1 35-12t5-38l-6-45q-5-33-19.5-44.5T147,417H117Zm188,0q-30,0-42.5,13.5T254,477l8,58q4,31 15,64t26,63.5T335,716l67-26q-12-30-20.5-60T365,568q26,1 35-12t6-38l-7-45q-4-33-19-44.5T335,417H305Z"/>
      <glyph unicode="&#x201d;" glyph-name="gid220" horiz-adv-x="408" d="M366,704q30,0 42.5-14t8.5-47l-8-58q-4-30-14.5-63T369,458t-33-53l-67,25q13,31 21.5,61T306,552q-25-1-34.5,12T266,603l6,45q5,32 19.5,44T336,704h30Zm-188,0q30,0 42.5-14t8.5-47l-8-58q-4-30-15-63t-25.5-64T148,405L81,430q12,31 20.5,61T118,552q-26-1-35,12t-6,39l7,45q4,32 19,44t45,12h30Z"/>
      <glyph unicode="&#x201e;" glyph-name="gid218" horiz-adv-x="419" d="M297,143q30,0 42.5-13.5T348,83l-8-59q-4-30-15-63t-26-63.5T267-156l-67,26q12,30 20.5,60T237-8q-26-2-35,11t-6,39l7,45q4,32 19,44t45,12h30Zm-189,0q31,0 43-13.5T159,83l-8-59q-4-30-14.5-63T111-102.5T78-156L12-130q12,30 20.5,60T48-8Q23-10 13.5,3T8,42l6,45q5,32 19.5,44T79,143h29Z"/>
      <glyph unicode="&#x2022;" glyph-name="gid200" horiz-adv-x="375" d="M211,392q62,0 84.5-26.5T310,275l-3-16q-6-45-19-70.5T250.5,153T183,143H160q-64,0-87,27.5T59,267l3,16q6,42 18.5,66t39,33.5T190,392h21Z"/>
      <glyph unicode="&#x2039;" glyph-name="gid225" horiz-adv-x="315" d="M193,468l95-62L185,251L258,90L163,28L22,231l3,39L193,468Z"/>
      <glyph unicode="&#x203a;" glyph-name="gid226" horiz-adv-x="314" d="M139,468L279,265l-2-39L109,28L14,90L117,245L44,406l95,62Z"/>
    </font>
</defs>
</svg>
