<?xml version="1.0" standalone="no"?>
<!DOCTYPE svg PUBLIC "-//W3C//DTD SVG 1.1//EN" "http://www.w3.org/Graphics/SVG/1.1/DTD/svg11.dtd">
<svg xmlns="http://www.w3.org/2000/svg">
  <defs>
    <font id="Exo2" horiz-adv-x="543">
      <font-face font-family="Exo 2 Black" units-per-em="1000" panose-1="0 0 0 0 0 0 0 0 0 0" ascent="999" descent="-201" alphabetic="0"/>
      <glyph unicode=" " glyph-name="gid185" horiz-adv-x="210"/>
      <glyph unicode="!" glyph-name="gid195" horiz-adv-x="329" d="M268,695V461L246,227H82L60,461V695H268ZM188,185q41,0 56.5-15.5T260,113V72q0-41-15.5-56.5T188,0H141Q100,0 84.5,15.5T69,72v41q0,41 15.5,56.5T141,185h47Z"/>
      <glyph unicode="&quot;" glyph-name="gid227" horiz-adv-x="393" d="M358,690L346,462H226L214,690H358Zm-179,0L167,462H47L35,690H179Z"/>
      <glyph unicode="#" glyph-name="gid202" horiz-adv-x="740" d="M383,690L263,0H108L228,690H383Zm251,0L514,0H359L479,690H634Zm85-164L695,404H64L88,526H719ZM677,304L653,182H22L46,304H677Z"/>
      <glyph unicode="$" glyph-name="gid243" horiz-adv-x="595" d="M309,704q53,0 118.5-6.5T553,669L540,530q-43,1-108,1.5T303,532q-18,0-29.5-1T255,527t-9.5-8T243,506q0-14 12-23.5T303,459l119-52q83-37 116.5-85.5T572,197q0-58-13.5-98.5t-45-65t-84-36T298-14q-34,0-103,5.5T37,20L50,172q57-1 106-2.5t85-2t53-0.5q26,0 40,2t19.5,7.5T359,191q0,10-4,16.5T341,220t-29,13L181,293q-81,38-115,85T32,501q0,59 14.5,98T94,661t86,33t129,10ZM263,362h52L269-110H216l47,472ZM392,789L339,362H285l53,427h54Z"/>
      <glyph unicode="%" glyph-name="gid264" horiz-adv-x="921" d="M203,704q68,0 108-18.5t57.5-63T386,498q0-79-17.5-124T311,310.5T203,292q-67,0-106.5,18.5T39.5,374T22,498q0,80 17.5,124.5t57,63T203,704Zm0-109q-12,0-18-5t-8-25.5T175,498t2-66.5t8-25.5t18-5q13,0 19,5t8.5,25.5T233,498t-2.5,66.5T222,590t-19,5Zm510,95L333,0H207L587,690H713Zm4-292q68,0 108-18.5t57.5-63T900,192q0-79-17.5-124T825,4.5T717-14Q650-14 610.5,4.5T553.5,68T536,192q0,80 17.5,124.5t57,63T717,398Zm0-109q-12,0-18-5t-8-25t-2-67q0-46 2-66.5t8-25.5t18-5q13,0 19,5t8.5,25.5T747,192q0,47-2.5,67T736,284t-19,5Z"/>
      <glyph unicode="&amp;" glyph-name="gid230" horiz-adv-x="761" d="M335,704q32,0 76.5-2T501,690L476,550q-15,0-31,0.5t-33.5,1t-37.5,1T329,553q-22,0-33.5-5t-16-19.5T275,486q0-26 4.5-41t16-20.5T329,419H723V288H317q-23,0-34.5-5.5t-15-19.5T264,221q0-29 3.5-44.5t15-21T317,150q31,1 72.5,7T457,170L472,60q-27-25-56.5-41.5T347-6t-96-8Q175-14 127,4.5t-70,60T35,176q0,79 30.5,125.5T172,355v6q-62,6-88.5,44.5T57,520q0,61 15,97.5t48,55t86,25T335,704ZM636,508V182q0-19 7.5-27.5T669,146h50L742,12Q723,3 695-2.5T639-11t-47-3q-72,0-112.5,37T439,126V358l19,150H636Z"/>
      <glyph unicode="&apos;" glyph-name="gid228" horiz-adv-x="214" d="M179,690L167,462H47L35,690H179Z"/>
      <glyph unicode="(" glyph-name="gid211" horiz-adv-x="372" d="M342,790l24-88q-78-31-108-133.5T228,313q0-100 13-179.5T284,0t82-77l-24-88Q178-122 101.5-6T25,312q0,204 76.5,320T342,790Z"/>
      <glyph unicode=")" glyph-name="gid212" horiz-adv-x="372" d="M30,790q164-42 240.5-158T347,312q0-202-76.5-318T30-165L6-77Q58-54 88,0t43,133.5T144,313q0,153-30,255.5T6,702l24,88Z"/>
      <glyph unicode="*" glyph-name="gid201" horiz-adv-x="456" d="M284,692L268,517L381,388l-89-66L228,441L165,322L75,388L190,516L172,692H284ZM57,622l113-51V522l-25-30L23,516L57,622Zm342,1l34-107L313,492l-25,30l-2,49l113,52Z"/>
      <glyph unicode="+" glyph-name="gid252" horiz-adv-x="523" d="M497,381V226H26V381H497ZM338,539V68H185V539H338Z"/>
      <glyph unicode="," glyph-name="gid191" horiz-adv-x="255" d="M147,185q40,0 55.5-15.5T219,113V49q0-50-8-86.5t-23-66T152-162L74-137q11,34 14.5,68.5T93,0Q34,0 32,64l3,49q1,41 16,56.5T106,185h41Z"/>
      <glyph unicode="-" glyph-name="gid207" horiz-adv-x="379" d="M335,318V196H44V318H335Z"/>
      <glyph unicode="." glyph-name="gid190" horiz-adv-x="259" d="M153,185q41,0 56.5-15.5T225,113V72q0-40-15.5-56T153,0H106Q65,0 49.5,16T34,72v41q0,41 15.5,56.5T106,185h47Z"/>
      <glyph unicode="/" glyph-name="gid203" horiz-adv-x="588" d="M573,690L180-79H15L408,690H573Z"/>
      <glyph unicode="0" glyph-name="gid131" horiz-adv-x="658" d="M328,704q110,0 175-32.5t93-111T624,345T596,129.5t-93-111T328-14Q219-14 154.5,18.5T62,129.5T34,345T62,560.5t92.5,111T328,704Zm-1-161q-24,0-39-6.5t-23.5-26t-12-59T249,345t3.5-106.5t12-59t23.5-26t39-6.5q25,0 41,6.5t25,26t12.5,59T409,345t-3.5,106.5t-12.5,59t-25,26T327,543Z"/>
      <glyph unicode="1" glyph-name="gid132" horiz-adv-x="466" d="M394,690V0H178V432q0,23 1.5,45t6.5,44L27,490L2,623l176,67H394Z"/>
      <glyph unicode="2" glyph-name="gid133" horiz-adv-x="600" d="M297,702q77,0 134-14t89-51.5T552,530q0-36-7-65t-29.5-61T447,326L284,172q23,7 45,9t47,1H568V0H33V108q0,26 7,47t23,40L207,336q56,56 89.5,99.5T330,502q0,10-6,14t-19,5.5T269,523q-37,0-69,0t-68.5-0.5T46,521L39,680q52,10 95.5,14.5t83.5,6t79,1.5Z"/>
      <glyph unicode="3" glyph-name="gid134" horiz-adv-x="578" d="M285,704q89,0 141.5-14.5T502,640t23-97q0-51-9-87.5t-33.5-58T411,369v-4q75-11 103-51.5T543,192q1-74-24-119.5t-81.5-66T286-14q-64,0-130.5,5.5T28,5l6,152q47-2 78.5-3t58-1.5T226,152q41,0 63.5,4.5t31,19.5t8.5,46q0,27-6,42t-22.5,21.5T252,291l-133-2V421H252q25,0 39,4t21,11.5t9,19.5t2,27q0,23-6.5,35t-23,16.5T246,539q-55,0-106.5,0T49,539L43,685q61,10 122,14.5T285,704Z"/>
      <glyph unicode="4" glyph-name="gid135" horiz-adv-x="659" d="M382,690L242,303q-4-11 1-18t16-7H642V160l-77-20H89q-28,0-48.5,14.5T12.5,193T15,243L182,690H382ZM563,554V0H366V448l35,106H563Z"/>
      <glyph unicode="5" glyph-name="gid136" horiz-adv-x="568" d="M520,690l-7-155H229l-6-72l128-17q59-7 96-29.5T504.5,361T533,290.5t8-75.5q0-48-13-89.5T485,53T405,5T280-12q-55,0-121,5T24,6L42,167q51-2 97.5-4t83.5-2q40,0 61.5,6T315,186.5T326,223q2,18-3,30t-16,20t-29,12t-44,6L108,307q-27,4-43.5,23T49,375L68,690H520Z"/>
      <glyph unicode="6" glyph-name="gid137" horiz-adv-x="608" d="M347,702q29,0 81-2.5T536,680l-8-129q-30,0-55,0t-54,0t-72,0q-37,0-58.5-8T257,512t-12.5-67.5T242,327q0-63 2-100.5t9-56.5t21.5-25t40.5-6q32,0 46,9.5T378,180t3,61q0,32-5.5,47.5t-20,20.5T312,314q-23,0-41.5-6T228,289t-65-36l-4,72q34,52 64,80.5T289.5,445T377,456q81,0 125.5-22T565,366t18-120q0-69-11.5-118t-41-80t-82-45.5T313-12Q235-12 181.5,3.5T96,57T49.5,164T35,339q0,118 19.5,190T113,638.5T210.5,689T347,702Z"/>
      <glyph unicode="7" glyph-name="gid138" horiz-adv-x="543" d="M457,690q29,0 50-14t29-37t-2-50L327,0H116L275,438q7,20 15.5,40T313,517H23L14,690H457Z"/>
      <glyph unicode="8" glyph-name="gid139" horiz-adv-x="639" d="M320,704q83,0 135-11t80.5-33.5t39-57.5T585,518q0-35-11-70t-34.5-59.5T477,360v-4q52-4 79-31.5t37-68T603,172q0-69-23-110T495.5,3.5T320-14Q208-14 146.5,3.5T61,62T37,172q0,44 10,84.5t37,68T163,356v4q-38,4-62,28.5T66,448T55,518q0,49 11,84t39.5,57.5T186,693t134,11Zm2-412q-25,0-41.5-3.5t-25-12t-12-24T240,212q0-31 6.5-47t24-22t50.5-6q32,0 49,6t23,22t6,47q0,25-3.5,40.5t-11.5,24t-23,12T322,292Zm-1,272q-29,0-44.5-5.5T255,537t-6-48q0-27 6-41t22.5-19t45.5-5t43.5,5T386,448t5,41q0,32-5.5,48T365,558.5T321,564Z"/>
      <glyph unicode="9" glyph-name="gid140" horiz-adv-x="608" d="M296,702q84,0 138-15.5T518,633t42-106.5T572,351q0-118-17-190T501.5,51.5T405.5,1T260-12q-31,0-86,3T55,10l9,130q33,0 59-0.5t57.5-0.5t79.5,0q38,0 59.5,10.5t31,36t12,69T365,364q0,62-2,99.5T354.5,520t-21,25T294,551q-30,0-43.5-9t-17-31.5T230,449q0-31 5.5-47T255,381t41-5q23,0 41,6t42,19.5T443,437l4-72q-34-52-64-80.5T317.5,245T230,234q-79,0-123,26T45,333.5T27,444q0,92 22.5,148.5t81,83T296,702Z"/>
      <glyph unicode=":" glyph-name="gid192" horiz-adv-x="277" d="M154,462q41,0 56.5-15.5T226,390V349q0-40-15.5-56T154,277H107q-41,0-56.5,16T35,349v41q0,41 15.5,56.5T107,462h47Zm0-276q41,0 56.5-15.5T226,114V73q0-40-15.5-56T154,1H107Q66,1 50.5,17T35,73v41q0,41 15.5,56.5T107,186h47Z"/>
      <glyph unicode=";" glyph-name="gid193" horiz-adv-x="277" d="M163,462q41,0 56.5-15.5T235,390V349q0-40-15.5-56T163,277H116q-41,0-56.5,16T44,349v41q0,41 15.5,56.5T116,462h47Zm-6-277q40,0 55.5-15.5T229,113V49q0-50-8-86.5t-23-66T162-162L84-137q11,34 14.5,68.5T103,0Q44,0 42,64l3,49q1,41 16,56.5T116,185h41Z"/>
      <glyph unicode="&lt;" glyph-name="gid258" horiz-adv-x="505" d="M461,541V378L202,303l259-75V65L26,223V384L461,541Z"/>
      <glyph unicode="=" glyph-name="gid256" horiz-adv-x="571" d="M526,483V337H45V483H526Zm0-216V121H45V267H526Z"/>
      <glyph unicode="&gt;" glyph-name="gid257" horiz-adv-x="502" d="M44,541L476,384V223L44,65V228l256,75L44,378V541Z"/>
      <glyph unicode="?" glyph-name="gid197" horiz-adv-x="536" d="M288,712q116,0 171.5-37.5T515,557q0-43-16.5-74.5T457,425t-51.5-53T359,310.5T333,227H169q-3,50 7.5,89T205,385.5t37,54T275,481t17,32q5,19-8,26t-48,7q-51,0-84,0t-60.5,0T29,546L24,684q31,6 56.5,11t53.5,9t64.5,6t89.5,2ZM274,185q41,0 56.5-15.5T346,113V72q0-41-15.5-56.5T274,0H227q-41,0-56.5,15.5T155,72v41q0,41 15.5,56.5T227,185h47Z"/>
      <glyph unicode="@" glyph-name="gid229" horiz-adv-x="801" d="M561,617q96,0 147-41t51-148V138H606l-16,63q-15-19-37-36.5T501.5,136T434,125q-41,0-76.5,14.5t-57,43T279,253v45q0,55 39.5,86.5T426,416H567v13q0,24-10.5,34.5T517,474H399q-57,0-90.5-4T258,448t-22.5-60T230,270q0-64 4-103.5T250.5,106t37-29.5T352,67t99-1H760V-62q-76-7-154-12T451-79q-111,0-185.5,7.5t-120,28T77,15.5t-30.5,101T39,270t6.5,152.5t27,100t60,59t104.5,28T399,617H561Zm6-288l-69-5q-16-1-25-8.5T464,296V282q0-12 9.5-20t27.5-8q10,0 21.5,2.5t23,7.5T567,275v54Z"/>
      <glyph unicode="A" glyph-name="gid1" horiz-adv-x="683" d="M440,690q26,0 46-15t27-41L692,0H471L367,449q-4,19-7,39.5T355,528H328q-2-19-5-39.5T316,449L212,0H-9L170,634q7,26 27,41t46,15H440Zm85-389V149H158V301H525Z"/>
      <glyph unicode="B" glyph-name="gid10" horiz-adv-x="660" d="M350,698q96,0 153-15.5T585,628t25-110q0-74-29-112.5T484,361v-6q83-7 116-53.5T633,172q0-71-26.5-110T525,7.5T383-8Q309-8 252.5-7.5T148.5-5T52,0L68,142q26-1 101-2t175-1q30,0 46,6t21.5,23t5.5,48q0,32-6,49t-21.5,23T343,294H67V421H341q25,0 38.5,5T398,445.5t5,41.5t-5,40.5T379,546t-40,5q-63,0-110,0.5t-85,0T68,548L52,690q45,4 88,5.5t93.5,2T350,698Zm-86-8V0H52V690H264Z"/>
      <glyph unicode="C" glyph-name="gid11" horiz-adv-x="605" d="M345,702q54,0 92-3t69.5-8.5T572,675L556,517q-35,1-65,1t-64,0.5T345,519q-34,0-52.5-14.5t-25.5-52T260,345t7-107.5t25.5-52T345,171q75,0 125.5,1.5T571,179L587,21Q535,3 480.5-4.5T345-12Q231-12 162,22.5T62.5,135T32,345T62.5,555T162,667.5T345,702Z"/>
      <glyph unicode="D" glyph-name="gid13" horiz-adv-x="701" d="M347,700q89,0 150.5-16.5t99.5-56T652,519t17-174T652,171T597,62.5t-99.5-56T347-10q-86,0-158,3T52,0l88,154q35-4 88.5-5.5T347,147q37,0 57,16t28,59t8,123t-8,123t-28,59t-57,16q-61,0-107.5,0T149,544L52,690q66,4 136.5,7T347,700Zm-78-10V0H52V690H269Z"/>
      <glyph unicode="E" glyph-name="gid15" horiz-adv-x="596" d="M209,694q60,0 123.5-0.5t124.5-3T568,681L558,528H305q-19,0-30-10t-11-26V198q0-16 11-26t30-10H558L568,9Q518,3 457,0T332.5-3.5T209-4Q138-4 92.5,39.5T47,153V537q0,70 45.5,113.5T209,694ZM65,425H522V281H65V425Z"/>
      <glyph unicode="F" glyph-name="gid20" horiz-adv-x="574" d="M214,694q58,0 120-0.5T455,690t106-10L551,528H310q-20,0-31.5-10T267,492V0H50V537q0,70 46,113.5T214,694ZM68,411H514V267H68V411Z"/>
      <glyph unicode="G" glyph-name="gid21" horiz-adv-x="668" d="M357,704q55,0 96.5-3t77-9T602,675L586,519q-38,1-72.5,1T442,520.5T358,521q-29,0-48-7.5t-30-27t-15.5-54T260,345q0-70 8-107.5t27-52T348,171q22,0 40.5,1.5T422,177t24,5l21-91q-12-20-39.5-45T358,3.5T261-14q-79,0-130,35.5T56,136T32,345q0,133 31.5,211.5t103,113T357,704ZM631,397V0H471L443,107l-20,37V397H631Z"/>
      <glyph unicode="H" glyph-name="gid22" horiz-adv-x="714" d="M270,690V0H53V690H270ZM455,442V290H262V442H455ZM661,690V0H444V690H661Z"/>
      <glyph unicode="I" glyph-name="gid23" horiz-adv-x="321" d="M268,690V0H53V690H268Z"/>
      <glyph unicode="J" glyph-name="gid28" horiz-adv-x="404" d="M354,690V127q0-67-49-104T171-14q-22,0-53.5,3t-61,8.5T10,12L33,148H80q59,0 59,35V690H354Z"/>
      <glyph unicode="K" glyph-name="gid29" horiz-adv-x="676" d="M675,690L516,420q-13-23-30-39t-31-22v-4q14-6 35.5-25.5T524,287L685,0H444L261,361L442,690H675Zm-405,0V516q0-38-7.5-78.5T239,362q12-32 21.5-69.5T270,225V0H53V690H270Zm54-262V288H208V428H324Z"/>
      <glyph unicode="L" glyph-name="gid30" horiz-adv-x="557" d="M267,690V208q0-16 11.5-26T309,172H541L551,10Q474,0 386.5-2T214-4Q139-4 94.5,39.5T50,153V690H267Z"/>
      <glyph unicode="M" glyph-name="gid31" horiz-adv-x="952" d="M812,690q73,0 76-75L912,0H717L696,528H681L613,176q-10-66-82-66H419q-71,0-83,66L267,528H252L235,0H40L64,615q3,75 76,75H327q70,0 82-67l50-274q4-25 6.5-51t4.5-52h9q3,26 5.5,52t6.5,51l47,274q12,67 83,67H812Z"/>
      <glyph unicode="N" glyph-name="gid32" horiz-adv-x="738" d="M687,690V75q0-75-75-75H529q-34,0-50.5,16T445,63L295,300q-14,26-25.5,56.5T249,418h-7q5-31 7.5-63.5T252,292V0H52V615q0,75 75,75h83q34,0 50-16t34-47L438,401q14-25 27.5-55T491,283h7q-4,32-6.5,63T489,408l-1,282H687Z"/>
      <glyph unicode="O" glyph-name="gid34" horiz-adv-x="707" d="M353,704q89,0 150.5-16.5T603,631t55-109.5T675,345q0-106-17-176T603,59T503.5,2.5T353-14Q265-14 203.5,2.5T104,59T49,169T32,345q0,107 17,176.5T104,631t99.5,56.5T353,704Zm0-161q-37,0-57-16t-28-59t-8-123t8-123t28-59t57-16t57,16t28,59t8,123t-8,123t-28,59t-57,16Z"/>
      <glyph unicode="P" glyph-name="gid42" horiz-adv-x="646" d="M344,700q110,0 172-20.5T604,608t26-143q0-91-24.5-141.5t-80.5-71T374,232q-50,0-100,5.5t-93.5,14t-74.5,18T63,287l3,98q65,0 135,0t138,0q30,0 46,6.5t22,24t6,49.5q0,33-6,51t-22,24.5T339,547q-102,0-174-1t-98-4L52,690q46,5 86.5,7t88.5,2.5T344,700Zm-75-10V0H52V690H269Z"/>
      <glyph unicode="Q" glyph-name="gid44" horiz-adv-x="707" d="M353,704q89,0 150.5-16.5T603,631t55-109.5T675,345q0-106-17-176T603,59T503.5,2.5T353-14Q265-14 203.5,2.5T104,59T49,169T32,345q0,107 17,176.5T104,631t99.5,56.5T353,704ZM294-26q75-28 154.5-44T623-100L570-275q-102,29-182.5,66.5T248-129L294-26Zm59,569q-37,0-57-16t-28-59t-8-123t8-123t28-59t57-16t57,16t28,59t8,123t-8,123t-28,59t-57,16Z"/>
      <glyph unicode="R" glyph-name="gid45" horiz-adv-x="676" d="M345,700q102,0 166-19t94.5-64.5T636,490q0-41-12.5-76.5t-43-58.5T496,326v-6q19-2 42-11.5t43-32T609,212L663,0H436L391,205q-6,29-18.5,38T332,252q-75,1-122.5,1T129,254t-66,3l3,148H340q31,0 48,6t23.5,21.5T418,476q0,29-6.5,44T388,541t-48,6q-104,0-175-1t-97-4L52,690q46,5 86.5,7t89,2.5T345,700Zm-80-10V0H52V690H265Z"/>
      <glyph unicode="S" glyph-name="gid46" horiz-adv-x="610" d="M314,704q54,0 121.5-6.5T565,669L552,530q-45,1-111.5,1.5T309,532q-19,0-31.5-1T258,527t-10-8t-3-13q0-14 12.5-23.5T305,459l125-52q86-37 120.5-85.5T585,197q0-58-14-98.5t-46.5-65T438-2.5T303-14q-35,0-106,5.5T36,20L49,172q60-1 110-2.5t86.5-2T300,167q28,0 42.5,2t20,7.5T368,191q0,10-4,16.5T350,220t-29,13L184,293q-84,38-119,85T30,501q0,59 15.5,98T94,661t87.5,33T314,704Z"/>
      <glyph unicode="T" glyph-name="gid47" horiz-adv-x="623" d="M420,690V0H203V690H420Zm193,0V528H10V690H613Z"/>
      <glyph unicode="U" glyph-name="gid48" horiz-adv-x="705" d="M658,690V285q0-110-28.5-175.5T536.5,15T364-14Q247-14 177.5,15t-100,94.5T47,285V690H264V285q0-55 7.5-85t27-41.5T353,147t54,11.5T433.5,200t7.5,85V690H658Z"/>
      <glyph unicode="V" glyph-name="gid53" horiz-adv-x="670" d="M672,690L504,58q-6-26-26-42T430,0H240q-28,0-48,16T166,58L-2,690H221l89-449q4-19 7-39.5t6-39.5h24q2,19 5.5,39.5T360,241l89,449H672Z"/>
      <glyph unicode="W" glyph-name="gid54" horiz-adv-x="1003" d="M983,690L897,58q-4-26-25-42T823,0H639q-28,0-49.5,16T565,58L518,439q-3,25-4.5,50.5T510,540H493q-1-25-3-51t-5-51L439,58q-3-26-24.5-42T365,0H180q-28,0-49,16T106,58L20,690H234l35-423q2-25 3-53.5t1-61.5h16q4,26 8.5,57.5T305,268l46,358q3,29 23.5,46.5T424,690H579q29,0 49-17.5T652,626l47-360q3-27 7-57t8-57h16q0,28 2,58t3,55l34,425H983Z"/>
      <glyph unicode="X" glyph-name="gid55" horiz-adv-x="677" d="M668,690L511,352L682,0H467L311,352L454,690H668Zm-445,0L366,352L210,0H-5L166,352L9,690H223ZM434,414V294H226V414H434Z"/>
      <glyph unicode="Y" glyph-name="gid56" horiz-adv-x="654" d="M664,690L431,205H223L-10,690H213l87-217q9-22 13-48t8-49h13q4,23 8.5,49.5T355,474l86,216H664ZM436,328V0H219V328H436Z"/>
      <glyph unicode="Z" glyph-name="gid58" horiz-adv-x="605" d="M328,539l239-1L268,151L29,152L328,539ZM577,152V0H29V152H577ZM567,690V538H39V690H567Z"/>
      <glyph unicode="[" glyph-name="gid215" horiz-adv-x="363" d="M339,768V640H279q-22,0-22-22V-15q0-22 22-22h60V-165H162q-45,0-73,20.5T61-64V667q0,45 28,73t73,28H339Z"/>
      <glyph unicode="\" glyph-name="gid204" horiz-adv-x="588" d="M180,690L573-79H408L15,690H180Z"/>
      <glyph unicode="]" glyph-name="gid216" horiz-adv-x="363" d="M201,768q45,0 73-28t28-73V-64q0-45-28-73t-73-28H24V-37H84q22,0 22,22V618q0,22-22,22H24V768H201Z"/>
      <glyph unicode="^" glyph-name="gid262" horiz-adv-x="497" d="M326,653L467,414l-81-42L254,529h-8L110,372L30,414L174,653H326Z"/>
      <glyph unicode="_" glyph-name="gid210" horiz-adv-x="451" d="M451,0V-122H0V0H451Z"/>
      <glyph unicode="`" glyph-name="gid274" horiz-adv-x="392" d="M119,767L352,617l-57-86L40,634l79,133Z"/>
      <glyph unicode="a" glyph-name="gid60" horiz-adv-x="590" d="M333,514q71,0 119.5-18.5t74-63T552,310V0H385L356,107l-14,20V311q-1,26-13.5,38T283,361q-39,0-95.5-1T67,356L48,489q38,7 90.5,12.5t104.5,9t90,3.5ZM471,307l-1-101H263q-19,0-28.5-8.5T225,175V159q0-13 10.5-22t31.5-9q24,0 50,11.5T367,169t41,37V142q-7-17-22-43T345.5,47t-63-43.5T193-14q-46,0-85.5,16t-63,47.5T21,128v50q0,60 44.5,94.5T186,307H471Z"/>
      <glyph unicode="b" glyph-name="gid68" horiz-adv-x="618" d="M402,514q105,0 147-60.5T591,256q0-51-10.5-98.5T542,71.5t-81-61T322-12q-27,0-66,2.5T176-2T99.5,11T42,30L210,143q10-4 30-8t42-5.5t36-0.5q22,2 34,12t17.5,36.5T375,255q0,43-5,64.5T351.5,349T314,357q-26,0-44-6.5T232,336l-15,82q21,24 49.5,46t63,36T402,514ZM252,700l2-139q1-36-4.5-73.5T231,418l21-12V20L42,30V700H252Z"/>
      <glyph unicode="c" glyph-name="gid69" horiz-adv-x="528" d="M294,514q31,0 68-3t74-11t67-23L482,347q-48,0-84,0t-68,0t-50.5-8t-26-28.5T246,251t7.5-60t26-29t50.5-8q17,0 42.5,0.5t56.5,2t62,4.5L510,30Q466,7 408-2.5T292-12q-98,0-156.5,25.5T51.5,97T26,251q0,97 26,154.5t85,83T294,514Z"/>
      <glyph unicode="d" glyph-name="gid71" horiz-adv-x="620" d="M218,514q57,0 106.5-17T405,438l-15-82q-20,6-38.5,13.5T302,377q-21,0-33.5-7.5T250,337t-6-79q0-46 5.5-67.5t18-28T299,156q22,0 37,3.5t26.5,9.5T387,182l13-86q-20-46-65.5-77T209-12Q111-12 69.5,58.5T28,256q0,103 21.5,158.5t64,77.5T218,514ZM577,700V0H410L390,96l-23,16V426l6,12q-2,32-4,69.5T367,581V700H577Z"/>
      <glyph unicode="e" glyph-name="gid73" horiz-adv-x="590" d="M309,514q141,0 200-45t60-133q1-70-41.5-101T375,204H106v99H316q34,0 43,6.5t9,31.5q0,24-12,31t-41,7q-29,1-44-6t-20.5-30.5T245,269q0-46 6.5-72T277,160t56-11q30,0 84.5,2T536,160L555,34Q520,16 480,6T397.5-8T310-12Q206-12 143,17T52.5,103.5T25,246q0,99 28,157.5T143.5,488T309,514Z"/>
      <glyph unicode="f" glyph-name="gid78" horiz-adv-x="427" d="M276,724q20,0 53.5-1.5t69-4.5t60.5-8L439,584H351q-28,0-38-11.5T303,532V0H92V561q0,47 17.5,84t58,58T276,724ZM422,500V374H8V495l85,5H422Z"/>
      <glyph unicode="g" glyph-name="gid79" horiz-adv-x="604" d="M288,514q94,0 150-15.5t81-50T544,356t-24.5-92.5t-81-50T287,198q-94,0-151,15.5t-82,50T29,356t25.5,92.5t82.5,50T288,514Zm-1-115q-37,0-50-8.5T224,356t13-35t50-9t49.5,9T349,356t-12.5,34.5T287,399ZM601,500l-10-77L451,399L414,500H601ZM128,226l97-17q-11-2-16-14.5t2-24.5t30-14l182-12q86-6 123-44.5T583-13q0-71-30-107t-93.5-48.5T294-181q-90,0-146,8T61-148.5T18.5-105T7-39Q7-8 19.5,15.5T65,57.5T159,90l86,19l68-26L281,66q-30-21-47-31.5t-24-18T203-7q0-13 7.5-20t27-9.5T291-39q38,0 59,2t29,8t8,17q0,13-8,18.5t-25.5,8T309,19L173,29q-45,4-71,22.5t-35.5,45t-5,53.5t22,48T128,226Z"/>
      <glyph unicode="h" glyph-name="gid80" horiz-adv-x="621" d="M433,514q148,0 148-140V0H371V307q0,17-8,23.5T335,337q-19,0-42.5-3T231,318l-22,91q53,53 111.5,79T433,514ZM253,700l1-149q0-45-6.5-86.5T233,398l20-12V0H43V700H253Z"/>
      <glyph unicode="i" glyph-name="gid81" horiz-adv-x="303" d="M256,500V0H47V500H256ZM196,729q61,0 61-62V616q0-62-61-62H107q-61,0-61,62v51q0,62 61,62h89Z"/>
      <glyph unicode="j" glyph-name="gid88" horiz-adv-x="304" d="M257,500V58q0-52-19.5-101T182-130.5T95-190L-21-98Q19-58 33.5-21.5T48,58V500H257ZM194,739q61,0 61-62V626q0-62-61-62H105q-61,0-61,62v51q0,62 61,62h89Z"/>
      <glyph unicode="k" glyph-name="gid90" horiz-adv-x="609" d="M599,500L494,336q-11-20-29-36.5T436,276v-4q11-6 29-26t29-41L618,0H387L241,277L369,500H599ZM253,700V432q0-38-5-78t-16-75q8-32 14.5-69.5T253,143V0H43V700H253Zm55-366V216H191V334H308Z"/>
      <glyph unicode="l" glyph-name="gid91" horiz-adv-x="358" d="M253,700V182q0-19 12.5-27.5T303,146h34L360,12Q345,3 317.5-2.5t-56-8.5T213-14Q134-14 89,23T44,126V700H253Z"/>
      <glyph unicode="m" glyph-name="gid92" horiz-adv-x="885" d="M701,514q71,0 107.5-35.5T845,374V0H636V307q0,17-7,23.5T603,337q-9,0-18.5-1t-23-5T527,318L516,421q44,47 86.5,70T701,514ZM207,500l25-102l20-12V0H43V500H207Zm197,14q69,0 105-35.5T545,374V0H343V307q0,17-8,23.5T309,337q-9,0-19-1t-24-5t-36-13L219,421q44,47 86,70t99,23Z"/>
      <glyph unicode="n" glyph-name="gid93" horiz-adv-x="621" d="M433,514q148,0 148-140V0H371V307q0,17-8,23.5T335,337q-19,0-42.5-3T231,318L221,421q50,47 105,70t107,23ZM208,500l26-102l19-12V0H43V500H208Z"/>
      <glyph unicode="o" glyph-name="gid95" horiz-adv-x="611" d="M306,514q102,0 163.5-25.5T558,405t27-156q0-96-27-153T469.5,13.5T306-12T142.5,13.5T53.5,96T26,249q0,98 27.5,156t89,83.5T306,514Zm0-142q-24,0-37-9.5T251,327t-5-78q0-50 5-75.5T269,139t37-9t37,9t17.5,34.5T365,249q0,52-4.5,78T343,362.5T306,372Z"/>
      <glyph unicode="p" glyph-name="gid103" horiz-adv-x="620" d="M412,512q98,0 139-70t41-198q0-103-21.5-159T507,7.5T403-14Q346-14 296.5,3T217,62l14,82q20-7 38.5-14t49.5-7q21,0 33.5,7.5t18,33T376,242q0,54-5.5,79.5T353,354t-31,7q-26,0-41-5.5T250,342l-29,79q13,25 41.5,45.5t67.5,33T412,512ZM211,500l20-79l22-16V74l-6-12q3-32 5-70t1-73v-99H43V500H211Z"/>
      <glyph unicode="q" glyph-name="gid105" horiz-adv-x="618" d="M296,514q27,0 66-2.5t80-7.5t76.5-13T576,472L408,358q-9,5-29.5,9T336,372.5T300,373q-22-1-34.5-11.5t-17.5-37T243,247q0-58 12.5-75T303,155q27,0 46.5,7T389,176l15-73q-15-23-43-50T295.5,7T215-12Q111-12 69,56T27,246q0,58 10.5,107T76,438t81.5,56T296,514Zm70-32l210-10V-180H366V-50q-1,36 4.5,74T387,94l-21,12V482Z"/>
      <glyph unicode="r" glyph-name="gid106" horiz-adv-x="452" d="M207,500l26-102l20-12V0H43V500H207Zm243,14L432,322H379q-27,0-60.5-2.5T231,308L219,421q49,47 101,70t101,23h29Z"/>
      <glyph unicode="s" glyph-name="gid107" horiz-adv-x="553" d="M256,514q40,0 87.5-3t92.5-7.5T512,492L499,370q-50,0-100.5,0T302,370q-33,0-49-0.5T232,367t-5-9q0-8 11.5-11T286,334l115-29q67-19 99.5-52.5T533,154q0-63-24-99T431.5,4T291-11q-36,0-106.5,3.5T31,10L44,132q13,0 41.5,0t65,0t71.5,0q48,0 71,0.5t30,4t7,10.5q0,9-13,12.5T265,174L155,204q-55,16-83,39.5T34,298T24,368q0,46 21.5,78.5t72,50T256,514Z"/>
      <glyph unicode="t" glyph-name="gid109" horiz-adv-x="438" d="M305,631V182q0-19 10-27.5t33-8.5h53L424,12Q403,3 372-2.5T309.5-11T254-14q-73,0-116,37T95,126V631H305ZM426,500V374H10V495l96,5H426Z"/>
      <glyph unicode="u" glyph-name="gid110" horiz-adv-x="615" d="M250,500V193q0-16 9-23.5t28-7.5q20,0 41,3.5T383,182L395,79Q344,32 294,9T188-14Q40-14 40,126V500H250Zm322,0V0H407L381,102l-20,12V500H572Z"/>
      <glyph unicode="v" glyph-name="gid115" horiz-adv-x="601" d="M604,500L456,49q-7-22-24.5-35.5T390,0H211q-24,0-41.5,13.5T145,49L-3,500H219l61-276q5-23 8-47t6-47h13q3,23 7,47t8,47l60,276H604Z"/>
      <glyph unicode="w" glyph-name="gid116" horiz-adv-x="876" d="M868,500L766,53q-5-24-23.5-38.5T698,0H551q-28,0-48.5,17T479,62L450,289q-2,23-3,44.5T444,377H431q-1-22-3-43.5T424,289L395,62q-3-28-23.5-45T323,0H178q-25,0-44,14.5T110,53L8,500H216l36-281q2-22 4.5-44t3.5-45h12q2,23 4.5,45t4.5,44l28,220q3,27 23,44t48,17H495q28,0 48-17t23-45l27-219q2-22 5.5-44t4.5-45h12q2,23 4,45t5,44l35,281H868Z"/>
      <glyph unicode="x" glyph-name="gid117" horiz-adv-x="606" d="M598,500L464,255L609,0H401L268,255L391,500H598Zm-383,0L338,255L205,0H-3L142,255L8,500H215ZM407,316V198H201V316H407Z"/>
      <glyph unicode="y" glyph-name="gid118" horiz-adv-x="602" d="M604,500L445,14q-13-41-37.5-85t-64-78.5t-96.5-49T112-197L98-84q62,13 98.5,34.5T252,14l37,80q11,25 19.5,64T322,224l59,276H604Zm-384,0l59-276q4-23 7-47t6-47h30L257,0H211q-24,0-41.5,13.5T145,49L-3,500H220Z"/>
      <glyph unicode="z" glyph-name="gid121" horiz-adv-x="541" d="M262,366l244-1L273,134L29,135L262,366ZM512,135V0H29V135H512Zm-6,365V365H35V500H506Z"/>
      <glyph unicode="{" glyph-name="gid213" horiz-adv-x="359" d="M330,768V640q-36,0-49.5-4.5T267,602V477q1-42-8.5-73t-35-50T151,328q47-12 73-33t36.5-49T271,183V-2q0-29 13.5-32T334-37V-165q-93-15-151,1.5t-85,55T71-19V203q0,22-5,32T50.5,250.5T22,263V393q19,6 28.5,10.5t13,16T67,457V622q0,52 27,90t85,54.5T330,768Z"/>
      <glyph unicode="|" glyph-name="gid239" horiz-adv-x="276" d="M211,781V-169H65V781H211Z"/>
      <glyph unicode="}" glyph-name="gid214" horiz-adv-x="359" d="M29,768q93,15 151-1.5T265,712t27-90V457q0-26 3.5-37.5t13.5-16T337,393V263q-17-7-28-12.5T293,235t-5-32V-19q0-51-27-89.5t-85-55T25-165V-37q36,0 49.5,3T88-2V183q1,35 11,63t36,49t73,33q-47,7-72.5,26t-35,50T92,477V602q0,29-13.5,33.5T29,640V768Z"/>
      <glyph unicode="~" glyph-name="gid260" horiz-adv-x="500" d="M130,376q18,0 48.5-6T242,356t60-14.5t37-8.5q23-4 26,5t3,33h87q16-87-11-128.5T370,202q-18,0-48,6t-62.5,13.5t-60,14.5T160,245q-22,4-25-5t-3-33H45q-10,60 0,97.5t33.5,55T130,376Z"/>
      <glyph unicode="&#xa0;" glyph-name="gid186" horiz-adv-x="210"/>
      <glyph unicode="&#xa1;" glyph-name="gid196" horiz-adv-x="312" d="M238,293L260,59V-175H52V59L74,293H238ZM180,520q41,0 56.5-15.5T252,448V407q0-41-15.5-56.5T180,335H133q-41,0-56.5,15.5T61,407v41q0,41 15.5,56.5T133,520h47Z"/>
      <glyph unicode="&#xa2;" glyph-name="gid241" horiz-adv-x="541" d="M296,610q31,0 68.5-3t75-11T507,573L486,453q-48,0-85,0t-69,0q-39,0-61-8.5t-30.5-31T232,347t8.5-67T271,248.5t61-8.5q17,0 43,0.5t57,2t63,4.5l19-121q-45-23-103-32.5T294,84q-99,0-158,25.5T51,193T25,347q0,97 26.5,154.5t86,83T296,610Zm31-435L306,0H251l21,175h55Zm43,315L330,175H275l40,315h55Zm28,200L373,490H318l24,200h56Z"/>
      <glyph unicode="&#xa3;" glyph-name="gid245" horiz-adv-x="603" d="M319,703q23,0 60-1t82.5-3t91.5-6L543,538q-13,0-23,0t-26.5,0t-48,0T358,538q-28,0-39.5-9.5T309,499l21-195q4-45-6.5-72t-29-43.5T256,157q21,8 42.5,9t43.5,1H575V0H38V167q53,25 67,59.5t9,77.5L97,509q-4,58 7.5,95.5t39,59t71,30.5T319,703ZM489,414l-5-100H37L35,414H489Z"/>
      <glyph unicode="&#xa4;" glyph-name="gid242" horiz-adv-x="575" d="M287,445q-24,0-44.5-12.5t-33-33T197,353q0-25 12.5-46t33-33.5T287,261t44.5,12.5t33,33.5T377,353q0,26-12.5,46.5t-33,33T287,445ZM122,604l87-88l-85-85L36,519l86,85Zm335,0l85-85l-85-85l-85,85l85,85ZM126,287l91-92l-95-95L30,192l96,95Zm322-11l94-92L456,99l-93,92l85,85ZM287,561q58,0 105-28.5T467.5,457T496,352q0-57-28.5-104.5t-75.5-76T287,143q-57,0-104.5,28.5t-76,76T78,352q0,58 28.5,105t76,75.5T287,561Z"/>
      <glyph unicode="&#xa5;" glyph-name="gid246" horiz-adv-x="710" d="M692,690L459,205H251L18,690H241l87-217q9-22 13-48t8-49h13q4,23 8.5,49.5T383,474l86,216H692ZM464,328V0H247V328H464ZM611,228V128H101L99,228H611Zm0,130V258H101L99,358H611Z"/>
      <glyph unicode="&#xa6;" glyph-name="gid240" horiz-adv-x="278" d="M212,781V381H66V781H212Zm0-550V-169H66V231H212Z"/>
      <glyph unicode="&#xa7;" glyph-name="gid232" horiz-adv-x="565" d="M201,330q0-36 6.5-55T232,243.5T284,212l145-76q19-10 43-26t42-48.5T532-31q0-65-28-101.5T420.5-183T282-197q-22,0-64,1t-89,4t-83,7L60-43q24-1 44-1.5T150-45t67,0q32,0 51,2t28,6.5T307-23q4,16-10,25.5T264,20L149,75q-62,30-89.5,66T33,223.5T57,330H201Zm82,374q22,0 63.5-1.5t88.5-4t84-6.5L505,550q-24,2-45.5,2t-47-0.5T348,551q-31,0-50.5-1.5T269,544t-11-14q-4-16 10-26t33-18l115-54q63-29 90-65.5T532,284T508,177H364q0,36-6,54.5T334,263t-53,32L136,371q-18,10-42,26T51.5,445.5T33,537q0,66 28,102.5T144.5,690T283,704Z"/>
      <glyph unicode="&#xa8;" glyph-name="gid272" horiz-adv-x="436" d="M347,720q39,0 39-39V618q0-39-39-39H278q-39,0-39,39v63q0,39 39,39h69Zm-189,0q39,0 39-39V618q0-39-39-39H89q-39,0-39,39v63q0,39 39,39h69Z"/>
      <glyph unicode="&#xa9;" glyph-name="gid233" horiz-adv-x="782" d="M391,704q77,0 143-26.5T649.5,603T727,489t28-144T727,201T649.5,87T534,12.5T391-14q-76,0-142.5,26.5T132.5,87T55,201T27,345T55,489t77.5,114t116,74.5T391,704Zm4-163q50,0 78.5-4T534,525L523,416q-32-1-58.5-0.5T395,416q-16,0-23.5-5T362,391t-2-45t2-45t9.5-20t23.5-5q45,0 75.5,0.5T532,279l11-108q-33-11-65.5-16T395,150q-71,0-113.5,19T220,231T201,346t19,115t61.5,61.5T395,541Zm-4,66q-54,0-101-19.5T206.5,533t-57-83T129,345t20.5-105t57-83T290,102.5T391,83t101.5,19.5T576,157t56.5,83T653,345T632.5,450T576,533t-83.5,54.5T391,607Z"/>
      <glyph unicode="&#xaa;" glyph-name="gid129" horiz-adv-x="433" d="M243,623q73,0 111.5-30T393,482V277H272l-20,72l-10,14V483q0,17-8,23.5T207,513q-26,0-64-0.5T63,510L49,606q25,5 61,8.5t72,6t61,2.5Zm93-139l-1-59L200,412q-12-1-18-5.5T176,394v-8q0-7 6-12t19-5q16,0 32.5,7.5t31.5,19T290,419V374q-4-11-14-29t-26.5-36t-42-30T146,267q-46,0-81,24.5T30,363v33q0,41 30,64.5T142,484H336Z"/>
      <glyph unicode="&#xab;" glyph-name="gid223" horiz-adv-x="552" d="M414,470l110-69L438,251L524,95L414,26L256,229v44L414,470Zm-235,0l110-69L203,251L289,95L179,26L21,229v44L179,470Z"/>
      <glyph unicode="&#xac;" glyph-name="gid261" horiz-adv-x="571" d="M523,381V237H41V381H523Zm0-11V138l-155-1V359l155,11Z"/>
      <glyph unicode="&#xae;" glyph-name="gid234" horiz-adv-x="493" d="M247,704q62,0 112-30t80-80t30-112T439,369.5T359,289T247,259T134.5,289T54,369.5T24,482T54,594t80.5,80T247,704ZM233,591V383H148V591h85Zm14,56q-45,0-82.5-22.5t-60-59.5T82,482t22.5-83.5t60-60T247,316t82,22.5t59.5,60T411,482t-22.5,83T329,624.5T247,647Zm4-53q54,0 79-13.5T355,530q0-16-10-30.5T306,482v-2q11-1 23.5-6T347,446l17-63H274l-11,60q-3,8-6.5,9.5T245,454q-40,0-57,0t-35,1v50h95q14,0 17.5,3.5T269,521t-3.5,11.5T248,535q-35,0-60,0t-34-2l-6,58q24,2 45,2.5t58,0.5Z"/>
      <glyph unicode="&#xaf;" glyph-name="gid280" horiz-adv-x="400" d="M360,713V590H40V713H360Z"/>
      <glyph unicode="&#xb0;" glyph-name="gid236" horiz-adv-x="325" d="M163,704q39,0 71-18.5t51.5-50T305,565t-19.5-71T234,443.5T163,425T91.5,443.5T39.5,494T20,565t19.5,70.5t52,50T163,704Zm0-90q-19,0-33-14t-14-35q0-14 6.5-25.5t17-18T163,515t23,6.5t16.5,18T209,565q0,21-13.5,35T163,614Z"/>
      <glyph unicode="&#xb1;" glyph-name="gid259" horiz-adv-x="558" d="M514,465V311H44V465H514Zm0-291V19H44V174H514ZM355,573l1-369H203V573H355Z"/>
      <glyph unicode="&#xb2;" glyph-name="gid177" horiz-adv-x="431" d="M201,781q63,0 104-9t61-34.5T386,663q0-19-16-47.5T322,561l-91-75q15,5 28,7t29,1l108-3V360H37v79q0,20 4.5,35.5T59,503l75,63q21,18 37,32.5t26.5,25T212,640q5,7-3,8.5T184,650q-34,0-63.5,0.5T45,652L41,769q50,8 94,10t66,2Z"/>
      <glyph unicode="&#xb3;" glyph-name="gid178" horiz-adv-x="411" d="M207,783q93,0 129-20.5T372,686q0-48-15-73.5T292,581v-2q53-7 72-30t20-74q1-68-39-96T207,351q-44,0-89,3.5T32,363l4,113q32-1 52.5-1t37,0t35.5,0q40,0 49.5,3.5T220,498q0,10-2.5,15T206,520t-27,2l-87,3v93l87,4q17,1 25,2t10.5,5.5T217,642q0,12-6.5,15T178,660q-37,0-71.5,0.5T46,662L42,771q42,6 83.5,9t81.5,3Z"/>
      <glyph unicode="&#xb4;" glyph-name="gid275" horiz-adv-x="392" d="M273,747l79-133L97,511L40,597L273,747Z"/>
      <glyph unicode="&#xb5;" glyph-name="gid263" horiz-adv-x="636" d="M253,500V208q0-31 8.5-38.5T283,162q16,0 33.5,15.5t30,49.5T359,314l3-230q-12-27-32.5-49T282-0.5T223-14q-49,0-90,12.5t-65.5,44T43,129V500H253Zm-1-382V-65L226-180H43V186l209-68ZM568,500V162q0-16 2-26t7.5-14.5T593,117h30l7-102Q602,5 563.5-4T483-13q-49,0-85,22T362,81v3l-3,16V500H568Z"/>
      <glyph unicode="&#xb6;" glyph-name="gid231" horiz-adv-x="621" d="M357,702q40,0 94-3.5T549,685l-6-118q-26,5-60,7.5T416,578t-58,1L266,200Q134,210 77,268T20,450q0,93 34,148t108,79.5T357,702Zm26-17V-210H256V685H383Zm166,0V0H422V685H549Z"/>
      <glyph unicode="&#xb7;" glyph-name="gid199" horiz-adv-x="265" d="M156,351q41,0 56.5-15.5T228,279V238q0-40-15.5-56T156,166H109q-41,0-56.5,16T37,238v41q0,41 15.5,56.5T109,351h47Z"/>
      <glyph unicode="&#xb8;" glyph-name="gid281" horiz-adv-x="263" d="M72-33q63,7 102.5,7T232-42t16-56q-2-57-34.5-92.5t-84.5-49T14-245l22,78q33,0 58.5,8T123-116q2,11-10.5,11T53-105L72-33Z"/>
      <glyph unicode="&#xb9;" glyph-name="gid176" horiz-adv-x="321" d="M275,774V360H115V591q0,15 1,29.5t5,30.5L24,637L6,735l109,39H275Z"/>
      <glyph unicode="&#xba;" glyph-name="gid130" horiz-adv-x="435" d="M218,623q105,0 147.5-40.5T408,444q0-64-18.5-102.5t-60-55.5T218,269q-105,0-148,39T27,444q0,98 43,138.5T218,623Zm0-102q-21,0-27-13.5T185,444q0-47 6-60.5T218,370q20,0 26,13.5t6,60.5q0,50-6,63.5T218,521Z"/>
      <glyph unicode="&#xbb;" glyph-name="gid224" horiz-adv-x="552" d="M138,470L296,273V229L138,26L28,95l86,156L28,401l110,69Zm235,0L531,273V229L373,26L263,95l86,156L263,401l110,69Z"/>
      <glyph unicode="&#xbc;" glyph-name="gid173" horiz-adv-x="944" d="M683,690L296,0H170L557,690H683Zm-403,0V276H120V507q0,15 1,29.5t5,30.5L37,553L19,651l101,39H280ZM751,414L668,187q-2-6 0.5-8t9.5-2H920V90L876,76H556q-28,0-43.5,20T507,141L610,414H751Zm124-83V0H728V270l25,61H875Z"/>
      <glyph unicode="&#xbd;" glyph-name="gid172" horiz-adv-x="943" d="M683,690L296,0H170L556,690H683Zm-403,0V276H120V507q0,15 1,29.5t5,30.5L37,553L19,651l101,39H280ZM721,421q63,0 103.5-9t60-34.5T904,303q0-19-16-47.5T841,201l-87-75q15,5 27.5,7t27.5,1l104-3V0H560V79q0,20 4.5,35.5T582,143l72,63q29,26 49.5,45.5T730,280q5,7-2,8.5T704,290q-34,0-62.5,0.5T568,292l-4,117q49,8 92,10t65,2Z"/>
      <glyph unicode="&#xbe;" glyph-name="gid174" horiz-adv-x="1017" d="M759,690L372,0H246L632,690H759Zm-556,6q91,0 125.5-20.5T363,599q0-48-14-73.5T285,494v-2q53-7 71-30t19-74q1-68-38-96T202,264q-43,0-87,3.5T30,276l4,113q32-1 52-1t36,0t34,0q38,0 46.5,3.5T211,411q0,12-2.5,17.5t-10,7.5T174,438l-85-1v95h85q16,0 23,1.5t9,6.5t2,15q0,12-5.5,14.5T173,573q-36,1-69.5,1.5T44,575L40,684q41,6 82,9t81,3ZM826,414L743,187q-2-6 1-8t10-2H995V90L951,76H632q-29,0-44.5,20T582,141L685,414H826Zm124-83V0H803V270l25,61H950Z"/>
      <glyph unicode="&#xbf;" glyph-name="gid198" horiz-adv-x="531" d="M365,291q3-50-7.5-89T329,132.5t-37-54T259,37T242,5q-4-19 9-26t47-7q52,0 84.5,0t60,0T505-28l5-138q-31-6-56.5-11T400-186t-64.5-6T246-194q-115,0-171,38T19-39Q19,5 35.5,36T77,93t51.5,53T175,207.5T201,291H365ZM307,518q41,0 56.5-15.5T379,446V405q0-41-15.5-56.5T307,333H260q-41,0-56.5,15.5T188,405v41q0,41 15.5,56.5T260,518h47Z"/>
      <glyph unicode="&#xc0;" glyph-name="gid6" horiz-adv-x="683" d="M440,690q26,0 46-15t27-41L692,0H471L367,449q-4,19-7,39.5T355,528H328q-2-19-5-39.5T316,449L212,0H-9L170,634q7,26 27,41t46,15H440Zm85-389V149H158V301H525ZM210,976L443,826l-57-86L131,843l79,133Z"/>
      <glyph unicode="&#xc1;" glyph-name="gid2" horiz-adv-x="683" d="M440,690q26,0 46-15t27-41L692,0H471L367,449q-4,19-7,39.5T355,528H328q-2-19-5-39.5T316,449L212,0H-9L170,634q7,26 27,41t46,15H440Zm85-389V149H158V301H525ZM474,956l79-133L298,720l-57,86L474,956Z"/>
      <glyph unicode="&#xc2;" glyph-name="gid4" horiz-adv-x="683" d="M440,690q26,0 46-15t27-41L692,0H471L367,449q-4,19-7,39.5T355,528H328q-2-19-5-39.5T316,449L212,0H-9L170,634q7,26 27,41t46,15H440Zm85-389V149H158V301H525ZM420,930L555,789l-48-69L348,813h-8L178,720l-50,77L268,930H420Z"/>
      <glyph unicode="&#xc3;" glyph-name="gid8" horiz-adv-x="683" d="M440,690q26,0 46-15t27-41L692,0H471L367,449q-4,19-7,39.5T355,528H328q-2-19-5-39.5T316,449L212,0H-9L170,634q7,26 27,41t46,15H440Zm85-389V149H158V301H525ZM237,920q26-2 48-7t42.5-12t40-13.5T406,877q23-4 26,5t3,33h87q16-84-11-128t-74-41q-34,3-64.5,11.5t-56.5,18T267,789q-22,4-25-5t-3-33H152q-11,60 0,98t35,55.5T237,920Z"/>
      <glyph unicode="&#xc4;" glyph-name="gid5" horiz-adv-x="683" d="M440,690q26,0 46-15t27-41L692,0H471L367,449q-4,19-7,39.5T355,528H328q-2-19-5-39.5T316,449L212,0H-9L170,634q7,26 27,41t46,15H440Zm85-389V149H158V301H525ZM470,904q39,0 39-39V802q0-39-39-39H401q-39,0-39,39v63q0,39 39,39h69Zm-189,0q39,0 39-39V802q0-39-39-39H212q-39,0-39,39v63q0,39 39,39h69Z"/>
      <glyph unicode="&#xc5;" glyph-name="gid7" horiz-adv-x="683" d="M440,690q26,0 46-15t27-41L692,0H471L367,449q-4,19-7,39.5T355,528H328q-2-19-5-39.5T316,449L212,0H-9L170,634q7,26 27,41t46,15H440Zm85-389V149H158V301H525ZM343,963q35,0 64.5-17t47-45T472,838t-17.5-63.5t-47-45T343,713t-64.5,16.5t-47,45T214,838t17.5,63t47,45T343,963Zm0-80q-18,0-31-13.5T299,838q0-19 13-32t31-13t31,13t13,32q0,18-13,31.5T343,883Z"/>
      <glyph unicode="&#xc6;" glyph-name="gid9" horiz-adv-x="954" d="M576,692q96,0 177.5-1.5T926,681L916,531H680q-17,0-28-10t-11-26V195q0-16 10.5-26T680,159H916L926,9Q848-1 759.5-2.5T585-4Q517-4 478,39.5T439,153V498q0,16 4,32.5T454,560H440q-7-10-12.5-22.5T417,516L202,0H-19L222,534q19,42 43.5,72t63,49T427,683t149,9ZM488,309V161H130l1,148H488ZM447,420H882V286H447V420Z"/>
      <glyph unicode="&#xc7;" glyph-name="gid12" horiz-adv-x="605" d="M345,702q54,0 92-3t69.5-8.5T572,675L556,517q-35,1-65,1t-64,0.5T345,519q-34,0-52.5-14.5t-25.5-52T260,345t7-107.5t25.5-52T345,171q75,0 125.5,1.5T571,179L587,21Q535,3 480.5-4.5T345-12Q231-12 162,22.5T62.5,135T32,345T62.5,555T162,667.5T345,702ZM255-65q63,7 102.5,7T415-74t16-56q-2-57-34.5-92.5t-84.5-49T197-277l22,78q33,0 58.5,8T306-148q2,11-10.5,11T236-137l19,72Z"/>
      <glyph unicode="&#xc8;" glyph-name="gid19" horiz-adv-x="596" d="M209,694q60,0 123.5-0.5t124.5-3T568,681L558,528H305q-19,0-30-10t-11-26V198q0-16 11-26t30-10H558L568,9Q518,3 457,0T332.5-3.5T209-4Q138-4 92.5,39.5T47,153V537q0,70 45.5,113.5T209,694ZM65,425H522V281H65V425ZM190,976L423,826l-57-86L111,843l79,133Z"/>
      <glyph unicode="&#xc9;" glyph-name="gid16" horiz-adv-x="596" d="M209,694q60,0 123.5-0.5t124.5-3T568,681L558,528H305q-19,0-30-10t-11-26V198q0-16 11-26t30-10H558L568,9Q518,3 457,0T332.5-3.5T209-4Q138-4 92.5,39.5T47,153V537q0,70 45.5,113.5T209,694ZM65,425H522V281H65V425ZM454,956l79-133L278,720l-57,86L454,956Z"/>
      <glyph unicode="&#xca;" glyph-name="gid17" horiz-adv-x="596" d="M209,694q60,0 123.5-0.5t124.5-3T568,681L558,528H305q-19,0-30-10t-11-26V198q0-16 11-26t30-10H558L568,9Q518,3 457,0T332.5-3.5T209-4Q138-4 92.5,39.5T47,153V537q0,70 45.5,113.5T209,694ZM65,425H522V281H65V425ZM400,930L535,789l-48-69L328,813h-8L158,720l-50,77L248,930H400Z"/>
      <glyph unicode="&#xcb;" glyph-name="gid18" horiz-adv-x="596" d="M209,694q60,0 123.5-0.5t124.5-3T568,681L558,528H305q-19,0-30-10t-11-26V198q0-16 11-26t30-10H558L568,9Q518,3 457,0T332.5-3.5T209-4Q138-4 92.5,39.5T47,153V537q0,70 45.5,113.5T209,694ZM65,425H522V281H65V425ZM450,904q39,0 39-39V802q0-39-39-39H381q-39,0-39,39v63q0,39 39,39h69Zm-189,0q39,0 39-39V802q0-39-39-39H192q-39,0-39,39v63q0,39 39,39h69Z"/>
      <glyph unicode="&#xcc;" glyph-name="gid27" horiz-adv-x="321" d="M268,690V0H53V690H268ZM28,976L261,826l-57-86L-51,843L28,976Z"/>
      <glyph unicode="&#xcd;" glyph-name="gid24" horiz-adv-x="321" d="M268,690V0H53V690H268Zm24,266l79-133L116,720L59,806L292,956Z"/>
      <glyph unicode="&#xce;" glyph-name="gid25" horiz-adv-x="321" d="M268,690V0H53V690H268ZM238,930L373,789l-48-69L166,813h-8L-4,720l-50,77L86,930H238Z"/>
      <glyph unicode="&#xcf;" glyph-name="gid26" horiz-adv-x="321" d="M268,690V0H53V690H268Zm20,214q39,0 39-39V802q0-39-39-39H219q-39,0-39,39v63q0,39 39,39h69ZM99,904q39,0 39-39V802q0-39-39-39H30q-39,0-39,39v63q0,39 39,39H99Z"/>
      <glyph unicode="&#xd0;" glyph-name="gid14" horiz-adv-x="701" d="M368,409V305H7V409H368ZM347,700q89,0 150.5-16.5t99.5-56T652,519t17-174T652,171T597,62.5t-99.5-56T347-10q-86,0-158,3T52,0l88,154q35-4 88.5-5.5T347,147q37,0 57,16t28,59t8,123t-8,123t-28,59t-57,16q-61,0-107.5,0T149,544L52,690q66,4 136.5,7T347,700Zm-78-10V0H52V690H269Z"/>
      <glyph unicode="&#xd1;" glyph-name="gid33" horiz-adv-x="738" d="M687,690V75q0-75-75-75H529q-34,0-50.5,16T445,63L295,300q-14,26-25.5,56.5T249,418h-7q5-31 7.5-63.5T252,292V0H52V615q0,75 75,75h83q34,0 50-16t34-47L438,401q14-25 27.5-55T491,283h7q-4,32-6.5,63T489,408l-1,282H687ZM275,920q26-2 48-7t42.5-12t40-13.5T444,877q23-4 26,5t3,33h87q16-84-11-128t-74-41q-34,3-64.5,11.5t-56.5,18T305,789q-22,4-25-5t-3-33H190q-11,60 0,98t35,55.5T275,920Z"/>
      <glyph unicode="&#xd2;" glyph-name="gid38" horiz-adv-x="707" d="M353,704q89,0 150.5-16.5T603,631t55-109.5T675,345q0-106-17-176T603,59T503.5,2.5T353-14Q265-14 203.5,2.5T104,59T49,169T32,345q0,107 17,176.5T104,631t99.5,56.5T353,704Zm0-161q-37,0-57-16t-28-59t-8-123t8-123t28-59t57-16t57,16t28,59t8,123t-8,123t-28,59t-57,16ZM219,976L452,826l-57-86L140,843l79,133Z"/>
      <glyph unicode="&#xd3;" glyph-name="gid35" horiz-adv-x="707" d="M353,704q89,0 150.5-16.5T603,631t55-109.5T675,345q0-106-17-176T603,59T503.5,2.5T353-14Q265-14 203.5,2.5T104,59T49,169T32,345q0,107 17,176.5T104,631t99.5,56.5T353,704Zm0-161q-37,0-57-16t-28-59t-8-123t8-123t28-59t57-16t57,16t28,59t8,123t-8,123t-28,59t-57,16ZM483,976l79-133L307,740l-57,86L483,976Z"/>
      <glyph unicode="&#xd4;" glyph-name="gid36" horiz-adv-x="707" d="M353,704q89,0 150.5-16.5T603,631t55-109.5T675,345q0-106-17-176T603,59T503.5,2.5T353-14Q265-14 203.5,2.5T104,59T49,169T32,345q0,107 17,176.5T104,631t99.5,56.5T353,704Zm0-161q-37,0-57-16t-28-59t-8-123t8-123t28-59t57-16t57,16t28,59t8,123t-8,123t-28,59t-57,16Zm76,387L564,789l-48-69L357,813h-8L187,720l-50,77L277,930H429Z"/>
      <glyph unicode="&#xd5;" glyph-name="gid40" horiz-adv-x="707" d="M353,704q89,0 150.5-16.5T603,631t55-109.5T675,345q0-106-17-176T603,59T503.5,2.5T353-14Q265-14 203.5,2.5T104,59T49,169T32,345q0,107 17,176.5T104,631t99.5,56.5T353,704Zm0-161q-37,0-57-16t-28-59t-8-123t8-123t28-59t57-16t57,16t28,59t8,123t-8,123t-28,59t-57,16ZM246,920q26-2 48-7t42.5-12t40-13.5T415,877q23-4 26,5t3,33h87q16-84-11-128t-74-41q-34,3-64.5,11.5t-56.5,18T276,789q-22,4-25-5t-3-33H161q-11,60 0,98t35,55.5T246,920Z"/>
      <glyph unicode="&#xd6;" glyph-name="gid37" horiz-adv-x="707" d="M353,704q89,0 150.5-16.5T603,631t55-109.5T675,345q0-106-17-176T603,59T503.5,2.5T353-14Q265-14 203.5,2.5T104,59T49,169T32,345q0,107 17,176.5T104,631t99.5,56.5T353,704Zm0-161q-37,0-57-16t-28-59t-8-123t8-123t28-59t57-16t57,16t28,59t8,123t-8,123t-28,59t-57,16ZM479,904q39,0 39-39V802q0-39-39-39H410q-39,0-39,39v63q0,39 39,39h69Zm-189,0q39,0 39-39V802q0-39-39-39H221q-39,0-39,39v63q0,39 39,39h69Z"/>
      <glyph unicode="&#xd7;" glyph-name="gid254" horiz-adv-x="506" d="M392,516L19,185L115,70L489,400L392,516Zm-277,0L19,400L392,70l97,115L115,516Z"/>
      <glyph unicode="&#xd8;" glyph-name="gid39" horiz-adv-x="707" d="M507,757l58-27L191-71L133-44L507,757ZM353,704q89,0 150.5-16.5T603,631t55-109.5T675,345q0-106-17-176T603,59T503.5,2.5T353-14Q265-14 203.5,2.5T104,59T49,169T32,345q0,107 17,176.5T104,631t99.5,56.5T353,704Zm0-161q-37,0-57-16t-28-59t-8-123t8-123t28-59t57-16t57,16t28,59t8,123t-8,123t-28,59t-57,16Z"/>
      <glyph unicode="&#xd9;" glyph-name="gid52" horiz-adv-x="705" d="M658,690V285q0-110-28.5-175.5T536.5,15T364-14Q247-14 177.5,15t-100,94.5T47,285V690H264V285q0-55 7.5-85t27-41.5T353,147t54,11.5T433.5,200t7.5,85V690H658ZM221,976L454,826l-57-86L142,843l79,133Z"/>
      <glyph unicode="&#xda;" glyph-name="gid49" horiz-adv-x="705" d="M658,690V285q0-110-28.5-175.5T536.5,15T364-14Q247-14 177.5,15t-100,94.5T47,285V690H264V285q0-55 7.5-85t27-41.5T353,147t54,11.5T433.5,200t7.5,85V690H658ZM485,956l79-133L309,720l-57,86L485,956Z"/>
      <glyph unicode="&#xdb;" glyph-name="gid50" horiz-adv-x="705" d="M658,690V285q0-110-28.5-175.5T536.5,15T364-14Q247-14 177.5,15t-100,94.5T47,285V690H264V285q0-55 7.5-85t27-41.5T353,147t54,11.5T433.5,200t7.5,85V690H658ZM431,930L566,789l-48-69L359,813h-8L189,720l-50,77L279,930H431Z"/>
      <glyph unicode="&#xdc;" glyph-name="gid51" horiz-adv-x="705" d="M658,690V285q0-110-28.5-175.5T536.5,15T364-14Q247-14 177.5,15t-100,94.5T47,285V690H264V285q0-55 7.5-85t27-41.5T353,147t54,11.5T433.5,200t7.5,85V690H658ZM481,904q39,0 39-39V802q0-39-39-39H412q-39,0-39,39v63q0,39 39,39h69Zm-189,0q39,0 39-39V802q0-39-39-39H223q-39,0-39,39v63q0,39 39,39h69Z"/>
      <glyph unicode="&#xdd;" glyph-name="gid57" horiz-adv-x="654" d="M664,690L431,205H223L-10,690H213l87-217q9-22 13-48t8-49h13q4,23 8.5,49.5T355,474l86,216H664ZM436,328V0H219V328H436Zm23,628l79-133L283,720l-57,86L459,956Z"/>
      <glyph unicode="&#xde;" glyph-name="gid43" horiz-adv-x="633" d="M337,578q107,0 168-20.5T591,486t25-143q0-91-24-141.5t-78.5-71T367,110q-49,0-97.5,5.5t-91,14t-72.5,18T64,165l3,98q63,0 130.5,0T332,263q27,0 41.5,6.5t20,24T399,343q0,33-5.5,50.5t-20,24.5T332,425q-99,0-169-1t-95-4L53,568q45,5 84,7t86,2.5T337,578ZM270,690V0H53V690H270Z"/>
      <glyph unicode="&#xdf;" glyph-name="gid108" horiz-adv-x="738" d="M368,742q107,0 163-17t76-54t20-97q0-20-3.5-35.5t-13-33.5T581,461q-10-13-19.5-26.5t-16-25.5T539,386q0-16 18.5-31.5T598,319l52-42q31-27 49-45.5T724.5,193t7.5-52q0-48-17.5-82T652,7T526-11q-43,0-83.5,3T345,0l13,128q26,0 53,0t64,0q18,0 27.5,0.5t13,5T519,148q0,11-11,23.5t-29,27T440,231l-30,20q-32,26-50.5,53T341,370q0,22 7.5,37.5T370,440t32,44q20,29 27,43.5t7,32.5q0,17-5,26t-19,12.5T370,602q-29,0-44.5-4.5T305,580t-5-39V0H90V566q0,49 15,83t47.5,54.5t86,29.5T368,742ZM192,500V374H8V495l82,5H192Z"/>
      <glyph unicode="&#xe0;" glyph-name="gid64" horiz-adv-x="590" d="M333,514q71,0 119.5-18.5t74-63T552,310V0H385L356,107l-14,20V311q-1,26-13.5,38T283,361q-39,0-95.5-1T67,356L48,489q38,7 90.5,12.5t104.5,9t90,3.5ZM471,307l-1-101H263q-19,0-28.5-8.5T225,175V159q0-13 10.5-22t31.5-9q24,0 50,11.5T367,169t41,37V142q-7-17-22-43T345.5,47t-63-43.5T193-14q-46,0-85.5,16t-63,47.5T21,128v50q0,60 44.5,94.5T186,307H471ZM170,806L403,656l-57-86L91,673l79,133Z"/>
      <glyph unicode="&#xe1;" glyph-name="gid61" horiz-adv-x="590" d="M333,514q71,0 119.5-18.5t74-63T552,310V0H385L356,107l-14,20V311q-1,26-13.5,38T283,361q-39,0-95.5-1T67,356L48,489q38,7 90.5,12.5t104.5,9t90,3.5ZM471,307l-1-101H263q-19,0-28.5-8.5T225,175V159q0-13 10.5-22t31.5-9q24,0 50,11.5T367,169t41,37V142q-7-17-22-43T345.5,47t-63-43.5T193-14q-46,0-85.5,16t-63,47.5T21,128v50q0,60 44.5,94.5T186,307H471ZM434,786l79-133L258,550l-57,86L434,786Z"/>
      <glyph unicode="&#xe2;" glyph-name="gid62" horiz-adv-x="590" d="M333,514q71,0 119.5-18.5t74-63T552,310V0H385L356,107l-14,20V311q-1,26-13.5,38T283,361q-39,0-95.5-1T67,356L48,489q38,7 90.5,12.5t104.5,9t90,3.5ZM471,307l-1-101H263q-19,0-28.5-8.5T225,175V159q0-13 10.5-22t31.5-9q24,0 50,11.5T367,169t41,37V142q-7-17-22-43T345.5,47t-63-43.5T193-14q-46,0-85.5,16t-63,47.5T21,128v50q0,60 44.5,94.5T186,307H471ZM380,760L515,619l-48-69L308,643h-8L138,550L88,627L228,760H380Z"/>
      <glyph unicode="&#xe3;" glyph-name="gid66" horiz-adv-x="590" d="M333,514q71,0 119.5-18.5t74-63T552,310V0H385L356,107l-14,20V311q-1,26-13.5,38T283,361q-39,0-95.5-1T67,356L48,489q38,7 90.5,12.5t104.5,9t90,3.5ZM471,307l-1-101H263q-19,0-28.5-8.5T225,175V159q0-13 10.5-22t31.5-9q24,0 50,11.5T367,169t41,37V142q-7-17-22-43T345.5,47t-63-43.5T193-14q-46,0-85.5,16t-63,47.5T21,128v50q0,60 44.5,94.5T186,307H471ZM197,750q26-2 48-7t42.5-12t40-13.5T366,707q23-4 26,5t3,33h87q16-84-11-128t-74-41q-34,3-64.5,11.5t-56.5,18T227,619q-22,4-25-5t-3-33H112q-11,60 0,98t35,55.5T197,750Z"/>
      <glyph unicode="&#xe4;" glyph-name="gid63" horiz-adv-x="590" d="M333,514q71,0 119.5-18.5t74-63T552,310V0H385L356,107l-14,20V311q-1,26-13.5,38T283,361q-39,0-95.5-1T67,356L48,489q38,7 90.5,12.5t104.5,9t90,3.5ZM471,307l-1-101H263q-19,0-28.5-8.5T225,175V159q0-13 10.5-22t31.5-9q24,0 50,11.5T367,169t41,37V142q-7-17-22-43T345.5,47t-63-43.5T193-14q-46,0-85.5,16t-63,47.5T21,128v50q0,60 44.5,94.5T186,307H471ZM430,734q39,0 39-39V632q0-39-39-39H361q-39,0-39,39v63q0,39 39,39h69Zm-189,0q39,0 39-39V632q0-39-39-39H172q-39,0-39,39v63q0,39 39,39h69Z"/>
      <glyph unicode="&#xe5;" glyph-name="gid65" horiz-adv-x="590" d="M333,514q71,0 119.5-18.5t74-63T552,310V0H385L356,107l-14,20V311q-1,26-13.5,38T283,361q-39,0-95.5-1T67,356L48,489q38,7 90.5,12.5t104.5,9t90,3.5ZM471,307l-1-101H263q-19,0-28.5-8.5T225,175V159q0-13 10.5-22t31.5-9q24,0 50,11.5T367,169t41,37V142q-7-17-22-43T345.5,47t-63-43.5T193-14q-46,0-85.5,16t-63,47.5T21,128v50q0,60 44.5,94.5T186,307H471ZM303,793q35,0 64.5-17t47-45T432,668t-17.5-63.5t-47-45T303,543t-64.5,16.5t-47,45T174,668t17.5,63t47,45T303,793Zm0-80q-18,0-31-13.5T259,668q0-19 13-32t31-13t31,13t13,32q0,18-13,31.5T303,713Z"/>
      <glyph unicode="&#xe6;" glyph-name="gid67" horiz-adv-x="886" d="M610,514q139,0 196.5-45T865,336q1-46-17-75.5t-60-43T672,204H413v99H613q33,0 42,6.5t9,31.5q0,24-11,31t-37,7q-31,1-47-6t-21.5-30.5T542,269q0-46 6.5-72t26-37T634,149q28,0 81,2t117,9L851,34Q816,16 777.5,6t-80-14T611-12Q508-12 447,17t-88.5,86.5T331,246q0,99 27.5,157.5T447,488t163,26ZM462,304l-1-100l-200,2q-18,0-27-8.5T225,175V159q0-13 10-22t29-9q23,0 47.5,11.5T359,169t39,37l10-74q-7-16-22-40T345.5,43.5t-64-41T189-14q-45,0-83.5,16T44,49.5T21,128v50q0,58 43.5,92T182,304H462ZM327,514q70,0 117.5-18.5t72.5-63T542,310V224H331v87q0,26-12,38t-42,12q-38,0-93.5-1T66,356L47,489q37,7 88.5,12.5t103,9T327,514Z"/>
      <glyph unicode="&#xe7;" glyph-name="gid70" horiz-adv-x="528" d="M294,514q31,0 68-3t74-11t67-23L482,347q-48,0-84,0t-68,0t-50.5-8t-26-28.5T246,251t7.5-60t26-29t50.5-8q17,0 42.5,0.5t56.5,2t62,4.5L510,30Q466,7 408-2.5T292-12q-98,0-156.5,25.5T51.5,97T26,251q0,97 26,154.5t85,83T294,514ZM208-50q63,7 102.5,7T368-59t16-56q-2-57-34.5-92.5t-84.5-49T150-262l22,78q33,0 58.5,8T259-133q2,11-10.5,11T189-122l19,72Z"/>
      <glyph unicode="&#xe8;" glyph-name="gid77" horiz-adv-x="590" d="M309,514q141,0 200-45t60-133q1-70-41.5-101T375,204H106v99H316q34,0 43,6.5t9,31.5q0,24-12,31t-41,7q-29,1-44-6t-20.5-30.5T245,269q0-46 6.5-72T277,160t56-11q30,0 84.5,2T536,160L555,34Q520,16 480,6T397.5-8T310-12Q206-12 143,17T52.5,103.5T25,246q0,99 28,157.5T143.5,488T309,514ZM179,798L412,648l-57-86L100,665l79,133Z"/>
      <glyph unicode="&#xe9;" glyph-name="gid74" horiz-adv-x="590" d="M309,514q141,0 200-45t60-133q1-70-41.5-101T375,204H106v99H316q34,0 43,6.5t9,31.5q0,24-12,31t-41,7q-29,1-44-6t-20.5-30.5T245,269q0-46 6.5-72T277,160t56-11q30,0 84.5,2T536,160L555,34Q520,16 480,6T397.5-8T310-12Q206-12 143,17T52.5,103.5T25,246q0,99 28,157.5T143.5,488T309,514ZM443,778l79-133L267,542l-57,86L443,778Z"/>
      <glyph unicode="&#xea;" glyph-name="gid75" horiz-adv-x="590" d="M309,514q141,0 200-45t60-133q1-70-41.5-101T375,204H106v99H316q34,0 43,6.5t9,31.5q0,24-12,31t-41,7q-29,1-44-6t-20.5-30.5T245,269q0-46 6.5-72T277,160t56-11q30,0 84.5,2T536,160L555,34Q520,16 480,6T397.5-8T310-12Q206-12 143,17T52.5,103.5T25,246q0,99 28,157.5T143.5,488T309,514Zm80,238L524,611l-48-69L317,635h-8L147,542L97,619L237,752H389Z"/>
      <glyph unicode="&#xeb;" glyph-name="gid76" horiz-adv-x="590" d="M309,514q141,0 200-45t60-133q1-70-41.5-101T375,204H106v99H316q34,0 43,6.5t9,31.5q0,24-12,31t-41,7q-29,1-44-6t-20.5-30.5T245,269q0-46 6.5-72T277,160t56-11q30,0 84.5,2T536,160L555,34Q520,16 480,6T397.5-8T310-12Q206-12 143,17T52.5,103.5T25,246q0,99 28,157.5T143.5,488T309,514ZM439,726q39,0 39-39V624q0-39-39-39H370q-39,0-39,39v63q0,39 39,39h69Zm-189,0q39,0 39-39V624q0-39-39-39H181q-39,0-39,39v63q0,39 39,39h69Z"/>
      <glyph unicode="&#xec;" glyph-name="gid87" horiz-adv-x="305" d="M258,500V0H47V500H258ZM17,798L250,648l-57-86L-62,665L17,798Z"/>
      <glyph unicode="&#xed;" glyph-name="gid83" horiz-adv-x="305" d="M258,500V0H47V500H258Zm23,278l79-133L105,542L48,628L281,778Z"/>
      <glyph unicode="&#xee;" glyph-name="gid84" horiz-adv-x="305" d="M258,500V0H47V500H258ZM227,752L362,611l-48-69L155,635h-8L-15,542l-50,77L75,752H227Z"/>
      <glyph unicode="&#xef;" glyph-name="gid85" horiz-adv-x="305" d="M258,500V0H47V500H258Zm19,226q39,0 39-39V624q0-39-39-39H208q-39,0-39,39v63q0,39 39,39h69ZM88,726q39,0 39-39V624q0-39-39-39H19q-39,0-39,39v63q0,39 39,39H88Z"/>
      <glyph unicode="&#xf0;" glyph-name="gid72" horiz-adv-x="604" d="M146,698q90,6 160-11t121-53.5t84-89T560,428t16-137q0-87-16.5-145.5T508.5,52t-87-50.5T297-14Q158-14 92.5,41.5T27,214q0,82 22,135t71.5,78.5T252,453q26,0 61.5-4.5t68-21T431,376l-8-84q-19,8-51,13.5T302,311q-18,0-30.5-5T253,281.5T247,218q0-53 10-70.5T299,130q25,0 37,12t16,46.5T356,290q0,63-4.5,111t-17,82T297,537t-66,28t-102,3l17,130Zm286,36l53-61L244,463l-54,61L432,734Z"/>
      <glyph unicode="&#xf1;" glyph-name="gid94" horiz-adv-x="621" d="M433,514q148,0 148-140V0H371V307q0,17-8,23.5T335,337q-19,0-42.5-3T231,318L221,421q50,47 105,70t107,23ZM208,500l26-102l19-12V0H43V500H208Zm-2,242q26-2 48-7t42.5-12t40-13.5T375,699q23-4 26,5t3,33h87q16-84-11-128t-74-41q-34,3-64.5,11.5t-56.5,18T236,611q-22,4-25-5t-3-33H121q-11,60 0,98t35,55.5T206,742Z"/>
      <glyph unicode="&#xf2;" glyph-name="gid99" horiz-adv-x="611" d="M306,514q102,0 163.5-25.5T558,405t27-156q0-96-27-153T469.5,13.5T306-12T142.5,13.5T53.5,96T26,249q0,98 27.5,156t89,83.5T306,514Zm0-142q-24,0-37-9.5T251,327t-5-78q0-50 5-75.5T269,139t37-9t37,9t17.5,34.5T365,249q0,52-4.5,78T343,362.5T306,372ZM173,788L406,638l-57-86L94,655l79,133Z"/>
      <glyph unicode="&#xf3;" glyph-name="gid96" horiz-adv-x="611" d="M306,514q102,0 163.5-25.5T558,405t27-156q0-96-27-153T469.5,13.5T306-12T142.5,13.5T53.5,96T26,249q0,98 27.5,156t89,83.5T306,514Zm0-142q-24,0-37-9.5T251,327t-5-78q0-50 5-75.5T269,139t37-9t37,9t17.5,34.5T365,249q0,52-4.5,78T343,362.5T306,372ZM437,768l79-133L261,532l-57,86L437,768Z"/>
      <glyph unicode="&#xf4;" glyph-name="gid97" horiz-adv-x="611" d="M306,514q102,0 163.5-25.5T558,405t27-156q0-96-27-153T469.5,13.5T306-12T142.5,13.5T53.5,96T26,249q0,98 27.5,156t89,83.5T306,514Zm0-142q-24,0-37-9.5T251,327t-5-78q0-50 5-75.5T269,139t37-9t37,9t17.5,34.5T365,249q0,52-4.5,78T343,362.5T306,372Zm77,370L518,601l-48-69L311,625h-8L141,532L91,609L231,742H383Z"/>
      <glyph unicode="&#xf5;" glyph-name="gid101" horiz-adv-x="611" d="M306,514q102,0 163.5-25.5T558,405t27-156q0-96-27-153T469.5,13.5T306-12T142.5,13.5T53.5,96T26,249q0,98 27.5,156t89,83.5T306,514Zm0-142q-24,0-37-9.5T251,327t-5-78q0-50 5-75.5T269,139t37-9t37,9t17.5,34.5T365,249q0,52-4.5,78T343,362.5T306,372ZM200,732q26-2 48-7t42.5-12t40-13.5T369,689q23-4 26,5t3,33h87q16-84-11-128t-74-41q-34,3-64.5,11.5t-56.5,18T230,601q-22,4-25-5t-3-33H115q-11,60 0,98t35,55.5T200,732Z"/>
      <glyph unicode="&#xf6;" glyph-name="gid98" horiz-adv-x="611" d="M306,514q102,0 163.5-25.5T558,405t27-156q0-96-27-153T469.5,13.5T306-12T142.5,13.5T53.5,96T26,249q0,98 27.5,156t89,83.5T306,514Zm0-142q-24,0-37-9.5T251,327t-5-78q0-50 5-75.5T269,139t37-9t37,9t17.5,34.5T365,249q0,52-4.5,78T343,362.5T306,372ZM433,716q39,0 39-39V614q0-39-39-39H364q-39,0-39,39v63q0,39 39,39h69Zm-189,0q39,0 39-39V614q0-39-39-39H175q-39,0-39,39v63q0,39 39,39h69Z"/>
      <glyph unicode="&#xf7;" glyph-name="gid255" horiz-adv-x="535" d="M508,365V219H27V365H508ZM292,176q44,0 60.5-16.5T369,99V81q0-43-16.5-60T292,4H242q-44,0-60.5,17T165,81V99q0,44 16.5,60.5T242,176h50Zm0,401q44,0 60.5-16.5T369,500V482q0-44-16.5-60.5T292,405H242q-44,0-60.5,16.5T165,482v18q0,44 16.5,60.5T242,577h50Z"/>
      <glyph unicode="&#xf8;" glyph-name="gid100" horiz-adv-x="611" d="M437,597l46-22L173-93L127-71L437,597ZM306,514q102,0 163.5-25.5T558,405t27-156q0-96-27-153T469.5,13.5T306-12T142.5,13.5T53.5,96T26,249q0,98 27.5,156t89,83.5T306,514Zm0-142q-24,0-37-9.5T251,327t-5-78q0-50 5-75.5T269,139t37-9t37,9t17.5,34.5T365,249q0,52-4.5,78T343,362.5T306,372Z"/>
      <glyph unicode="&#xf9;" glyph-name="gid114" horiz-adv-x="615" d="M250,500V193q0-16 9-23.5t28-7.5q20,0 41,3.5T383,182L395,79Q344,32 294,9T188-14Q40-14 40,126V500H250Zm322,0V0H407L381,102l-20,12V500H572ZM173,798L406,648l-57-86L94,665l79,133Z"/>
      <glyph unicode="&#xfa;" glyph-name="gid111" horiz-adv-x="615" d="M250,500V193q0-16 9-23.5t28-7.5q20,0 41,3.5T383,182L395,79Q344,32 294,9T188-14Q40-14 40,126V500H250Zm322,0V0H407L381,102l-20,12V500H572ZM437,778l79-133L261,542l-57,86L437,778Z"/>
      <glyph unicode="&#xfb;" glyph-name="gid112" horiz-adv-x="615" d="M250,500V193q0-16 9-23.5t28-7.5q20,0 41,3.5T383,182L395,79Q344,32 294,9T188-14Q40-14 40,126V500H250Zm322,0V0H407L381,102l-20,12V500H572ZM383,752L518,611l-48-69L311,635h-8L141,542L91,619L231,752H383Z"/>
      <glyph unicode="&#xfc;" glyph-name="gid113" horiz-adv-x="615" d="M250,500V193q0-16 9-23.5t28-7.5q20,0 41,3.5T383,182L395,79Q344,32 294,9T188-14Q40-14 40,126V500H250Zm322,0V0H407L381,102l-20,12V500H572ZM433,726q39,0 39-39V624q0-39-39-39H364q-39,0-39,39v63q0,39 39,39h69Zm-189,0q39,0 39-39V624q0-39-39-39H175q-39,0-39,39v63q0,39 39,39h69Z"/>
      <glyph unicode="&#xfd;" glyph-name="gid119" horiz-adv-x="602" d="M604,500L445,14q-13-41-37.5-85t-64-78.5t-96.5-49T112-197L98-84q62,13 98.5,34.5T252,14l37,80q11,25 19.5,64T322,224l59,276H604Zm-384,0l59-276q4-23 7-47t6-47h30L257,0H211q-24,0-41.5,13.5T145,49L-3,500H220ZM437,778l79-133L261,542l-57,86L437,778Z"/>
      <glyph unicode="&#xfe;" glyph-name="gid104" horiz-adv-x="620" d="M410,512q99,0 140.5-70T592,244q0-103-21.5-159T507,7.5T403-14Q346-14 295.5,3T214,62l16,82q20-7 39-14t49-7q21,0 34,7.5t18.5,33T376,242q0,54-5.5,79.5T353,354t-32,7q-25,0-40.5-5.5T250,342l-31,79q21,37 66,64t125,27ZM253,700V600q1-35-1.5-73T247,457l6-12V74l-6-12q2-32 4.5-70T253-81v-99H43V700H253Z"/>
      <glyph unicode="&#xff;" glyph-name="gid120" horiz-adv-x="602" d="M604,500L445,14q-13-41-37.5-85t-64-78.5t-96.5-49T112-197L98-84q62,13 98.5,34.5T252,14l37,80q11,25 19.5,64T322,224l59,276H604Zm-384,0l59-276q4-23 7-47t6-47h30L257,0H211q-24,0-41.5,13.5T145,49L-3,500H220ZM433,726q39,0 39-39V624q0-39-39-39H364q-39,0-39,39v63q0,39 39,39h69Zm-189,0q39,0 39-39V624q0-39-39-39H175q-39,0-39,39v63q0,39 39,39h69Z"/>
      <glyph unicode="&#x2013;" glyph-name="gid208" horiz-adv-x="529" d="M485,318V196H44V318H485Z"/>
      <glyph unicode="&#x2014;" glyph-name="gid209" horiz-adv-x="819" d="M775,318V196H44V318H775Z"/>
      <glyph unicode="&#x2018;" glyph-name="gid221" horiz-adv-x="221" d="M96,395q-35,0-48.5,14T33,460v58q0,69 15.5,111T91,710l68-22q-10-31-13-62.5T142,563q52,0 53-58l-2-45q-1-37-14-51t-48-14H96Z"/>
      <glyph unicode="&#x2019;" glyph-name="gid222" horiz-adv-x="218" d="M124,700q35,0 48.5-14T187,635V577q0-69-15.5-111T129,385L61,407q10,31 13,62.5T78,532q-52,0-53,58l2,45q1,37 14,51t48,14h35Z"/>
      <glyph unicode="&#x201a;" glyph-name="gid217" horiz-adv-x="232" d="M133,185q35,0 48.5-15.5T196,113V49q0-50-7-86.5t-20-66T138-162L70-137q10,34 13,68.5T87,0Q36,0 34,64l2,49q1,41 14.5,56.5T98,185h35Z"/>
      <glyph unicode="&#x201c;" glyph-name="gid219" horiz-adv-x="420" d="M96,395q-35,0-48.5,14T33,460v58q0,69 15.5,111T91,710l68-22q-10-31-13-62.5T142,563q52,0 53-58l-2-45q-1-37-14-51t-48-14H96Zm199,0q-35,0-48.5,14T232,460v58q0,69 15.5,111T290,710l68-22q-10-31-13-62.5T341,563q52,0 53-58l-2-45q-1-37-14-51t-48-14H295Z"/>
      <glyph unicode="&#x201d;" glyph-name="gid220" horiz-adv-x="417" d="M323,700q35,0 48.5-14T386,635V577q0-69-15.5-111T328,385l-68,22q10,31 13,62.5t4,62.5q-52,0-53,58l2,45q1,37 14,51t48,14h35Zm-199,0q35,0 48.5-14T187,635V577q0-69-15.5-111T129,385L61,407q10,31 13,62.5T78,532q-52,0-53,58l2,45q1,37 14,51t48,14h35Z"/>
      <glyph unicode="&#x201e;" glyph-name="gid218" horiz-adv-x="429" d="M331,153q35,0 48.5-14T394,88V30q0-69-15.5-111T336-162l-68,22q10,31 13,62.5T285-15q-52,0-53,58l2,45q1,37 14,51t48,14h35Zm-199,0q35,0 48.5-14T195,88V30q0-69-15.5-111T137-162L69-140q10,31 13,62.5T86-15Q34-15 33,43l2,45q1,37 14,51t48,14h35Z"/>
      <glyph unicode="&#x2022;" glyph-name="gid200" horiz-adv-x="381" d="M203,402q68,0 95-27t27-95V263q0-74-27-102t-95-28H186q-74,0-102,28T56,263v17q0,68 28,95t102,27h17Z"/>
      <glyph unicode="&#x2039;" glyph-name="gid225" horiz-adv-x="317" d="M179,470l110-69L203,251L289,95L179,26L21,229v44L179,470Z"/>
      <glyph unicode="&#x203a;" glyph-name="gid226" horiz-adv-x="317" d="M138,470L296,273V229L138,26L28,95l87,156L28,401l110,69Z"/>
    </font>
</defs>
</svg>
