<?xml version="1.0" standalone="no"?>
<!DOCTYPE svg PUBLIC "-//W3C//DTD SVG 1.1//EN" "http://www.w3.org/Graphics/SVG/1.1/DTD/svg11.dtd">
<svg xmlns="http://www.w3.org/2000/svg">
  <defs>
    <font id="Exo2" horiz-adv-x="526">
      <font-face font-family="Exo 2" units-per-em="1000" panose-1="0 0 0 0 0 0 0 0 0 0" ascent="999" descent="-201" alphabetic="0"/>
      <glyph unicode=" " glyph-name="gid185" horiz-adv-x="216"/>
      <glyph unicode="!" glyph-name="gid195" horiz-adv-x="301" d="M224,695V425L209,219H92L77,425V695H224ZM168,152q29,0 40.5-11.5T220,100V52q0-29-11.5-40.5T168,0H134Q104,0 93,11.5T82,52v48q0,29 11,40.5T134,152h34Z"/>
      <glyph unicode="&quot;" glyph-name="gid227" horiz-adv-x="373" d="M321,690l-9-222H223l-9,222H321Zm-161,0l-9-222H61L52,690H160Z"/>
      <glyph unicode="#" glyph-name="gid202" horiz-adv-x="713" d="M347,690L227,0H115L235,690H347Zm251,0L478,0H366L486,690H598Zm82-175l-18-89H75l17,89H680ZM638,286l-18-89H33l17,89H638Z"/>
      <glyph unicode="$" glyph-name="gid243" horiz-adv-x="580" d="M295,703q51,0 110-5.5T520,675L510,574q-43,1-101.5,2T294,577q-27,0-46-1.5t-31-8T200,548t-5-36q0-35 16.5-51T269,432l129-43q81-28 113-76t32-126q0-59-13.5-98T486,28T408-3.5T290-13q-34,0-96,4.5T52,14l9,109q58-1 101-2.5t74-1.5t53,0q39,0 61.5,5T382,143t9,42q0,24-6.5,38.5t-21,23T324,262L187,310q-78,29-110.5,76T44,510q0,60 14,97.5T102.5,666T181,695t114,8ZM262,358l49-1L269-118H220l42,476ZM369,794L326,357l-50,1l43,436h50Z"/>
      <glyph unicode="%" glyph-name="gid264" horiz-adv-x="908" d="M205,704q64,0 102-19.5T361,620t16-122q0-76-16-121t-54-65T205,292q-63,0-100.5,20t-54,65T34,498q0,77 16.5,122t54,64.5T205,704Zm0-82q-24,0-37-10t-18.5-36.5T144,498t5.5-77.5T168,384t37-10q25,0 38,10t18.5,36.5T267,498t-5.5,77.5T243,612t-38,10Zm501,68L293,0H200L613,690h93Zm-4-291q64,0 101.5-19.5t53.5-64T873,194q0-76-16-121.5t-53.5-65T702-12Q639-12 601.5,7.5t-54,65T531,194q0,77 16.5,121.5t54,64T702,399Zm-1-82q-24,0-37.5-9.5t-18.5-36T640,194t5-78t18.5-36.5T701,70q25,0 38,9.5T758,116t6,78t-6,77.5t-19,36T701,317Z"/>
      <glyph unicode="&amp;" glyph-name="gid230" horiz-adv-x="766" d="M341,702q32,0 75-1.5T504,690L486,587q-12,1-29,1.5t-37,1T379,590t-42,0q-42,0-66.5-6.5T236,557t-10-60q0-36 8.5-56t29-28t56.5-8H713V306H312q-39,0-61-9t-30.5-30T212,205q0-38 7.5-59T247,116.5t56-8.5q52,1 99,15t80,41l14-83q-29-33-62-54T359.5-3T260-12Q186-12 139.5,6T72,65T51,176q0,79 30,125.5T187,355v6q-63,6-89,45T72,520q0,61 15,97.5T134.5,672T218,696t123,6ZM607,513V157q0-27 11-39t37-12h62L734,8Q717,2 692.5-2.5t-48-7T605-12q-66,0-101.5,34T468,116V360l14,153H607Z"/>
      <glyph unicode="&apos;" glyph-name="gid228" horiz-adv-x="212" d="M160,690l-9-222H61L52,690H160Z"/>
      <glyph unicode="(" glyph-name="gid211" horiz-adv-x="366" d="M330,790l17-65q-89-40-126.5-145.5T183,313q0-105 16.5-188T252-14.5T347-100l-17-65Q179-117 109-1.5T39,312q0,199 70,315T330,790Z"/>
      <glyph unicode=")" glyph-name="gid212" horiz-adv-x="366" d="M36,790q151-47 221-163t70-315q0-198-70-313.5T36-165L19-100q59,29 95,85.5T166.5,125T183,313q0,161-37.5,266.5T19,725l17,65Z"/>
      <glyph unicode="*" glyph-name="gid201" horiz-adv-x="453" d="M268,692L256,523L362,394l-65-48L227,467L157,347L90,395L198,523L185,692h83ZM64,612l116-49l-1-36l-18-22L38,534l26,78Zm326,0l25-79L293,505l-19,22l-1,36l117,49Z"/>
      <glyph unicode="+" glyph-name="gid252" horiz-adv-x="537" d="M496,356V246H41V356H496ZM323,523V79H214l-1,444H323Z"/>
      <glyph unicode="," glyph-name="gid191" horiz-adv-x="242" d="M137,152q29,0 40-11.5T189,100V36q0-39-6.5-71T165-94t-27-53L78-129q8,33 11,63.5T93,0Q51,0 50,46l2,54q1,29 12.5,40.5T104,152h33Z"/>
      <glyph unicode="-" glyph-name="gid207" horiz-adv-x="414" d="M356,302V208H58v94H356Z"/>
      <glyph unicode="." glyph-name="gid190" horiz-adv-x="244" d="M141,152q29,0 40.5-11.5T193,100V52q0-29-11.5-40.5T141,0H103Q74,0 62.5,11.5T51,52v48q0,29 11.5,40.5T103,152h38Z"/>
      <glyph unicode="/" glyph-name="gid203" horiz-adv-x="553" d="M532,690L139-73H21L414,690H532Z"/>
      <glyph unicode="0" glyph-name="gid131" horiz-adv-x="631" d="M315,704q99,0 157.5-35t84-113.5T582,345T556.5,134.5T472.5,21T315-14T157.5,21T74,134.5T49,345T74,555.5T157.5,669T315,704Zm-1-120q-33,0-55-11t-35-37t-18.5-72.5T200,345q0-71 5.5-118T224,154t35-37t55-11q34,0 56.5,11t36,37t19,73T431,345q0,72-5.5,118.5t-19,72.5t-36,37T314,584Z"/>
      <glyph unicode="1" glyph-name="gid132" horiz-adv-x="432" d="M340,690V0H188V489q0,19 1,37.5t5,37.5L30,522L12,621l176,69H340Z"/>
      <glyph unicode="2" glyph-name="gid133" horiz-adv-x="581" d="M284,702q72,0 124-12.5T489,642t29-101q0-39-9.5-72.5t-34-69.5T404,314L223,127q25,4 50.5,5.5T325,134H538V0H44V82q0,18 5,33.5T65,144L237,328q61,63 93.5,112T362,525q-1,22-11.5,32T319,570t-52,3q-35,0-65.5-0.5t-65-2.5T56,564L50,678q49,11 88.5,16t75,6.5T284,702Z"/>
      <glyph unicode="3" glyph-name="gid134" horiz-adv-x="567" d="M272,704q82,0 131.5-14.5t72-49.5T498,543q0-48-9-84.5T457,399t-66-30v-4q71-11 98-54t28-119q1-72-22-117.5t-75.5-67T279-14q-60,0-121,5.5T40,5l6,112q40-3 71.5-4.5T178,110t59-1q49,0 77,8.5t40,31T366,212q0,32-8.5,53.5t-31.5,33T259,309l-131-1V409H259q33,0 52,7.5t28.5,20T352,466t3,37q-1,33-10.5,50t-33,23T246,582q-52,0-100.5-1.5T60,578L53,685q56,10 110.5,14.5T272,704Z"/>
      <glyph unicode="4" glyph-name="gid135" horiz-adv-x="637" d="M356,690L190,293q-7-16 0-24.5t21-8.5H607V169l-85-15H101q-28,0-48,15.5t-26.5,40T31,259L212,690H356ZM523,556V0H382V446l25,110H523Z"/>
      <glyph unicode="5" glyph-name="gid136" horiz-adv-x="552" d="M490,690l-5-115H198l-8-130l101-11q63-6 105.5-24T464,363t36-67t11-85q0-45-11-85.5T462.5,54T389,5.5T269-12q-48,0-108.5,5.5T38,9L52,126q49-5 95.5-8.5T230,114q53,0 80,11t37.5,33.5T360,215q1,33-7.5,52.5t-28,30.5t-51,15.5T196,321l-86,10q-21,3-34,17.5T64,384L81,690H490Z"/>
      <glyph unicode="6" glyph-name="gid137" horiz-adv-x="590" d="M341,702q25,0 70-2.5T505,683l-8-96q-26,1-48,1.5T402,589t-61,0q-44,0-72.5-9.5t-44-36.5t-21-79.5T198,326q0-69 3-113t13.5-68.5t32.5-34t61-9.5q45,0 66,14t27,43t6,74q0,44-8,69t-29.5,35T309,346q-28,0-51.5-7t-50-23.5T142,269l-4,58q33,50 63,77.5t66,38T353,453q77,0 119.5-22t60-69.5T550,235q0-61-9.5-107.5T504.5,50t-74-46.5T306-12Q231-12 181,4T102.5,58.5T62,164.5T50,334q0,120 18,193t54,111t91,51t128,13Z"/>
      <glyph unicode="7" glyph-name="gid138" horiz-adv-x="528" d="M443,690q25,0 41.5-11T507,650t-2-41L294,0H144L320,501q6,17 13,33t17,32H33L26,690H443Z"/>
      <glyph unicode="8" glyph-name="gid139" horiz-adv-x="623" d="M312,702q75,0 122-11t73.5-33T544,601t10-83q0-40-10.5-74.5t-33-57T451,360v-4q48-4 74-29.5T561,261t10-89q0-66-21-107T473,6T312-12Q209-12 153,6T75,65T53,172q0,49 10,89t36,65.5T173,356v4q-37,4-60,26.5t-33.5,57T69,518q0,48 10.5,83t37,57t74,33T312,702Zm2-395q-36,0-59-4.5t-36-16t-18-32T196,201q0-38 9.5-60t35-30.5T313,102q46,0 70.5,8.5T417,141t9,60q0,33-5,53.5t-17,32t-34,16T314,307Zm-1,289q-43,0-65.5-8T216,559t-9-60q0-37 9-56.5T248.5,416t66.5-7t65,7.5t29.5,27T417,499q0,39-8,60t-30.5,29T313,596Z"/>
      <glyph unicode="9" glyph-name="gid140" horiz-adv-x="590" d="M286,702q80,0 129.5-16.5t76-55.5T528,523.5T538,352q0-117-16-189T472,53T382.5,1.5T248-12q-27,0-74.5,2.5T71,7l8,97q29-1 51.5-1.5T180,102t68,0q45,0 73,11t43.5,39.5t21,79T391,360q0,70-2.5,115T376,545t-31.5,34.5T285,589q-44,0-65.5-14t-28-43.5T185,457q0-40 8-65.5t29-37T281,343q28,0 50.5,7.5t49,24.5T446,421l4-58q-33-50-63.5-77.5t-65.5-38T236,237q-75,0-117.5,27.5T58.5,341T41,454q0,86 21.5,140.5t75,81T286,702Z"/>
      <glyph unicode=":" glyph-name="gid192" horiz-adv-x="257" d="M142,451q29,0 40.5-11.5T194,399V351q0-29-11.5-40.5T142,299H104q-29,0-40.5,11.5T52,351v48q0,29 11.5,40.5T104,451h38Zm0-298q29,0 40.5-11.5T194,101V53q0-29-11.5-40.5T142,1H104Q75,1 63.5,12.5T52,53v48q0,29 11.5,40.5T104,153h38Z"/>
      <glyph unicode=";" glyph-name="gid193" horiz-adv-x="257" d="M149,451q29,0 40.5-11.5T201,399V351q0-29-11.5-40.5T149,299H111q-29,0-40.5,11.5T59,351v48q0,29 11.5,40.5T111,451h38Zm-4-299q29,0 40-11.5T197,100V36q0-39-6.5-71T173-94t-27-53L86-129q8,33 11,63.5T101,0Q59,0 58,46l2,54q1,29 12.5,40.5T112,152h33Z"/>
      <glyph unicode="&lt;" glyph-name="gid258" horiz-adv-x="517" d="M460,524V408L165,301L460,195V79L39,243V358L460,524Z"/>
      <glyph unicode="=" glyph-name="gid256" horiz-adv-x="578" d="M519,457V352H59V457H519Zm0-214V138H59V243H519Z"/>
      <glyph unicode="&gt;" glyph-name="gid257" horiz-adv-x="516" d="M57,524L476,358V243L57,79V195L351,301L57,408V524Z"/>
      <glyph unicode="?" glyph-name="gid197" horiz-adv-x="521" d="M274,712q109,0 162-37.5T489,557q0-44-17.5-76t-43-58.5t-52-54t-46-63T307,219H188q-2,53 11,92.5T233.5,381T277,435.5T314.5,482T332,527q3,35-19,50.5T239,593q-50,0-82.5-0.5t-59-2T37,588l-5,99q28,6 51.5,10t49,7.5t59,5.5t82.5,2Zm-9-560q29,0 40-11.5T316,100V52q0-29-11-40.5T265,0H229q-29,0-40,11.5T178,52v48q0,29 11,40.5T229,152h36Z"/>
      <glyph unicode="@" glyph-name="gid229" horiz-adv-x="760" d="M528,601q84,0 129.5-36.5T703,435V135H594l-12,69q-16-19-42.5-37.5t-60.5-30T405,125t-72.5,14T281,180.5T262,248v48q0,52 34,81.5T393,407H567v27q0,32-14.5,46T499,494H376q-61,0-97.5-5t-55-25.5t-24.5-67T193,268q0-68 4.5-111.5t17-67.5T252,54.5T317.5,42T418,40H702V-56q-70-6-141-9.5T419-69q-98,0-163,7T150.5-35.5T90,21T63.5,118.5T57,268q0,88 5.5,147T86,511t53,56.5T232,594t144,7H528Zm39-264l-124-5q-25-1-37-11.5T394,290V270q0-24 13.5-35.5T446,223q19,0 41,5.5t42.5,15T567,267v70Z"/>
      <glyph unicode="A" glyph-name="gid1" horiz-adv-x="653" d="M399,690q19,0 33.5-11T452,650L652,0H496L355,507q-4,17-8,34.5T340,575H313q-3-16-6.5-33.5T298,507L157,0H0L201,650q5,18 19.5,29T254,690H399ZM505,297V182H147V297H505Z"/>
      <glyph unicode="B" glyph-name="gid10" horiz-adv-x="640" d="M331,698q90,0 143.5-15.5T552,628t24-110q0-74-28.5-112.5T454,361v-6q80-7 112-53.5T598,172q0-71-24.5-110t-76-54.5T363-8Q296-8 246.5-7.5T155-5T69,0L84,106q24-1 92.5-2T336,103q42,0 66,8t33.5,29.5T445,202q0,43-10,65.5T400.5,299T333,309H83v97H331q37,1 58.5,8T420,441t9,56q0,37-9.5,56.5T387,580t-64,7q-56,0-99,0t-77-0.5T84,584L69,690q40,4 77.5,5.5t81.5,2T331,698Zm-112-8V0H69V690H219Z"/>
      <glyph unicode="C" glyph-name="gid11" horiz-adv-x="588" d="M339,702q49,0 83.5-2.5T486,692t60-14L534,566q-33,2-60.5,3t-59,1.5T339,571q-51,0-79.5-20T219,481.5T207,345t12-136.5T259.5,139T339,119q69,0 116,2t93,7L561,16Q513,1 463-5.5T339-12Q232-12 167.5,22.5T74.5,135T46,345T74.5,555t93,112.5T339,702Z"/>
      <glyph unicode="D" glyph-name="gid13" horiz-adv-x="683" d="M340,700q82,0 138.5-17.5t91-57.5T620,516.5T636,345T620,173.5T569.5,65t-91-57.5T340-10q-79,0-145,3T69,0l64,113q38-2 90.5-3.5T340,108q51,0 80.5,20.5t42,72.5T475,345T462.5,489t-42,73T340,583q-61,0-109-0.5T137,582L69,690q60,4 125.5,7T340,700ZM222,690V0H69V690H222Z"/>
      <glyph unicode="E" glyph-name="gid15" horiz-adv-x="578" d="M211,693q56,0 113-0.5T436,690t103-7l-7-111H267q-25,0-37.5-13T217,521V169q0-25 12.5-38T267,118H532L539,7Q491,3 436,0.5t-112-3T211-3Q145-3 104.5,35.5T64,136V554q0,63 40.5,101T211,693ZM82,413H495V305H82V413Z"/>
      <glyph unicode="F" glyph-name="gid20" horiz-adv-x="557" d="M216,693q53,0 108.5-0.5t109-3T533,682l-8-110H275q-27,0-41-13t-14-38V0H67V552q0,64 41,102.5T216,693ZM85,401H488V293H85V401Z"/>
      <glyph unicode="G" glyph-name="gid21" horiz-adv-x="648" d="M354,704q45,0 82-3t70.5-8T572,678L560,567q-35,2-68,3t-66,1.5T357,572q-43,0-71.5-9T240,529.5t-24.5-70T208,343q0-86 11-135t37-69.5T326,118q30,0 55,6t46,16.5T466,161l16-72q-15-21-44.5-45T366,3T270-14q-78,0-127.5,37T70,139.5T47,346q0,135 29.5,213t97,111.5T354,704ZM596,398V0H483L462,105l-14,28V398H596Z"/>
      <glyph unicode="H" glyph-name="gid22" horiz-adv-x="691" d="M223,690V0H70V690H223ZM479,425V310H215V425H479ZM621,690V0H468V690H621Z"/>
      <glyph unicode="I" glyph-name="gid23" horiz-adv-x="292" d="M222,690V0H70V690H222Z"/>
      <glyph unicode="J" glyph-name="gid28" horiz-adv-x="372" d="M305,690V136q0-72-41.5-110T147-12q-18,0-42.5,2.5T57-2.5T20,8l16,99H85q68,0 68,56V690H305Z"/>
      <glyph unicode="K" glyph-name="gid29" horiz-adv-x="634" d="M617,690L437,412q-11-18-24-31t-26-22v-3q14-8 30-24t26-34L629,0H458L245,361L452,690H617Zm-395,0V495q0-34-5-67.5T201,362q8-31 14.5-63.5T222,238V0H70V690H222Zm78-278V306H176V412H300Z"/>
      <glyph unicode="L" glyph-name="gid30" horiz-adv-x="536" d="M220,690V174q0-25 14-38t40-13H515L522,8Q451,0 373.5-1.5T219-3Q144-3 105.5,37.5T67,141V690H220Z"/>
      <glyph unicode="M" glyph-name="gid31" horiz-adv-x="915" d="M776,690q54,0 56-56L858,0H717L694,572H676L565,142q-9-48-60-48H409q-51,0-62,48L236,572H219L198,0H56L82,634q2,56 57,56H282q49,0 60-49l89-347q6-24 10-48.5t9-49.5h13q5,25 9.5,49.5T482,295l88,346q10,49 60,49H776Z"/>
      <glyph unicode="N" glyph-name="gid32" horiz-adv-x="722" d="M653,690V55q0-55-55-55H514q-25,0-38,11.5T452,46L261,408q-12,23-23.5,51T218,513H207q3-27 5-54.5t2-54.5V0H69V635q0,55 56,55h83q24,0 36.5-11.5T269,644L454,293q12-23 25-51t25-58h12q-3,30-4.5,58.5T510,299l-1,391H653Z"/>
      <glyph unicode="O" glyph-name="gid34" horiz-adv-x="688" d="M344,704q82,0 139-17.5t91.5-58t50.5-110T641,345T625,171.5t-50.5-110T483,3.5T344-14T205,3.5t-92,58t-51,110T46,345T62,518.5t51,110t92,58T344,704Zm0-121q-53,0-82.5-21t-42-72.5T207,345q0-92 12.5-144t42-73T344,107q52,0 81.5,21t42,73T480,345q0,93-12.5,144.5t-42,72.5T344,583Z"/>
      <glyph unicode="P" glyph-name="gid42" horiz-adv-x="618" d="M334,700q97,0 152-20t78.5-69T588,474T565.5,337T492,268.5T354,249q-46,0-90,4t-82,10t-65,12.5T80,288l3,76q59,0 122.5,0T331,364q40,1 62.5,10t32,33t9.5,67q0,44-9.5,68t-32,33.5T331,585q-92,0-158-1t-89-4L69,690q42,5 79,7t80.5,2.5T334,700ZM222,690V0H69V690H222Z"/>
      <glyph unicode="Q" glyph-name="gid44" horiz-adv-x="688" d="M344,704q82,0 139-17.5t92-58t50.5-110T641,345T625.5,171.5T575,61.5t-92-58T344-14T205,3.5t-92,58t-50.5,110T47,345T62.5,518.5t50.5,110t92,58T344,704ZM294-34q67-27 140-43.5T591-106L551-238q-90,22-163,55T258-113l36,79Zm50,617q-52,0-82-21t-42-72.5T208,345q0-92 12-144t42-73t82-21t81.5,21t42,73T480,345q0,93-12.5,144.5t-42,72.5T344,583Z"/>
      <glyph unicode="R" glyph-name="gid45" horiz-adv-x="647" d="M335,700q91,0 147.5-18.5t83-63T592,495q0-48-12.5-84.5T538,352t-79-28v-5q18-3 37.5-14T533,272.5T558,215L618,0H457L404,210q-9,34-26.5,47T329,270q-68,0-114.5,0.5t-78,1.5T80,274l3,111H332q40,0 63.5,8.5t33,30.5t9.5,61q0,40-9.5,61.5t-33,30T332,585q-94,0-159-1t-89-3L69,690q42,5 79,7t81,2.5T335,700ZM220,690V0H69V690H220Z"/>
      <glyph unicode="S" glyph-name="gid46" horiz-adv-x="586" d="M297,703q51,0 111-5.5T525,675L515,574q-44,1-103,2t-116,1q-28,0-47.5-1.5t-31.5-8T200,548t-5-36q0-35 16.5-51T268,432l133-43q83-28 115-76t32-126q0-59-14-98T490,28T411-3.5T291-13q-34,0-97,4.5T50,14L60,122q59-1 102.5-2.5t74.5-2t54-0.5q40,0 62.5,5T385,142t9,43q0,24-6.5,38.5t-21,23T327,262L187,310q-79,29-112,76T42,510q0,60 14.5,97.5t45,58.5t79,29T297,703Z"/>
      <glyph unicode="T" glyph-name="gid47" horiz-adv-x="602" d="M377,690V0H224V690H377Zm208,0V570H17V690H585Z"/>
      <glyph unicode="U" glyph-name="gid48" horiz-adv-x="686" d="M621,690V275q0-105-26-168.5t-85.5-92T351-14Q246-14 183,14.5t-91,92T64,275V690H217V275q0-65 11.5-101.5T268,122t75-15t74.5,15t39,51.5T468,275V690H621Z"/>
      <glyph unicode="V" glyph-name="gid53" horiz-adv-x="640" d="M632,690L444,42q-5-18-19.5-30T390,0H250q-21,0-35.5,12T196,42L7,690H165L291,192q4-19 8.5-38.5T307,115h26q3,19 7.5,39t9.5,39L475,690H632Z"/>
      <glyph unicode="W" glyph-name="gid54" horiz-adv-x="976" d="M950,690L837,42q-3-18-18-30T783,0H640q-20,0-35.5,12T586,43L509,492q-3,23-6,45.5T497,582H478q-2-22-5-45t-6-45L390,43q-3-19-18.5-31T336,0H192q-20,0-35.5,12T138,42L25,690H179l72-480q3-22 5-47t4-53h19q4,24 8.5,50.5T295,210l76,433q3,21 18,34t36,13H551q21,0 35.5-13T604,643l77-434q4-24 8-49.5t7-49.5h20q2,24 4.5,50t4.5,48l71,482H950Z"/>
      <glyph unicode="X" glyph-name="gid55" horiz-adv-x="644" d="M621,690L451,354L634,0H478L306,354L466,690H621Zm-443,0L338,354L166,0H10L192,354L23,690H178ZM396,403V309H239v94H396Z"/>
      <glyph unicode="Y" glyph-name="gid56" horiz-adv-x="612" d="M611,690L378,219H234L0,690H159L275,436q9-20 15-43t11-44h10q6,21 12,44t14,43L452,690H611ZM382,312V0H229V312H382Z"/>
      <glyph unicode="Z" glyph-name="gid58" horiz-adv-x="586" d="M372,577l168-1L207,113L38,114L372,577ZM548,114V0H38V114H548Zm-8,576V576H46V690H540Z"/>
      <glyph unicode="[" glyph-name="gid215" horiz-adv-x="346" d="M314,768V676H233q-18,0-18-19V-54q0-19 18-19h81v-92H154q-35,0-56.5,17T76-87V690q0,35 21.5,56.5T154,768H314Z"/>
      <glyph unicode="\" glyph-name="gid204" horiz-adv-x="553" d="M139,690L532-73H414L21,690H139Z"/>
      <glyph unicode="]" glyph-name="gid216" horiz-adv-x="346" d="M192,768q34,0 56-21.5T270,690V-87q0-35-22-56.5T192-165H32v92h81q18,0 18,19V657q0,19-18,19H32v92H192Z"/>
      <glyph unicode="^" glyph-name="gid262" horiz-adv-x="462" d="M285,627L432,402l-58-32L236,535h-8L88,370L30,402L178,627H285Z"/>
      <glyph unicode="_" glyph-name="gid210" horiz-adv-x="445" d="M445,0V-94H0V0H445Z"/>
      <glyph unicode="`" glyph-name="gid274" horiz-adv-x="354" d="M102,745L305,597l-43-63L38,646l64,99Z"/>
      <glyph unicode="a" glyph-name="gid60" horiz-adv-x="570" d="M321,507q62,0 105-16.5t65.5-56T514,326V0H396L375,107l-10,15V327q0,35-16.5,51T286,394q-38,0-95-2.5T74,385L60,483q36,7 83,12t94,8.5t84,3.5ZM453,304l-1-83l-220-1q-27,0-38.5-13T182,172V148q0-25 14-38.5T241,96q26,0 56.5,11T358,138t53,47V121q-9-15-26.5-37.5T340,39.5T277,3T195-12q-45,0-81,16T57,51T36,128v51q0,59 40,92t110,33H453Z"/>
      <glyph unicode="b" glyph-name="gid68" horiz-adv-x="594" d="M371,507q98,0 140.5-59.5T554,251q0-57-10.5-105t-37-83.5T433,7.5T311-12q-26,0-60,2.5t-69.5,7T114,9.5T59,27l118,85q19-6 42-10.5t47-6T308,95q34,1 54.5,14.5t29.5,47t9,93.5q0,55-7.5,85.5t-27,43T312,391q-33,0-60-14t-60-37l-11,70q26,28 56,50t64,34.5T371,507ZM207,700l1-160q0-34-3.5-65.5T192,413l14-13l1-380L59,27V700H207Z"/>
      <glyph unicode="c" glyph-name="gid69" horiz-adv-x="509" d="M290,507q27,0 59-2.5t64.5-9T473,477l-16-93q-40,1-76.5,2T315,387q-45,0-71-12t-37.5-42.5T195,248q0-55 11.5-86T244,119t71-12q16,0 41,1t54,2.5t57,5.5l14-94Q441,4 390-4T289-12q-92,0-146.5,25.5T64,96T40,248T64.5,400T144,482t146,25Z"/>
      <glyph unicode="d" glyph-name="gid71" horiz-adv-x="597" d="M229,507q52,0 100.5-15T415,443l-10-68q-34,10-61,18t-63,8q-31,0-50-11t-28-43t-9-95q0-59 8.5-89.5t27-42T277,109q26,0 45,5.5t38,17T403,160l11-73q-30-42-78-70.5T218-12Q123-12 82.5,56T42,251q0,99 20.5,154.5T125,484t104,23ZM536,700V0H419L404,91l-16,11V426l6,13q-3,31-4.5,62.5T388,566V700H536Z"/>
      <glyph unicode="e" glyph-name="gid73" horiz-adv-x="564" d="M294,507q125,0 179.5-42.5T528,338q1-68-34-101.5T373,203H97v83H332q34,0 43.5,14.5T385,341q-1,35-20.5,48.5T299,403q-41,0-64-11t-32-42t-9-90q0-62 11-95.5T242.5,118T316,105q34,0 84.5,2.5T502,116l14-91Q487,11 450,3T374-8.5T299-12q-94,0-151.5,27.5T64.5,100T39,246q0,97 26,154t82,82t147,25Z"/>
      <glyph unicode="f" glyph-name="gid78" horiz-adv-x="404" d="M267,721q18,0 47.5-1t60-3.5T427,710l-13-95H320q-38,0-53-15t-15-52V0H104V567q0,47 15.5,81T171,701.5T267,721ZM390,494V397H18v92l89,5H390Z"/>
      <glyph unicode="g" glyph-name="gid79" horiz-adv-x="581" d="M280,507q86,0 136.5-16t73-50T512,350q0-55-22-89.5T416.5,210T279,194T141.5,210t-74,50T45,350t22.5,90.5T142,491t138,16Zm-1-91q-55,0-76-14.5T182,350t21-52t76-15t75,15t20,52t-20,51.5T279,416Zm290,78l-8-63L429,414l-36,80H569ZM130,224l74-13q-14-8-19.5-25t2.5-32t35-18l182-21q78-8 110-43.5T546-32q0-64-26-98.5T437-178T285-191q-78,0-128.5,7.5T76.5-159t-41,44.5T24-46Q24-15 35,7.5T72.5,48T147,81l73,26l53-21L233,60q-25-18-40.5-30.5T170.5,5T164-27q0-23 10-35.5t36.5-17T283-84q48,0 75,4.5T395.5-63T406-29q0,19-7.5,28t-25,13.5T325,21L170,38q-39,4-61,21T78.5,100.5T74,150t18.5,45T130,224Z"/>
      <glyph unicode="h" glyph-name="gid80" horiz-adv-x="601" d="M404,507q140,0 140-137V0H395V324q0,33-11.5,45.5T343,382q-32,0-66-12t-84-39l-13,77q55,48 112,73.5T404,507ZM208,700l1-171q0-39-4.5-74T194,396l14-13V0H60V700H208Z"/>
      <glyph unicode="i" glyph-name="gid81" horiz-adv-x="276" d="M211,494V0H64V494H211ZM170,712q44,0 44-45V614q0-45-44-45H106q-44,0-44,45v53q0,45 44,45h64Z"/>
      <glyph unicode="j" glyph-name="gid88" horiz-adv-x="277" d="M213,494V23q0-45-15.5-87.5t-44-76.5T85-196L3-132Q37-94 51-58T65,23V494H213ZM170,717q43,0 43-44V619q0-45-43-45H105q-43,0-43,45v54q0,44 43,44h65Z"/>
      <glyph unicode="k" glyph-name="gid90" horiz-adv-x="559" d="M538,494L409,322q-9-14-23-27t-23-19v-4q9-5 23-21t23-32L555,0H390L221,278L373,494H538ZM208,700l1-289q0-35-4-68t-12-65q7-31 11-63.5t4-60.5V0H60V700H208Zm69-380V230H162v90H277Z"/>
      <glyph unicode="l" glyph-name="gid91" horiz-adv-x="328" d="M208,700V158q0-25 15-37.5T267,108h40L324,8Q312,2 290-2.5t-45-7T206-12q-67,0-106,35T61,121V700H208Z"/>
      <glyph unicode="m" glyph-name="gid92" horiz-adv-x="881" d="M686,507q67,0 102-35t35-102V0H676V324q0,31-12,44.5T622,382q-18,0-34-5t-37-16t-51-30l-8,82q48,47 94.5,70.5T686,507ZM178,494l15-98l15-13V0H60V494H178Zm200,13q66,0 100.5-34.5T513,370V0H371V324q0,32-13.5,45T316,382q-17,0-33.5-4.5t-38-15.5T192,331l-9,82q49,47 95,70.5T378,507Z"/>
      <glyph unicode="n" glyph-name="gid93" horiz-adv-x="601" d="M404,507q140,0 140-137V0H396V324q0,33-12,45.5T343,382q-32,0-66-12.5T193,331l-7,83q53,45 108.5,69T404,507ZM179,494l17-98l12-13V0H60V494H179Z"/>
      <glyph unicode="o" glyph-name="gid95" horiz-adv-x="590" d="M295,507q93,0 149-25.5T524.5,399T549,246q0-94-24.5-151T444,13T295-12q-92,0-148.5,25T65,95T40,246q0,96 25,153t81.5,82.5T295,507Zm0-108q-38,0-60-13t-31-46t-9-94q0-60 9-93t31-45.5T295,95t60,12.5T386,153t9,93q0,61-9,94t-31,46t-60,13Z"/>
      <glyph unicode="p" glyph-name="gid103" horiz-adv-x="600" d="M385,506q93,0 133-68t40-195q0-99-20.5-155t-62-78.5T372-13Q319-13 271,2T186,52l10,66q33-10 60.5-17.5T319,93q32,0 51,11t27.5,43.5T406,242q0,61-8,93.5t-26,45T325,393q-32,0-59-12.5T205,345l-19,68q20,27 51.5,48T307,494t78,12ZM180,494l14-90l14-15V68l-5-12q3-30 4.5-62.5T208-71V-190H60V494H180Z"/>
      <glyph unicode="q" glyph-name="gid105" horiz-adv-x="594" d="M285,507q25,0 58.5-2.5t69-7t67.5-12T535,469L416,382q-17,6-40.5,10.5t-47,6.5T287,400q-35-1-56-14.5T201.5,338T193,242q0-74 17-103.5T277,109q36,0 64.5,13T404,155l13-64q-23-26-54-49.5T295.5,3T218-12Q124-12 82.5,52.5T41,244q0,60 10.5,109t37,83T163,488.5T285,507Zm102-32l148-6V-190H387V-42q-1,34 3,66t12,61L387,98V475Z"/>
      <glyph unicode="r" glyph-name="gid106" horiz-adv-x="427" d="M176,494l18-98l14-13V0H60V494H176Zm241,13L403,370H362q-35,0-73-10t-96-30l-10,83q52,46 105,70t103,24h26Z"/>
      <glyph unicode="s" glyph-name="gid107" horiz-adv-x="531" d="M248,507q36,0 78-2.5t82-6.5t71-10l-10-92q-48,1-96.5,1.5T278,398q-39,1-60-1t-29.5-9.5T180,361q0-22 15-29.5T245,315l129-31q62-16 92-47.5T496,142q0-62-23-95T400,1.5T271-11q-31,0-92,3T45,7L55,99q18-1 46-1.5T162,97t66,0q51,0 78,2.5T343,111t10,27q0,22-17,30t-54,17L157,216q-47,13-73,33T47.5,298T37,367q0,51 20.5,81.5t67,44.5T248,507Z"/>
      <glyph unicode="t" glyph-name="gid109" horiz-adv-x="410" d="M253,631V158q0-27 12.5-38.5T307,108h64L387,8Q369,2 343-2.5t-52-7T247-12q-67,0-104.5,36T105,125V631H253ZM391,494V397H18v92l96,5H391Z"/>
      <glyph unicode="u" glyph-name="gid110" horiz-adv-x="593" d="M205,494V169q0-31 13.5-44T262,112q31,0 61.5,11.5T399,160l12-81Q357,32 305,9T198-14Q57-14 57,124V494H205Zm327,0V0H415L398,97l-14,14V494H532Z"/>
      <glyph unicode="v" glyph-name="gid115" horiz-adv-x="566" d="M558,494L395,35q-6-16-18.5-25.5T347,0H218q-17,0-29.5,9.5T170,35L7,494H164l91-309q6-22 11-45t10-44h13q6,22 11.5,44.5T312,185l89,309H558Z"/>
      <glyph unicode="w" glyph-name="gid116" horiz-adv-x="850" d="M834,494L712,39q-4-18-18-28.5T661,0H549q-20,0-35,12.5T496,45L442,323q-3,21-5,41.5T431,406H419q-3-21-6-41.5T407,323L353,45q-3-20-18-32.5T300,0H189q-19,0-33,10.5T138,39L16,494H165l68-320q4-20 7-40.5T245,93h13q3,20 6.5,40.5T271,174l54,275q3,20 17,32.5T377,494h96q20,0 34.5-12.5T525,448l53-274q3-20 7-40t7-41h12q4,21 6.5,40.5T617,174l68,320H834Z"/>
      <glyph unicode="x" glyph-name="gid117" horiz-adv-x="567" d="M546,494L403,253L557,0H407L261,253L396,494H546Zm-375,0L306,253L161,0H10L164,253L21,494H171ZM362,301V209H206v92H362Z"/>
      <glyph unicode="y" glyph-name="gid118" horiz-adv-x="566" d="M557,494L380-6q-12-37-33.5-74.5t-54-67.5t-78-45.5T107-201L96-117q61,16 95,43T244-3l31,69q9,22 17.5,53.5T307,174l92,320H557Zm-392,0l94-320q4-19 8-38t7-38h27L254,0H218q-17,0-30,10T170,36L7,494H165Z"/>
      <glyph unicode="z" glyph-name="gid121" horiz-adv-x="526" d="M312,392l170-1L209,101L39,102L312,392ZM487,102V0H39V102H487Zm-5,392V391H43V494H482Z"/>
      <glyph unicode="{" glyph-name="gid213" horiz-adv-x="339" d="M303,768V677q-44,0-60-12t-16-50V464q1-42-7.5-69.5t-31-43.5T124,328q42-12 65-29.5T221.5,256t9.5-60V-14q0-37 16-48.5T307-74v-91q-77-10-125,5.5T111.5-109T89-25V213q0,24-5.5,35.5T66,266T34,280v96q21,7 32,12t15,17.5T85,447V628q0,50 22.5,84.5t70.5,50T303,768Z"/>
      <glyph unicode="|" glyph-name="gid239" horiz-adv-x="261" d="M183,781V-169H78V781H183Z"/>
      <glyph unicode="}" glyph-name="gid214" horiz-adv-x="340" d="M36,768q78,10 126-5.5t70-50T254,628V447q0-29 4-41.5T273.5,388T306,376V280q-20-8-32.5-14t-18-17.5T250,213V-25q0-49-22-84t-70-50.5T32-165v91q45,0 61,11.5T109-14V196q1,35 10,60t32,42.5T215,328q-41,7-63.5,23t-31,43.5T113,464V615q0,38-16,50T36,677v91Z"/>
      <glyph unicode="~" glyph-name="gid260" horiz-adv-x="512" d="M142,362q22,0 50.5-7.5t58-16.5T306,321t43-10q25-3 31,8t6,38h66q12-73-13-109t-68-35q-24,1-52.5,8t-58,16t-55,17T163,264q-25,4-30.5-7.5T127,217H61q-8,51 2,83.5T94,348t48,14Z"/>
      <glyph unicode="&#xa0;" glyph-name="gid186" horiz-adv-x="216"/>
      <glyph unicode="&#xa1;" glyph-name="gid196" horiz-adv-x="284" d="M200,288L216,81V-185H69V81L84,288H200ZM160,507q29,0 40.5-11.5T212,454V407q0-30-11.5-41T160,355H126q-30,0-41.5,11T73,407v47q0,30 11.5,41.5T126,507h34Z"/>
      <glyph unicode="&#xa2;" glyph-name="gid241" horiz-adv-x="525" d="M291,608q26,0 58.5-3t65.5-9.5T475,577l-16-89q-41,3-77.5,3.5T316,492q-50,0-78.5-12T197,436.5T185,348t12-88.5t40.5-44T316,203q16,0 41,0.5t54.5,2.5t57.5,6l14-89q-41-19-92-26.5T290,89q-92,0-147,25T63.5,196T39,348q0,96 24.5,152.5t80,82T291,608Zm21-454L295,0H245l17,154h50Zm39,369L314,153H263l38,370h50Zm21,167L353,522H303l18,168h51Z"/>
      <glyph unicode="&#xa3;" glyph-name="gid245" horiz-adv-x="586" d="M318,703q21,0 54-1t72.5-3t79.5-6l-7-113q-17,0-30.5,0.5t-31,1T410,582t-74,0q-44,0-61-16t-15-57l19-225q3-46-5.5-77t-26-52T206,115q19,5 38,5.5t38,0.5H547V0H50V121q52,26 66.5,68T127,284L111,515q-4,58 8,95t38,57t66.5,28t94.5,8ZM460,403l-3-79H47l-2,79H460Z"/>
      <glyph unicode="&#xa4;" glyph-name="gid242" horiz-adv-x="584" d="M291,471q-31,0-57.5-16T191,412t-16-59q0-33 16-60t42.5-42.5T291,235q32,0 58.5,15.5T392,293t16,60q0,32-16,59t-42.5,43T291,471ZM114,592l85-86l-61-61L52,530l62,62Zm358,0l62-62l-83-83l-62,62l83,83ZM140,270l66-67l-92-92L48,178l92,92Zm303-8l91-90l-62-61l-90,89l61,62ZM291,555q57,0 102.5-27.5t73-73.5T494,352T466.5,250T393,176.5T292,149q-56,0-102,27.5T116.5,250T89,352t27.5,102T190,527.5T291,555Z"/>
      <glyph unicode="&#xa5;" glyph-name="gid246" horiz-adv-x="664" d="M637,690L404,230H260L27,690H184L300,444q10-20 16-43t12-44h10q6,21 12.5,44.5T365,444L479,690H637ZM409,323V0H256V323H409ZM571,219V143H97l-2,76H571Zm0,122V264H97l-2,77H571Z"/>
      <glyph unicode="&#xa6;" glyph-name="gid240" horiz-adv-x="263" d="M184,781V381H79V781H184Zm0-550V-169H79V231H184Z"/>
      <glyph unicode="&#xa7;" glyph-name="gid232" horiz-adv-x="555" d="M171,359q-2-40 3.5-64.5t22.5-42T247,217l159-87q25-14 48-32t38.5-48.5T508-31q0-62-26.5-94.5T405-169T284-180q-26,1-65.5,2T136-174t-79,6L67-63q29-1 54-2t53-1.5T241-67q35,0 58.5,2.5t36,11T349-26q3,26-13.5,41T296,42L157,114q-55,28-80,62.5T51,256T67,359H171ZM272,704q26,0 66-1.5t83-4t77-6.5L488,587q-26,2-49.5,2.5t-52,0.5T315,590q-35,1-59-1.5T219.5,578T206,551q-3-26 13.5-41T260,483l139-72q56-28 80.5-63t25-79.5T488,166H384q2,39-3.5,63.5T358,272t-50,36L149,396q-24,14-47.5,32t-39,48T47,556q0,60 25.5,92t76,44T272,704Z"/>
      <glyph unicode="&#xa8;" glyph-name="gid272" horiz-adv-x="424" d="M328,707q32,0 32-32V616q0-32-32-32H279q-31,0-31,32v59q0,32 31,32h49Zm-183,0q31,0 31-32V616q0-32-31-32H96q-31,0-31,32v59q0,32 31,32h49Z"/>
      <glyph unicode="&#xa9;" glyph-name="gid233" horiz-adv-x="809" d="M405,704q75,0 140.5-26.5t115-74.5T738,489t28-144T738,201T660.5,87t-115-74.5T405-14q-76,0-142,26.5t-115,75t-77,114T43,345T71,489t77,114t115,74.5T405,704Zm4-150q48,0 77-3.5T546,539l-10-78q-32,0-58.5,0.5T408,462q-31,0-49-10t-24.5-35T328,346q0-45 6.5-70T359,241t49-10q46,0 77,0.5t62,3.5l8-78q-32-9-64.5-13.5T409,139q-71,0-114,20t-62,65.5T214,346q0,77 19,122.5T295,534t114,20Zm-5,78q-59,0-110.5-21.5t-91-60t-62-90.5T118,345q0-62 22.5-114.5t62-91t91.5-60T404,58q60,0 112,21.5t91,60t61.5,91T691,345T668.5,459.5t-61.5,91t-91,60T404,632Z"/>
      <glyph unicode="&#xaa;" glyph-name="gid129" horiz-adv-x="437" d="M248,615q64,0 98.5-26.5T381,490V275H294l-15,72l-6,11V491q0,21-11,31.5T224,533q-30,0-69.5-1.5T74,527L64,600q24,4 56,7.5t66,5.5t62,2Zm89-137l-1-47L189,419q-20-1-28.5-8.5T152,390V377q0-16 10-24t30-8t41,8.5t40.5,22T306,403V362q-6-11-18.5-27t-31-32T212,277t-58-10q-45,0-76,23T47,358v36q0,39 27,61.5T149,478H337Z"/>
      <glyph unicode="&#xab;" glyph-name="gid223" horiz-adv-x="519" d="M399,465l78-50L371,251L478,82L400,32L240,235v32L399,465Zm-208,0l78-50L163,251L270,82L192,32L32,235v32L191,465Z"/>
      <glyph unicode="&#xac;" glyph-name="gid261" horiz-adv-x="580" d="M518,356V251H57V356H518Zm0-10V135H407V340l111,6Z"/>
      <glyph unicode="&#xae;" glyph-name="gid234" horiz-adv-x="523" d="M262,703q62,0 112-30t80-80t30-112T454,368.5T374,288T262,258T149.5,288T69,368.5T39,481T69,593t80.5,80T262,703ZM225,600V367H162V600h63Zm37,60q-49,0-89.5-24.5t-65-65T83,481t24.5-90t65-65T262,302t89,24t64,65t24,90t-24,89.5t-64,65T262,660Zm7-57q54,0 78.5-14.5T372,534q0-22-12-37.5T318,477v-1q11-1 23-8.5T358,440l23-73H315l-19,70q-5,12-11.5,15.5T266,456q-42,0-63,0t-36,1l1,39h98q25,1 34,7.5t8,23.5q1,19-8,25t-34,6q-35,0-61.5,0T169,556l-7,44q26,2 47.5,2.5T269,603Z"/>
      <glyph unicode="&#xaf;" glyph-name="gid280" horiz-adv-x="400" d="M350,693V599H50v94H350Z"/>
      <glyph unicode="&#xb0;" glyph-name="gid236" horiz-adv-x="344" d="M172,704q37,0 68-18t49.5-48.5T308,571q0-37-18.5-68T240,454t-68-18t-68,18T54.5,503T36,571q0,36 18.5,66T104,685.5T172,704Zm1-72q-26,0-44-17t-18-45q0-17 8.5-31.5T142,516t31-8q16,0 29.5,8t22,22.5T233,570q0,28-17.5,45T173,632Z"/>
      <glyph unicode="&#xb1;" glyph-name="gid259" horiz-adv-x="573" d="M514,428V319H59V428H514Zm0-274V44H59V154H514ZM341,549V199H232V549H341Z"/>
      <glyph unicode="&#xb2;" glyph-name="gid177" horiz-adv-x="423" d="M201,777q55,0 92-8t55-31.5T366,670q0-26-18-57t-54-65L188,451q17,4 30.5,5t30.5,0l131-2l-1-94H47v57q0,14 3.5,25.5T63,463l100,94q24,22 40.5,39.5t26.5,32T242,655q3,18-11.5,23T190,683q-32,0-61.5-1T55,679l-4,85q48,9 87.5,11t62.5,2Z"/>
      <glyph unicode="&#xb3;" glyph-name="gid178" horiz-adv-x="409" d="M201,779q85,0 119-20.5T354,683q0-45-15-71t-60-33v-2q49-7 67.5-31.5T366,474q1-66-36-94.5T204,351q-41,0-82,3.5T44,363l4,82q28-2 48-2.5t38.5-1T173,441q46,0 61,10t15,38q0,14-4.5,24T227,528.5T187,534l-86,1v72l86,3q26,0 38,6t15.5,15.5T243,653q0,22-12,29t-50,7q-34,0-67-0.5T56,687l-4,79q38,6 75.5,9.5T201,779Z"/>
      <glyph unicode="&#xb4;" glyph-name="gid275" horiz-adv-x="353" d="M247,739l64-100L88,528L44,591L247,739Z"/>
      <glyph unicode="&#xb5;" glyph-name="gid263" horiz-adv-x="607" d="M208,494V181q0-41 14.5-54T263,114q31,0 58,21.5t44.5,61T384,289l3-196q-14-29-38-53T294,1.5T226-13q-46,0-83.5,14t-60,46T60,131V494H208Zm-1-393V-70L189-190H60V184l147-83ZM531,494V135q0-16 2-27t7.5-16.5T558,86h31l6-76Q572,1 543-5.5T483-12q-42,0-69,22T387,79V93l-3,16V494H531Z"/>
      <glyph unicode="&#xb6;" glyph-name="gid231" horiz-adv-x="607" d="M352,702q35,0 83.5-3.5T523,685l-6-85q-25,5-57.5,7.5t-64,3.5T340,612L272,200Q142,210 86,268T30,450q0,93 32,148t103,79.5T352,702Zm7-17V-210H262V685h97Zm164,0V0H427V685h96Z"/>
      <glyph unicode="&#xb7;" glyph-name="gid199" horiz-adv-x="251" d="M144,334q29,0 40.5-11.5T196,282V234q0-29-11.5-40.5T144,182H106q-29,0-40.5,11.5T54,234v48q0,29 11.5,40.5T106,334h38Z"/>
      <glyph unicode="&#xb8;" glyph-name="gid281" horiz-adv-x="249" d="M81-38q51,6 83,3.5t47-18T225-103q-2-50-29-82.5T124-231T24-237l17,62q37-1 62.5,12.5T131-116q2,15-10.5,18T67-94L81-38Z"/>
      <glyph unicode="&#xb9;" glyph-name="gid176" horiz-adv-x="308" d="M243,771V360H129V630q0,12 1,24t3,25L31,657L18,730l111,41H243Z"/>
      <glyph unicode="&#xba;" glyph-name="gid130" horiz-adv-x="439" d="M220,615q97,0 137-39.5T397,439q0-62-17.5-100.5t-56-55T220,267q-98,0-137.5,38.5T43,439q0,97 39.5,136.5T220,615Zm0-78q-37,0-50.5-19T156,440q0-58 13.5-77T220,344t50,19t13,77q0,59-13,78t-50,19Z"/>
      <glyph unicode="&#xbb;" glyph-name="gid224" horiz-adv-x="519" d="M119,465L278,267V235L118,32L40,82L147,251L41,415l78,50Zm208,0L486,267V235L327,32L249,82L355,251L250,415l77,50Z"/>
      <glyph unicode="&#xbc;" glyph-name="gid173" horiz-adv-x="904" d="M664,690L247,0H154L570,690h94Zm-413,0V276H137V549q0,12 1,24t4,25L41,577L28,649l109,41H251ZM709,414L607,180q-3-8 0.5-12t12.5-4H871V96L820,86H536q-27,0-42,19t-2,46L607,414H709Zm115-81V0H719V269l19,64h86Z"/>
      <glyph unicode="&#xbd;" glyph-name="gid172" horiz-adv-x="915" d="M661,690L244,0H150L567,690h94Zm-410,0V276H137V549q0,12 1,24t4,25L41,577L28,649l109,41H251ZM696,421q56,0 93-8t55-31t18-68q0-26-18-57t-54-65L683,92q17,4 31,5t31,0l131-2L875,0H543V59q0,14 3.5,25T559,105l100,94q35,33 55.5,58T739,300q2,18-12,22.5T685,327q-33,0-61.5-0.5T551,324l-4,84q49,9 87,11t62,2Z"/>
      <glyph unicode="&#xbe;" glyph-name="gid174" horiz-adv-x="986" d="M753,690L336,0H242L658,690h95Zm-553,6q87,0 120.5-20.5T354,599q0-44-15-71t-62-34v-2q51-7 69-31.5T365,388q2-66-34.5-94.5T203,265q-40,0-81,3.5T43,276l4,82q28-1 48.5-1.5t38.5-1t38-0.5q46,0 61.5,10T249,404q0,16-4.5,26T227,445.5T187,451l-86,1v70l86,2q26,0 38,6t15,16t3,23q0,23-12.5,30T180,606q-35,1-67,0.5T56,605l-4,79q38,6 74.5,9t73.5,3ZM792,414L690,180q-3-8 1-12t13-4H954V96L903,86H619q-27,0-42,19t-2,46L689,414H792Zm114-81V0H801V269l18,64h87Z"/>
      <glyph unicode="&#xbf;" glyph-name="gid198" horiz-adv-x="516" d="M331,290q2-53-11.5-92.5T285,128T242,73.5T204.5,27T187-19q-3-34 19-49.5T280-84q51,0 82.5,0.5T421-82t61,3l5-100q-29-5-52-9.5t-48.5-8t-59-5T245-203q-108,0-161.5,38T30-48Q30-4 47,28T90,86.5T142.5,141t46,63T212,290H331ZM289,509q30,0 41-11.5T341,457V408q0-29-11-40t-41-11H255q-30,0-41,11t-11,40v49q0,29 11,40.5T255,509h34Z"/>
      <glyph unicode="&#xc0;" glyph-name="gid6" horiz-adv-x="653" d="M399,690q19,0 33.5-11T452,650L652,0H496L355,507q-4,17-8,34.5T340,575H313q-3-16-6.5-33.5T298,507L157,0H0L201,650q5,18 19.5,29T254,690H399ZM505,297V182H147V297H505ZM203,941L406,793l-43-63L139,842l64,99Z"/>
      <glyph unicode="&#xc1;" glyph-name="gid2" horiz-adv-x="653" d="M399,690q19,0 33.5-11T452,650L652,0H496L355,507q-4,17-8,34.5T340,575H313q-3-16-6.5-33.5T298,507L157,0H0L201,650q5,18 19.5,29T254,690H399ZM505,297V182H147V297H505ZM443,935l64-100L284,724l-44,63L443,935Z"/>
      <glyph unicode="&#xc2;" glyph-name="gid4" horiz-adv-x="653" d="M399,690q19,0 33.5-11T452,650L652,0H496L355,507q-4,17-8,34.5T340,575H313q-3-16-6.5-33.5T298,507L157,0H0L201,650q5,18 19.5,29T254,690H399ZM505,297V182H147V297H505ZM381,910L515,776l-39-53L332,818h-8L177,723l-39,57L274,910H381Z"/>
      <glyph unicode="&#xc3;" glyph-name="gid8" horiz-adv-x="653" d="M399,690q19,0 33.5-11T452,650L652,0H496L355,507q-4,17-8,34.5T340,575H313q-3-16-6.5-33.5T298,507L157,0H0L201,650q5,18 19.5,29T254,690H399ZM505,297V182H147V297H505ZM234,897q25-2 45-8.5T317.5,874t37-15.5T393,848q26-4 32.5,7t6.5,37h64q11-71-14-107.5T414,751q-34,3-61.5,13.5t-51,22T254,801q-25,3-31.5-8T216,755H152q-7,50 3,82t32,47t47,13Z"/>
      <glyph unicode="&#xc4;" glyph-name="gid5" horiz-adv-x="653" d="M399,690q19,0 33.5-11T452,650L652,0H496L355,507q-4,17-8,34.5T340,575H313q-3-16-6.5-33.5T298,507L157,0H0L201,650q5,18 19.5,29T254,690H399ZM505,297V182H147V297H505ZM442,884q32,0 32-32V793q0-32-32-32H393q-31,0-31,32v59q0,32 31,32h49Zm-183,0q31,0 31-32V793q0-32-31-32H210q-31,0-31,32v59q0,32 31,32h49Z"/>
      <glyph unicode="&#xc5;" glyph-name="gid7" horiz-adv-x="653" d="M399,690q19,0 33.5-11T452,650L652,0H496L355,507q-4,17-8,34.5T340,575H313q-3-16-6.5-33.5T298,507L157,0H0L201,650q5,18 19.5,29T254,690H399ZM505,297V182H147V297H505ZM328,944q32,0 59-15.5T430,887t16-58t-16-58.5t-43-42T328,713t-59.5,15.5T225,770t-16,59q0,32 16,58t43.5,41.5T328,944Zm-1-63q-21,0-36-14.5T276,828q0-23 15-37.5T327,776q23,0 37.5,14.5T379,828q0,24-14.5,38.5T327,881Z"/>
      <glyph unicode="&#xc6;" glyph-name="gid9" horiz-adv-x="934" d="M572,692q94,0 169-1.5T894,683l-6-110H642q-24,0-38.5-14.5T589,520V168q0-25 13.5-38T642,117H888L894,7Q820,0 738.5-1.5T577-3q-60,0-95.5,39T446,136V528q0,18 6.5,37T469,595H458q-10-9-20.5-23.5T418,541L147,0H-10L282,558q18,37 40.5,62.5t55,41t79.5,23T572,692ZM483,304V193H153l5,111H483ZM457,411l394-1V307H457V411Z"/>
      <glyph unicode="&#xc7;" glyph-name="gid12" horiz-adv-x="588" d="M339,702q49,0 83.5-2.5T486,692t60-14L534,566q-33,2-60.5,3t-59,1.5T339,571q-51,0-79.5-20T219,481.5T207,345t12-136.5T259.5,139T339,119q69,0 116,2t93,7L561,16Q513,1 463-5.5T339-12Q232-12 167.5,22.5T74.5,135T46,345T74.5,555t93,112.5T339,702ZM268-60q51,6 83,3.5t47-18T412-125q-2-50-29-82.5T311-253t-100-6l17,62q37-1 62.5,12.5T318-138q2,15-10.5,18T254-116l14,56Z"/>
      <glyph unicode="&#xc8;" glyph-name="gid19" horiz-adv-x="578" d="M211,693q56,0 113-0.5T436,690t103-7l-7-111H267q-25,0-37.5-13T217,521V169q0-25 12.5-38T267,118H532L539,7Q491,3 436,0.5t-112-3T211-3Q145-3 104.5,35.5T64,136V554q0,63 40.5,101T211,693ZM82,413H495V305H82V413ZM192,951L395,803l-43-63L128,852l64,99Z"/>
      <glyph unicode="&#xc9;" glyph-name="gid16" horiz-adv-x="578" d="M211,693q56,0 113-0.5T436,690t103-7l-7-111H267q-25,0-37.5-13T217,521V169q0-25 12.5-38T267,118H532L539,7Q491,3 436,0.5t-112-3T211-3Q145-3 104.5,35.5T64,136V554q0,63 40.5,101T211,693ZM82,413H495V305H82V413ZM432,945l64-100L273,734l-44,63L432,945Z"/>
      <glyph unicode="&#xca;" glyph-name="gid17" horiz-adv-x="578" d="M211,693q56,0 113-0.5T436,690t103-7l-7-111H267q-25,0-37.5-13T217,521V169q0-25 12.5-38T267,118H532L539,7Q491,3 436,0.5t-112-3T211-3Q145-3 104.5,35.5T64,136V554q0,63 40.5,101T211,693ZM82,413H495V305H82V413ZM370,919L504,785l-39-53L321,827h-8L166,732l-39,57L263,919H370Z"/>
      <glyph unicode="&#xcb;" glyph-name="gid18" horiz-adv-x="578" d="M211,693q56,0 113-0.5T436,690t103-7l-7-111H267q-25,0-37.5-13T217,521V169q0-25 12.5-38T267,118H532L539,7Q491,3 436,0.5t-112-3T211-3Q145-3 104.5,35.5T64,136V554q0,63 40.5,101T211,693ZM82,413H495V305H82V413ZM431,894q32,0 32-32V803q0-32-32-32H382q-31,0-31,32v59q0,32 31,32h49Zm-183,0q31,0 31-32V803q0-32-31-32H199q-31,0-31,32v59q0,32 31,32h49Z"/>
      <glyph unicode="&#xcc;" glyph-name="gid27" horiz-adv-x="292" d="M222,690V0H70V690H222ZM22,945L225,797l-43-63L-42,846l64,99Z"/>
      <glyph unicode="&#xcd;" glyph-name="gid24" horiz-adv-x="292" d="M222,690V0H70V690H222Zm40,249l64-100L103,728L59,791L262,939Z"/>
      <glyph unicode="&#xce;" glyph-name="gid25" horiz-adv-x="292" d="M222,690V0H70V690H222ZM200,913L334,779l-39-53L151,821h-8L-4,726l-39,57L93,913H200Z"/>
      <glyph unicode="&#xcf;" glyph-name="gid26" horiz-adv-x="292" d="M222,690V0H70V690H222Zm39,198q32,0 32-32V797q0-32-32-32H212q-31,0-31,32v59q0,32 31,32h49ZM78,888q31,0 31-32V797q0-32-31-32H29q-31,0-31,32v59q0,32 31,32H78Z"/>
      <glyph unicode="&#xd0;" glyph-name="gid14" horiz-adv-x="685" d="M350,400V323H14v77H350Zm-8,300q82,0 138.5-17.5t91-57.5T622,516.5T638,345T622,173.5T571.5,65t-91-57.5T342-10q-79,0-145,3T71,0l64,113q38-2 90.5-3.5T342,108q51,0 80.5,20.5t42,72.5T477,345T464.5,489t-42,73T342,583q-61,0-109-0.5T139,582L71,690q60,4 125.5,7T342,700ZM224,690V0H71V690H224Z"/>
      <glyph unicode="&#xd1;" glyph-name="gid33" horiz-adv-x="722" d="M653,690V55q0-55-55-55H514q-25,0-38,11.5T452,46L261,408q-12,23-23.5,51T218,513H207q3-27 5-54.5t2-54.5V0H69V635q0,55 56,55h83q24,0 36.5-11.5T269,644L454,293q12-23 25-51t25-58h12q-3,30-4.5,58.5T510,299l-1,391H653ZM279,900q25-2 45-8.5T362.5,877t37-15.5T438,851q26-4 32.5,7t6.5,37h64q11-71-14-107.5T459,754q-34,3-61.5,13.5t-51,22T299,804q-25,3-31.5-8T261,758H197q-7,50 3,82t32,47t47,13Z"/>
      <glyph unicode="&#xd2;" glyph-name="gid38" horiz-adv-x="688" d="M344,704q82,0 139-17.5t91.5-58t50.5-110T641,345T625,171.5t-50.5-110T483,3.5T344-14T205,3.5t-92,58t-51,110T46,345T62,518.5t51,110t92,58T344,704Zm0-121q-53,0-82.5-21t-42-72.5T207,345q0-92 12.5-144t42-73T344,107q52,0 81.5,21t42,73T480,345q0,93-12.5,144.5t-42,72.5T344,583ZM220,945L423,797l-43-63L156,846l64,99Z"/>
      <glyph unicode="&#xd3;" glyph-name="gid35" horiz-adv-x="688" d="M344,704q82,0 139-17.5t91.5-58t50.5-110T641,345T625,171.5t-50.5-110T483,3.5T344-14T205,3.5t-92,58t-51,110T46,345T62,518.5t51,110t92,58T344,704Zm0-121q-53,0-82.5-21t-42-72.5T207,345q0-92 12.5-144t42-73T344,107q52,0 81.5,21t42,73T480,345q0,93-12.5,144.5t-42,72.5T344,583ZM460,949l64-100L301,738l-44,63L460,949Z"/>
      <glyph unicode="&#xd4;" glyph-name="gid36" horiz-adv-x="688" d="M344,704q82,0 139-17.5t91.5-58t50.5-110T641,345T625,171.5t-50.5-110T483,3.5T344-14T205,3.5t-92,58t-51,110T46,345T62,518.5t51,110t92,58T344,704Zm0-121q-53,0-82.5-21t-42-72.5T207,345q0-92 12.5-144t42-73T344,107q52,0 81.5,21t42,73T480,345q0,93-12.5,144.5t-42,72.5T344,583Zm54,330L532,779l-39-53L349,821h-8L194,726l-39,57L291,913H398Z"/>
      <glyph unicode="&#xd5;" glyph-name="gid40" horiz-adv-x="688" d="M344,704q82,0 139-17.5t91.5-58t50.5-110T641,345T625,171.5t-50.5-110T483,3.5T344-14T205,3.5t-92,58t-51,110T46,345T62,518.5t51,110t92,58T344,704Zm0-121q-53,0-82.5-21t-42-72.5T207,345q0-92 12.5-144t42-73T344,107q52,0 81.5,21t42,73T480,345q0,93-12.5,144.5t-42,72.5T344,583ZM251,900q25-2 45-8.5T334.5,877t37-15.5T410,851q26-4 32.5,7t6.5,37h64q11-71-14-107.5T431,754q-34,3-61.5,13.5t-51,22T271,804q-25,3-31.5-8T233,758H169q-7,50 3,82t32,47t47,13Z"/>
      <glyph unicode="&#xd6;" glyph-name="gid37" horiz-adv-x="688" d="M344,704q82,0 139-17.5t91.5-58t50.5-110T641,345T625,171.5t-50.5-110T483,3.5T344-14T205,3.5t-92,58t-51,110T46,345T62,518.5t51,110t92,58T344,704Zm0-121q-53,0-82.5-21t-42-72.5T207,345q0-92 12.5-144t42-73T344,107q52,0 81.5,21t42,73T480,345q0,93-12.5,144.5t-42,72.5T344,583ZM459,888q32,0 32-32V797q0-32-32-32H410q-31,0-31,32v59q0,32 31,32h49Zm-183,0q31,0 31-32V797q0-32-31-32H227q-31,0-31,32v59q0,32 31,32h49Z"/>
      <glyph unicode="&#xd7;" glyph-name="gid254" horiz-adv-x="495" d="M397,496L32,170l70-83L467,412l-70,84Zm-295,0L32,412L397,87l70,83L102,496Z"/>
      <glyph unicode="&#xd8;" glyph-name="gid39" horiz-adv-x="688" d="M500,754l52-24L180-65L129-41L500,754ZM344,704q82,0 139-17.5t91.5-58t50.5-110T641,345T625,171.5t-50.5-110T483,3.5T344-14T205,3.5t-92,58t-51,110T46,345T62,518.5t51,110t92,58T344,704Zm0-121q-53,0-82.5-21t-42-72.5T207,345q0-92 12.5-144t42-73T344,107q52,0 81.5,21t42,73T480,345q0,93-12.5,144.5t-42,72.5T344,583Z"/>
      <glyph unicode="&#xd9;" glyph-name="gid52" horiz-adv-x="686" d="M621,690V275q0-105-26-168.5t-85.5-92T351-14Q246-14 183,14.5t-91,92T64,275V690H217V275q0-65 11.5-101.5T268,122t75-15t74.5,15t39,51.5T468,275V690H621ZM220,945L423,797l-43-63L156,846l64,99Z"/>
      <glyph unicode="&#xda;" glyph-name="gid49" horiz-adv-x="686" d="M621,690V275q0-105-26-168.5t-85.5-92T351-14Q246-14 183,14.5t-91,92T64,275V690H217V275q0-65 11.5-101.5T268,122t75-15t74.5,15t39,51.5T468,275V690H621ZM460,939l64-100L301,728l-44,63L460,939Z"/>
      <glyph unicode="&#xdb;" glyph-name="gid50" horiz-adv-x="686" d="M621,690V275q0-105-26-168.5t-85.5-92T351-14Q246-14 183,14.5t-91,92T64,275V690H217V275q0-65 11.5-101.5T268,122t75-15t74.5,15t39,51.5T468,275V690H621ZM398,913L532,779l-39-53L349,821h-8L194,726l-39,57L291,913H398Z"/>
      <glyph unicode="&#xdc;" glyph-name="gid51" horiz-adv-x="686" d="M621,690V275q0-105-26-168.5t-85.5-92T351-14Q246-14 183,14.5t-91,92T64,275V690H217V275q0-65 11.5-101.5T268,122t75-15t74.5,15t39,51.5T468,275V690H621ZM459,888q32,0 32-32V797q0-32-32-32H410q-31,0-31,32v59q0,32 31,32h49Zm-183,0q31,0 31-32V797q0-32-31-32H227q-31,0-31,32v59q0,32 31,32h49Z"/>
      <glyph unicode="&#xdd;" glyph-name="gid57" horiz-adv-x="612" d="M611,690L378,219H234L0,690H159L275,436q9-20 15-43t11-44h10q6,21 12,44t14,43L452,690H611ZM382,312V0H229V312H382Zm41,622l64-100L264,723l-44,63L423,934Z"/>
      <glyph unicode="&#xde;" glyph-name="gid43" horiz-adv-x="613" d="M331,573q95,0 149.5-20T558,484t23-138T559,208t-72.5-68.5T351,120q-46,0-89.5,4t-81,10T117,147T80,159l3,76q58,0 120.5,0T328,235q38,1 60,10t31,33t9,68q0,45-9,69t-31,33.5T328,458q-91,0-156-1t-88-3L70,564q41,4 77,6t79.5,2.5T331,573ZM223,690V0H70V690H223Z"/>
      <glyph unicode="&#xdf;" glyph-name="gid108" horiz-adv-x="707" d="M355,732q93,0 146-14.5T575.5,670T597,581q0-23-5-41.5T573,502t-42-42q-21-16-37-28.5t-25-25T460,377q0-21 18-35t44-31l78-44q31-21 49.5-38t27-39t8.5-56q0-53-18.5-84.5t-61-46T494-11q-37,0-77.5,2.5T323,0l9,96q32-1 63.5-1.5T460,94q29,0 45.5,2.5t24,12T537,139q0,17-9.5,29.5t-26,24.5T464,219l-68,33q-34,22-54.5,48.5T321,368q0,29 12,48t33,35.5T412,491q28,24 38.5,40.5T461,573q0,19-8.5,30.5t-30.5,17T358,626t-65.5-7T260,593t-9-55V0H103V555q0,54 15,88.5t46,54t78.5,27T355,732ZM176,494V396H18v94l87,4h71Z"/>
      <glyph unicode="&#xe0;" glyph-name="gid64" horiz-adv-x="570" d="M321,507q62,0 105-16.5t65.5-56T514,326V0H396L375,107l-10,15V327q0,35-16.5,51T286,394q-38,0-95-2.5T74,385L60,483q36,7 83,12t94,8.5t84,3.5ZM453,304l-1-83l-220-1q-27,0-38.5-13T182,172V148q0-25 14-38.5T241,96q26,0 56.5,11T358,138t53,47V121q-9-15-26.5-37.5T340,39.5T277,3T195-12q-45,0-81,16T57,51T36,128v51q0,59 40,92t110,33H453ZM164,770L367,622l-43-63L100,671l64,99Z"/>
      <glyph unicode="&#xe1;" glyph-name="gid61" horiz-adv-x="570" d="M321,507q62,0 105-16.5t65.5-56T514,326V0H396L375,107l-10,15V327q0,35-16.5,51T286,394q-38,0-95-2.5T74,385L60,483q36,7 83,12t94,8.5t84,3.5ZM453,304l-1-83l-220-1q-27,0-38.5-13T182,172V148q0-25 14-38.5T241,96q26,0 56.5,11T358,138t53,47V121q-9-15-26.5-37.5T340,39.5T277,3T195-12q-45,0-81,16T57,51T36,128v51q0,59 40,92t110,33H453ZM405,764l64-100L246,553l-44,63L405,764Z"/>
      <glyph unicode="&#xe2;" glyph-name="gid62" horiz-adv-x="570" d="M321,507q62,0 105-16.5t65.5-56T514,326V0H396L375,107l-10,15V327q0,35-16.5,51T286,394q-38,0-95-2.5T74,385L60,483q36,7 83,12t94,8.5t84,3.5ZM453,304l-1-83l-220-1q-27,0-38.5-13T182,172V148q0-25 14-38.5T241,96q26,0 56.5,11T358,138t53,47V121q-9-15-26.5-37.5T340,39.5T277,3T195-12q-45,0-81,16T57,51T36,128v51q0,59 40,92t110,33H453ZM343,738L477,604l-39-53L294,646h-8L139,551l-39,57L236,738H343Z"/>
      <glyph unicode="&#xe3;" glyph-name="gid66" horiz-adv-x="570" d="M321,507q62,0 105-16.5t65.5-56T514,326V0H396L375,107l-10,15V327q0,35-16.5,51T286,394q-38,0-95-2.5T74,385L60,483q36,7 83,12t94,8.5t84,3.5ZM453,304l-1-83l-220-1q-27,0-38.5-13T182,172V148q0-25 14-38.5T241,96q26,0 56.5,11T358,138t53,47V121q-9-15-26.5-37.5T340,39.5T277,3T195-12q-45,0-81,16T57,51T36,128v51q0,59 40,92t110,33H453ZM196,725q25-2 45-8.5T279.5,702t37-15.5T355,676q26-4 32.5,7t6.5,37h64q11-71-14-107.5T376,579q-34,3-61.5,13.5t-51,22T216,629q-25,3-31.5-8T178,583H114q-7,50 3,82t32,47t47,13Z"/>
      <glyph unicode="&#xe4;" glyph-name="gid63" horiz-adv-x="570" d="M321,507q62,0 105-16.5t65.5-56T514,326V0H396L375,107l-10,15V327q0,35-16.5,51T286,394q-38,0-95-2.5T74,385L60,483q36,7 83,12t94,8.5t84,3.5ZM453,304l-1-83l-220-1q-27,0-38.5-13T182,172V148q0-25 14-38.5T241,96q26,0 56.5,11T358,138t53,47V121q-9-15-26.5-37.5T340,39.5T277,3T195-12q-45,0-81,16T57,51T36,128v51q0,59 40,92t110,33H453ZM403,713q32,0 32-32V622q0-32-32-32H354q-31,0-31,32v59q0,32 31,32h49Zm-183,0q31,0 31-32V622q0-32-31-32H171q-31,0-31,32v59q0,32 31,32h49Z"/>
      <glyph unicode="&#xe5;" glyph-name="gid65" horiz-adv-x="570" d="M321,507q62,0 105-16.5t65.5-56T514,326V0H396L375,107l-10,15V327q0,35-16.5,51T286,394q-38,0-95-2.5T74,385L60,483q36,7 83,12t94,8.5t84,3.5ZM453,304l-1-83l-220-1q-27,0-38.5-13T182,172V148q0-25 14-38.5T241,96q26,0 56.5,11T358,138t53,47V121q-9-15-26.5-37.5T340,39.5T277,3T195-12q-45,0-81,16T57,51T36,128v51q0,59 40,92t110,33H453ZM289,773q32,0 59-15.5T391,716t16-58t-16-58.5t-43-42T289,542t-59.5,15.5T186,599t-16,59q0,32 16,58t43.5,41.5T289,773Zm-1-63q-21,0-36-14.5T237,657q0-23 15-37.5T288,605q23,0 37.5,14.5T340,657q0,24-14.5,38.5T288,710Z"/>
      <glyph unicode="&#xe6;" glyph-name="gid67" horiz-adv-x="879" d="M611,507q125,0 178.5-42.5T844,338q0-46-15.5-76T778,217.5T683,203H417v83H643q35,0 46,14t11,41q0,34-19.5,48T616,403q-42,0-65-11t-32-42t-9-90q0-62 11-95.5T558.5,118T633,105q34,0 83.5,2.5T817,116l14-91Q802,11 766,3T691.5-8.5T616-12q-93,0-149.5,27.5T385,100T360,246q0,97 25,154t80.5,82T611,507ZM449,302l-1-82H231q-26,0-37.5-13T182,172V148q0-25 14-38.5T239,96q26,0 56.5,11T356,138.5T409,186l5-68q-9-16-27-37.5T342,38T278,2.5T193-12q-44,0-80,16T56.5,51T36,128v51q0,57 39.5,90T184,302H449ZM318,507q62,0 104.5-16.5t64.5-56T509,326V232H360v95q0,35-16.5,51T283,394q-38,0-94.5-2.5T73,385L60,483q35,7 81,12t93,8.5t84,3.5Z"/>
      <glyph unicode="&#xe7;" glyph-name="gid70" horiz-adv-x="509" d="M290,507q27,0 59-2.5t64.5-9T473,477l-16-93q-40,1-76.5,2T315,387q-45,0-71-12t-37.5-42.5T195,248q0-55 11.5-86T244,119t71-12q16,0 41,1t54,2.5t57,5.5l14-94Q441,4 390-4T289-12q-92,0-146.5,25.5T64,96T40,248T64.5,400T144,482t146,25ZM221-53q51,6 83,3.5t47-18T365-118q-2-50-29-82.5T264-246t-100-6l17,62q37-1 62.5,12.5T271-131q2,15-10.5,18T207-109l14,56Z"/>
      <glyph unicode="&#xe8;" glyph-name="gid77" horiz-adv-x="564" d="M294,507q125,0 179.5-42.5T528,338q1-68-34-101.5T373,203H97v83H332q34,0 43.5,14.5T385,341q-1,35-20.5,48.5T299,403q-41,0-64-11t-32-42t-9-90q0-62 11-95.5T242.5,118T316,105q34,0 84.5,2.5T502,116l14-91Q487,11 450,3T374-8.5T299-12q-94,0-151.5,27.5T64.5,100T39,246q0,97 26,154t82,82t147,25ZM172,766L375,618l-43-63L108,667l64,99Z"/>
      <glyph unicode="&#xe9;" glyph-name="gid74" horiz-adv-x="564" d="M294,507q125,0 179.5-42.5T528,338q1-68-34-101.5T373,203H97v83H332q34,0 43.5,14.5T385,341q-1,35-20.5,48.5T299,403q-41,0-64-11t-32-42t-9-90q0-62 11-95.5T242.5,118T316,105q34,0 84.5,2.5T502,116l14-91Q487,11 450,3T374-8.5T299-12q-94,0-151.5,27.5T64.5,100T39,246q0,97 26,154t82,82t147,25ZM413,760l64-100L254,549l-44,63L413,760Z"/>
      <glyph unicode="&#xea;" glyph-name="gid75" horiz-adv-x="564" d="M294,507q125,0 179.5-42.5T528,338q1-68-34-101.5T373,203H97v83H332q34,0 43.5,14.5T385,341q-1,35-20.5,48.5T299,403q-41,0-64-11t-32-42t-9-90q0-62 11-95.5T242.5,118T316,105q34,0 84.5,2.5T502,116l14-91Q487,11 450,3T374-8.5T299-12q-94,0-151.5,27.5T64.5,100T39,246q0,97 26,154t82,82t147,25Zm57,227L485,600l-39-53L302,642h-8L147,547l-39,57L244,734H351Z"/>
      <glyph unicode="&#xeb;" glyph-name="gid76" horiz-adv-x="564" d="M294,507q125,0 179.5-42.5T528,338q1-68-34-101.5T373,203H97v83H332q34,0 43.5,14.5T385,341q-1,35-20.5,48.5T299,403q-41,0-64-11t-32-42t-9-90q0-62 11-95.5T242.5,118T316,105q34,0 84.5,2.5T502,116l14-91Q487,11 450,3T374-8.5T299-12q-94,0-151.5,27.5T64.5,100T39,246q0,97 26,154t82,82t147,25ZM411,709q32,0 32-32V618q0-32-32-32H362q-31,0-31,32v59q0,32 31,32h49Zm-183,0q31,0 31-32V618q0-32-31-32H179q-31,0-31,32v59q0,32 31,32h49Z"/>
      <glyph unicode="&#xec;" glyph-name="gid87" horiz-adv-x="277" d="M213,494V0H64V494H213ZM13,766L216,618l-43-63L-51,667l64,99Z"/>
      <glyph unicode="&#xed;" glyph-name="gid83" horiz-adv-x="277" d="M213,494V0H64V494H213Zm41,266l64-100L95,549L51,612L254,760Z"/>
      <glyph unicode="&#xee;" glyph-name="gid84" horiz-adv-x="277" d="M213,494V0H64V494H213ZM191,734L325,600l-39-53L142,642h-8L-13,547l-39,57L84,734H191Z"/>
      <glyph unicode="&#xef;" glyph-name="gid85" horiz-adv-x="277" d="M213,494V0H64V494H213Zm39,215q32,0 32-32V618q0-32-32-32H203q-31,0-31,32v59q0,32 31,32h49ZM69,709q31,0 31-32V618q0-32-31-32H20q-31,0-31,32v59q0,32 31,32H69Z"/>
      <glyph unicode="&#xf0;" glyph-name="gid72" horiz-adv-x="582" d="M138,698q72,5 133.5-9.5T382,642t83-82.5T517.5,441T536,287q0-77-13-133.5T481,60T404,4.5T286-14Q160-14 100.5,41.5T41,216q0,78 21,130t68,78.5T256,451q26,0 59.5-5T381,425t55-49l-8-60q-29,14-64,21t-76,7q-34,0-54-12t-29-39.5T196,218q0-70 21-96.5T288,95q41,0 60.5,19t26,62T381,289q0,77-10.5,132.5t-31,92T288,570t-72,27.5T124,602l14,96Zm285,25l41-50L242,489l-43,50L423,723Z"/>
      <glyph unicode="&#xf1;" glyph-name="gid94" horiz-adv-x="601" d="M404,507q140,0 140-137V0H396V324q0,33-12,45.5T343,382q-32,0-66-12.5T193,331l-7,83q53,45 108.5,69T404,507ZM179,494l17-98l12-13V0H60V494H179Zm35,227q25-2 45-8.5T297.5,698t37-15.5T373,672q26-4 32.5,7t6.5,37h64q11-71-14-107.5T394,575q-34,3-61.5,13.5t-51,22T234,625q-25,3-31.5-8T196,579H132q-7,50 3,82t32,47t47,13Z"/>
      <glyph unicode="&#xf2;" glyph-name="gid99" horiz-adv-x="590" d="M295,507q93,0 149-25.5T524.5,399T549,246q0-94-24.5-151T444,13T295-12q-92,0-148.5,25T65,95T40,246q0,96 25,153t81.5,82.5T295,507Zm0-108q-38,0-60-13t-31-46t-9-94q0-60 9-93t31-45.5T295,95t60,12.5T386,153t9,93q0,61-9,94t-31,46t-60,13ZM172,759L375,611l-43-63L108,660l64,99Z"/>
      <glyph unicode="&#xf3;" glyph-name="gid96" horiz-adv-x="590" d="M295,507q93,0 149-25.5T524.5,399T549,246q0-94-24.5-151T444,13T295-12q-92,0-148.5,25T65,95T40,246q0,96 25,153t81.5,82.5T295,507Zm0-108q-38,0-60-13t-31-46t-9-94q0-60 9-93t31-45.5T295,95t60,12.5T386,153t9,93q0,61-9,94t-31,46t-60,13ZM412,753l64-100L253,542l-44,63L412,753Z"/>
      <glyph unicode="&#xf4;" glyph-name="gid97" horiz-adv-x="590" d="M295,507q93,0 149-25.5T524.5,399T549,246q0-94-24.5-151T444,13T295-12q-92,0-148.5,25T65,95T40,246q0,96 25,153t81.5,82.5T295,507Zm0-108q-38,0-60-13t-31-46t-9-94q0-60 9-93t31-45.5T295,95t60,12.5T386,153t9,93q0,61-9,94t-31,46t-60,13Zm55,328L484,593l-39-53L301,635h-8L146,540l-39,57L243,727H350Z"/>
      <glyph unicode="&#xf5;" glyph-name="gid101" horiz-adv-x="590" d="M295,507q93,0 149-25.5T524.5,399T549,246q0-94-24.5-151T444,13T295-12q-92,0-148.5,25T65,95T40,246q0,96 25,153t81.5,82.5T295,507Zm0-108q-38,0-60-13t-31-46t-9-94q0-60 9-93t31-45.5T295,95t60,12.5T386,153t9,93q0,61-9,94t-31,46t-60,13ZM203,714q25-2 45-8.5T286.5,691t37-15.5T362,665q26-4 32.5,7t6.5,37h64q11-71-14-107.5T383,568q-34,3-61.5,13.5t-51,22T223,618q-25,3-31.5-8T185,572H121q-7,50 3,82t32,47t47,13Z"/>
      <glyph unicode="&#xf6;" glyph-name="gid98" horiz-adv-x="590" d="M295,507q93,0 149-25.5T524.5,399T549,246q0-94-24.5-151T444,13T295-12q-92,0-148.5,25T65,95T40,246q0,96 25,153t81.5,82.5T295,507Zm0-108q-38,0-60-13t-31-46t-9-94q0-60 9-93t31-45.5T295,95t60,12.5T386,153t9,93q0,61-9,94t-31,46t-60,13ZM411,702q32,0 32-32V611q0-32-32-32H362q-31,0-31,32v59q0,32 31,32h49Zm-183,0q31,0 31-32V611q0-32-31-32H179q-31,0-31,32v59q0,32 31,32h49Z"/>
      <glyph unicode="&#xf7;" glyph-name="gid255" horiz-adv-x="553" d="M506,346V241H46V346H506ZM293,176q31,0 43-12t12-43V88q0-30-12-42T293,34H257q-31,0-42.5,12T203,88v33q0,31 11.5,43T257,176h36Zm0,375q31,0 43-12t12-42V463q0-30-12-42t-43-12H257q-31,0-42.5,12T203,463v34q0,30 11.5,42T257,551h36Z"/>
      <glyph unicode="&#xf8;" glyph-name="gid100" horiz-adv-x="590" d="M421,579l43-21L165-84L123-64L421,579ZM295,507q93,0 149-25.5T524.5,399T549,246q0-94-24.5-151T444,13T295-12q-92,0-148.5,25T65,95T40,246q0,96 25,153t81.5,82.5T295,507Zm0-108q-38,0-60-13t-31-46t-9-94q0-60 9-93t31-45.5T295,95t60,12.5T386,153t9,93q0,61-9,94t-31,46t-60,13Z"/>
      <glyph unicode="&#xf9;" glyph-name="gid114" horiz-adv-x="593" d="M205,494V169q0-31 13.5-44T262,112q31,0 61.5,11.5T399,160l12-81Q357,32 305,9T198-14Q57-14 57,124V494H205Zm327,0V0H415L398,97l-14,14V494H532ZM171,767L374,619l-43-63L107,668l64,99Z"/>
      <glyph unicode="&#xfa;" glyph-name="gid111" horiz-adv-x="593" d="M205,494V169q0-31 13.5-44T262,112q31,0 61.5,11.5T399,160l12-81Q357,32 305,9T198-14Q57-14 57,124V494H205Zm327,0V0H415L398,97l-14,14V494H532ZM411,761l64-100L252,550l-44,63L411,761Z"/>
      <glyph unicode="&#xfb;" glyph-name="gid112" horiz-adv-x="593" d="M205,494V169q0-31 13.5-44T262,112q31,0 61.5,11.5T399,160l12-81Q357,32 305,9T198-14Q57-14 57,124V494H205Zm327,0V0H415L398,97l-14,14V494H532ZM349,736L483,602l-39-53L300,644h-8L145,549l-39,57L242,736H349Z"/>
      <glyph unicode="&#xfc;" glyph-name="gid113" horiz-adv-x="593" d="M205,494V169q0-31 13.5-44T262,112q31,0 61.5,11.5T399,160l12-81Q357,32 305,9T198-14Q57-14 57,124V494H205Zm327,0V0H415L398,97l-14,14V494H532ZM410,710q32,0 32-32V619q0-32-32-32H361q-31,0-31,32v59q0,32 31,32h49Zm-183,0q31,0 31-32V619q0-32-31-32H178q-31,0-31,32v59q0,32 31,32h49Z"/>
      <glyph unicode="&#xfd;" glyph-name="gid119" horiz-adv-x="566" d="M557,494L380-6q-12-37-33.5-74.5t-54-67.5t-78-45.5T107-201L96-117q61,16 95,43T244-3l31,69q9,22 17.5,53.5T307,174l92,320H557Zm-392,0l94-320q4-19 8-38t7-38h27L254,0H218q-17,0-30,10T170,36L7,494H165ZM403,760l64-100L244,549l-44,63L403,760Z"/>
      <glyph unicode="&#xfe;" glyph-name="gid104" horiz-adv-x="597" d="M376,506q97,0 138-66t41-198q0-99-20-154.5T474,9T371-14Q317-14 266,2T176,54l16,67q33-13 61.5-21.5T315,91q32,0 51,12t27.5,44.5T402,242t-8.5,94.5t-27,44.5T318,393q-31,0-57.5-12T205,349l-25,68q32,38 79,63.5T376,506ZM208,700V565q1-32-0.5-64T203,439l5-12V68l-5-12q3-30 4.5-62.5T208-71V-190H60V700H208Z"/>
      <glyph unicode="&#xff;" glyph-name="gid120" horiz-adv-x="566" d="M557,494L380-6q-12-37-33.5-74.5t-54-67.5t-78-45.5T107-201L96-117q61,16 95,43T244-3l31,69q9,22 17.5,53.5T307,174l92,320H557Zm-392,0l94-320q4-19 8-38t7-38h27L254,0H218q-17,0-30,10T170,36L7,494H165ZM401,709q32,0 32-32V618q0-32-32-32H352q-31,0-31,32v59q0,32 31,32h49Zm-183,0q31,0 31-32V618q0-32-31-32H169q-31,0-31,32v59q0,32 31,32h49Z"/>
      <glyph unicode="&#x2013;" glyph-name="gid208" horiz-adv-x="560" d="M502,302V208H58v94H502Z"/>
      <glyph unicode="&#x2014;" glyph-name="gid209" horiz-adv-x="857" d="M799,302V208H58v94H799Z"/>
      <glyph unicode="&#x2018;" glyph-name="gid221" horiz-adv-x="219" d="M96,446q-27,0-37,10T49,493v59q0,54 12.5,93.5T95,720l55-17q-8-30-10.5-58T136,585q38,0 39-42l-1-50q-1-27-11.5-37T126,446H96Z"/>
      <glyph unicode="&#x2019;" glyph-name="gid222" horiz-adv-x="216" d="M122,711q27,0 37-10.5T169,663V605q0-55-12.5-94T123,437L68,453q8,30 10.5,58T82,572q-38,0-39,42l1,49q1,27 11.5,37.5T92,711h30Z"/>
      <glyph unicode="&#x201a;" glyph-name="gid217" horiz-adv-x="230" d="M130,148q27,0 37-11t11-40V36q0-39-6-70T156-91t-25-51L76-124q8,31 10.5,60.5T90,0Q52,0 51,46l1,51q1,29 12,40t36,11h30Z"/>
      <glyph unicode="&#x201c;" glyph-name="gid219" horiz-adv-x="395" d="M96,446q-27,0-37,10T49,493v59q0,54 12.5,93.5T95,720l55-17q-8-30-10.5-58T136,585q38,0 39-42l-1-50q-1-27-11.5-37T126,446H96Zm176,0q-26,0-36,10t-11,37v59q1,54 13,93.5T272,720l54-17q-8-30-10.5-58T312,585q38,0 39-42l-1-50q-1-27-11.5-37T302,446H272Z"/>
      <glyph unicode="&#x201d;" glyph-name="gid220" horiz-adv-x="392" d="M298,711q27,0 37-10.5T345,663V605q0-55-12.5-94T299,437l-54,16q7,30 10,58t3,61q-38,0-38,42l1,49q1,27 11.5,37.5T268,711h30Zm-176,0q27,0 37-10.5T169,663V605q0-55-12.5-94T123,437L68,453q8,30 10.5,58T82,572q-38,0-39,42l1,49q1,27 11.5,37.5T92,711h30Z"/>
      <glyph unicode="&#x201e;" glyph-name="gid218" horiz-adv-x="405" d="M306,132q26,0 36-10t11-37V26q-1-55-13-94t-34-74l-54,16q8,30 10.5,58T266-7q-38,0-39,42l1,50q1,27 11.5,37T276,132h30Zm-176,0q26,0 36-10t11-37V26q-1-55-13-94t-34-74L76-126q7,30 10,58T89-7Q51-7 51,35l1,50q1,27 11.5,37T99,132h31Z"/>
      <glyph unicode="&#x2022;" glyph-name="gid200" horiz-adv-x="372" d="M196,380q58,0 80.5-22.5T299,278V263q0-62-22.5-85T196,155H182q-62,0-85.5,23T73,263v15q0,57 23.5,79.5T182,380h14Z"/>
      <glyph unicode="&#x2039;" glyph-name="gid225" horiz-adv-x="301" d="M187,465l78-50L159,251L266,82L188,32L28,235v32L187,465Z"/>
      <glyph unicode="&#x203a;" glyph-name="gid226" horiz-adv-x="302" d="M113,465L273,267V235L113,32L35,82L142,251L36,415l77,50Z"/>
    </font>
</defs>
</svg>
