<?xml version="1.0" standalone="no"?>
<!DOCTYPE svg PUBLIC "-//W3C//DTD SVG 1.1//EN" "http://www.w3.org/Graphics/SVG/1.1/DTD/svg11.dtd">
<svg xmlns="http://www.w3.org/2000/svg">
  <defs>
    <font id="Exo2" horiz-adv-x="511">
      <font-face font-family="Exo 2 Medium" units-per-em="1000" panose-1="0 0 0 0 0 0 0 0 0 0" ascent="999" descent="-201" alphabetic="0"/>
      <glyph unicode=" " glyph-name="gid185" horiz-adv-x="222"/>
      <glyph unicode="!" glyph-name="gid195" horiz-adv-x="278" d="M187,695V396l-9-183H101L91,396V695h96ZM152,124q19,0 27.5-7.5T188,89V36q0-20-8.5-28T152,0H127q-19,0-26.5,8T93,36V89q0,20 7.5,27.5T127,124h25Z"/>
      <glyph unicode="&quot;" glyph-name="gid227" horiz-adv-x="357" d="M290,690l-6-216H221l-7,216h76Zm-146,0l-7-216H72L67,690h77Z"/>
      <glyph unicode="#" glyph-name="gid202" horiz-adv-x="690" d="M318,690L198,0H122L242,690h76Zm251,0L449,0H373L493,690h76Zm78-185l-12-61H84l12,61H647ZM605,271l-12-61H42l12,61H605Z"/>
      <glyph unicode="$" glyph-name="gid243" horiz-adv-x="567" d="M284,702q49-1 102.5-5T492,681l-6-71q-43,2-96.5,3T287,614q-36,0-61-2t-41-11t-23-29t-7-55q0-53 20-74.5T240,410l138-37q80-20 110.5-67.5T519,178q0-60-13.5-97t-42-57T390-4T283-12q-34,0-90,3T64,8l7,75q59-1 96-2.5T231,79t54,0q50,0 79,7.5t41,29T417,179q0,37-8.5,58T382,268.5T334,286L193,325q-76,21-107,68T55,518q0,60 13.5,97T110,670.5t71.5,25T284,702ZM261,354l46-2L270-125H223l38,479Zm88,444L315,352l-47,2l36,444h45Z"/>
      <glyph unicode="%" glyph-name="gid264" horiz-adv-x="897" d="M207,703q60,0 96-20.5t51.5-65T370,498q0-74-15.5-119T303,313.5T207,293t-96,20.5T60,379T45,498q0,75 15,119.5t51,65T207,703Zm0-59q-34,0-53-13.5T126.5,585T118,498t8.5-87T154,365.5T207,352t53.5,13.5T288,411t8,87t-8,87t-27.5,45.5T207,644Zm493,46L260,0H193L634,690h66ZM689,400q61,0 96.5-21T836,313.5T851,196q0-74-15-119.5T785.5,11T689-9q-60,0-96,20T542,76.5T527,196q0,73 15,117.5T593,379t96,21Zm-1-59q-34,0-53.5-13.5t-27-45T600,196t7.5-87.5t27-46T688,49q35,0 54,13.5t27.5,46T778,196t-8.5,86.5t-27.5,45T688,341Z"/>
      <glyph unicode="&amp;" glyph-name="gid230" horiz-adv-x="771" d="M347,700q32,0 73-1.5t86-8.5l-11-72q-10,1-28,1.5t-39.5,1T384,621t-40,0q-60,0-94.5-8T200,581t-15-74q0-45 12-69.5t39.5-34T312,394H705l-1-73H307q-51,0-81.5-11.5t-43.5-39T169,192q0-45 11-71t38-36.5T292,74q70,1 121,21.5T502,158l14-59q-31-40-66.5-64.5T370,0T267-10Q195-10 150,7.5T84.5,65T64,175q0,79 29.5,126.5T199,356v4q-63,6-89,46.5T84,521q0,60 15,96t47,53.5T227.5,694T347,700ZM583,518V136q0-34 14-48t47-14h71L727,5q-16-5-36.5-8T650-7.5T616-9q-61,0-92.5,30.5T492,107V362l10,156h81Z"/>
      <glyph unicode="&apos;" glyph-name="gid228" horiz-adv-x="209" d="M144,690l-7-216H72L67,690h77Z"/>
      <glyph unicode="(" glyph-name="gid211" horiz-adv-x="360" d="M319,790l13-45q-98-48-142-156T146,313q0-110 19-195.5T225-27t107-93l-13-45Q181-113 116,2.5T51,312q0,195 65,311T319,790Z"/>
      <glyph unicode=")" glyph-name="gid212" horiz-adv-x="360" d="M41,790q139-51 204-167t65-311q0-194-65-309.5T41-165L30-120Q95-86 135.5-27t60,144.5T215,313q0,168-43.5,276T30,745l11,45Z"/>
      <glyph unicode="*" glyph-name="gid201" horiz-adv-x="451" d="M254,691l-9-162L347,400l-46-34L225,489L150,367l-47,34L205,529l-9,162h58ZM70,603l118-46l-1-25l-12-16L51,549l19,54Zm312,0l18-55L276,516l-13,16l-1,25l120,46Z"/>
      <glyph unicode="+" glyph-name="gid252" horiz-adv-x="548" d="M494,336V263H53v73H494ZM311,510L310,88H238l-1,422h74Z"/>
      <glyph unicode="," glyph-name="gid191" horiz-adv-x="231" d="M129,124q20,0 27.5-7.5T164,89V25q0-31-5-58.5T146-86t-20-49L82-122q6,32 8.5,58.5T93,0Q66,0 66,31V89q1,20 9.5,27.5T102,124h27Z"/>
      <glyph unicode="-" glyph-name="gid207" horiz-adv-x="442" d="M373,288V218H69v70H373Z"/>
      <glyph unicode="." glyph-name="gid190" horiz-adv-x="232" d="M130,124q20,0 28-7.5T166,89V36q0-20-8-28T130,0H101Q81,0 73,8T65,36V89q0,20 8,27.5t28,7.5h29Z"/>
      <glyph unicode="/" glyph-name="gid203" horiz-adv-x="524" d="M498,690L105-67H26L419,690h79Z"/>
      <glyph unicode="0" glyph-name="gid131" horiz-adv-x="608" d="M304,703q91,0 144-36.5T524,551t23-206T524,139T448,23.5T304-13q-90,0-143.5,36.5T84,139T61,345T84,551t76.5,115.5T304,703Zm-1-85q-41,0-68.5-14.5t-44-46.5t-24-84T159,345q0-75 7.5-127.5t24-84.5t44-46.5T303,72q42,0 70,14.5T418,133t24,84.5T449,345q0,76-7,128t-24,84t-45,46.5T303,618Z"/>
      <glyph unicode="1" glyph-name="gid132" horiz-adv-x="404" d="M296,690V0H196V536q0,16 1,31.5t4,31.5L33,548L20,619l176,71H296Z"/>
      <glyph unicode="2" glyph-name="gid133" horiz-adv-x="566" d="M273,702q67,0 115.5-11.5t74.5-44T489,551q0-42-11-79.5t-37.5-77T368,304L173,90q26,2 55,3t56,1H514V0H53V60q0,12 3.5,23T68,103L262,321q65,69 96.5,123T388,545q-1,31-15.5,45.5T331,610t-66,5q-32,0-61.5-1t-62-4.5T65,600l-6,76q47,11 83.5,16.5t68,7.5t62.5,2Z"/>
      <glyph unicode="3" glyph-name="gid134" horiz-adv-x="558" d="M261,703q77,0 124-14.5T454,639t22-96q0-45-9-81.5T436.5,401T374,369v-4q69-11 94.5-56T495,192q1-70-20.5-115.5T404.5,9T272-13q-55,0-111.5,5.5T50,5l6,79q35-3 66.5-5.5t62-3.5T247,74q54,0 86.5,12T381,126.5T396,203q0,37-10,64t-38.5,42.5T265,325l-129-1v75H265q39,0 62.5,10.5t35,27t15,38T381,519q-1,42-13.5,63T326,610t-80,7q-50,0-96-2.5T69,610l-7,75q52,9 101,13.5t98,4.5Z"/>
      <glyph unicode="4" glyph-name="gid135" horiz-adv-x="619" d="M335,690L147,284q-9-19-0.5-29.5T171,244H578V176l-91-10H111q-28,0-47.5,16t-25,41T44,273L237,690h98ZM490,558V0H396V444l17,114h77Z"/>
      <glyph unicode="5" glyph-name="gid136" horiz-adv-x="539" d="M466,690l-5-82H172L162,430l79-7q68-5 114.5-19T431,364.5t42-64T486,208q0-43-9-82T444,56T375.5,6.5T259-12q-42,0-97,6T49,12L60,92q48-8 94.5-12.5T236,75q63,0 95,15.5T375,136t13,73q1,45-11,71t-38,39t-69,18t-105,9l-53,5q-16,2-26.5,13T76,392L92,690H466Z"/>
      <glyph unicode="6" glyph-name="gid137" horiz-adv-x="575" d="M335,702q22,0 61.5-2T479,686l-8-70q-23,2-42,3t-41,1t-53,0q-49,0-83-11t-54-41t-28.5-88.5T161,325q0-74 4-123.5t18-78t42-41T301,70q57,0 84,17.5T420,140t8,85q0,54-10,86.5t-36.5,47T306,373q-32,0-59.5-8t-56-27.5T124,282l-4,47q33,47 63,73.5T248.5,440T333,451q73,0 114.5-22T506,357.5T523,225q0-54-8-98T483,52T415.5,4.5T300-12Q227-12 180,4.5T108,60T73,164.5T63,329q0,122 17,195.5t50.5,112t84.5,52T335,702Z"/>
      <glyph unicode="7" glyph-name="gid138" horiz-adv-x="515" d="M432,690q21,0 34-8t17-22.5T481,625L266,0H167L357,552q6,15 11,28t12,26H41l-4,84H432Z"/>
      <glyph unicode="8" glyph-name="gid139" horiz-adv-x="610" d="M306,700q67,0 110.5-11T485,656t34.5-56.5T529,518q0-44-10-78t-32-55t-57-25v-4q45-4 69.5-28T534,264.5T544,172q0-64-19.5-104.5t-71-59T306-10Q211-10 159,8.5t-72.5,59T66,172q0,53 10.5,92.5T112,328t69,28v4q-35,4-57.5,25T91,440T81,518q0,47 10,81.5T126,656t68.5,33T306,700Zm2-380q-45,0-74-5.5T189,295t-22.5-39T160,192q0-45 12-71t44-37t91-11q58,0 88.5,11t42,37T449,192q0,40-6.5,65T421,295.5t-42.5,19T308,320Zm-1,303q-55,0-83.5-10.5T184,577t-11-69q0-45 11-69.5T224,405t84-9t83,9.5t37.5,34T438,508t-10,69t-38.5,35.5T307,623Z"/>
      <glyph unicode="9" glyph-name="gid140" horiz-adv-x="575" d="M278,702q76,0 122-17.5t70-57t31.5-107T509,353q0-116-15-188T447,54.5T363.5,2T238-12q-23,0-64,2T84,4l8,71q25-2 44.5-3t43-1T238,71q51,0 84.5,12T376,126t28.5,86.5T413,356q0,77-3.5,128T394,565t-40,42.5T277,620q-55,0-83-18t-37-53t-9-85q0-49 10-81.5T194.5,333T268,316q32,0 58.5,8.5t55,28T448,407l4-46q-32-47-62.5-73.5T324,250t-83-11q-72,0-113,29T69.5,347.5T52,463q0,80 21,133t70.5,79.5T278,702Z"/>
      <glyph unicode=":" glyph-name="gid192" horiz-adv-x="240" d="M131,442q20,0 28-7.5t8-27.5V354q0-20-8-28t-28-8H102q-20,0-28,8t-8,28v53q0,20 8,27.5t28,7.5h29Zm0-318q20,0 28-7.5T167,89V36q0-20-8-28T131,0H102Q82,0 74,8T66,36V89q0,20 8,27.5t28,7.5h29Z"/>
      <glyph unicode=";" glyph-name="gid193" horiz-adv-x="241" d="M135,442q20,0 28-7.5t8-27.5V354q0-20-8-28t-28-8H106q-20,0-28,8t-8,28v53q0,20 8,27.5t28,7.5h29Zm-1-318q20,0 27.5-7.5T169,89V25q0-31-5-58.5T151-86t-20-49L87-122q6,32 8.5,58.5T98,0Q71,0 71,31V89q1,20 9.5,27.5T107,124h27Z"/>
      <glyph unicode="&lt;" glyph-name="gid258" horiz-adv-x="528" d="M459,509V432L134,298L459,167V90L50,260v77L459,509Z"/>
      <glyph unicode="=" glyph-name="gid256" horiz-adv-x="584" d="M513,435V364H71v71H513Zm0-211V152H71v72H513Z"/>
      <glyph unicode="&gt;" glyph-name="gid257" horiz-adv-x="527" d="M68,509L477,337V260L68,90v77L393,298L68,432v77Z"/>
      <glyph unicode="?" glyph-name="gid197" horiz-adv-x="508" d="M263,712q102,0 153-37.5T467,557q0-45-18-77.5t-44-59t-52.5-55t-46-65T285,213H203q-1,54 14.5,94T257,377t48.5,55.5t41,50.5T365,539q2,47-28,69.5T241,631q-49,0-80.5-1t-57-3T44,622l-5,68q26,5 47.5,9t45,7t54.5,4.5t77,1.5Zm-6-588q19,0 27-7.5T292,89V36q0-20-8-28T257,0H232q-20,0-27.5,8T197,36V89q0,20 7.5,27.5T232,124h25Z"/>
      <glyph unicode="@" glyph-name="gid229" horiz-adv-x="726" d="M501,588q74,0 115-33.5T657,442V133H584l-8,73q-18-18-48.5-37t-68-32T381,124q-40,0-70,13.5T264,178t-17,66v50q0,49 30,77t88,28H566v40q0,38-17,54.5T483,510H356q-64,0-102.5-5.5t-58-28t-26-72.5T163,266q0-72 4.5-118.5t17.5-73t38-38T289,22t102-3H654V-51q-65-4-130.5-6.5T392-60q-86-1-144,5.5T154.5-29t-53,55T78,121T72,266q0,85 5,142.5t21,93t47.5,54t82.5,25T356,588H501Zm65-244l-168-5q-33-1-47-13.5T337,285V260q0-33 16.5-47.5T400,198q28,0 58,7.5t58,21T566,260v84Z"/>
      <glyph unicode="A" glyph-name="gid1" horiz-adv-x="628" d="M365,690q13,0 23-7.5T402,663L620,0H516L344,555q-4,15-8,30t-8,28H300q-4-13-8-28t-9-30L111,0H8L226,663q4,12 14,19.5t23,7.5H365ZM489,293V210H137v83H489Z"/>
      <glyph unicode="B" glyph-name="gid10" horiz-adv-x="624" d="M315,698q86,0 136.5-15.5t73-54.5T547,518q0-74-27.5-113T430,360v-4q77-7 108-54t31-130q0-71-22.5-110T475,7.5T346-8Q285-8 241.5-7.5T161-5T84,0L98,77q22-1 85-2t147-1q52,0 82,9t43,34t13,73q0,52-13.5,79.5t-44.5,39T324,321H97v73H323q48,1 76,10t40,33.5T451,506q0,45-13,69t-44,32.5T310,616q-50,0-90,0t-70-0.5T98,613L84,690q36,4 68.5,5.5t71,2T315,698Zm-133-8V0H84V690h98Z"/>
      <glyph unicode="C" glyph-name="gid11" horiz-adv-x="573" d="M333,702q45,0 77-2t59-6.5T525,681l-10-75q-30,3-56,4.5T403.5,613T333,614q-64,0-101-25t-52.5-83.5T164,345t15.5-160.5T232,101T333,76q65,0 109.5,2.5T529,87l10-75Q495-1 448.5-6.5T333-12Q233-12 172.5,22.5T85,135T58,345T85,555t87.5,112.5T333,702Z"/>
      <glyph unicode="D" glyph-name="gid13" horiz-adv-x="667" d="M334,699q76,0 128.5-18T547,622.5t46.5-109T608,345T593.5,176.5T547,67.5T462.5,9T334-9Q262-9 200.5-6.5T84,0l42,80q42-2 93.5-3.5T334,75q64,0 101,25t52.5,83.5T503,345T487.5,506.5t-52.5,84T334,616q-62,0-111-1t-96-2L84,690q55,4 116.5,6.5T334,699Zm-150-9V0H84V690H184Z"/>
      <glyph unicode="E" glyph-name="gid15" horiz-adv-x="563" d="M214,691q50,0 102,0t102.5-1.5T515,685l-4-77H236q-30,0-44-15t-14-48V145q0-33 14-48.5T236,81H511l4-76q-46-3-96.5-4T316-0.5T214-1q-62,0-98.5,33.5T78,122V568q1,57 37.5,90T214,691ZM96,402H472V325H96v77Z"/>
      <glyph unicode="F" glyph-name="gid20" horiz-adv-x="542" d="M218,691q49,0 99-0.5t99-1.5t93-5l-5-76H247q-34,0-49.5-15T182,545V0H82V564q0,60 37,93.5T218,691ZM99,392H466V314H99v78Z"/>
      <glyph unicode="G" glyph-name="gid21" horiz-adv-x="632" d="M351,703q37,0 70.5-2t65-6.5T548,681l-10-74q-32,3-63.5,4.5t-61.5,2T355,614q-53,0-90-10t-58.5-39T175,482T165,341q0-99 13.5-157t45-84T308,74q37,0 67,10t56.5,26.5T482,144l13-58q-17-20-48.5-43.5T373,3T278-13q-77,0-125.5,38t-71,117.5T59,347q0,136 28,214t92,110t172,32ZM567,399V0H494L478,102l-9,22V399h98Z"/>
      <glyph unicode="H" glyph-name="gid22" horiz-adv-x="672" d="M184,690V0H84V690H184ZM499,410V327H176v83H499Zm90,280V0H488V690H589Z"/>
      <glyph unicode="I" glyph-name="gid23" horiz-adv-x="268" d="M184,690V0H84V690H184Z"/>
      <glyph unicode="J" glyph-name="gid28" horiz-adv-x="346" d="M265,690V143q0-75-36-113.5T127-9Q113-9 94-7.5T57.5-3T28,5L39,74H89q76,0 76,72V690H265Z"/>
      <glyph unicode="K" glyph-name="gid29" horiz-adv-x="599" d="M569,690L372,406q-9-14-18.5-24.5T332,360v-2q13-12 25-24.5T377,308L583,0H470L231,361L460,690H569Zm-386,0V478q0-31-3.5-59T169,361q6-28 10-57t4-55V0H84V690h99Zm98-292V321H149v77H281Z"/>
      <glyph unicode="L" glyph-name="gid30" horiz-adv-x="518" d="M181,690V146q0-32 16-47.5T246,83H493l5-77Q431,1 362,0T224-1Q148-1 115,36.5T82,131V690h99Z"/>
      <glyph unicode="M" glyph-name="gid31" horiz-adv-x="884" d="M746,690q39,0 40-41L814,0H716L691,609H671L525,114q-8-33-42-33H401q-35,0-44,33L211,609H191L168,0H70L97,649q2,41 40,41H245q32,0 42-33L408,249q8-23 13-46t12-48h17q7,25 12.5,48T475,251L596,657q8,33 42,33H746Z"/>
      <glyph unicode="N" glyph-name="gid32" horiz-adv-x="708" d="M624,690V39q0-39-37-39H501q-17,0-26.5,8T458,31L232,497q-9,20-21,45.5T193,590H178q2-23 3-46.5t1-47.5V0H84V651q0,39 38,39h83q17,0 27-8t17-23L467,205q11-21 23.5-48T515,104h16q-2,27-3,53.5T527,210V690h97Z"/>
      <glyph unicode="O" glyph-name="gid34" horiz-adv-x="672" d="M336,703q76,0 129.5-18T551,626t46.5-110T612,345q0-101-14.5-170.5T551,64T465.5,5T336-13T206.5,5t-86,59T73,174.5T58,345q0,102 15,171t47.5,110t86,59T336,703Zm0-87q-65,0-103-25t-53.5-83.5T164,345q0-103 15.5-162T233,99T336,74T438.5,99T492,183t16,162q0,104-16,162.5T438.5,591T336,616Z"/>
      <glyph unicode="P" glyph-name="gid42" horiz-adv-x="595" d="M326,699q85,0 135-19t71.5-66T554,481q0-85-21-132.5t-68.5-66T338,264q-43,0-82.5,2T183,272t-56.5,8.5T94,289l3,58q54,0 112,0t116,0q48,1 76,12t40,40t12,82q0,54-12,83t-40,40.5T325,616q-84,0-145-1t-82-3L84,690q38,4 72,6t74,2.5t96,0.5Zm-142-9V0H84V690H184Z"/>
      <glyph unicode="Q" glyph-name="gid44" horiz-adv-x="673" d="M337,703q76,0 129.5-18T552,626t46.5-110T613,345q0-101-14.5-170.5T552,64T466.5,5T337-13Q260-13 207,5T121.5,64T74,174.5T59,345q0,102 15,171t47.5,110T207,685t130,18ZM294-41q61-26 128-42.5T565-112l-30-96q-81,17-147,46.5T267-99l27,58Zm43,657q-65,0-103-25t-53.5-83.5T165,345q0-103 15.5-162T234,99T337,74T439,99t53.5,84T509,345q0,104-16.5,162.5T439,591T337,616Z"/>
      <glyph unicode="R" glyph-name="gid45" horiz-adv-x="623" d="M327,699q82,0 132.5-17.5t73.5-61T556,499q0-55-13-92t-40.5-58T428,322v-5q17-4 34-16t32-32.5T516,217L581,0H475L415,215q-12,38-33,54t-55,16q-63,0-108,0.5T143.5,287T94,288l3,80H325q49,1 77,11.5T442.5,417T455,493t-12.5,75.5t-40.5,37T325,616q-84,0-145-1t-82-1L84,690q38,4 72,6t74.5,2.5T327,699Zm-144-9V0H84V690h99Z"/>
      <glyph unicode="S" glyph-name="gid46" horiz-adv-x="566" d="M282,702q50-1 103.5-5T492,681l-7-71q-43,2-96.5,3T285,614q-35,0-60-2t-41-11t-23.5-29T153,517q0-53 20-74.5T238,410l139-37q80-20 110-67.5T517,178q0-60-13.5-97t-42-57T388-4T281-12q-34,0-90,3T62,8l7,73q59-2 96.5-3.5T230,76t54,0q50,0 79,7.5t41,30T416,179q0,37-8.5,58t-27,31.5T333,286L190,325q-75,21-106,68T53,518q0,60 13.5,97T108,670.5t71,25T282,702Z"/>
      <glyph unicode="T" glyph-name="gid47" horiz-adv-x="585" d="M342,690V0H242V690H342Zm220,0V604H23v86H562Z"/>
      <glyph unicode="U" glyph-name="gid48" horiz-adv-x="670" d="M591,690V266q0-101-24.5-162.5T487,14.5T340-13q-96,0-153,27.5t-82.5,89T79,266V690H179V266q0-72 14.5-114.5t49-60T335,74t91.5,17.5t49,60T491,266V690H591Z"/>
      <glyph unicode="V" glyph-name="gid53" horiz-adv-x="615" d="M600,690L394,28q-4-11-14-19.5T357,0H258q-14,0-24,8.5T220,28L15,690H119L275,152q5-19 10-37.5T294,77h27q4,19 9,38t11,38L496,690H600Z"/>
      <glyph unicode="W" glyph-name="gid54" horiz-adv-x="953" d="M923,690L788,29q-3-12-13-20.5T750,0H642q-15,0-25.5,8.5T604,30L502,536q-4,20-8,40.5T486,616H466q-4-19-7.5-40T451,536L350,30q-3-13-13.5-21.5T312,0H203q-15,0-25.5,8.5T165,29L30,690H134L235,163q4-20 7-42t7-46h22q4,23 8,45t8,43L388,658q2,14 12.5,23t25.5,9H527q15,0 25-9t13-23L666,163q5-23 8.5-44.5T680,75h25q2,22 5,44t7,43L819,690H923Z"/>
      <glyph unicode="X" glyph-name="gid55" horiz-adv-x="617" d="M582,690L402,357L595,0H488L302,357L476,690H582Zm-441,0L315,357L129,0H22L214,357L35,690H141ZM365,394V321H250v73H365Z"/>
      <glyph unicode="Y" glyph-name="gid56" horiz-adv-x="577" d="M567,690L334,231H243L9,690H115L255,406q9-19 16-39.5T285,326h7q7,20 14.5,40.5T322,405L462,690H567ZM338,299V0H238V299H338Z"/>
      <glyph unicode="Z" glyph-name="gid58" horiz-adv-x="570" d="M408,609l109-1L157,81L46,82L408,609ZM524,82V0H46V82H524Zm-7,608V608H53v82H517Z"/>
      <glyph unicode="[" glyph-name="gid215" horiz-adv-x="332" d="M293,768V705H195q-15,0-15-16V-86q0-16 15-16h98v-63H147q-25,0-42,13.5T88-107V710q0,26 17,42t42,16H293Z"/>
      <glyph unicode="\" glyph-name="gid204" horiz-adv-x="525" d="M106,690L499-67H419L26,690h80Z"/>
      <glyph unicode="]" glyph-name="gid216" horiz-adv-x="332" d="M185,768q26,0 42-16t16-42V-107q0-26-16-42t-42-16H39v63h98q15,0 15,16V689q0,16-15,16H39v63H185Z"/>
      <glyph unicode="^" glyph-name="gid262" horiz-adv-x="433" d="M252,605L403,392l-39-24L221,541h-8L69,368L30,392L182,605h70Z"/>
      <glyph unicode="_" glyph-name="gid210" horiz-adv-x="439" d="M439,0V-70H0V0H439Z"/>
      <glyph unicode="`" glyph-name="gid274" horiz-adv-x="322" d="M88,727L266,581l-32-44L36,656l52,71Z"/>
      <glyph unicode="a" glyph-name="gid60" horiz-adv-x="553" d="M310,500q56,0 94.5-14.5t58-49.5T482,340V0H406L391,106l-6,12V340q0,43-20,62t-76,19q-38,0-95.5-4T80,409l-9,69q34,6 75.5,11t84.5,8t79,3ZM438,301l-1-68l-230-1q-34-1-47.5-17.5T146,169V139q0-36 17.5-52.5T219,70q28,0 62.5,10.5t69.5,32T414,167V104q-10-14-30-33.5T335.5,33t-63-30T197-9Q153-9 119.5,6.5T67,52.5T48,127v53q0,57 36.5,89T186,301H438Z"/>
      <glyph unicode="b" glyph-name="gid68" horiz-adv-x="575" d="M346,500q91,0 134-58.5T523,246q0-62-10.5-110T477,55T409.5,5T302-12q-25,0-55,2T186-3.5t-60,11T73,24l77,63q26-8 51.5-13t51-6.5T300,66q45,2 71.5,18t39,55.5T423,246q0,65-9.5,102.5t-34,54T310,419q-38,0-72.5-20.5T159,344l-7,60q29,31 60,52.5T277,489t69,11ZM170,700V522q0-31-2-58.5T159,409l10-14l1-376L73,24V700h97Z"/>
      <glyph unicode="c" glyph-name="gid69" horiz-adv-x="493" d="M287,500q23,0 50.5-2t57-7T449,476l-12-62q-35,3-71.5,4.5T303,420q-56,0-88.5-15.5T168,351T154,245t14-107t46.5-54T303,69q15,0 39,1t52,3t54,6l9-64Q420,1 375-5.5T286-12q-86,0-137.5,25T74,94T51,245q0,94 23.5,150t75,80.5T287,500Z"/>
      <glyph unicode="d" glyph-name="gid71" horiz-adv-x="577" d="M238,500q49,0 96-12.5T423,447l-6-56q-44,14-78.5,22T264,421t-64.5-14t-36-52T152,247q0-69 11-107.5T198,86t61-15q28,0 51,7t48,23t59,40l8-62q-38-38-88.5-64.5T225-12Q133-12 93,53.5T53,246q0,96 20.5,151.5t61.5,79T238,500ZM502,700V0H426L415,86l-10,8V426l6,15q-4,28-5,55t-1,57V700h97Z"/>
      <glyph unicode="e" glyph-name="gid73" horiz-adv-x="542" d="M281,500q113,0 163.5-40.5T495,340q1-66-28.5-102T371,202H89v69H346q33,0 43,21t10,48q-1,45-26.5,64T285,423q-51,0-80-15t-40.5-52T153,252q0-75 14.5-114.5t47-54.5T301,68q38,0 85.5,3.5T473,80l10-63Q459,7 425,0.5T355-9t-66-3q-86,0-138,26T75,96.5T51,245q0,96 24,152t75,79.5T281,500Z"/>
      <glyph unicode="f" glyph-name="gid78" horiz-adv-x="384" d="M260,718q16,0 42-1t52.5-2.5T401,710l-8-69H294q-46,0-64.5-18T211,562V0H114V573q0,46 14,78t46,49.5T260,718ZM363,488V416H26v67l92,5H363Z"/>
      <glyph unicode="g" glyph-name="gid79" horiz-adv-x="562" d="M273,500q79,0 125.5-15.5t66.5-50T485,345q0-53-20-87.5t-67-51T272,190q-80,0-126.5,16.5T79,257T59,344q0,56 20,90.5t67,50T273,500Zm-1-69q-70,0-97-19.5T148,345q0-46 27-66t97-20t96.5,20T395,345q0,47-26.5,66.5T272,431Zm270,57l-5-50L411,427l-35,61H542ZM133,221l53-7q-16-14-22-35t3-38t40-22L389,91q70-9 98-42.5T515-47q0-59-22.5-92T418-186T278-200q-69,0-115,7.5t-73.5,25T50-122T38-53q0,32 9.5,54T79,40t57,33l63,31l42-15L193,54q-21-15-34.5-29.5T138-5.5T131-43q0-32 12.5-49T188-115t89-6t88,6.5t43.5,23T421-44q0,24-6.5,36.5T390,11.5T338,23L167,45q-33,4-52,20.5t-26.5,39t-4,45t16,42.5T133,221Z"/>
      <glyph unicode="h" glyph-name="gid80" horiz-adv-x="585" d="M380,500q133,0 133-134V0H415V338q0,46-14.5,63.5T350,419q-43,0-86-19.5T161,342l-5,64q56,44 112.5,69T380,500ZM171,700l1-189q0-34-2.5-64T161,394l10-14V0H75V700h96Z"/>
      <glyph unicode="i" glyph-name="gid81" horiz-adv-x="253" d="M174,488V0H79V488h95ZM149,697q29,0 29-29V611q0-29-29-29H104q-29,0-29,29v57q0,29 29,29h45Z"/>
      <glyph unicode="j" glyph-name="gid88" horiz-adv-x="255" d="M176,488V-5q0-41-12-77.5t-34.5-67T76-202L23-160q30,36 43.5,72T80-5V488h96ZM151,698q28,0 28-29V612q0-29-28-29H106q-29,0-29,29v57q0,29 29,29h45Z"/>
      <glyph unicode="k" glyph-name="gid90" horiz-adv-x="518" d="M488,488L339,311q-7-10-18-20.5T303,275v-2q7-5 18-17.5T339,231L504,0H392L204,279L376,488H488ZM171,700l1-307q0-32-2.5-59.5T161,276q6-28 8-57t2-55V0H75V700h96Zm81-391V241H138v68H252Z"/>
      <glyph unicode="l" glyph-name="gid91" horiz-adv-x="303" d="M171,700V139q0-31 17.5-47T237,76h46L294,5q-10-5-27.5-8t-36-4.5T199-9q-56,0-89.5,32T76,116V700h95Z"/>
      <glyph unicode="m" glyph-name="gid92" horiz-adv-x="877" d="M674,500q64,0 97.5-34T805,366V0H709V338q0,42-16.5,61.5T637,419q-24,0-46-8t-49-24.5T477,342l-5,65q52,47 101,70t101,23ZM154,488l7-94l10-14V0H75V488h79Zm203,12q63,0 96-33.5T487,366V0H394V338q0,44-18,62.5T322,419q-24,0-46-7.5t-49.5-24T160,342l-6,65q52,47 101,70t102,23Z"/>
      <glyph unicode="n" glyph-name="gid93" horiz-adv-x="585" d="M380,500q133,0 133-134V0H416V338q0,46-15,63.5T350,419q-43,0-86-20.5T161,342l-4,65q56,45 112,69t111,24ZM155,488l9-94l7-14V0H75V488h80Z"/>
      <glyph unicode="o" glyph-name="gid95" horiz-adv-x="572" d="M286,500q86,0 137.5-25t74-81.5T520,244q0-94-22.5-150.5T423.5,12T286-13q-85,0-136.5,25T75,93.5T52,244q0,93 23,149.5T149.5,475T286,500Zm0-78q-50,0-79-16t-41-54.5T154,244t12-108t41-54.5T286,66t79.5,15.5T407,136t12,108T407,351.5T365.5,406T286,422Z"/>
      <glyph unicode="p" glyph-name="gid103" horiz-adv-x="584" d="M362,500q90,0 129-66t39-193q0-95-20-150.5t-60.5-79T346-12q-49,0-95.5,13.5T161,43l6,54q44-13 78.5-21T319,68q41,0 65.5,14T420,134t11,107q0,68-10.5,106.5t-33,55T328,419q-38,0-75-17.5T168,347l-10,60q25,28 58.5,49T288,488.5T362,500ZM154,488l10-99l7-13V62l-4-12q3-28 4-55t0-57V-199H75V488h79Z"/>
      <glyph unicode="q" glyph-name="gid105" horiz-adv-x="575" d="M276,500q23,0 52.5-2t60.5-6.5t60-11T502,466l-79-64q-24,7-50.5,12t-51,7T276,422q-46-1-73.5-17T163,349.5T151,237q0-86 21.5-126T255,71q44,0 80,18t81,49l12-58q-30-27-63.5-48t-69-33T221-13Q135-13 93.5,48.5T52,242q0,63 10.5,111t36,81T167,483.5T276,500Zm129-31l97-3V-199H405L404-35q0,32 2.5,58.5T415,78L405,92V469Z"/>
      <glyph unicode="r" glyph-name="gid106" horiz-adv-x="406" d="M150,488l12-94l9-14V0H75V488h75Zm239,12l-10-90H348q-41,0-83.5-16T161,348l-7,59q53,44 107.5,68.5T367,500h22Z"/>
      <glyph unicode="s" glyph-name="gid107" horiz-adv-x="512" d="M242,500q32,0 69-2t73.5-5t66.5-8l-7-68q-47,2-93.5,3.5T258,422q-44,1-69-2t-36-15t-11-41q0-35 17.5-46T212,299l139-32q59-15 87-44t28-92q0-60-22.5-90.5T374-0.5T255-11q-27,0-80.5,2T57,4l7,67q23-1 50-2t57.5-1T233,68q54,0 84.5,4.5t43,18T373,131q0,33-20.5,44.5T297,195L160,227q-42,10-66.5,27.5t-35,44T48,365q0,56 20,85.5t62.5,40T242,500Z"/>
      <glyph unicode="t" glyph-name="gid109" horiz-adv-x="386" d="M210,631V139q0-34 14.5-48.5T274,76h72L357,5q-17-5-38.5-8t-43-4.5T241-9q-62,0-95,34t-33,98V631h97ZM362,488V416H25v67l96,5H362Z"/>
      <glyph unicode="u" glyph-name="gid110" horiz-adv-x="574" d="M168,488V150q0-44 17-62t57-18q39,0 77.5,18T413,141l11-63Q368,33 314.5,10T206-13Q72-13 72,121V488h96Zm332,0V0H422l-9,93l-10,15V488h97Z"/>
      <glyph unicode="v" glyph-name="gid115" horiz-adv-x="537" d="M520,488L345,24q-5-11-13.5-17.5T311,0H225q-12,0-20.5,6.5T191,24L16,488H119L234,153q8-21 14.5-43T261,67h13q8,22 15,43.5T303,153L417,488H520Z"/>
      <glyph unicode="w" glyph-name="gid116" horiz-adv-x="829" d="M805,488L667,27q-3-12-13-19.5T631,0H547q-13,0-23.5,8.5T511,30L436,352q-4,19-7.5,38T420,430H408q-3-21-7.5-40T392,352L318,30q-3-13-13-21.5T280,0H198q-13,0-23,7.5T162,27L23,488H123l95-351q4-19 8-37.5T233,62h13q4,19 8.5,37.5T263,137l76,321q2,13 11.5,21.5T375,488h80q14,0 23.5-8.5T491,457l75-320q4-19 8-37.5T582,62h13q5,19 8,37t8,38l95,351h99Z"/>
      <glyph unicode="x" glyph-name="gid117" horiz-adv-x="535" d="M503,488L353,251L515,0H412L255,251L400,488H503Zm-368,0L280,251L124,0H21L182,251L32,488H135ZM325,289V218H211v71H325Z"/>
      <glyph unicode="y" glyph-name="gid118" horiz-adv-x="536" d="M519,488L327-23q-12-33-30.5-65T251-146.5T187.5-189T103-205l-9,61q60,19 92.5,50T238-18l25,60q8,21 16,46.5T294,133L415,488H519Zm-400,0L242,133q5-15 9.5-30.5T259,71h24L252,0H224q-12,0-21,6.5T190,25L16,488H119Z"/>
      <glyph unicode="z" glyph-name="gid121" horiz-adv-x="513" d="M354,413l109-1L156,74L47,75L354,413ZM466,75V0H47V75H466Zm-3,413V412H50v76H463Z"/>
      <glyph unicode="{" glyph-name="gid213" horiz-adv-x="323" d="M281,768V707q-50,0-68.5-18T194,626V453q1-42-7-66.5t-28-38T102,328q38-11 58.5-25.5t29-37.5t8.5-58V-25q0-43 18.5-61T285-104v-61q-64-5-104,9t-58,46T105-31V222q0,26-6.5,38t-20,19T44,294v68q23,8 35.5,13.5t17,18.5t4.5,44V634q0,47 18,79t58,46.5T281,768Z"/>
      <glyph unicode="|" glyph-name="gid239" horiz-adv-x="249" d="M159,781V-169H89V781h70Z"/>
      <glyph unicode="}" glyph-name="gid214" horiz-adv-x="324" d="M43,768q65,6 104-8.5T204.5,713T223,634V438q0-31 4.5-44T244,375.5T280,362V294q-22-8-35.5-15T225,260t-6-38V-31q0-47-18.5-79T143-156T39-165v61q51,0 69,18t18,61V207q1,35 9,58t29,37.5T222,328q-37,7-57,20.5t-27.5,38T130,453V626q0,45-18,63T43,707v61Z"/>
      <glyph unicode="~" glyph-name="gid260" horiz-adv-x="523" d="M152,351q25-1 52-9.5T258,323t52-19t48-11q26-3 35,9.5t9,43.5h48q7-63-15.5-94T372,223q-29,2-57,9.5t-54,18t-50,19T165,280q-26,3-34.5-10T122,226H74q-5,44 4.5,71.5t28.5,41T152,351Z"/>
      <glyph unicode="&#xa0;" glyph-name="gid186" horiz-adv-x="222"/>
      <glyph unicode="&#xa1;" glyph-name="gid196" horiz-adv-x="261" d="M169,283l10-183V-194H83V100l9,183h77ZM144,496q19,0 27-8t8-28V406q0-19-8-27t-27-8H119q-19,0-27,8t-8,27v54q0,20 8,28t27,8h25Z"/>
      <glyph unicode="&#xa2;" glyph-name="gid241" horiz-adv-x="511" d="M286,605q23,0 51-2.5t57.5-7.5T448,580l-12-63q-34,5-70.5,6.5T302,525q-58,0-91.5-15.5t-48.5-54T147,349q0-69 15-107t48.5-54T302,172q15,0 40,1t52.5,3.5T447,183l10-63q-38-14-83-20.5T286,93q-86,0-137.5,24.5T74,198.5T51,349T74,499t75,81t137,25Zm13-468L285,0H239l14,137h46Zm37,414L300,135H253l36,416h47Zm14,139L336,549H290l13,141h47Z"/>
      <glyph unicode="&#xa3;" glyph-name="gid245" horiz-adv-x="572" d="M316,702q21,0 50-1t63.5-3t70.5-6l-5-78q-19,1-35.5,2t-35,1.5T381,618t-63,0q-57,0-79-21.5T220,518l17-251q2-47-5-81t-23-59T164,80q18,3 35,3.5T233,84H523V0H60V84q52,26 67,74t11,109L122,520q-3,59 9,95t37.5,55t63,25.5T316,702ZM436,393l-2-60H55l-1,60H436Z"/>
      <glyph unicode="&#xa4;" glyph-name="gid242" horiz-adv-x="592" d="M295,492q-37,0-69-19t-51-50.5T156,352t19-70.5t51-50T295,213q38,0 69.5,18.5t50,50.5T433,352q0,39-18.5,70.5t-50,50.5T295,492ZM108,582l83-84l-42-42L66,540l42,42Zm377,0l43-42l-83-82l-41,42l81,82ZM152,255l45-45l-89-89L63,166l89,89Zm287-5l89-88l-43-41l-88,87l42,42ZM295,549q55,0 99.5-26.5t71-71.5T492,351q0-54-26.5-99T394,180.5T295,154t-99,26.5T124.5,252T98,351q0,55 26.5,100T196,522.5T295,549Z"/>
      <glyph unicode="&#xa5;" glyph-name="gid246" horiz-adv-x="627" d="M592,690L359,250H267L34,690H138L277,420q10-18 17.5-39T310,341h8q7,19 15,40t16,39L488,690H592ZM363,318V0H263V318H363ZM539,212V156H93l-1,56H539Zm0,114V270H93l-1,56H539Z"/>
      <glyph unicode="&#xa6;" glyph-name="gid240" horiz-adv-x="251" d="M160,781V381H90V781h70Zm0-550V-169H90V231h70Z"/>
      <glyph unicode="&#xa7;" glyph-name="gid232" horiz-adv-x="546" d="M146,383q-3-43 1-72.5T168,260t48-39l170-96q30-17 53-37t36-48.5T488-32q0-59-25-87.5t-70.5-37T286-165q-30,1-67.5,2.5t-76.5,4T66-153l8,74q33-2 61.5-3.5t58.5-2T261-86q38,0 65,3t42.5,15T384-28q2,34-16.5,53.5T322,60L164,147q-50,26-73,59.5t-25,77T76,383h70ZM262,703q30,0 68.5-1.5t78-4T481,691l-7-73q-28,2-53.5,3t-56,1.5T288,623q-38,1-66-2t-43-14.5T163,569q-1-34 17.5-53T227,481l157-88q51-26 73.5-60T482,255.5T471,156H401q4,43-1,72t-21.5,51T331,319L160,416q-29,18-52,37.5t-36,48T59,571q0,56 23.5,84t69,38T262,703Z"/>
      <glyph unicode="&#xa8;" glyph-name="gid272" horiz-adv-x="413" d="M313,696q25,0 25-26V614q0-25-25-25H281q-26,0-26,25v56q0,26 26,26h32Zm-179,0q25,0 25-26V614q0-25-25-25H102q-25,0-25,25v56q0,26 25,26h32Z"/>
      <glyph unicode="&#xa9;" glyph-name="gid233" horiz-adv-x="831" d="M416,703q75,0 140-26.5T670.5,602t77-113.5T775,345T747.5,201.5T670.5,88T556,13.5T416-13q-76,0-141,26.5T161,88T84,201.5T56,345T84,488.5T161,602t114,74.5T416,703Zm4-138q48,0 77-3t59-11l-9-53q-32,1-58.5,1.5T419,500q-45,0-71-14t-36.5-47T301,347q0-58 10.5-91.5T348,208t71-14q47,0 78,0.5t62,4.5l7-54q-32-8-64.5-12T420,129q-71,0-114,21.5t-62,69T225,347t19,128t62,69t114,21Zm-5,87q-63,0-118.5-22.5t-98-64.5T132,467.5T108,345q0-66 24-122t66.5-98t98-64.5T415,38q64,0 120,22.5T633,125t66,98t24,122q0,67-24,122.5T633,565t-98,64.5T415,652Z"/>
      <glyph unicode="&#xaa;" glyph-name="gid129" horiz-adv-x="440" d="M253,609q56,0 86.5-24.5T370,497V272H313l-11,72l-4,9V498q0,24-13,37.5T238,549q-33,0-74-2t-80-5l-8,52q24,3 53,6.5t61,6t63,2.5Zm86-136l-1-37L179,426q-26-1-36.5-11.5T132,386V369q0-24 13-33.5t39-9.5q23,0 48.5,9T281,359t39,31V351q-8-11-23-25t-35-28t-46-23t-55-9q-45,0-72.5,22.5T61,354v37q0,39 25,60.5T156,473H339Z"/>
      <glyph unicode="&#xab;" glyph-name="gid223" horiz-adv-x="491" d="M387,460l52-34L316,251L439,71L388,38L228,240v22L387,460Zm-186,0l52-34L130,251L253,71L202,38L42,240v22L201,460Z"/>
      <glyph unicode="&#xac;" glyph-name="gid261" horiz-adv-x="588" d="M513,335V262H71v73H513Zm0-9V133l-74-1V325l74,1Z"/>
      <glyph unicode="&#xae;" glyph-name="gid234" horiz-adv-x="547" d="M274,702q62,0 112-30t80-80t30-112T466,367.5T386,287T274,257T161.5,287T81,367.5T51,480T81,592t80.5,80T274,702Zm-55-94V354H174V608h45Zm55,63q-52,0-95-26t-68.5-69T85,480q0-52 25.5-95.5t68.5-69T274,290t94.5,25.5t68.5,69T463,480q0,53-26,96t-68.5,69T274,671Zm9-60q55,0 79-15t24-59q0-28-13.5-43.5T328,474v-2q12-1 23-10t16-28l29-80H349l-26,78q-6,14-15.5,20T283,458q-43,0-67,0t-37,1l1,30H282q33,1 46.5,10T341,533q1,27-12.5,35.5T282,577q-37,0-64,0t-37-1l-7,32q26,2 48.5,2.5T283,611Z"/>
      <glyph unicode="&#xaf;" glyph-name="gid280" horiz-adv-x="400" d="M341,676V607H59v69H341Z"/>
      <glyph unicode="&#xb0;" glyph-name="gid236" horiz-adv-x="359" d="M180,703q36,0 65.5-17t47-46.5T310,575t-17.5-64.5t-47-47T180,446q-35,0-65.5,17.5t-48,47T49,575t17.5,64T114,685.5T180,703Zm0-55q-30,0-51.5-20.5T107,575q0-20 10-37t26.5-27T180,501t36.5,10T243,538t10,37q0,32-21.5,52.5T180,648Z"/>
      <glyph unicode="&#xb1;" glyph-name="gid259" horiz-adv-x="585" d="M513,398V326H72v72H513Zm0-260V65H72v73H513ZM330,529l-1-335H256V529h74Z"/>
      <glyph unicode="&#xb2;" glyph-name="gid177" horiz-adv-x="416" d="M200,774q50,0 83-8t50-28.5T350,677q0-33-20-66.5T270,537L153,423q18,2 32.5,2t31.5,0l149-1l-1-65H55v40q0,9 3,17t9,15L187,549q27,25 44,45.5T257,633t9,35q2,27-17.5,34.5T196,710q-31,0-60.5-2T64,702l-4,57q46,10 81,12.5t59,2.5Z"/>
      <glyph unicode="&#xb3;" glyph-name="gid178" horiz-adv-x="407" d="M195,775q80,0 112-20.5T339,681q0-42-15-69.5T268,576v-2q46-7 63.5-32T350,472q2-63-32.5-92T202,351q-38,0-76,3.5T54,363l5,56q24-2 44-3.5t39.5-2T183,413q51,0 70.5,15T273,482q0,17-6,31t-22.5,22.5T194,544H109v54l85,1q34,0 48.5,10t19,24.5T265,662q0,30-17,40.5T183,713q-31,0-63-1.5T65,707l-4,55q34,6 67.5,9.5T195,775Z"/>
      <glyph unicode="&#xb4;" glyph-name="gid275" horiz-adv-x="321" d="M226,733l52-73L80,542L48,585L226,733Z"/>
      <glyph unicode="&#xb5;" glyph-name="gid263" horiz-adv-x="583" d="M171,488V159q0-50 19-67t57-17q42,0 77.5,26t57,70T404,268l3-168q-15-30-41.5-56t-61-41T228-12q-43,0-77.5,15.5T95.5,51T75,133V488h96ZM170,87V-75L158-199H75V181l95-94ZM501,488V113q0-16 2-28t7.5-18T529,61h31l7-56Q547-2 525.5-6T484-10q-36,0-56.5,21.5T407,77v23l-3,16V488h97Z"/>
      <glyph unicode="&#xb6;" glyph-name="gid231" horiz-adv-x="596" d="M347,702q32,0 75.5-3.5T502,685l-6-57q-24,5-56,7.5T378,639t-53,1L278,200Q149,210 93.5,268T38,450q0,93 31,148t99,79.5T347,702Zm-8-17V-210H268V685h71Zm163,0V0H431V685h71Z"/>
      <glyph unicode="&#xb7;" glyph-name="gid199" horiz-adv-x="239" d="M134,320q20,0 28-7.5t8-27.5V232q0-20-8-28t-28-8H105q-20,0-28,8t-8,28v53q0,20 8,27.5t28,7.5h29Z"/>
      <glyph unicode="&#xb8;" glyph-name="gid281" horiz-adv-x="237" d="M88-42q42,4 67.5,0T194-61t11-46q-1-43-24-73.5T120-224t-88-6l14,48q40-1 65.5,17.5T138-115q2,17-10.5,23T78-85L88-42Z"/>
      <glyph unicode="&#xb9;" glyph-name="gid176" horiz-adv-x="297" d="M216,768V359H141V662q0,9 0.5,19t2.5,21L37,674l-9,52l113,42h75Z"/>
      <glyph unicode="&#xba;" glyph-name="gid130" horiz-adv-x="443" d="M222,609q91,0 128-39t37-134q0-62-16-100t-52-55t-97-17q-92,0-129,39T56,436q0,95 37,134t129,39Zm0-58q-51,0-70.5-24T132,436q0-66 19.5-89.5T222,323q50,0 69.5,23.5T311,436q0,67-19.5,91T222,551Z"/>
      <glyph unicode="&#xbb;" glyph-name="gid224" horiz-adv-x="491" d="M103,460L262,262V240L102,38L51,71L174,251L52,426l51,34Zm187,0L449,262V240L289,38L238,71L361,251L239,426l51,34Z"/>
      <glyph unicode="&#xbc;" glyph-name="gid173" horiz-adv-x="871" d="M649,690L207,0H140L581,690h68Zm-422,0V276H152V583q0,11 1,21t3,20L45,597l-9,50l116,43h75ZM675,414L557,173q-4-8 0.5-14t15.5-6H830V102l-56-7H519q-25,0-40,18t0,47L604,414h71Zm108-79V0H712V267l13,68h58Z"/>
      <glyph unicode="&#xbd;" glyph-name="gid172" horiz-adv-x="892" d="M643,690L202,0H134L576,690h67Zm-416,0V276H152V583q0,11 1,21t3,20L45,597l-9,50l116,43h75ZM675,421q50,0 84-7t51.5-28T828,324q0-33-19.5-66.5T748,184L624,64q19,3 34,3t34,0l153-1L844,0H529V42q0,9 2.5,17T540,73L664,192q40,39 60.5,69T746,316q1,28-19.5,34.5T670,357q-33,0-61.5-1.5T537,350l-4,56q48,10 82.5,12.5T675,421Z"/>
      <glyph unicode="&#xbe;" glyph-name="gid174" horiz-adv-x="960" d="M747,690L306,0H239L680,690h67Zm-549,5q83,0 115.5-20.5T346,600q0-42-15.5-70T270,495v-2q50-7 68-33t19-71q2-64-32.5-93.5T205,266q-38,0-77,3.5T54,277l4,56q24-2 45-3t41-1.5t42-0.5q52,0 73,15.5T280,398q0,19-6,33t-23.5,22.5T198,462l-86,2v50l86,3q34,1 50,10.5t20,24t4,28.5q0,32-18,43t-68,11q-34,0-65-1t-55-3l-4,55q35,5 68.5,7.5T198,695ZM764,414L646,173q-4-8 1-14t16-6H920V102l-56-7H608q-25,0-39.5,18T568,160L693,414h71Zm105-79V0H799V267l13,68h57Z"/>
      <glyph unicode="&#xbf;" glyph-name="gid198" horiz-adv-x="503" d="M302,288q2-54-13.5-94T249,124.5t-48.5-55t-41-51T141-39q-2-47 28-68.5T264-129q51,0 82,0.5t57,2.5t59,5l5-69q-26-4-47.5-8t-45-7T320-209.5T243-211q-101,0-152.5,38T39-56q0,45 18,77t44,59.5t52.5,56t46,64.5T221,288h81ZM274,501q21,0 28.5-8t7.5-27V411q0-19-7.5-26.5T274,377H251q-20,0-28,7.5T215,411v55q0,19 8,27t28,8h23Z"/>
      <glyph unicode="&#xc0;" glyph-name="gid6" horiz-adv-x="628" d="M365,690q13,0 23-7.5T402,663L620,0H516L344,555q-4,15-8,30t-8,28H300q-4-13-8-28t-9-30L111,0H8L226,663q4,12 14,19.5t23,7.5H365ZM489,293V210H137v83H489ZM197,912L375,766l-32-44L145,841l52,71Z"/>
      <glyph unicode="&#xc1;" glyph-name="gid2" horiz-adv-x="628" d="M365,690q13,0 23-7.5T402,663L620,0H516L344,555q-4,15-8,30t-8,28H300q-4-13-8-28t-9-30L111,0H8L226,663q4,12 14,19.5t23,7.5H365ZM489,293V210H137v83H489ZM418,918l52-73L272,727l-32,43L418,918Z"/>
      <glyph unicode="&#xc2;" glyph-name="gid4" horiz-adv-x="628" d="M365,690q13,0 23-7.5T402,663L620,0H516L344,555q-4,15-8,30t-8,28H300q-4-13-8-28t-9-30L111,0H8L226,663q4,12 14,19.5t23,7.5H365ZM489,293V210H137v83H489ZM348,893L481,765l-31-40L318,821h-8L177,725l-31,40L279,893h69Z"/>
      <glyph unicode="&#xc3;" glyph-name="gid8" horiz-adv-x="628" d="M365,690q13,0 23-7.5T402,663L620,0H516L344,555q-4,15-8,30t-8,28H300q-4-13-8-28t-9-30L111,0H8L226,663q4,12 14,19.5t23,7.5H365ZM489,293V210H137v83H489ZM232,876q23-2 42-9t36-16.5t34.5-17T383,822q28-4 37.5,9t9.5,40h44q7-58-15.5-89T396,754q-34,3-59,15.5T290,795t-47,15q-27,3-36-10t-9-43H153q-4,42 5.5,69T188,865.5T232,876Z"/>
      <glyph unicode="&#xc4;" glyph-name="gid5" horiz-adv-x="628" d="M365,690q13,0 23-7.5T402,663L620,0H516L344,555q-4,15-8,30t-8,28H300q-4-13-8-28t-9-30L111,0H8L226,663q4,12 14,19.5t23,7.5H365ZM489,293V210H137v83H489ZM419,867q25,0 25-26V785q0-25-25-25H387q-26,0-26,25v56q0,26 26,26h32Zm-179,0q25,0 25-26V785q0-25-25-25H208q-25,0-25,25v56q0,26 25,26h32Z"/>
      <glyph unicode="&#xc5;" glyph-name="gid7" horiz-adv-x="628" d="M365,690q13,0 23-7.5T402,663L620,0H516L344,555q-4,15-8,30t-8,28H300q-4-13-8-28t-9-30L111,0H8L226,663q4,12 14,19.5t23,7.5H365ZM489,293V210H137v83H489ZM314,928q29,0 54-14.5t40-38T423,821q0-29-15-53.5t-39.5-39T314,714t-55,14.5T219.5,767T205,821q0,31 14.5,54.5t39.5,38T314,928Zm0-47q-24,0-41-16.5T256,821t17-43t41-16q25,0 41.5,16T372,821t-16.5,43.5T314,881Z"/>
      <glyph unicode="&#xc6;" glyph-name="gid9" horiz-adv-x="917" d="M568,691q93,0 162.5-1T868,685l-4-78H611q-30,0-47.5-17.5T546,541V146q0-32 16-48t49-16H864l4-77Q796,1 721,0T571-1q-54,0-86.5,35T452,122V552q0,21 9,41.5T482,623h-8q-13-7-27.5-23T419,562L101,0H-3L331,578q18,32 39,54.5t48,35t64,18t86,5.5ZM478,299V219H173l7,80H478ZM465,403l360-1V325l-360-1v79Z"/>
      <glyph unicode="&#xc7;" glyph-name="gid12" horiz-adv-x="573" d="M333,702q45,0 77-2t59-6.5T525,681l-10-75q-30,3-56,4.5T403.5,613T333,614q-64,0-101-25t-52.5-83.5T164,345t15.5-160.5T232,101T333,76q65,0 109.5,2.5T529,87l10-75Q495-1 448.5-6.5T333-12Q233-12 172.5,22.5T85,135T58,345T85,555t87.5,112.5T333,702ZM278-56q42,4 67.5,0T384-75t11-46q-1-43-24-73.5T310-238t-88-6l14,48q40-1 65.5,17.5T328-129q2,17-10.5,23T268-99l10,43Z"/>
      <glyph unicode="&#xc8;" glyph-name="gid19" horiz-adv-x="563" d="M214,691q50,0 102,0t102.5-1.5T515,685l-4-77H236q-30,0-44-15t-14-48V145q0-33 14-48.5T236,81H511l4-76q-46-3-96.5-4T316-0.5T214-1q-62,0-98.5,33.5T78,122V568q1,57 37.5,90T214,691ZM96,402H472V325H96v77Zm98,529L372,785l-32-44L142,860l52,71Z"/>
      <glyph unicode="&#xc9;" glyph-name="gid16" horiz-adv-x="563" d="M214,691q50,0 102,0t102.5-1.5T515,685l-4-77H236q-30,0-44-15t-14-48V145q0-33 14-48.5T236,81H511l4-76q-46-3-96.5-4T316-0.5T214-1q-62,0-98.5,33.5T78,122V568q1,57 37.5,90T214,691ZM96,402H472V325H96v77ZM415,937l52-73L269,746l-32,43L415,937Z"/>
      <glyph unicode="&#xca;" glyph-name="gid17" horiz-adv-x="563" d="M214,691q50,0 102,0t102.5-1.5T515,685l-4-77H236q-30,0-44-15t-14-48V145q0-33 14-48.5T236,81H511l4-76q-46-3-96.5-4T316-0.5T214-1q-62,0-98.5,33.5T78,122V568q1,57 37.5,90T214,691ZM96,402H472V325H96v77ZM346,911L479,783l-31-40L316,839h-8L175,743l-31,40L277,911h69Z"/>
      <glyph unicode="&#xcb;" glyph-name="gid18" horiz-adv-x="563" d="M214,691q50,0 102,0t102.5-1.5T515,685l-4-77H236q-30,0-44-15t-14-48V145q0-33 14-48.5T236,81H511l4-76q-46-3-96.5-4T316-0.5T214-1q-62,0-98.5,33.5T78,122V568q1,57 37.5,90T214,691ZM96,402H472V325H96v77ZM416,885q25,0 25-26V803q0-25-25-25H384q-26,0-26,25v56q0,26 26,26h32Zm-179,0q25,0 25-26V803q0-25-25-25H205q-25,0-25,25v56q0,26 25,26h32Z"/>
      <glyph unicode="&#xcc;" glyph-name="gid27" horiz-adv-x="268" d="M184,690V0H84V690H184ZM17,919L195,773l-32-44L-35,848l52,71Z"/>
      <glyph unicode="&#xcd;" glyph-name="gid24" horiz-adv-x="268" d="M184,690V0H84V690H184Zm54,235l52-73L92,734L60,777L238,925Z"/>
      <glyph unicode="&#xce;" glyph-name="gid25" horiz-adv-x="268" d="M184,690V0H84V690H184ZM168,899L301,771l-31-40L138,827h-8L-3,731l-31,40L99,899h69Z"/>
      <glyph unicode="&#xcf;" glyph-name="gid26" horiz-adv-x="268" d="M184,690V0H84V690H184Zm55,184q25,0 25-26V792q0-25-25-25H207q-26,0-26,25v56q0,26 26,26h32ZM60,874q25,0 25-26V792q0-25-25-25H28Q3,767 3,792v56q0,26 25,26H60Z"/>
      <glyph unicode="&#xd0;" glyph-name="gid14" horiz-adv-x="672" d="M334,393V339H21v54H334Zm4,306q75,0 127.5-18T550,622.5t47-109T612,345T597,176.5t-47-109T465.5,9T338-9Q266-9 204-6.5T87,0l43,80q41-2 93-3.5T338,75t100.5,25t53,83.5T507,345T491.5,506.5t-53,84T338,616q-62,0-111-1t-96-2L87,690q55,4 116.5,6.5T338,699Zm-151-9V0H87V690H187Z"/>
      <glyph unicode="&#xd1;" glyph-name="gid33" horiz-adv-x="708" d="M624,690V39q0-39-37-39H501q-17,0-26.5,8T458,31L232,497q-9,20-21,45.5T193,590H178q2-23 3-46.5t1-47.5V0H84V651q0,39 38,39h83q17,0 27-8t17-23L467,205q11-21 23.5-48T515,104h16q-2,27-3,53.5T527,210V690h97ZM283,883q23-2 42-9t36-16.5t34.5-17T434,829q28-4 37.5,9t9.5,40h44q7-58-15.5-89T447,761q-34,3-59,15.5T341,802t-47,15q-27,3-36-10t-9-43H204q-4,42 5.5,69T239,872.5T283,883Z"/>
      <glyph unicode="&#xd2;" glyph-name="gid38" horiz-adv-x="672" d="M336,703q76,0 129.5-18T551,626t46.5-110T612,345q0-101-14.5-170.5T551,64T465.5,5T336-13T206.5,5t-86,59T73,174.5T58,345q0,102 15,171t47.5,110t86,59T336,703Zm0-87q-65,0-103-25t-53.5-83.5T164,345q0-103 15.5-162T233,99T336,74T438.5,99T492,183t16,162q0,104-16,162.5T438.5,591T336,616ZM221,919L399,773l-32-44L169,848l52,71Z"/>
      <glyph unicode="&#xd3;" glyph-name="gid35" horiz-adv-x="672" d="M336,703q76,0 129.5-18T551,626t46.5-110T612,345q0-101-14.5-170.5T551,64T465.5,5T336-13T206.5,5t-86,59T73,174.5T58,345q0,102 15,171t47.5,110t86,59T336,703Zm0-87q-65,0-103-25t-53.5-83.5T164,345q0-103 15.5-162T233,99T336,74T438.5,99T492,183t16,162q0,104-16,162.5T438.5,591T336,616ZM441,927l52-73L295,736l-32,43L441,927Z"/>
      <glyph unicode="&#xd4;" glyph-name="gid36" horiz-adv-x="672" d="M336,703q76,0 129.5-18T551,626t46.5-110T612,345q0-101-14.5-170.5T551,64T465.5,5T336-13T206.5,5t-86,59T73,174.5T58,345q0,102 15,171t47.5,110t86,59T336,703Zm0-87q-65,0-103-25t-53.5-83.5T164,345q0-103 15.5-162T233,99T336,74T438.5,99T492,183t16,162q0,104-16,162.5T438.5,591T336,616Zm36,283L505,771l-31-40L342,827h-8L201,731l-31,40L303,899h69Z"/>
      <glyph unicode="&#xd5;" glyph-name="gid40" horiz-adv-x="672" d="M336,703q76,0 129.5-18T551,626t46.5-110T612,345q0-101-14.5-170.5T551,64T465.5,5T336-13T206.5,5t-86,59T73,174.5T58,345q0,102 15,171t47.5,110t86,59T336,703Zm0-87q-65,0-103-25t-53.5-83.5T164,345q0-103 15.5-162T233,99T336,74T438.5,99T492,183t16,162q0,104-16,162.5T438.5,591T336,616ZM255,883q23-2 42-9t36-16.5t34.5-17T406,829q28-4 37.5,9t9.5,40h44q7-58-15.5-89T419,761q-34,3-59,15.5T313,802t-47,15q-27,3-36-10t-9-43H176q-4,42 5.5,69T211,872.5T255,883Z"/>
      <glyph unicode="&#xd6;" glyph-name="gid37" horiz-adv-x="672" d="M336,703q76,0 129.5-18T551,626t46.5-110T612,345q0-101-14.5-170.5T551,64T465.5,5T336-13T206.5,5t-86,59T73,174.5T58,345q0,102 15,171t47.5,110t86,59T336,703Zm0-87q-65,0-103-25t-53.5-83.5T164,345q0-103 15.5-162T233,99T336,74T438.5,99T492,183t16,162q0,104-16,162.5T438.5,591T336,616ZM442,874q25,0 25-26V792q0-25-25-25H410q-26,0-26,25v56q0,26 26,26h32Zm-179,0q25,0 25-26V792q0-25-25-25H231q-25,0-25,25v56q0,26 25,26h32Z"/>
      <glyph unicode="&#xd7;" glyph-name="gid254" horiz-adv-x="486" d="M401,479L43,158l48-57L448,423l-47,56ZM91,479L43,422L401,101l47,57L91,479Z"/>
      <glyph unicode="&#xd8;" glyph-name="gid39" horiz-adv-x="672" d="M494,751l47-20L171-59L125-39L494,751ZM336,703q76,0 129.5-18T551,626t46.5-110T612,345q0-101-14.5-170.5T551,64T465.5,5T336-13T206.5,5t-86,59T73,174.5T58,345q0,102 15,171t47.5,110t86,59T336,703Zm0-87q-65,0-103-25t-53.5-83.5T164,345q0-103 15.5-162T233,99T336,74T438.5,99T492,183t16,162q0,104-16,162.5T438.5,591T336,616Z"/>
      <glyph unicode="&#xd9;" glyph-name="gid52" horiz-adv-x="670" d="M591,690V266q0-101-24.5-162.5T487,14.5T340-13q-96,0-153,27.5t-82.5,89T79,266V690H179V266q0-72 14.5-114.5t49-60T335,74t91.5,17.5t49,60T491,266V690H591ZM219,919L397,773l-32-44L167,848l52,71Z"/>
      <glyph unicode="&#xda;" glyph-name="gid49" horiz-adv-x="670" d="M591,690V266q0-101-24.5-162.5T487,14.5T340-13q-96,0-153,27.5t-82.5,89T79,266V690H179V266q0-72 14.5-114.5t49-60T335,74t91.5,17.5t49,60T491,266V690H591ZM440,925l52-73L294,734l-32,43L440,925Z"/>
      <glyph unicode="&#xdb;" glyph-name="gid50" horiz-adv-x="670" d="M591,690V266q0-101-24.5-162.5T487,14.5T340-13q-96,0-153,27.5t-82.5,89T79,266V690H179V266q0-72 14.5-114.5t49-60T335,74t91.5,17.5t49,60T491,266V690H591ZM370,899L503,771l-31-40L340,827h-8L199,731l-31,40L301,899h69Z"/>
      <glyph unicode="&#xdc;" glyph-name="gid51" horiz-adv-x="670" d="M591,690V266q0-101-24.5-162.5T487,14.5T340-13q-96,0-153,27.5t-82.5,89T79,266V690H179V266q0-72 14.5-114.5t49-60T335,74t91.5,17.5t49,60T491,266V690H591ZM441,874q25,0 25-26V792q0-25-25-25H409q-26,0-26,25v56q0,26 26,26h32Zm-179,0q25,0 25-26V792q0-25-25-25H230q-25,0-25,25v56q0,26 25,26h32Z"/>
      <glyph unicode="&#xdd;" glyph-name="gid57" horiz-adv-x="577" d="M567,690L334,231H243L9,690H115L255,406q9-19 16-39.5T285,326h7q7,20 14.5,40.5T322,405L462,690H567ZM338,299V0H238V299H338Zm56,617l52-73L248,725l-32,43L394,916Z"/>
      <glyph unicode="&#xde;" glyph-name="gid43" horiz-adv-x="596" d="M326,568q85,0 134.5-19t71-66.5T553,348q0-86-21-134t-68.5-66.5T337,129q-43,0-82,2.5T183,138t-56.5,8.5T94,154l3,58q54,0 112,0t115,0q48,1 76,12t40,40.5T452,348q0,56-12,85.5t-40,41T324,486q-84,0-144.5-1T98,482L84,560q38,4 72,5.5t73.5,2T326,568ZM184,690V0H84V690H184Z"/>
      <glyph unicode="&#xdf;" glyph-name="gid108" horiz-adv-x="681" d="M344,723q82,0 132.5-12.5t73.5-42T573,588q0-27-7-48t-24.5-40.5T489,458q-29-17-50-29t-32-24.5T396,369q0-25 17-38t47-27l99-46q31-15 50-31.5T637.5,187t9.5-60q0-56-20-86T567,0T467-11q-32,0-72.5,2T305,0l6,70q37-3 72-4t65-1q37,1 59.5,5T541,88t11,44q0,22-8,34.5t-23.5,22T484,208l-99,45q-37,18-59,44.5T304,365q0,37 16,59t42.5,38T421,497q35,21 48,39t13,48q0,21-11,34.5T431,639t-84,7q-52,0-82-9t-42.5-32.5T210,535V0H114V545q0,58 15,93t44.5,53.5t72,25T344,723ZM163,488V415H26v71l91,2h46Z"/>
      <glyph unicode="&#xe0;" glyph-name="gid64" horiz-adv-x="553" d="M310,500q56,0 94.5-14.5t58-49.5T482,340V0H406L391,106l-6,12V340q0,43-20,62t-76,19q-38,0-95.5-4T80,409l-9,69q34,6 75.5,11t84.5,8t79,3ZM438,301l-1-68l-230-1q-34-1-47.5-17.5T146,169V139q0-36 17.5-52.5T219,70q28,0 62.5,10.5t69.5,32T414,167V104q-10-14-30-33.5T335.5,33t-63-30T197-9Q153-9 119.5,6.5T67,52.5T48,127v53q0,57 36.5,89T186,301H438ZM160,740L338,594l-32-44L108,669l52,71Z"/>
      <glyph unicode="&#xe1;" glyph-name="gid61" horiz-adv-x="553" d="M310,500q56,0 94.5-14.5t58-49.5T482,340V0H406L391,106l-6,12V340q0,43-20,62t-76,19q-38,0-95.5-4T80,409l-9,69q34,6 75.5,11t84.5,8t79,3ZM438,301l-1-68l-230-1q-34-1-47.5-17.5T146,169V139q0-36 17.5-52.5T219,70q28,0 62.5,10.5t69.5,32T414,167V104q-10-14-30-33.5T335.5,33t-63-30T197-9Q153-9 119.5,6.5T67,52.5T48,127v53q0,57 36.5,89T186,301H438ZM381,746l52-73L235,555l-32,43L381,746Z"/>
      <glyph unicode="&#xe2;" glyph-name="gid62" horiz-adv-x="553" d="M310,500q56,0 94.5-14.5t58-49.5T482,340V0H406L391,106l-6,12V340q0,43-20,62t-76,19q-38,0-95.5-4T80,409l-9,69q34,6 75.5,11t84.5,8t79,3ZM438,301l-1-68l-230-1q-34-1-47.5-17.5T146,169V139q0-36 17.5-52.5T219,70q28,0 62.5,10.5t69.5,32T414,167V104q-10-14-30-33.5T335.5,33t-63-30T197-9Q153-9 119.5,6.5T67,52.5T48,127v53q0,57 36.5,89T186,301H438ZM311,720L444,592l-31-40L281,648h-8L140,552l-31,40L242,720h69Z"/>
      <glyph unicode="&#xe3;" glyph-name="gid66" horiz-adv-x="553" d="M310,500q56,0 94.5-14.5t58-49.5T482,340V0H406L391,106l-6,12V340q0,43-20,62t-76,19q-38,0-95.5-4T80,409l-9,69q34,6 75.5,11t84.5,8t79,3ZM438,301l-1-68l-230-1q-34-1-47.5-17.5T146,169V139q0-36 17.5-52.5T219,70q28,0 62.5,10.5t69.5,32T414,167V104q-10-14-30-33.5T335.5,33t-63-30T197-9Q153-9 119.5,6.5T67,52.5T48,127v53q0,57 36.5,89T186,301H438ZM194,703q23-2 42-9t36-16.5t34.5-17T345,649q28-4 37.5,9t9.5,40h44q7-58-15.5-89T358,581q-34,3-59,15.5T252,622t-47,15q-27,3-36-10t-9-43H115q-4,42 5.5,69T150,692.5T194,703Z"/>
      <glyph unicode="&#xe4;" glyph-name="gid63" horiz-adv-x="553" d="M310,500q56,0 94.5-14.5t58-49.5T482,340V0H406L391,106l-6,12V340q0,43-20,62t-76,19q-38,0-95.5-4T80,409l-9,69q34,6 75.5,11t84.5,8t79,3ZM438,301l-1-68l-230-1q-34-1-47.5-17.5T146,169V139q0-36 17.5-52.5T219,70q28,0 62.5,10.5t69.5,32T414,167V104q-10-14-30-33.5T335.5,33t-63-30T197-9Q153-9 119.5,6.5T67,52.5T48,127v53q0,57 36.5,89T186,301H438ZM382,695q25,0 25-26V613q0-25-25-25H350q-26,0-26,25v56q0,26 26,26h32Zm-179,0q25,0 25-26V613q0-25-25-25H171q-25,0-25,25v56q0,26 25,26h32Z"/>
      <glyph unicode="&#xe5;" glyph-name="gid65" horiz-adv-x="553" d="M310,500q56,0 94.5-14.5t58-49.5T482,340V0H406L391,106l-6,12V340q0,43-20,62t-76,19q-38,0-95.5-4T80,409l-9,69q34,6 75.5,11t84.5,8t79,3ZM438,301l-1-68l-230-1q-34-1-47.5-17.5T146,169V139q0-36 17.5-52.5T219,70q28,0 62.5,10.5t69.5,32T414,167V104q-10-14-30-33.5T335.5,33t-63-30T197-9Q153-9 119.5,6.5T67,52.5T48,127v53q0,57 36.5,89T186,301H438ZM277,755q29,0 54-14.5t40-38T386,648q0-29-15-53.5t-39.5-39T277,541t-55,14.5T182.5,594T168,648q0,31 14.5,54.5t39.5,38T277,755Zm0-47q-24,0-41-16.5T219,648t17-43t41-16q25,0 41.5,16T335,648t-16.5,43.5T277,708Z"/>
      <glyph unicode="&#xe6;" glyph-name="gid67" horiz-adv-x="872" d="M612,500q113,0 163-40.5T826,340q0-45-14-75.5T769,218t-76-16H420v69H667q38,0 50.5,20T729,340q0,44-26,63.5T616,423q-51,0-80-15t-41-52T483,252q0-75 14.5-114.5T545,83t87-15q39,0 85.5,3.5T805,80l9-63Q791,7 756.5,0.5T686-9t-66-3q-85,0-137.5,26T407,96.5T384,245q0,96 23,152t74,79.5T612,500ZM438,300l-1-67l-230-1q-34-1-47.5-17.5T146,169V139q0-36 17.5-52.5T219,70q28,0 63,10.5t71,33T418,170l1-64q-11-15-31.5-34.5T338.5,33T274,2.5T196-9Q153-9 119.5,6.5T67,52.5T48,127v53q0,57 36.5,88.5T186,300H438ZM310,500q55,0 93.5-14.5t58-49.5T481,340V239H384V340q0,43-20,62t-75,19q-38,0-95.5-4T80,409l-9,69q34,6 75.5,11t84.5,8t79,3Z"/>
      <glyph unicode="&#xe7;" glyph-name="gid70" horiz-adv-x="493" d="M287,500q23,0 50.5-2t57-7T449,476l-12-62q-35,3-71.5,4.5T303,420q-56,0-88.5-15.5T168,351T154,245t14-107t46.5-54T303,69q15,0 39,1t52,3t54,6l9-64Q420,1 375-5.5T286-12q-86,0-137.5,25T74,94T51,245q0,94 23.5,150t75,80.5T287,500ZM232-54q42,4 67.5,0T338-73t11-46q-1-43-24-73.5T264-236t-88-6l14,48q40-1 65.5,17.5T282-127q2,17-10.5,23T222-97l10,43Z"/>
      <glyph unicode="&#xe8;" glyph-name="gid77" horiz-adv-x="542" d="M281,500q113,0 163.5-40.5T495,340q1-66-28.5-102T371,202H89v69H346q33,0 43,21t10,48q-1,45-26.5,64T285,423q-51,0-80-15t-40.5-52T153,252q0-75 14.5-114.5t47-54.5T301,68q38,0 85.5,3.5T473,80l10-63Q459,7 425,0.5T355-9t-66-3q-86,0-138,26T75,96.5T51,245q0,96 24,152t75,79.5T281,500ZM167,739L345,593l-32-44L115,668l52,71Z"/>
      <glyph unicode="&#xe9;" glyph-name="gid74" horiz-adv-x="542" d="M281,500q113,0 163.5-40.5T495,340q1-66-28.5-102T371,202H89v69H346q33,0 43,21t10,48q-1,45-26.5,64T285,423q-51,0-80-15t-40.5-52T153,252q0-75 14.5-114.5t47-54.5T301,68q38,0 85.5,3.5T473,80l10-63Q459,7 425,0.5T355-9t-66-3q-86,0-138,26T75,96.5T51,245q0,96 24,152t75,79.5T281,500ZM388,745l52-73L242,554l-32,43L388,745Z"/>
      <glyph unicode="&#xea;" glyph-name="gid75" horiz-adv-x="542" d="M281,500q113,0 163.5-40.5T495,340q1-66-28.5-102T371,202H89v69H346q33,0 43,21t10,48q-1,45-26.5,64T285,423q-51,0-80-15t-40.5-52T153,252q0-75 14.5-114.5t47-54.5T301,68q38,0 85.5,3.5T473,80l10-63Q459,7 425,0.5T355-9t-66-3q-86,0-138,26T75,96.5T51,245q0,96 24,152t75,79.5T281,500Zm37,219L451,591l-31-40L288,647h-8L147,551l-31,40L249,719h69Z"/>
      <glyph unicode="&#xeb;" glyph-name="gid76" horiz-adv-x="542" d="M281,500q113,0 163.5-40.5T495,340q1-66-28.5-102T371,202H89v69H346q33,0 43,21t10,48q-1,45-26.5,64T285,423q-51,0-80-15t-40.5-52T153,252q0-75 14.5-114.5t47-54.5T301,68q38,0 85.5,3.5T473,80l10-63Q459,7 425,0.5T355-9t-66-3q-86,0-138,26T75,96.5T51,245q0,96 24,152t75,79.5T281,500ZM389,694q25,0 25-26V612q0-25-25-25H357q-26,0-26,25v56q0,26 26,26h32Zm-179,0q25,0 25-26V612q0-25-25-25H178q-25,0-25,25v56q0,26 25,26h32Z"/>
      <glyph unicode="&#xec;" glyph-name="gid87" horiz-adv-x="254" d="M176,488V0H79V488h97ZM10,739L188,593l-32-44L-42,668l52,71Z"/>
      <glyph unicode="&#xed;" glyph-name="gid83" horiz-adv-x="254" d="M176,488V0H79V488h97Zm55,257l52-73L85,554L53,597L231,745Z"/>
      <glyph unicode="&#xee;" glyph-name="gid84" horiz-adv-x="254" d="M176,488V0H79V488h97ZM162,719L295,591l-31-40L132,647h-8L-9,551l-31,40L93,719h69Z"/>
      <glyph unicode="&#xef;" glyph-name="gid85" horiz-adv-x="254" d="M176,488V0H79V488h97Zm56,206q25,0 25-26V612q0-25-25-25H200q-26,0-26,25v56q0,26 26,26h32ZM53,694q25,0 25-26V612q0-25-25-25H21q-25,0-25,25v56q0,26 25,26H53Z"/>
      <glyph unicode="&#xf0;" glyph-name="gid72" horiz-adv-x="563" d="M131,698q57,3 111.5-8.5t102-40t82.5-77t55.5-120T503,284q0-68-10-123T458.5,67.5T389.5,8T277-13Q163-13 107.5,42.5T52,219q0,73 20.5,124.5t66,78T259,448q27,0 58-5t63-21t60-45l-7-41q-39,18-76.5,26.5T276,371q-46,0-72.5-17.5T166,302t-11-83q0-85 29.5-119T278,66q55,0 81,25t34.5,74.5T402,287q0,90-15.5,152t-43,100.5T280,598t-77,27t-83,5l11,68Zm284,16l32-41L239,511l-33,40L415,714Z"/>
      <glyph unicode="&#xf1;" glyph-name="gid94" horiz-adv-x="585" d="M380,500q133,0 133-134V0H416V338q0,46-15,63.5T350,419q-43,0-86-20.5T161,342l-4,65q56,45 112,69t111,24ZM155,488l9-94l7-14V0H75V488h80Zm66,215q23-2 42-9t36-16.5t34.5-17T372,649q28-4 37.5,9t9.5,40h44q7-58-15.5-89T385,581q-34,3-59,15.5T279,622t-47,15q-27,3-36-10t-9-43H142q-4,42 5.5,69T177,692.5T221,703Z"/>
      <glyph unicode="&#xf2;" glyph-name="gid99" horiz-adv-x="572" d="M286,500q86,0 137.5-25t74-81.5T520,244q0-94-22.5-150.5T423.5,12T286-13q-85,0-136.5,25T75,93.5T52,244q0,93 23,149.5T149.5,475T286,500Zm0-78q-50,0-79-16t-41-54.5T154,244t12-108t41-54.5T286,66t79.5,15.5T407,136t12,108T407,351.5T365.5,406T286,422ZM171,734L349,588l-32-44L119,663l52,71Z"/>
      <glyph unicode="&#xf3;" glyph-name="gid96" horiz-adv-x="572" d="M286,500q86,0 137.5-25t74-81.5T520,244q0-94-22.5-150.5T423.5,12T286-13q-85,0-136.5,25T75,93.5T52,244q0,93 23,149.5T149.5,475T286,500Zm0-78q-50,0-79-16t-41-54.5T154,244t12-108t41-54.5T286,66t79.5,15.5T407,136t12,108T407,351.5T365.5,406T286,422ZM392,740l52-73L246,549l-32,43L392,740Z"/>
      <glyph unicode="&#xf4;" glyph-name="gid97" horiz-adv-x="572" d="M286,500q86,0 137.5-25t74-81.5T520,244q0-94-22.5-150.5T423.5,12T286-13q-85,0-136.5,25T75,93.5T52,244q0,93 23,149.5T149.5,475T286,500Zm0-78q-50,0-79-16t-41-54.5T154,244t12-108t41-54.5T286,66t79.5,15.5T407,136t12,108T407,351.5T365.5,406T286,422Zm36,293L455,587l-31-40L292,643h-8L151,547l-31,40L253,715h69Z"/>
      <glyph unicode="&#xf5;" glyph-name="gid101" horiz-adv-x="572" d="M286,500q86,0 137.5-25t74-81.5T520,244q0-94-22.5-150.5T423.5,12T286-13q-85,0-136.5,25T75,93.5T52,244q0,93 23,149.5T149.5,475T286,500Zm0-78q-50,0-79-16t-41-54.5T154,244t12-108t41-54.5T286,66t79.5,15.5T407,136t12,108T407,351.5T365.5,406T286,422ZM205,698q23-2 42-9t36-16.5t34.5-17T356,644q28-4 37.5,9t9.5,40h44q7-58-15.5-89T369,576q-34,3-59,15.5T263,617t-47,15q-27,3-36-10t-9-43H126q-4,42 5.5,69T161,687.5T205,698Z"/>
      <glyph unicode="&#xf6;" glyph-name="gid98" horiz-adv-x="572" d="M286,500q86,0 137.5-25t74-81.5T520,244q0-94-22.5-150.5T423.5,12T286-13q-85,0-136.5,25T75,93.5T52,244q0,93 23,149.5T149.5,475T286,500Zm0-78q-50,0-79-16t-41-54.5T154,244t12-108t41-54.5T286,66t79.5,15.5T407,136t12,108T407,351.5T365.5,406T286,422ZM393,689q25,0 25-26V607q0-25-25-25H361q-26,0-26,25v56q0,26 26,26h32Zm-179,0q25,0 25-26V607q0-25-25-25H182q-25,0-25,25v56q0,26 25,26h32Z"/>
      <glyph unicode="&#xf7;" glyph-name="gid255" horiz-adv-x="568" d="M504,331V259H62v72H504ZM295,176q19,0 27.5-8t8.5-28V95q0-21-8.5-29T295,58H270q-20,0-27.5,8T235,95v45q0,20 7.5,28t27.5,8h25Zm0,354q19,0 27.5-8.5T331,494V448q0-20-8.5-28T295,412H270q-20,0-27.5,8T235,448v46q0,19 7.5,27.5T270,530h25Z"/>
      <glyph unicode="&#xf8;" glyph-name="gid100" horiz-adv-x="572" d="M408,563l40-19L159-77L119-57L408,563ZM286,500q86,0 137.5-25t74-81.5T520,244q0-94-22.5-150.5T423.5,12T286-13q-85,0-136.5,25T75,93.5T52,244q0,93 23,149.5T149.5,475T286,500Zm0-78q-50,0-79-16t-41-54.5T154,244t12-108t41-54.5T286,66t79.5,15.5T407,136t12,108T407,351.5T365.5,406T286,422Z"/>
      <glyph unicode="&#xf9;" glyph-name="gid114" horiz-adv-x="574" d="M168,488V150q0-44 17-62t57-18q39,0 77.5,18T413,141l11-63Q368,33 314.5,10T206-13Q72-13 72,121V488h96Zm332,0V0H422l-9,93l-10,15V488h97ZM170,742L348,596l-32-44L118,671l52,71Z"/>
      <glyph unicode="&#xfa;" glyph-name="gid111" horiz-adv-x="574" d="M168,488V150q0-44 17-62t57-18q39,0 77.5,18T413,141l11-63Q368,33 314.5,10T206-13Q72-13 72,121V488h96Zm332,0V0H422l-9,93l-10,15V488h97ZM391,748l52-73L245,557l-32,43L391,748Z"/>
      <glyph unicode="&#xfb;" glyph-name="gid112" horiz-adv-x="574" d="M168,488V150q0-44 17-62t57-18q39,0 77.5,18T413,141l11-63Q368,33 314.5,10T206-13Q72-13 72,121V488h96Zm332,0V0H422l-9,93l-10,15V488h97ZM321,722L454,594l-31-40L291,650h-8L150,554l-31,40L252,722h69Z"/>
      <glyph unicode="&#xfc;" glyph-name="gid113" horiz-adv-x="574" d="M168,488V150q0-44 17-62t57-18q39,0 77.5,18T413,141l11-63Q368,33 314.5,10T206-13Q72-13 72,121V488h96Zm332,0V0H422l-9,93l-10,15V488h97ZM392,697q25,0 25-26V615q0-25-25-25H360q-26,0-26,25v56q0,26 26,26h32Zm-179,0q25,0 25-26V615q0-25-25-25H181q-25,0-25,25v56q0,26 25,26h32Z"/>
      <glyph unicode="&#xfd;" glyph-name="gid119" horiz-adv-x="536" d="M519,488L327-23q-12-33-30.5-65T251-146.5T187.5-189T103-205l-9,61q60,19 92.5,50T238-18l25,60q8,21 16,46.5T294,133L415,488H519Zm-400,0L242,133q5-15 9.5-30.5T259,71h24L252,0H224q-12,0-21,6.5T190,25L16,488H119ZM375,745l52-73L229,554l-32,43L375,745Z"/>
      <glyph unicode="&#xfe;" glyph-name="gid104" horiz-adv-x="578" d="M348,500q96,0 136-62t40-198q0-94-19-150T446.5,10.5T345-13Q293-13 241.5,1.5T144,47l16,55q45-18 81-28t72-10q41,0 65,15.5T413,134t11,107q0,70-11,108.5T378.5,404T316,420q-36,0-71.5-17.5T168,355l-21,58q42,40 91,63.5T348,500ZM171,700V537q1-30 0-57t-4-56l4-12V62l-4-12q3-28 4-55t0-57V-199H75V700h96Z"/>
      <glyph unicode="&#xff;" glyph-name="gid120" horiz-adv-x="536" d="M519,488L327-23q-12-33-30.5-65T251-146.5T187.5-189T103-205l-9,61q60,19 92.5,50T238-18l25,60q8,21 16,46.5T294,133L415,488H519Zm-400,0L242,133q5-15 9.5-30.5T259,71h24L252,0H224q-12,0-21,6.5T190,25L16,488H119ZM375,694q25,0 25-26V612q0-25-25-25H343q-26,0-26,25v56q0,26 26,26h32Zm-179,0q25,0 25-26V612q0-25-25-25H164q-25,0-25,25v56q0,26 25,26h32Z"/>
      <glyph unicode="&#x2013;" glyph-name="gid208" horiz-adv-x="586" d="M517,288V218H69v70H517Z"/>
      <glyph unicode="&#x2014;" glyph-name="gid209" horiz-adv-x="889" d="M819,288V218H69v70H819Z"/>
      <glyph unicode="&#x2018;" glyph-name="gid221" horiz-adv-x="217" d="M96,487q-20,0-27,7.5T62,521v59q1,42 10.5,79T99,728l43-12q-6-29-8.5-54T131,603q27,0 27-29V521q-1-19-9.5-26.5T122,487H96Z"/>
      <glyph unicode="&#x2019;" glyph-name="gid222" horiz-adv-x="214" d="M120,720q20,0 27-7t7-26V628q-1-43-10.5-80T117,479L75,491q5,29 7.5,54.5T85,605q-26,0-26,29v53q1,19 9.5,26T94,720h26Z"/>
      <glyph unicode="&#x201a;" glyph-name="gid217" horiz-adv-x="228" d="M128,118q20,0 27-7.5T162,84V25q0-30-4.5-56T145-80.5T124-126L82-113q5,29 7.5,54.5T92,1Q66,1 66,30V84q1,19 9.5,26.5T102,118h26Z"/>
      <glyph unicode="&#x201c;" glyph-name="gid219" horiz-adv-x="374" d="M96,487q-20,0-27,7.5T62,521v59q1,42 10.5,79T99,728l43-12q-6-29-8.5-54T131,603q27,0 27-29V521q-1-19-9.5-26.5T122,487H96Zm157,0q-19,0-26.5,7.5T219,521v59q1,42 10.5,79T256,728l43-12q-5-29-7.5-54T288,603q27,0 27-29V521q-1-19-9.5-26.5T279,487H253Z"/>
      <glyph unicode="&#x201d;" glyph-name="gid220" horiz-adv-x="372" d="M278,720q19,0 26.5-7t7.5-26V628q-1-43-10.5-80T275,479l-43,12q5,29 7.5,54.5T243,605q-27,0-27,29v53q1,19 9.5,26t26.5,7h26Zm-158,0q20,0 27-7t7-26V628q-1-43-10.5-80T117,479L75,491q5,29 7.5,54.5T85,605q-26,0-26,29v53q1,19 9.5,26T94,720h26Z"/>
      <glyph unicode="&#x201e;" glyph-name="gid218" horiz-adv-x="386" d="M285,115q19,0 26.5-7T319,82V23q-1-43-10.5-80T282-126l-43,12q5,29 8,54.5T250,0q-27,0-27,29V82q1,19 9.5,26t26.5,7h26Zm-158,0q20,0 27-7t7-26V23q0-43-10-80t-27-69L82-114q5,29 7.5,54.5T92,0Q66,0 66,29V82q1,19 9.5,26t26.5,7h25Z"/>
      <glyph unicode="&#x2022;" glyph-name="gid200" horiz-adv-x="365" d="M190,362q49,0 68-19t19-68V263q0-51-19-70.5T190,173H178q-52,0-71,19.5T88,263v12q0,49 19,68t71,19h12Z"/>
      <glyph unicode="&#x2039;" glyph-name="gid225" horiz-adv-x="288" d="M194,460l52-34L123,251L246,71L195,38L35,240v22L194,460Z"/>
      <glyph unicode="&#x203a;" glyph-name="gid226" horiz-adv-x="290" d="M93,460L253,262V240L92,38L42,71L165,251L43,426l50,34Z"/>
    </font>
</defs>
</svg>
