<?xml version="1.0" encoding="UTF-8" standalone="no"?>
<!DOCTYPE svg PUBLIC "-//W3C//DTD SVG 1.1//EN"
 "http://www.w3.org/Graphics/SVG/1.1/DTD/svg11.dtd">
<!-- Generated by graphviz version 2.43.0 (0)
 -->
<!-- Title: Adventure Pages: 1 -->
<svg width="352pt" height="655pt"
 viewBox="0.00 0.00 352.00 655.00" xmlns="http://www.w3.org/2000/svg" xmlns:xlink="http://www.w3.org/1999/xlink">
<g id="graph0" class="graph" transform="scale(1 1) rotate(0) translate(4 651)">
<title>Adventure</title>
<polygon fill="white" stroke="transparent" points="-4,4 -4,-651 348,-651 348,4 -4,4"/>
<g id="clust1" class="cluster">
<title>cluster_athen</title>
<polygon fill="#ecd9f2" stroke="#af26d9" points="71,-562 71,-639 141,-639 141,-562 71,-562"/>
<text text-anchor="middle" x="106" y="-623.8" font-family="Arial" font-size="14.00">Athen</text>
</g>
<g id="clust2" class="cluster">
<title>cluster_statue</title>
<polygon fill="#f2d9f2" stroke="#d926d9" points="8,-405 8,-554 162,-554 162,-405 8,-405"/>
<text text-anchor="middle" x="85" y="-538.8" font-family="Arial" font-size="14.00">Statue</text>
</g>
<g id="clust3" class="cluster">
<title>cluster_bestie</title>
<polygon fill="#f1f2d9" stroke="#cdd926" points="8,-248 8,-397 336,-397 336,-248 8,-248"/>
<text text-anchor="middle" x="172" y="-381.8" font-family="Arial" font-size="14.00">Bestie</text>
</g>
<g id="clust4" class="cluster">
<title>cluster_tempel</title>
<polygon fill="#ecf2d9" stroke="#acd926" points="23,-91 23,-240 277,-240 277,-91 23,-91"/>
<text text-anchor="middle" x="150" y="-224.8" font-family="Arial" font-size="14.00">Tempel</text>
</g>
<g id="clust5" class="cluster">
<title>cluster_ende</title>
<polygon fill="#d9f2ee" stroke="#26d9bb" points="109,-8 109,-83 179,-83 179,-8 109,-8"/>
<text text-anchor="middle" x="144" y="-67.8" font-family="Arial" font-size="14.00">Ende</text>
</g>
<!-- 1 -->
<g id="node1" class="node">
<title>1</title>
<polygon fill="#dfa8f0" stroke="black" points="133,-608 79,-608 79,-570 133,-570 133,-608"/>
<text text-anchor="middle" x="106" y="-592.8" font-family="Arial" font-size="14.00">1</text>
<text text-anchor="middle" x="106" y="-577.8" font-family="Arial" font-size="14.00">Start</text>
</g>
<!-- 2 -->
<g id="node2" class="node">
<title>2</title>
<polygon fill="#f0a8f0" stroke="black" points="133,-523 79,-523 79,-487 133,-487 133,-523"/>
<text text-anchor="middle" x="106" y="-501.3" font-family="Arial" font-size="14.00">2</text>
</g>
<!-- 1&#45;&gt;2 -->
<g id="edge1" class="edge">
<title>1&#45;&gt;2</title>
<path fill="none" stroke="black" d="M106,-569.8C106,-559 106,-545.1 106,-533.04"/>
<polygon fill="black" stroke="black" points="109.5,-533.03 106,-523.03 102.5,-533.03 109.5,-533.03"/>
</g>
<!-- 2a -->
<g id="node3" class="node">
<title>2a</title>
<polygon fill="#f0a8f0" stroke="black" points="154,-451 16,-451 16,-413 154,-413 154,-451"/>
<text text-anchor="middle" x="85" y="-435.8" font-family="Arial" font-size="14.00">2a</text>
<text text-anchor="middle" x="85" y="-420.8" font-family="Arial" font-size="14.00">Schwert genommen</text>
</g>
<!-- 2&#45;&gt;2a -->
<g id="edge2" class="edge">
<title>2&#45;&gt;2a</title>
<path fill="none" stroke="black" d="M100.92,-486.81C98.61,-479.03 95.83,-469.62 93.24,-460.86"/>
<polygon fill="black" stroke="black" points="96.52,-459.62 90.33,-451.02 89.81,-461.6 96.52,-459.62"/>
</g>
<!-- 3 -->
<g id="node4" class="node">
<title>3</title>
<polygon fill="#ebf0a8" stroke="black" points="179,-366 125,-366 125,-330 179,-330 179,-366"/>
<text text-anchor="middle" x="152" y="-344.3" font-family="Arial" font-size="14.00">3</text>
</g>
<!-- 2&#45;&gt;3 -->
<g id="edge3" class="edge">
<title>2&#45;&gt;3</title>
<path fill="none" stroke="black" d="M132.58,-486.91C144.24,-477.81 156.69,-465.49 163,-451 173.45,-427 168.28,-396.95 161.98,-375.69"/>
<polygon fill="black" stroke="black" points="165.26,-374.47 158.86,-366.03 158.6,-376.62 165.26,-374.47"/>
</g>
<!-- 2a&#45;&gt;3 -->
<g id="edge4" class="edge">
<title>2a&#45;&gt;3</title>
<path fill="none" stroke="black" d="M99.87,-412.8C109.23,-401.34 121.44,-386.41 131.69,-373.86"/>
<polygon fill="black" stroke="black" points="134.47,-375.99 138.09,-366.03 129.05,-371.56 134.47,-375.99"/>
</g>
<!-- 3a -->
<g id="node5" class="node">
<title>3a</title>
<polygon fill="#ebf0a8" stroke="black" points="72,-294 16,-294 16,-256 72,-256 72,-294"/>
<text text-anchor="middle" x="44" y="-278.8" font-family="Arial" font-size="14.00">3a</text>
<text text-anchor="middle" x="44" y="-263.8" font-family="Arial" font-size="14.00">Hände</text>
</g>
<!-- 3&#45;&gt;3a -->
<g id="edge5" class="edge">
<title>3&#45;&gt;3a</title>
<path fill="none" stroke="black" d="M126.13,-329.99C112.36,-320.94 95.2,-309.66 80.13,-299.75"/>
<polygon fill="black" stroke="black" points="81.82,-296.68 71.55,-294.11 77.98,-302.53 81.82,-296.68"/>
</g>
<!-- 3b -->
<g id="node6" class="node">
<title>3b</title>
<polygon fill="#ebf0a8" stroke="black" points="155.5,-294 90.5,-294 90.5,-256 155.5,-256 155.5,-294"/>
<text text-anchor="middle" x="123" y="-278.8" font-family="Arial" font-size="14.00">3b</text>
<text text-anchor="middle" x="123" y="-263.8" font-family="Arial" font-size="14.00">Schwert</text>
</g>
<!-- 3&#45;&gt;3b -->
<g id="edge6" class="edge">
<title>3&#45;&gt;3b</title>
<path fill="none" stroke="black" d="M144.98,-329.81C141.73,-321.86 137.79,-312.21 134.15,-303.29"/>
<polygon fill="black" stroke="black" points="137.38,-301.95 130.36,-294.02 130.9,-304.6 137.38,-301.95"/>
</g>
<!-- 3c -->
<g id="node7" class="node">
<title>3c</title>
<polygon fill="#ebf0a8" stroke="black" points="228,-294 174,-294 174,-256 228,-256 228,-294"/>
<text text-anchor="middle" x="201" y="-278.8" font-family="Arial" font-size="14.00">3c</text>
<text text-anchor="middle" x="201" y="-263.8" font-family="Arial" font-size="14.00">List</text>
</g>
<!-- 3&#45;&gt;3c -->
<g id="edge7" class="edge">
<title>3&#45;&gt;3c</title>
<path fill="none" stroke="black" d="M163.86,-329.81C169.53,-321.6 176.44,-311.59 182.75,-302.44"/>
<polygon fill="black" stroke="black" points="185.76,-304.24 188.56,-294.02 180,-300.26 185.76,-304.24"/>
</g>
<!-- 3d -->
<g id="node8" class="node">
<title>3d</title>
<polygon fill="#ebf0a8" stroke="black" points="328,-294 246,-294 246,-256 328,-256 328,-294"/>
<text text-anchor="middle" x="287" y="-278.8" font-family="Arial" font-size="14.00">3d</text>
<text text-anchor="middle" x="287" y="-263.8" font-family="Arial" font-size="14.00">Fehlschlag</text>
</g>
<!-- 3&#45;&gt;3d -->
<g id="edge8" class="edge">
<title>3&#45;&gt;3d</title>
<path fill="none" stroke="black" d="M179.32,-332.63C197.71,-322.96 222.35,-310 243.43,-298.92"/>
<polygon fill="black" stroke="black" points="245.29,-301.89 252.51,-294.14 242.03,-295.69 245.29,-301.89"/>
</g>
<!-- 4 -->
<g id="node9" class="node">
<title>4</title>
<polygon fill="#def0a8" stroke="black" points="171,-209 117,-209 117,-173 171,-173 171,-209"/>
<text text-anchor="middle" x="144" y="-187.3" font-family="Arial" font-size="14.00">4</text>
</g>
<!-- 3a&#45;&gt;4 -->
<g id="edge9" class="edge">
<title>3a&#45;&gt;4</title>
<path fill="none" stroke="black" d="M66.19,-255.8C80.7,-243.91 99.78,-228.26 115.41,-215.44"/>
<polygon fill="black" stroke="black" points="117.72,-218.08 123.23,-209.03 113.28,-212.66 117.72,-218.08"/>
</g>
<!-- 3b&#45;&gt;4 -->
<g id="edge10" class="edge">
<title>3b&#45;&gt;4</title>
<path fill="none" stroke="black" d="M127.66,-255.8C130.43,-245 133.99,-231.1 137.08,-219.04"/>
<polygon fill="black" stroke="black" points="140.55,-219.58 139.64,-209.03 133.77,-217.85 140.55,-219.58"/>
</g>
<!-- 3c&#45;&gt;4 -->
<g id="edge11" class="edge">
<title>3c&#45;&gt;4</title>
<path fill="none" stroke="black" d="M188.35,-255.8C180.54,-244.56 170.4,-229.97 161.78,-217.58"/>
<polygon fill="black" stroke="black" points="164.42,-215.24 155.84,-209.03 158.67,-219.24 164.42,-215.24"/>
</g>
<!-- 3d&#45;&gt;4 -->
<g id="edge12" class="edge">
<title>3d&#45;&gt;4</title>
<path fill="none" stroke="black" d="M255.26,-255.8C233.04,-243.06 203.29,-226 180.15,-212.73"/>
<polygon fill="black" stroke="black" points="181.73,-209.6 171.31,-207.66 178.25,-215.67 181.73,-209.6"/>
</g>
<!-- 4a -->
<g id="node10" class="node">
<title>4a</title>
<polygon fill="#def0a8" stroke="black" points="85,-137 31,-137 31,-99 85,-99 85,-137"/>
<text text-anchor="middle" x="58" y="-121.8" font-family="Arial" font-size="14.00">4a</text>
<text text-anchor="middle" x="58" y="-106.8" font-family="Arial" font-size="14.00">Erfolg</text>
</g>
<!-- 4&#45;&gt;4a -->
<g id="edge13" class="edge">
<title>4&#45;&gt;4a</title>
<path fill="none" stroke="black" d="M123.18,-172.81C112.52,-164.01 99.35,-153.14 87.65,-143.48"/>
<polygon fill="black" stroke="black" points="89.77,-140.69 79.83,-137.02 85.31,-146.09 89.77,-140.69"/>
</g>
<!-- 4b -->
<g id="node11" class="node">
<title>4b</title>
<polygon fill="#def0a8" stroke="black" points="185,-137 103,-137 103,-99 185,-99 185,-137"/>
<text text-anchor="middle" x="144" y="-121.8" font-family="Arial" font-size="14.00">4b</text>
<text text-anchor="middle" x="144" y="-106.8" font-family="Arial" font-size="14.00">Fehlschlag</text>
</g>
<!-- 4&#45;&gt;4b -->
<g id="edge14" class="edge">
<title>4&#45;&gt;4b</title>
<path fill="none" stroke="black" d="M144,-172.81C144,-165.11 144,-155.82 144,-147.15"/>
<polygon fill="black" stroke="black" points="147.5,-147.02 144,-137.02 140.5,-147.02 147.5,-147.02"/>
</g>
<!-- 4c -->
<g id="node12" class="node">
<title>4c</title>
<polygon fill="#def0a8" stroke="black" points="268.5,-137 203.5,-137 203.5,-99 268.5,-99 268.5,-137"/>
<text text-anchor="middle" x="236" y="-121.8" font-family="Arial" font-size="14.00">4c</text>
<text text-anchor="middle" x="236" y="-106.8" font-family="Arial" font-size="14.00">Schwert</text>
</g>
<!-- 4&#45;&gt;4c -->
<g id="edge15" class="edge">
<title>4&#45;&gt;4c</title>
<path fill="none" stroke="black" d="M166.27,-172.81C177.79,-163.93 192.04,-152.93 204.65,-143.2"/>
<polygon fill="black" stroke="black" points="206.87,-145.9 212.65,-137.02 202.6,-140.36 206.87,-145.9"/>
</g>
<!-- 5 -->
<g id="node13" class="node">
<title>5</title>
<polygon fill="#a8f0e4" stroke="black" points="171,-52 117,-52 117,-16 171,-16 171,-52"/>
<text text-anchor="middle" x="144" y="-30.3" font-family="Arial" font-size="14.00">5</text>
</g>
<!-- 4a&#45;&gt;5 -->
<g id="edge16" class="edge">
<title>4a&#45;&gt;5</title>
<path fill="none" stroke="black" d="M77.09,-98.8C89.33,-87.13 105.37,-71.83 118.67,-59.15"/>
<polygon fill="black" stroke="black" points="121.32,-61.46 126.14,-52.03 116.49,-56.4 121.32,-61.46"/>
</g>
<!-- 4b&#45;&gt;5 -->
<g id="edge17" class="edge">
<title>4b&#45;&gt;5</title>
<path fill="none" stroke="black" d="M144,-98.8C144,-88 144,-74.1 144,-62.04"/>
<polygon fill="black" stroke="black" points="147.5,-62.03 144,-52.03 140.5,-62.03 147.5,-62.03"/>
</g>
<!-- 4c&#45;&gt;5 -->
<g id="edge18" class="edge">
<title>4c&#45;&gt;5</title>
<path fill="none" stroke="black" d="M215.58,-98.8C202.36,-87.02 185.01,-71.55 170.7,-58.79"/>
<polygon fill="black" stroke="black" points="172.9,-56.07 163.1,-52.03 168.24,-61.29 172.9,-56.07"/>
</g>
</g>
</svg>
