<?xml version="1.0" encoding="UTF-8" standalone="no"?>
<!-- Created with Inkscape (http://www.inkscape.org/) -->

<svg
   width="160"
   height="90"
   id="svg1968"
   sodipodi:version="0.32"
   inkscape:version="1.1.2 (0a00cf5339, 2022-02-04)"
   version="1.0"
   sodipodi:docname="smalltalk-logo.svg"
   inkscape:export-filename="/home/michael/programming/websites/workspace/src/content/smalltalk/smalltalk-logo.png"
   inkscape:export-xdpi="1228.8"
   inkscape:export-ydpi="1228.8"
   xmlns:inkscape="http://www.inkscape.org/namespaces/inkscape"
   xmlns:sodipodi="http://sodipodi.sourceforge.net/DTD/sodipodi-0.dtd"
   xmlns="http://www.w3.org/2000/svg"
   xmlns:svg="http://www.w3.org/2000/svg"
   xmlns:rdf="http://www.w3.org/1999/02/22-rdf-syntax-ns#"
   xmlns:cc="http://creativecommons.org/ns#"
   xmlns:dc="http://purl.org/dc/elements/1.1/">
  <defs
     id="defs1970" />
  <sodipodi:namedview
     id="base"
     pagecolor="#ffffff"
     bordercolor="#666666"
     borderopacity="1.0"
     inkscape:pageopacity="0.0"
     inkscape:pageshadow="2"
     inkscape:zoom="4.1171966"
     inkscape:cx="39.468603"
     inkscape:cy="62.542556"
     inkscape:document-units="px"
     inkscape:current-layer="Ebene_x0020_1"
     width="68.51mm"
     height="129.89mm"
     units="mm"
     inkscape:window-width="2496"
     inkscape:window-height="1369"
     inkscape:window-x="2624"
     inkscape:window-y="34"
     inkscape:pagecheckerboard="0"
     showgrid="false"
     inkscape:window-maximized="1"
     inkscape:snap-to-guides="false" />
  <metadata
     id="metadata1973">
    <rdf:RDF>
      <cc:Work
         rdf:about="">
        <dc:format>image/svg+xml</dc:format>
        <dc:type
           rdf:resource="http://purl.org/dc/dcmitype/StillImage" />
      </cc:Work>
    </rdf:RDF>
  </metadata>
  <g
     inkscape:label="Ebene 1"
     inkscape:groupmode="layer"
     id="layer1"
     transform="translate(3824.556,782.8939)">
    <g
       id="Ebene_x0020_1"
       transform="translate(-3826.724,-785.8793)"
       inkscape:label="Ebene 1"
       inkscape:groupmode="layer">
      <metadata
         id="CorelCorpID_0Corel-Layer" />
      <path
         style="fill:#000000;stroke-width:0.108529"
         d="m 28.663604,58.787868 c -2.163021,-0.327315 -3.757957,-1.464663 -4.832463,-3.446021 -0.431668,-0.795993 -0.815115,-2.406844 -0.636245,-2.672857 0.05075,-0.07547 0.636897,-0.15085 1.498108,-0.192646 1.595693,-0.07743 1.574001,-0.08617 1.783418,0.718731 0.07001,0.269081 0.201997,0.63625 0.293315,0.815927 0.242209,0.476614 0.793861,1.144831 0.945948,1.14584 0.07223,4.83e-4 0.185144,0.06658 0.250908,0.146889 0.193106,0.235829 0.988726,0.429794 1.754925,0.427828 1.419794,-0.0038 2.484379,-0.681099 3.05515,-1.944175 0.276412,-0.611678 0.331865,-1.721315 0.119685,-2.394922 -0.385404,-1.22354 -1.1339,-1.742883 -3.613318,-2.507072 -2.215218,-0.682761 -2.99298,-1.055359 -3.763696,-1.803034 -3.128222,-3.034703 -1.624342,-8.534266 2.660444,-9.729028 1.097991,-0.306165 2.593567,-0.270718 3.702765,0.08776 0.845605,0.273284 1.829017,0.896087 2.354029,1.490814 0.707666,0.80164 1.603065,2.81114 1.515125,3.400309 -0.0314,0.210079 -0.122157,0.239814 -0.903529,0.295884 -0.477763,0.03429 -1.179386,0.03425 -1.559162,-4.8e-5 -0.673298,-0.06082 -0.694223,-0.07212 -0.840073,-0.453492 -0.558536,-1.460498 -1.170392,-1.973088 -2.464585,-2.064738 -0.680746,-0.0482 -0.875426,-0.0187 -1.376525,0.208693 -1.095344,0.497031 -1.524065,1.127001 -1.605345,2.358917 -0.0455,0.689484 -0.01705,0.893902 0.178455,1.283498 0.522873,1.041868 1.36129,1.535524 3.574579,2.104685 1.841531,0.473566 2.974001,1.037559 3.834821,1.909831 2.307204,2.337906 2.219636,6.528714 -0.186193,8.91044 -0.645172,0.638699 -1.648895,1.343147 -1.911305,1.341414 -0.08047,-4.83e-4 -0.192984,0.04217 -0.250035,0.09486 -0.336641,0.310974 -2.629886,0.60936 -3.579201,0.465702 z m 17.660301,-0.279823 c -0.121468,-0.148338 -1.412618,-3.075911 -1.411791,-3.201107 4.34e-4,-0.06472 -0.550909,-1.384224 -1.152134,-2.757367 -0.09174,-0.209529 -0.250097,-0.601289 -0.351901,-0.870576 -0.101807,-0.269294 -0.602433,-1.518005 -1.112511,-2.774917 -0.510068,-1.256912 -0.975669,-2.419924 -1.034666,-2.584468 -0.05899,-0.164543 -0.167833,-0.299569 -0.241866,-0.300061 -0.104625,-4.83e-4 -0.160318,1.356856 -0.250099,6.096195 -0.07224,3.813727 -0.156694,6.146063 -0.225496,6.227864 -0.0744,0.08845 -0.564347,0.132939 -1.513739,0.137454 l -1.403734,0.0067 -0.07326,-0.300308 c -0.08681,-0.355828 0.175287,-20.553359 0.267932,-20.645284 0.08944,-0.08876 2.401351,-0.181698 2.909651,-0.116969 0.400638,0.05102 0.435716,0.08799 0.732552,0.772048 0.17147,0.395155 0.355586,0.816432 0.409154,0.93617 0.05356,0.119739 0.557506,1.392894 1.119872,2.829231 0.562357,1.436339 1.066411,2.709486 1.120114,2.829234 0.200375,0.446781 2.030608,5.097794 2.162407,5.495143 0.27893,0.840914 1.092456,2.611986 1.200118,2.612695 0.159365,0.001 0.485612,-0.739583 1.702897,-3.865893 0.48839,-1.254318 1.067053,-2.711851 1.285918,-3.238966 0.218865,-0.527105 0.638791,-1.594902 0.933158,-2.372867 0.627053,-1.657184 1.426122,-3.627143 1.533828,-3.781369 0.04149,-0.05941 0.194235,-0.47281 0.339419,-0.918648 0.417095,-1.280831 0.444898,-1.295783 2.336408,-1.256653 1.275359,0.02639 1.607195,0.06495 1.689006,0.196305 0.104609,0.167969 0.120897,5.226811 0.03806,11.830225 -0.02604,2.076172 -0.0034,3.698389 0.05335,3.782107 0.108599,0.160897 0.520559,-0.406135 3.872259,-5.329875 2.268447,-3.332408 3.859649,-5.641713 6.417709,-9.31401 0.381163,-0.547184 0.728368,-1.015566 0.771566,-1.040839 0.04318,-0.02527 0.720707,-0.0768 1.505575,-0.114499 1.356672,-0.06517 1.438125,-0.05732 1.651928,0.159335 0.224753,0.227743 0.224855,0.234193 0.160525,10.446357 -0.04695,7.451003 -0.0979,10.258335 -0.188188,10.365679 -0.151087,0.179619 -2.910695,0.198554 -2.931804,0.02014 -0.0071,-0.05973 -0.02473,-0.157535 -0.03927,-0.21732 -0.01454,-0.05979 -0.02411,-1.378514 -0.02135,-2.930503 l 0.005,-2.821794 -3.293253,-0.02178 c -3.160209,-0.02087 -3.301287,-0.013 -3.491986,0.194936 -0.109305,0.119187 -1.066087,1.489939 -2.126195,3.046121 -1.69767,2.492108 -1.969597,2.839922 -2.280942,2.917487 -0.194419,0.04843 -1.00041,0.07016 -1.791094,0.0483 l -1.437608,-0.0398 0.01463,-6.452995 c 0.0089,-3.923475 -0.02579,-6.493964 -0.08852,-6.557521 -0.130143,-0.131876 -0.06196,-0.288367 -2.98838,6.858226 -1.328561,3.244463 -2.498866,5.959523 -2.600679,6.033464 -0.252406,0.183314 -2.030332,0.171084 -2.182713,-0.01497 z M 68.545254,49.39427 c 0.09755,-0.249272 0.125708,-6.774372 0.02922,-6.769644 -0.105924,0.0052 -4.454779,6.515861 -4.502308,6.740397 -0.03208,0.151472 0.218783,0.172808 2.18493,0.185801 1.925283,0.0127 2.23008,-0.0081 2.288163,-0.156554 z m 4.421067,9.127633 c -0.0256,-0.04493 -0.05111,-4.710908 -0.05667,-10.368818 -0.0079,-8.015973 0.01927,-10.322059 0.123018,-10.445381 0.104387,-0.124096 0.435401,-0.156264 1.533373,-0.149005 l 1.400251,0.0093 0.104001,0.279081 c 0.06438,0.172755 0.08249,3.534934 0.04753,8.824916 -0.04406,6.666889 -0.02691,8.586834 0.078,8.732318 0.121292,0.1682 0.432363,0.188574 3.173182,0.207818 1.671288,0.01169 3.22306,0.05195 3.448383,0.08938 l 0.409681,0.06803 -0.03932,1.368236 -0.03932,1.368241 -0.326044,0.06731 c -0.464175,0.09583 -9.799921,0.04714 -9.856089,-0.05139 z m 11.574085,-0.07135 c -0.09049,-0.110512 -0.130688,-2.900783 -0.147918,-10.267266 -0.013,-5.563536 0.0038,-10.227513 0.037,-10.364398 0.05913,-0.242598 0.09791,-0.249397 1.5356,-0.269246 1.247122,-0.01723 1.484685,0.0056 1.538021,0.147318 0.03469,0.09223 0.06949,4.086417 0.07733,8.875972 0.009,5.452019 0.05398,8.759276 0.120471,8.84465 0.08091,0.103877 0.912418,0.141692 3.489823,0.158724 2.486998,0.01642 3.417894,0.05711 3.512984,0.153458 0.18798,0.190478 0.160785,2.370902 -0.03285,2.632042 -0.137813,0.185883 -0.454457,0.199567 -5.076609,0.219372 -4.125077,0.01768 -4.949911,-0.0038 -5.053887,-0.130626 z m 11.527651,0.06293 C 95.884893,58.408931 95.828171,56.009951 95.80303,47.30503 c -0.01406,-4.870694 -0.05248,-6.641176 -0.145378,-6.70114 -0.06944,-0.04482 -0.963472,-0.08778 -1.986729,-0.09546 -1.59539,-0.01179 -1.869692,-0.0385 -1.925212,-0.186057 -0.0356,-0.09466 -0.06127,-0.699339 -0.057,-1.34374 0.0056,-0.847237 0.04826,-1.204801 0.154057,-1.291437 0.10219,-0.08367 1.81268,-0.117294 5.671526,-0.111475 l 5.525206,0.0083 0.0639,1.245804 c 0.0375,0.730649 0.0208,1.325184 -0.0405,1.437779 -0.0904,0.166277 -0.2673,0.191003 -1.32149,0.184705 -0.66942,-0.0038 -1.55328,0.02222 -1.964155,0.05829 l -0.74703,0.06556 0.02517,6.305144 c 0.01373,3.467825 0.02553,6.347756 0.0259,6.399836 0.0018,0.193709 0.36834,-0.217353 0.945835,-1.060745 0.32719,-0.477841 1.10814,-1.598003 1.73543,-2.489243 0.6273,-0.891241 1.5724,-2.252501 2.10023,-3.025014 1.58758,-2.323526 2.7019,-3.887142 2.79706,-3.924837 0.0494,-0.01957 0.0901,-0.08601 0.0905,-0.147624 9.1e-4,-0.146932 3.36982,-4.962243 3.59393,-5.137044 0.20781,-0.162075 2.91824,-0.169353 3.16906,-0.0085 0.1419,0.09101 0.15728,1.396135 0.12335,10.474156 l -0.0387,10.37021 -0.28173,0.104986 c -0.3733,0.139113 -2.39554,0.121569 -2.66159,-0.02309 -0.19858,-0.107966 -0.20831,-0.257951 -0.19204,-2.958761 0.01,-1.615681 -0.0271,-2.915665 -0.0853,-3.008503 -0.088,-0.140441 -0.55785,-0.162312 -3.33466,-0.155217 -3.19621,0.0081 -3.23435,0.01092 -3.42307,0.248711 -0.18872,0.237752 -0.93239,1.31007 -2.92977,4.224513 -0.753533,1.09949 -1.116857,1.535819 -1.362856,1.636699 -0.370024,0.151743 -3.029132,0.242823 -3.258981,0.111623 z m 14.327513,-9.212101 c 0.10553,-0.168262 0.13116,-6.570485 0.0267,-6.676307 -0.0686,-0.06943 -4.37117,6.268777 -4.44687,6.550642 -0.0644,0.239984 0.13697,0.262222 2.49761,0.275796 1.49342,0.0086 1.83995,-0.01851 1.92253,-0.150131 z m 4.64565,9.023048 c -0.0806,-0.102001 -0.14041,-2.694212 -0.18871,-8.181139 -0.085,-9.660191 -0.0702,-12.611051 0.0638,-12.692625 0.16313,-0.09934 2.91117,-0.102799 3.00983,-0.0038 0.0497,0.04984 0.0986,4.047097 0.10868,8.882786 0.0135,6.461485 0.0518,8.833001 0.14451,8.946203 0.10359,0.126514 0.7211,0.157974 3.45548,0.17604 2.44478,0.01614 3.36372,0.05683 3.45872,0.153095 0.15924,0.161357 0.16499,2.647581 0.006,2.744181 -0.0584,0.03555 -2.31893,0.07813 -5.0234,0.0946 -4.08616,0.02488 -4.93716,0.0049 -5.03522,-0.119356 z m 11.25986,-10e-4 c -0.16979,-0.322377 -0.15941,-20.693848 0.0106,-20.797379 0.0742,-0.0452 0.73019,-0.103955 1.45766,-0.130556 1.04822,-0.03834 1.34801,-0.01701 1.44475,0.102796 0.0844,0.104448 0.13655,1.68564 0.16894,5.116804 0.0258,2.731106 0.0801,4.965861 0.12062,4.966131 0.12143,10e-4 0.58162,-0.528085 1.5023,-1.726585 0.47906,-0.623604 1.35772,-1.765526 1.95259,-2.537594 0.59488,-0.772073 1.54858,-2.011172 2.11932,-2.753556 2.01329,-2.618734 2.32724,-2.995576 2.59558,-3.115706 0.28313,-0.126755 3.03642,-0.155663 3.34447,-0.03511 0.0942,0.03684 0.16986,0.147244 0.1682,0.245307 -0.003,0.143792 -2.29525,3.204185 -3.04567,4.065337 -0.10344,0.118701 -0.46523,0.580287 -0.80396,1.02574 -0.33875,0.445455 -1.24946,1.611581 -2.02381,2.59139 -1.70549,2.157987 -1.89725,2.421595 -1.89849,2.609725 -4.3e-4,0.08074 0.33801,0.588242 0.75232,1.127799 1.63638,2.131102 2.75894,3.58521 3.06685,3.972638 0.77292,0.97252 1.04107,1.315639 1.71168,2.190244 1.14886,1.498315 1.71571,2.218473 1.97428,2.508169 0.28353,0.317668 0.31158,0.603833 0.0682,0.695401 -0.0947,0.0356 -0.91967,0.0598 -1.83338,0.05377 -1.42776,-0.0094 -1.69137,-0.03787 -1.87539,-0.202326 -0.19684,-0.175885 -0.77632,-0.883682 -1.58663,-1.937978 -0.17756,-0.231008 -0.54076,-0.697942 -0.80713,-1.037627 -0.26637,-0.339685 -0.5896,-0.760379 -0.71831,-0.934863 -2.3203,-3.145998 -4.40693,-5.839833 -4.62292,-5.968173 -0.12398,-0.07368 -0.15305,0.721591 -0.18101,4.952523 -0.0297,4.495972 -0.0519,5.047285 -0.20541,5.105031 -0.0947,0.0356 -0.75243,0.06092 -1.46173,0.05622 -1.13799,-0.0075 -1.30195,-0.03193 -1.39447,-0.207562 z"
         id="path10254"
         sodipodi:nodetypes="ssssscsscssssssscscsssscsssccsscssssscssscsssssssscsssssssscssscscscscccssscccsssccscccsscssscssscscccsccccccccscscsccccscccssccccccccsscsccsccssccccssccccscccsssccscsccsssccsscsscsccssscccscsscssccsscss" />
    </g>
  </g>
</svg>
