<?xml version="1.0" encoding="UTF-8" standalone="no"?>
<!-- Generator: Adobe Illustrator 15.1.0, SVG Export Plug-In . SVG Version: 6.00 Build 0)  -->

<svg
   version="1.1"
   id="Layer_1"
   x="0px"
   y="0px"
   width="160"
   height="90"
   viewBox="0 0 160 90"
   enable-background="new 0 0 250 114"
   xml:space="preserve"
   sodipodi:docname="P5js_Logo.svg"
   inkscape:version="1.1.2 (0a00cf5339, 2022-02-04)"
   inkscape:export-filename="/home/michael/programming/websites/workspace/src/content/p5js/P5js_Logo.png"
   inkscape:export-xdpi="1228.8"
   inkscape:export-ydpi="1228.8"
   xmlns:inkscape="http://www.inkscape.org/namespaces/inkscape"
   xmlns:sodipodi="http://sodipodi.sourceforge.net/DTD/sodipodi-0.dtd"
   xmlns="http://www.w3.org/2000/svg"
   xmlns:svg="http://www.w3.org/2000/svg"><defs
   id="defs23">

	
	
	
	
	

		
	
		
	</defs><sodipodi:namedview
   id="namedview21"
   pagecolor="#ffffff"
   bordercolor="#666666"
   borderopacity="1.0"
   inkscape:pageshadow="2"
   inkscape:pageopacity="0.0"
   inkscape:pagecheckerboard="0"
   showgrid="false"
   inkscape:zoom="4.1222385"
   inkscape:cx="44.635942"
   inkscape:cy="58.827261"
   inkscape:window-width="2496"
   inkscape:window-height="1369"
   inkscape:window-x="2624"
   inkscape:window-y="34"
   inkscape:window-maximized="1"
   inkscape:current-layer="Layer_1" />

	<style
   id="style2">
  		path {fill:#ED225D;}
  		.svglink {border:none;}
  	</style>
<rect
   style="fill:#0da6e9;fill-opacity:1;stroke:none;stroke-width:0.461119;stroke-linejoin:round;stroke-miterlimit:4;stroke-dasharray:none"
   id="rect19976"
   width="160"
   height="89.348694"
   x="0"
   y="0.46514994" /><rect
   style="fill:#e8c56a;fill-opacity:1;stroke:none;stroke-width:0.334649;stroke-linejoin:round;stroke-miterlimit:4;stroke-dasharray:none"
   id="rect16772"
   width="160"
   height="47.05851"
   x="0"
   y="42.755333" /><g
   id="g21380"
   transform="translate(-3.4606501,4.9358623)"><path
     d="m 106.61104,11.939858 v 1.535656 h 0.0689 c 0.13728,-0.213701 0.31681,-0.431627 0.53857,-0.653201 0.22138,-0.221573 0.49288,-0.420107 0.81391,-0.596175 0.32084,-0.175109 0.68373,-0.320648 1.08886,-0.435467 0.40456,-0.114435 0.85961,-0.172037 1.36381,-0.172037 0.77954,0 1.49764,0.149188 2.15487,0.446988 0.65705,0.298567 1.22269,0.707346 1.69656,1.226719 0.47349,0.519758 0.84021,1.131102 1.10019,1.83384 0.25978,0.703122 0.38977,1.459622 0.38977,2.269499 0,0.809877 -0.12615,1.570216 -0.37844,2.280827 -0.25191,0.71061 -0.61154,1.329442 -1.07734,1.856688 -0.46638,0.527245 -1.03145,0.94812 -1.69637,1.260704 -0.66491,0.31316 -1.41776,0.469837 -2.25797,0.469837 -0.77954,0 -1.494,-0.160517 -2.14336,-0.481165 -0.64993,-0.321032 -1.15011,-0.756307 -1.50148,-1.306978 h -0.0457 v 6.968821 H 103.975 V 11.939858 Z m 6.41872,5.45563 c 0,-0.427979 -0.0651,-0.852118 -0.19488,-1.272417 -0.13018,-0.420107 -0.32487,-0.798357 -0.58466,-1.13475 -0.25997,-0.335624 -0.5883,-0.607119 -0.98575,-0.813717 -0.39745,-0.206213 -0.86345,-0.30932 -1.39818,-0.30932 -0.5044,0 -0.95542,0.106947 -1.35248,0.321033 -0.39745,0.214085 -0.73769,0.48942 -1.02012,0.825045 -0.28302,0.336393 -0.49672,0.718483 -0.64188,1.146462 -0.14554,0.427979 -0.21773,0.85615 -0.21773,1.283745 0,0.427979 0.0722,0.852118 0.21773,1.272033 0.14516,0.420683 0.35886,0.79874 0.64188,1.135133 0.28263,0.336009 0.62267,0.607504 1.02012,0.813333 0.39706,0.206598 0.84808,0.30932 1.35248,0.30932 0.53473,0 1.00073,-0.106563 1.39818,-0.320648 0.39726,-0.214086 0.72578,-0.489037 0.98575,-0.825429 0.25979,-0.336009 0.45448,-0.718099 0.58466,-1.146078 0.1298,-0.427979 0.19488,-0.855958 0.19488,-1.283745 z"
     id="path4"
     style="stroke:#ffffff;stroke-width:0.5;stroke-miterlimit:4;stroke-dasharray:none" /><path
     d="m 139.84307,11.414149 v 12.193467 c 0,0.657041 -0.0536,1.279906 -0.16052,1.868209 -0.10733,0.588303 -0.30932,1.100188 -0.6075,1.53604 -0.2978,0.435851 -0.70313,0.782996 -1.21501,1.042971 -0.51227,0.259974 -1.18045,0.389578 -2.00588,0.389578 -0.22906,0 -0.45831,-0.01536 -0.68776,-0.0457 -0.22906,-0.03072 -0.41242,-0.06144 -0.55009,-0.09197 l 0.22944,-2.338236 c 0.12231,0.03072 0.25191,0.05357 0.38958,0.06893 0.13767,0.01498 0.25959,0.02285 0.36673,0.02285 0.32065,0 0.58043,-0.06106 0.77935,-0.183365 0.19834,-0.122691 0.35137,-0.290695 0.4587,-0.504397 0.10656,-0.214085 0.17549,-0.462348 0.20621,-0.745171 0.0303,-0.282823 0.0457,-0.584271 0.0457,-0.905304 V 11.414149 Z"
     id="path6"
     style="stroke:#ffffff;stroke-width:0.5;stroke-miterlimit:4;stroke-dasharray:none" /><path
     d="m 149.21867,14.873886 c -0.24481,-0.321032 -0.58082,-0.599631 -1.00879,-0.836565 -0.42798,-0.236934 -0.89398,-0.355593 -1.39838,-0.355593 -0.44334,0 -0.84789,0.09197 -1.21462,0.275335 -0.36711,0.18298 -0.55009,0.489036 -0.55009,0.916823 0,0.427787 0.20218,0.730195 0.60712,0.905304 0.40493,0.175876 0.99746,0.355593 1.77681,0.538958 0.41243,0.09197 0.82869,0.214085 1.24918,0.366729 0.42049,0.152644 0.80258,0.355209 1.14647,0.607504 0.34349,0.25191 0.62248,0.565455 0.83656,0.939864 0.2137,0.374602 0.32103,0.829078 0.32103,1.364004 0,0.672785 -0.12634,1.24208 -0.37844,1.707884 -0.25191,0.466188 -0.5883,0.844438 -1.00879,1.134749 -0.42049,0.290312 -0.90934,0.500557 -1.46711,0.630353 -0.55797,0.129795 -1.13437,0.194693 -1.73074,0.194693 -0.85615,0 -1.68868,-0.156677 -2.49875,-0.469837 -0.81007,-0.312776 -1.48247,-0.760147 -2.0172,-1.340578 l 1.81099,-1.696556 c 0.30567,0.39745 0.70274,0.725971 1.19216,0.985561 0.48903,0.259975 1.03126,0.389578 1.62762,0.389578 0.19834,0 0.40091,-0.02246 0.60751,-0.06855 0.20621,-0.0457 0.39706,-0.118083 0.57294,-0.217542 0.17549,-0.09946 0.31681,-0.232902 0.42414,-0.40129 0.10656,-0.168389 0.16013,-0.374218 0.16013,-0.619216 0,-0.4587 -0.21005,-0.786837 -0.62997,-0.985562 -0.42068,-0.198725 -1.05122,-0.39745 -1.89125,-0.595983 -0.41281,-0.09197 -0.8141,-0.210054 -1.20387,-0.355594 -0.38958,-0.145155 -0.7373,-0.336008 -1.04297,-0.572942 -0.30605,-0.236935 -0.55009,-0.530702 -0.73346,-0.882839 -0.18336,-0.351369 -0.27533,-0.786837 -0.27533,-1.306594 0,-0.611344 0.12595,-1.138206 0.37844,-1.581353 0.25191,-0.443724 0.58465,-0.805845 0.99708,-1.089436 0.41243,-0.28244 0.87862,-0.492685 1.39837,-0.629969 0.51938,-0.137667 1.05449,-0.206597 1.60459,-0.206597 0.79432,0 1.57022,0.137668 2.32652,0.412427 0.75631,0.275335 1.35594,0.696018 1.79967,1.261088 z"
     id="path8"
     style="stroke:#ffffff;stroke-width:0.5;stroke-miterlimit:4;stroke-dasharray:none" /><path
     d="m 132.97428,20.615603 1.63838,-0.494605 0.3218,0.989978 -1.63166,0.55643 1.01283,1.436197 -0.85385,0.619408 -1.0662,-1.410852 -1.03836,1.373603 -0.82927,-0.631504 1.01282,-1.386852 -1.64414,-0.593295 0.322,-0.990746 1.65105,0.532046 v -1.707884 h 1.10479 v 1.708076 z"
     id="path10"
     style="stroke:#ffffff;stroke-width:0.5;stroke-miterlimit:4;stroke-dasharray:none" /><path
     d="m 127.31532,15.435309 c -0.28282,-0.633809 -0.67605,-1.168926 -1.18045,-1.604586 -0.5042,-0.435467 -1.09654,-0.76802 -1.77643,-0.997081 -0.68027,-0.229062 -1.41776,-0.343881 -2.21209,-0.343881 -0.2905,0 -0.61518,0.01574 -0.97423,0.0457 -0.35924,0.03111 -0.66856,0.08429 -0.92834,0.1609 l 0.16032,-3.5075468 h 6.62494 V 6.7132911 h -9.23813 l -0.27514,8.8708219 c 0.24404,-0.121923 0.52321,-0.23655 0.83656,-0.343881 0.31316,-0.106563 0.63401,-0.202181 0.96272,-0.286088 0.32852,-0.0841 0.66491,-0.148803 1.00879,-0.195077 0.34388,-0.0457 0.66837,-0.06855 0.97423,-0.06855 0.44296,0 0.87862,0.04954 1.3066,0.148803 0.42779,0.09946 0.81372,0.275336 1.1576,0.527246 0.34388,0.251911 0.62248,0.584655 0.83675,0.997082 0.21371,0.412427 0.32084,0.932184 0.32084,1.558888 0,0.489037 -0.0803,0.928536 -0.24077,1.318114 -0.16032,0.389194 -0.37825,0.714451 -0.65301,0.97385 -0.27533,0.260166 -0.59598,0.458699 -0.9631,0.595983 -0.36672,0.138052 -0.7563,0.206597 -1.16911,0.206597 -0.73327,0 -1.36785,-0.195077 -1.90258,-0.584655 -0.53512,-0.389578 -0.91682,-0.905303 -1.14627,-1.547368 l -0.0305,0.01133 -1.99071,1.865329 c 0.40264,0.656657 0.92163,1.205983 1.56292,1.642218 0.932,0.633809 2.07807,0.951385 3.43862,0.951385 0.80988,0 1.57387,-0.130179 2.29216,-0.389578 0.71809,-0.259591 1.3448,-0.634193 1.87972,-1.123613 0.53474,-0.488653 0.95888,-1.088668 1.27242,-1.799279 0.31297,-0.71061 0.46965,-1.516455 0.46965,-2.418494 1.9e-4,-0.825238 -0.14113,-1.554473 -0.42395,-2.189049 z"
     id="path14"
     style="stroke:#ffffff;stroke-width:0.5;stroke-miterlimit:4;stroke-dasharray:none" /></g>
<g
   id="g21194"
   transform="translate(-22.969565)"><path
     style="fill:#f1e9d3;fill-opacity:1;stroke:none;stroke-width:1px;stroke-linecap:butt;stroke-linejoin:miter;stroke-opacity:1"
     d="M 47.683288,69.471848 H 112.03494 L 79.865424,9.1884479 Z"
     id="path2535" /><path
     style="fill:#a08d5a;fill-opacity:1;stroke:none;stroke-width:1px;stroke-linecap:butt;stroke-linejoin:miter;stroke-opacity:1"
     d="M 112.03494,69.471848 116.09335,57.333346 79.865424,9.1884479 Z"
     id="path7209" /><path
     style="fill:#c4a75f;fill-opacity:1;stroke:none;stroke-width:1px;stroke-linecap:butt;stroke-linejoin:miter;stroke-opacity:1"
     d="M 112.03494,69.471848 H 47.683288 l 48.862511,30.743102 z"
     id="path8759"
     sodipodi:nodetypes="cccc" /></g></svg>
