<?xml version="1.0" encoding="UTF-8" standalone="no"?>
<!-- Created with Inkscape (http://www.inkscape.org/) -->

<svg
   width="160"
   height="90"
   id="svg1968"
   sodipodi:version="0.32"
   inkscape:version="1.1.2 (0a00cf5339, 2022-02-04)"
   version="1.0"
   sodipodi:docname="basic-logo.svg"
   inkscape:export-filename="/home/michael/programming/websites/workspace/src/content/c/c-logo.png"
   inkscape:export-xdpi="1228.8"
   inkscape:export-ydpi="1228.8"
   xmlns:inkscape="http://www.inkscape.org/namespaces/inkscape"
   xmlns:sodipodi="http://sodipodi.sourceforge.net/DTD/sodipodi-0.dtd"
   xmlns="http://www.w3.org/2000/svg"
   xmlns:svg="http://www.w3.org/2000/svg"
   xmlns:rdf="http://www.w3.org/1999/02/22-rdf-syntax-ns#"
   xmlns:cc="http://creativecommons.org/ns#"
   xmlns:dc="http://purl.org/dc/elements/1.1/">
  <defs
     id="defs1970" />
  <sodipodi:namedview
     id="base"
     pagecolor="#ffffff"
     bordercolor="#666666"
     borderopacity="1.0"
     inkscape:pageopacity="0.0"
     inkscape:pageshadow="2"
     inkscape:zoom="1.6652978"
     inkscape:cx="-80.165842"
     inkscape:cy="-0.3002466"
     inkscape:document-units="px"
     inkscape:current-layer="g2452"
     width="68.51mm"
     height="129.89mm"
     units="mm"
     inkscape:window-width="2496"
     inkscape:window-height="1369"
     inkscape:window-x="2624"
     inkscape:window-y="34"
     inkscape:pagecheckerboard="0"
     showgrid="false"
     inkscape:window-maximized="1"
     inkscape:snap-to-guides="false" />
  <metadata
     id="metadata1973">
    <rdf:RDF>
      <cc:Work
         rdf:about="">
        <dc:format>image/svg+xml</dc:format>
        <dc:type
           rdf:resource="http://purl.org/dc/dcmitype/StillImage" />
      </cc:Work>
    </rdf:RDF>
  </metadata>
  <g
     inkscape:label="Ebene 1"
     inkscape:groupmode="layer"
     id="layer1"
     transform="translate(3824.556,782.8939)">
    <g
       id="Ebene_x0020_1"
       transform="translate(-3826.724,-785.8793)"
       inkscape:label="Ebene 1"
       inkscape:groupmode="layer">
      <metadata
         id="CorelCorpID_0Corel-Layer" />
      <g
         id="g2452"
         transform="matrix(0.20328214,0,0,0.20328214,51.065833,12.985399)">
        <path
           style="fill:#a8241d;fill-opacity:1;stroke-width:0.754432"
           d="m 106.77125,253.20061 c -2.40059,-0.28077 -4.48194,-1.78617 -5.91673,-4.2794 -0.60697,-1.05473 -0.989048,-11.40742 -1.253239,-33.95785 -0.349005,-29.78652 -0.49621,-32.67473 -1.79924,-35.30289 -2.645806,-5.33658 -3.18761,-5.4364 -29.506854,-5.4364 -26.001961,0 -26.567087,0.0943 -29.384695,4.9038 -1.463209,2.49758 -1.57157,4.21282 -2.002164,31.68612 -0.299061,19.08379 -0.761825,30.00787 -1.349224,31.85129 -2.252481,7.0688 -6.899925,9.2647 -18.531134,8.756 -14.8889341,-0.65119 -15.4929053,-2.72636 -15.441537,-53.05541 0.017248,-17.01242 0.3001858,-32.56523 0.628493,-34.56179 0.8190433,-4.98103 2.7075971,-7.25977 8.447499,-10.1929 2.697848,-1.37859 5.395771,-3.24581 5.995543,-4.14937 0.864863,-1.30301 1.170748,-6.24636 1.479107,-23.89855 0.380951,-21.80698 0.426545,-22.33177 2.26328,-26.027887 1.50273,-3.023861 2.622859,-4.146307 5.646689,-5.65823 l 3.772159,-1.886079 H 60.37367 c 29.934147,0 30.627807,0.0339 34.167421,1.66806 2.957314,1.365325 3.912465,2.32376 5.263039,5.281014 1.54645,3.385982 1.67491,5.034772 2.04528,26.245892 0.28752,16.4638 0.66029,23.09708 1.3676,24.33574 0.53491,0.93652 3.32822,2.88911 6.20739,4.33905 8.53757,4.29943 7.87548,0.35462 8.12752,48.42801 0.21642,41.27624 0.0128,45.60347 -2.29815,48.7634 -1.11293,1.52204 -5.13286,2.54017 -8.48252,2.14838 z M 77.32251,153.15943 c 4.68269,-1.95657 5.306908,-4.27063 5.306908,-19.67465 0,-14.50184 -0.355528,-16.18182 -4.151383,-19.61699 -1.557547,-1.40958 -2.73047,-1.50708 -18.128212,-1.50708 -15.405092,0 -16.595712,0.0991 -18.528585,1.54222 -3.56931,2.66487 -4.33826,6.15648 -4.395177,19.95907 -0.05924,14.37144 0.721406,17.37333 5.001623,19.23301 3.552962,1.54369 31.232154,1.59479 34.894826,0.0644 z m -195.749,97.90587 c -7.2907,-2.37635 -9.33381,-4.8441 -10.56073,-12.75547 -0.54863,-3.53733 -0.73318,-26.32351 -0.56797,-70.12121 0.26629,-70.592269 0.1538,-68.788192 4.51606,-72.458738 4.28336,-3.604263 5.9468,-3.738818 46.220296,-3.738818 h 37.721508 l 3.772158,1.886079 c 3.017755,1.508856 4.149358,2.640504 5.658236,5.65823 1.853308,3.706527 1.892678,4.160067 2.263355,26.064417 0.437343,25.84695 0.181701,24.91943 7.868799,28.5514 8.125116,3.83896 7.564264,0.64451 7.812407,44.49772 0.150355,26.57373 -0.04724,39.33643 -0.65309,42.25639 -1.03914,5.00567 -4.182805,8.57108 -8.650873,9.81157 -2.975237,0.82601 -92.926986,1.15454 -95.400156,0.34843 z m 81.236154,-21.08117 c 4.244521,-3.14422 4.391801,-4.05269 4.391801,-27.09167 0,-23.03889 -0.14728,-23.94738 -4.391651,-27.09168 -2.014537,-1.49238 -3.225104,-1.58999 -22.632949,-1.82515 -11.27748,-0.13665 -22.312517,-0.0241 -24.522179,0.24999 -4.995548,0.61977 -8.210604,3.2498 -9.220498,7.54276 -0.927254,3.94147 -0.964599,38.37471 -0.04574,42.13246 0.860888,3.52068 3.351313,6.3214 6.452309,7.25631 1.267635,0.38218 12.550364,0.62937 25.072607,0.54929 21.792084,-0.13936 22.859045,-0.21316 24.896229,-1.72231 z M -53.42182,152.48999 c 4.058771,-2.7556 4.780252,-5.68081 4.780252,-19.38242 0,-10.93925 -0.182901,-12.8139 -1.508878,-15.46585 -2.741868,-5.48362 -3.638001,-5.65588 -29.422865,-5.65588 -20.047511,0 -22.931639,0.15068 -25.247779,1.31907 -4.61573,2.32847 -5.55768,5.05219 -5.92078,17.12043 -0.48459,16.1088 1.08233,21.18305 7.1168,23.04619 1.19526,0.36905 12.527862,0.60618 25.183437,0.52694 20.810387,-0.13028 23.202275,-0.27448 25.019813,-1.50848 z m 197.34165,97.98497 c -3.86747,-1.38007 -5.06724,-2.50345 -6.9054,-6.466 -1.44199,-3.10858 -1.59587,-5.01765 -1.82429,-22.63294 -0.27041,-20.85335 0.10604,-23.78376 3.38709,-26.36462 2.43643,-1.91649 8.50839,-2.10969 11.18501,-0.35589 2.65953,1.74259 3.30205,4.67714 3.78574,17.29012 0.50813,13.25051 1.3451,15.76218 6.03341,18.10635 2.81986,1.40992 4.52656,1.50886 26.02791,1.50886 20.81023,0 23.25019,-0.13101 25.52142,-1.37036 4.68531,-2.55664 5.03304,-4.44233 5.03304,-27.29802 0,-22.04245 -0.1895,-23.22682 -4.18933,-26.18492 -3.11621,-2.30464 -10.12218,-2.82922 -38.05881,-2.84973 -28.2144,-0.0207 -31.01581,-0.31622 -34.5429,-3.64384 -4.10069,-3.86869 -4.41595,-6.83291 -4.16263,-39.13772 0.24882,-31.740786 0.21222,-31.45601 4.56361,-35.519648 3.62945,-3.389468 4.82262,-3.480221 49.41106,-3.758578 43.7178,-0.272904 50.86377,0.06457 55.81919,2.636222 5.011,2.600488 5.82584,5.387882 6.12288,20.944184 0.30716,16.08729 -0.40982,20.54163 -3.76023,23.36083 -3.99278,3.3597 -10.97017,2.25232 -13.21988,-2.09813 -0.62804,-1.21448 -1.46051,-5.59479 -1.85001,-9.73402 -0.87926,-9.34494 -1.93595,-12.01648 -5.4035,-13.66197 -2.35139,-1.1158 -6.25163,-1.26165 -33.7396,-1.26165 -34.28223,0 -34.57184,0.0362 -37.30628,4.66526 -2.71915,4.60318 -2.82129,28.53727 -0.13926,32.63062 3.08277,4.70489 1.53632,4.53194 44.95514,5.02777 21.80326,0.24898 40.59828,0.71719 41.76663,1.04046 3.73526,1.03352 7.01241,4.85992 7.96036,9.2946 1.15493,5.40293 1.17847,70.99228 0.0277,76.35947 -1.11623,5.20499 -4.51944,8.60819 -9.72443,9.72445 -6.05089,1.29769 -93.0658,1.07185 -96.77339,-0.25116 z m 136.59035,0.36692 c -3.74899,-1.19304 -6.48741,-3.76297 -7.89393,-7.40828 -1.30063,-3.37079 -1.37907,-7.60638 -1.37907,-74.49055 0,-53.70407 0.22078,-71.410516 0.90941,-72.95176 1.89373,-4.238402 7.93179,-6.198264 12.46645,-4.04645 4.56691,2.167165 4.66477,2.750094 5.09491,30.35864 0.45062,28.91969 0.0428,27.35383 8.31154,31.92816 8.58848,4.75133 7.92152,0.79252 7.92152,47.01867 v 40.11814 l -1.88608,3.33178 c -2.75229,4.86196 -6.24466,6.43679 -14.71136,6.63388 -3.73443,0.0869 -7.70944,-0.13458 -8.83339,-0.49223 z m 53.09495,-0.40921 c -4.2395,-1.32298 -5.80852,-2.81324 -7.4559,-7.08193 -1.25751,-3.25828 -1.34743,-7.99501 -1.34743,-71.01275 0,-37.13687 0.27139,-68.80196 0.60307,-70.36683 0.86944,-4.102362 4.33151,-7.68793 8.62823,-8.936067 5.13338,-1.491188 88.96263,-1.536752 93.1581,-0.05062 3.47235,1.230012 6.30001,4.494741 7.50045,8.659907 1.01484,3.52135 1.27236,25.84956 0.3643,31.58516 -0.81604,5.15399 -3.36511,7.42236 -8.34093,7.42236 -7.04653,0 -8.70749,-2.31212 -9.49662,-13.21945 -0.60914,-8.41979 -1.56414,-11.12237 -4.76892,-13.49502 -2.07648,-1.53734 -2.88075,-1.57672 -32.19631,-1.57672 -29.31525,0 -30.11975,0.0394 -32.1969,1.57672 -4.02293,2.97743 -4.39368,4.66941 -4.39368,20.05305 0,13.96942 0.0157,14.10191 1.87761,16.08345 1.03269,1.0989 3.86912,3.05944 6.30315,4.35677 7.25733,3.86809 6.84368,1.80377 7.36037,36.73297 0.47034,31.79044 0.69621,33.9871 3.85487,37.48499 2.6662,2.95262 6.53667,3.40161 27.14819,3.14925 18.16878,-0.22245 19.4928,-0.33303 21.48979,-1.79461 3.88142,-2.84074 4.69124,-5.70459 5.35138,-18.92337 0.65422,-13.10066 1.37412,-15.45615 5.16405,-16.8971 2.89868,-1.10207 7.29873,-0.85982 9.25365,0.50949 3.49882,2.45063 3.86034,4.85106 3.86034,25.62891 0,12.62802 -0.30776,20.39043 -0.88473,22.31618 -1.18995,3.97184 -4.87969,7.06206 -9.65499,8.08617 -6.05314,1.29816 -86.91555,1.0402 -91.18114,-0.2909 z"
           id="path2533" />
      </g>
    </g>
  </g>
</svg>
