<?xml version="1.0" encoding="UTF-8" standalone="no"?>
<!DOCTYPE svg PUBLIC "-//W3C//DTD SVG 1.1//EN"
 "http://www.w3.org/Graphics/SVG/1.1/DTD/svg11.dtd">
<!-- Generated by graphviz version 2.42.4 (0)
 -->
<!-- Title: git_objects Pages: 1 -->
<svg width="1121pt" height="660pt"
 viewBox="0.00 0.00 1121.00 659.50" xmlns="http://www.w3.org/2000/svg" xmlns:xlink="http://www.w3.org/1999/xlink">
<g id="graph0" class="graph" transform="scale(1 1) rotate(0) translate(4 655.5)">
<title>git_objects</title>
<polygon fill="white" stroke="transparent" points="-4,4 -4,-655.5 1117,-655.5 1117,4 -4,4"/>
<!-- ff475f14ac7db89aa8a42cc1ed78ff0a03482d6b -->
<g id="node1" class="node">
<title>ff475f14ac7db89aa8a42cc1ed78ff0a03482d6b</title>
<polygon fill="#5bc0b5" stroke="transparent" points="297,-510.5 297,-610.5 419,-610.5 419,-510.5 297,-510.5"/>
<text text-anchor="start" x="300" y="-597.3" font-family="monospace" font-weight="bold" font-size="14.00" fill="#000000">commit ff475f1</text>
<text text-anchor="start" x="300" y="-577.3" font-family="monospace" font-size="14.00" fill="#000000">tree 0701bc9 &#160;</text>
<text text-anchor="start" x="300" y="-562.3" font-family="monospace" font-size="14.00" fill="#000000">parent f2f26f4</text>
<text text-anchor="start" x="300" y="-547.3" font-family="monospace" font-size="14.00" fill="#000000">author [...] &#160;</text>
<text text-anchor="start" x="300" y="-532.3" font-family="monospace" font-size="14.00" fill="#000000"> &#160;&#160;&#160;&#160;&#160;&#160;&#160;&#160;&#160;&#160;&#160;&#160;&#160;</text>
<text text-anchor="start" x="300" y="-517.3" font-family="monospace" font-size="14.00" fill="#000000">add smiley &#160;&#160;&#160;</text>
<polygon fill="none" stroke="#000000" points="297,-510.5 297,-610.5 419,-610.5 419,-510.5 297,-510.5"/>
</g>
<!-- 0701bc912c4c687059107daf3e9a6b078d1cad18 -->
<g id="node2" class="node">
<title>0701bc912c4c687059107daf3e9a6b078d1cad18</title>
<polygon fill="#d8c59f" stroke="transparent" points="542,-571.5 542,-611.5 747,-611.5 747,-571.5 542,-571.5"/>
<text text-anchor="start" x="545.5" y="-598.3" font-family="monospace" font-weight="bold" font-size="14.00" fill="#000000">tree 0701bc9</text>
<text text-anchor="start" x="545.5" y="-578.3" font-family="monospace" font-size="14.00" fill="#000000">blob README.md (bcd9a8a)</text>
<polygon fill="none" stroke="#000000" points="542,-571.5 542,-611.5 747,-611.5 747,-571.5 542,-571.5"/>
</g>
<!-- ff475f14ac7db89aa8a42cc1ed78ff0a03482d6b&#45;&gt;0701bc912c4c687059107daf3e9a6b078d1cad18 -->
<g id="edge1" class="edge">
<title>ff475f14ac7db89aa8a42cc1ed78ff0a03482d6b&#45;&gt;0701bc912c4c687059107daf3e9a6b078d1cad18</title>
<path fill="none" stroke="#000000" d="M419.34,-567.07C451.98,-570.63 493.35,-575.14 531.64,-579.31"/>
<polygon fill="#000000" stroke="#000000" points="531.5,-582.82 541.82,-580.42 532.26,-575.86 531.5,-582.82"/>
<text text-anchor="middle" x="509.5" y="-581.3" font-family="Times,serif" font-size="14.00">tree</text>
</g>
<!-- f2f26f42ae9488629e7d657000275c2d2f42cecf -->
<g id="node3" class="node">
<title>f2f26f42ae9488629e7d657000275c2d2f42cecf</title>
<polygon fill="#ceece9" stroke="transparent" points="288.5,-256.5 288.5,-356.5 427.5,-356.5 427.5,-256.5 288.5,-256.5"/>
<text text-anchor="start" x="292" y="-343.3" font-family="monospace" font-weight="bold" font-size="14.00" fill="#808080">commit f2f26f4</text>
<text text-anchor="start" x="292" y="-323.3" font-family="monospace" font-size="14.00" fill="#808080">tree 130f7a9 &#160;&#160;&#160;</text>
<text text-anchor="start" x="292" y="-308.3" font-family="monospace" font-size="14.00" fill="#808080">parent 00d3760 &#160;</text>
<text text-anchor="start" x="292" y="-293.3" font-family="monospace" font-size="14.00" fill="#808080">author [...] &#160;&#160;&#160;</text>
<text text-anchor="start" x="292" y="-278.3" font-family="monospace" font-size="14.00" fill="#808080"> &#160;&#160;&#160;&#160;&#160;&#160;&#160;&#160;&#160;&#160;&#160;&#160;&#160;&#160;&#160;</text>
<text text-anchor="start" x="292" y="-263.3" font-family="monospace" font-size="14.00" fill="#808080">update README.md</text>
<polygon fill="none" stroke="#b3b3b3" points="288.5,-256.5 288.5,-356.5 427.5,-356.5 427.5,-256.5 288.5,-256.5"/>
</g>
<!-- ff475f14ac7db89aa8a42cc1ed78ff0a03482d6b&#45;&gt;f2f26f42ae9488629e7d657000275c2d2f42cecf -->
<g id="edge2" class="edge">
<title>ff475f14ac7db89aa8a42cc1ed78ff0a03482d6b&#45;&gt;f2f26f42ae9488629e7d657000275c2d2f42cecf</title>
<path fill="none" stroke="#b3b3b3" d="M296.77,-543.03C274.53,-533.91 250.97,-520.56 235,-501.5 161.95,-414.31 192.08,-422.39 209,-393 224.49,-366.1 251.9,-346.8 279.03,-333.35"/>
<polygon fill="#b3b3b3" stroke="#b3b3b3" points="280.66,-336.45 288.2,-329.01 277.66,-330.12 280.66,-336.45"/>
<text text-anchor="middle" x="200" y="-396.8" font-family="Times,serif" font-size="14.00">parent</text>
</g>
<!-- bcd9a8a4d1fc1d4deb7ab91877a0874fe869acf3 -->
<g id="node4" class="node">
<title>bcd9a8a4d1fc1d4deb7ab91877a0874fe869acf3</title>
<polygon fill="#e7e6e1" stroke="transparent" points="925,-551.5 925,-651.5 1055,-651.5 1055,-551.5 925,-551.5"/>
<text text-anchor="start" x="928" y="-638.3" font-family="monospace" font-weight="bold" font-size="14.00" fill="#000000">blob bcd9a8a</text>
<text text-anchor="start" x="928" y="-618.3" font-family="monospace" font-size="14.00" fill="#000000">Hello, planet! </text>
<text text-anchor="start" x="928" y="-603.3" font-family="monospace" font-size="14.00" fill="#000000"> &#160;&#160;&#160;&#160;&#160;&#160;&#160;&#160;&#160;&#160;&#160;&#160;&#160;&#160;</text>
<text text-anchor="start" x="928" y="-588.3" font-family="monospace" font-size="14.00" fill="#000000">Git is awesome!</text>
<text text-anchor="start" x="928" y="-573.3" font-family="monospace" font-size="14.00" fill="#000000"> &#160;&#160;&#160;&#160;&#160;&#160;&#160;&#160;&#160;&#160;&#160;&#160;&#160;&#160;</text>
<text text-anchor="start" x="928" y="-558.3" font-family="monospace" font-size="14.00" fill="#000000">:) &#160;&#160;&#160;&#160;&#160;&#160;&#160;&#160;&#160;&#160;&#160;&#160;</text>
<polygon fill="none" stroke="#000000" points="925,-551.5 925,-651.5 1055,-651.5 1055,-551.5 925,-551.5"/>
</g>
<!-- 0701bc912c4c687059107daf3e9a6b078d1cad18&#45;&gt;bcd9a8a4d1fc1d4deb7ab91877a0874fe869acf3 -->
<g id="edge3" class="edge">
<title>0701bc912c4c687059107daf3e9a6b078d1cad18&#45;&gt;bcd9a8a4d1fc1d4deb7ab91877a0874fe869acf3</title>
<path fill="none" stroke="#000000" d="M747.17,-594.46C800.91,-596.02 865.71,-597.91 914.7,-599.34"/>
<polygon fill="#000000" stroke="#000000" points="914.81,-602.84 924.9,-599.63 915.01,-595.84 914.81,-602.84"/>
<text text-anchor="middle" x="809" y="-600.3" font-family="Times,serif" font-size="14.00">README.md</text>
</g>
<!-- 130f7a90b97d88faa2f1ddf794ef7dace1c0c450 -->
<g id="node5" class="node">
<title>130f7a90b97d88faa2f1ddf794ef7dace1c0c450</title>
<polygon fill="#f3eee2" stroke="transparent" points="542,-286.5 542,-326.5 747,-326.5 747,-286.5 542,-286.5"/>
<text text-anchor="start" x="545.5" y="-313.3" font-family="monospace" font-weight="bold" font-size="14.00" fill="#808080">tree 130f7a9</text>
<text text-anchor="start" x="545.5" y="-293.3" font-family="monospace" font-size="14.00" fill="#808080">blob README.md (1bce388)</text>
<polygon fill="none" stroke="#b3b3b3" points="542,-286.5 542,-326.5 747,-326.5 747,-286.5 542,-286.5"/>
</g>
<!-- f2f26f42ae9488629e7d657000275c2d2f42cecf&#45;&gt;130f7a90b97d88faa2f1ddf794ef7dace1c0c450 -->
<g id="edge4" class="edge">
<title>f2f26f42ae9488629e7d657000275c2d2f42cecf&#45;&gt;130f7a90b97d88faa2f1ddf794ef7dace1c0c450</title>
<path fill="none" stroke="#b3b3b3" d="M427.51,-306.5C458.71,-306.5 496.45,-306.5 531.6,-306.5"/>
<polygon fill="#b3b3b3" stroke="#b3b3b3" points="531.93,-310 541.93,-306.5 531.93,-303 531.93,-310"/>
<text text-anchor="middle" x="509.5" y="-310.3" font-family="Times,serif" font-size="14.00">tree</text>
</g>
<!-- 00d3760a979ab346489628ef9f4a32ac8c9533f9 -->
<g id="node6" class="node">
<title>00d3760a979ab346489628ef9f4a32ac8c9533f9</title>
<polygon fill="#ceece9" stroke="transparent" points="235,-120.5 235,-220.5 481,-220.5 481,-120.5 235,-120.5"/>
<text text-anchor="start" x="238" y="-207.3" font-family="monospace" font-weight="bold" font-size="14.00" fill="#808080">commit 00d3760</text>
<text text-anchor="start" x="238" y="-187.3" font-family="monospace" font-size="14.00" fill="#808080">tree ebfd749 &#160;&#160;&#160;&#160;&#160;&#160;&#160;&#160;&#160;&#160;&#160;&#160;&#160;&#160;&#160;&#160;</text>
<text text-anchor="start" x="238" y="-172.3" font-family="monospace" font-size="14.00" fill="#808080">parent 4993b2e &#160;&#160;&#160;&#160;&#160;&#160;&#160;&#160;&#160;&#160;&#160;&#160;&#160;&#160;</text>
<text text-anchor="start" x="238" y="-157.3" font-family="monospace" font-size="14.00" fill="#808080">author [...] &#160;&#160;&#160;&#160;&#160;&#160;&#160;&#160;&#160;&#160;&#160;&#160;&#160;&#160;&#160;&#160;</text>
<text text-anchor="start" x="238" y="-142.3" font-family="monospace" font-size="14.00" fill="#808080"> &#160;&#160;&#160;&#160;&#160;&#160;&#160;&#160;&#160;&#160;&#160;&#160;&#160;&#160;&#160;&#160;&#160;&#160;&#160;&#160;&#160;&#160;&#160;&#160;&#160;&#160;&#160;&#160;</text>
<text text-anchor="start" x="238" y="-127.3" font-family="monospace" font-size="14.00" fill="#808080">rename hello.txt to README.md</text>
<polygon fill="none" stroke="#b3b3b3" points="235,-120.5 235,-220.5 481,-220.5 481,-120.5 235,-120.5"/>
</g>
<!-- f2f26f42ae9488629e7d657000275c2d2f42cecf&#45;&gt;00d3760a979ab346489628ef9f4a32ac8c9533f9 -->
<g id="edge5" class="edge">
<title>f2f26f42ae9488629e7d657000275c2d2f42cecf&#45;&gt;00d3760a979ab346489628ef9f4a32ac8c9533f9</title>
<path fill="none" stroke="#b3b3b3" d="M358,-256.45C358,-248.17 358,-239.51 358,-231.01"/>
<polygon fill="#b3b3b3" stroke="#b3b3b3" points="361.5,-230.75 358,-220.75 354.5,-230.76 361.5,-230.75"/>
<text text-anchor="middle" x="347.5" y="-234.8" font-family="Times,serif" font-size="14.00">parent</text>
</g>
<!-- 1bce3880336548b24d6aadcc51e3d41359c5908d -->
<g id="node7" class="node">
<title>1bce3880336548b24d6aadcc51e3d41359c5908d</title>
<polygon fill="#f8f8f6" stroke="transparent" points="925,-271.5 925,-341.5 1055,-341.5 1055,-271.5 925,-271.5"/>
<text text-anchor="start" x="928" y="-328.3" font-family="monospace" font-weight="bold" font-size="14.00" fill="#808080">blob 1bce388</text>
<text text-anchor="start" x="928" y="-308.3" font-family="monospace" font-size="14.00" fill="#808080">Hello, planet! </text>
<text text-anchor="start" x="928" y="-293.3" font-family="monospace" font-size="14.00" fill="#808080"> &#160;&#160;&#160;&#160;&#160;&#160;&#160;&#160;&#160;&#160;&#160;&#160;&#160;&#160;</text>
<text text-anchor="start" x="928" y="-278.3" font-family="monospace" font-size="14.00" fill="#808080">Git is awesome!</text>
<polygon fill="none" stroke="#b3b3b3" points="925,-271.5 925,-341.5 1055,-341.5 1055,-271.5 925,-271.5"/>
</g>
<!-- 130f7a90b97d88faa2f1ddf794ef7dace1c0c450&#45;&gt;1bce3880336548b24d6aadcc51e3d41359c5908d -->
<g id="edge6" class="edge">
<title>130f7a90b97d88faa2f1ddf794ef7dace1c0c450&#45;&gt;1bce3880336548b24d6aadcc51e3d41359c5908d</title>
<path fill="none" stroke="#b3b3b3" d="M747.17,-306.5C800.91,-306.5 865.71,-306.5 914.7,-306.5"/>
<polygon fill="#b3b3b3" stroke="#b3b3b3" points="914.9,-310 924.9,-306.5 914.9,-303 914.9,-310"/>
<text text-anchor="middle" x="809" y="-310.3" font-family="Times,serif" font-size="14.00">README.md</text>
</g>
<!-- ebfd7499dae526dcbaf30e1250b1f875946729f8 -->
<g id="node8" class="node">
<title>ebfd7499dae526dcbaf30e1250b1f875946729f8</title>
<polygon fill="#f3eee2" stroke="transparent" points="542,-111.5 542,-151.5 747,-151.5 747,-111.5 542,-111.5"/>
<text text-anchor="start" x="545.5" y="-138.3" font-family="monospace" font-weight="bold" font-size="14.00" fill="#808080">tree ebfd749</text>
<text text-anchor="start" x="545.5" y="-118.3" font-family="monospace" font-size="14.00" fill="#808080">blob README.md (af5626b)</text>
<polygon fill="none" stroke="#b3b3b3" points="542,-111.5 542,-151.5 747,-151.5 747,-111.5 542,-111.5"/>
</g>
<!-- 00d3760a979ab346489628ef9f4a32ac8c9533f9&#45;&gt;ebfd7499dae526dcbaf30e1250b1f875946729f8 -->
<g id="edge7" class="edge">
<title>00d3760a979ab346489628ef9f4a32ac8c9533f9&#45;&gt;ebfd7499dae526dcbaf30e1250b1f875946729f8</title>
<path fill="none" stroke="#b3b3b3" d="M481.3,-153.73C498.02,-151.44 515.1,-149.1 531.62,-146.84"/>
<polygon fill="#b3b3b3" stroke="#b3b3b3" points="532.39,-150.26 541.82,-145.44 531.44,-143.33 532.39,-150.26"/>
<text text-anchor="middle" x="509.5" y="-154.3" font-family="Times,serif" font-size="14.00">tree</text>
</g>
<!-- 4993b2e707dafc0888cb61184f8144cec142b01e -->
<g id="node9" class="node">
<title>4993b2e707dafc0888cb61184f8144cec142b01e</title>
<polygon fill="#ceece9" stroke="transparent" points="297,0 297,-85 419,-85 419,0 297,0"/>
<text text-anchor="start" x="300" y="-71.3" font-family="monospace" font-weight="bold" font-size="14.00" fill="#808080">commit 4993b2e</text>
<text text-anchor="start" x="300" y="-51.3" font-family="monospace" font-size="14.00" fill="#808080">tree ec947e3 &#160;</text>
<text text-anchor="start" x="300" y="-36.3" font-family="monospace" font-size="14.00" fill="#808080">author [...] &#160;</text>
<text text-anchor="start" x="300" y="-21.3" font-family="monospace" font-size="14.00" fill="#808080"> &#160;&#160;&#160;&#160;&#160;&#160;&#160;&#160;&#160;&#160;&#160;&#160;&#160;</text>
<text text-anchor="start" x="300" y="-6.3" font-family="monospace" font-size="14.00" fill="#808080">initial commit</text>
<polygon fill="none" stroke="#b3b3b3" points="297,0 297,-85 419,-85 419,0 297,0"/>
</g>
<!-- 00d3760a979ab346489628ef9f4a32ac8c9533f9&#45;&gt;4993b2e707dafc0888cb61184f8144cec142b01e -->
<g id="edge8" class="edge">
<title>00d3760a979ab346489628ef9f4a32ac8c9533f9&#45;&gt;4993b2e707dafc0888cb61184f8144cec142b01e</title>
<path fill="none" stroke="#b3b3b3" d="M358,-120.07C358,-111.94 358,-103.5 358,-95.32"/>
<polygon fill="#b3b3b3" stroke="#b3b3b3" points="361.5,-95.12 358,-85.12 354.5,-95.12 361.5,-95.12"/>
<text text-anchor="middle" x="347.5" y="-99.05" font-family="Times,serif" font-size="14.00">parent</text>
</g>
<!-- af5626b4a114abcb82d63db7c8082c3c4756e51b -->
<g id="node10" class="node">
<title>af5626b4a114abcb82d63db7c8082c3c4756e51b</title>
<polygon fill="#f8f8f6" stroke="transparent" points="933,-78.5 933,-118.5 1047,-118.5 1047,-78.5 933,-78.5"/>
<text text-anchor="start" x="936" y="-105.3" font-family="monospace" font-weight="bold" font-size="14.00" fill="#808080">blob af5626b</text>
<text text-anchor="start" x="936" y="-85.3" font-family="monospace" font-size="14.00" fill="#808080">Hello, world!</text>
<polygon fill="none" stroke="#b3b3b3" points="933,-78.5 933,-118.5 1047,-118.5 1047,-78.5 933,-78.5"/>
</g>
<!-- ebfd7499dae526dcbaf30e1250b1f875946729f8&#45;&gt;af5626b4a114abcb82d63db7c8082c3c4756e51b -->
<g id="edge9" class="edge">
<title>ebfd7499dae526dcbaf30e1250b1f875946729f8&#45;&gt;af5626b4a114abcb82d63db7c8082c3c4756e51b</title>
<path fill="none" stroke="#b3b3b3" d="M747.17,-121.73C803.99,-116.27 873.16,-109.63 922.94,-104.85"/>
<polygon fill="#b3b3b3" stroke="#b3b3b3" points="923.33,-108.33 932.95,-103.88 922.66,-101.36 923.33,-108.33"/>
<text text-anchor="middle" x="809" y="-122.3" font-family="Times,serif" font-size="14.00">README.md</text>
</g>
<!-- ec947e3dd7a7752d078f1ed0cfde7457b21fef58 -->
<g id="node11" class="node">
<title>ec947e3dd7a7752d078f1ed0cfde7457b21fef58</title>
<polygon fill="#f3eee2" stroke="transparent" points="542,-44.5 542,-84.5 747,-84.5 747,-44.5 542,-44.5"/>
<text text-anchor="start" x="545.5" y="-71.3" font-family="monospace" font-weight="bold" font-size="14.00" fill="#808080">tree ec947e3</text>
<text text-anchor="start" x="545.5" y="-51.3" font-family="monospace" font-size="14.00" fill="#808080">blob hello.txt (af5626b)</text>
<polygon fill="none" stroke="#b3b3b3" points="542,-44.5 542,-84.5 747,-84.5 747,-44.5 542,-44.5"/>
</g>
<!-- 4993b2e707dafc0888cb61184f8144cec142b01e&#45;&gt;ec947e3dd7a7752d078f1ed0cfde7457b21fef58 -->
<g id="edge10" class="edge">
<title>4993b2e707dafc0888cb61184f8144cec142b01e&#45;&gt;ec947e3dd7a7752d078f1ed0cfde7457b21fef58</title>
<path fill="none" stroke="#b3b3b3" d="M419.34,-47.17C451.98,-49.69 493.35,-52.89 531.64,-55.85"/>
<polygon fill="#b3b3b3" stroke="#b3b3b3" points="531.58,-59.36 541.82,-56.64 532.12,-52.38 531.58,-59.36"/>
<text text-anchor="middle" x="509.5" y="-59.3" font-family="Times,serif" font-size="14.00">tree</text>
</g>
<!-- ec947e3dd7a7752d078f1ed0cfde7457b21fef58&#45;&gt;af5626b4a114abcb82d63db7c8082c3c4756e51b -->
<g id="edge11" class="edge">
<title>ec947e3dd7a7752d078f1ed0cfde7457b21fef58&#45;&gt;af5626b4a114abcb82d63db7c8082c3c4756e51b</title>
<path fill="none" stroke="#b3b3b3" d="M747.17,-74.56C803.99,-80.19 873.16,-87.03 922.94,-91.96"/>
<polygon fill="#b3b3b3" stroke="#b3b3b3" points="922.65,-95.45 932.95,-92.95 923.34,-88.48 922.65,-95.45"/>
<text text-anchor="middle" x="809" y="-88.3" font-family="Times,serif" font-size="14.00">hello.txt</text>
</g>
<!-- d6a53df8fa0be456f454f003d0f5124ac3b26728 -->
<g id="node12" class="node">
<title>d6a53df8fa0be456f454f003d0f5124ac3b26728</title>
<polygon fill="#ceece9" stroke="transparent" points="297,-392.5 297,-492.5 419,-492.5 419,-392.5 297,-392.5"/>
<text text-anchor="start" x="300" y="-479.3" font-family="monospace" font-weight="bold" font-size="14.00" fill="#808080">commit d6a53df</text>
<text text-anchor="start" x="300" y="-459.3" font-family="monospace" font-size="14.00" fill="#808080">tree 185925e &#160;</text>
<text text-anchor="start" x="300" y="-444.3" font-family="monospace" font-size="14.00" fill="#808080">parent f2f26f4</text>
<text text-anchor="start" x="300" y="-429.3" font-family="monospace" font-size="14.00" fill="#808080">author [...] &#160;</text>
<text text-anchor="start" x="300" y="-414.3" font-family="monospace" font-size="14.00" fill="#808080"> &#160;&#160;&#160;&#160;&#160;&#160;&#160;&#160;&#160;&#160;&#160;&#160;&#160;</text>
<text text-anchor="start" x="300" y="-399.3" font-family="monospace" font-size="14.00" fill="#808080">add hello.c &#160;&#160;</text>
<polygon fill="none" stroke="#b3b3b3" points="297,-392.5 297,-492.5 419,-492.5 419,-392.5 297,-392.5"/>
</g>
<!-- d6a53df8fa0be456f454f003d0f5124ac3b26728&#45;&gt;f2f26f42ae9488629e7d657000275c2d2f42cecf -->
<g id="edge13" class="edge">
<title>d6a53df8fa0be456f454f003d0f5124ac3b26728&#45;&gt;f2f26f42ae9488629e7d657000275c2d2f42cecf</title>
<path fill="none" stroke="#b3b3b3" d="M358,-392.45C358,-384.17 358,-375.51 358,-367.01"/>
<polygon fill="#b3b3b3" stroke="#b3b3b3" points="361.5,-366.75 358,-356.75 354.5,-366.76 361.5,-366.75"/>
<text text-anchor="middle" x="347.5" y="-370.8" font-family="Times,serif" font-size="14.00">parent</text>
</g>
<!-- 185925ef4192b996276486fde75fee6a8b5f2b01 -->
<g id="node13" class="node">
<title>185925ef4192b996276486fde75fee6a8b5f2b01</title>
<polygon fill="#f3eee2" stroke="transparent" points="538,-389.5 538,-459.5 751,-459.5 751,-389.5 538,-389.5"/>
<text text-anchor="start" x="541.5" y="-446.3" font-family="monospace" font-weight="bold" font-size="14.00" fill="#808080">tree 185925e</text>
<text text-anchor="start" x="541.5" y="-426.3" font-family="monospace" font-size="14.00" fill="#808080">blob .gitignore (ce01362)</text>
<text text-anchor="start" x="541.5" y="-411.3" font-family="monospace" font-size="14.00" fill="#808080">blob README.md (1bce388) </text>
<text text-anchor="start" x="541.5" y="-396.3" font-family="monospace" font-size="14.00" fill="#808080">blob hello.c (3e6f6d6) &#160;&#160;</text>
<polygon fill="none" stroke="#b3b3b3" points="538,-389.5 538,-459.5 751,-459.5 751,-389.5 538,-389.5"/>
</g>
<!-- d6a53df8fa0be456f454f003d0f5124ac3b26728&#45;&gt;185925ef4192b996276486fde75fee6a8b5f2b01 -->
<g id="edge12" class="edge">
<title>d6a53df8fa0be456f454f003d0f5124ac3b26728&#45;&gt;185925ef4192b996276486fde75fee6a8b5f2b01</title>
<path fill="none" stroke="#b3b3b3" d="M419.34,-438.68C450.79,-436.69 490.36,-434.19 527.46,-431.84"/>
<polygon fill="#b3b3b3" stroke="#b3b3b3" points="528.09,-435.31 537.85,-431.18 527.65,-428.32 528.09,-435.31"/>
<text text-anchor="middle" x="509.5" y="-437.3" font-family="Times,serif" font-size="14.00">tree</text>
</g>
<!-- 185925ef4192b996276486fde75fee6a8b5f2b01&#45;&gt;1bce3880336548b24d6aadcc51e3d41359c5908d -->
<g id="edge15" class="edge">
<title>185925ef4192b996276486fde75fee6a8b5f2b01&#45;&gt;1bce3880336548b24d6aadcc51e3d41359c5908d</title>
<path fill="none" stroke="#b3b3b3" d="M747.63,-389.42C801.49,-370.91 866.35,-348.63 915.26,-331.83"/>
<polygon fill="#b3b3b3" stroke="#b3b3b3" points="916.5,-335.11 924.82,-328.55 914.23,-328.49 916.5,-335.11"/>
<text text-anchor="middle" x="809" y="-383.3" font-family="Times,serif" font-size="14.00">README.md</text>
</g>
<!-- ce013625030ba8dba906f756967f9e9ca394464a -->
<g id="node14" class="node">
<title>ce013625030ba8dba906f756967f9e9ca394464a</title>
<polygon fill="#f8f8f6" stroke="transparent" points="937,-493.5 937,-533.5 1043,-533.5 1043,-493.5 937,-493.5"/>
<text text-anchor="start" x="940" y="-520.3" font-family="monospace" font-weight="bold" font-size="14.00" fill="#808080">blob ce01362</text>
<text text-anchor="start" x="940" y="-500.3" font-family="monospace" font-size="14.00" fill="#808080">hello</text>
<polygon fill="none" stroke="#b3b3b3" points="937,-493.5 937,-533.5 1043,-533.5 1043,-493.5 937,-493.5"/>
</g>
<!-- 185925ef4192b996276486fde75fee6a8b5f2b01&#45;&gt;ce013625030ba8dba906f756967f9e9ca394464a -->
<g id="edge14" class="edge">
<title>185925ef4192b996276486fde75fee6a8b5f2b01&#45;&gt;ce013625030ba8dba906f756967f9e9ca394464a</title>
<path fill="none" stroke="#b3b3b3" d="M751.23,-453.86C787.83,-463.83 829.16,-474.88 867,-484.5 886.49,-489.46 907.81,-494.61 927.09,-499.18"/>
<polygon fill="#b3b3b3" stroke="#b3b3b3" points="926.43,-502.62 936.97,-501.51 928.04,-495.81 926.43,-502.62"/>
<text text-anchor="middle" x="809" y="-483.3" font-family="Times,serif" font-size="14.00">.gitignore</text>
</g>
<!-- 3e6f6d6801697f115ff5c67f8c7c57731cf77f79 -->
<g id="node15" class="node">
<title>3e6f6d6801697f115ff5c67f8c7c57731cf77f79</title>
<polygon fill="#f8f8f6" stroke="transparent" points="867,-360 867,-475 1113,-475 1113,-360 867,-360"/>
<text text-anchor="start" x="870" y="-461.3" font-family="monospace" font-weight="bold" font-size="14.00" fill="#808080">blob 3e6f6d6</text>
<text text-anchor="start" x="870" y="-441.3" font-family="monospace" font-size="14.00" fill="#808080">#include &lt;stdio.h&gt; &#160;&#160;&#160;&#160;&#160;&#160;&#160;&#160;&#160;&#160;</text>
<text text-anchor="start" x="870" y="-426.3" font-family="monospace" font-size="14.00" fill="#808080"> &#160;&#160;&#160;&#160;&#160;&#160;&#160;&#160;&#160;&#160;&#160;&#160;&#160;&#160;&#160;&#160;&#160;&#160;&#160;&#160;&#160;&#160;&#160;&#160;&#160;&#160;&#160;&#160;</text>
<text text-anchor="start" x="870" y="-411.3" font-family="monospace" font-size="14.00" fill="#808080">int main() { &#160;&#160;&#160;&#160;&#160;&#160;&#160;&#160;&#160;&#160;&#160;&#160;&#160;&#160;&#160;&#160;</text>
<text text-anchor="start" x="870" y="-396.3" font-family="monospace" font-size="14.00" fill="#808080"> &#160;&#160;printf(&quot;Hello, world!\n&quot;);</text>
<text text-anchor="start" x="870" y="-381.3" font-family="monospace" font-size="14.00" fill="#808080"> &#160;&#160;return 0; &#160;&#160;&#160;&#160;&#160;&#160;&#160;&#160;&#160;&#160;&#160;&#160;&#160;&#160;&#160;&#160;</text>
<text text-anchor="start" x="870" y="-366.3" font-family="monospace" font-size="14.00" fill="#808080">} &#160;&#160;&#160;&#160;&#160;&#160;&#160;&#160;&#160;&#160;&#160;&#160;&#160;&#160;&#160;&#160;&#160;&#160;&#160;&#160;&#160;&#160;&#160;&#160;&#160;&#160;&#160;</text>
<polygon fill="none" stroke="#b3b3b3" points="867,-360 867,-475 1113,-475 1113,-360 867,-360"/>
</g>
<!-- 185925ef4192b996276486fde75fee6a8b5f2b01&#45;&gt;3e6f6d6801697f115ff5c67f8c7c57731cf77f79 -->
<g id="edge16" class="edge">
<title>185925ef4192b996276486fde75fee6a8b5f2b01&#45;&gt;3e6f6d6801697f115ff5c67f8c7c57731cf77f79</title>
<path fill="none" stroke="#b3b3b3" d="M751.36,-422.34C784.65,-421.66 821.82,-420.91 856.7,-420.2"/>
<polygon fill="#b3b3b3" stroke="#b3b3b3" points="857.02,-423.69 866.95,-419.99 856.88,-416.69 857.02,-423.69"/>
<text text-anchor="middle" x="809" y="-425.3" font-family="Times,serif" font-size="14.00">hello.c</text>
</g>
<!-- ref:feature -->
<g id="node16" class="node">
<title>ref:feature</title>
<polygon fill="white" stroke="black" points="159,-460.5 91,-460.5 91,-424.5 165,-424.5 165,-454.5 159,-460.5"/>
<polyline fill="none" stroke="black" points="159,-460.5 159,-454.5 "/>
<polyline fill="none" stroke="black" points="165,-454.5 159,-454.5 "/>
<text text-anchor="middle" x="128" y="-438.8" font-family="monospace" font-size="14.00">feature</text>
</g>
<!-- ref:feature&#45;&gt;d6a53df8fa0be456f454f003d0f5124ac3b26728 -->
<g id="edge17" class="edge">
<title>ref:feature&#45;&gt;d6a53df8fa0be456f454f003d0f5124ac3b26728</title>
<path fill="none" stroke="black" d="M165.13,-442.5C197.65,-442.5 246.38,-442.5 286.59,-442.5"/>
<polygon fill="black" stroke="black" points="286.62,-446 296.62,-442.5 286.62,-439 286.62,-446"/>
</g>
<!-- ref:main -->
<g id="node17" class="node">
<title>ref:main</title>
<polygon fill="white" stroke="black" points="149,-578.5 101,-578.5 101,-542.5 155,-542.5 155,-572.5 149,-578.5"/>
<polyline fill="none" stroke="black" points="149,-578.5 149,-572.5 "/>
<polyline fill="none" stroke="black" points="155,-572.5 149,-572.5 "/>
<text text-anchor="middle" x="128" y="-556.8" font-family="monospace" font-size="14.00">main</text>
</g>
<!-- ref:main&#45;&gt;ff475f14ac7db89aa8a42cc1ed78ff0a03482d6b -->
<g id="edge18" class="edge">
<title>ref:main&#45;&gt;ff475f14ac7db89aa8a42cc1ed78ff0a03482d6b</title>
<path fill="none" stroke="black" d="M155.15,-560.5C186.95,-560.5 241.88,-560.5 286.41,-560.5"/>
<polygon fill="black" stroke="black" points="286.62,-564 296.62,-560.5 286.62,-557 286.62,-564"/>
</g>
<!-- ref:HEAD -->
<g id="node18" class="node">
<title>ref:HEAD</title>
<polygon fill="#fce94f" stroke="black" points="48,-578.5 0,-578.5 0,-542.5 54,-542.5 54,-572.5 48,-578.5"/>
<polyline fill="none" stroke="black" points="48,-578.5 48,-572.5 "/>
<polyline fill="none" stroke="black" points="54,-572.5 48,-572.5 "/>
<text text-anchor="middle" x="27" y="-556.8" font-family="monospace" font-size="14.00">HEAD</text>
</g>
<!-- ref:HEAD&#45;&gt;ref:main -->
<g id="edge19" class="edge">
<title>ref:HEAD&#45;&gt;ref:main</title>
<path fill="none" stroke="black" d="M54.01,-560.5C65.18,-560.5 78.42,-560.5 90.54,-560.5"/>
<polygon fill="black" stroke="black" points="90.82,-564 100.82,-560.5 90.82,-557 90.82,-564"/>
</g>
</g>
</svg>
