<?xml version="1.0" encoding="UTF-8" standalone="no"?>
<!DOCTYPE svg PUBLIC "-//W3C//DTD SVG 1.1//EN"
 "http://www.w3.org/Graphics/SVG/1.1/DTD/svg11.dtd">
<!-- Generated by graphviz version 2.42.4 (0)
 -->
<!-- Title: git_objects Pages: 1 -->
<svg width="1129pt" height="769pt"
 viewBox="0.00 0.00 1129.00 769.00" xmlns="http://www.w3.org/2000/svg" xmlns:xlink="http://www.w3.org/1999/xlink">
<g id="graph0" class="graph" transform="scale(1 1) rotate(0) translate(4 765)">
<title>git_objects</title>
<polygon fill="white" stroke="transparent" points="-4,4 -4,-765 1125,-765 1125,4 -4,4"/>
<!-- 7648f413afbda3a32b75df067f2ba69bb7f78d27 -->
<g id="node1" class="node">
<title>7648f413afbda3a32b75df067f2ba69bb7f78d27</title>
<polygon fill="#5bc0b5" stroke="transparent" points="235,-646 235,-761 489,-761 489,-646 235,-646"/>
<text text-anchor="start" x="238" y="-747.3" font-family="monospace" font-weight="bold" font-size="14.00" fill="#000000">commit 7648f41</text>
<text text-anchor="start" x="238" y="-727.3" font-family="monospace" font-size="14.00" fill="#000000">tree 915d884 &#160;&#160;&#160;&#160;&#160;&#160;&#160;&#160;&#160;&#160;&#160;&#160;&#160;&#160;&#160;&#160;&#160;</text>
<text text-anchor="start" x="238" y="-712.3" font-family="monospace" font-size="14.00" fill="#000000">parent ff475f1 &#160;&#160;&#160;&#160;&#160;&#160;&#160;&#160;&#160;&#160;&#160;&#160;&#160;&#160;&#160;</text>
<text text-anchor="start" x="238" y="-697.3" font-family="monospace" font-size="14.00" fill="#000000">parent d6a53df &#160;&#160;&#160;&#160;&#160;&#160;&#160;&#160;&#160;&#160;&#160;&#160;&#160;&#160;&#160;</text>
<text text-anchor="start" x="238" y="-682.3" font-family="monospace" font-size="14.00" fill="#000000">author [...] &#160;&#160;&#160;&#160;&#160;&#160;&#160;&#160;&#160;&#160;&#160;&#160;&#160;&#160;&#160;&#160;&#160;</text>
<text text-anchor="start" x="238" y="-667.3" font-family="monospace" font-size="14.00" fill="#000000"> &#160;&#160;&#160;&#160;&#160;&#160;&#160;&#160;&#160;&#160;&#160;&#160;&#160;&#160;&#160;&#160;&#160;&#160;&#160;&#160;&#160;&#160;&#160;&#160;&#160;&#160;&#160;&#160;&#160;</text>
<text text-anchor="start" x="238" y="-652.3" font-family="monospace" font-size="14.00" fill="#000000">merge feature branch into main</text>
<polygon fill="none" stroke="#000000" points="235,-646 235,-761 489,-761 489,-646 235,-646"/>
</g>
<!-- 915d884c9f093aac643aa9c2b5d04e4c33369fa2 -->
<g id="node2" class="node">
<title>915d884c9f093aac643aa9c2b5d04e4c33369fa2</title>
<polygon fill="#d8c59f" stroke="transparent" points="546,-618.5 546,-688.5 759,-688.5 759,-618.5 546,-618.5"/>
<text text-anchor="start" x="549.5" y="-675.3" font-family="monospace" font-weight="bold" font-size="14.00" fill="#000000">tree 915d884</text>
<text text-anchor="start" x="549.5" y="-655.3" font-family="monospace" font-size="14.00" fill="#000000">blob .gitignore (ce01362)</text>
<text text-anchor="start" x="549.5" y="-640.3" font-family="monospace" font-size="14.00" fill="#000000">blob README.md (bcd9a8a) </text>
<text text-anchor="start" x="549.5" y="-625.3" font-family="monospace" font-size="14.00" fill="#000000">blob hello.c (3e6f6d6) &#160;&#160;</text>
<polygon fill="none" stroke="#000000" points="546,-618.5 546,-688.5 759,-688.5 759,-618.5 546,-618.5"/>
</g>
<!-- 7648f413afbda3a32b75df067f2ba69bb7f78d27&#45;&gt;915d884c9f093aac643aa9c2b5d04e4c33369fa2 -->
<g id="edge1" class="edge">
<title>7648f413afbda3a32b75df067f2ba69bb7f78d27&#45;&gt;915d884c9f093aac643aa9c2b5d04e4c33369fa2</title>
<path fill="none" stroke="#000000" d="M489.12,-681.64C504.67,-678.95 520.5,-676.2 535.88,-673.54"/>
<polygon fill="#000000" stroke="#000000" points="536.66,-676.96 545.92,-671.8 535.46,-670.06 536.66,-676.96"/>
<text text-anchor="middle" x="517.5" y="-682.3" font-family="Times,serif" font-size="14.00">tree</text>
</g>
<!-- ff475f14ac7db89aa8a42cc1ed78ff0a03482d6b -->
<g id="node3" class="node">
<title>ff475f14ac7db89aa8a42cc1ed78ff0a03482d6b</title>
<polygon fill="#ceece9" stroke="transparent" points="301,-510.5 301,-610.5 423,-610.5 423,-510.5 301,-510.5"/>
<text text-anchor="start" x="304" y="-597.3" font-family="monospace" font-weight="bold" font-size="14.00" fill="#808080">commit ff475f1</text>
<text text-anchor="start" x="304" y="-577.3" font-family="monospace" font-size="14.00" fill="#808080">tree 0701bc9 &#160;</text>
<text text-anchor="start" x="304" y="-562.3" font-family="monospace" font-size="14.00" fill="#808080">parent f2f26f4</text>
<text text-anchor="start" x="304" y="-547.3" font-family="monospace" font-size="14.00" fill="#808080">author [...] &#160;</text>
<text text-anchor="start" x="304" y="-532.3" font-family="monospace" font-size="14.00" fill="#808080"> &#160;&#160;&#160;&#160;&#160;&#160;&#160;&#160;&#160;&#160;&#160;&#160;&#160;</text>
<text text-anchor="start" x="304" y="-517.3" font-family="monospace" font-size="14.00" fill="#808080">add smiley &#160;&#160;&#160;</text>
<polygon fill="none" stroke="#b3b3b3" points="301,-510.5 301,-610.5 423,-610.5 423,-510.5 301,-510.5"/>
</g>
<!-- 7648f413afbda3a32b75df067f2ba69bb7f78d27&#45;&gt;ff475f14ac7db89aa8a42cc1ed78ff0a03482d6b -->
<g id="edge2" class="edge">
<title>7648f413afbda3a32b75df067f2ba69bb7f78d27&#45;&gt;ff475f14ac7db89aa8a42cc1ed78ff0a03482d6b</title>
<path fill="none" stroke="#b3b3b3" d="M362,-645.92C362,-637.59 362,-628.99 362,-620.6"/>
<polygon fill="#b3b3b3" stroke="#b3b3b3" points="365.5,-620.51 362,-610.51 358.5,-620.51 365.5,-620.51"/>
<text text-anchor="middle" x="351.5" y="-624.55" font-family="Times,serif" font-size="14.00">parent</text>
</g>
<!-- d6a53df8fa0be456f454f003d0f5124ac3b26728 -->
<g id="node4" class="node">
<title>d6a53df8fa0be456f454f003d0f5124ac3b26728</title>
<polygon fill="#ceece9" stroke="transparent" points="301,-392.5 301,-492.5 423,-492.5 423,-392.5 301,-392.5"/>
<text text-anchor="start" x="304" y="-479.3" font-family="monospace" font-weight="bold" font-size="14.00" fill="#808080">commit d6a53df</text>
<text text-anchor="start" x="304" y="-459.3" font-family="monospace" font-size="14.00" fill="#808080">tree 185925e &#160;</text>
<text text-anchor="start" x="304" y="-444.3" font-family="monospace" font-size="14.00" fill="#808080">parent f2f26f4</text>
<text text-anchor="start" x="304" y="-429.3" font-family="monospace" font-size="14.00" fill="#808080">author [...] &#160;</text>
<text text-anchor="start" x="304" y="-414.3" font-family="monospace" font-size="14.00" fill="#808080"> &#160;&#160;&#160;&#160;&#160;&#160;&#160;&#160;&#160;&#160;&#160;&#160;&#160;</text>
<text text-anchor="start" x="304" y="-399.3" font-family="monospace" font-size="14.00" fill="#808080">add hello.c &#160;&#160;</text>
<polygon fill="none" stroke="#b3b3b3" points="301,-392.5 301,-492.5 423,-492.5 423,-392.5 301,-392.5"/>
</g>
<!-- 7648f413afbda3a32b75df067f2ba69bb7f78d27&#45;&gt;d6a53df8fa0be456f454f003d0f5124ac3b26728 -->
<g id="edge3" class="edge">
<title>7648f413afbda3a32b75df067f2ba69bb7f78d27&#45;&gt;d6a53df8fa0be456f454f003d0f5124ac3b26728</title>
<path fill="none" stroke="#b3b3b3" d="M249.35,-645.86C222.55,-623.74 203.33,-595.6 210,-562 215.66,-533.46 214.87,-522.51 235,-501.5 250.53,-485.29 271.39,-473.09 291.7,-464.13"/>
<polygon fill="#b3b3b3" stroke="#b3b3b3" points="293.11,-467.33 300.98,-460.23 290.4,-460.88 293.11,-467.33"/>
<text text-anchor="middle" x="200" y="-565.8" font-family="Times,serif" font-size="14.00">parent</text>
</g>
<!-- ce013625030ba8dba906f756967f9e9ca394464a -->
<g id="node5" class="node">
<title>ce013625030ba8dba906f756967f9e9ca394464a</title>
<polygon fill="#e7e6e1" stroke="transparent" points="945,-443.5 945,-483.5 1051,-483.5 1051,-443.5 945,-443.5"/>
<text text-anchor="start" x="948" y="-470.3" font-family="monospace" font-weight="bold" font-size="14.00" fill="#000000">blob ce01362</text>
<text text-anchor="start" x="948" y="-450.3" font-family="monospace" font-size="14.00" fill="#000000">hello</text>
<polygon fill="none" stroke="#000000" points="945,-443.5 945,-483.5 1051,-483.5 1051,-443.5 945,-443.5"/>
</g>
<!-- 915d884c9f093aac643aa9c2b5d04e4c33369fa2&#45;&gt;ce013625030ba8dba906f756967f9e9ca394464a -->
<g id="edge4" class="edge">
<title>915d884c9f093aac643aa9c2b5d04e4c33369fa2&#45;&gt;ce013625030ba8dba906f756967f9e9ca394464a</title>
<path fill="none" stroke="#000000" d="M711.23,-618.45C726.8,-608.85 743.61,-598.37 759,-588.5 767.09,-583.31 768.28,-580.54 777,-576.5 810.57,-560.94 830.3,-579.11 857,-553.5 875.26,-535.99 856.8,-517.07 875,-499.5 891.11,-483.94 913.61,-475.06 934.9,-470"/>
<polygon fill="#000000" stroke="#000000" points="935.85,-473.38 944.9,-467.88 934.39,-466.54 935.85,-473.38"/>
<text text-anchor="middle" x="817" y="-580.3" font-family="Times,serif" font-size="14.00">.gitignore</text>
</g>
<!-- bcd9a8a4d1fc1d4deb7ab91877a0874fe869acf3 -->
<g id="node6" class="node">
<title>bcd9a8a4d1fc1d4deb7ab91877a0874fe869acf3</title>
<polygon fill="#e7e6e1" stroke="transparent" points="933,-508.5 933,-608.5 1063,-608.5 1063,-508.5 933,-508.5"/>
<text text-anchor="start" x="936" y="-595.3" font-family="monospace" font-weight="bold" font-size="14.00" fill="#000000">blob bcd9a8a</text>
<text text-anchor="start" x="936" y="-575.3" font-family="monospace" font-size="14.00" fill="#000000">Hello, planet! </text>
<text text-anchor="start" x="936" y="-560.3" font-family="monospace" font-size="14.00" fill="#000000"> &#160;&#160;&#160;&#160;&#160;&#160;&#160;&#160;&#160;&#160;&#160;&#160;&#160;&#160;</text>
<text text-anchor="start" x="936" y="-545.3" font-family="monospace" font-size="14.00" fill="#000000">Git is awesome!</text>
<text text-anchor="start" x="936" y="-530.3" font-family="monospace" font-size="14.00" fill="#000000"> &#160;&#160;&#160;&#160;&#160;&#160;&#160;&#160;&#160;&#160;&#160;&#160;&#160;&#160;</text>
<text text-anchor="start" x="936" y="-515.3" font-family="monospace" font-size="14.00" fill="#000000">:) &#160;&#160;&#160;&#160;&#160;&#160;&#160;&#160;&#160;&#160;&#160;&#160;</text>
<polygon fill="none" stroke="#000000" points="933,-508.5 933,-608.5 1063,-608.5 1063,-508.5 933,-508.5"/>
</g>
<!-- 915d884c9f093aac643aa9c2b5d04e4c33369fa2&#45;&gt;bcd9a8a4d1fc1d4deb7ab91877a0874fe869acf3 -->
<g id="edge5" class="edge">
<title>915d884c9f093aac643aa9c2b5d04e4c33369fa2&#45;&gt;bcd9a8a4d1fc1d4deb7ab91877a0874fe869acf3</title>
<path fill="none" stroke="#000000" d="M759.26,-648.14C791.15,-644.63 825.93,-638.89 857,-629.5 860.92,-628.32 892.02,-612.59 923.92,-596.24"/>
<polygon fill="#000000" stroke="#000000" points="925.61,-599.31 932.91,-591.63 922.42,-593.08 925.61,-599.31"/>
<text text-anchor="middle" x="817" y="-650.3" font-family="Times,serif" font-size="14.00">README.md</text>
</g>
<!-- 3e6f6d6801697f115ff5c67f8c7c57731cf77f79 -->
<g id="node7" class="node">
<title>3e6f6d6801697f115ff5c67f8c7c57731cf77f79</title>
<polygon fill="#e7e6e1" stroke="transparent" points="875,-631 875,-746 1121,-746 1121,-631 875,-631"/>
<text text-anchor="start" x="878" y="-732.3" font-family="monospace" font-weight="bold" font-size="14.00" fill="#000000">blob 3e6f6d6</text>
<text text-anchor="start" x="878" y="-712.3" font-family="monospace" font-size="14.00" fill="#000000">#include &lt;stdio.h&gt; &#160;&#160;&#160;&#160;&#160;&#160;&#160;&#160;&#160;&#160;</text>
<text text-anchor="start" x="878" y="-697.3" font-family="monospace" font-size="14.00" fill="#000000"> &#160;&#160;&#160;&#160;&#160;&#160;&#160;&#160;&#160;&#160;&#160;&#160;&#160;&#160;&#160;&#160;&#160;&#160;&#160;&#160;&#160;&#160;&#160;&#160;&#160;&#160;&#160;&#160;</text>
<text text-anchor="start" x="878" y="-682.3" font-family="monospace" font-size="14.00" fill="#000000">int main() { &#160;&#160;&#160;&#160;&#160;&#160;&#160;&#160;&#160;&#160;&#160;&#160;&#160;&#160;&#160;&#160;</text>
<text text-anchor="start" x="878" y="-667.3" font-family="monospace" font-size="14.00" fill="#000000"> &#160;&#160;printf(&quot;Hello, world!\n&quot;);</text>
<text text-anchor="start" x="878" y="-652.3" font-family="monospace" font-size="14.00" fill="#000000"> &#160;&#160;return 0; &#160;&#160;&#160;&#160;&#160;&#160;&#160;&#160;&#160;&#160;&#160;&#160;&#160;&#160;&#160;&#160;</text>
<text text-anchor="start" x="878" y="-637.3" font-family="monospace" font-size="14.00" fill="#000000">} &#160;&#160;&#160;&#160;&#160;&#160;&#160;&#160;&#160;&#160;&#160;&#160;&#160;&#160;&#160;&#160;&#160;&#160;&#160;&#160;&#160;&#160;&#160;&#160;&#160;&#160;&#160;</text>
<polygon fill="none" stroke="#000000" points="875,-631 875,-746 1121,-746 1121,-631 875,-631"/>
</g>
<!-- 915d884c9f093aac643aa9c2b5d04e4c33369fa2&#45;&gt;3e6f6d6801697f115ff5c67f8c7c57731cf77f79 -->
<g id="edge6" class="edge">
<title>915d884c9f093aac643aa9c2b5d04e4c33369fa2&#45;&gt;3e6f6d6801697f115ff5c67f8c7c57731cf77f79</title>
<path fill="none" stroke="#000000" d="M759.26,-665.61C765.26,-666.26 771.21,-666.9 777,-667.5 805.33,-670.46 835.74,-673.47 864.63,-676.25"/>
<polygon fill="#000000" stroke="#000000" points="864.49,-679.75 874.78,-677.22 865.16,-672.78 864.49,-679.75"/>
<text text-anchor="middle" x="817" y="-679.3" font-family="Times,serif" font-size="14.00">hello.c</text>
</g>
<!-- 0701bc912c4c687059107daf3e9a6b078d1cad18 -->
<g id="node8" class="node">
<title>0701bc912c4c687059107daf3e9a6b078d1cad18</title>
<polygon fill="#f3eee2" stroke="transparent" points="550,-539.5 550,-579.5 755,-579.5 755,-539.5 550,-539.5"/>
<text text-anchor="start" x="553.5" y="-566.3" font-family="monospace" font-weight="bold" font-size="14.00" fill="#808080">tree 0701bc9</text>
<text text-anchor="start" x="553.5" y="-546.3" font-family="monospace" font-size="14.00" fill="#808080">blob README.md (bcd9a8a)</text>
<polygon fill="none" stroke="#b3b3b3" points="550,-539.5 550,-579.5 755,-579.5 755,-539.5 550,-539.5"/>
</g>
<!-- ff475f14ac7db89aa8a42cc1ed78ff0a03482d6b&#45;&gt;0701bc912c4c687059107daf3e9a6b078d1cad18 -->
<g id="edge7" class="edge">
<title>ff475f14ac7db89aa8a42cc1ed78ff0a03482d6b&#45;&gt;0701bc912c4c687059107daf3e9a6b078d1cad18</title>
<path fill="none" stroke="#b3b3b3" d="M423.13,-560.29C456.92,-560.17 500.19,-560.02 539.96,-559.89"/>
<polygon fill="#b3b3b3" stroke="#b3b3b3" points="540,-563.39 549.98,-559.85 539.97,-556.39 540,-563.39"/>
<text text-anchor="middle" x="517.5" y="-564.3" font-family="Times,serif" font-size="14.00">tree</text>
</g>
<!-- f2f26f42ae9488629e7d657000275c2d2f42cecf -->
<g id="node9" class="node">
<title>f2f26f42ae9488629e7d657000275c2d2f42cecf</title>
<polygon fill="#ceece9" stroke="transparent" points="292.5,-256.5 292.5,-356.5 431.5,-356.5 431.5,-256.5 292.5,-256.5"/>
<text text-anchor="start" x="296" y="-343.3" font-family="monospace" font-weight="bold" font-size="14.00" fill="#808080">commit f2f26f4</text>
<text text-anchor="start" x="296" y="-323.3" font-family="monospace" font-size="14.00" fill="#808080">tree 130f7a9 &#160;&#160;&#160;</text>
<text text-anchor="start" x="296" y="-308.3" font-family="monospace" font-size="14.00" fill="#808080">parent 00d3760 &#160;</text>
<text text-anchor="start" x="296" y="-293.3" font-family="monospace" font-size="14.00" fill="#808080">author [...] &#160;&#160;&#160;</text>
<text text-anchor="start" x="296" y="-278.3" font-family="monospace" font-size="14.00" fill="#808080"> &#160;&#160;&#160;&#160;&#160;&#160;&#160;&#160;&#160;&#160;&#160;&#160;&#160;&#160;&#160;</text>
<text text-anchor="start" x="296" y="-263.3" font-family="monospace" font-size="14.00" fill="#808080">update README.md</text>
<polygon fill="none" stroke="#b3b3b3" points="292.5,-256.5 292.5,-356.5 431.5,-356.5 431.5,-256.5 292.5,-256.5"/>
</g>
<!-- ff475f14ac7db89aa8a42cc1ed78ff0a03482d6b&#45;&gt;f2f26f42ae9488629e7d657000275c2d2f42cecf -->
<g id="edge8" class="edge">
<title>ff475f14ac7db89aa8a42cc1ed78ff0a03482d6b&#45;&gt;f2f26f42ae9488629e7d657000275c2d2f42cecf</title>
<path fill="none" stroke="#b3b3b3" d="M301,-544.43C277.36,-535.37 251.96,-521.7 235,-501.5 161.06,-413.46 193.11,-422.05 210,-393 226.18,-365.17 255.03,-345.56 283.28,-332.12"/>
<polygon fill="#b3b3b3" stroke="#b3b3b3" points="284.76,-335.3 292.42,-327.98 281.86,-328.93 284.76,-335.3"/>
<text text-anchor="middle" x="200" y="-396.8" font-family="Times,serif" font-size="14.00">parent</text>
</g>
<!-- d6a53df8fa0be456f454f003d0f5124ac3b26728&#45;&gt;f2f26f42ae9488629e7d657000275c2d2f42cecf -->
<g id="edge10" class="edge">
<title>d6a53df8fa0be456f454f003d0f5124ac3b26728&#45;&gt;f2f26f42ae9488629e7d657000275c2d2f42cecf</title>
<path fill="none" stroke="#b3b3b3" d="M362,-392.45C362,-384.17 362,-375.51 362,-367.01"/>
<polygon fill="#b3b3b3" stroke="#b3b3b3" points="365.5,-366.75 362,-356.75 358.5,-366.76 365.5,-366.75"/>
<text text-anchor="middle" x="351.5" y="-370.8" font-family="Times,serif" font-size="14.00">parent</text>
</g>
<!-- 185925ef4192b996276486fde75fee6a8b5f2b01 -->
<g id="node10" class="node">
<title>185925ef4192b996276486fde75fee6a8b5f2b01</title>
<polygon fill="#f3eee2" stroke="transparent" points="546,-419.5 546,-489.5 759,-489.5 759,-419.5 546,-419.5"/>
<text text-anchor="start" x="549.5" y="-476.3" font-family="monospace" font-weight="bold" font-size="14.00" fill="#808080">tree 185925e</text>
<text text-anchor="start" x="549.5" y="-456.3" font-family="monospace" font-size="14.00" fill="#808080">blob .gitignore (ce01362)</text>
<text text-anchor="start" x="549.5" y="-441.3" font-family="monospace" font-size="14.00" fill="#808080">blob README.md (1bce388) </text>
<text text-anchor="start" x="549.5" y="-426.3" font-family="monospace" font-size="14.00" fill="#808080">blob hello.c (3e6f6d6) &#160;&#160;</text>
<polygon fill="none" stroke="#b3b3b3" points="546,-419.5 546,-489.5 759,-489.5 759,-419.5 546,-419.5"/>
</g>
<!-- d6a53df8fa0be456f454f003d0f5124ac3b26728&#45;&gt;185925ef4192b996276486fde75fee6a8b5f2b01 -->
<g id="edge9" class="edge">
<title>d6a53df8fa0be456f454f003d0f5124ac3b26728&#45;&gt;185925ef4192b996276486fde75fee6a8b5f2b01</title>
<path fill="none" stroke="#b3b3b3" d="M423.13,-445C455.72,-446.36 497.12,-448.08 535.69,-449.68"/>
<polygon fill="#b3b3b3" stroke="#b3b3b3" points="535.82,-453.19 545.96,-450.11 536.11,-446.2 535.82,-453.19"/>
<text text-anchor="middle" x="517.5" y="-453.3" font-family="Times,serif" font-size="14.00">tree</text>
</g>
<!-- 0701bc912c4c687059107daf3e9a6b078d1cad18&#45;&gt;bcd9a8a4d1fc1d4deb7ab91877a0874fe869acf3 -->
<g id="edge11" class="edge">
<title>0701bc912c4c687059107daf3e9a6b078d1cad18&#45;&gt;bcd9a8a4d1fc1d4deb7ab91877a0874fe869acf3</title>
<path fill="none" stroke="#b3b3b3" d="M755.09,-540.83C762.49,-539.9 769.85,-539.1 777,-538.5 825.47,-534.41 879.91,-539.28 922.51,-545.24"/>
<polygon fill="#b3b3b3" stroke="#b3b3b3" points="922.12,-548.72 932.52,-546.69 923.13,-541.79 922.12,-548.72"/>
<text text-anchor="middle" x="817" y="-542.3" font-family="Times,serif" font-size="14.00">README.md</text>
</g>
<!-- 130f7a90b97d88faa2f1ddf794ef7dace1c0c450 -->
<g id="node11" class="node">
<title>130f7a90b97d88faa2f1ddf794ef7dace1c0c450</title>
<polygon fill="#f3eee2" stroke="transparent" points="550,-308.5 550,-348.5 755,-348.5 755,-308.5 550,-308.5"/>
<text text-anchor="start" x="553.5" y="-335.3" font-family="monospace" font-weight="bold" font-size="14.00" fill="#808080">tree 130f7a9</text>
<text text-anchor="start" x="553.5" y="-315.3" font-family="monospace" font-size="14.00" fill="#808080">blob README.md (1bce388)</text>
<polygon fill="none" stroke="#b3b3b3" points="550,-308.5 550,-348.5 755,-348.5 755,-308.5 550,-308.5"/>
</g>
<!-- f2f26f42ae9488629e7d657000275c2d2f42cecf&#45;&gt;130f7a90b97d88faa2f1ddf794ef7dace1c0c450 -->
<g id="edge12" class="edge">
<title>f2f26f42ae9488629e7d657000275c2d2f42cecf&#45;&gt;130f7a90b97d88faa2f1ddf794ef7dace1c0c450</title>
<path fill="none" stroke="#b3b3b3" d="M431.74,-311.74C464.03,-314.2 503.36,-317.2 539.78,-319.98"/>
<polygon fill="#b3b3b3" stroke="#b3b3b3" points="539.72,-323.49 549.96,-320.76 540.26,-316.51 539.72,-323.49"/>
<text text-anchor="middle" x="517.5" y="-323.3" font-family="Times,serif" font-size="14.00">tree</text>
</g>
<!-- 00d3760a979ab346489628ef9f4a32ac8c9533f9 -->
<g id="node12" class="node">
<title>00d3760a979ab346489628ef9f4a32ac8c9533f9</title>
<polygon fill="#ceece9" stroke="transparent" points="239,-120.5 239,-220.5 485,-220.5 485,-120.5 239,-120.5"/>
<text text-anchor="start" x="242" y="-207.3" font-family="monospace" font-weight="bold" font-size="14.00" fill="#808080">commit 00d3760</text>
<text text-anchor="start" x="242" y="-187.3" font-family="monospace" font-size="14.00" fill="#808080">tree ebfd749 &#160;&#160;&#160;&#160;&#160;&#160;&#160;&#160;&#160;&#160;&#160;&#160;&#160;&#160;&#160;&#160;</text>
<text text-anchor="start" x="242" y="-172.3" font-family="monospace" font-size="14.00" fill="#808080">parent 4993b2e &#160;&#160;&#160;&#160;&#160;&#160;&#160;&#160;&#160;&#160;&#160;&#160;&#160;&#160;</text>
<text text-anchor="start" x="242" y="-157.3" font-family="monospace" font-size="14.00" fill="#808080">author [...] &#160;&#160;&#160;&#160;&#160;&#160;&#160;&#160;&#160;&#160;&#160;&#160;&#160;&#160;&#160;&#160;</text>
<text text-anchor="start" x="242" y="-142.3" font-family="monospace" font-size="14.00" fill="#808080"> &#160;&#160;&#160;&#160;&#160;&#160;&#160;&#160;&#160;&#160;&#160;&#160;&#160;&#160;&#160;&#160;&#160;&#160;&#160;&#160;&#160;&#160;&#160;&#160;&#160;&#160;&#160;&#160;</text>
<text text-anchor="start" x="242" y="-127.3" font-family="monospace" font-size="14.00" fill="#808080">rename hello.txt to README.md</text>
<polygon fill="none" stroke="#b3b3b3" points="239,-120.5 239,-220.5 485,-220.5 485,-120.5 239,-120.5"/>
</g>
<!-- f2f26f42ae9488629e7d657000275c2d2f42cecf&#45;&gt;00d3760a979ab346489628ef9f4a32ac8c9533f9 -->
<g id="edge13" class="edge">
<title>f2f26f42ae9488629e7d657000275c2d2f42cecf&#45;&gt;00d3760a979ab346489628ef9f4a32ac8c9533f9</title>
<path fill="none" stroke="#b3b3b3" d="M362,-256.45C362,-248.17 362,-239.51 362,-231.01"/>
<polygon fill="#b3b3b3" stroke="#b3b3b3" points="365.5,-230.75 362,-220.75 358.5,-230.76 365.5,-230.75"/>
<text text-anchor="middle" x="351.5" y="-234.8" font-family="Times,serif" font-size="14.00">parent</text>
</g>
<!-- 185925ef4192b996276486fde75fee6a8b5f2b01&#45;&gt;ce013625030ba8dba906f756967f9e9ca394464a -->
<g id="edge14" class="edge">
<title>185925ef4192b996276486fde75fee6a8b5f2b01&#45;&gt;ce013625030ba8dba906f756967f9e9ca394464a</title>
<path fill="none" stroke="#b3b3b3" d="M759.36,-457.27C816.78,-458.78 885.78,-460.59 934.6,-461.87"/>
<polygon fill="#b3b3b3" stroke="#b3b3b3" points="934.61,-465.37 944.7,-462.13 934.8,-458.37 934.61,-465.37"/>
<text text-anchor="middle" x="817" y="-464.3" font-family="Times,serif" font-size="14.00">.gitignore</text>
</g>
<!-- 185925ef4192b996276486fde75fee6a8b5f2b01&#45;&gt;3e6f6d6801697f115ff5c67f8c7c57731cf77f79 -->
<g id="edge16" class="edge">
<title>185925ef4192b996276486fde75fee6a8b5f2b01&#45;&gt;3e6f6d6801697f115ff5c67f8c7c57731cf77f79</title>
<path fill="none" stroke="#b3b3b3" d="M716.43,-489.58C732.18,-500.89 747.77,-514.66 759,-530.5 775.35,-553.56 756.48,-572.06 777,-591.5 803.53,-616.64 822.94,-597.26 857,-610.5 868.88,-615.12 881,-620.58 892.88,-626.44"/>
<polygon fill="#b3b3b3" stroke="#b3b3b3" points="891.41,-629.62 901.91,-630.99 894.56,-623.37 891.41,-629.62"/>
<text text-anchor="middle" x="817" y="-614.3" font-family="Times,serif" font-size="14.00">hello.c</text>
</g>
<!-- 1bce3880336548b24d6aadcc51e3d41359c5908d -->
<g id="node13" class="node">
<title>1bce3880336548b24d6aadcc51e3d41359c5908d</title>
<polygon fill="#f8f8f6" stroke="transparent" points="933,-340.5 933,-410.5 1063,-410.5 1063,-340.5 933,-340.5"/>
<text text-anchor="start" x="936" y="-397.3" font-family="monospace" font-weight="bold" font-size="14.00" fill="#808080">blob 1bce388</text>
<text text-anchor="start" x="936" y="-377.3" font-family="monospace" font-size="14.00" fill="#808080">Hello, planet! </text>
<text text-anchor="start" x="936" y="-362.3" font-family="monospace" font-size="14.00" fill="#808080"> &#160;&#160;&#160;&#160;&#160;&#160;&#160;&#160;&#160;&#160;&#160;&#160;&#160;&#160;</text>
<text text-anchor="start" x="936" y="-347.3" font-family="monospace" font-size="14.00" fill="#808080">Git is awesome!</text>
<polygon fill="none" stroke="#b3b3b3" points="933,-340.5 933,-410.5 1063,-410.5 1063,-340.5 933,-340.5"/>
</g>
<!-- 185925ef4192b996276486fde75fee6a8b5f2b01&#45;&gt;1bce3880336548b24d6aadcc51e3d41359c5908d -->
<g id="edge15" class="edge">
<title>185925ef4192b996276486fde75fee6a8b5f2b01&#45;&gt;1bce3880336548b24d6aadcc51e3d41359c5908d</title>
<path fill="none" stroke="#b3b3b3" d="M759.36,-430.15C812.37,-417.96 875.24,-403.5 922.99,-392.52"/>
<polygon fill="#b3b3b3" stroke="#b3b3b3" points="923.98,-395.88 932.94,-390.23 922.41,-389.06 923.98,-395.88"/>
<text text-anchor="middle" x="817" y="-428.3" font-family="Times,serif" font-size="14.00">README.md</text>
</g>
<!-- 130f7a90b97d88faa2f1ddf794ef7dace1c0c450&#45;&gt;1bce3880336548b24d6aadcc51e3d41359c5908d -->
<g id="edge17" class="edge">
<title>130f7a90b97d88faa2f1ddf794ef7dace1c0c450&#45;&gt;1bce3880336548b24d6aadcc51e3d41359c5908d</title>
<path fill="none" stroke="#b3b3b3" d="M755.06,-339.56C787.65,-343.35 823.89,-347.83 857,-352.5 878.48,-355.53 901.74,-359.2 923.03,-362.7"/>
<polygon fill="#b3b3b3" stroke="#b3b3b3" points="922.54,-366.17 932.97,-364.35 923.68,-359.26 922.54,-366.17"/>
<text text-anchor="middle" x="817" y="-356.3" font-family="Times,serif" font-size="14.00">README.md</text>
</g>
<!-- ebfd7499dae526dcbaf30e1250b1f875946729f8 -->
<g id="node14" class="node">
<title>ebfd7499dae526dcbaf30e1250b1f875946729f8</title>
<polygon fill="#f3eee2" stroke="transparent" points="550,-111.5 550,-151.5 755,-151.5 755,-111.5 550,-111.5"/>
<text text-anchor="start" x="553.5" y="-138.3" font-family="monospace" font-weight="bold" font-size="14.00" fill="#808080">tree ebfd749</text>
<text text-anchor="start" x="553.5" y="-118.3" font-family="monospace" font-size="14.00" fill="#808080">blob README.md (af5626b)</text>
<polygon fill="none" stroke="#b3b3b3" points="550,-111.5 550,-151.5 755,-151.5 755,-111.5 550,-111.5"/>
</g>
<!-- 00d3760a979ab346489628ef9f4a32ac8c9533f9&#45;&gt;ebfd7499dae526dcbaf30e1250b1f875946729f8 -->
<g id="edge18" class="edge">
<title>00d3760a979ab346489628ef9f4a32ac8c9533f9&#45;&gt;ebfd7499dae526dcbaf30e1250b1f875946729f8</title>
<path fill="none" stroke="#b3b3b3" d="M485.35,-153.96C503.32,-151.53 521.76,-149.04 539.51,-146.64"/>
<polygon fill="#b3b3b3" stroke="#b3b3b3" points="540.43,-150.05 549.87,-145.24 539.5,-143.11 540.43,-150.05"/>
<text text-anchor="middle" x="517.5" y="-155.3" font-family="Times,serif" font-size="14.00">tree</text>
</g>
<!-- 4993b2e707dafc0888cb61184f8144cec142b01e -->
<g id="node15" class="node">
<title>4993b2e707dafc0888cb61184f8144cec142b01e</title>
<polygon fill="#ceece9" stroke="transparent" points="301,0 301,-85 423,-85 423,0 301,0"/>
<text text-anchor="start" x="304" y="-71.3" font-family="monospace" font-weight="bold" font-size="14.00" fill="#808080">commit 4993b2e</text>
<text text-anchor="start" x="304" y="-51.3" font-family="monospace" font-size="14.00" fill="#808080">tree ec947e3 &#160;</text>
<text text-anchor="start" x="304" y="-36.3" font-family="monospace" font-size="14.00" fill="#808080">author [...] &#160;</text>
<text text-anchor="start" x="304" y="-21.3" font-family="monospace" font-size="14.00" fill="#808080"> &#160;&#160;&#160;&#160;&#160;&#160;&#160;&#160;&#160;&#160;&#160;&#160;&#160;</text>
<text text-anchor="start" x="304" y="-6.3" font-family="monospace" font-size="14.00" fill="#808080">initial commit</text>
<polygon fill="none" stroke="#b3b3b3" points="301,0 301,-85 423,-85 423,0 301,0"/>
</g>
<!-- 00d3760a979ab346489628ef9f4a32ac8c9533f9&#45;&gt;4993b2e707dafc0888cb61184f8144cec142b01e -->
<g id="edge19" class="edge">
<title>00d3760a979ab346489628ef9f4a32ac8c9533f9&#45;&gt;4993b2e707dafc0888cb61184f8144cec142b01e</title>
<path fill="none" stroke="#b3b3b3" d="M362,-120.07C362,-111.94 362,-103.5 362,-95.32"/>
<polygon fill="#b3b3b3" stroke="#b3b3b3" points="365.5,-95.12 362,-85.12 358.5,-95.12 365.5,-95.12"/>
<text text-anchor="middle" x="351.5" y="-99.05" font-family="Times,serif" font-size="14.00">parent</text>
</g>
<!-- af5626b4a114abcb82d63db7c8082c3c4756e51b -->
<g id="node16" class="node">
<title>af5626b4a114abcb82d63db7c8082c3c4756e51b</title>
<polygon fill="#f8f8f6" stroke="transparent" points="941,-80.5 941,-120.5 1055,-120.5 1055,-80.5 941,-80.5"/>
<text text-anchor="start" x="944" y="-107.3" font-family="monospace" font-weight="bold" font-size="14.00" fill="#808080">blob af5626b</text>
<text text-anchor="start" x="944" y="-87.3" font-family="monospace" font-size="14.00" fill="#808080">Hello, world!</text>
<polygon fill="none" stroke="#b3b3b3" points="941,-80.5 941,-120.5 1055,-120.5 1055,-80.5 941,-80.5"/>
</g>
<!-- ebfd7499dae526dcbaf30e1250b1f875946729f8&#45;&gt;af5626b4a114abcb82d63db7c8082c3c4756e51b -->
<g id="edge20" class="edge">
<title>ebfd7499dae526dcbaf30e1250b1f875946729f8&#45;&gt;af5626b4a114abcb82d63db7c8082c3c4756e51b</title>
<path fill="none" stroke="#b3b3b3" d="M755.17,-122.32C811.99,-117.2 881.16,-110.95 930.94,-106.46"/>
<polygon fill="#b3b3b3" stroke="#b3b3b3" points="931.3,-109.94 940.95,-105.56 930.67,-102.97 931.3,-109.94"/>
<text text-anchor="middle" x="817" y="-124.3" font-family="Times,serif" font-size="14.00">README.md</text>
</g>
<!-- ec947e3dd7a7752d078f1ed0cfde7457b21fef58 -->
<g id="node17" class="node">
<title>ec947e3dd7a7752d078f1ed0cfde7457b21fef58</title>
<polygon fill="#f3eee2" stroke="transparent" points="550,-44.5 550,-84.5 755,-84.5 755,-44.5 550,-44.5"/>
<text text-anchor="start" x="553.5" y="-71.3" font-family="monospace" font-weight="bold" font-size="14.00" fill="#808080">tree ec947e3</text>
<text text-anchor="start" x="553.5" y="-51.3" font-family="monospace" font-size="14.00" fill="#808080">blob hello.txt (af5626b)</text>
<polygon fill="none" stroke="#b3b3b3" points="550,-44.5 550,-84.5 755,-84.5 755,-44.5 550,-44.5"/>
</g>
<!-- 4993b2e707dafc0888cb61184f8144cec142b01e&#45;&gt;ec947e3dd7a7752d078f1ed0cfde7457b21fef58 -->
<g id="edge21" class="edge">
<title>4993b2e707dafc0888cb61184f8144cec142b01e&#45;&gt;ec947e3dd7a7752d078f1ed0cfde7457b21fef58</title>
<path fill="none" stroke="#b3b3b3" d="M423.13,-47.09C456.92,-49.66 500.19,-52.96 539.96,-55.99"/>
<polygon fill="#b3b3b3" stroke="#b3b3b3" points="539.75,-59.49 549.98,-56.76 540.28,-52.51 539.75,-59.49"/>
<text text-anchor="middle" x="517.5" y="-59.3" font-family="Times,serif" font-size="14.00">tree</text>
</g>
<!-- ec947e3dd7a7752d078f1ed0cfde7457b21fef58&#45;&gt;af5626b4a114abcb82d63db7c8082c3c4756e51b -->
<g id="edge22" class="edge">
<title>ec947e3dd7a7752d078f1ed0cfde7457b21fef58&#45;&gt;af5626b4a114abcb82d63db7c8082c3c4756e51b</title>
<path fill="none" stroke="#b3b3b3" d="M755.17,-75.16C811.99,-81.11 881.16,-88.36 930.94,-93.58"/>
<polygon fill="#b3b3b3" stroke="#b3b3b3" points="930.64,-97.06 940.95,-94.63 931.37,-90.1 930.64,-97.06"/>
<text text-anchor="middle" x="817" y="-90.3" font-family="Times,serif" font-size="14.00">hello.txt</text>
</g>
<!-- ref:feature -->
<g id="node18" class="node">
<title>ref:feature</title>
<polygon fill="white" stroke="black" points="159,-460.5 91,-460.5 91,-424.5 165,-424.5 165,-454.5 159,-460.5"/>
<polyline fill="none" stroke="black" points="159,-460.5 159,-454.5 "/>
<polyline fill="none" stroke="black" points="165,-454.5 159,-454.5 "/>
<text text-anchor="middle" x="128" y="-438.8" font-family="monospace" font-size="14.00">feature</text>
</g>
<!-- ref:feature&#45;&gt;d6a53df8fa0be456f454f003d0f5124ac3b26728 -->
<g id="edge23" class="edge">
<title>ref:feature&#45;&gt;d6a53df8fa0be456f454f003d0f5124ac3b26728</title>
<path fill="none" stroke="black" d="M165.25,-442.5C198.69,-442.5 249.26,-442.5 290.62,-442.5"/>
<polygon fill="black" stroke="black" points="290.65,-446 300.65,-442.5 290.65,-439 290.65,-446"/>
</g>
<!-- ref:main -->
<g id="node19" class="node">
<title>ref:main</title>
<polygon fill="white" stroke="black" points="149,-721.5 101,-721.5 101,-685.5 155,-685.5 155,-715.5 149,-721.5"/>
<polyline fill="none" stroke="black" points="149,-721.5 149,-715.5 "/>
<polyline fill="none" stroke="black" points="155,-715.5 149,-715.5 "/>
<text text-anchor="middle" x="128" y="-699.8" font-family="monospace" font-size="14.00">main</text>
</g>
<!-- ref:main&#45;&gt;7648f413afbda3a32b75df067f2ba69bb7f78d27 -->
<g id="edge24" class="edge">
<title>ref:main&#45;&gt;7648f413afbda3a32b75df067f2ba69bb7f78d27</title>
<path fill="none" stroke="black" d="M155.16,-703.5C172.97,-703.5 198.07,-703.5 224.63,-703.5"/>
<polygon fill="black" stroke="black" points="224.87,-707 234.87,-703.5 224.87,-700 224.87,-707"/>
</g>
<!-- ref:HEAD -->
<g id="node20" class="node">
<title>ref:HEAD</title>
<polygon fill="#fce94f" stroke="black" points="48,-721.5 0,-721.5 0,-685.5 54,-685.5 54,-715.5 48,-721.5"/>
<polyline fill="none" stroke="black" points="48,-721.5 48,-715.5 "/>
<polyline fill="none" stroke="black" points="54,-715.5 48,-715.5 "/>
<text text-anchor="middle" x="27" y="-699.8" font-family="monospace" font-size="14.00">HEAD</text>
</g>
<!-- ref:HEAD&#45;&gt;ref:main -->
<g id="edge25" class="edge">
<title>ref:HEAD&#45;&gt;ref:main</title>
<path fill="none" stroke="black" d="M54.01,-703.5C65.18,-703.5 78.42,-703.5 90.54,-703.5"/>
<polygon fill="black" stroke="black" points="90.82,-707 100.82,-703.5 90.82,-700 90.82,-707"/>
</g>
</g>
</svg>
