<?xml version="1.0" encoding="UTF-8" standalone="no"?>
<!DOCTYPE svg PUBLIC "-//W3C//DTD SVG 1.1//EN"
 "http://www.w3.org/Graphics/SVG/1.1/DTD/svg11.dtd">
<!-- Generated by graphviz version 2.42.4 (0)
 -->
<!-- Title: git_objects Pages: 1 -->
<svg width="928pt" height="229pt"
 viewBox="0.00 0.00 928.00 228.50" xmlns="http://www.w3.org/2000/svg" xmlns:xlink="http://www.w3.org/1999/xlink">
<g id="graph0" class="graph" transform="scale(1 1) rotate(0) translate(4 224.5)">
<title>git_objects</title>
<polygon fill="white" stroke="transparent" points="-4,4 -4,-224.5 924,-224.5 924,4 -4,4"/>
<!-- 00d3760a979ab346489628ef9f4a32ac8c9533f9 -->
<g id="node1" class="node">
<title>00d3760a979ab346489628ef9f4a32ac8c9533f9</title>
<polygon fill="#5bc0b5" stroke="transparent" points="182,-120.5 182,-220.5 428,-220.5 428,-120.5 182,-120.5"/>
<text text-anchor="start" x="185" y="-207.3" font-family="monospace" font-weight="bold" font-size="14.00" fill="#000000">commit 00d3760</text>
<text text-anchor="start" x="185" y="-187.3" font-family="monospace" font-size="14.00" fill="#000000">tree ebfd749 &#160;&#160;&#160;&#160;&#160;&#160;&#160;&#160;&#160;&#160;&#160;&#160;&#160;&#160;&#160;&#160;</text>
<text text-anchor="start" x="185" y="-172.3" font-family="monospace" font-size="14.00" fill="#000000">parent 4993b2e &#160;&#160;&#160;&#160;&#160;&#160;&#160;&#160;&#160;&#160;&#160;&#160;&#160;&#160;</text>
<text text-anchor="start" x="185" y="-157.3" font-family="monospace" font-size="14.00" fill="#000000">author [...] &#160;&#160;&#160;&#160;&#160;&#160;&#160;&#160;&#160;&#160;&#160;&#160;&#160;&#160;&#160;&#160;</text>
<text text-anchor="start" x="185" y="-142.3" font-family="monospace" font-size="14.00" fill="#000000"> &#160;&#160;&#160;&#160;&#160;&#160;&#160;&#160;&#160;&#160;&#160;&#160;&#160;&#160;&#160;&#160;&#160;&#160;&#160;&#160;&#160;&#160;&#160;&#160;&#160;&#160;&#160;&#160;</text>
<text text-anchor="start" x="185" y="-127.3" font-family="monospace" font-size="14.00" fill="#000000">rename hello.txt to README.md</text>
<polygon fill="none" stroke="#000000" points="182,-120.5 182,-220.5 428,-220.5 428,-120.5 182,-120.5"/>
</g>
<!-- ebfd7499dae526dcbaf30e1250b1f875946729f8 -->
<g id="node2" class="node">
<title>ebfd7499dae526dcbaf30e1250b1f875946729f8</title>
<polygon fill="#d8c59f" stroke="transparent" points="485,-141.5 485,-181.5 690,-181.5 690,-141.5 485,-141.5"/>
<text text-anchor="start" x="488.5" y="-168.3" font-family="monospace" font-weight="bold" font-size="14.00" fill="#000000">tree ebfd749</text>
<text text-anchor="start" x="488.5" y="-148.3" font-family="monospace" font-size="14.00" fill="#000000">blob README.md (af5626b)</text>
<polygon fill="none" stroke="#000000" points="485,-141.5 485,-181.5 690,-181.5 690,-141.5 485,-141.5"/>
</g>
<!-- 00d3760a979ab346489628ef9f4a32ac8c9533f9&#45;&gt;ebfd7499dae526dcbaf30e1250b1f875946729f8 -->
<g id="edge1" class="edge">
<title>00d3760a979ab346489628ef9f4a32ac8c9533f9&#45;&gt;ebfd7499dae526dcbaf30e1250b1f875946729f8</title>
<path fill="none" stroke="#000000" d="M428.22,-166.58C443.57,-166.09 459.22,-165.58 474.4,-165.1"/>
<polygon fill="#000000" stroke="#000000" points="474.95,-168.58 484.84,-164.76 474.73,-161.58 474.95,-168.58"/>
<text text-anchor="middle" x="456.5" y="-169.3" font-family="Times,serif" font-size="14.00">tree</text>
</g>
<!-- 4993b2e707dafc0888cb61184f8144cec142b01e -->
<g id="node3" class="node">
<title>4993b2e707dafc0888cb61184f8144cec142b01e</title>
<polygon fill="#ceece9" stroke="transparent" points="244,0 244,-85 366,-85 366,0 244,0"/>
<text text-anchor="start" x="247" y="-71.3" font-family="monospace" font-weight="bold" font-size="14.00" fill="#808080">commit 4993b2e</text>
<text text-anchor="start" x="247" y="-51.3" font-family="monospace" font-size="14.00" fill="#808080">tree ec947e3 &#160;</text>
<text text-anchor="start" x="247" y="-36.3" font-family="monospace" font-size="14.00" fill="#808080">author [...] &#160;</text>
<text text-anchor="start" x="247" y="-21.3" font-family="monospace" font-size="14.00" fill="#808080"> &#160;&#160;&#160;&#160;&#160;&#160;&#160;&#160;&#160;&#160;&#160;&#160;&#160;</text>
<text text-anchor="start" x="247" y="-6.3" font-family="monospace" font-size="14.00" fill="#808080">initial commit</text>
<polygon fill="none" stroke="#b3b3b3" points="244,0 244,-85 366,-85 366,0 244,0"/>
</g>
<!-- 00d3760a979ab346489628ef9f4a32ac8c9533f9&#45;&gt;4993b2e707dafc0888cb61184f8144cec142b01e -->
<g id="edge2" class="edge">
<title>00d3760a979ab346489628ef9f4a32ac8c9533f9&#45;&gt;4993b2e707dafc0888cb61184f8144cec142b01e</title>
<path fill="none" stroke="#b3b3b3" d="M305,-120.07C305,-111.94 305,-103.5 305,-95.32"/>
<polygon fill="#b3b3b3" stroke="#b3b3b3" points="308.5,-95.12 305,-85.12 301.5,-95.12 308.5,-95.12"/>
<text text-anchor="middle" x="294.5" y="-99.05" font-family="Times,serif" font-size="14.00">parent</text>
</g>
<!-- af5626b4a114abcb82d63db7c8082c3c4756e51b -->
<g id="node4" class="node">
<title>af5626b4a114abcb82d63db7c8082c3c4756e51b</title>
<polygon fill="#e7e6e1" stroke="transparent" points="806,-103.5 806,-143.5 920,-143.5 920,-103.5 806,-103.5"/>
<text text-anchor="start" x="809" y="-130.3" font-family="monospace" font-weight="bold" font-size="14.00" fill="#000000">blob af5626b</text>
<text text-anchor="start" x="809" y="-110.3" font-family="monospace" font-size="14.00" fill="#000000">Hello, world!</text>
<polygon fill="none" stroke="#000000" points="806,-103.5 806,-143.5 920,-143.5 920,-103.5 806,-103.5"/>
</g>
<!-- ebfd7499dae526dcbaf30e1250b1f875946729f8&#45;&gt;af5626b4a114abcb82d63db7c8082c3c4756e51b -->
<g id="edge3" class="edge">
<title>ebfd7499dae526dcbaf30e1250b1f875946729f8&#45;&gt;af5626b4a114abcb82d63db7c8082c3c4756e51b</title>
<path fill="none" stroke="#000000" d="M690.34,-147.35C725.56,-142.46 764.09,-137.1 795.71,-132.71"/>
<polygon fill="#000000" stroke="#000000" points="796.3,-136.16 805.72,-131.32 795.33,-129.23 796.3,-136.16"/>
<text text-anchor="middle" x="748" y="-148.3" font-family="Times,serif" font-size="14.00">README.md</text>
</g>
<!-- ec947e3dd7a7752d078f1ed0cfde7457b21fef58 -->
<g id="node5" class="node">
<title>ec947e3dd7a7752d078f1ed0cfde7457b21fef58</title>
<polygon fill="#f3eee2" stroke="transparent" points="485,-74.5 485,-114.5 690,-114.5 690,-74.5 485,-74.5"/>
<text text-anchor="start" x="488.5" y="-101.3" font-family="monospace" font-weight="bold" font-size="14.00" fill="#808080">tree ec947e3</text>
<text text-anchor="start" x="488.5" y="-81.3" font-family="monospace" font-size="14.00" fill="#808080">blob hello.txt (af5626b)</text>
<polygon fill="none" stroke="#b3b3b3" points="485,-74.5 485,-114.5 690,-114.5 690,-74.5 485,-74.5"/>
</g>
<!-- 4993b2e707dafc0888cb61184f8144cec142b01e&#45;&gt;ec947e3dd7a7752d078f1ed0cfde7457b21fef58 -->
<g id="edge4" class="edge">
<title>4993b2e707dafc0888cb61184f8144cec142b01e&#45;&gt;ec947e3dd7a7752d078f1ed0cfde7457b21fef58</title>
<path fill="none" stroke="#b3b3b3" d="M366.17,-53.66C397.87,-59.53 437.77,-66.93 474.88,-73.81"/>
<polygon fill="#b3b3b3" stroke="#b3b3b3" points="474.29,-77.26 484.76,-75.64 475.56,-70.37 474.29,-77.26"/>
<text text-anchor="middle" x="456.5" y="-75.3" font-family="Times,serif" font-size="14.00">tree</text>
</g>
<!-- ec947e3dd7a7752d078f1ed0cfde7457b21fef58&#45;&gt;af5626b4a114abcb82d63db7c8082c3c4756e51b -->
<g id="edge5" class="edge">
<title>ec947e3dd7a7752d078f1ed0cfde7457b21fef58&#45;&gt;af5626b4a114abcb82d63db7c8082c3c4756e51b</title>
<path fill="none" stroke="#b3b3b3" d="M690.18,-100.8C721.61,-103.25 756.29,-106.45 788,-110.5 790.55,-110.83 793.14,-111.18 795.76,-111.55"/>
<polygon fill="#b3b3b3" stroke="#b3b3b3" points="795.51,-115.05 805.92,-113.08 796.55,-108.13 795.51,-115.05"/>
<text text-anchor="middle" x="748" y="-114.3" font-family="Times,serif" font-size="14.00">hello.txt</text>
</g>
<!-- ref:main -->
<g id="node6" class="node">
<title>ref:main</title>
<polygon fill="white" stroke="black" points="139,-188.5 91,-188.5 91,-152.5 145,-152.5 145,-182.5 139,-188.5"/>
<polyline fill="none" stroke="black" points="139,-188.5 139,-182.5 "/>
<polyline fill="none" stroke="black" points="145,-182.5 139,-182.5 "/>
<text text-anchor="middle" x="118" y="-166.8" font-family="monospace" font-size="14.00">main</text>
</g>
<!-- ref:main&#45;&gt;00d3760a979ab346489628ef9f4a32ac8c9533f9 -->
<g id="edge6" class="edge">
<title>ref:main&#45;&gt;00d3760a979ab346489628ef9f4a32ac8c9533f9</title>
<path fill="none" stroke="black" d="M145.11,-170.5C152.88,-170.5 161.97,-170.5 171.8,-170.5"/>
<polygon fill="black" stroke="black" points="171.85,-174 181.85,-170.5 171.85,-167 171.85,-174"/>
</g>
<!-- ref:HEAD -->
<g id="node7" class="node">
<title>ref:HEAD</title>
<polygon fill="#fce94f" stroke="black" points="48,-188.5 0,-188.5 0,-152.5 54,-152.5 54,-182.5 48,-188.5"/>
<polyline fill="none" stroke="black" points="48,-188.5 48,-182.5 "/>
<polyline fill="none" stroke="black" points="54,-182.5 48,-182.5 "/>
<text text-anchor="middle" x="27" y="-166.8" font-family="monospace" font-size="14.00">HEAD</text>
</g>
<!-- ref:HEAD&#45;&gt;ref:main -->
<g id="edge7" class="edge">
<title>ref:HEAD&#45;&gt;ref:main</title>
<path fill="none" stroke="black" d="M54.22,-170.5C62.55,-170.5 71.91,-170.5 80.82,-170.5"/>
<polygon fill="black" stroke="black" points="80.97,-174 90.97,-170.5 80.97,-167 80.97,-174"/>
</g>
</g>
</svg>
