<?xml version="1.0" encoding="UTF-8" standalone="no"?>
<!DOCTYPE svg PUBLIC "-//W3C//DTD SVG 1.1//EN"
 "http://www.w3.org/Graphics/SVG/1.1/DTD/svg11.dtd">
<!-- Generated by graphviz version 2.42.4 (0)
 -->
<!-- Title: git_objects Pages: 1 -->
<svg width="1088pt" height="552pt"
 viewBox="0.00 0.00 1088.00 551.50" xmlns="http://www.w3.org/2000/svg" xmlns:xlink="http://www.w3.org/1999/xlink">
<g id="graph0" class="graph" transform="scale(1 1) rotate(0) translate(4 547.5)">
<title>git_objects</title>
<polygon fill="white" stroke="transparent" points="-4,4 -4,-547.5 1084,-547.5 1084,4 -4,4"/>
<!-- d6a53df8fa0be456f454f003d0f5124ac3b26728 -->
<g id="node1" class="node">
<title>d6a53df8fa0be456f454f003d0f5124ac3b26728</title>
<polygon fill="#5bc0b5" stroke="transparent" points="264,-392.5 264,-492.5 386,-492.5 386,-392.5 264,-392.5"/>
<text text-anchor="start" x="267" y="-479.3" font-family="monospace" font-weight="bold" font-size="14.00" fill="#000000">commit d6a53df</text>
<text text-anchor="start" x="267" y="-459.3" font-family="monospace" font-size="14.00" fill="#000000">tree 185925e &#160;</text>
<text text-anchor="start" x="267" y="-444.3" font-family="monospace" font-size="14.00" fill="#000000">parent f2f26f4</text>
<text text-anchor="start" x="267" y="-429.3" font-family="monospace" font-size="14.00" fill="#000000">author [...] &#160;</text>
<text text-anchor="start" x="267" y="-414.3" font-family="monospace" font-size="14.00" fill="#000000"> &#160;&#160;&#160;&#160;&#160;&#160;&#160;&#160;&#160;&#160;&#160;&#160;&#160;</text>
<text text-anchor="start" x="267" y="-399.3" font-family="monospace" font-size="14.00" fill="#000000">add hello.c &#160;&#160;</text>
<polygon fill="none" stroke="#000000" points="264,-392.5 264,-492.5 386,-492.5 386,-392.5 264,-392.5"/>
</g>
<!-- 185925ef4192b996276486fde75fee6a8b5f2b01 -->
<g id="node2" class="node">
<title>185925ef4192b996276486fde75fee6a8b5f2b01</title>
<polygon fill="#d8c59f" stroke="transparent" points="505,-404.5 505,-474.5 718,-474.5 718,-404.5 505,-404.5"/>
<text text-anchor="start" x="508.5" y="-461.3" font-family="monospace" font-weight="bold" font-size="14.00" fill="#000000">tree 185925e</text>
<text text-anchor="start" x="508.5" y="-441.3" font-family="monospace" font-size="14.00" fill="#000000">blob .gitignore (ce01362)</text>
<text text-anchor="start" x="508.5" y="-426.3" font-family="monospace" font-size="14.00" fill="#000000">blob README.md (1bce388) </text>
<text text-anchor="start" x="508.5" y="-411.3" font-family="monospace" font-size="14.00" fill="#000000">blob hello.c (3e6f6d6) &#160;&#160;</text>
<polygon fill="none" stroke="#000000" points="505,-404.5 505,-474.5 718,-474.5 718,-404.5 505,-404.5"/>
</g>
<!-- d6a53df8fa0be456f454f003d0f5124ac3b26728&#45;&gt;185925ef4192b996276486fde75fee6a8b5f2b01 -->
<g id="edge1" class="edge">
<title>d6a53df8fa0be456f454f003d0f5124ac3b26728&#45;&gt;185925ef4192b996276486fde75fee6a8b5f2b01</title>
<path fill="none" stroke="#000000" d="M386.34,-441.86C417.79,-441.53 457.36,-441.11 494.46,-440.72"/>
<polygon fill="#000000" stroke="#000000" points="494.89,-444.22 504.85,-440.61 494.82,-437.22 494.89,-444.22"/>
<text text-anchor="middle" x="476.5" y="-444.3" font-family="Times,serif" font-size="14.00">tree</text>
</g>
<!-- f2f26f42ae9488629e7d657000275c2d2f42cecf -->
<g id="node3" class="node">
<title>f2f26f42ae9488629e7d657000275c2d2f42cecf</title>
<polygon fill="#ceece9" stroke="transparent" points="255.5,-256.5 255.5,-356.5 394.5,-356.5 394.5,-256.5 255.5,-256.5"/>
<text text-anchor="start" x="259" y="-343.3" font-family="monospace" font-weight="bold" font-size="14.00" fill="#808080">commit f2f26f4</text>
<text text-anchor="start" x="259" y="-323.3" font-family="monospace" font-size="14.00" fill="#808080">tree 130f7a9 &#160;&#160;&#160;</text>
<text text-anchor="start" x="259" y="-308.3" font-family="monospace" font-size="14.00" fill="#808080">parent 00d3760 &#160;</text>
<text text-anchor="start" x="259" y="-293.3" font-family="monospace" font-size="14.00" fill="#808080">author [...] &#160;&#160;&#160;</text>
<text text-anchor="start" x="259" y="-278.3" font-family="monospace" font-size="14.00" fill="#808080"> &#160;&#160;&#160;&#160;&#160;&#160;&#160;&#160;&#160;&#160;&#160;&#160;&#160;&#160;&#160;</text>
<text text-anchor="start" x="259" y="-263.3" font-family="monospace" font-size="14.00" fill="#808080">update README.md</text>
<polygon fill="none" stroke="#b3b3b3" points="255.5,-256.5 255.5,-356.5 394.5,-356.5 394.5,-256.5 255.5,-256.5"/>
</g>
<!-- d6a53df8fa0be456f454f003d0f5124ac3b26728&#45;&gt;f2f26f42ae9488629e7d657000275c2d2f42cecf -->
<g id="edge2" class="edge">
<title>d6a53df8fa0be456f454f003d0f5124ac3b26728&#45;&gt;f2f26f42ae9488629e7d657000275c2d2f42cecf</title>
<path fill="none" stroke="#b3b3b3" d="M325,-392.45C325,-384.17 325,-375.51 325,-367.01"/>
<polygon fill="#b3b3b3" stroke="#b3b3b3" points="328.5,-366.75 325,-356.75 321.5,-366.76 328.5,-366.75"/>
<text text-anchor="middle" x="314.5" y="-370.8" font-family="Times,serif" font-size="14.00">parent</text>
</g>
<!-- ce013625030ba8dba906f756967f9e9ca394464a -->
<g id="node4" class="node">
<title>ce013625030ba8dba906f756967f9e9ca394464a</title>
<polygon fill="#e7e6e1" stroke="transparent" points="904,-503.5 904,-543.5 1010,-543.5 1010,-503.5 904,-503.5"/>
<text text-anchor="start" x="907" y="-530.3" font-family="monospace" font-weight="bold" font-size="14.00" fill="#000000">blob ce01362</text>
<text text-anchor="start" x="907" y="-510.3" font-family="monospace" font-size="14.00" fill="#000000">hello</text>
<polygon fill="none" stroke="#000000" points="904,-503.5 904,-543.5 1010,-543.5 1010,-503.5 904,-503.5"/>
</g>
<!-- 185925ef4192b996276486fde75fee6a8b5f2b01&#45;&gt;ce013625030ba8dba906f756967f9e9ca394464a -->
<g id="edge3" class="edge">
<title>185925ef4192b996276486fde75fee6a8b5f2b01&#45;&gt;ce013625030ba8dba906f756967f9e9ca394464a</title>
<path fill="none" stroke="#000000" d="M718.07,-465.94C754.75,-475.07 796.17,-485.31 834,-494.5 853.46,-499.23 874.68,-504.3 893.89,-508.86"/>
<polygon fill="#000000" stroke="#000000" points="893.19,-512.29 903.73,-511.2 894.81,-505.48 893.19,-512.29"/>
<text text-anchor="middle" x="776" y="-492.3" font-family="Times,serif" font-size="14.00">.gitignore</text>
</g>
<!-- 1bce3880336548b24d6aadcc51e3d41359c5908d -->
<g id="node5" class="node">
<title>1bce3880336548b24d6aadcc51e3d41359c5908d</title>
<polygon fill="#e7e6e1" stroke="transparent" points="892,-275.5 892,-345.5 1022,-345.5 1022,-275.5 892,-275.5"/>
<text text-anchor="start" x="895" y="-332.3" font-family="monospace" font-weight="bold" font-size="14.00" fill="#000000">blob 1bce388</text>
<text text-anchor="start" x="895" y="-312.3" font-family="monospace" font-size="14.00" fill="#000000">Hello, planet! </text>
<text text-anchor="start" x="895" y="-297.3" font-family="monospace" font-size="14.00" fill="#000000"> &#160;&#160;&#160;&#160;&#160;&#160;&#160;&#160;&#160;&#160;&#160;&#160;&#160;&#160;</text>
<text text-anchor="start" x="895" y="-282.3" font-family="monospace" font-size="14.00" fill="#000000">Git is awesome!</text>
<polygon fill="none" stroke="#000000" points="892,-275.5 892,-345.5 1022,-345.5 1022,-275.5 892,-275.5"/>
</g>
<!-- 185925ef4192b996276486fde75fee6a8b5f2b01&#45;&gt;1bce3880336548b24d6aadcc51e3d41359c5908d -->
<g id="edge4" class="edge">
<title>185925ef4192b996276486fde75fee6a8b5f2b01&#45;&gt;1bce3880336548b24d6aadcc51e3d41359c5908d</title>
<path fill="none" stroke="#000000" d="M705.91,-404.42C761.46,-383.56 830.92,-357.47 882.53,-338.09"/>
<polygon fill="#000000" stroke="#000000" points="883.82,-341.35 891.95,-334.55 881.36,-334.79 883.82,-341.35"/>
<text text-anchor="middle" x="776" y="-394.3" font-family="Times,serif" font-size="14.00">README.md</text>
</g>
<!-- 3e6f6d6801697f115ff5c67f8c7c57731cf77f79 -->
<g id="node6" class="node">
<title>3e6f6d6801697f115ff5c67f8c7c57731cf77f79</title>
<polygon fill="#e7e6e1" stroke="transparent" points="834,-370 834,-485 1080,-485 1080,-370 834,-370"/>
<text text-anchor="start" x="837" y="-471.3" font-family="monospace" font-weight="bold" font-size="14.00" fill="#000000">blob 3e6f6d6</text>
<text text-anchor="start" x="837" y="-451.3" font-family="monospace" font-size="14.00" fill="#000000">#include &lt;stdio.h&gt; &#160;&#160;&#160;&#160;&#160;&#160;&#160;&#160;&#160;&#160;</text>
<text text-anchor="start" x="837" y="-436.3" font-family="monospace" font-size="14.00" fill="#000000"> &#160;&#160;&#160;&#160;&#160;&#160;&#160;&#160;&#160;&#160;&#160;&#160;&#160;&#160;&#160;&#160;&#160;&#160;&#160;&#160;&#160;&#160;&#160;&#160;&#160;&#160;&#160;&#160;</text>
<text text-anchor="start" x="837" y="-421.3" font-family="monospace" font-size="14.00" fill="#000000">int main() { &#160;&#160;&#160;&#160;&#160;&#160;&#160;&#160;&#160;&#160;&#160;&#160;&#160;&#160;&#160;&#160;</text>
<text text-anchor="start" x="837" y="-406.3" font-family="monospace" font-size="14.00" fill="#000000"> &#160;&#160;printf(&quot;Hello, world!\n&quot;);</text>
<text text-anchor="start" x="837" y="-391.3" font-family="monospace" font-size="14.00" fill="#000000"> &#160;&#160;return 0; &#160;&#160;&#160;&#160;&#160;&#160;&#160;&#160;&#160;&#160;&#160;&#160;&#160;&#160;&#160;&#160;</text>
<text text-anchor="start" x="837" y="-376.3" font-family="monospace" font-size="14.00" fill="#000000">} &#160;&#160;&#160;&#160;&#160;&#160;&#160;&#160;&#160;&#160;&#160;&#160;&#160;&#160;&#160;&#160;&#160;&#160;&#160;&#160;&#160;&#160;&#160;&#160;&#160;&#160;&#160;</text>
<polygon fill="none" stroke="#000000" points="834,-370 834,-485 1080,-485 1080,-370 834,-370"/>
</g>
<!-- 185925ef4192b996276486fde75fee6a8b5f2b01&#45;&gt;3e6f6d6801697f115ff5c67f8c7c57731cf77f79 -->
<g id="edge5" class="edge">
<title>185925ef4192b996276486fde75fee6a8b5f2b01&#45;&gt;3e6f6d6801697f115ff5c67f8c7c57731cf77f79</title>
<path fill="none" stroke="#000000" d="M718.36,-435.8C751.65,-434.64 788.82,-433.34 823.7,-432.12"/>
<polygon fill="#000000" stroke="#000000" points="824.08,-435.61 833.95,-431.76 823.84,-428.62 824.08,-435.61"/>
<text text-anchor="middle" x="776" y="-438.3" font-family="Times,serif" font-size="14.00">hello.c</text>
</g>
<!-- 130f7a90b97d88faa2f1ddf794ef7dace1c0c450 -->
<g id="node7" class="node">
<title>130f7a90b97d88faa2f1ddf794ef7dace1c0c450</title>
<polygon fill="#f3eee2" stroke="transparent" points="509,-289.5 509,-329.5 714,-329.5 714,-289.5 509,-289.5"/>
<text text-anchor="start" x="512.5" y="-316.3" font-family="monospace" font-weight="bold" font-size="14.00" fill="#808080">tree 130f7a9</text>
<text text-anchor="start" x="512.5" y="-296.3" font-family="monospace" font-size="14.00" fill="#808080">blob README.md (1bce388)</text>
<polygon fill="none" stroke="#b3b3b3" points="509,-289.5 509,-329.5 714,-329.5 714,-289.5 509,-289.5"/>
</g>
<!-- f2f26f42ae9488629e7d657000275c2d2f42cecf&#45;&gt;130f7a90b97d88faa2f1ddf794ef7dace1c0c450 -->
<g id="edge6" class="edge">
<title>f2f26f42ae9488629e7d657000275c2d2f42cecf&#45;&gt;130f7a90b97d88faa2f1ddf794ef7dace1c0c450</title>
<path fill="none" stroke="#b3b3b3" d="M394.51,-307.22C425.71,-307.55 463.45,-307.95 498.6,-308.32"/>
<polygon fill="#b3b3b3" stroke="#b3b3b3" points="498.89,-311.82 508.93,-308.43 498.97,-304.82 498.89,-311.82"/>
<text text-anchor="middle" x="476.5" y="-312.3" font-family="Times,serif" font-size="14.00">tree</text>
</g>
<!-- 00d3760a979ab346489628ef9f4a32ac8c9533f9 -->
<g id="node8" class="node">
<title>00d3760a979ab346489628ef9f4a32ac8c9533f9</title>
<polygon fill="#ceece9" stroke="transparent" points="202,-120.5 202,-220.5 448,-220.5 448,-120.5 202,-120.5"/>
<text text-anchor="start" x="205" y="-207.3" font-family="monospace" font-weight="bold" font-size="14.00" fill="#808080">commit 00d3760</text>
<text text-anchor="start" x="205" y="-187.3" font-family="monospace" font-size="14.00" fill="#808080">tree ebfd749 &#160;&#160;&#160;&#160;&#160;&#160;&#160;&#160;&#160;&#160;&#160;&#160;&#160;&#160;&#160;&#160;</text>
<text text-anchor="start" x="205" y="-172.3" font-family="monospace" font-size="14.00" fill="#808080">parent 4993b2e &#160;&#160;&#160;&#160;&#160;&#160;&#160;&#160;&#160;&#160;&#160;&#160;&#160;&#160;</text>
<text text-anchor="start" x="205" y="-157.3" font-family="monospace" font-size="14.00" fill="#808080">author [...] &#160;&#160;&#160;&#160;&#160;&#160;&#160;&#160;&#160;&#160;&#160;&#160;&#160;&#160;&#160;&#160;</text>
<text text-anchor="start" x="205" y="-142.3" font-family="monospace" font-size="14.00" fill="#808080"> &#160;&#160;&#160;&#160;&#160;&#160;&#160;&#160;&#160;&#160;&#160;&#160;&#160;&#160;&#160;&#160;&#160;&#160;&#160;&#160;&#160;&#160;&#160;&#160;&#160;&#160;&#160;&#160;</text>
<text text-anchor="start" x="205" y="-127.3" font-family="monospace" font-size="14.00" fill="#808080">rename hello.txt to README.md</text>
<polygon fill="none" stroke="#b3b3b3" points="202,-120.5 202,-220.5 448,-220.5 448,-120.5 202,-120.5"/>
</g>
<!-- f2f26f42ae9488629e7d657000275c2d2f42cecf&#45;&gt;00d3760a979ab346489628ef9f4a32ac8c9533f9 -->
<g id="edge7" class="edge">
<title>f2f26f42ae9488629e7d657000275c2d2f42cecf&#45;&gt;00d3760a979ab346489628ef9f4a32ac8c9533f9</title>
<path fill="none" stroke="#b3b3b3" d="M325,-256.45C325,-248.17 325,-239.51 325,-231.01"/>
<polygon fill="#b3b3b3" stroke="#b3b3b3" points="328.5,-230.75 325,-220.75 321.5,-230.76 328.5,-230.75"/>
<text text-anchor="middle" x="314.5" y="-234.8" font-family="Times,serif" font-size="14.00">parent</text>
</g>
<!-- 130f7a90b97d88faa2f1ddf794ef7dace1c0c450&#45;&gt;1bce3880336548b24d6aadcc51e3d41359c5908d -->
<g id="edge8" class="edge">
<title>130f7a90b97d88faa2f1ddf794ef7dace1c0c450&#45;&gt;1bce3880336548b24d6aadcc51e3d41359c5908d</title>
<path fill="none" stroke="#b3b3b3" d="M714.17,-309.8C767.91,-309.95 832.71,-310.14 881.7,-310.28"/>
<polygon fill="#b3b3b3" stroke="#b3b3b3" points="881.89,-313.78 891.9,-310.31 881.91,-306.78 881.89,-313.78"/>
<text text-anchor="middle" x="776" y="-314.3" font-family="Times,serif" font-size="14.00">README.md</text>
</g>
<!-- ebfd7499dae526dcbaf30e1250b1f875946729f8 -->
<g id="node9" class="node">
<title>ebfd7499dae526dcbaf30e1250b1f875946729f8</title>
<polygon fill="#f3eee2" stroke="transparent" points="509,-111.5 509,-151.5 714,-151.5 714,-111.5 509,-111.5"/>
<text text-anchor="start" x="512.5" y="-138.3" font-family="monospace" font-weight="bold" font-size="14.00" fill="#808080">tree ebfd749</text>
<text text-anchor="start" x="512.5" y="-118.3" font-family="monospace" font-size="14.00" fill="#808080">blob README.md (af5626b)</text>
<polygon fill="none" stroke="#b3b3b3" points="509,-111.5 509,-151.5 714,-151.5 714,-111.5 509,-111.5"/>
</g>
<!-- 00d3760a979ab346489628ef9f4a32ac8c9533f9&#45;&gt;ebfd7499dae526dcbaf30e1250b1f875946729f8 -->
<g id="edge9" class="edge">
<title>00d3760a979ab346489628ef9f4a32ac8c9533f9&#45;&gt;ebfd7499dae526dcbaf30e1250b1f875946729f8</title>
<path fill="none" stroke="#b3b3b3" d="M448.3,-153.73C465.02,-151.44 482.1,-149.1 498.62,-146.84"/>
<polygon fill="#b3b3b3" stroke="#b3b3b3" points="499.39,-150.26 508.82,-145.44 498.44,-143.33 499.39,-150.26"/>
<text text-anchor="middle" x="476.5" y="-155.3" font-family="Times,serif" font-size="14.00">tree</text>
</g>
<!-- 4993b2e707dafc0888cb61184f8144cec142b01e -->
<g id="node10" class="node">
<title>4993b2e707dafc0888cb61184f8144cec142b01e</title>
<polygon fill="#ceece9" stroke="transparent" points="264,0 264,-85 386,-85 386,0 264,0"/>
<text text-anchor="start" x="267" y="-71.3" font-family="monospace" font-weight="bold" font-size="14.00" fill="#808080">commit 4993b2e</text>
<text text-anchor="start" x="267" y="-51.3" font-family="monospace" font-size="14.00" fill="#808080">tree ec947e3 &#160;</text>
<text text-anchor="start" x="267" y="-36.3" font-family="monospace" font-size="14.00" fill="#808080">author [...] &#160;</text>
<text text-anchor="start" x="267" y="-21.3" font-family="monospace" font-size="14.00" fill="#808080"> &#160;&#160;&#160;&#160;&#160;&#160;&#160;&#160;&#160;&#160;&#160;&#160;&#160;</text>
<text text-anchor="start" x="267" y="-6.3" font-family="monospace" font-size="14.00" fill="#808080">initial commit</text>
<polygon fill="none" stroke="#b3b3b3" points="264,0 264,-85 386,-85 386,0 264,0"/>
</g>
<!-- 00d3760a979ab346489628ef9f4a32ac8c9533f9&#45;&gt;4993b2e707dafc0888cb61184f8144cec142b01e -->
<g id="edge10" class="edge">
<title>00d3760a979ab346489628ef9f4a32ac8c9533f9&#45;&gt;4993b2e707dafc0888cb61184f8144cec142b01e</title>
<path fill="none" stroke="#b3b3b3" d="M325,-120.07C325,-111.94 325,-103.5 325,-95.32"/>
<polygon fill="#b3b3b3" stroke="#b3b3b3" points="328.5,-95.12 325,-85.12 321.5,-95.12 328.5,-95.12"/>
<text text-anchor="middle" x="314.5" y="-99.05" font-family="Times,serif" font-size="14.00">parent</text>
</g>
<!-- af5626b4a114abcb82d63db7c8082c3c4756e51b -->
<g id="node11" class="node">
<title>af5626b4a114abcb82d63db7c8082c3c4756e51b</title>
<polygon fill="#f8f8f6" stroke="transparent" points="900,-82.5 900,-122.5 1014,-122.5 1014,-82.5 900,-82.5"/>
<text text-anchor="start" x="903" y="-109.3" font-family="monospace" font-weight="bold" font-size="14.00" fill="#808080">blob af5626b</text>
<text text-anchor="start" x="903" y="-89.3" font-family="monospace" font-size="14.00" fill="#808080">Hello, world!</text>
<polygon fill="none" stroke="#b3b3b3" points="900,-82.5 900,-122.5 1014,-122.5 1014,-82.5 900,-82.5"/>
</g>
<!-- ebfd7499dae526dcbaf30e1250b1f875946729f8&#45;&gt;af5626b4a114abcb82d63db7c8082c3c4756e51b -->
<g id="edge11" class="edge">
<title>ebfd7499dae526dcbaf30e1250b1f875946729f8&#45;&gt;af5626b4a114abcb82d63db7c8082c3c4756e51b</title>
<path fill="none" stroke="#b3b3b3" d="M714.17,-122.92C770.99,-118.12 840.16,-112.28 889.94,-108.08"/>
<polygon fill="#b3b3b3" stroke="#b3b3b3" points="890.28,-111.56 899.95,-107.23 889.69,-104.59 890.28,-111.56"/>
<text text-anchor="middle" x="776" y="-124.3" font-family="Times,serif" font-size="14.00">README.md</text>
</g>
<!-- ec947e3dd7a7752d078f1ed0cfde7457b21fef58 -->
<g id="node12" class="node">
<title>ec947e3dd7a7752d078f1ed0cfde7457b21fef58</title>
<polygon fill="#f3eee2" stroke="transparent" points="509,-44.5 509,-84.5 714,-84.5 714,-44.5 509,-44.5"/>
<text text-anchor="start" x="512.5" y="-71.3" font-family="monospace" font-weight="bold" font-size="14.00" fill="#808080">tree ec947e3</text>
<text text-anchor="start" x="512.5" y="-51.3" font-family="monospace" font-size="14.00" fill="#808080">blob hello.txt (af5626b)</text>
<polygon fill="none" stroke="#b3b3b3" points="509,-44.5 509,-84.5 714,-84.5 714,-44.5 509,-44.5"/>
</g>
<!-- 4993b2e707dafc0888cb61184f8144cec142b01e&#45;&gt;ec947e3dd7a7752d078f1ed0cfde7457b21fef58 -->
<g id="edge12" class="edge">
<title>4993b2e707dafc0888cb61184f8144cec142b01e&#45;&gt;ec947e3dd7a7752d078f1ed0cfde7457b21fef58</title>
<path fill="none" stroke="#b3b3b3" d="M386.34,-47.17C418.98,-49.69 460.35,-52.89 498.64,-55.85"/>
<polygon fill="#b3b3b3" stroke="#b3b3b3" points="498.58,-59.36 508.82,-56.64 499.12,-52.38 498.58,-59.36"/>
<text text-anchor="middle" x="476.5" y="-59.3" font-family="Times,serif" font-size="14.00">tree</text>
</g>
<!-- ec947e3dd7a7752d078f1ed0cfde7457b21fef58&#45;&gt;af5626b4a114abcb82d63db7c8082c3c4756e51b -->
<g id="edge13" class="edge">
<title>ec947e3dd7a7752d078f1ed0cfde7457b21fef58&#45;&gt;af5626b4a114abcb82d63db7c8082c3c4756e51b</title>
<path fill="none" stroke="#b3b3b3" d="M714.17,-75.75C770.99,-82.03 840.16,-89.68 889.94,-95.19"/>
<polygon fill="#b3b3b3" stroke="#b3b3b3" points="889.62,-98.68 899.95,-96.3 890.39,-91.72 889.62,-98.68"/>
<text text-anchor="middle" x="776" y="-91.3" font-family="Times,serif" font-size="14.00">hello.txt</text>
</g>
<!-- ref:feature -->
<g id="node13" class="node">
<title>ref:feature</title>
<polygon fill="white" stroke="black" points="159,-460.5 91,-460.5 91,-424.5 165,-424.5 165,-454.5 159,-460.5"/>
<polyline fill="none" stroke="black" points="159,-460.5 159,-454.5 "/>
<polyline fill="none" stroke="black" points="165,-454.5 159,-454.5 "/>
<text text-anchor="middle" x="128" y="-438.8" font-family="monospace" font-size="14.00">feature</text>
</g>
<!-- ref:feature&#45;&gt;d6a53df8fa0be456f454f003d0f5124ac3b26728 -->
<g id="edge14" class="edge">
<title>ref:feature&#45;&gt;d6a53df8fa0be456f454f003d0f5124ac3b26728</title>
<path fill="none" stroke="black" d="M165.22,-442.5C190.06,-442.5 223.82,-442.5 253.82,-442.5"/>
<polygon fill="black" stroke="black" points="253.84,-446 263.84,-442.5 253.84,-439 253.84,-446"/>
</g>
<!-- ref:main -->
<g id="node14" class="node">
<title>ref:main</title>
<polygon fill="white" stroke="black" points="149,-324.5 101,-324.5 101,-288.5 155,-288.5 155,-318.5 149,-324.5"/>
<polyline fill="none" stroke="black" points="149,-324.5 149,-318.5 "/>
<polyline fill="none" stroke="black" points="155,-318.5 149,-318.5 "/>
<text text-anchor="middle" x="128" y="-302.8" font-family="monospace" font-size="14.00">main</text>
</g>
<!-- ref:main&#45;&gt;f2f26f42ae9488629e7d657000275c2d2f42cecf -->
<g id="edge15" class="edge">
<title>ref:main&#45;&gt;f2f26f42ae9488629e7d657000275c2d2f42cecf</title>
<path fill="none" stroke="black" d="M155.3,-306.5C178.37,-306.5 213.15,-306.5 245.15,-306.5"/>
<polygon fill="black" stroke="black" points="245.42,-310 255.42,-306.5 245.42,-303 245.42,-310"/>
</g>
<!-- ref:HEAD -->
<g id="node15" class="node">
<title>ref:HEAD</title>
<polygon fill="#fce94f" stroke="black" points="48,-460.5 0,-460.5 0,-424.5 54,-424.5 54,-454.5 48,-460.5"/>
<polyline fill="none" stroke="black" points="48,-460.5 48,-454.5 "/>
<polyline fill="none" stroke="black" points="54,-454.5 48,-454.5 "/>
<text text-anchor="middle" x="27" y="-438.8" font-family="monospace" font-size="14.00">HEAD</text>
</g>
<!-- ref:HEAD&#45;&gt;ref:feature -->
<g id="edge16" class="edge">
<title>ref:HEAD&#45;&gt;ref:feature</title>
<path fill="none" stroke="black" d="M54.01,-442.5C62.17,-442.5 71.44,-442.5 80.56,-442.5"/>
<polygon fill="black" stroke="black" points="80.74,-446 90.74,-442.5 80.74,-439 80.74,-446"/>
</g>
</g>
</svg>
