<?xml version="1.0" encoding="UTF-8" standalone="no"?>
<!DOCTYPE svg PUBLIC "-//W3C//DTD SVG 1.1//EN"
 "http://www.w3.org/Graphics/SVG/1.1/DTD/svg11.dtd">
<!-- Generated by graphviz version 2.42.4 (0)
 -->
<!-- Title: git_objects Pages: 1 -->
<svg width="853pt" height="365pt"
 viewBox="0.00 0.00 853.00 364.50" xmlns="http://www.w3.org/2000/svg" xmlns:xlink="http://www.w3.org/1999/xlink">
<g id="graph0" class="graph" transform="scale(1 1) rotate(0) translate(4 360.5)">
<title>git_objects</title>
<polygon fill="white" stroke="transparent" points="-4,4 -4,-360.5 849,-360.5 849,4 -4,4"/>
<!-- 8f038d70a4e1b2008ff1e29146486d0be165ab87 -->
<g id="node1" class="node">
<title>8f038d70a4e1b2008ff1e29146486d0be165ab87</title>
<polygon fill="#5bc0b5" stroke="transparent" points="153,0 153,-85 275,-85 275,0 153,0"/>
<text text-anchor="start" x="156" y="-71.3" font-family="monospace" font-weight="bold" font-size="14.00" fill="#000000">commit 8f038d7</text>
<text text-anchor="start" x="156" y="-51.3" font-family="monospace" font-size="14.00" fill="#000000">tree ec947e3 &#160;</text>
<text text-anchor="start" x="156" y="-36.3" font-family="monospace" font-size="14.00" fill="#000000">author [...] &#160;</text>
<text text-anchor="start" x="156" y="-21.3" font-family="monospace" font-size="14.00" fill="#000000"> &#160;&#160;&#160;&#160;&#160;&#160;&#160;&#160;&#160;&#160;&#160;&#160;&#160;</text>
<text text-anchor="start" x="156" y="-6.3" font-family="monospace" font-size="14.00" fill="#000000">initial commit</text>
<polygon fill="none" stroke="#000000" points="153,0 153,-85 275,-85 275,0 153,0"/>
</g>
<!-- ec947e3dd7a7752d078f1ed0cfde7457b21fef58 -->
<g id="node2" class="node">
<title>ec947e3dd7a7752d078f1ed0cfde7457b21fef58</title>
<polygon fill="#d8c59f" stroke="transparent" points="394,-44.5 394,-84.5 599,-84.5 599,-44.5 394,-44.5"/>
<text text-anchor="start" x="397.5" y="-71.3" font-family="monospace" font-weight="bold" font-size="14.00" fill="#000000">tree ec947e3</text>
<text text-anchor="start" x="397.5" y="-51.3" font-family="monospace" font-size="14.00" fill="#000000">blob hello.txt (af5626b)</text>
<polygon fill="none" stroke="#000000" points="394,-44.5 394,-84.5 599,-84.5 599,-44.5 394,-44.5"/>
</g>
<!-- 8f038d70a4e1b2008ff1e29146486d0be165ab87&#45;&gt;ec947e3dd7a7752d078f1ed0cfde7457b21fef58 -->
<g id="edge1" class="edge">
<title>8f038d70a4e1b2008ff1e29146486d0be165ab87&#45;&gt;ec947e3dd7a7752d078f1ed0cfde7457b21fef58</title>
<path fill="none" stroke="#000000" d="M275.17,-47.22C306.74,-49.7 346.44,-52.81 383.41,-55.71"/>
<polygon fill="#000000" stroke="#000000" points="383.52,-59.23 393.76,-56.52 384.06,-52.25 383.52,-59.23"/>
<text text-anchor="middle" x="365.5" y="-59.3" font-family="Times,serif" font-size="14.00">tree</text>
</g>
<!-- af5626b4a114abcb82d63db7c8082c3c4756e51b -->
<g id="node3" class="node">
<title>af5626b4a114abcb82d63db7c8082c3c4756e51b</title>
<polygon fill="#e7e6e1" stroke="transparent" points="723,-80.5 723,-120.5 837,-120.5 837,-80.5 723,-80.5"/>
<text text-anchor="start" x="726" y="-107.3" font-family="monospace" font-weight="bold" font-size="14.00" fill="#000000">blob af5626b</text>
<text text-anchor="start" x="726" y="-87.3" font-family="monospace" font-size="14.00" fill="#000000">Hello, world!</text>
<polygon fill="none" stroke="#000000" points="723,-80.5 723,-120.5 837,-120.5 837,-80.5 723,-80.5"/>
</g>
<!-- ec947e3dd7a7752d078f1ed0cfde7457b21fef58&#45;&gt;af5626b4a114abcb82d63db7c8082c3c4756e51b -->
<g id="edge2" class="edge">
<title>ec947e3dd7a7752d078f1ed0cfde7457b21fef58&#45;&gt;af5626b4a114abcb82d63db7c8082c3c4756e51b</title>
<path fill="none" stroke="#000000" d="M599.13,-77.5C636.95,-82.33 678.86,-87.69 712.71,-92.02"/>
<polygon fill="#000000" stroke="#000000" points="712.58,-95.53 722.94,-93.33 713.47,-88.59 712.58,-95.53"/>
<text text-anchor="middle" x="657" y="-93.3" font-family="Times,serif" font-size="14.00">hello.txt</text>
</g>
<!-- 9920811a943b777209551d26953e2eb7a13a45ad -->
<g id="node4" class="node">
<title>9920811a943b777209551d26953e2eb7a13a45ad</title>
<polygon fill="#ceece9" stroke="transparent" points="140.5,-256.5 140.5,-356.5 287.5,-356.5 287.5,-256.5 140.5,-256.5"/>
<text text-anchor="start" x="144" y="-343.3" font-family="monospace" font-weight="bold" font-size="14.00" fill="#808080">commit 9920811</text>
<text text-anchor="start" x="144" y="-323.3" font-family="monospace" font-size="14.00" fill="#808080">tree 130f7a9 &#160;&#160;&#160;&#160;</text>
<text text-anchor="start" x="144" y="-308.3" font-family="monospace" font-size="14.00" fill="#808080">parent c3b3705 &#160;&#160;</text>
<text text-anchor="start" x="144" y="-293.3" font-family="monospace" font-size="14.00" fill="#808080">author [...] &#160;&#160;&#160;&#160;</text>
<text text-anchor="start" x="144" y="-278.3" font-family="monospace" font-size="14.00" fill="#808080"> &#160;&#160;&#160;&#160;&#160;&#160;&#160;&#160;&#160;&#160;&#160;&#160;&#160;&#160;&#160;&#160;</text>
<text text-anchor="start" x="144" y="-263.3" font-family="monospace" font-size="14.00" fill="#808080">updated README.md</text>
<polygon fill="none" stroke="#b3b3b3" points="140.5,-256.5 140.5,-356.5 287.5,-356.5 287.5,-256.5 140.5,-256.5"/>
</g>
<!-- 130f7a90b97d88faa2f1ddf794ef7dace1c0c450 -->
<g id="node5" class="node">
<title>130f7a90b97d88faa2f1ddf794ef7dace1c0c450</title>
<polygon fill="#f3eee2" stroke="transparent" points="394,-286.5 394,-326.5 599,-326.5 599,-286.5 394,-286.5"/>
<text text-anchor="start" x="397.5" y="-313.3" font-family="monospace" font-weight="bold" font-size="14.00" fill="#808080">tree 130f7a9</text>
<text text-anchor="start" x="397.5" y="-293.3" font-family="monospace" font-size="14.00" fill="#808080">blob README.md (1bce388)</text>
<polygon fill="none" stroke="#b3b3b3" points="394,-286.5 394,-326.5 599,-326.5 599,-286.5 394,-286.5"/>
</g>
<!-- 9920811a943b777209551d26953e2eb7a13a45ad&#45;&gt;130f7a90b97d88faa2f1ddf794ef7dace1c0c450 -->
<g id="edge3" class="edge">
<title>9920811a943b777209551d26953e2eb7a13a45ad&#45;&gt;130f7a90b97d88faa2f1ddf794ef7dace1c0c450</title>
<path fill="none" stroke="#b3b3b3" d="M287.6,-306.5C316.82,-306.5 351.2,-306.5 383.49,-306.5"/>
<polygon fill="#b3b3b3" stroke="#b3b3b3" points="383.89,-310 393.89,-306.5 383.89,-303 383.89,-310"/>
<text text-anchor="middle" x="365.5" y="-310.3" font-family="Times,serif" font-size="14.00">tree</text>
</g>
<!-- c3b3705be14e463aadcc5c7fadda6636e187767a -->
<g id="node6" class="node">
<title>c3b3705be14e463aadcc5c7fadda6636e187767a</title>
<polygon fill="#ceece9" stroke="transparent" points="91,-120.5 91,-220.5 337,-220.5 337,-120.5 91,-120.5"/>
<text text-anchor="start" x="94" y="-207.3" font-family="monospace" font-weight="bold" font-size="14.00" fill="#808080">commit c3b3705</text>
<text text-anchor="start" x="94" y="-187.3" font-family="monospace" font-size="14.00" fill="#808080">tree ebfd749 &#160;&#160;&#160;&#160;&#160;&#160;&#160;&#160;&#160;&#160;&#160;&#160;&#160;&#160;&#160;&#160;</text>
<text text-anchor="start" x="94" y="-172.3" font-family="monospace" font-size="14.00" fill="#808080">parent 8f038d7 &#160;&#160;&#160;&#160;&#160;&#160;&#160;&#160;&#160;&#160;&#160;&#160;&#160;&#160;</text>
<text text-anchor="start" x="94" y="-157.3" font-family="monospace" font-size="14.00" fill="#808080">author [...] &#160;&#160;&#160;&#160;&#160;&#160;&#160;&#160;&#160;&#160;&#160;&#160;&#160;&#160;&#160;&#160;</text>
<text text-anchor="start" x="94" y="-142.3" font-family="monospace" font-size="14.00" fill="#808080"> &#160;&#160;&#160;&#160;&#160;&#160;&#160;&#160;&#160;&#160;&#160;&#160;&#160;&#160;&#160;&#160;&#160;&#160;&#160;&#160;&#160;&#160;&#160;&#160;&#160;&#160;&#160;&#160;</text>
<text text-anchor="start" x="94" y="-127.3" font-family="monospace" font-size="14.00" fill="#808080">rename hello.txt to README.md</text>
<polygon fill="none" stroke="#b3b3b3" points="91,-120.5 91,-220.5 337,-220.5 337,-120.5 91,-120.5"/>
</g>
<!-- 9920811a943b777209551d26953e2eb7a13a45ad&#45;&gt;c3b3705be14e463aadcc5c7fadda6636e187767a -->
<g id="edge4" class="edge">
<title>9920811a943b777209551d26953e2eb7a13a45ad&#45;&gt;c3b3705be14e463aadcc5c7fadda6636e187767a</title>
<path fill="none" stroke="#b3b3b3" d="M214,-256.45C214,-248.17 214,-239.51 214,-231.01"/>
<polygon fill="#b3b3b3" stroke="#b3b3b3" points="217.5,-230.75 214,-220.75 210.5,-230.76 217.5,-230.75"/>
<text text-anchor="middle" x="203.5" y="-234.8" font-family="Times,serif" font-size="14.00">parent</text>
</g>
<!-- 1bce3880336548b24d6aadcc51e3d41359c5908d -->
<g id="node7" class="node">
<title>1bce3880336548b24d6aadcc51e3d41359c5908d</title>
<polygon fill="#f8f8f6" stroke="transparent" points="715,-271.5 715,-341.5 845,-341.5 845,-271.5 715,-271.5"/>
<text text-anchor="start" x="718" y="-328.3" font-family="monospace" font-weight="bold" font-size="14.00" fill="#808080">blob 1bce388</text>
<text text-anchor="start" x="718" y="-308.3" font-family="monospace" font-size="14.00" fill="#808080">Hello, planet! </text>
<text text-anchor="start" x="718" y="-293.3" font-family="monospace" font-size="14.00" fill="#808080"> &#160;&#160;&#160;&#160;&#160;&#160;&#160;&#160;&#160;&#160;&#160;&#160;&#160;&#160;</text>
<text text-anchor="start" x="718" y="-278.3" font-family="monospace" font-size="14.00" fill="#808080">Git is awesome!</text>
<polygon fill="none" stroke="#b3b3b3" points="715,-271.5 715,-341.5 845,-341.5 845,-271.5 715,-271.5"/>
</g>
<!-- 130f7a90b97d88faa2f1ddf794ef7dace1c0c450&#45;&gt;1bce3880336548b24d6aadcc51e3d41359c5908d -->
<g id="edge5" class="edge">
<title>130f7a90b97d88faa2f1ddf794ef7dace1c0c450&#45;&gt;1bce3880336548b24d6aadcc51e3d41359c5908d</title>
<path fill="none" stroke="#b3b3b3" d="M599.13,-306.5C633.94,-306.5 672.23,-306.5 704.5,-306.5"/>
<polygon fill="#b3b3b3" stroke="#b3b3b3" points="704.75,-310 714.75,-306.5 704.75,-303 704.75,-310"/>
<text text-anchor="middle" x="657" y="-310.3" font-family="Times,serif" font-size="14.00">README.md</text>
</g>
<!-- c3b3705be14e463aadcc5c7fadda6636e187767a&#45;&gt;8f038d70a4e1b2008ff1e29146486d0be165ab87 -->
<g id="edge7" class="edge">
<title>c3b3705be14e463aadcc5c7fadda6636e187767a&#45;&gt;8f038d70a4e1b2008ff1e29146486d0be165ab87</title>
<path fill="none" stroke="#b3b3b3" d="M214,-120.07C214,-111.94 214,-103.5 214,-95.32"/>
<polygon fill="#b3b3b3" stroke="#b3b3b3" points="217.5,-95.12 214,-85.12 210.5,-95.12 217.5,-95.12"/>
<text text-anchor="middle" x="203.5" y="-99.05" font-family="Times,serif" font-size="14.00">parent</text>
</g>
<!-- ebfd7499dae526dcbaf30e1250b1f875946729f8 -->
<g id="node8" class="node">
<title>ebfd7499dae526dcbaf30e1250b1f875946729f8</title>
<polygon fill="#f3eee2" stroke="transparent" points="394,-111.5 394,-151.5 599,-151.5 599,-111.5 394,-111.5"/>
<text text-anchor="start" x="397.5" y="-138.3" font-family="monospace" font-weight="bold" font-size="14.00" fill="#808080">tree ebfd749</text>
<text text-anchor="start" x="397.5" y="-118.3" font-family="monospace" font-size="14.00" fill="#808080">blob README.md (af5626b)</text>
<polygon fill="none" stroke="#b3b3b3" points="394,-111.5 394,-151.5 599,-151.5 599,-111.5 394,-111.5"/>
</g>
<!-- c3b3705be14e463aadcc5c7fadda6636e187767a&#45;&gt;ebfd7499dae526dcbaf30e1250b1f875946729f8 -->
<g id="edge6" class="edge">
<title>c3b3705be14e463aadcc5c7fadda6636e187767a&#45;&gt;ebfd7499dae526dcbaf30e1250b1f875946729f8</title>
<path fill="none" stroke="#b3b3b3" d="M337.22,-153.51C352.72,-151.35 368.52,-149.16 383.84,-147.02"/>
<polygon fill="#b3b3b3" stroke="#b3b3b3" points="384.41,-150.48 393.84,-145.64 383.45,-143.55 384.41,-150.48"/>
<text text-anchor="middle" x="365.5" y="-154.3" font-family="Times,serif" font-size="14.00">tree</text>
</g>
<!-- ebfd7499dae526dcbaf30e1250b1f875946729f8&#45;&gt;af5626b4a114abcb82d63db7c8082c3c4756e51b -->
<g id="edge8" class="edge">
<title>ebfd7499dae526dcbaf30e1250b1f875946729f8&#45;&gt;af5626b4a114abcb82d63db7c8082c3c4756e51b</title>
<path fill="none" stroke="#b3b3b3" d="M599.13,-120.31C636.95,-116.14 678.86,-111.53 712.71,-107.8"/>
<polygon fill="#b3b3b3" stroke="#b3b3b3" points="713.39,-111.25 722.94,-106.67 712.62,-104.29 713.39,-111.25"/>
<text text-anchor="middle" x="657" y="-121.3" font-family="Times,serif" font-size="14.00">README.md</text>
</g>
<!-- ref:main -->
<g id="node9" class="node">
<title>ref:main</title>
<polygon fill="white" stroke="black" points="48,-324.5 0,-324.5 0,-288.5 54,-288.5 54,-318.5 48,-324.5"/>
<polyline fill="none" stroke="black" points="48,-324.5 48,-318.5 "/>
<polyline fill="none" stroke="black" points="54,-318.5 48,-318.5 "/>
<text text-anchor="middle" x="27" y="-302.8" font-family="monospace" font-size="14.00">main</text>
</g>
<!-- ref:main&#45;&gt;9920811a943b777209551d26953e2eb7a13a45ad -->
<g id="edge9" class="edge">
<title>ref:main&#45;&gt;9920811a943b777209551d26953e2eb7a13a45ad</title>
<path fill="none" stroke="black" d="M54.11,-306.5C74.07,-306.5 102.75,-306.5 130.26,-306.5"/>
<polygon fill="black" stroke="black" points="130.32,-310 140.32,-306.5 130.32,-303 130.32,-310"/>
</g>
<!-- ref:HEAD -->
<g id="node10" class="node">
<title>ref:HEAD</title>
<polygon fill="#fce94f" stroke="black" points="48,-60.5 0,-60.5 0,-24.5 54,-24.5 54,-54.5 48,-60.5"/>
<polyline fill="none" stroke="black" points="48,-60.5 48,-54.5 "/>
<polyline fill="none" stroke="black" points="54,-54.5 48,-54.5 "/>
<text text-anchor="middle" x="27" y="-38.8" font-family="monospace" font-size="14.00">HEAD</text>
</g>
<!-- ref:HEAD&#45;&gt;8f038d70a4e1b2008ff1e29146486d0be165ab87 -->
<g id="edge10" class="edge">
<title>ref:HEAD&#45;&gt;8f038d70a4e1b2008ff1e29146486d0be165ab87</title>
<path fill="none" stroke="black" d="M54.11,-42.5C77.02,-42.5 111.41,-42.5 142.34,-42.5"/>
<polygon fill="black" stroke="black" points="142.68,-46 152.68,-42.5 142.68,-39 142.68,-46"/>
</g>
</g>
</svg>
