<?xml version="1.0" encoding="UTF-8" standalone="no"?>
<!DOCTYPE svg PUBLIC "-//W3C//DTD SVG 1.1//EN"
 "http://www.w3.org/Graphics/SVG/1.1/DTD/svg11.dtd">
<!-- Generated by graphviz version 2.42.4 (0)
 -->
<!-- Title: git_objects Pages: 1 -->
<svg width="770pt" height="93pt"
 viewBox="0.00 0.00 770.00 93.00" xmlns="http://www.w3.org/2000/svg" xmlns:xlink="http://www.w3.org/1999/xlink">
<g id="graph0" class="graph" transform="scale(1 1) rotate(0) translate(4 89)">
<title>git_objects</title>
<polygon fill="white" stroke="transparent" points="-4,4 -4,-89 766,-89 766,4 -4,4"/>
<!-- b0daf1b94cd0a2e1b2cbf406059882c44c86c806 -->
<g id="node1" class="node">
<title>b0daf1b94cd0a2e1b2cbf406059882c44c86c806</title>
<polygon fill="#5bc0b5" stroke="transparent" points="182,0 182,-85 304,-85 304,0 182,0"/>
<text text-anchor="start" x="185" y="-71.3" font-family="monospace" font-weight="bold" font-size="14.00" fill="#000000">commit b0daf1b</text>
<text text-anchor="start" x="185" y="-51.3" font-family="monospace" font-size="14.00" fill="#000000">tree ec947e3 &#160;</text>
<text text-anchor="start" x="185" y="-36.3" font-family="monospace" font-size="14.00" fill="#000000">author [...] &#160;</text>
<text text-anchor="start" x="185" y="-21.3" font-family="monospace" font-size="14.00" fill="#000000"> &#160;&#160;&#160;&#160;&#160;&#160;&#160;&#160;&#160;&#160;&#160;&#160;&#160;</text>
<text text-anchor="start" x="185" y="-6.3" font-family="monospace" font-size="14.00" fill="#000000">initial commit</text>
<polygon fill="none" stroke="#000000" points="182,0 182,-85 304,-85 304,0 182,0"/>
</g>
<!-- ec947e3dd7a7752d078f1ed0cfde7457b21fef58 -->
<g id="node2" class="node">
<title>ec947e3dd7a7752d078f1ed0cfde7457b21fef58</title>
<polygon fill="#d8c59f" stroke="transparent" points="361,-22.5 361,-62.5 566,-62.5 566,-22.5 361,-22.5"/>
<text text-anchor="start" x="364.5" y="-49.3" font-family="monospace" font-weight="bold" font-size="14.00" fill="#000000">tree ec947e3</text>
<text text-anchor="start" x="364.5" y="-29.3" font-family="monospace" font-size="14.00" fill="#000000">blob hello.txt (af5626b)</text>
<polygon fill="none" stroke="#000000" points="361,-22.5 361,-62.5 566,-62.5 566,-22.5 361,-22.5"/>
</g>
<!-- b0daf1b94cd0a2e1b2cbf406059882c44c86c806&#45;&gt;ec947e3dd7a7752d078f1ed0cfde7457b21fef58 -->
<g id="edge1" class="edge">
<title>b0daf1b94cd0a2e1b2cbf406059882c44c86c806&#45;&gt;ec947e3dd7a7752d078f1ed0cfde7457b21fef58</title>
<path fill="none" stroke="#000000" d="M304.28,-42.5C318.82,-42.5 334.82,-42.5 350.89,-42.5"/>
<polygon fill="#000000" stroke="#000000" points="350.89,-46 360.89,-42.5 350.89,-39 350.89,-46"/>
<text text-anchor="middle" x="332.5" y="-46.3" font-family="Times,serif" font-size="14.00">tree</text>
</g>
<!-- af5626b4a114abcb82d63db7c8082c3c4756e51b -->
<g id="node3" class="node">
<title>af5626b4a114abcb82d63db7c8082c3c4756e51b</title>
<polygon fill="#e7e6e1" stroke="transparent" points="648,-22.5 648,-62.5 762,-62.5 762,-22.5 648,-22.5"/>
<text text-anchor="start" x="651" y="-49.3" font-family="monospace" font-weight="bold" font-size="14.00" fill="#000000">blob af5626b</text>
<text text-anchor="start" x="651" y="-29.3" font-family="monospace" font-size="14.00" fill="#000000">Hello, world!</text>
<polygon fill="none" stroke="#000000" points="648,-22.5 648,-62.5 762,-62.5 762,-22.5 648,-22.5"/>
</g>
<!-- ec947e3dd7a7752d078f1ed0cfde7457b21fef58&#45;&gt;af5626b4a114abcb82d63db7c8082c3c4756e51b -->
<g id="edge2" class="edge">
<title>ec947e3dd7a7752d078f1ed0cfde7457b21fef58&#45;&gt;af5626b4a114abcb82d63db7c8082c3c4756e51b</title>
<path fill="none" stroke="#000000" d="M566.07,-42.5C590.28,-42.5 615.51,-42.5 637.67,-42.5"/>
<polygon fill="#000000" stroke="#000000" points="637.95,-46 647.95,-42.5 637.95,-39 637.95,-46"/>
<text text-anchor="middle" x="607" y="-46.3" font-family="Times,serif" font-size="14.00">hello.txt</text>
</g>
<!-- ref:main -->
<g id="node4" class="node">
<title>ref:main</title>
<polygon fill="white" stroke="black" points="139,-60.5 91,-60.5 91,-24.5 145,-24.5 145,-54.5 139,-60.5"/>
<polyline fill="none" stroke="black" points="139,-60.5 139,-54.5 "/>
<polyline fill="none" stroke="black" points="145,-54.5 139,-54.5 "/>
<text text-anchor="middle" x="118" y="-38.8" font-family="monospace" font-size="14.00">main</text>
</g>
<!-- ref:main&#45;&gt;b0daf1b94cd0a2e1b2cbf406059882c44c86c806 -->
<g id="edge3" class="edge">
<title>ref:main&#45;&gt;b0daf1b94cd0a2e1b2cbf406059882c44c86c806</title>
<path fill="none" stroke="black" d="M145.09,-42.5C153.01,-42.5 162.12,-42.5 171.52,-42.5"/>
<polygon fill="black" stroke="black" points="171.79,-46 181.79,-42.5 171.79,-39 171.79,-46"/>
</g>
<!-- ref:HEAD -->
<g id="node5" class="node">
<title>ref:HEAD</title>
<polygon fill="#fce94f" stroke="black" points="48,-60.5 0,-60.5 0,-24.5 54,-24.5 54,-54.5 48,-60.5"/>
<polyline fill="none" stroke="black" points="48,-60.5 48,-54.5 "/>
<polyline fill="none" stroke="black" points="54,-54.5 48,-54.5 "/>
<text text-anchor="middle" x="27" y="-38.8" font-family="monospace" font-size="14.00">HEAD</text>
</g>
<!-- ref:HEAD&#45;&gt;ref:main -->
<g id="edge4" class="edge">
<title>ref:HEAD&#45;&gt;ref:main</title>
<path fill="none" stroke="black" d="M54.22,-42.5C62.55,-42.5 71.91,-42.5 80.82,-42.5"/>
<polygon fill="black" stroke="black" points="80.97,-46 90.97,-42.5 80.97,-39 80.97,-46"/>
</g>
</g>
</svg>
