<?xml version="1.0" encoding="UTF-8" standalone="no"?>
<!DOCTYPE svg PUBLIC "-//W3C//DTD SVG 1.1//EN"
 "http://www.w3.org/Graphics/SVG/1.1/DTD/svg11.dtd">
<!-- Generated by graphviz version 2.42.4 (0)
 -->
<!-- Title: git_objects Pages: 1 -->
<svg width="944pt" height="365pt"
 viewBox="0.00 0.00 944.00 364.50" xmlns="http://www.w3.org/2000/svg" xmlns:xlink="http://www.w3.org/1999/xlink">
<g id="graph0" class="graph" transform="scale(1 1) rotate(0) translate(4 360.5)">
<title>git_objects</title>
<polygon fill="white" stroke="transparent" points="-4,4 -4,-360.5 940,-360.5 940,4 -4,4"/>
<!-- 9920811a943b777209551d26953e2eb7a13a45ad -->
<g id="node1" class="node">
<title>9920811a943b777209551d26953e2eb7a13a45ad</title>
<polygon fill="#5bc0b5" stroke="transparent" points="231.5,-256.5 231.5,-356.5 378.5,-356.5 378.5,-256.5 231.5,-256.5"/>
<text text-anchor="start" x="235" y="-343.3" font-family="monospace" font-weight="bold" font-size="14.00" fill="#000000">commit 9920811</text>
<text text-anchor="start" x="235" y="-323.3" font-family="monospace" font-size="14.00" fill="#000000">tree 130f7a9 &#160;&#160;&#160;&#160;</text>
<text text-anchor="start" x="235" y="-308.3" font-family="monospace" font-size="14.00" fill="#000000">parent c3b3705 &#160;&#160;</text>
<text text-anchor="start" x="235" y="-293.3" font-family="monospace" font-size="14.00" fill="#000000">author [...] &#160;&#160;&#160;&#160;</text>
<text text-anchor="start" x="235" y="-278.3" font-family="monospace" font-size="14.00" fill="#000000"> &#160;&#160;&#160;&#160;&#160;&#160;&#160;&#160;&#160;&#160;&#160;&#160;&#160;&#160;&#160;&#160;</text>
<text text-anchor="start" x="235" y="-263.3" font-family="monospace" font-size="14.00" fill="#000000">updated README.md</text>
<polygon fill="none" stroke="#000000" points="231.5,-256.5 231.5,-356.5 378.5,-356.5 378.5,-256.5 231.5,-256.5"/>
</g>
<!-- 130f7a90b97d88faa2f1ddf794ef7dace1c0c450 -->
<g id="node2" class="node">
<title>130f7a90b97d88faa2f1ddf794ef7dace1c0c450</title>
<polygon fill="#d8c59f" stroke="transparent" points="485,-286.5 485,-326.5 690,-326.5 690,-286.5 485,-286.5"/>
<text text-anchor="start" x="488.5" y="-313.3" font-family="monospace" font-weight="bold" font-size="14.00" fill="#000000">tree 130f7a9</text>
<text text-anchor="start" x="488.5" y="-293.3" font-family="monospace" font-size="14.00" fill="#000000">blob README.md (1bce388)</text>
<polygon fill="none" stroke="#000000" points="485,-286.5 485,-326.5 690,-326.5 690,-286.5 485,-286.5"/>
</g>
<!-- 9920811a943b777209551d26953e2eb7a13a45ad&#45;&gt;130f7a90b97d88faa2f1ddf794ef7dace1c0c450 -->
<g id="edge1" class="edge">
<title>9920811a943b777209551d26953e2eb7a13a45ad&#45;&gt;130f7a90b97d88faa2f1ddf794ef7dace1c0c450</title>
<path fill="none" stroke="#000000" d="M378.6,-306.5C407.82,-306.5 442.2,-306.5 474.49,-306.5"/>
<polygon fill="#000000" stroke="#000000" points="474.89,-310 484.89,-306.5 474.89,-303 474.89,-310"/>
<text text-anchor="middle" x="456.5" y="-310.3" font-family="Times,serif" font-size="14.00">tree</text>
</g>
<!-- c3b3705be14e463aadcc5c7fadda6636e187767a -->
<g id="node3" class="node">
<title>c3b3705be14e463aadcc5c7fadda6636e187767a</title>
<polygon fill="#ceece9" stroke="transparent" points="182,-120.5 182,-220.5 428,-220.5 428,-120.5 182,-120.5"/>
<text text-anchor="start" x="185" y="-207.3" font-family="monospace" font-weight="bold" font-size="14.00" fill="#808080">commit c3b3705</text>
<text text-anchor="start" x="185" y="-187.3" font-family="monospace" font-size="14.00" fill="#808080">tree ebfd749 &#160;&#160;&#160;&#160;&#160;&#160;&#160;&#160;&#160;&#160;&#160;&#160;&#160;&#160;&#160;&#160;</text>
<text text-anchor="start" x="185" y="-172.3" font-family="monospace" font-size="14.00" fill="#808080">parent 8f038d7 &#160;&#160;&#160;&#160;&#160;&#160;&#160;&#160;&#160;&#160;&#160;&#160;&#160;&#160;</text>
<text text-anchor="start" x="185" y="-157.3" font-family="monospace" font-size="14.00" fill="#808080">author [...] &#160;&#160;&#160;&#160;&#160;&#160;&#160;&#160;&#160;&#160;&#160;&#160;&#160;&#160;&#160;&#160;</text>
<text text-anchor="start" x="185" y="-142.3" font-family="monospace" font-size="14.00" fill="#808080"> &#160;&#160;&#160;&#160;&#160;&#160;&#160;&#160;&#160;&#160;&#160;&#160;&#160;&#160;&#160;&#160;&#160;&#160;&#160;&#160;&#160;&#160;&#160;&#160;&#160;&#160;&#160;&#160;</text>
<text text-anchor="start" x="185" y="-127.3" font-family="monospace" font-size="14.00" fill="#808080">rename hello.txt to README.md</text>
<polygon fill="none" stroke="#b3b3b3" points="182,-120.5 182,-220.5 428,-220.5 428,-120.5 182,-120.5"/>
</g>
<!-- 9920811a943b777209551d26953e2eb7a13a45ad&#45;&gt;c3b3705be14e463aadcc5c7fadda6636e187767a -->
<g id="edge2" class="edge">
<title>9920811a943b777209551d26953e2eb7a13a45ad&#45;&gt;c3b3705be14e463aadcc5c7fadda6636e187767a</title>
<path fill="none" stroke="#b3b3b3" d="M305,-256.45C305,-248.17 305,-239.51 305,-231.01"/>
<polygon fill="#b3b3b3" stroke="#b3b3b3" points="308.5,-230.75 305,-220.75 301.5,-230.76 308.5,-230.75"/>
<text text-anchor="middle" x="294.5" y="-234.8" font-family="Times,serif" font-size="14.00">parent</text>
</g>
<!-- 1bce3880336548b24d6aadcc51e3d41359c5908d -->
<g id="node4" class="node">
<title>1bce3880336548b24d6aadcc51e3d41359c5908d</title>
<polygon fill="#e7e6e1" stroke="transparent" points="806,-271.5 806,-341.5 936,-341.5 936,-271.5 806,-271.5"/>
<text text-anchor="start" x="809" y="-328.3" font-family="monospace" font-weight="bold" font-size="14.00" fill="#000000">blob 1bce388</text>
<text text-anchor="start" x="809" y="-308.3" font-family="monospace" font-size="14.00" fill="#000000">Hello, planet! </text>
<text text-anchor="start" x="809" y="-293.3" font-family="monospace" font-size="14.00" fill="#000000"> &#160;&#160;&#160;&#160;&#160;&#160;&#160;&#160;&#160;&#160;&#160;&#160;&#160;&#160;</text>
<text text-anchor="start" x="809" y="-278.3" font-family="monospace" font-size="14.00" fill="#000000">Git is awesome!</text>
<polygon fill="none" stroke="#000000" points="806,-271.5 806,-341.5 936,-341.5 936,-271.5 806,-271.5"/>
</g>
<!-- 130f7a90b97d88faa2f1ddf794ef7dace1c0c450&#45;&gt;1bce3880336548b24d6aadcc51e3d41359c5908d -->
<g id="edge3" class="edge">
<title>130f7a90b97d88faa2f1ddf794ef7dace1c0c450&#45;&gt;1bce3880336548b24d6aadcc51e3d41359c5908d</title>
<path fill="none" stroke="#000000" d="M690.13,-306.5C724.94,-306.5 763.23,-306.5 795.5,-306.5"/>
<polygon fill="#000000" stroke="#000000" points="795.75,-310 805.75,-306.5 795.75,-303 795.75,-310"/>
<text text-anchor="middle" x="748" y="-310.3" font-family="Times,serif" font-size="14.00">README.md</text>
</g>
<!-- ebfd7499dae526dcbaf30e1250b1f875946729f8 -->
<g id="node5" class="node">
<title>ebfd7499dae526dcbaf30e1250b1f875946729f8</title>
<polygon fill="#f3eee2" stroke="transparent" points="485,-111.5 485,-151.5 690,-151.5 690,-111.5 485,-111.5"/>
<text text-anchor="start" x="488.5" y="-138.3" font-family="monospace" font-weight="bold" font-size="14.00" fill="#808080">tree ebfd749</text>
<text text-anchor="start" x="488.5" y="-118.3" font-family="monospace" font-size="14.00" fill="#808080">blob README.md (af5626b)</text>
<polygon fill="none" stroke="#b3b3b3" points="485,-111.5 485,-151.5 690,-151.5 690,-111.5 485,-111.5"/>
</g>
<!-- c3b3705be14e463aadcc5c7fadda6636e187767a&#45;&gt;ebfd7499dae526dcbaf30e1250b1f875946729f8 -->
<g id="edge4" class="edge">
<title>c3b3705be14e463aadcc5c7fadda6636e187767a&#45;&gt;ebfd7499dae526dcbaf30e1250b1f875946729f8</title>
<path fill="none" stroke="#b3b3b3" d="M428.22,-153.51C443.72,-151.35 459.52,-149.16 474.84,-147.02"/>
<polygon fill="#b3b3b3" stroke="#b3b3b3" points="475.41,-150.48 484.84,-145.64 474.45,-143.55 475.41,-150.48"/>
<text text-anchor="middle" x="456.5" y="-154.3" font-family="Times,serif" font-size="14.00">tree</text>
</g>
<!-- 8f038d70a4e1b2008ff1e29146486d0be165ab87 -->
<g id="node6" class="node">
<title>8f038d70a4e1b2008ff1e29146486d0be165ab87</title>
<polygon fill="#ceece9" stroke="transparent" points="244,0 244,-85 366,-85 366,0 244,0"/>
<text text-anchor="start" x="247" y="-71.3" font-family="monospace" font-weight="bold" font-size="14.00" fill="#808080">commit 8f038d7</text>
<text text-anchor="start" x="247" y="-51.3" font-family="monospace" font-size="14.00" fill="#808080">tree ec947e3 &#160;</text>
<text text-anchor="start" x="247" y="-36.3" font-family="monospace" font-size="14.00" fill="#808080">author [...] &#160;</text>
<text text-anchor="start" x="247" y="-21.3" font-family="monospace" font-size="14.00" fill="#808080"> &#160;&#160;&#160;&#160;&#160;&#160;&#160;&#160;&#160;&#160;&#160;&#160;&#160;</text>
<text text-anchor="start" x="247" y="-6.3" font-family="monospace" font-size="14.00" fill="#808080">initial commit</text>
<polygon fill="none" stroke="#b3b3b3" points="244,0 244,-85 366,-85 366,0 244,0"/>
</g>
<!-- c3b3705be14e463aadcc5c7fadda6636e187767a&#45;&gt;8f038d70a4e1b2008ff1e29146486d0be165ab87 -->
<g id="edge5" class="edge">
<title>c3b3705be14e463aadcc5c7fadda6636e187767a&#45;&gt;8f038d70a4e1b2008ff1e29146486d0be165ab87</title>
<path fill="none" stroke="#b3b3b3" d="M305,-120.07C305,-111.94 305,-103.5 305,-95.32"/>
<polygon fill="#b3b3b3" stroke="#b3b3b3" points="308.5,-95.12 305,-85.12 301.5,-95.12 308.5,-95.12"/>
<text text-anchor="middle" x="294.5" y="-99.05" font-family="Times,serif" font-size="14.00">parent</text>
</g>
<!-- af5626b4a114abcb82d63db7c8082c3c4756e51b -->
<g id="node7" class="node">
<title>af5626b4a114abcb82d63db7c8082c3c4756e51b</title>
<polygon fill="#f8f8f6" stroke="transparent" points="814,-80.5 814,-120.5 928,-120.5 928,-80.5 814,-80.5"/>
<text text-anchor="start" x="817" y="-107.3" font-family="monospace" font-weight="bold" font-size="14.00" fill="#808080">blob af5626b</text>
<text text-anchor="start" x="817" y="-87.3" font-family="monospace" font-size="14.00" fill="#808080">Hello, world!</text>
<polygon fill="none" stroke="#b3b3b3" points="814,-80.5 814,-120.5 928,-120.5 928,-80.5 814,-80.5"/>
</g>
<!-- ebfd7499dae526dcbaf30e1250b1f875946729f8&#45;&gt;af5626b4a114abcb82d63db7c8082c3c4756e51b -->
<g id="edge6" class="edge">
<title>ebfd7499dae526dcbaf30e1250b1f875946729f8&#45;&gt;af5626b4a114abcb82d63db7c8082c3c4756e51b</title>
<path fill="none" stroke="#b3b3b3" d="M690.13,-120.31C727.95,-116.14 769.86,-111.53 803.71,-107.8"/>
<polygon fill="#b3b3b3" stroke="#b3b3b3" points="804.39,-111.25 813.94,-106.67 803.62,-104.29 804.39,-111.25"/>
<text text-anchor="middle" x="748" y="-121.3" font-family="Times,serif" font-size="14.00">README.md</text>
</g>
<!-- ec947e3dd7a7752d078f1ed0cfde7457b21fef58 -->
<g id="node8" class="node">
<title>ec947e3dd7a7752d078f1ed0cfde7457b21fef58</title>
<polygon fill="#f3eee2" stroke="transparent" points="485,-44.5 485,-84.5 690,-84.5 690,-44.5 485,-44.5"/>
<text text-anchor="start" x="488.5" y="-71.3" font-family="monospace" font-weight="bold" font-size="14.00" fill="#808080">tree ec947e3</text>
<text text-anchor="start" x="488.5" y="-51.3" font-family="monospace" font-size="14.00" fill="#808080">blob hello.txt (af5626b)</text>
<polygon fill="none" stroke="#b3b3b3" points="485,-44.5 485,-84.5 690,-84.5 690,-44.5 485,-44.5"/>
</g>
<!-- 8f038d70a4e1b2008ff1e29146486d0be165ab87&#45;&gt;ec947e3dd7a7752d078f1ed0cfde7457b21fef58 -->
<g id="edge7" class="edge">
<title>8f038d70a4e1b2008ff1e29146486d0be165ab87&#45;&gt;ec947e3dd7a7752d078f1ed0cfde7457b21fef58</title>
<path fill="none" stroke="#b3b3b3" d="M366.17,-47.22C397.74,-49.7 437.44,-52.81 474.41,-55.71"/>
<polygon fill="#b3b3b3" stroke="#b3b3b3" points="474.52,-59.23 484.76,-56.52 475.06,-52.25 474.52,-59.23"/>
<text text-anchor="middle" x="456.5" y="-59.3" font-family="Times,serif" font-size="14.00">tree</text>
</g>
<!-- ec947e3dd7a7752d078f1ed0cfde7457b21fef58&#45;&gt;af5626b4a114abcb82d63db7c8082c3c4756e51b -->
<g id="edge8" class="edge">
<title>ec947e3dd7a7752d078f1ed0cfde7457b21fef58&#45;&gt;af5626b4a114abcb82d63db7c8082c3c4756e51b</title>
<path fill="none" stroke="#b3b3b3" d="M690.13,-77.5C727.95,-82.33 769.86,-87.69 803.71,-92.02"/>
<polygon fill="#b3b3b3" stroke="#b3b3b3" points="803.58,-95.53 813.94,-93.33 804.47,-88.59 803.58,-95.53"/>
<text text-anchor="middle" x="748" y="-93.3" font-family="Times,serif" font-size="14.00">hello.txt</text>
</g>
<!-- ref:main -->
<g id="node9" class="node">
<title>ref:main</title>
<polygon fill="white" stroke="black" points="139,-324.5 91,-324.5 91,-288.5 145,-288.5 145,-318.5 139,-324.5"/>
<polyline fill="none" stroke="black" points="139,-324.5 139,-318.5 "/>
<polyline fill="none" stroke="black" points="145,-318.5 139,-318.5 "/>
<text text-anchor="middle" x="118" y="-302.8" font-family="monospace" font-size="14.00">main</text>
</g>
<!-- ref:main&#45;&gt;9920811a943b777209551d26953e2eb7a13a45ad -->
<g id="edge9" class="edge">
<title>ref:main&#45;&gt;9920811a943b777209551d26953e2eb7a13a45ad</title>
<path fill="none" stroke="black" d="M145.11,-306.5C165.07,-306.5 193.75,-306.5 221.26,-306.5"/>
<polygon fill="black" stroke="black" points="221.32,-310 231.32,-306.5 221.32,-303 221.32,-310"/>
</g>
<!-- ref:HEAD -->
<g id="node10" class="node">
<title>ref:HEAD</title>
<polygon fill="#fce94f" stroke="black" points="48,-324.5 0,-324.5 0,-288.5 54,-288.5 54,-318.5 48,-324.5"/>
<polyline fill="none" stroke="black" points="48,-324.5 48,-318.5 "/>
<polyline fill="none" stroke="black" points="54,-318.5 48,-318.5 "/>
<text text-anchor="middle" x="27" y="-302.8" font-family="monospace" font-size="14.00">HEAD</text>
</g>
<!-- ref:HEAD&#45;&gt;ref:main -->
<g id="edge10" class="edge">
<title>ref:HEAD&#45;&gt;ref:main</title>
<path fill="none" stroke="black" d="M54.22,-306.5C62.55,-306.5 71.91,-306.5 80.82,-306.5"/>
<polygon fill="black" stroke="black" points="80.97,-310 90.97,-306.5 80.97,-303 80.97,-310"/>
</g>
</g>
</svg>
