<?xml version="1.0" encoding="UTF-8" standalone="no"?>
<!DOCTYPE svg PUBLIC "-//W3C//DTD SVG 1.1//EN"
 "http://www.w3.org/Graphics/SVG/1.1/DTD/svg11.dtd">
<!-- Generated by graphviz version 2.42.4 (0)
 -->
<!-- Title: git_objects Pages: 1 -->
<svg width="1109pt" height="769pt"
 viewBox="0.00 0.00 1109.00 769.00" xmlns="http://www.w3.org/2000/svg" xmlns:xlink="http://www.w3.org/1999/xlink">
<g id="graph0" class="graph" transform="scale(1 1) rotate(0) translate(4 765)">
<title>git_objects</title>
<polygon fill="white" stroke="transparent" points="-4,4 -4,-765 1105,-765 1105,4 -4,4"/>
<!-- 7648f413afbda3a32b75df067f2ba69bb7f78d27 -->
<g id="node1" class="node">
<title>7648f413afbda3a32b75df067f2ba69bb7f78d27</title>
<polygon fill="#5bc0b5" stroke="transparent" points="215,-646 215,-761 469,-761 469,-646 215,-646"/>
<text text-anchor="start" x="218" y="-747.3" font-family="monospace" font-weight="bold" font-size="14.00" fill="#000000">commit 7648f41</text>
<text text-anchor="start" x="218" y="-727.3" font-family="monospace" font-size="14.00" fill="#000000">tree 915d884 &#160;&#160;&#160;&#160;&#160;&#160;&#160;&#160;&#160;&#160;&#160;&#160;&#160;&#160;&#160;&#160;&#160;</text>
<text text-anchor="start" x="218" y="-712.3" font-family="monospace" font-size="14.00" fill="#000000">parent ff475f1 &#160;&#160;&#160;&#160;&#160;&#160;&#160;&#160;&#160;&#160;&#160;&#160;&#160;&#160;&#160;</text>
<text text-anchor="start" x="218" y="-697.3" font-family="monospace" font-size="14.00" fill="#000000">parent d6a53df &#160;&#160;&#160;&#160;&#160;&#160;&#160;&#160;&#160;&#160;&#160;&#160;&#160;&#160;&#160;</text>
<text text-anchor="start" x="218" y="-682.3" font-family="monospace" font-size="14.00" fill="#000000">author [...] &#160;&#160;&#160;&#160;&#160;&#160;&#160;&#160;&#160;&#160;&#160;&#160;&#160;&#160;&#160;&#160;&#160;</text>
<text text-anchor="start" x="218" y="-667.3" font-family="monospace" font-size="14.00" fill="#000000"> &#160;&#160;&#160;&#160;&#160;&#160;&#160;&#160;&#160;&#160;&#160;&#160;&#160;&#160;&#160;&#160;&#160;&#160;&#160;&#160;&#160;&#160;&#160;&#160;&#160;&#160;&#160;&#160;&#160;</text>
<text text-anchor="start" x="218" y="-652.3" font-family="monospace" font-size="14.00" fill="#000000">merge feature branch into main</text>
<polygon fill="none" stroke="#000000" points="215,-646 215,-761 469,-761 469,-646 215,-646"/>
</g>
<!-- 915d884c9f093aac643aa9c2b5d04e4c33369fa2 -->
<g id="node2" class="node">
<title>915d884c9f093aac643aa9c2b5d04e4c33369fa2</title>
<polygon fill="#d8c59f" stroke="transparent" points="526,-618.5 526,-688.5 739,-688.5 739,-618.5 526,-618.5"/>
<text text-anchor="start" x="529.5" y="-675.3" font-family="monospace" font-weight="bold" font-size="14.00" fill="#000000">tree 915d884</text>
<text text-anchor="start" x="529.5" y="-655.3" font-family="monospace" font-size="14.00" fill="#000000">blob .gitignore (ce01362)</text>
<text text-anchor="start" x="529.5" y="-640.3" font-family="monospace" font-size="14.00" fill="#000000">blob README.md (bcd9a8a) </text>
<text text-anchor="start" x="529.5" y="-625.3" font-family="monospace" font-size="14.00" fill="#000000">blob hello.c (3e6f6d6) &#160;&#160;</text>
<polygon fill="none" stroke="#000000" points="526,-618.5 526,-688.5 739,-688.5 739,-618.5 526,-618.5"/>
</g>
<!-- 7648f413afbda3a32b75df067f2ba69bb7f78d27&#45;&gt;915d884c9f093aac643aa9c2b5d04e4c33369fa2 -->
<g id="edge1" class="edge">
<title>7648f413afbda3a32b75df067f2ba69bb7f78d27&#45;&gt;915d884c9f093aac643aa9c2b5d04e4c33369fa2</title>
<path fill="none" stroke="#000000" d="M469.12,-681.64C484.67,-678.95 500.5,-676.2 515.88,-673.54"/>
<polygon fill="#000000" stroke="#000000" points="516.66,-676.96 525.92,-671.8 515.46,-670.06 516.66,-676.96"/>
<text text-anchor="middle" x="497.5" y="-682.3" font-family="Times,serif" font-size="14.00">tree</text>
</g>
<!-- ff475f14ac7db89aa8a42cc1ed78ff0a03482d6b -->
<g id="node3" class="node">
<title>ff475f14ac7db89aa8a42cc1ed78ff0a03482d6b</title>
<polygon fill="#ceece9" stroke="transparent" points="281,-510.5 281,-610.5 403,-610.5 403,-510.5 281,-510.5"/>
<text text-anchor="start" x="284" y="-597.3" font-family="monospace" font-weight="bold" font-size="14.00" fill="#808080">commit ff475f1</text>
<text text-anchor="start" x="284" y="-577.3" font-family="monospace" font-size="14.00" fill="#808080">tree 0701bc9 &#160;</text>
<text text-anchor="start" x="284" y="-562.3" font-family="monospace" font-size="14.00" fill="#808080">parent f2f26f4</text>
<text text-anchor="start" x="284" y="-547.3" font-family="monospace" font-size="14.00" fill="#808080">author [...] &#160;</text>
<text text-anchor="start" x="284" y="-532.3" font-family="monospace" font-size="14.00" fill="#808080"> &#160;&#160;&#160;&#160;&#160;&#160;&#160;&#160;&#160;&#160;&#160;&#160;&#160;</text>
<text text-anchor="start" x="284" y="-517.3" font-family="monospace" font-size="14.00" fill="#808080">add smiley &#160;&#160;&#160;</text>
<polygon fill="none" stroke="#b3b3b3" points="281,-510.5 281,-610.5 403,-610.5 403,-510.5 281,-510.5"/>
</g>
<!-- 7648f413afbda3a32b75df067f2ba69bb7f78d27&#45;&gt;ff475f14ac7db89aa8a42cc1ed78ff0a03482d6b -->
<g id="edge2" class="edge">
<title>7648f413afbda3a32b75df067f2ba69bb7f78d27&#45;&gt;ff475f14ac7db89aa8a42cc1ed78ff0a03482d6b</title>
<path fill="none" stroke="#b3b3b3" d="M342,-645.92C342,-637.59 342,-628.99 342,-620.6"/>
<polygon fill="#b3b3b3" stroke="#b3b3b3" points="345.5,-620.51 342,-610.51 338.5,-620.51 345.5,-620.51"/>
<text text-anchor="middle" x="331.5" y="-624.55" font-family="Times,serif" font-size="14.00">parent</text>
</g>
<!-- d6a53df8fa0be456f454f003d0f5124ac3b26728 -->
<g id="node4" class="node">
<title>d6a53df8fa0be456f454f003d0f5124ac3b26728</title>
<polygon fill="#ceece9" stroke="transparent" points="281,-392.5 281,-492.5 403,-492.5 403,-392.5 281,-392.5"/>
<text text-anchor="start" x="284" y="-479.3" font-family="monospace" font-weight="bold" font-size="14.00" fill="#808080">commit d6a53df</text>
<text text-anchor="start" x="284" y="-459.3" font-family="monospace" font-size="14.00" fill="#808080">tree 185925e &#160;</text>
<text text-anchor="start" x="284" y="-444.3" font-family="monospace" font-size="14.00" fill="#808080">parent f2f26f4</text>
<text text-anchor="start" x="284" y="-429.3" font-family="monospace" font-size="14.00" fill="#808080">author [...] &#160;</text>
<text text-anchor="start" x="284" y="-414.3" font-family="monospace" font-size="14.00" fill="#808080"> &#160;&#160;&#160;&#160;&#160;&#160;&#160;&#160;&#160;&#160;&#160;&#160;&#160;</text>
<text text-anchor="start" x="284" y="-399.3" font-family="monospace" font-size="14.00" fill="#808080">add hello.c &#160;&#160;</text>
<polygon fill="none" stroke="#b3b3b3" points="281,-392.5 281,-492.5 403,-492.5 403,-392.5 281,-392.5"/>
</g>
<!-- 7648f413afbda3a32b75df067f2ba69bb7f78d27&#45;&gt;d6a53df8fa0be456f454f003d0f5124ac3b26728 -->
<g id="edge3" class="edge">
<title>7648f413afbda3a32b75df067f2ba69bb7f78d27&#45;&gt;d6a53df8fa0be456f454f003d0f5124ac3b26728</title>
<path fill="none" stroke="#b3b3b3" d="M229.35,-645.86C202.55,-623.74 183.33,-595.6 190,-562 195.66,-533.46 194.87,-522.51 215,-501.5 230.53,-485.29 251.39,-473.09 271.7,-464.13"/>
<polygon fill="#b3b3b3" stroke="#b3b3b3" points="273.11,-467.33 280.98,-460.23 270.4,-460.88 273.11,-467.33"/>
<text text-anchor="middle" x="180" y="-565.8" font-family="Times,serif" font-size="14.00">parent</text>
</g>
<!-- ce013625030ba8dba906f756967f9e9ca394464a -->
<g id="node5" class="node">
<title>ce013625030ba8dba906f756967f9e9ca394464a</title>
<polygon fill="#e7e6e1" stroke="transparent" points="925,-443.5 925,-483.5 1031,-483.5 1031,-443.5 925,-443.5"/>
<text text-anchor="start" x="928" y="-470.3" font-family="monospace" font-weight="bold" font-size="14.00" fill="#000000">blob ce01362</text>
<text text-anchor="start" x="928" y="-450.3" font-family="monospace" font-size="14.00" fill="#000000">hello</text>
<polygon fill="none" stroke="#000000" points="925,-443.5 925,-483.5 1031,-483.5 1031,-443.5 925,-443.5"/>
</g>
<!-- 915d884c9f093aac643aa9c2b5d04e4c33369fa2&#45;&gt;ce013625030ba8dba906f756967f9e9ca394464a -->
<g id="edge4" class="edge">
<title>915d884c9f093aac643aa9c2b5d04e4c33369fa2&#45;&gt;ce013625030ba8dba906f756967f9e9ca394464a</title>
<path fill="none" stroke="#000000" d="M691.23,-618.45C706.8,-608.85 723.61,-598.37 739,-588.5 747.09,-583.31 748.28,-580.54 757,-576.5 790.57,-560.94 810.3,-579.11 837,-553.5 855.26,-535.99 836.8,-517.07 855,-499.5 871.11,-483.94 893.61,-475.06 914.9,-470"/>
<polygon fill="#000000" stroke="#000000" points="915.85,-473.38 924.9,-467.88 914.39,-466.54 915.85,-473.38"/>
<text text-anchor="middle" x="797" y="-580.3" font-family="Times,serif" font-size="14.00">.gitignore</text>
</g>
<!-- bcd9a8a4d1fc1d4deb7ab91877a0874fe869acf3 -->
<g id="node6" class="node">
<title>bcd9a8a4d1fc1d4deb7ab91877a0874fe869acf3</title>
<polygon fill="#e7e6e1" stroke="transparent" points="913,-508.5 913,-608.5 1043,-608.5 1043,-508.5 913,-508.5"/>
<text text-anchor="start" x="916" y="-595.3" font-family="monospace" font-weight="bold" font-size="14.00" fill="#000000">blob bcd9a8a</text>
<text text-anchor="start" x="916" y="-575.3" font-family="monospace" font-size="14.00" fill="#000000">Hello, planet! </text>
<text text-anchor="start" x="916" y="-560.3" font-family="monospace" font-size="14.00" fill="#000000"> &#160;&#160;&#160;&#160;&#160;&#160;&#160;&#160;&#160;&#160;&#160;&#160;&#160;&#160;</text>
<text text-anchor="start" x="916" y="-545.3" font-family="monospace" font-size="14.00" fill="#000000">Git is awesome!</text>
<text text-anchor="start" x="916" y="-530.3" font-family="monospace" font-size="14.00" fill="#000000"> &#160;&#160;&#160;&#160;&#160;&#160;&#160;&#160;&#160;&#160;&#160;&#160;&#160;&#160;</text>
<text text-anchor="start" x="916" y="-515.3" font-family="monospace" font-size="14.00" fill="#000000">:) &#160;&#160;&#160;&#160;&#160;&#160;&#160;&#160;&#160;&#160;&#160;&#160;</text>
<polygon fill="none" stroke="#000000" points="913,-508.5 913,-608.5 1043,-608.5 1043,-508.5 913,-508.5"/>
</g>
<!-- 915d884c9f093aac643aa9c2b5d04e4c33369fa2&#45;&gt;bcd9a8a4d1fc1d4deb7ab91877a0874fe869acf3 -->
<g id="edge5" class="edge">
<title>915d884c9f093aac643aa9c2b5d04e4c33369fa2&#45;&gt;bcd9a8a4d1fc1d4deb7ab91877a0874fe869acf3</title>
<path fill="none" stroke="#000000" d="M739.26,-648.14C771.15,-644.63 805.93,-638.89 837,-629.5 840.92,-628.32 872.02,-612.59 903.92,-596.24"/>
<polygon fill="#000000" stroke="#000000" points="905.61,-599.31 912.91,-591.63 902.42,-593.08 905.61,-599.31"/>
<text text-anchor="middle" x="797" y="-650.3" font-family="Times,serif" font-size="14.00">README.md</text>
</g>
<!-- 3e6f6d6801697f115ff5c67f8c7c57731cf77f79 -->
<g id="node7" class="node">
<title>3e6f6d6801697f115ff5c67f8c7c57731cf77f79</title>
<polygon fill="#e7e6e1" stroke="transparent" points="855,-631 855,-746 1101,-746 1101,-631 855,-631"/>
<text text-anchor="start" x="858" y="-732.3" font-family="monospace" font-weight="bold" font-size="14.00" fill="#000000">blob 3e6f6d6</text>
<text text-anchor="start" x="858" y="-712.3" font-family="monospace" font-size="14.00" fill="#000000">#include &lt;stdio.h&gt; &#160;&#160;&#160;&#160;&#160;&#160;&#160;&#160;&#160;&#160;</text>
<text text-anchor="start" x="858" y="-697.3" font-family="monospace" font-size="14.00" fill="#000000"> &#160;&#160;&#160;&#160;&#160;&#160;&#160;&#160;&#160;&#160;&#160;&#160;&#160;&#160;&#160;&#160;&#160;&#160;&#160;&#160;&#160;&#160;&#160;&#160;&#160;&#160;&#160;&#160;</text>
<text text-anchor="start" x="858" y="-682.3" font-family="monospace" font-size="14.00" fill="#000000">int main() { &#160;&#160;&#160;&#160;&#160;&#160;&#160;&#160;&#160;&#160;&#160;&#160;&#160;&#160;&#160;&#160;</text>
<text text-anchor="start" x="858" y="-667.3" font-family="monospace" font-size="14.00" fill="#000000"> &#160;&#160;printf(&quot;Hello, world!\n&quot;);</text>
<text text-anchor="start" x="858" y="-652.3" font-family="monospace" font-size="14.00" fill="#000000"> &#160;&#160;return 0; &#160;&#160;&#160;&#160;&#160;&#160;&#160;&#160;&#160;&#160;&#160;&#160;&#160;&#160;&#160;&#160;</text>
<text text-anchor="start" x="858" y="-637.3" font-family="monospace" font-size="14.00" fill="#000000">} &#160;&#160;&#160;&#160;&#160;&#160;&#160;&#160;&#160;&#160;&#160;&#160;&#160;&#160;&#160;&#160;&#160;&#160;&#160;&#160;&#160;&#160;&#160;&#160;&#160;&#160;&#160;</text>
<polygon fill="none" stroke="#000000" points="855,-631 855,-746 1101,-746 1101,-631 855,-631"/>
</g>
<!-- 915d884c9f093aac643aa9c2b5d04e4c33369fa2&#45;&gt;3e6f6d6801697f115ff5c67f8c7c57731cf77f79 -->
<g id="edge6" class="edge">
<title>915d884c9f093aac643aa9c2b5d04e4c33369fa2&#45;&gt;3e6f6d6801697f115ff5c67f8c7c57731cf77f79</title>
<path fill="none" stroke="#000000" d="M739.26,-665.61C745.26,-666.26 751.21,-666.9 757,-667.5 785.33,-670.46 815.74,-673.47 844.63,-676.25"/>
<polygon fill="#000000" stroke="#000000" points="844.49,-679.75 854.78,-677.22 845.16,-672.78 844.49,-679.75"/>
<text text-anchor="middle" x="797" y="-679.3" font-family="Times,serif" font-size="14.00">hello.c</text>
</g>
<!-- 0701bc912c4c687059107daf3e9a6b078d1cad18 -->
<g id="node8" class="node">
<title>0701bc912c4c687059107daf3e9a6b078d1cad18</title>
<polygon fill="#f3eee2" stroke="transparent" points="530,-539.5 530,-579.5 735,-579.5 735,-539.5 530,-539.5"/>
<text text-anchor="start" x="533.5" y="-566.3" font-family="monospace" font-weight="bold" font-size="14.00" fill="#808080">tree 0701bc9</text>
<text text-anchor="start" x="533.5" y="-546.3" font-family="monospace" font-size="14.00" fill="#808080">blob README.md (bcd9a8a)</text>
<polygon fill="none" stroke="#b3b3b3" points="530,-539.5 530,-579.5 735,-579.5 735,-539.5 530,-539.5"/>
</g>
<!-- ff475f14ac7db89aa8a42cc1ed78ff0a03482d6b&#45;&gt;0701bc912c4c687059107daf3e9a6b078d1cad18 -->
<g id="edge7" class="edge">
<title>ff475f14ac7db89aa8a42cc1ed78ff0a03482d6b&#45;&gt;0701bc912c4c687059107daf3e9a6b078d1cad18</title>
<path fill="none" stroke="#b3b3b3" d="M403.13,-560.29C436.92,-560.17 480.19,-560.02 519.96,-559.89"/>
<polygon fill="#b3b3b3" stroke="#b3b3b3" points="520,-563.39 529.98,-559.85 519.97,-556.39 520,-563.39"/>
<text text-anchor="middle" x="497.5" y="-564.3" font-family="Times,serif" font-size="14.00">tree</text>
</g>
<!-- f2f26f42ae9488629e7d657000275c2d2f42cecf -->
<g id="node9" class="node">
<title>f2f26f42ae9488629e7d657000275c2d2f42cecf</title>
<polygon fill="#ceece9" stroke="transparent" points="272.5,-256.5 272.5,-356.5 411.5,-356.5 411.5,-256.5 272.5,-256.5"/>
<text text-anchor="start" x="276" y="-343.3" font-family="monospace" font-weight="bold" font-size="14.00" fill="#808080">commit f2f26f4</text>
<text text-anchor="start" x="276" y="-323.3" font-family="monospace" font-size="14.00" fill="#808080">tree 130f7a9 &#160;&#160;&#160;</text>
<text text-anchor="start" x="276" y="-308.3" font-family="monospace" font-size="14.00" fill="#808080">parent 00d3760 &#160;</text>
<text text-anchor="start" x="276" y="-293.3" font-family="monospace" font-size="14.00" fill="#808080">author [...] &#160;&#160;&#160;</text>
<text text-anchor="start" x="276" y="-278.3" font-family="monospace" font-size="14.00" fill="#808080"> &#160;&#160;&#160;&#160;&#160;&#160;&#160;&#160;&#160;&#160;&#160;&#160;&#160;&#160;&#160;</text>
<text text-anchor="start" x="276" y="-263.3" font-family="monospace" font-size="14.00" fill="#808080">update README.md</text>
<polygon fill="none" stroke="#b3b3b3" points="272.5,-256.5 272.5,-356.5 411.5,-356.5 411.5,-256.5 272.5,-256.5"/>
</g>
<!-- ff475f14ac7db89aa8a42cc1ed78ff0a03482d6b&#45;&gt;f2f26f42ae9488629e7d657000275c2d2f42cecf -->
<g id="edge8" class="edge">
<title>ff475f14ac7db89aa8a42cc1ed78ff0a03482d6b&#45;&gt;f2f26f42ae9488629e7d657000275c2d2f42cecf</title>
<path fill="none" stroke="#b3b3b3" d="M280.98,-542.77C257.9,-533.55 232.91,-520.2 215,-501.5 194.87,-480.49 195.66,-469.54 190,-441 180.94,-395.34 221.7,-360.99 263.29,-338.43"/>
<polygon fill="#b3b3b3" stroke="#b3b3b3" points="264.91,-341.53 272.15,-333.8 261.67,-335.33 264.91,-341.53"/>
<text text-anchor="middle" x="180" y="-429.8" font-family="Times,serif" font-size="14.00">parent</text>
</g>
<!-- d6a53df8fa0be456f454f003d0f5124ac3b26728&#45;&gt;f2f26f42ae9488629e7d657000275c2d2f42cecf -->
<g id="edge10" class="edge">
<title>d6a53df8fa0be456f454f003d0f5124ac3b26728&#45;&gt;f2f26f42ae9488629e7d657000275c2d2f42cecf</title>
<path fill="none" stroke="#b3b3b3" d="M342,-392.45C342,-384.17 342,-375.51 342,-367.01"/>
<polygon fill="#b3b3b3" stroke="#b3b3b3" points="345.5,-366.75 342,-356.75 338.5,-366.76 345.5,-366.75"/>
<text text-anchor="middle" x="331.5" y="-370.8" font-family="Times,serif" font-size="14.00">parent</text>
</g>
<!-- 185925ef4192b996276486fde75fee6a8b5f2b01 -->
<g id="node10" class="node">
<title>185925ef4192b996276486fde75fee6a8b5f2b01</title>
<polygon fill="#f3eee2" stroke="transparent" points="526,-419.5 526,-489.5 739,-489.5 739,-419.5 526,-419.5"/>
<text text-anchor="start" x="529.5" y="-476.3" font-family="monospace" font-weight="bold" font-size="14.00" fill="#808080">tree 185925e</text>
<text text-anchor="start" x="529.5" y="-456.3" font-family="monospace" font-size="14.00" fill="#808080">blob .gitignore (ce01362)</text>
<text text-anchor="start" x="529.5" y="-441.3" font-family="monospace" font-size="14.00" fill="#808080">blob README.md (1bce388) </text>
<text text-anchor="start" x="529.5" y="-426.3" font-family="monospace" font-size="14.00" fill="#808080">blob hello.c (3e6f6d6) &#160;&#160;</text>
<polygon fill="none" stroke="#b3b3b3" points="526,-419.5 526,-489.5 739,-489.5 739,-419.5 526,-419.5"/>
</g>
<!-- d6a53df8fa0be456f454f003d0f5124ac3b26728&#45;&gt;185925ef4192b996276486fde75fee6a8b5f2b01 -->
<g id="edge9" class="edge">
<title>d6a53df8fa0be456f454f003d0f5124ac3b26728&#45;&gt;185925ef4192b996276486fde75fee6a8b5f2b01</title>
<path fill="none" stroke="#b3b3b3" d="M403.13,-445C435.72,-446.36 477.12,-448.08 515.69,-449.68"/>
<polygon fill="#b3b3b3" stroke="#b3b3b3" points="515.82,-453.19 525.96,-450.11 516.11,-446.2 515.82,-453.19"/>
<text text-anchor="middle" x="497.5" y="-453.3" font-family="Times,serif" font-size="14.00">tree</text>
</g>
<!-- 0701bc912c4c687059107daf3e9a6b078d1cad18&#45;&gt;bcd9a8a4d1fc1d4deb7ab91877a0874fe869acf3 -->
<g id="edge11" class="edge">
<title>0701bc912c4c687059107daf3e9a6b078d1cad18&#45;&gt;bcd9a8a4d1fc1d4deb7ab91877a0874fe869acf3</title>
<path fill="none" stroke="#b3b3b3" d="M735.09,-540.83C742.49,-539.9 749.85,-539.1 757,-538.5 805.47,-534.41 859.91,-539.28 902.51,-545.24"/>
<polygon fill="#b3b3b3" stroke="#b3b3b3" points="902.12,-548.72 912.52,-546.69 903.13,-541.79 902.12,-548.72"/>
<text text-anchor="middle" x="797" y="-542.3" font-family="Times,serif" font-size="14.00">README.md</text>
</g>
<!-- 130f7a90b97d88faa2f1ddf794ef7dace1c0c450 -->
<g id="node11" class="node">
<title>130f7a90b97d88faa2f1ddf794ef7dace1c0c450</title>
<polygon fill="#f3eee2" stroke="transparent" points="530,-308.5 530,-348.5 735,-348.5 735,-308.5 530,-308.5"/>
<text text-anchor="start" x="533.5" y="-335.3" font-family="monospace" font-weight="bold" font-size="14.00" fill="#808080">tree 130f7a9</text>
<text text-anchor="start" x="533.5" y="-315.3" font-family="monospace" font-size="14.00" fill="#808080">blob README.md (1bce388)</text>
<polygon fill="none" stroke="#b3b3b3" points="530,-308.5 530,-348.5 735,-348.5 735,-308.5 530,-308.5"/>
</g>
<!-- f2f26f42ae9488629e7d657000275c2d2f42cecf&#45;&gt;130f7a90b97d88faa2f1ddf794ef7dace1c0c450 -->
<g id="edge12" class="edge">
<title>f2f26f42ae9488629e7d657000275c2d2f42cecf&#45;&gt;130f7a90b97d88faa2f1ddf794ef7dace1c0c450</title>
<path fill="none" stroke="#b3b3b3" d="M411.74,-311.74C444.03,-314.2 483.36,-317.2 519.78,-319.98"/>
<polygon fill="#b3b3b3" stroke="#b3b3b3" points="519.72,-323.49 529.96,-320.76 520.26,-316.51 519.72,-323.49"/>
<text text-anchor="middle" x="497.5" y="-323.3" font-family="Times,serif" font-size="14.00">tree</text>
</g>
<!-- 00d3760a979ab346489628ef9f4a32ac8c9533f9 -->
<g id="node12" class="node">
<title>00d3760a979ab346489628ef9f4a32ac8c9533f9</title>
<polygon fill="#ceece9" stroke="transparent" points="219,-120.5 219,-220.5 465,-220.5 465,-120.5 219,-120.5"/>
<text text-anchor="start" x="222" y="-207.3" font-family="monospace" font-weight="bold" font-size="14.00" fill="#808080">commit 00d3760</text>
<text text-anchor="start" x="222" y="-187.3" font-family="monospace" font-size="14.00" fill="#808080">tree ebfd749 &#160;&#160;&#160;&#160;&#160;&#160;&#160;&#160;&#160;&#160;&#160;&#160;&#160;&#160;&#160;&#160;</text>
<text text-anchor="start" x="222" y="-172.3" font-family="monospace" font-size="14.00" fill="#808080">parent 4993b2e &#160;&#160;&#160;&#160;&#160;&#160;&#160;&#160;&#160;&#160;&#160;&#160;&#160;&#160;</text>
<text text-anchor="start" x="222" y="-157.3" font-family="monospace" font-size="14.00" fill="#808080">author [...] &#160;&#160;&#160;&#160;&#160;&#160;&#160;&#160;&#160;&#160;&#160;&#160;&#160;&#160;&#160;&#160;</text>
<text text-anchor="start" x="222" y="-142.3" font-family="monospace" font-size="14.00" fill="#808080"> &#160;&#160;&#160;&#160;&#160;&#160;&#160;&#160;&#160;&#160;&#160;&#160;&#160;&#160;&#160;&#160;&#160;&#160;&#160;&#160;&#160;&#160;&#160;&#160;&#160;&#160;&#160;&#160;</text>
<text text-anchor="start" x="222" y="-127.3" font-family="monospace" font-size="14.00" fill="#808080">rename hello.txt to README.md</text>
<polygon fill="none" stroke="#b3b3b3" points="219,-120.5 219,-220.5 465,-220.5 465,-120.5 219,-120.5"/>
</g>
<!-- f2f26f42ae9488629e7d657000275c2d2f42cecf&#45;&gt;00d3760a979ab346489628ef9f4a32ac8c9533f9 -->
<g id="edge13" class="edge">
<title>f2f26f42ae9488629e7d657000275c2d2f42cecf&#45;&gt;00d3760a979ab346489628ef9f4a32ac8c9533f9</title>
<path fill="none" stroke="#b3b3b3" d="M342,-256.45C342,-248.17 342,-239.51 342,-231.01"/>
<polygon fill="#b3b3b3" stroke="#b3b3b3" points="345.5,-230.75 342,-220.75 338.5,-230.76 345.5,-230.75"/>
<text text-anchor="middle" x="331.5" y="-234.8" font-family="Times,serif" font-size="14.00">parent</text>
</g>
<!-- 185925ef4192b996276486fde75fee6a8b5f2b01&#45;&gt;ce013625030ba8dba906f756967f9e9ca394464a -->
<g id="edge14" class="edge">
<title>185925ef4192b996276486fde75fee6a8b5f2b01&#45;&gt;ce013625030ba8dba906f756967f9e9ca394464a</title>
<path fill="none" stroke="#b3b3b3" d="M739.36,-457.27C796.78,-458.78 865.78,-460.59 914.6,-461.87"/>
<polygon fill="#b3b3b3" stroke="#b3b3b3" points="914.61,-465.37 924.7,-462.13 914.8,-458.37 914.61,-465.37"/>
<text text-anchor="middle" x="797" y="-464.3" font-family="Times,serif" font-size="14.00">.gitignore</text>
</g>
<!-- 185925ef4192b996276486fde75fee6a8b5f2b01&#45;&gt;3e6f6d6801697f115ff5c67f8c7c57731cf77f79 -->
<g id="edge16" class="edge">
<title>185925ef4192b996276486fde75fee6a8b5f2b01&#45;&gt;3e6f6d6801697f115ff5c67f8c7c57731cf77f79</title>
<path fill="none" stroke="#b3b3b3" d="M696.43,-489.58C712.18,-500.89 727.77,-514.66 739,-530.5 755.35,-553.56 736.48,-572.06 757,-591.5 783.53,-616.64 802.94,-597.26 837,-610.5 848.88,-615.12 861,-620.58 872.88,-626.44"/>
<polygon fill="#b3b3b3" stroke="#b3b3b3" points="871.41,-629.62 881.91,-630.99 874.56,-623.37 871.41,-629.62"/>
<text text-anchor="middle" x="797" y="-614.3" font-family="Times,serif" font-size="14.00">hello.c</text>
</g>
<!-- 1bce3880336548b24d6aadcc51e3d41359c5908d -->
<g id="node13" class="node">
<title>1bce3880336548b24d6aadcc51e3d41359c5908d</title>
<polygon fill="#f8f8f6" stroke="transparent" points="913,-340.5 913,-410.5 1043,-410.5 1043,-340.5 913,-340.5"/>
<text text-anchor="start" x="916" y="-397.3" font-family="monospace" font-weight="bold" font-size="14.00" fill="#808080">blob 1bce388</text>
<text text-anchor="start" x="916" y="-377.3" font-family="monospace" font-size="14.00" fill="#808080">Hello, planet! </text>
<text text-anchor="start" x="916" y="-362.3" font-family="monospace" font-size="14.00" fill="#808080"> &#160;&#160;&#160;&#160;&#160;&#160;&#160;&#160;&#160;&#160;&#160;&#160;&#160;&#160;</text>
<text text-anchor="start" x="916" y="-347.3" font-family="monospace" font-size="14.00" fill="#808080">Git is awesome!</text>
<polygon fill="none" stroke="#b3b3b3" points="913,-340.5 913,-410.5 1043,-410.5 1043,-340.5 913,-340.5"/>
</g>
<!-- 185925ef4192b996276486fde75fee6a8b5f2b01&#45;&gt;1bce3880336548b24d6aadcc51e3d41359c5908d -->
<g id="edge15" class="edge">
<title>185925ef4192b996276486fde75fee6a8b5f2b01&#45;&gt;1bce3880336548b24d6aadcc51e3d41359c5908d</title>
<path fill="none" stroke="#b3b3b3" d="M739.36,-430.15C792.37,-417.96 855.24,-403.5 902.99,-392.52"/>
<polygon fill="#b3b3b3" stroke="#b3b3b3" points="903.98,-395.88 912.94,-390.23 902.41,-389.06 903.98,-395.88"/>
<text text-anchor="middle" x="797" y="-428.3" font-family="Times,serif" font-size="14.00">README.md</text>
</g>
<!-- 130f7a90b97d88faa2f1ddf794ef7dace1c0c450&#45;&gt;1bce3880336548b24d6aadcc51e3d41359c5908d -->
<g id="edge17" class="edge">
<title>130f7a90b97d88faa2f1ddf794ef7dace1c0c450&#45;&gt;1bce3880336548b24d6aadcc51e3d41359c5908d</title>
<path fill="none" stroke="#b3b3b3" d="M735.06,-339.56C767.65,-343.35 803.89,-347.83 837,-352.5 858.48,-355.53 881.74,-359.2 903.03,-362.7"/>
<polygon fill="#b3b3b3" stroke="#b3b3b3" points="902.54,-366.17 912.97,-364.35 903.68,-359.26 902.54,-366.17"/>
<text text-anchor="middle" x="797" y="-356.3" font-family="Times,serif" font-size="14.00">README.md</text>
</g>
<!-- ebfd7499dae526dcbaf30e1250b1f875946729f8 -->
<g id="node14" class="node">
<title>ebfd7499dae526dcbaf30e1250b1f875946729f8</title>
<polygon fill="#f3eee2" stroke="transparent" points="530,-111.5 530,-151.5 735,-151.5 735,-111.5 530,-111.5"/>
<text text-anchor="start" x="533.5" y="-138.3" font-family="monospace" font-weight="bold" font-size="14.00" fill="#808080">tree ebfd749</text>
<text text-anchor="start" x="533.5" y="-118.3" font-family="monospace" font-size="14.00" fill="#808080">blob README.md (af5626b)</text>
<polygon fill="none" stroke="#b3b3b3" points="530,-111.5 530,-151.5 735,-151.5 735,-111.5 530,-111.5"/>
</g>
<!-- 00d3760a979ab346489628ef9f4a32ac8c9533f9&#45;&gt;ebfd7499dae526dcbaf30e1250b1f875946729f8 -->
<g id="edge18" class="edge">
<title>00d3760a979ab346489628ef9f4a32ac8c9533f9&#45;&gt;ebfd7499dae526dcbaf30e1250b1f875946729f8</title>
<path fill="none" stroke="#b3b3b3" d="M465.35,-153.96C483.32,-151.53 501.76,-149.04 519.51,-146.64"/>
<polygon fill="#b3b3b3" stroke="#b3b3b3" points="520.43,-150.05 529.87,-145.24 519.5,-143.11 520.43,-150.05"/>
<text text-anchor="middle" x="497.5" y="-155.3" font-family="Times,serif" font-size="14.00">tree</text>
</g>
<!-- 4993b2e707dafc0888cb61184f8144cec142b01e -->
<g id="node15" class="node">
<title>4993b2e707dafc0888cb61184f8144cec142b01e</title>
<polygon fill="#ceece9" stroke="transparent" points="281,0 281,-85 403,-85 403,0 281,0"/>
<text text-anchor="start" x="284" y="-71.3" font-family="monospace" font-weight="bold" font-size="14.00" fill="#808080">commit 4993b2e</text>
<text text-anchor="start" x="284" y="-51.3" font-family="monospace" font-size="14.00" fill="#808080">tree ec947e3 &#160;</text>
<text text-anchor="start" x="284" y="-36.3" font-family="monospace" font-size="14.00" fill="#808080">author [...] &#160;</text>
<text text-anchor="start" x="284" y="-21.3" font-family="monospace" font-size="14.00" fill="#808080"> &#160;&#160;&#160;&#160;&#160;&#160;&#160;&#160;&#160;&#160;&#160;&#160;&#160;</text>
<text text-anchor="start" x="284" y="-6.3" font-family="monospace" font-size="14.00" fill="#808080">initial commit</text>
<polygon fill="none" stroke="#b3b3b3" points="281,0 281,-85 403,-85 403,0 281,0"/>
</g>
<!-- 00d3760a979ab346489628ef9f4a32ac8c9533f9&#45;&gt;4993b2e707dafc0888cb61184f8144cec142b01e -->
<g id="edge19" class="edge">
<title>00d3760a979ab346489628ef9f4a32ac8c9533f9&#45;&gt;4993b2e707dafc0888cb61184f8144cec142b01e</title>
<path fill="none" stroke="#b3b3b3" d="M342,-120.07C342,-111.94 342,-103.5 342,-95.32"/>
<polygon fill="#b3b3b3" stroke="#b3b3b3" points="345.5,-95.12 342,-85.12 338.5,-95.12 345.5,-95.12"/>
<text text-anchor="middle" x="331.5" y="-99.05" font-family="Times,serif" font-size="14.00">parent</text>
</g>
<!-- af5626b4a114abcb82d63db7c8082c3c4756e51b -->
<g id="node16" class="node">
<title>af5626b4a114abcb82d63db7c8082c3c4756e51b</title>
<polygon fill="#f8f8f6" stroke="transparent" points="921,-80.5 921,-120.5 1035,-120.5 1035,-80.5 921,-80.5"/>
<text text-anchor="start" x="924" y="-107.3" font-family="monospace" font-weight="bold" font-size="14.00" fill="#808080">blob af5626b</text>
<text text-anchor="start" x="924" y="-87.3" font-family="monospace" font-size="14.00" fill="#808080">Hello, world!</text>
<polygon fill="none" stroke="#b3b3b3" points="921,-80.5 921,-120.5 1035,-120.5 1035,-80.5 921,-80.5"/>
</g>
<!-- ebfd7499dae526dcbaf30e1250b1f875946729f8&#45;&gt;af5626b4a114abcb82d63db7c8082c3c4756e51b -->
<g id="edge20" class="edge">
<title>ebfd7499dae526dcbaf30e1250b1f875946729f8&#45;&gt;af5626b4a114abcb82d63db7c8082c3c4756e51b</title>
<path fill="none" stroke="#b3b3b3" d="M735.17,-122.32C791.99,-117.2 861.16,-110.95 910.94,-106.46"/>
<polygon fill="#b3b3b3" stroke="#b3b3b3" points="911.3,-109.94 920.95,-105.56 910.67,-102.97 911.3,-109.94"/>
<text text-anchor="middle" x="797" y="-124.3" font-family="Times,serif" font-size="14.00">README.md</text>
</g>
<!-- ec947e3dd7a7752d078f1ed0cfde7457b21fef58 -->
<g id="node17" class="node">
<title>ec947e3dd7a7752d078f1ed0cfde7457b21fef58</title>
<polygon fill="#f3eee2" stroke="transparent" points="530,-44.5 530,-84.5 735,-84.5 735,-44.5 530,-44.5"/>
<text text-anchor="start" x="533.5" y="-71.3" font-family="monospace" font-weight="bold" font-size="14.00" fill="#808080">tree ec947e3</text>
<text text-anchor="start" x="533.5" y="-51.3" font-family="monospace" font-size="14.00" fill="#808080">blob hello.txt (af5626b)</text>
<polygon fill="none" stroke="#b3b3b3" points="530,-44.5 530,-84.5 735,-84.5 735,-44.5 530,-44.5"/>
</g>
<!-- 4993b2e707dafc0888cb61184f8144cec142b01e&#45;&gt;ec947e3dd7a7752d078f1ed0cfde7457b21fef58 -->
<g id="edge21" class="edge">
<title>4993b2e707dafc0888cb61184f8144cec142b01e&#45;&gt;ec947e3dd7a7752d078f1ed0cfde7457b21fef58</title>
<path fill="none" stroke="#b3b3b3" d="M403.13,-47.09C436.92,-49.66 480.19,-52.96 519.96,-55.99"/>
<polygon fill="#b3b3b3" stroke="#b3b3b3" points="519.75,-59.49 529.98,-56.76 520.28,-52.51 519.75,-59.49"/>
<text text-anchor="middle" x="497.5" y="-59.3" font-family="Times,serif" font-size="14.00">tree</text>
</g>
<!-- ec947e3dd7a7752d078f1ed0cfde7457b21fef58&#45;&gt;af5626b4a114abcb82d63db7c8082c3c4756e51b -->
<g id="edge22" class="edge">
<title>ec947e3dd7a7752d078f1ed0cfde7457b21fef58&#45;&gt;af5626b4a114abcb82d63db7c8082c3c4756e51b</title>
<path fill="none" stroke="#b3b3b3" d="M735.17,-75.16C791.99,-81.11 861.16,-88.36 910.94,-93.58"/>
<polygon fill="#b3b3b3" stroke="#b3b3b3" points="910.64,-97.06 920.95,-94.63 911.37,-90.1 910.64,-97.06"/>
<text text-anchor="middle" x="797" y="-90.3" font-family="Times,serif" font-size="14.00">hello.txt</text>
</g>
<!-- ref:main -->
<g id="node18" class="node">
<title>ref:main</title>
<polygon fill="white" stroke="black" points="139,-721.5 91,-721.5 91,-685.5 145,-685.5 145,-715.5 139,-721.5"/>
<polyline fill="none" stroke="black" points="139,-721.5 139,-715.5 "/>
<polyline fill="none" stroke="black" points="145,-715.5 139,-715.5 "/>
<text text-anchor="middle" x="118" y="-699.8" font-family="monospace" font-size="14.00">main</text>
</g>
<!-- ref:main&#45;&gt;7648f413afbda3a32b75df067f2ba69bb7f78d27 -->
<g id="edge23" class="edge">
<title>ref:main&#45;&gt;7648f413afbda3a32b75df067f2ba69bb7f78d27</title>
<path fill="none" stroke="black" d="M145.34,-703.5C160.95,-703.5 182.05,-703.5 204.64,-703.5"/>
<polygon fill="black" stroke="black" points="204.75,-707 214.75,-703.5 204.75,-700 204.75,-707"/>
</g>
<!-- ref:HEAD -->
<g id="node19" class="node">
<title>ref:HEAD</title>
<polygon fill="#fce94f" stroke="black" points="48,-721.5 0,-721.5 0,-685.5 54,-685.5 54,-715.5 48,-721.5"/>
<polyline fill="none" stroke="black" points="48,-721.5 48,-715.5 "/>
<polyline fill="none" stroke="black" points="54,-715.5 48,-715.5 "/>
<text text-anchor="middle" x="27" y="-699.8" font-family="monospace" font-size="14.00">HEAD</text>
</g>
<!-- ref:HEAD&#45;&gt;ref:main -->
<g id="edge24" class="edge">
<title>ref:HEAD&#45;&gt;ref:main</title>
<path fill="none" stroke="black" d="M54.22,-703.5C62.55,-703.5 71.91,-703.5 80.82,-703.5"/>
<polygon fill="black" stroke="black" points="80.97,-707 90.97,-703.5 80.97,-700 80.97,-707"/>
</g>
</g>
</svg>
