<?xml version="1.0" encoding="UTF-8" standalone="no"?>
<!DOCTYPE svg PUBLIC "-//W3C//DTD SVG 1.1//EN"
 "http://www.w3.org/Graphics/SVG/1.1/DTD/svg11.dtd">
<!-- Generated by graphviz version 2.42.4 (0)
 -->
<!-- Title: git_objects Pages: 1 -->
<svg width="1137pt" height="769pt"
 viewBox="0.00 0.00 1137.00 769.00" xmlns="http://www.w3.org/2000/svg" xmlns:xlink="http://www.w3.org/1999/xlink">
<g id="graph0" class="graph" transform="scale(1 1) rotate(0) translate(4 765)">
<title>git_objects</title>
<polygon fill="white" stroke="transparent" points="-4,4 -4,-765 1133,-765 1133,4 -4,4"/>
<!-- 82195ca36a67f8f98dadfe05a1b3781048cb31cd -->
<g id="node1" class="node">
<title>82195ca36a67f8f98dadfe05a1b3781048cb31cd</title>
<polygon fill="#5bc0b5" stroke="transparent" points="235,-646 235,-761 497,-761 497,-646 235,-646"/>
<text text-anchor="start" x="238" y="-747.3" font-family="monospace" font-weight="bold" font-size="14.00" fill="#000000">commit 82195ca</text>
<text text-anchor="start" x="238" y="-727.3" font-family="monospace" font-size="14.00" fill="#000000">tree 915d884 &#160;&#160;&#160;&#160;&#160;&#160;&#160;&#160;&#160;&#160;&#160;&#160;&#160;&#160;&#160;&#160;&#160;&#160;</text>
<text text-anchor="start" x="238" y="-712.3" font-family="monospace" font-size="14.00" fill="#000000">parent 3c5173a &#160;&#160;&#160;&#160;&#160;&#160;&#160;&#160;&#160;&#160;&#160;&#160;&#160;&#160;&#160;&#160;</text>
<text text-anchor="start" x="238" y="-697.3" font-family="monospace" font-size="14.00" fill="#000000">parent 287298f &#160;&#160;&#160;&#160;&#160;&#160;&#160;&#160;&#160;&#160;&#160;&#160;&#160;&#160;&#160;&#160;</text>
<text text-anchor="start" x="238" y="-682.3" font-family="monospace" font-size="14.00" fill="#000000">author [...] &#160;&#160;&#160;&#160;&#160;&#160;&#160;&#160;&#160;&#160;&#160;&#160;&#160;&#160;&#160;&#160;&#160;&#160;</text>
<text text-anchor="start" x="238" y="-667.3" font-family="monospace" font-size="14.00" fill="#000000"> &#160;&#160;&#160;&#160;&#160;&#160;&#160;&#160;&#160;&#160;&#160;&#160;&#160;&#160;&#160;&#160;&#160;&#160;&#160;&#160;&#160;&#160;&#160;&#160;&#160;&#160;&#160;&#160;&#160;&#160;</text>
<text text-anchor="start" x="238" y="-652.3" font-family="monospace" font-size="14.00" fill="#000000">merged feature branch into main</text>
<polygon fill="none" stroke="#000000" points="235,-646 235,-761 497,-761 497,-646 235,-646"/>
</g>
<!-- 915d884c9f093aac643aa9c2b5d04e4c33369fa2 -->
<g id="node2" class="node">
<title>915d884c9f093aac643aa9c2b5d04e4c33369fa2</title>
<polygon fill="#d8c59f" stroke="transparent" points="554,-618.5 554,-688.5 767,-688.5 767,-618.5 554,-618.5"/>
<text text-anchor="start" x="557.5" y="-675.3" font-family="monospace" font-weight="bold" font-size="14.00" fill="#000000">tree 915d884</text>
<text text-anchor="start" x="557.5" y="-655.3" font-family="monospace" font-size="14.00" fill="#000000">blob .gitignore (ce01362)</text>
<text text-anchor="start" x="557.5" y="-640.3" font-family="monospace" font-size="14.00" fill="#000000">blob README.md (bcd9a8a) </text>
<text text-anchor="start" x="557.5" y="-625.3" font-family="monospace" font-size="14.00" fill="#000000">blob hello.c (3e6f6d6) &#160;&#160;</text>
<polygon fill="none" stroke="#000000" points="554,-618.5 554,-688.5 767,-688.5 767,-618.5 554,-618.5"/>
</g>
<!-- 82195ca36a67f8f98dadfe05a1b3781048cb31cd&#45;&gt;915d884c9f093aac643aa9c2b5d04e4c33369fa2 -->
<g id="edge1" class="edge">
<title>82195ca36a67f8f98dadfe05a1b3781048cb31cd&#45;&gt;915d884c9f093aac643aa9c2b5d04e4c33369fa2</title>
<path fill="none" stroke="#000000" d="M497.42,-681.21C512.92,-678.56 528.66,-675.87 543.93,-673.26"/>
<polygon fill="#000000" stroke="#000000" points="544.62,-676.69 553.88,-671.55 543.44,-669.79 544.62,-676.69"/>
<text text-anchor="middle" x="525.5" y="-681.3" font-family="Times,serif" font-size="14.00">tree</text>
</g>
<!-- 3c5173aeddf401acdee6052ca11177f282f2e6f7 -->
<g id="node3" class="node">
<title>3c5173aeddf401acdee6052ca11177f282f2e6f7</title>
<polygon fill="#ceece9" stroke="transparent" points="305,-510.5 305,-610.5 427,-610.5 427,-510.5 305,-510.5"/>
<text text-anchor="start" x="308" y="-597.3" font-family="monospace" font-weight="bold" font-size="14.00" fill="#808080">commit 3c5173a</text>
<text text-anchor="start" x="308" y="-577.3" font-family="monospace" font-size="14.00" fill="#808080">tree 0701bc9 &#160;</text>
<text text-anchor="start" x="308" y="-562.3" font-family="monospace" font-size="14.00" fill="#808080">parent 9920811</text>
<text text-anchor="start" x="308" y="-547.3" font-family="monospace" font-size="14.00" fill="#808080">author [...] &#160;</text>
<text text-anchor="start" x="308" y="-532.3" font-family="monospace" font-size="14.00" fill="#808080"> &#160;&#160;&#160;&#160;&#160;&#160;&#160;&#160;&#160;&#160;&#160;&#160;&#160;</text>
<text text-anchor="start" x="308" y="-517.3" font-family="monospace" font-size="14.00" fill="#808080">added smiley &#160;</text>
<polygon fill="none" stroke="#b3b3b3" points="305,-510.5 305,-610.5 427,-610.5 427,-510.5 305,-510.5"/>
</g>
<!-- 82195ca36a67f8f98dadfe05a1b3781048cb31cd&#45;&gt;3c5173aeddf401acdee6052ca11177f282f2e6f7 -->
<g id="edge2" class="edge">
<title>82195ca36a67f8f98dadfe05a1b3781048cb31cd&#45;&gt;3c5173aeddf401acdee6052ca11177f282f2e6f7</title>
<path fill="none" stroke="#b3b3b3" d="M366,-645.92C366,-637.59 366,-628.99 366,-620.6"/>
<polygon fill="#b3b3b3" stroke="#b3b3b3" points="369.5,-620.51 366,-610.51 362.5,-620.51 369.5,-620.51"/>
<text text-anchor="middle" x="355.5" y="-624.55" font-family="Times,serif" font-size="14.00">parent</text>
</g>
<!-- 287298f7cfc0e2c7629ec7b9f61972b24b97546f -->
<g id="node4" class="node">
<title>287298f7cfc0e2c7629ec7b9f61972b24b97546f</title>
<polygon fill="#ceece9" stroke="transparent" points="305,-392.5 305,-492.5 427,-492.5 427,-392.5 305,-392.5"/>
<text text-anchor="start" x="308" y="-479.3" font-family="monospace" font-weight="bold" font-size="14.00" fill="#808080">commit 287298f</text>
<text text-anchor="start" x="308" y="-459.3" font-family="monospace" font-size="14.00" fill="#808080">tree 185925e &#160;</text>
<text text-anchor="start" x="308" y="-444.3" font-family="monospace" font-size="14.00" fill="#808080">parent 9920811</text>
<text text-anchor="start" x="308" y="-429.3" font-family="monospace" font-size="14.00" fill="#808080">author [...] &#160;</text>
<text text-anchor="start" x="308" y="-414.3" font-family="monospace" font-size="14.00" fill="#808080"> &#160;&#160;&#160;&#160;&#160;&#160;&#160;&#160;&#160;&#160;&#160;&#160;&#160;</text>
<text text-anchor="start" x="308" y="-399.3" font-family="monospace" font-size="14.00" fill="#808080">added hello.c </text>
<polygon fill="none" stroke="#b3b3b3" points="305,-392.5 305,-492.5 427,-492.5 427,-392.5 305,-392.5"/>
</g>
<!-- 82195ca36a67f8f98dadfe05a1b3781048cb31cd&#45;&gt;287298f7cfc0e2c7629ec7b9f61972b24b97546f -->
<g id="edge3" class="edge">
<title>82195ca36a67f8f98dadfe05a1b3781048cb31cd&#45;&gt;287298f7cfc0e2c7629ec7b9f61972b24b97546f</title>
<path fill="none" stroke="#b3b3b3" d="M249.61,-645.73C222.56,-623.75 203.31,-595.71 210,-562 215.66,-533.46 214.75,-522.39 235,-501.5 251.48,-484.49 273.76,-471.99 295.26,-462.98"/>
<polygon fill="#b3b3b3" stroke="#b3b3b3" points="296.74,-466.16 304.74,-459.21 294.15,-459.65 296.74,-466.16"/>
<text text-anchor="middle" x="200" y="-565.8" font-family="Times,serif" font-size="14.00">parent</text>
</g>
<!-- ce013625030ba8dba906f756967f9e9ca394464a -->
<g id="node5" class="node">
<title>ce013625030ba8dba906f756967f9e9ca394464a</title>
<polygon fill="#e7e6e1" stroke="transparent" points="953,-443.5 953,-483.5 1059,-483.5 1059,-443.5 953,-443.5"/>
<text text-anchor="start" x="956" y="-470.3" font-family="monospace" font-weight="bold" font-size="14.00" fill="#000000">blob ce01362</text>
<text text-anchor="start" x="956" y="-450.3" font-family="monospace" font-size="14.00" fill="#000000">hello</text>
<polygon fill="none" stroke="#000000" points="953,-443.5 953,-483.5 1059,-483.5 1059,-443.5 953,-443.5"/>
</g>
<!-- 915d884c9f093aac643aa9c2b5d04e4c33369fa2&#45;&gt;ce013625030ba8dba906f756967f9e9ca394464a -->
<g id="edge4" class="edge">
<title>915d884c9f093aac643aa9c2b5d04e4c33369fa2&#45;&gt;ce013625030ba8dba906f756967f9e9ca394464a</title>
<path fill="none" stroke="#000000" d="M719.23,-618.45C734.8,-608.85 751.61,-598.37 767,-588.5 775.09,-583.31 776.28,-580.54 785,-576.5 818.57,-560.94 838.3,-579.11 865,-553.5 883.26,-535.99 864.8,-517.07 883,-499.5 899.11,-483.94 921.61,-475.06 942.9,-470"/>
<polygon fill="#000000" stroke="#000000" points="943.85,-473.38 952.9,-467.88 942.39,-466.54 943.85,-473.38"/>
<text text-anchor="middle" x="825" y="-580.3" font-family="Times,serif" font-size="14.00">.gitignore</text>
</g>
<!-- bcd9a8a4d1fc1d4deb7ab91877a0874fe869acf3 -->
<g id="node6" class="node">
<title>bcd9a8a4d1fc1d4deb7ab91877a0874fe869acf3</title>
<polygon fill="#e7e6e1" stroke="transparent" points="941,-508.5 941,-608.5 1071,-608.5 1071,-508.5 941,-508.5"/>
<text text-anchor="start" x="944" y="-595.3" font-family="monospace" font-weight="bold" font-size="14.00" fill="#000000">blob bcd9a8a</text>
<text text-anchor="start" x="944" y="-575.3" font-family="monospace" font-size="14.00" fill="#000000">Hello, planet! </text>
<text text-anchor="start" x="944" y="-560.3" font-family="monospace" font-size="14.00" fill="#000000"> &#160;&#160;&#160;&#160;&#160;&#160;&#160;&#160;&#160;&#160;&#160;&#160;&#160;&#160;</text>
<text text-anchor="start" x="944" y="-545.3" font-family="monospace" font-size="14.00" fill="#000000">Git is awesome!</text>
<text text-anchor="start" x="944" y="-530.3" font-family="monospace" font-size="14.00" fill="#000000"> &#160;&#160;&#160;&#160;&#160;&#160;&#160;&#160;&#160;&#160;&#160;&#160;&#160;&#160;</text>
<text text-anchor="start" x="944" y="-515.3" font-family="monospace" font-size="14.00" fill="#000000">:) &#160;&#160;&#160;&#160;&#160;&#160;&#160;&#160;&#160;&#160;&#160;&#160;</text>
<polygon fill="none" stroke="#000000" points="941,-508.5 941,-608.5 1071,-608.5 1071,-508.5 941,-508.5"/>
</g>
<!-- 915d884c9f093aac643aa9c2b5d04e4c33369fa2&#45;&gt;bcd9a8a4d1fc1d4deb7ab91877a0874fe869acf3 -->
<g id="edge5" class="edge">
<title>915d884c9f093aac643aa9c2b5d04e4c33369fa2&#45;&gt;bcd9a8a4d1fc1d4deb7ab91877a0874fe869acf3</title>
<path fill="none" stroke="#000000" d="M767.26,-648.14C799.15,-644.63 833.93,-638.89 865,-629.5 868.92,-628.32 900.02,-612.59 931.92,-596.24"/>
<polygon fill="#000000" stroke="#000000" points="933.61,-599.31 940.91,-591.63 930.42,-593.08 933.61,-599.31"/>
<text text-anchor="middle" x="825" y="-650.3" font-family="Times,serif" font-size="14.00">README.md</text>
</g>
<!-- 3e6f6d6801697f115ff5c67f8c7c57731cf77f79 -->
<g id="node7" class="node">
<title>3e6f6d6801697f115ff5c67f8c7c57731cf77f79</title>
<polygon fill="#e7e6e1" stroke="transparent" points="883,-631 883,-746 1129,-746 1129,-631 883,-631"/>
<text text-anchor="start" x="886" y="-732.3" font-family="monospace" font-weight="bold" font-size="14.00" fill="#000000">blob 3e6f6d6</text>
<text text-anchor="start" x="886" y="-712.3" font-family="monospace" font-size="14.00" fill="#000000">#include &lt;stdio.h&gt; &#160;&#160;&#160;&#160;&#160;&#160;&#160;&#160;&#160;&#160;</text>
<text text-anchor="start" x="886" y="-697.3" font-family="monospace" font-size="14.00" fill="#000000"> &#160;&#160;&#160;&#160;&#160;&#160;&#160;&#160;&#160;&#160;&#160;&#160;&#160;&#160;&#160;&#160;&#160;&#160;&#160;&#160;&#160;&#160;&#160;&#160;&#160;&#160;&#160;&#160;</text>
<text text-anchor="start" x="886" y="-682.3" font-family="monospace" font-size="14.00" fill="#000000">int main() { &#160;&#160;&#160;&#160;&#160;&#160;&#160;&#160;&#160;&#160;&#160;&#160;&#160;&#160;&#160;&#160;</text>
<text text-anchor="start" x="886" y="-667.3" font-family="monospace" font-size="14.00" fill="#000000"> &#160;&#160;printf(&quot;Hello, world!\n&quot;);</text>
<text text-anchor="start" x="886" y="-652.3" font-family="monospace" font-size="14.00" fill="#000000"> &#160;&#160;return 0; &#160;&#160;&#160;&#160;&#160;&#160;&#160;&#160;&#160;&#160;&#160;&#160;&#160;&#160;&#160;&#160;</text>
<text text-anchor="start" x="886" y="-637.3" font-family="monospace" font-size="14.00" fill="#000000">} &#160;&#160;&#160;&#160;&#160;&#160;&#160;&#160;&#160;&#160;&#160;&#160;&#160;&#160;&#160;&#160;&#160;&#160;&#160;&#160;&#160;&#160;&#160;&#160;&#160;&#160;&#160;</text>
<polygon fill="none" stroke="#000000" points="883,-631 883,-746 1129,-746 1129,-631 883,-631"/>
</g>
<!-- 915d884c9f093aac643aa9c2b5d04e4c33369fa2&#45;&gt;3e6f6d6801697f115ff5c67f8c7c57731cf77f79 -->
<g id="edge6" class="edge">
<title>915d884c9f093aac643aa9c2b5d04e4c33369fa2&#45;&gt;3e6f6d6801697f115ff5c67f8c7c57731cf77f79</title>
<path fill="none" stroke="#000000" d="M767.26,-665.61C773.26,-666.26 779.21,-666.9 785,-667.5 813.33,-670.46 843.74,-673.47 872.63,-676.25"/>
<polygon fill="#000000" stroke="#000000" points="872.49,-679.75 882.78,-677.22 873.16,-672.78 872.49,-679.75"/>
<text text-anchor="middle" x="825" y="-679.3" font-family="Times,serif" font-size="14.00">hello.c</text>
</g>
<!-- 0701bc912c4c687059107daf3e9a6b078d1cad18 -->
<g id="node8" class="node">
<title>0701bc912c4c687059107daf3e9a6b078d1cad18</title>
<polygon fill="#f3eee2" stroke="transparent" points="558,-539.5 558,-579.5 763,-579.5 763,-539.5 558,-539.5"/>
<text text-anchor="start" x="561.5" y="-566.3" font-family="monospace" font-weight="bold" font-size="14.00" fill="#808080">tree 0701bc9</text>
<text text-anchor="start" x="561.5" y="-546.3" font-family="monospace" font-size="14.00" fill="#808080">blob README.md (bcd9a8a)</text>
<polygon fill="none" stroke="#b3b3b3" points="558,-539.5 558,-579.5 763,-579.5 763,-539.5 558,-539.5"/>
</g>
<!-- 3c5173aeddf401acdee6052ca11177f282f2e6f7&#45;&gt;0701bc912c4c687059107daf3e9a6b078d1cad18 -->
<g id="edge7" class="edge">
<title>3c5173aeddf401acdee6052ca11177f282f2e6f7&#45;&gt;0701bc912c4c687059107daf3e9a6b078d1cad18</title>
<path fill="none" stroke="#b3b3b3" d="M427.25,-560.29C462.01,-560.18 506.83,-560.02 547.81,-559.88"/>
<polygon fill="#b3b3b3" stroke="#b3b3b3" points="547.87,-563.38 557.86,-559.85 547.84,-556.38 547.87,-563.38"/>
<text text-anchor="middle" x="525.5" y="-564.3" font-family="Times,serif" font-size="14.00">tree</text>
</g>
<!-- 9920811a943b777209551d26953e2eb7a13a45ad -->
<g id="node9" class="node">
<title>9920811a943b777209551d26953e2eb7a13a45ad</title>
<polygon fill="#ceece9" stroke="transparent" points="292.5,-256.5 292.5,-356.5 439.5,-356.5 439.5,-256.5 292.5,-256.5"/>
<text text-anchor="start" x="296" y="-343.3" font-family="monospace" font-weight="bold" font-size="14.00" fill="#808080">commit 9920811</text>
<text text-anchor="start" x="296" y="-323.3" font-family="monospace" font-size="14.00" fill="#808080">tree 130f7a9 &#160;&#160;&#160;&#160;</text>
<text text-anchor="start" x="296" y="-308.3" font-family="monospace" font-size="14.00" fill="#808080">parent c3b3705 &#160;&#160;</text>
<text text-anchor="start" x="296" y="-293.3" font-family="monospace" font-size="14.00" fill="#808080">author [...] &#160;&#160;&#160;&#160;</text>
<text text-anchor="start" x="296" y="-278.3" font-family="monospace" font-size="14.00" fill="#808080"> &#160;&#160;&#160;&#160;&#160;&#160;&#160;&#160;&#160;&#160;&#160;&#160;&#160;&#160;&#160;&#160;</text>
<text text-anchor="start" x="296" y="-263.3" font-family="monospace" font-size="14.00" fill="#808080">updated README.md</text>
<polygon fill="none" stroke="#b3b3b3" points="292.5,-256.5 292.5,-356.5 439.5,-356.5 439.5,-256.5 292.5,-256.5"/>
</g>
<!-- 3c5173aeddf401acdee6052ca11177f282f2e6f7&#45;&gt;9920811a943b777209551d26953e2eb7a13a45ad -->
<g id="edge8" class="edge">
<title>3c5173aeddf401acdee6052ca11177f282f2e6f7&#45;&gt;9920811a943b777209551d26953e2eb7a13a45ad</title>
<path fill="none" stroke="#b3b3b3" d="M304.79,-545.46C279.94,-536.49 252.93,-522.6 235,-501.5 159.87,-413.1 192.92,-422 210,-393 226.24,-365.43 254.78,-346.02 283.05,-332.68"/>
<polygon fill="#b3b3b3" stroke="#b3b3b3" points="284.52,-335.86 292.2,-328.56 281.64,-329.48 284.52,-335.86"/>
<text text-anchor="middle" x="200" y="-396.8" font-family="Times,serif" font-size="14.00">parent</text>
</g>
<!-- 287298f7cfc0e2c7629ec7b9f61972b24b97546f&#45;&gt;9920811a943b777209551d26953e2eb7a13a45ad -->
<g id="edge10" class="edge">
<title>287298f7cfc0e2c7629ec7b9f61972b24b97546f&#45;&gt;9920811a943b777209551d26953e2eb7a13a45ad</title>
<path fill="none" stroke="#b3b3b3" d="M366,-392.45C366,-384.17 366,-375.51 366,-367.01"/>
<polygon fill="#b3b3b3" stroke="#b3b3b3" points="369.5,-366.75 366,-356.75 362.5,-366.76 369.5,-366.75"/>
<text text-anchor="middle" x="355.5" y="-370.8" font-family="Times,serif" font-size="14.00">parent</text>
</g>
<!-- 185925ef4192b996276486fde75fee6a8b5f2b01 -->
<g id="node10" class="node">
<title>185925ef4192b996276486fde75fee6a8b5f2b01</title>
<polygon fill="#f3eee2" stroke="transparent" points="554,-419.5 554,-489.5 767,-489.5 767,-419.5 554,-419.5"/>
<text text-anchor="start" x="557.5" y="-476.3" font-family="monospace" font-weight="bold" font-size="14.00" fill="#808080">tree 185925e</text>
<text text-anchor="start" x="557.5" y="-456.3" font-family="monospace" font-size="14.00" fill="#808080">blob .gitignore (ce01362)</text>
<text text-anchor="start" x="557.5" y="-441.3" font-family="monospace" font-size="14.00" fill="#808080">blob README.md (1bce388) </text>
<text text-anchor="start" x="557.5" y="-426.3" font-family="monospace" font-size="14.00" fill="#808080">blob hello.c (3e6f6d6) &#160;&#160;</text>
<polygon fill="none" stroke="#b3b3b3" points="554,-419.5 554,-489.5 767,-489.5 767,-419.5 554,-419.5"/>
</g>
<!-- 287298f7cfc0e2c7629ec7b9f61972b24b97546f&#45;&gt;185925ef4192b996276486fde75fee6a8b5f2b01 -->
<g id="edge9" class="edge">
<title>287298f7cfc0e2c7629ec7b9f61972b24b97546f&#45;&gt;185925ef4192b996276486fde75fee6a8b5f2b01</title>
<path fill="none" stroke="#b3b3b3" d="M427.25,-444.97C460.86,-446.35 503.87,-448.12 543.72,-449.75"/>
<polygon fill="#b3b3b3" stroke="#b3b3b3" points="543.64,-453.25 553.77,-450.16 543.93,-446.26 543.64,-453.25"/>
<text text-anchor="middle" x="525.5" y="-453.3" font-family="Times,serif" font-size="14.00">tree</text>
</g>
<!-- 0701bc912c4c687059107daf3e9a6b078d1cad18&#45;&gt;bcd9a8a4d1fc1d4deb7ab91877a0874fe869acf3 -->
<g id="edge11" class="edge">
<title>0701bc912c4c687059107daf3e9a6b078d1cad18&#45;&gt;bcd9a8a4d1fc1d4deb7ab91877a0874fe869acf3</title>
<path fill="none" stroke="#b3b3b3" d="M763.09,-540.83C770.49,-539.9 777.85,-539.1 785,-538.5 833.47,-534.41 887.91,-539.28 930.51,-545.24"/>
<polygon fill="#b3b3b3" stroke="#b3b3b3" points="930.12,-548.72 940.52,-546.69 931.13,-541.79 930.12,-548.72"/>
<text text-anchor="middle" x="825" y="-542.3" font-family="Times,serif" font-size="14.00">README.md</text>
</g>
<!-- 130f7a90b97d88faa2f1ddf794ef7dace1c0c450 -->
<g id="node11" class="node">
<title>130f7a90b97d88faa2f1ddf794ef7dace1c0c450</title>
<polygon fill="#f3eee2" stroke="transparent" points="558,-308.5 558,-348.5 763,-348.5 763,-308.5 558,-308.5"/>
<text text-anchor="start" x="561.5" y="-335.3" font-family="monospace" font-weight="bold" font-size="14.00" fill="#808080">tree 130f7a9</text>
<text text-anchor="start" x="561.5" y="-315.3" font-family="monospace" font-size="14.00" fill="#808080">blob README.md (1bce388)</text>
<polygon fill="none" stroke="#b3b3b3" points="558,-308.5 558,-348.5 763,-348.5 763,-308.5 558,-308.5"/>
</g>
<!-- 9920811a943b777209551d26953e2eb7a13a45ad&#45;&gt;130f7a90b97d88faa2f1ddf794ef7dace1c0c450 -->
<g id="edge12" class="edge">
<title>9920811a943b777209551d26953e2eb7a13a45ad&#45;&gt;130f7a90b97d88faa2f1ddf794ef7dace1c0c450</title>
<path fill="none" stroke="#b3b3b3" d="M439.68,-311.97C472.31,-314.42 511.55,-317.37 547.79,-320.1"/>
<polygon fill="#b3b3b3" stroke="#b3b3b3" points="547.69,-323.6 557.92,-320.86 548.21,-316.62 547.69,-323.6"/>
<text text-anchor="middle" x="525.5" y="-323.3" font-family="Times,serif" font-size="14.00">tree</text>
</g>
<!-- c3b3705be14e463aadcc5c7fadda6636e187767a -->
<g id="node12" class="node">
<title>c3b3705be14e463aadcc5c7fadda6636e187767a</title>
<polygon fill="#ceece9" stroke="transparent" points="243,-120.5 243,-220.5 489,-220.5 489,-120.5 243,-120.5"/>
<text text-anchor="start" x="246" y="-207.3" font-family="monospace" font-weight="bold" font-size="14.00" fill="#808080">commit c3b3705</text>
<text text-anchor="start" x="246" y="-187.3" font-family="monospace" font-size="14.00" fill="#808080">tree ebfd749 &#160;&#160;&#160;&#160;&#160;&#160;&#160;&#160;&#160;&#160;&#160;&#160;&#160;&#160;&#160;&#160;</text>
<text text-anchor="start" x="246" y="-172.3" font-family="monospace" font-size="14.00" fill="#808080">parent 8f038d7 &#160;&#160;&#160;&#160;&#160;&#160;&#160;&#160;&#160;&#160;&#160;&#160;&#160;&#160;</text>
<text text-anchor="start" x="246" y="-157.3" font-family="monospace" font-size="14.00" fill="#808080">author [...] &#160;&#160;&#160;&#160;&#160;&#160;&#160;&#160;&#160;&#160;&#160;&#160;&#160;&#160;&#160;&#160;</text>
<text text-anchor="start" x="246" y="-142.3" font-family="monospace" font-size="14.00" fill="#808080"> &#160;&#160;&#160;&#160;&#160;&#160;&#160;&#160;&#160;&#160;&#160;&#160;&#160;&#160;&#160;&#160;&#160;&#160;&#160;&#160;&#160;&#160;&#160;&#160;&#160;&#160;&#160;&#160;</text>
<text text-anchor="start" x="246" y="-127.3" font-family="monospace" font-size="14.00" fill="#808080">rename hello.txt to README.md</text>
<polygon fill="none" stroke="#b3b3b3" points="243,-120.5 243,-220.5 489,-220.5 489,-120.5 243,-120.5"/>
</g>
<!-- 9920811a943b777209551d26953e2eb7a13a45ad&#45;&gt;c3b3705be14e463aadcc5c7fadda6636e187767a -->
<g id="edge13" class="edge">
<title>9920811a943b777209551d26953e2eb7a13a45ad&#45;&gt;c3b3705be14e463aadcc5c7fadda6636e187767a</title>
<path fill="none" stroke="#b3b3b3" d="M366,-256.45C366,-248.17 366,-239.51 366,-231.01"/>
<polygon fill="#b3b3b3" stroke="#b3b3b3" points="369.5,-230.75 366,-220.75 362.5,-230.76 369.5,-230.75"/>
<text text-anchor="middle" x="355.5" y="-234.8" font-family="Times,serif" font-size="14.00">parent</text>
</g>
<!-- 185925ef4192b996276486fde75fee6a8b5f2b01&#45;&gt;ce013625030ba8dba906f756967f9e9ca394464a -->
<g id="edge14" class="edge">
<title>185925ef4192b996276486fde75fee6a8b5f2b01&#45;&gt;ce013625030ba8dba906f756967f9e9ca394464a</title>
<path fill="none" stroke="#b3b3b3" d="M767.36,-457.27C824.78,-458.78 893.78,-460.59 942.6,-461.87"/>
<polygon fill="#b3b3b3" stroke="#b3b3b3" points="942.61,-465.37 952.7,-462.13 942.8,-458.37 942.61,-465.37"/>
<text text-anchor="middle" x="825" y="-464.3" font-family="Times,serif" font-size="14.00">.gitignore</text>
</g>
<!-- 185925ef4192b996276486fde75fee6a8b5f2b01&#45;&gt;3e6f6d6801697f115ff5c67f8c7c57731cf77f79 -->
<g id="edge16" class="edge">
<title>185925ef4192b996276486fde75fee6a8b5f2b01&#45;&gt;3e6f6d6801697f115ff5c67f8c7c57731cf77f79</title>
<path fill="none" stroke="#b3b3b3" d="M724.43,-489.58C740.18,-500.89 755.77,-514.66 767,-530.5 783.35,-553.56 764.48,-572.06 785,-591.5 811.53,-616.64 830.94,-597.26 865,-610.5 876.88,-615.12 889,-620.58 900.88,-626.44"/>
<polygon fill="#b3b3b3" stroke="#b3b3b3" points="899.41,-629.62 909.91,-630.99 902.56,-623.37 899.41,-629.62"/>
<text text-anchor="middle" x="825" y="-614.3" font-family="Times,serif" font-size="14.00">hello.c</text>
</g>
<!-- 1bce3880336548b24d6aadcc51e3d41359c5908d -->
<g id="node13" class="node">
<title>1bce3880336548b24d6aadcc51e3d41359c5908d</title>
<polygon fill="#f8f8f6" stroke="transparent" points="941,-340.5 941,-410.5 1071,-410.5 1071,-340.5 941,-340.5"/>
<text text-anchor="start" x="944" y="-397.3" font-family="monospace" font-weight="bold" font-size="14.00" fill="#808080">blob 1bce388</text>
<text text-anchor="start" x="944" y="-377.3" font-family="monospace" font-size="14.00" fill="#808080">Hello, planet! </text>
<text text-anchor="start" x="944" y="-362.3" font-family="monospace" font-size="14.00" fill="#808080"> &#160;&#160;&#160;&#160;&#160;&#160;&#160;&#160;&#160;&#160;&#160;&#160;&#160;&#160;</text>
<text text-anchor="start" x="944" y="-347.3" font-family="monospace" font-size="14.00" fill="#808080">Git is awesome!</text>
<polygon fill="none" stroke="#b3b3b3" points="941,-340.5 941,-410.5 1071,-410.5 1071,-340.5 941,-340.5"/>
</g>
<!-- 185925ef4192b996276486fde75fee6a8b5f2b01&#45;&gt;1bce3880336548b24d6aadcc51e3d41359c5908d -->
<g id="edge15" class="edge">
<title>185925ef4192b996276486fde75fee6a8b5f2b01&#45;&gt;1bce3880336548b24d6aadcc51e3d41359c5908d</title>
<path fill="none" stroke="#b3b3b3" d="M767.36,-430.15C820.37,-417.96 883.24,-403.5 930.99,-392.52"/>
<polygon fill="#b3b3b3" stroke="#b3b3b3" points="931.98,-395.88 940.94,-390.23 930.41,-389.06 931.98,-395.88"/>
<text text-anchor="middle" x="825" y="-428.3" font-family="Times,serif" font-size="14.00">README.md</text>
</g>
<!-- 130f7a90b97d88faa2f1ddf794ef7dace1c0c450&#45;&gt;1bce3880336548b24d6aadcc51e3d41359c5908d -->
<g id="edge17" class="edge">
<title>130f7a90b97d88faa2f1ddf794ef7dace1c0c450&#45;&gt;1bce3880336548b24d6aadcc51e3d41359c5908d</title>
<path fill="none" stroke="#b3b3b3" d="M763.06,-339.56C795.65,-343.35 831.89,-347.83 865,-352.5 886.48,-355.53 909.74,-359.2 931.03,-362.7"/>
<polygon fill="#b3b3b3" stroke="#b3b3b3" points="930.54,-366.17 940.97,-364.35 931.68,-359.26 930.54,-366.17"/>
<text text-anchor="middle" x="825" y="-356.3" font-family="Times,serif" font-size="14.00">README.md</text>
</g>
<!-- ebfd7499dae526dcbaf30e1250b1f875946729f8 -->
<g id="node14" class="node">
<title>ebfd7499dae526dcbaf30e1250b1f875946729f8</title>
<polygon fill="#f3eee2" stroke="transparent" points="558,-111.5 558,-151.5 763,-151.5 763,-111.5 558,-111.5"/>
<text text-anchor="start" x="561.5" y="-138.3" font-family="monospace" font-weight="bold" font-size="14.00" fill="#808080">tree ebfd749</text>
<text text-anchor="start" x="561.5" y="-118.3" font-family="monospace" font-size="14.00" fill="#808080">blob README.md (af5626b)</text>
<polygon fill="none" stroke="#b3b3b3" points="558,-111.5 558,-151.5 763,-151.5 763,-111.5 558,-111.5"/>
</g>
<!-- c3b3705be14e463aadcc5c7fadda6636e187767a&#45;&gt;ebfd7499dae526dcbaf30e1250b1f875946729f8 -->
<g id="edge18" class="edge">
<title>c3b3705be14e463aadcc5c7fadda6636e187767a&#45;&gt;ebfd7499dae526dcbaf30e1250b1f875946729f8</title>
<path fill="none" stroke="#b3b3b3" d="M489.35,-154.19C508.59,-151.62 528.4,-148.98 547.4,-146.45"/>
<polygon fill="#b3b3b3" stroke="#b3b3b3" points="548.1,-149.88 557.55,-145.09 547.18,-142.95 548.1,-149.88"/>
<text text-anchor="middle" x="525.5" y="-154.3" font-family="Times,serif" font-size="14.00">tree</text>
</g>
<!-- 8f038d70a4e1b2008ff1e29146486d0be165ab87 -->
<g id="node15" class="node">
<title>8f038d70a4e1b2008ff1e29146486d0be165ab87</title>
<polygon fill="#ceece9" stroke="transparent" points="305,0 305,-85 427,-85 427,0 305,0"/>
<text text-anchor="start" x="308" y="-71.3" font-family="monospace" font-weight="bold" font-size="14.00" fill="#808080">commit 8f038d7</text>
<text text-anchor="start" x="308" y="-51.3" font-family="monospace" font-size="14.00" fill="#808080">tree ec947e3 &#160;</text>
<text text-anchor="start" x="308" y="-36.3" font-family="monospace" font-size="14.00" fill="#808080">author [...] &#160;</text>
<text text-anchor="start" x="308" y="-21.3" font-family="monospace" font-size="14.00" fill="#808080"> &#160;&#160;&#160;&#160;&#160;&#160;&#160;&#160;&#160;&#160;&#160;&#160;&#160;</text>
<text text-anchor="start" x="308" y="-6.3" font-family="monospace" font-size="14.00" fill="#808080">initial commit</text>
<polygon fill="none" stroke="#b3b3b3" points="305,0 305,-85 427,-85 427,0 305,0"/>
</g>
<!-- c3b3705be14e463aadcc5c7fadda6636e187767a&#45;&gt;8f038d70a4e1b2008ff1e29146486d0be165ab87 -->
<g id="edge19" class="edge">
<title>c3b3705be14e463aadcc5c7fadda6636e187767a&#45;&gt;8f038d70a4e1b2008ff1e29146486d0be165ab87</title>
<path fill="none" stroke="#b3b3b3" d="M366,-120.07C366,-111.94 366,-103.5 366,-95.32"/>
<polygon fill="#b3b3b3" stroke="#b3b3b3" points="369.5,-95.12 366,-85.12 362.5,-95.12 369.5,-95.12"/>
<text text-anchor="middle" x="355.5" y="-99.05" font-family="Times,serif" font-size="14.00">parent</text>
</g>
<!-- af5626b4a114abcb82d63db7c8082c3c4756e51b -->
<g id="node16" class="node">
<title>af5626b4a114abcb82d63db7c8082c3c4756e51b</title>
<polygon fill="#f8f8f6" stroke="transparent" points="949,-80.5 949,-120.5 1063,-120.5 1063,-80.5 949,-80.5"/>
<text text-anchor="start" x="952" y="-107.3" font-family="monospace" font-weight="bold" font-size="14.00" fill="#808080">blob af5626b</text>
<text text-anchor="start" x="952" y="-87.3" font-family="monospace" font-size="14.00" fill="#808080">Hello, world!</text>
<polygon fill="none" stroke="#b3b3b3" points="949,-80.5 949,-120.5 1063,-120.5 1063,-80.5 949,-80.5"/>
</g>
<!-- ebfd7499dae526dcbaf30e1250b1f875946729f8&#45;&gt;af5626b4a114abcb82d63db7c8082c3c4756e51b -->
<g id="edge20" class="edge">
<title>ebfd7499dae526dcbaf30e1250b1f875946729f8&#45;&gt;af5626b4a114abcb82d63db7c8082c3c4756e51b</title>
<path fill="none" stroke="#b3b3b3" d="M763.17,-122.32C819.99,-117.2 889.16,-110.95 938.94,-106.46"/>
<polygon fill="#b3b3b3" stroke="#b3b3b3" points="939.3,-109.94 948.95,-105.56 938.67,-102.97 939.3,-109.94"/>
<text text-anchor="middle" x="825" y="-124.3" font-family="Times,serif" font-size="14.00">README.md</text>
</g>
<!-- ec947e3dd7a7752d078f1ed0cfde7457b21fef58 -->
<g id="node17" class="node">
<title>ec947e3dd7a7752d078f1ed0cfde7457b21fef58</title>
<polygon fill="#f3eee2" stroke="transparent" points="558,-44.5 558,-84.5 763,-84.5 763,-44.5 558,-44.5"/>
<text text-anchor="start" x="561.5" y="-71.3" font-family="monospace" font-weight="bold" font-size="14.00" fill="#808080">tree ec947e3</text>
<text text-anchor="start" x="561.5" y="-51.3" font-family="monospace" font-size="14.00" fill="#808080">blob hello.txt (af5626b)</text>
<polygon fill="none" stroke="#b3b3b3" points="558,-44.5 558,-84.5 763,-84.5 763,-44.5 558,-44.5"/>
</g>
<!-- 8f038d70a4e1b2008ff1e29146486d0be165ab87&#45;&gt;ec947e3dd7a7752d078f1ed0cfde7457b21fef58 -->
<g id="edge21" class="edge">
<title>8f038d70a4e1b2008ff1e29146486d0be165ab87&#45;&gt;ec947e3dd7a7752d078f1ed0cfde7457b21fef58</title>
<path fill="none" stroke="#b3b3b3" d="M427.25,-47.03C462.01,-49.65 506.83,-53.02 547.81,-56.1"/>
<polygon fill="#b3b3b3" stroke="#b3b3b3" points="547.62,-59.6 557.86,-56.85 548.15,-52.61 547.62,-59.6"/>
<text text-anchor="middle" x="525.5" y="-59.3" font-family="Times,serif" font-size="14.00">tree</text>
</g>
<!-- ec947e3dd7a7752d078f1ed0cfde7457b21fef58&#45;&gt;af5626b4a114abcb82d63db7c8082c3c4756e51b -->
<g id="edge22" class="edge">
<title>ec947e3dd7a7752d078f1ed0cfde7457b21fef58&#45;&gt;af5626b4a114abcb82d63db7c8082c3c4756e51b</title>
<path fill="none" stroke="#b3b3b3" d="M763.17,-75.16C819.99,-81.11 889.16,-88.36 938.94,-93.58"/>
<polygon fill="#b3b3b3" stroke="#b3b3b3" points="938.64,-97.06 948.95,-94.63 939.37,-90.1 938.64,-97.06"/>
<text text-anchor="middle" x="825" y="-90.3" font-family="Times,serif" font-size="14.00">hello.txt</text>
</g>
<!-- ref:feature -->
<g id="node18" class="node">
<title>ref:feature</title>
<polygon fill="white" stroke="black" points="159,-460.5 91,-460.5 91,-424.5 165,-424.5 165,-454.5 159,-460.5"/>
<polyline fill="none" stroke="black" points="159,-460.5 159,-454.5 "/>
<polyline fill="none" stroke="black" points="165,-454.5 159,-454.5 "/>
<text text-anchor="middle" x="128" y="-438.8" font-family="monospace" font-size="14.00">feature</text>
</g>
<!-- ref:feature&#45;&gt;287298f7cfc0e2c7629ec7b9f61972b24b97546f -->
<g id="edge23" class="edge">
<title>ref:feature&#45;&gt;287298f7cfc0e2c7629ec7b9f61972b24b97546f</title>
<path fill="none" stroke="black" d="M165.1,-442.5C199.41,-442.5 251.94,-442.5 294.55,-442.5"/>
<polygon fill="black" stroke="black" points="294.59,-446 304.59,-442.5 294.59,-439 294.59,-446"/>
</g>
<!-- ref:main -->
<g id="node19" class="node">
<title>ref:main</title>
<polygon fill="white" stroke="black" points="149,-721.5 101,-721.5 101,-685.5 155,-685.5 155,-715.5 149,-721.5"/>
<polyline fill="none" stroke="black" points="149,-721.5 149,-715.5 "/>
<polyline fill="none" stroke="black" points="155,-715.5 149,-715.5 "/>
<text text-anchor="middle" x="128" y="-699.8" font-family="monospace" font-size="14.00">main</text>
</g>
<!-- ref:main&#45;&gt;82195ca36a67f8f98dadfe05a1b3781048cb31cd -->
<g id="edge24" class="edge">
<title>ref:main&#45;&gt;82195ca36a67f8f98dadfe05a1b3781048cb31cd</title>
<path fill="none" stroke="black" d="M155.16,-703.5C172.93,-703.5 197.97,-703.5 224.6,-703.5"/>
<polygon fill="black" stroke="black" points="224.87,-707 234.87,-703.5 224.87,-700 224.87,-707"/>
</g>
<!-- ref:HEAD -->
<g id="node20" class="node">
<title>ref:HEAD</title>
<polygon fill="#fce94f" stroke="black" points="48,-721.5 0,-721.5 0,-685.5 54,-685.5 54,-715.5 48,-721.5"/>
<polyline fill="none" stroke="black" points="48,-721.5 48,-715.5 "/>
<polyline fill="none" stroke="black" points="54,-715.5 48,-715.5 "/>
<text text-anchor="middle" x="27" y="-699.8" font-family="monospace" font-size="14.00">HEAD</text>
</g>
<!-- ref:HEAD&#45;&gt;ref:main -->
<g id="edge25" class="edge">
<title>ref:HEAD&#45;&gt;ref:main</title>
<path fill="none" stroke="black" d="M54.01,-703.5C65.18,-703.5 78.42,-703.5 90.54,-703.5"/>
<polygon fill="black" stroke="black" points="90.82,-707 100.82,-703.5 90.82,-700 90.82,-707"/>
</g>
</g>
</svg>
