<?xml version="1.0" encoding="UTF-8" standalone="no"?>
<!DOCTYPE svg PUBLIC "-//W3C//DTD SVG 1.1//EN"
 "http://www.w3.org/Graphics/SVG/1.1/DTD/svg11.dtd">
<!-- Generated by graphviz version 2.42.4 (0)
 -->
<!-- Title: git_objects Pages: 1 -->
<svg width="964pt" height="367pt"
 viewBox="0.00 0.00 964.00 366.50" xmlns="http://www.w3.org/2000/svg" xmlns:xlink="http://www.w3.org/1999/xlink">
<g id="graph0" class="graph" transform="scale(1 1) rotate(0) translate(4 362.5)">
<title>git_objects</title>
<polygon fill="white" stroke="transparent" points="-4,4 -4,-362.5 960,-362.5 960,4 -4,4"/>
<!-- 1e4eee5b49c5386f3176e9c3d2c405bfd589b214 -->
<g id="node1" class="node">
<title>1e4eee5b49c5386f3176e9c3d2c405bfd589b214</title>
<polygon fill="#5bc0b5" stroke="transparent" points="255.5,-256.5 255.5,-356.5 394.5,-356.5 394.5,-256.5 255.5,-256.5"/>
<text text-anchor="start" x="259" y="-343.3" font-family="monospace" font-weight="bold" font-size="14.00" fill="#000000">commit 1e4eee5</text>
<text text-anchor="start" x="259" y="-323.3" font-family="monospace" font-size="14.00" fill="#000000">tree 130f7a9 &#160;&#160;&#160;</text>
<text text-anchor="start" x="259" y="-308.3" font-family="monospace" font-size="14.00" fill="#000000">parent 2441d74 &#160;</text>
<text text-anchor="start" x="259" y="-293.3" font-family="monospace" font-size="14.00" fill="#000000">author [...] &#160;&#160;&#160;</text>
<text text-anchor="start" x="259" y="-278.3" font-family="monospace" font-size="14.00" fill="#000000"> &#160;&#160;&#160;&#160;&#160;&#160;&#160;&#160;&#160;&#160;&#160;&#160;&#160;&#160;&#160;</text>
<text text-anchor="start" x="259" y="-263.3" font-family="monospace" font-size="14.00" fill="#000000">update README.md</text>
<polygon fill="none" stroke="#000000" points="255.5,-256.5 255.5,-356.5 394.5,-356.5 394.5,-256.5 255.5,-256.5"/>
</g>
<!-- 130f7a90b97d88faa2f1ddf794ef7dace1c0c450 -->
<g id="node2" class="node">
<title>130f7a90b97d88faa2f1ddf794ef7dace1c0c450</title>
<polygon fill="#d8c59f" stroke="transparent" points="505,-286.5 505,-326.5 710,-326.5 710,-286.5 505,-286.5"/>
<text text-anchor="start" x="508.5" y="-313.3" font-family="monospace" font-weight="bold" font-size="14.00" fill="#000000">tree 130f7a9</text>
<text text-anchor="start" x="508.5" y="-293.3" font-family="monospace" font-size="14.00" fill="#000000">blob README.md (1bce388)</text>
<polygon fill="none" stroke="#000000" points="505,-286.5 505,-326.5 710,-326.5 710,-286.5 505,-286.5"/>
</g>
<!-- 1e4eee5b49c5386f3176e9c3d2c405bfd589b214&#45;&gt;130f7a90b97d88faa2f1ddf794ef7dace1c0c450 -->
<g id="edge1" class="edge">
<title>1e4eee5b49c5386f3176e9c3d2c405bfd589b214&#45;&gt;130f7a90b97d88faa2f1ddf794ef7dace1c0c450</title>
<path fill="none" stroke="#000000" d="M394.62,-306.5C424.68,-306.5 460.74,-306.5 494.51,-306.5"/>
<polygon fill="#000000" stroke="#000000" points="494.91,-310 504.91,-306.5 494.91,-303 494.91,-310"/>
<text text-anchor="middle" x="476.5" y="-310.3" font-family="Times,serif" font-size="14.00">tree</text>
</g>
<!-- 2441d74da05320f7bdb90be4104ba4ce967195e5 -->
<g id="node3" class="node">
<title>2441d74da05320f7bdb90be4104ba4ce967195e5</title>
<polygon fill="#ceece9" stroke="transparent" points="202,-120.5 202,-220.5 448,-220.5 448,-120.5 202,-120.5"/>
<text text-anchor="start" x="205" y="-207.3" font-family="monospace" font-weight="bold" font-size="14.00" fill="#808080">commit 2441d74</text>
<text text-anchor="start" x="205" y="-187.3" font-family="monospace" font-size="14.00" fill="#808080">tree ebfd749 &#160;&#160;&#160;&#160;&#160;&#160;&#160;&#160;&#160;&#160;&#160;&#160;&#160;&#160;&#160;&#160;</text>
<text text-anchor="start" x="205" y="-172.3" font-family="monospace" font-size="14.00" fill="#808080">parent b0daf1b &#160;&#160;&#160;&#160;&#160;&#160;&#160;&#160;&#160;&#160;&#160;&#160;&#160;&#160;</text>
<text text-anchor="start" x="205" y="-157.3" font-family="monospace" font-size="14.00" fill="#808080">author [...] &#160;&#160;&#160;&#160;&#160;&#160;&#160;&#160;&#160;&#160;&#160;&#160;&#160;&#160;&#160;&#160;</text>
<text text-anchor="start" x="205" y="-142.3" font-family="monospace" font-size="14.00" fill="#808080"> &#160;&#160;&#160;&#160;&#160;&#160;&#160;&#160;&#160;&#160;&#160;&#160;&#160;&#160;&#160;&#160;&#160;&#160;&#160;&#160;&#160;&#160;&#160;&#160;&#160;&#160;&#160;&#160;</text>
<text text-anchor="start" x="205" y="-127.3" font-family="monospace" font-size="14.00" fill="#808080">rename hello.txt to README.md</text>
<polygon fill="none" stroke="#b3b3b3" points="202,-120.5 202,-220.5 448,-220.5 448,-120.5 202,-120.5"/>
</g>
<!-- 1e4eee5b49c5386f3176e9c3d2c405bfd589b214&#45;&gt;2441d74da05320f7bdb90be4104ba4ce967195e5 -->
<g id="edge2" class="edge">
<title>1e4eee5b49c5386f3176e9c3d2c405bfd589b214&#45;&gt;2441d74da05320f7bdb90be4104ba4ce967195e5</title>
<path fill="none" stroke="#b3b3b3" d="M325,-256.45C325,-248.17 325,-239.51 325,-231.01"/>
<polygon fill="#b3b3b3" stroke="#b3b3b3" points="328.5,-230.75 325,-220.75 321.5,-230.76 328.5,-230.75"/>
<text text-anchor="middle" x="314.5" y="-234.8" font-family="Times,serif" font-size="14.00">parent</text>
</g>
<!-- 1bce3880336548b24d6aadcc51e3d41359c5908d -->
<g id="node4" class="node">
<title>1bce3880336548b24d6aadcc51e3d41359c5908d</title>
<polygon fill="#e7e6e1" stroke="transparent" points="826,-271.5 826,-341.5 956,-341.5 956,-271.5 826,-271.5"/>
<text text-anchor="start" x="829" y="-328.3" font-family="monospace" font-weight="bold" font-size="14.00" fill="#000000">blob 1bce388</text>
<text text-anchor="start" x="829" y="-308.3" font-family="monospace" font-size="14.00" fill="#000000">Hello, planet! </text>
<text text-anchor="start" x="829" y="-293.3" font-family="monospace" font-size="14.00" fill="#000000"> &#160;&#160;&#160;&#160;&#160;&#160;&#160;&#160;&#160;&#160;&#160;&#160;&#160;&#160;</text>
<text text-anchor="start" x="829" y="-278.3" font-family="monospace" font-size="14.00" fill="#000000">Git is awesome!</text>
<polygon fill="none" stroke="#000000" points="826,-271.5 826,-341.5 956,-341.5 956,-271.5 826,-271.5"/>
</g>
<!-- 130f7a90b97d88faa2f1ddf794ef7dace1c0c450&#45;&gt;1bce3880336548b24d6aadcc51e3d41359c5908d -->
<g id="edge3" class="edge">
<title>130f7a90b97d88faa2f1ddf794ef7dace1c0c450&#45;&gt;1bce3880336548b24d6aadcc51e3d41359c5908d</title>
<path fill="none" stroke="#000000" d="M710.13,-306.5C744.94,-306.5 783.23,-306.5 815.5,-306.5"/>
<polygon fill="#000000" stroke="#000000" points="815.75,-310 825.75,-306.5 815.75,-303 815.75,-310"/>
<text text-anchor="middle" x="768" y="-310.3" font-family="Times,serif" font-size="14.00">README.md</text>
</g>
<!-- ebfd7499dae526dcbaf30e1250b1f875946729f8 -->
<g id="node5" class="node">
<title>ebfd7499dae526dcbaf30e1250b1f875946729f8</title>
<polygon fill="#f3eee2" stroke="transparent" points="505,-111.5 505,-151.5 710,-151.5 710,-111.5 505,-111.5"/>
<text text-anchor="start" x="508.5" y="-138.3" font-family="monospace" font-weight="bold" font-size="14.00" fill="#808080">tree ebfd749</text>
<text text-anchor="start" x="508.5" y="-118.3" font-family="monospace" font-size="14.00" fill="#808080">blob README.md (af5626b)</text>
<polygon fill="none" stroke="#b3b3b3" points="505,-111.5 505,-151.5 710,-151.5 710,-111.5 505,-111.5"/>
</g>
<!-- 2441d74da05320f7bdb90be4104ba4ce967195e5&#45;&gt;ebfd7499dae526dcbaf30e1250b1f875946729f8 -->
<g id="edge4" class="edge">
<title>2441d74da05320f7bdb90be4104ba4ce967195e5&#45;&gt;ebfd7499dae526dcbaf30e1250b1f875946729f8</title>
<path fill="none" stroke="#b3b3b3" d="M448.22,-153.51C463.72,-151.35 479.52,-149.16 494.84,-147.02"/>
<polygon fill="#b3b3b3" stroke="#b3b3b3" points="495.41,-150.48 504.84,-145.64 494.45,-143.55 495.41,-150.48"/>
<text text-anchor="middle" x="476.5" y="-154.3" font-family="Times,serif" font-size="14.00">tree</text>
</g>
<!-- b0daf1b94cd0a2e1b2cbf406059882c44c86c806 -->
<g id="node6" class="node">
<title>b0daf1b94cd0a2e1b2cbf406059882c44c86c806</title>
<polygon fill="#ceece9" stroke="transparent" points="264,0 264,-85 386,-85 386,0 264,0"/>
<text text-anchor="start" x="267" y="-71.3" font-family="monospace" font-weight="bold" font-size="14.00" fill="#808080">commit b0daf1b</text>
<text text-anchor="start" x="267" y="-51.3" font-family="monospace" font-size="14.00" fill="#808080">tree ec947e3 &#160;</text>
<text text-anchor="start" x="267" y="-36.3" font-family="monospace" font-size="14.00" fill="#808080">author [...] &#160;</text>
<text text-anchor="start" x="267" y="-21.3" font-family="monospace" font-size="14.00" fill="#808080"> &#160;&#160;&#160;&#160;&#160;&#160;&#160;&#160;&#160;&#160;&#160;&#160;&#160;</text>
<text text-anchor="start" x="267" y="-6.3" font-family="monospace" font-size="14.00" fill="#808080">initial commit</text>
<polygon fill="none" stroke="#b3b3b3" points="264,0 264,-85 386,-85 386,0 264,0"/>
</g>
<!-- 2441d74da05320f7bdb90be4104ba4ce967195e5&#45;&gt;b0daf1b94cd0a2e1b2cbf406059882c44c86c806 -->
<g id="edge5" class="edge">
<title>2441d74da05320f7bdb90be4104ba4ce967195e5&#45;&gt;b0daf1b94cd0a2e1b2cbf406059882c44c86c806</title>
<path fill="none" stroke="#b3b3b3" d="M325,-120.07C325,-111.94 325,-103.5 325,-95.32"/>
<polygon fill="#b3b3b3" stroke="#b3b3b3" points="328.5,-95.12 325,-85.12 321.5,-95.12 328.5,-95.12"/>
<text text-anchor="middle" x="314.5" y="-99.05" font-family="Times,serif" font-size="14.00">parent</text>
</g>
<!-- af5626b4a114abcb82d63db7c8082c3c4756e51b -->
<g id="node7" class="node">
<title>af5626b4a114abcb82d63db7c8082c3c4756e51b</title>
<polygon fill="#f8f8f6" stroke="transparent" points="834,-80.5 834,-120.5 948,-120.5 948,-80.5 834,-80.5"/>
<text text-anchor="start" x="837" y="-107.3" font-family="monospace" font-weight="bold" font-size="14.00" fill="#808080">blob af5626b</text>
<text text-anchor="start" x="837" y="-87.3" font-family="monospace" font-size="14.00" fill="#808080">Hello, world!</text>
<polygon fill="none" stroke="#b3b3b3" points="834,-80.5 834,-120.5 948,-120.5 948,-80.5 834,-80.5"/>
</g>
<!-- ebfd7499dae526dcbaf30e1250b1f875946729f8&#45;&gt;af5626b4a114abcb82d63db7c8082c3c4756e51b -->
<g id="edge6" class="edge">
<title>ebfd7499dae526dcbaf30e1250b1f875946729f8&#45;&gt;af5626b4a114abcb82d63db7c8082c3c4756e51b</title>
<path fill="none" stroke="#b3b3b3" d="M710.13,-120.31C747.95,-116.14 789.86,-111.53 823.71,-107.8"/>
<polygon fill="#b3b3b3" stroke="#b3b3b3" points="824.39,-111.25 833.94,-106.67 823.62,-104.29 824.39,-111.25"/>
<text text-anchor="middle" x="768" y="-121.3" font-family="Times,serif" font-size="14.00">README.md</text>
</g>
<!-- ec947e3dd7a7752d078f1ed0cfde7457b21fef58 -->
<g id="node8" class="node">
<title>ec947e3dd7a7752d078f1ed0cfde7457b21fef58</title>
<polygon fill="#f3eee2" stroke="transparent" points="505,-44.5 505,-84.5 710,-84.5 710,-44.5 505,-44.5"/>
<text text-anchor="start" x="508.5" y="-71.3" font-family="monospace" font-weight="bold" font-size="14.00" fill="#808080">tree ec947e3</text>
<text text-anchor="start" x="508.5" y="-51.3" font-family="monospace" font-size="14.00" fill="#808080">blob hello.txt (af5626b)</text>
<polygon fill="none" stroke="#b3b3b3" points="505,-44.5 505,-84.5 710,-84.5 710,-44.5 505,-44.5"/>
</g>
<!-- b0daf1b94cd0a2e1b2cbf406059882c44c86c806&#45;&gt;ec947e3dd7a7752d078f1ed0cfde7457b21fef58 -->
<g id="edge7" class="edge">
<title>b0daf1b94cd0a2e1b2cbf406059882c44c86c806&#45;&gt;ec947e3dd7a7752d078f1ed0cfde7457b21fef58</title>
<path fill="none" stroke="#b3b3b3" d="M386.17,-47.22C417.74,-49.7 457.44,-52.81 494.41,-55.71"/>
<polygon fill="#b3b3b3" stroke="#b3b3b3" points="494.52,-59.23 504.76,-56.52 495.06,-52.25 494.52,-59.23"/>
<text text-anchor="middle" x="476.5" y="-59.3" font-family="Times,serif" font-size="14.00">tree</text>
</g>
<!-- ec947e3dd7a7752d078f1ed0cfde7457b21fef58&#45;&gt;af5626b4a114abcb82d63db7c8082c3c4756e51b -->
<g id="edge8" class="edge">
<title>ec947e3dd7a7752d078f1ed0cfde7457b21fef58&#45;&gt;af5626b4a114abcb82d63db7c8082c3c4756e51b</title>
<path fill="none" stroke="#b3b3b3" d="M710.13,-77.5C747.95,-82.33 789.86,-87.69 823.71,-92.02"/>
<polygon fill="#b3b3b3" stroke="#b3b3b3" points="823.58,-95.53 833.94,-93.33 824.47,-88.59 823.58,-95.53"/>
<text text-anchor="middle" x="768" y="-93.3" font-family="Times,serif" font-size="14.00">hello.txt</text>
</g>
<!-- ref:feature -->
<g id="node9" class="node">
<title>ref:feature</title>
<polygon fill="white" stroke="black" points="159,-358.5 91,-358.5 91,-322.5 165,-322.5 165,-352.5 159,-358.5"/>
<polyline fill="none" stroke="black" points="159,-358.5 159,-352.5 "/>
<polyline fill="none" stroke="black" points="165,-352.5 159,-352.5 "/>
<text text-anchor="middle" x="128" y="-336.8" font-family="monospace" font-size="14.00">feature</text>
</g>
<!-- ref:feature&#45;&gt;1e4eee5b49c5386f3176e9c3d2c405bfd589b214 -->
<g id="edge9" class="edge">
<title>ref:feature&#45;&gt;1e4eee5b49c5386f3176e9c3d2c405bfd589b214</title>
<path fill="none" stroke="black" d="M165.22,-334.18C187.68,-330.27 217.45,-325.08 245.13,-320.25"/>
<polygon fill="black" stroke="black" points="245.96,-323.66 255.21,-318.49 244.76,-316.76 245.96,-323.66"/>
</g>
<!-- ref:main -->
<g id="node10" class="node">
<title>ref:main</title>
<polygon fill="white" stroke="black" points="149,-304.5 101,-304.5 101,-268.5 155,-268.5 155,-298.5 149,-304.5"/>
<polyline fill="none" stroke="black" points="149,-304.5 149,-298.5 "/>
<polyline fill="none" stroke="black" points="155,-298.5 149,-298.5 "/>
<text text-anchor="middle" x="128" y="-282.8" font-family="monospace" font-size="14.00">main</text>
</g>
<!-- ref:main&#45;&gt;1e4eee5b49c5386f3176e9c3d2c405bfd589b214 -->
<g id="edge10" class="edge">
<title>ref:main&#45;&gt;1e4eee5b49c5386f3176e9c3d2c405bfd589b214</title>
<path fill="none" stroke="black" d="M155.3,-289.2C178.37,-291.56 213.15,-295.13 245.15,-298.41"/>
<polygon fill="black" stroke="black" points="245.11,-301.93 255.42,-299.47 245.83,-294.96 245.11,-301.93"/>
</g>
<!-- ref:HEAD -->
<g id="node11" class="node">
<title>ref:HEAD</title>
<polygon fill="#fce94f" stroke="black" points="48,-358.5 0,-358.5 0,-322.5 54,-322.5 54,-352.5 48,-358.5"/>
<polyline fill="none" stroke="black" points="48,-358.5 48,-352.5 "/>
<polyline fill="none" stroke="black" points="54,-352.5 48,-352.5 "/>
<text text-anchor="middle" x="27" y="-336.8" font-family="monospace" font-size="14.00">HEAD</text>
</g>
<!-- ref:HEAD&#45;&gt;ref:feature -->
<g id="edge11" class="edge">
<title>ref:HEAD&#45;&gt;ref:feature</title>
<path fill="none" stroke="black" d="M54.01,-340.5C62.17,-340.5 71.44,-340.5 80.56,-340.5"/>
<polygon fill="black" stroke="black" points="80.74,-344 90.74,-340.5 80.74,-337 80.74,-344"/>
</g>
</g>
</svg>
