<?xml version="1.0" encoding="UTF-8" standalone="no"?>
<!-- Created with Inkscape (http://www.inkscape.org/) -->

<svg
   width="160"
   height="90"
   id="svg1968"
   sodipodi:version="0.32"
   inkscape:version="1.2.2 (b0a8486541, 2022-12-01)"
   version="1.0"
   sodipodi:docname="rust-logo.svg"
   inkscape:export-filename="rust-logo.png"
   inkscape:export-xdpi="1228.8"
   inkscape:export-ydpi="1228.8"
   xmlns:inkscape="http://www.inkscape.org/namespaces/inkscape"
   xmlns:sodipodi="http://sodipodi.sourceforge.net/DTD/sodipodi-0.dtd"
   xmlns="http://www.w3.org/2000/svg"
   xmlns:svg="http://www.w3.org/2000/svg"
   xmlns:rdf="http://www.w3.org/1999/02/22-rdf-syntax-ns#"
   xmlns:cc="http://creativecommons.org/ns#"
   xmlns:dc="http://purl.org/dc/elements/1.1/">
  <defs
     id="defs1970" />
  <sodipodi:namedview
     id="base"
     pagecolor="#ffffff"
     bordercolor="#666666"
     borderopacity="1.0"
     inkscape:pageopacity="0.0"
     inkscape:pageshadow="2"
     inkscape:zoom="10.29488"
     inkscape:cx="55.658735"
     inkscape:cy="33.657507"
     inkscape:document-units="px"
     inkscape:current-layer="layer1"
     width="68.51mm"
     height="129.89mm"
     units="mm"
     inkscape:window-width="2476"
     inkscape:window-height="1363"
     inkscape:window-x="2644"
     inkscape:window-y="40"
     inkscape:pagecheckerboard="0"
     showgrid="false"
     inkscape:window-maximized="1"
     inkscape:showpageshadow="2"
     inkscape:deskcolor="#d1d1d1" />
  <metadata
     id="metadata1973">
    <rdf:RDF>
      <cc:Work
         rdf:about="">
        <dc:format>image/svg+xml</dc:format>
        <dc:type
           rdf:resource="http://purl.org/dc/dcmitype/StillImage" />
      </cc:Work>
    </rdf:RDF>
  </metadata>
  <g
     inkscape:label="Ebene 1"
     inkscape:groupmode="layer"
     id="layer1"
     transform="translate(3824.556,782.8939)">
    <g
       id="Ebene_x0020_1"
       transform="translate(-3826.724,-785.8793)"
       inkscape:label="Ebene 1"
       inkscape:groupmode="layer">
      <metadata
         id="CorelCorpID_0Corel-Layer" />
    </g>
    <path
       style="opacity:0.6;fill:#ffffff;stroke:#ffffff;stroke-width:1.5;stroke-linecap:round;stroke-linejoin:round;stroke-dasharray:none"
       d="m -3745.1124,-704.12646 c -0.1213,-0.10208 -0.6154,-0.8447 -1.098,-1.65027 -0.5984,-0.99879 -0.923,-1.47392 -1.0207,-1.49374 -0.079,-0.016 -0.2964,-0.0431 -0.4835,-0.0603 l -0.3403,-0.0312 -1.183,1.30543 c -0.6506,0.718 -1.2647,1.34268 -1.3646,1.38818 -0.4042,0.18417 -0.9619,0.0437 -1.1738,-0.29563 -0.05,-0.0807 -0.3469,-0.8581 -0.6589,-1.72752 -0.312,-0.86942 -0.5905,-1.60162 -0.6189,-1.6271 -0.1085,-0.0975 -0.8142,-0.29018 -0.9177,-0.25049 -0.06,0.0229 -0.7217,0.49674 -1.4712,1.05295 -1.453,1.07833 -1.6833,1.18548 -2.1407,0.99604 -0.4345,-0.17998 -0.4992,-0.3688 -0.7816,-2.28148 l -0.2608,-1.76599 -0.4278,-0.22501 -0.4277,-0.22501 -1.5761,0.7519 c -1.6901,0.8063 -1.9697,0.88128 -2.3521,0.63074 -0.4512,-0.29566 -0.4766,-0.52337 -0.3353,-3.01019 l 0.065,-1.14625 -0.3366,-0.303 c -0.1851,-0.16665 -0.3941,-0.30366 -0.4643,-0.30447 -0.07,-8.1e-4 -0.8349,0.17584 -1.6991,0.39255 -0.8642,0.21671 -1.689,0.39402 -1.8329,0.39402 -0.2083,0 -0.3182,-0.0566 -0.5397,-0.27813 -0.226,-0.226 -0.2784,-0.33008 -0.2798,-0.55521 0,-0.1524 0.1827,-1.0226 0.4081,-1.93379 l 0.4099,-1.65671 -0.3146,-0.37576 -0.3146,-0.37575 -0.5055,0.0435 c -0.278,0.024 -1.1019,0.0627 -1.8308,0.086 -1.2627,0.0404 -1.3366,0.0353 -1.5625,-0.10813 -0.28,-0.1778 -0.4734,-0.5888 -0.4148,-0.88164 0.023,-0.11375 0.3641,-0.88824 0.7586,-1.72107 0.3945,-0.83283 0.7172,-1.56015 0.7172,-1.61625 0,-0.0561 -0.096,-0.26902 -0.2123,-0.47315 l -0.2124,-0.37114 -1.7545,-0.26065 c -1.1621,-0.17264 -1.8173,-0.30181 -1.9405,-0.38253 -0.2478,-0.16236 -0.3936,-0.46082 -0.3936,-0.80563 0,-0.316 -0.01,-0.30628 1.3119,-2.08646 l 0.8463,-1.143 -0.1235,-0.4402 c -0.1452,-0.51759 0,-0.43833 -2.0902,-1.177 -1.4674,-0.51972 -1.6803,-0.64851 -1.8023,-1.09039 -0.135,-0.48908 -0.01,-0.66981 1.3921,-1.94106 1.3945,-1.26849 1.3906,-1.26281 1.2919,-1.92104 l -0.045,-0.29923 -1.468,-0.87753 c -0.8073,-0.48263 -1.5473,-0.97189 -1.6444,-1.08724 -0.2314,-0.27508 -0.246,-0.80744 -0.03,-1.08264 0.081,-0.10276 0.8184,-0.59021 1.6391,-1.08322 1.6084,-0.96625 1.582,-0.93977 1.5754,-1.57906 v -0.35819 l -0.9445,-0.84394 c -1.588,-1.41892 -1.6774,-1.51016 -1.7555,-1.79317 -0.096,-0.34901 0.01,-0.70876 0.2635,-0.9254 0.1104,-0.0928 0.9073,-0.42185 1.771,-0.73113 0.8638,-0.30929 1.6055,-0.58964 1.6484,-0.623 0.043,-0.0334 0.1356,-0.25113 0.2061,-0.48394 l 0.1282,-0.42328 -1.0011,-1.35067 c -0.5506,-0.74287 -1.0382,-1.42109 -1.0837,-1.50716 -0.1479,-0.28 -0.1012,-0.706 0.1042,-0.95006 0.1027,-0.12212 0.2447,-0.25302 0.3155,-0.2909 0.071,-0.0379 0.8928,-0.18246 1.8268,-0.3213 0.934,-0.13884 1.7275,-0.27059 1.7634,-0.29279 0.082,-0.0509 0.4208,-0.71381 0.4208,-0.82435 0,-0.0454 -0.3207,-0.76375 -0.7127,-1.59638 -0.392,-0.83264 -0.7333,-1.59967 -0.7584,-1.70453 -0.075,-0.31336 0.1833,-0.79865 0.507,-0.95226 0.2551,-0.12101 0.3782,-0.12419 1.8544,-0.0479 2.1652,0.11186 1.9622,0.13767 2.2935,-0.29158 l 0.2823,-0.36588 -0.4166,-1.67649 c -0.4737,-1.90586 -0.485,-2.14494 -0.1172,-2.47359 0.3733,-0.33361 0.476,-0.32812 2.2968,0.12264 0.9263,0.22934 1.7175,0.42897 1.7582,0.44363 0.041,0.0147 0.2411,-0.12724 0.4453,-0.31534 l 0.3712,-0.34199 -0.067,-1.11042 c -0.1169,-1.94651 -0.1104,-2.45561 0.034,-2.70067 0.07,-0.11944 0.2175,-0.26989 0.3266,-0.33434 0.3829,-0.22615 0.6306,-0.15766 2.321,0.64162 l 1.6048,0.75879 0.4164,-0.24328 0.4163,-0.24328 0.2575,-1.7353 c 0.2795,-1.88388 0.3212,-2.00296 0.7932,-2.26158 0.4232,-0.2319 0.6218,-0.14034 2.1615,0.99692 0.7727,0.57069 1.4599,1.03762 1.5272,1.03762 0.067,0 0.2882,-0.0523 0.4909,-0.11621 l 0.3687,-0.1162 0.562,-1.58526 c 0.3091,-0.87188 0.6072,-1.65932 0.6624,-1.74986 0.2465,-0.40405 0.8748,-0.56397 1.2518,-0.31858 0.1056,0.0688 0.7128,0.69851 1.3493,1.39947 l 1.1574,1.27449 0.4416,-0.0481 c 0.2429,-0.0265 0.4612,-0.059 0.485,-0.0723 0.024,-0.0133 0.4399,-0.68775 0.9247,-1.49878 0.4849,-0.81102 0.9623,-1.53809 1.0609,-1.6157 0.3615,-0.28436 0.869,-0.26522 1.1787,0.0444 0.098,0.0984 0.5736,0.83913 1.056,1.64599 l 0.8769,1.46702 0.3133,0.0134 c 0.1723,0.007 0.3905,0.0155 0.4848,0.0179 0.1336,0.004 0.4363,-0.28569 1.3681,-1.30738 0.6582,-0.72152 1.2762,-1.3421 1.3734,-1.37907 0.4751,-0.18063 0.9927,0.03 1.1961,0.48677 0.066,0.14843 0.3563,0.93075 0.645,1.7385 l 0.5248,1.46863 0.3515,0.11962 c 0.1933,0.0658 0.4168,0.12221 0.4966,0.12537 0.081,0.003 0.7471,-0.44154 1.5045,-1.00434 0.7476,-0.55554 1.4399,-1.04172 1.5384,-1.08039 0.3755,-0.14742 0.9129,0.0602 1.1012,0.42551 0.056,0.10799 0.1871,0.77663 0.2921,1.48587 0.1049,0.70923 0.2248,1.49233 0.2663,1.74021 l 0.075,0.4507 0.4192,0.21162 0.4193,0.21163 1.5891,-0.75187 c 1.71,-0.80911 1.9213,-0.86383 2.343,-0.60675 0.4246,0.2589 0.4643,0.47402 0.377,2.04387 -0.1251,2.24748 -0.1398,2.11877 0.2805,2.45337 l 0.3573,0.2845 1.7023,-0.42746 c 1.8601,-0.46707 2.0548,-0.4795 2.3957,-0.15291 0.4082,0.39102 0.4041,0.51416 -0.08,2.44483 l -0.4367,1.74067 0.2992,0.35481 c 0.2164,0.25668 0.3505,0.35492 0.4849,0.35522 0.1022,2.2e-4 0.912,-0.0366 1.7996,-0.0818 1.8121,-0.0923 1.9421,-0.0695 2.2219,0.38933 0.2425,0.3977 0.188,0.60088 -0.6209,2.3145 l -0.7614,1.61278 0.1983,0.37188 c 0.109,0.20454 0.2179,0.39391 0.2419,0.42081 0.024,0.0269 0.8167,0.16525 1.7615,0.30743 1.0775,0.16215 1.7959,0.30413 1.9273,0.38092 0.2955,0.17268 0.5019,0.59684 0.4431,0.91043 -0.03,0.16224 -0.415,0.74707 -1.1117,1.69081 l -1.0652,1.44279 0.1084,0.3675 c 0.06,0.20213 0.1333,0.41267 0.1637,0.46786 0.03,0.0552 0.7605,0.35155 1.6224,0.65857 0.862,0.30702 1.6469,0.60586 1.7444,0.66408 0.3731,0.22297 0.5324,0.78946 0.3313,1.17826 -0.055,0.1068 -0.6876,0.72418 -1.4052,1.37195 l -1.3049,1.17775 0.044,0.36178 c 0.024,0.19897 0.044,0.41392 0.044,0.47765 4e-4,0.0743 0.5516,0.44568 1.5354,1.03453 1.3022,0.77945 1.5585,0.96099 1.6918,1.19816 0.1755,0.31216 0.1622,0.6305 -0.039,0.93785 -0.066,0.10113 -0.791,0.58348 -1.6352,1.08829 -0.834,0.49866 -1.5204,0.91116 -1.5254,0.91666 -0.01,0.005 -0.031,0.22469 -0.059,0.48707 l -0.05,0.47706 1.2767,1.15798 c 1.2607,1.14357 1.5273,1.45354 1.5273,1.77558 0,0.26011 -0.187,0.6399 -0.3761,0.7638 -0.095,0.0624 -0.8939,0.37199 -1.7749,0.68799 -0.881,0.31599 -1.6136,0.58636 -1.6281,0.60081 -0.014,0.0145 -0.086,0.22369 -0.1591,0.46496 l -0.1328,0.43868 1.0676,1.44511 c 0.6607,0.89421 1.0844,1.53439 1.1116,1.67931 0.053,0.28443 -0.1367,0.70653 -0.407,0.90378 -0.1384,0.10105 -0.6347,0.20125 -1.9603,0.3958 l -1.7749,0.26049 -0.2117,0.43269 -0.2117,0.43268 0.7571,1.60154 c 0.4632,0.97969 0.757,1.68902 0.7569,1.82683 -4e-4,0.27454 -0.2127,0.63944 -0.4705,0.80833 -0.1779,0.11654 -0.3177,0.11945 -2.0273,0.0422 l -1.8362,-0.0829 -0.2001,0.23033 c -0.44,0.50665 -0.4419,0.34812 0.025,2.22722 0.234,0.94069 0.4254,1.75789 0.4254,1.816 0,0.21566 -0.2462,0.61411 -0.4599,0.74446 -0.1214,0.074 -0.3265,0.13468 -0.4559,0.13482 -0.1294,1.5e-4 -0.9498,-0.17892 -1.8232,-0.39793 -0.8734,-0.21901 -1.6541,-0.37982 -1.7349,-0.35734 -0.081,0.0225 -0.2733,0.14988 -0.4278,0.28311 l -0.2809,0.24224 0.086,1.80596 c 0.081,1.69363 0.078,1.81953 -0.041,2.02399 -0.07,0.11991 -0.2138,0.2822 -0.319,0.36065 -0.3649,0.27198 -0.6275,0.20324 -2.3557,-0.61656 l -1.6005,-0.75918 -0.3978,0.22381 c -0.2188,0.1231 -0.4052,0.22858 -0.4141,0.23439 -0.01,0.006 -0.1333,0.78233 -0.2762,1.72558 -0.1429,0.94325 -0.3063,1.80508 -0.3633,1.91518 -0.2066,0.39985 -0.8108,0.60086 -1.1937,0.39716 -0.086,-0.0458 -0.7641,-0.53441 -1.5067,-1.08584 l -1.3503,-1.00259 -0.4676,0.1366 -0.4677,0.13661 -0.5628,1.57608 c -0.3096,0.86685 -0.6037,1.65389 -0.6537,1.74897 -0.2108,0.40105 -0.8979,0.56779 -1.2783,0.31022 -0.1015,-0.0687 -0.5339,-0.51175 -0.961,-0.98458 -0.427,-0.47283 -0.9404,-1.03593 -1.1408,-1.25135 l -0.3644,-0.39166 -0.4289,0.0208 c -0.2358,0.0114 -0.4647,0.0506 -0.5086,0.0871 -0.044,0.0364 -0.4796,0.73222 -0.9682,1.5462 -0.6113,1.01851 -0.9553,1.52106 -1.1032,1.61177 -0.3195,0.19594 -0.7645,0.173 -1.0334,-0.0533 z m 2.9677,-8.91935 c 1.784,-0.17413 3.7536,-0.59374 5.5035,-1.17248 1.0338,-0.3419 2.6162,-0.99666 2.7422,-1.13466 0.043,-0.0474 0.2445,-1.14273 0.4472,-2.43406 0.2472,-1.57555 0.414,-2.43732 0.5071,-2.61976 0.1719,-0.33684 0.6308,-0.75902 0.9893,-0.90996 0.4223,-0.17786 0.9687,-0.13737 3.3149,0.24567 l 2.1851,0.35672 0.3808,-0.40711 c 0.2094,-0.22392 0.6422,-0.7295 0.9617,-1.12352 l 0.581,-0.71641 -5.3318,-0.0395 c -4.1201,-0.0305 -5.397,-0.0608 -5.6184,-0.13347 -1.4501,-0.4758 -2.2903,-1.66058 -2.8981,-4.08681 -0.075,-0.29709 -0.2865,-1.24941 -0.4712,-2.11626 -0.7972,-3.74167 -1.5961,-5.14202 -3.2991,-5.78267 -0.4144,-0.15591 -0.5058,-0.16007 -4.0239,-0.18308 l -3.6,-0.0236 v 2.29616 2.29616 h 2.8155 c 2.0943,0 2.8375,0.022 2.9014,0.086 0.065,0.0646 0.086,1.00559 0.086,3.79441 0,3.59312 0,3.71076 -0.1386,3.78261 -0.094,0.0501 -3.4391,0.0742 -10.3213,0.0742 h -10.1828 l 0.4022,0.51774 c 0.4886,0.62875 1.4079,1.67932 1.5065,1.72164 0.039,0.0169 1.0388,-0.12588 2.2209,-0.31729 2.5845,-0.4185 2.8993,-0.43397 3.4406,-0.1691 0.4382,0.21439 0.8468,0.68103 0.9679,1.10548 0.041,0.14184 0.2329,1.27087 0.4275,2.50896 0.1946,1.23809 0.379,2.27276 0.4096,2.29926 0.1041,0.09 1.4536,0.65249 2.2285,0.92889 3.5103,1.2522 7.2047,1.71317 10.8658,1.35581 z m -16.7589,-2.12607 c 0.3496,-0.17927 0.7906,-0.65041 0.9449,-1.00948 0.1723,-0.4012 0.1526,-1.12153 -0.042,-1.55027 -0.2067,-0.4546 -0.4557,-0.71635 -0.9074,-0.95411 -0.2931,-0.15423 -0.4559,-0.18885 -0.8955,-0.19032 -0.4629,-10e-4 -0.5901,0.0275 -0.9187,0.20946 -0.7139,0.39546 -1.0524,1.03491 -1.0038,1.89615 0.022,0.38735 0.072,0.55981 0.2407,0.8314 0.2499,0.40182 0.6219,0.72019 1.0103,0.86474 0.3888,0.14469 1.1972,0.0945 1.5719,-0.0976 z m 30.3706,0.0295 c 0.7697,-0.36001 1.2558,-1.20516 1.1504,-1.99988 -0.2194,-1.65411 -2.1871,-2.34184 -3.356,-1.17296 -0.4003,0.40034 -0.5167,0.71743 -0.5167,1.40749 0,0.53524 0.024,0.64949 0.1969,0.94396 0.5191,0.88312 1.6247,1.24269 2.5254,0.82139 z m -32.2023,-23.72311 v -8.13118 h -2.1493 c -1.182,0 -2.1492,0.0102 -2.1492,0.0226 0,0.0124 0.1773,0.37155 0.3941,0.79806 0.3602,0.70891 0.3939,0.81611 0.3933,1.24903 -9e-4,0.56218 -0.2091,1.06863 -0.5816,1.41402 -0.1329,0.12323 -1.1966,0.712 -2.3639,1.30838 l -2.1223,1.08432 -0.042,0.26771 c -0.023,0.14724 -0.08,0.79963 -0.1251,1.44977 -0.1286,1.84109 0.017,4.22057 0.3738,6.08943 0.1465,0.76828 0.5448,2.41869 0.6085,2.52187 0.019,0.0315 1.7743,0.0572 3.8997,0.0572 h 3.8644 z m 36.4077,7.85028 c 0.5698,-0.21852 1.071,-0.69197 1.3743,-1.29826 0.322,-0.6437 0.3914,-1.00827 0.4562,-2.39688 l 0.053,-1.14625 1.3696,-0.0194 1.3695,-0.0194 0.045,-0.33086 c 0.1201,-0.87628 -0.011,-4.52086 -0.1732,-4.82928 -0.033,-0.0619 -1.002,-0.59075 -2.1542,-1.17523 -2.3291,-1.18151 -2.5999,-1.37741 -2.8198,-2.03958 -0.2466,-0.74231 -0.1886,-0.92709 1.0589,-3.37218 l 1.1174,-2.19027 -0.3767,-0.6443 c -3.4289,-5.86407 -9.1018,-10.08062 -15.7102,-11.67721 -0.5578,-0.13475 -1.0716,-0.245 -1.1419,-0.245 -0.071,0 -0.8963,0.76042 -1.8516,1.70576 -1.0601,1.04909 -1.834,1.75773 -2.0103,1.84077 -0.1576,0.0743 -0.4894,0.14871 -0.7374,0.16544 -0.82,0.0553 -0.9093,-0.006 -2.8914,-1.97525 l -1.7663,-1.75504 -0.3289,0.0493 c -0.5713,0.0857 -2.1927,0.52188 -3.1594,0.84998 -3.6266,1.23089 -6.8984,3.26695 -9.6149,5.98337 l -0.837,0.83699 14.0378,0.0372 14.0377,0.0372 0.5907,0.15867 c 1.917,0.51489 3.3786,1.36959 4.7288,2.76527 1.0059,1.03981 1.671,2.13167 2.0823,3.41862 1.0759,3.36657 -0.2579,6.62817 -3.6505,8.927 l -0.6904,0.4678 0.2903,0.26113 c 1.5705,1.4128 2.6749,3.32194 3.2377,5.59657 0.1468,0.59365 0.376,0.98083 0.8124,1.37255 0.8852,0.79465 2.1834,1.0505 3.2517,0.64081 z m -16.0402,-11.51329 c 0.7359,-0.16673 1.209,-0.39586 1.6346,-0.7917 0.4583,-0.4262 0.6505,-0.83429 0.6505,-1.38084 0,-0.74576 -0.522,-1.46538 -1.331,-1.83482 -0.9307,-0.42499 -0.8314,-0.41738 -5.7936,-0.44358 l -4.5671,-0.0241 v 2.29593 2.29593 h 4.4455 c 3.8511,0 4.5144,-0.0156 4.9611,-0.11681 z m -27.8927,-1.64373 c 0.708,-0.38533 1.0502,-1.04089 0.9891,-1.89477 -0.08,-1.11219 -0.9647,-1.86245 -2.0906,-1.77207 -0.539,0.0433 -0.9333,0.23596 -1.2895,0.6302 -0.379,0.41949 -0.4966,0.73268 -0.4969,1.32262 -3e-4,0.62761 0.1952,1.06731 0.6541,1.47125 0.614,0.54047 1.5083,0.63766 2.2338,0.24277 z m 49.1861,0.057 c 0.6548,-0.33716 1.0385,-0.9237 1.092,-1.66927 0.058,-0.80613 -0.3331,-1.48327 -1.0687,-1.85085 -0.6279,-0.31378 -1.1667,-0.31022 -1.7858,0.0118 -1.1991,0.62373 -1.4318,2.18099 -0.4672,3.12763 0.5794,0.56867 1.5446,0.73346 2.2297,0.38067 z m -24.6136,-17.93569 c 0.703,-0.35131 1.0668,-0.94646 1.0668,-1.74542 0,-0.23642 -0.038,-0.53249 -0.084,-0.65795 -0.3809,-1.03293 -1.5397,-1.56127 -2.5706,-1.17198 -0.7157,0.27025 -1.2747,1.07273 -1.2747,1.82993 0,0.82347 0.6286,1.65868 1.4324,1.90317 0.4339,0.132 0.9683,0.0731 1.4302,-0.15775 z"
       id="path992" />
    <path
       style="opacity:1;fill:#000000;stroke:none;stroke-width:0.465662;stroke-linecap:round;stroke-linejoin:round"
       d="m -3745.1124,-704.12646 c -0.1213,-0.10208 -0.6154,-0.8447 -1.098,-1.65027 -0.5984,-0.99879 -0.923,-1.47392 -1.0207,-1.49374 -0.079,-0.016 -0.2964,-0.0431 -0.4835,-0.0603 l -0.3403,-0.0312 -1.183,1.30543 c -0.6506,0.718 -1.2647,1.34268 -1.3646,1.38818 -0.4042,0.18417 -0.9619,0.0437 -1.1738,-0.29563 -0.05,-0.0807 -0.3469,-0.8581 -0.6589,-1.72752 -0.312,-0.86942 -0.5905,-1.60162 -0.6189,-1.6271 -0.1085,-0.0975 -0.8142,-0.29018 -0.9177,-0.25049 -0.06,0.0229 -0.7217,0.49674 -1.4712,1.05295 -1.453,1.07833 -1.6833,1.18548 -2.1407,0.99604 -0.4345,-0.17998 -0.4992,-0.3688 -0.7816,-2.28148 l -0.2608,-1.76599 -0.4278,-0.22501 -0.4277,-0.22501 -1.5761,0.7519 c -1.6901,0.8063 -1.9697,0.88128 -2.3521,0.63074 -0.4512,-0.29566 -0.4766,-0.52337 -0.3353,-3.01019 l 0.065,-1.14625 -0.3366,-0.303 c -0.1851,-0.16665 -0.3941,-0.30366 -0.4643,-0.30447 -0.07,-8.1e-4 -0.8349,0.17584 -1.6991,0.39255 -0.8642,0.21671 -1.689,0.39402 -1.8329,0.39402 -0.2083,0 -0.3182,-0.0566 -0.5397,-0.27813 -0.226,-0.226 -0.2784,-0.33008 -0.2798,-0.55521 0,-0.1524 0.1827,-1.0226 0.4081,-1.93379 l 0.4099,-1.65671 -0.3146,-0.37576 -0.3146,-0.37575 -0.5055,0.0435 c -0.278,0.024 -1.1019,0.0627 -1.8308,0.086 -1.2627,0.0404 -1.3366,0.0353 -1.5625,-0.10813 -0.28,-0.1778 -0.4734,-0.5888 -0.4148,-0.88164 0.023,-0.11375 0.3641,-0.88824 0.7586,-1.72107 0.3945,-0.83283 0.7172,-1.56015 0.7172,-1.61625 0,-0.0561 -0.096,-0.26902 -0.2123,-0.47315 l -0.2124,-0.37114 -1.7545,-0.26065 c -1.1621,-0.17264 -1.8173,-0.30181 -1.9405,-0.38253 -0.2478,-0.16236 -0.3936,-0.46082 -0.3936,-0.80563 0,-0.316 -0.01,-0.30628 1.3119,-2.08646 l 0.8463,-1.143 -0.1235,-0.4402 c -0.1452,-0.51759 0,-0.43833 -2.0902,-1.177 -1.4674,-0.51972 -1.6803,-0.64851 -1.8023,-1.09039 -0.135,-0.48908 -0.01,-0.66981 1.3921,-1.94106 1.3945,-1.26849 1.3906,-1.26281 1.2919,-1.92104 l -0.045,-0.29923 -1.468,-0.87753 c -0.8073,-0.48263 -1.5473,-0.97189 -1.6444,-1.08724 -0.2314,-0.27508 -0.246,-0.80744 -0.03,-1.08264 0.081,-0.10276 0.8184,-0.59021 1.6391,-1.08322 1.6084,-0.96625 1.582,-0.93977 1.5754,-1.57906 v -0.35819 l -0.9445,-0.84394 c -1.588,-1.41892 -1.6774,-1.51016 -1.7555,-1.79317 -0.096,-0.34901 0.01,-0.70876 0.2635,-0.9254 0.1104,-0.0928 0.9073,-0.42185 1.771,-0.73113 0.8638,-0.30929 1.6055,-0.58964 1.6484,-0.623 0.043,-0.0334 0.1356,-0.25113 0.2061,-0.48394 l 0.1282,-0.42328 -1.0011,-1.35067 c -0.5506,-0.74287 -1.0382,-1.42109 -1.0837,-1.50716 -0.1479,-0.28 -0.1012,-0.706 0.1042,-0.95006 0.1027,-0.12212 0.2447,-0.25302 0.3155,-0.2909 0.071,-0.0379 0.8928,-0.18246 1.8268,-0.3213 0.934,-0.13884 1.7275,-0.27059 1.7634,-0.29279 0.082,-0.0509 0.4208,-0.71381 0.4208,-0.82435 0,-0.0454 -0.3207,-0.76375 -0.7127,-1.59638 -0.392,-0.83264 -0.7333,-1.59967 -0.7584,-1.70453 -0.075,-0.31336 0.1833,-0.79865 0.507,-0.95226 0.2551,-0.12101 0.3782,-0.12419 1.8544,-0.0479 2.1652,0.11186 1.9622,0.13767 2.2935,-0.29158 l 0.2823,-0.36588 -0.4166,-1.67649 c -0.4737,-1.90586 -0.485,-2.14494 -0.1172,-2.47359 0.3733,-0.33361 0.476,-0.32812 2.2968,0.12264 0.9263,0.22934 1.7175,0.42897 1.7582,0.44363 0.041,0.0147 0.2411,-0.12724 0.4453,-0.31534 l 0.3712,-0.34199 -0.067,-1.11042 c -0.1169,-1.94651 -0.1104,-2.45561 0.034,-2.70067 0.07,-0.11944 0.2175,-0.26989 0.3266,-0.33434 0.3829,-0.22615 0.6306,-0.15766 2.321,0.64162 l 1.6048,0.75879 0.4164,-0.24328 0.4163,-0.24328 0.2575,-1.7353 c 0.2795,-1.88388 0.3212,-2.00296 0.7932,-2.26158 0.4232,-0.2319 0.6218,-0.14034 2.1615,0.99692 0.7727,0.57069 1.4599,1.03762 1.5272,1.03762 0.067,0 0.2882,-0.0523 0.4909,-0.11621 l 0.3687,-0.1162 0.562,-1.58526 c 0.3091,-0.87188 0.6072,-1.65932 0.6624,-1.74986 0.2465,-0.40405 0.8748,-0.56397 1.2518,-0.31858 0.1056,0.0688 0.7128,0.69851 1.3493,1.39947 l 1.1574,1.27449 0.4416,-0.0481 c 0.2429,-0.0265 0.4612,-0.059 0.485,-0.0723 0.024,-0.0133 0.4399,-0.68775 0.9247,-1.49878 0.4849,-0.81102 0.9623,-1.53809 1.0609,-1.6157 0.3615,-0.28436 0.869,-0.26522 1.1787,0.0444 0.098,0.0984 0.5736,0.83913 1.056,1.64599 l 0.8769,1.46702 0.3133,0.0134 c 0.1723,0.007 0.3905,0.0155 0.4848,0.0179 0.1336,0.004 0.4363,-0.28569 1.3681,-1.30738 0.6582,-0.72152 1.2762,-1.3421 1.3734,-1.37907 0.4751,-0.18063 0.9927,0.03 1.1961,0.48677 0.066,0.14843 0.3563,0.93075 0.645,1.7385 l 0.5248,1.46863 0.3515,0.11962 c 0.1933,0.0658 0.4168,0.12221 0.4966,0.12537 0.081,0.003 0.7471,-0.44154 1.5045,-1.00434 0.7476,-0.55554 1.4399,-1.04172 1.5384,-1.08039 0.3755,-0.14742 0.9129,0.0602 1.1012,0.42551 0.056,0.10799 0.1871,0.77663 0.2921,1.48587 0.1049,0.70923 0.2248,1.49233 0.2663,1.74021 l 0.075,0.4507 0.4192,0.21162 0.4193,0.21163 1.5891,-0.75187 c 1.71,-0.80911 1.9213,-0.86383 2.343,-0.60675 0.4246,0.2589 0.4643,0.47402 0.377,2.04387 -0.1251,2.24748 -0.1398,2.11877 0.2805,2.45337 l 0.3573,0.2845 1.7023,-0.42746 c 1.8601,-0.46707 2.0548,-0.4795 2.3957,-0.15291 0.4082,0.39102 0.4041,0.51416 -0.08,2.44483 l -0.4367,1.74067 0.2992,0.35481 c 0.2164,0.25668 0.3505,0.35492 0.4849,0.35522 0.1022,2.2e-4 0.912,-0.0366 1.7996,-0.0818 1.8121,-0.0923 1.9421,-0.0695 2.2219,0.38933 0.2425,0.3977 0.188,0.60088 -0.6209,2.3145 l -0.7614,1.61278 0.1983,0.37188 c 0.109,0.20454 0.2179,0.39391 0.2419,0.42081 0.024,0.0269 0.8167,0.16525 1.7615,0.30743 1.0775,0.16215 1.7959,0.30413 1.9273,0.38092 0.2955,0.17268 0.5019,0.59684 0.4431,0.91043 -0.03,0.16224 -0.415,0.74707 -1.1117,1.69081 l -1.0652,1.44279 0.1084,0.3675 c 0.06,0.20213 0.1333,0.41267 0.1637,0.46786 0.03,0.0552 0.7605,0.35155 1.6224,0.65857 0.862,0.30702 1.6469,0.60586 1.7444,0.66408 0.3731,0.22297 0.5324,0.78946 0.3313,1.17826 -0.055,0.1068 -0.6876,0.72418 -1.4052,1.37195 l -1.3049,1.17775 0.044,0.36178 c 0.024,0.19897 0.044,0.41392 0.044,0.47765 4e-4,0.0743 0.5516,0.44568 1.5354,1.03453 1.3022,0.77945 1.5585,0.96099 1.6918,1.19816 0.1755,0.31216 0.1622,0.6305 -0.039,0.93785 -0.066,0.10113 -0.791,0.58348 -1.6352,1.08829 -0.834,0.49866 -1.5204,0.91116 -1.5254,0.91666 -0.01,0.005 -0.031,0.22469 -0.059,0.48707 l -0.05,0.47706 1.2767,1.15798 c 1.2607,1.14357 1.5273,1.45354 1.5273,1.77558 0,0.26011 -0.187,0.6399 -0.3761,0.7638 -0.095,0.0624 -0.8939,0.37199 -1.7749,0.68799 -0.881,0.31599 -1.6136,0.58636 -1.6281,0.60081 -0.014,0.0145 -0.086,0.22369 -0.1591,0.46496 l -0.1328,0.43868 1.0676,1.44511 c 0.6607,0.89421 1.0844,1.53439 1.1116,1.67931 0.053,0.28443 -0.1367,0.70653 -0.407,0.90378 -0.1384,0.10105 -0.6347,0.20125 -1.9603,0.3958 l -1.7749,0.26049 -0.2117,0.43269 -0.2117,0.43268 0.7571,1.60154 c 0.4632,0.97969 0.757,1.68902 0.7569,1.82683 -4e-4,0.27454 -0.2127,0.63944 -0.4705,0.80833 -0.1779,0.11654 -0.3177,0.11945 -2.0273,0.0422 l -1.8362,-0.0829 -0.2001,0.23033 c -0.44,0.50665 -0.4419,0.34812 0.025,2.22722 0.234,0.94069 0.4254,1.75789 0.4254,1.816 0,0.21566 -0.2462,0.61411 -0.4599,0.74446 -0.1214,0.074 -0.3265,0.13468 -0.4559,0.13482 -0.1294,1.5e-4 -0.9498,-0.17892 -1.8232,-0.39793 -0.8734,-0.21901 -1.6541,-0.37982 -1.7349,-0.35734 -0.081,0.0225 -0.2733,0.14988 -0.4278,0.28311 l -0.2809,0.24224 0.086,1.80596 c 0.081,1.69363 0.078,1.81953 -0.041,2.02399 -0.07,0.11991 -0.2138,0.2822 -0.319,0.36065 -0.3649,0.27198 -0.6275,0.20324 -2.3557,-0.61656 l -1.6005,-0.75918 -0.3978,0.22381 c -0.2188,0.1231 -0.4052,0.22858 -0.4141,0.23439 -0.01,0.006 -0.1333,0.78233 -0.2762,1.72558 -0.1429,0.94325 -0.3063,1.80508 -0.3633,1.91518 -0.2066,0.39985 -0.8108,0.60086 -1.1937,0.39716 -0.086,-0.0458 -0.7641,-0.53441 -1.5067,-1.08584 l -1.3503,-1.00259 -0.4676,0.1366 -0.4677,0.13661 -0.5628,1.57608 c -0.3096,0.86685 -0.6037,1.65389 -0.6537,1.74897 -0.2108,0.40105 -0.8979,0.56779 -1.2783,0.31022 -0.1015,-0.0687 -0.5339,-0.51175 -0.961,-0.98458 -0.427,-0.47283 -0.9404,-1.03593 -1.1408,-1.25135 l -0.3644,-0.39166 -0.4289,0.0208 c -0.2358,0.0114 -0.4647,0.0506 -0.5086,0.0871 -0.044,0.0364 -0.4796,0.73222 -0.9682,1.5462 -0.6113,1.01851 -0.9553,1.52106 -1.1032,1.61177 -0.3195,0.19594 -0.7645,0.173 -1.0334,-0.0533 z m 2.9677,-8.91935 c 1.784,-0.17413 3.7536,-0.59374 5.5035,-1.17248 1.0338,-0.3419 2.6162,-0.99666 2.7422,-1.13466 0.043,-0.0474 0.2445,-1.14273 0.4472,-2.43406 0.2472,-1.57555 0.414,-2.43732 0.5071,-2.61976 0.1719,-0.33684 0.6308,-0.75902 0.9893,-0.90996 0.4223,-0.17786 0.9687,-0.13737 3.3149,0.24567 l 2.1851,0.35672 0.3808,-0.40711 c 0.2094,-0.22392 0.6422,-0.7295 0.9617,-1.12352 l 0.581,-0.71641 -5.3318,-0.0395 c -4.1201,-0.0305 -5.397,-0.0608 -5.6184,-0.13347 -1.4501,-0.4758 -2.2903,-1.66058 -2.8981,-4.08681 -0.075,-0.29709 -0.2865,-1.24941 -0.4712,-2.11626 -0.7972,-3.74167 -1.5961,-5.14202 -3.2991,-5.78267 -0.4144,-0.15591 -0.5058,-0.16007 -4.0239,-0.18308 l -3.6,-0.0236 v 2.29616 2.29616 h 2.8155 c 2.0943,0 2.8375,0.022 2.9014,0.086 0.065,0.0646 0.086,1.00559 0.086,3.79441 0,3.59312 0,3.71076 -0.1386,3.78261 -0.094,0.0501 -3.4391,0.0742 -10.3213,0.0742 h -10.1828 l 0.4022,0.51774 c 0.4886,0.62875 1.4079,1.67932 1.5065,1.72164 0.039,0.0169 1.0388,-0.12588 2.2209,-0.31729 2.5845,-0.4185 2.8993,-0.43397 3.4406,-0.1691 0.4382,0.21439 0.8468,0.68103 0.9679,1.10548 0.041,0.14184 0.2329,1.27087 0.4275,2.50896 0.1946,1.23809 0.379,2.27276 0.4096,2.29926 0.1041,0.09 1.4536,0.65249 2.2285,0.92889 3.5103,1.2522 7.2047,1.71317 10.8658,1.35581 z m -16.7589,-2.12607 c 0.3496,-0.17927 0.7906,-0.65041 0.9449,-1.00948 0.1723,-0.4012 0.1526,-1.12153 -0.042,-1.55027 -0.2067,-0.4546 -0.4557,-0.71635 -0.9074,-0.95411 -0.2931,-0.15423 -0.4559,-0.18885 -0.8955,-0.19032 -0.4629,-10e-4 -0.5901,0.0275 -0.9187,0.20946 -0.7139,0.39546 -1.0524,1.03491 -1.0038,1.89615 0.022,0.38735 0.072,0.55981 0.2407,0.8314 0.2499,0.40182 0.6219,0.72019 1.0103,0.86474 0.3888,0.14469 1.1972,0.0945 1.5719,-0.0976 z m 30.3706,0.0295 c 0.7697,-0.36001 1.2558,-1.20516 1.1504,-1.99988 -0.2194,-1.65411 -2.1871,-2.34184 -3.356,-1.17296 -0.4003,0.40034 -0.5167,0.71743 -0.5167,1.40749 0,0.53524 0.024,0.64949 0.1969,0.94396 0.5191,0.88312 1.6247,1.24269 2.5254,0.82139 z m -32.2023,-23.72311 v -8.13118 h -2.1493 c -1.182,0 -2.1492,0.0102 -2.1492,0.0226 0,0.0124 0.1773,0.37155 0.3941,0.79806 0.3602,0.70891 0.3939,0.81611 0.3933,1.24903 -9e-4,0.56218 -0.2091,1.06863 -0.5816,1.41402 -0.1329,0.12323 -1.1966,0.712 -2.3639,1.30838 l -2.1223,1.08432 -0.042,0.26771 c -0.023,0.14724 -0.08,0.79963 -0.1251,1.44977 -0.1286,1.84109 0.017,4.22057 0.3738,6.08943 0.1465,0.76828 0.5448,2.41869 0.6085,2.52187 0.019,0.0315 1.7743,0.0572 3.8997,0.0572 h 3.8644 z m 36.4077,7.85028 c 0.5698,-0.21852 1.071,-0.69197 1.3743,-1.29826 0.322,-0.6437 0.3914,-1.00827 0.4562,-2.39688 l 0.053,-1.14625 1.3696,-0.0194 1.3695,-0.0194 0.045,-0.33086 c 0.1201,-0.87628 -0.011,-4.52086 -0.1732,-4.82928 -0.033,-0.0619 -1.002,-0.59075 -2.1542,-1.17523 -2.3291,-1.18151 -2.5999,-1.37741 -2.8198,-2.03958 -0.2466,-0.74231 -0.1886,-0.92709 1.0589,-3.37218 l 1.1174,-2.19027 -0.3767,-0.6443 c -3.4289,-5.86407 -9.1018,-10.08062 -15.7102,-11.67721 -0.5578,-0.13475 -1.0716,-0.245 -1.1419,-0.245 -0.071,0 -0.8963,0.76042 -1.8516,1.70576 -1.0601,1.04909 -1.834,1.75773 -2.0103,1.84077 -0.1576,0.0743 -0.4894,0.14871 -0.7374,0.16544 -0.82,0.0553 -0.9093,-0.006 -2.8914,-1.97525 l -1.7663,-1.75504 -0.3289,0.0493 c -0.5713,0.0857 -2.1927,0.52188 -3.1594,0.84998 -3.6266,1.23089 -6.8984,3.26695 -9.6149,5.98337 l -0.837,0.83699 14.0378,0.0372 14.0377,0.0372 0.5907,0.15867 c 1.917,0.51489 3.3786,1.36959 4.7288,2.76527 1.0059,1.03981 1.671,2.13167 2.0823,3.41862 1.0759,3.36657 -0.2579,6.62817 -3.6505,8.927 l -0.6904,0.4678 0.2903,0.26113 c 1.5705,1.4128 2.6749,3.32194 3.2377,5.59657 0.1468,0.59365 0.376,0.98083 0.8124,1.37255 0.8852,0.79465 2.1834,1.0505 3.2517,0.64081 z m -16.0402,-11.51329 c 0.7359,-0.16673 1.209,-0.39586 1.6346,-0.7917 0.4583,-0.4262 0.6505,-0.83429 0.6505,-1.38084 0,-0.74576 -0.522,-1.46538 -1.331,-1.83482 -0.9307,-0.42499 -0.8314,-0.41738 -5.7936,-0.44358 l -4.5671,-0.0241 v 2.29593 2.29593 h 4.4455 c 3.8511,0 4.5144,-0.0156 4.9611,-0.11681 z m -27.8927,-1.64373 c 0.708,-0.38533 1.0502,-1.04089 0.9891,-1.89477 -0.08,-1.11219 -0.9647,-1.86245 -2.0906,-1.77207 -0.539,0.0433 -0.9333,0.23596 -1.2895,0.6302 -0.379,0.41949 -0.4966,0.73268 -0.4969,1.32262 -3e-4,0.62761 0.1952,1.06731 0.6541,1.47125 0.614,0.54047 1.5083,0.63766 2.2338,0.24277 z m 49.1861,0.057 c 0.6548,-0.33716 1.0385,-0.9237 1.092,-1.66927 0.058,-0.80613 -0.3331,-1.48327 -1.0687,-1.85085 -0.6279,-0.31378 -1.1667,-0.31022 -1.7858,0.0118 -1.1991,0.62373 -1.4318,2.18099 -0.4672,3.12763 0.5794,0.56867 1.5446,0.73346 2.2297,0.38067 z m -24.6136,-17.93569 c 0.703,-0.35131 1.0668,-0.94646 1.0668,-1.74542 0,-0.23642 -0.038,-0.53249 -0.084,-0.65795 -0.3809,-1.03293 -1.5397,-1.56127 -2.5706,-1.17198 -0.7157,0.27025 -1.2747,1.07273 -1.2747,1.82993 0,0.82347 0.6286,1.65868 1.4324,1.90317 0.4339,0.132 0.9683,0.0731 1.4302,-0.15775 z"
       id="path843" />
  </g>
  <style
     type="text/css"
     id="style2424">
	.st0{fill:#00ACD7;}
</style>
</svg>
