<?xml version="1.0" encoding="UTF-8" standalone="no"?>
<!-- Created with Inkscape (http://www.inkscape.org/) -->

<svg
   width="160"
   height="90"
   id="svg1968"
   sodipodi:version="0.32"
   inkscape:version="1.1.2 (0a00cf5339, 2022-02-04)"
   version="1.0"
   sodipodi:docname="perl-logo.svg"
   inkscape:export-filename="/home/michael/programming/websites/workspace/src/content/perl/perl-logo.png"
   inkscape:export-xdpi="1228.8"
   inkscape:export-ydpi="1228.8"
   xmlns:inkscape="http://www.inkscape.org/namespaces/inkscape"
   xmlns:sodipodi="http://sodipodi.sourceforge.net/DTD/sodipodi-0.dtd"
   xmlns="http://www.w3.org/2000/svg"
   xmlns:svg="http://www.w3.org/2000/svg"
   xmlns:rdf="http://www.w3.org/1999/02/22-rdf-syntax-ns#"
   xmlns:cc="http://creativecommons.org/ns#"
   xmlns:dc="http://purl.org/dc/elements/1.1/">
  <defs
     id="defs1970" />
  <sodipodi:namedview
     id="base"
     pagecolor="#ffffff"
     bordercolor="#666666"
     borderopacity="1.0"
     inkscape:pageopacity="0.0"
     inkscape:pageshadow="2"
     inkscape:zoom="4.1171966"
     inkscape:cx="30.72479"
     inkscape:cy="62.542556"
     inkscape:document-units="px"
     inkscape:current-layer="Ebene_x0020_1"
     width="68.51mm"
     height="129.89mm"
     units="mm"
     inkscape:window-width="2496"
     inkscape:window-height="1369"
     inkscape:window-x="2624"
     inkscape:window-y="34"
     inkscape:pagecheckerboard="0"
     showgrid="false"
     inkscape:window-maximized="1"
     inkscape:snap-to-guides="false" />
  <metadata
     id="metadata1973">
    <rdf:RDF>
      <cc:Work
         rdf:about="">
        <dc:format>image/svg+xml</dc:format>
        <dc:type
           rdf:resource="http://purl.org/dc/dcmitype/StillImage" />
      </cc:Work>
    </rdf:RDF>
  </metadata>
  <g
     inkscape:label="Ebene 1"
     inkscape:groupmode="layer"
     id="layer1"
     transform="translate(3824.556,782.8939)">
    <g
       id="Ebene_x0020_1"
       transform="translate(-3826.724,-785.8793)"
       inkscape:label="Ebene 1"
       inkscape:groupmode="layer">
      <metadata
         id="CorelCorpID_0Corel-Layer" />
      <path
         d="m 65.197712,45.016365 c -0.48438,0.101321 -0.844048,0.279243 -1.076333,0.53875 -0.233869,0.255761 -0.251015,0.662389 -0.05187,1.21362 0.307295,0.800592 0.548402,1.710498 0.72149,2.718732 0.176917,1.01089 0.261932,1.976249 0.261932,2.895479 h 0.341184 c 0.222707,-0.98342 0.349999,-2.124201 0.375979,-3.417996 0.02807,-1.294214 -0.163601,-2.610496 -0.572389,-3.948585 z M 82.167967,22.487949 c 14.043455,0 25.497403,11.453953 25.497403,25.497412 0,14.04346 -11.453948,25.49741 -25.497403,25.49741 -14.043466,0 -25.497412,-11.45395 -25.497412,-25.49741 0,-14.043459 11.453946,-25.497412 25.497412,-25.497412 z m 0,1.036533 c 8.266157,0 15.595845,4.137328 20.027313,10.44622 l -0.78053,-0.123716 -1.641128,-0.146119 -1.27665,0.182 -1.27523,0.58429 -1.53242,1.0939 -1.09373,0.874857 -0.91191,1.166498 -0.47373,1.095152 -1.167663,0.692195 -1.093562,0.401541 -0.656557,0.40138 -1.459562,1.275565 -1.05644,1.349327 c -3.931345,7.749142 -1.153263,-3.057409 -1.304039,-6.896016 0.682866,-3.106284 0.19057,-2.810056 -1.613746,-5.538694 l -1.896905,-1.568209 -1.582204,-0.363988 -1.257157,0.306874 -1.682198,0.392303 -0.286062,1.002649 -1.303212,0.813755 -2.150754,0.280073 -1.061342,0.06943 -1.365739,0.140034 -0.976669,0.246274 -1.563967,1.975581 0.46631,0.79476 0.475397,0.03874 -0.1238,0.314712 0.704351,1.445819 c 1.66004,-0.03971 2.086136,-0.0795 3.746183,-0.119298 1.123539,0.295221 1.957849,1.605334 1.970254,2.455961 0.47365,0.67213 -0.285978,2.383872 -1.677027,4.742937 -1.871261,3.173221 -1.179411,6.254774 -0.88326,8.841956 0.180824,0.983172 0.361414,1.351826 0.643732,2.132517 H 70.03306 c -0.401539,-0.395718 -1.558224,-1.296964 -3.860586,-1.428426 -0.06028,-0.0036 -0.119719,-0.0063 -0.178915,-0.01 -0.04223,-0.03346 -0.08293,-0.07051 -0.121304,-0.108896 0,-0.207471 0.02872,-0.387971 0.08301,-0.53875 0.212294,-1.150677 0.279407,-2.382618 0.201151,-3.686496 -0.07902,-1.306369 -0.229543,-2.506007 -0.452173,-3.59841 0.530429,0.115812 0.820908,0.276497 0.864033,0.480223 0.04682,0.20789 0.10615,0.526759 0.183999,0.960528 0.362074,-0.504365 0.558808,-0.920649 0.587032,-1.249505 0.026,-0.328531 -0.198978,-0.572054 -0.677531,-0.729162 0.196734,-0.37806 0.665217,-0.507692 1.40519,-0.387971 0.739146,0.116147 1.306543,0.634076 1.702086,1.549648 0,-0.307967 -0.108809,-0.735072 -0.324026,-1.275404 -0.215056,-0.540914 -0.537582,-0.810583 -0.972266,-0.810583 0.06396,0 0.144192,-0.02206 0.240777,-0.06676 0.09741,-0.04704 0.307715,-0.06178 0.631411,-0.04704 -0.804254,-0.62017 -1.433336,-0.775856 -1.883335,-0.465818 -0.453492,0.311378 -0.841384,0.465818 -1.164006,0.465818 0.237284,-0.87394 0.636248,-1.372886 1.197391,-1.500269 0.560812,-0.127297 0.902332,0.172838 1.029625,0.903246 0.05672,-0.12222 0.06636,-0.337189 0.03078,-0.642237 -0.03583,-0.305306 -0.128547,-0.54033 -0.279407,-0.708341 -0.411453,-0.423943 -0.8796,-0.393143 -1.407525,0.09025 -0.528016,0.486879 -0.85904,0.89866 -0.996247,1.237182 0.186832,-0.747889 0.385642,-1.258004 0.59553,-1.52384 0.209144,-0.269666 0.411789,-0.418944 0.610935,-0.449746 0.196061,-0.03472 0.382893,-0.0087 0.555981,0.07659 0.172836,0.0875 0.320036,0.106236 0.442258,0.06303 -0.796681,-0.365999 -1.388873,-0.505534 -1.776849,-0.422938 -0.385894,0.08292 -0.655231,0.253423 -0.802178,0.513189 -0.150854,0.258175 -0.222623,0.534833 -0.219874,0.83289 0.0019,0.297805 -0.0085,0.478144 -0.026,0.537332 -0.667377,-0.589196 -1.371728,-0.868526 -2.111204,-0.835389 -0.739903,0.03113 -1.343006,0.714423 -1.80916,2.048932 0.276994,-0.253347 0.539081,-0.591448 0.783855,-1.024461 0.245692,-0.428609 0.792186,-0.377991 1.641058,0.153271 -0.113387,0.06194 -0.290479,0.168011 -0.525254,0.3177 -0.236204,0.153278 -0.352256,0.515189 -0.352256,1.092404 -0.300232,-0.09666 -0.540084,-0.08267 -0.724168,0.04105 -0.184244,0.124548 -0.318703,0.261757 -0.397793,0.413869 -0.15811,-0.08542 -0.359584,-0.168011 -0.605445,-0.245858 -0.248266,-0.08026 -0.499617,-0.03597 -0.750302,0.132125 -0.14328,0.127297 -0.243357,0.326366 -0.300549,0.603024 -0.05911,0.274582 -0.01565,0.488134 0.123709,0.638907 -0.08533,0.168431 -0.217455,0.320209 -0.39313,0.459743 -0.175165,0.137038 -0.243112,0.503028 -0.196236,1.095145 0.09525,-0.212718 0.307967,-0.504529 0.638914,-0.880013 0.331185,-0.371993 0.626579,-0.561151 0.88476,-0.561151 0,0.212804 -0.0071,0.454995 -0.02108,0.724335 -0.01242,0.271823 0.05944,0.517682 0.217805,0.740064 0,-0.264256 0.03564,-0.518025 0.108478,-0.758719 0.07552,-0.242275 0.160853,-0.469648 0.261926,-0.682445 0.04107,0 0.218794,0.03147 0.537917,0.0905 0.317701,0.06194 0.542329,0.184074 0.674537,0.36441 -0.551234,0.08542 -0.868521,0.324029 -0.958691,0.716837 -0.08934,0.390384 -0.146119,0.7095 -0.169505,0.949037 0,0.07309 0.0518,0.0263 0.155607,-0.134546 0.104068,-0.161929 0.238604,-0.336022 0.409118,-0.519183 0.168012,-0.183998 0.357165,-0.32612 0.563471,-0.425026 0.207889,-0.09741 0.413865,-0.0482 0.621425,0.148365 0.137369,0.137373 0.300556,0.457159 0.485719,0.96236 0.186819,0.50453 0.336107,1.070673 0.448576,1.694923 0.110154,0.622259 0.149702,1.238101 0.116485,1.849786 -0.03227,0.564724 -0.175591,1.014635 -0.430105,1.347083 -2.545221,0.179993 -3.368955,1.0392 -3.481851,1.423589 h -2.153919 c -0.545569,-2.023291 -0.837717,-4.148651 -0.837717,-6.340367 0,-13.472741 10.988135,-24.460882 24.46088,-24.460882 z m 22.764023,15.519265 c 0.10832,0.274323 0.21022,0.551654 0.30879,0.830639 0.003,0.04812 0.004,0.09375 0.004,0.135544 0,0.218713 0,0.801838 -0.18324,0.911903 -0.1815,0.108985 -0.47323,0.802176 -0.69343,0.802176 -0.21847,0 -0.58314,0.255922 -0.8016,0.583457 -0.21904,0.32861 -0.36466,1.130697 -0.36466,1.130697 l -0.40071,0.656556 -0.51161,0.145619 -0.51019,1.203714 -0.0358,1.384963 -0.18325,6.017585 0.65648,-0.656145 0.25593,-1.385633 c 0.0827,0.0691 0.16526,0.185578 0.2471,0.312882 l -0.0112,0.164428 c 0,0 -0.10989,2.114118 -0.10989,2.333083 0,0.218465 -0.32762,1.313618 -0.32762,1.313618 l -0.18282,1.020467 h 0.80184 c 0,0 0.40154,-0.510113 0.51053,-0.765875 0.10997,-0.254592 0.0729,-1.531079 0.0729,-1.531079 0,0 0.19033,-1.306531 0.29665,-2.029364 0.0753,-0.02947 0.12479,-0.05188 0.12479,-0.05188 l 0.8752,0.983756 c 0,0 -0.47365,0.80342 -0.36475,1.094733 0.11014,0.291734 0.5832,1.129537 0.5832,1.129537 0,0 -0.87493,0.474896 -0.5832,0.766286 0.16276,0.162934 0.53575,0.387971 0.83364,0.555236 -0.61551,1.740885 -1.42251,3.392931 -2.39636,4.929507 h -4.139238 c 0.0307,-0.05186 0.0491,-0.08658 0.0491,-0.08658 l 0.36441,-0.365576 c 0,0 0.69361,-0.47373 1.093898,-0.58346 0.40155,-0.108898 1.02205,-0.510441 1.02205,-0.510441 l 0.80225,-0.583458 v -0.547581 l 0.72883,-0.327279 0.21897,-0.437506 -0.83931,-0.839142 c 0,0 -0.18158,-0.182827 -0.51003,-0.109816 -0.32761,0.07268 -1.20405,0.365576 -1.20405,0.365576 l -0.437508,0.327287 -0.69185,0.21904 -1.0581,0.2188 -0.47448,-0.291732 -0.91049,-0.473395 -0.73066,-0.14578 -0.25459,0.910907 0.1815,0.839307 0.11023,0.801754 -0.40163,0.693189 -0.47331,0.766286 0.10865,0.947956 -0.0356,1.312528 -0.21905,1.385383 -0.10981,1.240427 -0.10857,1.203717 v 1.275817 l -0.025,0.619843 c -0.7752,0.475148 -1.57912,0.907405 -2.407678,1.295462 h -4.210956 c -0.09316,-1.383047 -0.189406,-2.97165 -0.205393,-4.56143 h 2.500343 l 0.672965,3.802719 1.267906,0.400296 1.276733,-3.307258 0.47322,-3.829527 -0.65605,-0.47323 0.40146,-1.495452 -0.47457,-1.130694 -0.765866,-0.327614 0.146946,-0.693602 -0.474968,0.181909 0.07309,-1.166585 -0.510444,0.583545 -0.437426,-0.765452 -0.547574,-0.291314 0.110141,-1.823973 c -0.195227,-0.802258 -0.389212,-1.604433 -0.584619,-2.407431 -0.181665,-0.03597 -0.364416,-0.0731 -0.54641,-0.108906 l -0.255425,1.349419 -0.327616,0.51069 -0.730408,-1.239518 -0.729154,-0.03714 1.198555,1.747544 -0.763871,2.332919 -0.401629,0.218636 -1.890327,-0.472311 -0.274828,0.932718 -0.839307,-0.583047 -0.663632,-1.007146 -0.328786,0.510355 h -1.020875 l -0.327286,0.839056 -1.079993,-0.513523 -0.883681,-0.118802 c -1.459815,-0.255846 -4.241318,-2.023042 -4.734192,-3.565107 -0.06827,-0.220295 -0.134375,-0.615928 -0.19707,-0.993661 -0.04877,-0.293735 -0.09558,-0.576801 -0.139788,-0.7578 -0.438254,-1.794166 -0.632323,-3.256478 -0.112055,-5.476667 1.031542,-3.923609 2.507176,-5.845733 2.819709,-7.313378 0.05788,-0.271747 2.200461,-1.319693 2.168577,-1.570041 -0.648065,0.123139 -1.545981,0.683621 -2.193716,0.47323 l 1.93787,-1.219204 c -1.032879,0.253347 -0.940879,0.387137 -1.973583,0.307213 l 2.63197,-1.259659 -3.610981,0.540993 c -0.0013,-0.0308 -0.857455,-0.522184 -2.635807,-0.928054 l -2.847355,0.209394 -0.225708,-1.098985 0.981507,-0.487886 -1.287469,0.02497 -0.494631,-0.748382 0.812338,-1.00565 2.147169,-0.328696 2.996471,-0.06054 0.620591,0.439004 c 0.870022,-0.321865 1.255663,0.0091 1.692009,0.554824 0.117559,0.597864 -0.774529,-0.605438 -1.199473,-0.116136 l 0.122306,0.975583 c 1.146111,-0.108808 2.234842,0.106571 2.730055,-0.718663 0.33136,-0.848628 -0.01824,-1.567382 -1.048776,-2.156502 l -0.300555,0.73416 -0.947456,0.306298 -0.26992,-0.840549 1.960189,-1.231779 1.235931,-0.111311 1.573784,0.42669 1.351077,1.276314 c 0.557074,0.495206 -2.439227,1.243588 0.495549,2.82587 l -2.078077,1.12746 c -0.324363,0.175922 2.458473,-0.225709 1.930296,1.551309 0.392969,0.875518 -1.348167,0.09341 -3.499754,2.308685 0.726994,0.996581 2.689589,-0.925801 0.222798,1.270405 l 3.38427,-1.203046 0.0094,0.452744 c -0.663212,0.185577 -2.362716,0.902913 -3.662345,1.250502 1.064181,0.293565 2.879822,-0.0052 3.641623,-0.559725 l -0.09342,1.878171 -1.024968,1.178576 -0.984923,0.254592 0.54758,0.87644 -0.182835,0.729153 -0.839294,0.510114 1.227102,0.109817 -0.572052,0.598525 -1.747791,0.413285 1.903734,-0.04554 c 0.708257,0.657054 -0.876599,0.741806 -2.010305,1.000985 1.31678,0.151528 2.474623,0.239192 2.521745,-0.117142 l 0.126219,0.205227 c 0.844791,1.064343 -1.186733,0.735313 -2.277133,1.069841 1.637223,0.323867 2.826284,0.383891 3.029601,-0.135879 0.330442,0.590788 0.32803,0.486056 0.34643,0.604023 0.05517,0.354508 -1.545237,0.872943 -2.732377,1.520342 -0.454662,0.247938 3.0052,0.07951 3.865656,-1.242926 0.212637,-0.326951 -1.863856,1.734059 0.571134,0.193066 0.186244,-0.117804 0.16668,0.376239 0.341766,0.10865 0.133456,0.12239 -0.084,0.572551 0.04961,-0.255511 0.243099,1.858853 0.97709,2.248077 1.932534,1.969924 0.145621,-0.145619 0.291727,-0.291735 0.438674,-0.43743 -0.461899,-0.899663 -0.924393,-1.799165 -1.386454,-2.69908 0.580958,0.687195 1.011969,1.076334 0.401706,-0.620171 0.570721,0.474476 1.141603,0.947785 1.713908,1.422261 0.145615,-0.120968 0.291728,-0.243435 0.437349,-0.36466 -0.452172,-0.653807 -0.905586,-1.307203 -1.358166,-1.960932 -0.07152,-0.674869 0.154527,-0.991245 0.677382,-0.953118 0.316362,0.152112 0.633985,0.305057 0.951699,0.457495 0.1357,0.0099 0.273076,0.01956 0.408782,0.02822 -0.441087,-0.469648 -1.490451,-1.542065 -1.206297,-2.859514 l 2.69916,-2.66194 1.620499,1.239596 0.21863,0.145702 0.25593,0.583125 0.58304,0.547821 0.69211,0.765952 2.37029,0.58346 0.32887,0.03564 -0.25593,-0.764792 0.32887,-0.693191 0.80184,-0.510526 c 0,0 -1.0209,0 -1.20365,0.03563 -0.18165,0.03705 -1.89573,0.07335 -1.89573,0.07335 l -0.80193,-0.0363 -0.36474,-0.547246 0.5465,0.2188 h 0.58303 l 0.2561,-0.327611 0.0356,-0.656145 -0.65624,-0.474561 0.29175,-0.07301 0.80341,0.583374 0.29139,-0.327614 -0.29139,-0.401791 -0.80341,-1.057686 -0.76505,-1.750041 -0.0371,-0.18275 1.56837,-0.874936 0.69294,-0.547239 0.9124,-0.219047 0.802,-0.620507 0.54608,-0.03563 0.730408,0.729164 0.98408,0.874763 0.65581,0.839057 0.69352,0.839641 0.5102,0.583037 0.25609,-0.802001 0.43743,0.25418 0.18134,-0.691693 0.43883,0.619009 z m -2.32276,22.347254 c -0.91074,1.382799 -1.95702,2.669352 -3.121018,3.838598 h -3.36746 l 0.11599,-0.347257 0.32736,-1.422432 -0.0356,-1.095152 0.47456,-0.546241 0.76479,-0.401542 c 0,0 0.32886,0.07293 0.51036,0.07293 0.0495,0 0.10715,-0.04038 0.16476,-0.09891 z m -3.488678,4.199261 c -1.11438,1.073671 -2.33034,2.042524 -3.63095,2.891648 l 0.27257,-2.178729 0.23811,-0.712919 z m -7.430021,4.921099 c -2.929111,1.245427 -6.147879,1.934873 -9.522564,1.934873 -3.374705,0 -6.593553,-0.689696 -9.522825,-1.934873 h 12.343612 l 0.781947,1.190394 2.578937,-0.541578 c -0.01429,-0.20947 -0.02898,-0.426185 -0.04424,-0.648816 z M 71.843798,70.151694 C 69.385739,69.000432 67.148491,67.45245 65.2152,65.590262 h 18.454697 c -0.02115,0.778366 -0.135538,1.575625 -0.342839,2.391197 l 1.425498,2.170235 z M 64.847707,65.229599 C 63.683448,64.060515 62.637596,62.7738 61.726688,61.391001 h 21.072599 c 0.568975,1.224105 0.860366,2.503505 0.873695,3.838598 z M 61.49307,61.030164 c -0.3978,-0.627498 -0.768618,-1.273729 -1.109213,-1.937871 h 20.133719 c 0.968766,0.6857 1.66004,1.331684 2.07399,1.937871 z m -1.288388,-2.29753 C 59.935267,58.185225 59.685663,57.626409 59.456876,57.057106 H 76.57715 c 0.03822,0.04396 0.07652,0.08717 0.115476,0.129461 1.032633,0.535332 2.542389,1.050521 3.296772,1.546067 z m -0.888343,-2.03536 c -0.112638,-0.293726 -0.221123,-0.589625 -0.32261,-0.888592 h 16.722975 c 0.177325,0.321952 0.367571,0.617919 0.570464,0.888592 z m -0.439917,-1.248175 c -0.04547,-0.141126 -0.08943,-0.282827 -0.132382,-0.425026 h 16.587928 c 0.06377,0.145952 0.129388,0.287482 0.197322,0.425026 z m 23.291629,-43.986 c 20.115729,0 36.522249,16.406516 36.522249,36.52234 0,20.115741 -16.40652,36.522262 -36.522249,36.522262 -20.11583,0 -36.522353,-16.406521 -36.522353,-36.522262 0,-20.115824 16.406523,-36.52234 36.522353,-36.52234 z m 0,2.478788 c 18.750509,0 34.043469,15.292963 34.043469,34.043552 0,18.750509 -15.29296,34.043477 -34.043469,34.043477 -18.750602,0 -34.043565,-15.292968 -34.043565,-34.043477 0,-18.750589 15.292963,-34.043552 34.043565,-34.043552 z m -18.49409,30.080656 c 0.05672,0 0.160522,-0.04796 0.315042,-0.151778 0.153273,-0.101408 0.359584,-0.09525 0.619266,0.01474 -0.03221,-0.361994 -0.191573,-0.573297 -0.482065,-0.635245 -0.291721,-0.06036 -0.442581,0.196409 -0.452243,0.772292 z m -2.228181,1.017219 c -0.09016,-0.09533 -0.230118,-0.147199 -0.421354,-0.154438 -0.189581,-0.0088 -0.331606,0.01474 -0.426697,0.06943 -0.04702,0.07785 -0.08899,0.183995 -0.129621,0.323368 -0.04197,0.139958 -0.04682,0.248522 -0.01597,0.328868 0.09649,-0.150943 0.230947,-0.224797 0.406545,-0.222468 0.172914,0.0026 0.310121,0.0097 0.414033,0.02599 0.0282,-0.0542 0.0542,-0.124807 0.07526,-0.205066 0.02089,-0.08059 0.05193,-0.137287 0.09782,-0.165675 z m 0.924394,-0.137209 c 0.08775,0.03105 0.211466,0.0965 0.374401,0.196399 0.165515,0.101323 0.305296,0.215057 0.422693,0.342352 -0.03208,-0.07027 -0.08659,-0.222375 -0.163012,-0.450913 -0.0781,-0.229951 -0.137214,-0.382062 -0.179168,-0.459746 -0.0595,0 -0.144865,0.03822 -0.251021,0.113563 -0.106487,0.07793 -0.173089,0.162933 -0.203893,0.258345 z m 1.357738,-0.172924 c -0.03066,0.0592 -0.04191,0.253185 -0.03305,0.579466 0.0052,0.326194 0.04572,0.506609 0.116394,0.548492 0.03072,-0.222298 0.09233,-0.527594 0.185241,-0.913151 0.09384,-0.385567 0.276665,-0.579552 0.548828,-0.579552 -0.25593,0.03113 -0.42669,0.06669 -0.506867,0.113812 -0.08026,0.0443 -0.18407,0.129633 -0.310541,0.250933 z m 26.784132,20.49997 -0.679283,-3.838598 h -1.537819 c -0.167099,1.189808 -0.22455,2.509164 -0.221626,3.838598 z m -0.743136,-4.199435 -0.02393,-0.134788 -0.498544,0.134788 z M 58.999802,71.82273 58.694751,68.910844 55.90301,68.189352 l 2.593844,-1.133445 -0.242278,-2.640799 1.788342,1.965087 2.652122,-1.158173 -1.366903,2.538311 1.845036,2.171486 -2.770671,-0.599109 z m 46.003708,0.301716 -1.40519,-2.618066 -2.89881,0.394637 1.99947,-2.060176 -1.24085,-2.386533 2.43466,1.158175 2.04377,-2.107212 -0.30763,2.909299 2.56694,1.329605 -2.83128,0.501945 z m -17.237243,7.510781 -0.959117,-4.684733 1.003399,-0.185499 0.795019,3.889138 2.495098,-0.460817 0.162935,0.795756 z m -5.121254,0.409367 -0.265832,-4.806282 2.149167,-0.107405 c 0.540253,-0.02597 0.935802,-0.0024 1.184993,0.07152 0.248596,0.07426 0.45399,0.217458 0.613005,0.430178 0.15952,0.215142 0.24619,0.463403 0.262178,0.747561 0.01979,0.359832 -0.07543,0.663633 -0.284238,0.909818 -0.210219,0.245857 -0.536333,0.410286 -0.976179,0.493296 0.22704,0.112144 0.417449,0.237113 0.569887,0.376736 0.15053,0.139699 0.35809,0.389137 0.622259,0.751219 l 0.670126,0.907242 -1.220946,0.06019 -0.795762,-1.009311 c -0.28332,-0.360913 -0.474562,-0.58704 -0.575966,-0.679781 -0.10291,-0.09133 -0.20906,-0.153279 -0.318871,-0.184245 -0.110147,-0.03081 -0.281735,-0.04071 -0.518017,-0.02806 l -0.205141,0.0097 0.11014,2.00697 z m 0.868779,-2.825208 0.753879,-0.03713 c 0.48938,-0.02464 0.794598,-0.05903 0.914492,-0.103659 0.119635,-0.04554 0.211305,-0.118638 0.275656,-0.218877 0.06293,-0.09882 0.0915,-0.221044 0.0826,-0.364247 -0.0084,-0.163347 -0.06144,-0.290644 -0.158104,-0.38597 -0.09525,-0.09491 -0.227376,-0.15053 -0.394133,-0.168843 -0.08401,-0.0063 -0.332524,0 -0.74648,0.0204 l -0.79584,0.03988 z m -5.588307,2.548635 0.352088,-4.800297 3.743195,0.248607 -0.05911,0.812997 -2.723801,-0.181582 -0.0791,1.064006 2.535902,0.168011 -0.05937,0.80817 -2.535986,-0.168011 -0.09532,1.306283 2.82047,0.187828 -0.05957,0.809414 z m -4.587575,-1.000075 1.138194,-4.688728 1.598095,0.351174 c 0.604199,0.132208 0.993669,0.243195 1.166583,0.331021 0.265676,0.130879 0.465741,0.336022 0.599371,0.614518 0.133624,0.277821 0.154514,0.602693 0.06429,0.974679 -0.0706,0.288065 -0.184077,0.518849 -0.342349,0.689608 -0.157023,0.173171 -0.333688,0.29656 -0.53167,0.370739 -0.195071,0.07551 -0.385143,0.111399 -0.568308,0.10865 -0.249514,-0.0072 -0.599199,-0.05953 -1.050362,-0.159268 l -0.648731,-0.142208 -0.430183,1.768862 z m 1.941614,-3.676584 -0.323703,1.329517 0.544831,0.120134 c 0.393047,0.08651 0.661307,0.119721 0.806081,0.100075 0.142956,-0.02106 0.265424,-0.07418 0.366749,-0.162014 0.10024,-0.08901 0.166596,-0.201149 0.201559,-0.34085 0.04075,-0.169512 0.02238,-0.322784 -0.05691,-0.457244 -0.07668,-0.132295 -0.194069,-0.232373 -0.348764,-0.29431 -0.114642,-0.04787 -0.350836,-0.111313 -0.709249,-0.189072 z m 33.949566,-23.462298 4.75267,0.752628 -0.51653,3.258979 -0.80458,-0.127307 0.36441,-2.298446 -1.12429,-0.178336 -0.3152,1.983583 -0.80426,-0.126969 0.31488,-1.98349 -2.01905,-0.320456 z m 2.60133,-5.441117 c 0.49062,0 0.90208,0.07276 1.23452,0.21996 0.24469,0.109731 0.46457,0.258174 0.66006,0.448586 0.19365,0.188902 0.33843,0.396629 0.43234,0.621417 0.1273,0.30048 0.19024,0.64532 0.19024,1.036959 0,0.709503 -0.21829,1.276651 -0.65972,1.702922 -0.43884,0.425352 -1.05044,0.637735 -1.83421,0.637735 -0.77703,0 -1.38522,-0.211138 -1.82389,-0.633913 -0.43743,-0.422604 -0.6573,-0.987329 -0.6573,-1.693259 0,-0.715582 0.21862,-1.285144 0.65372,-1.706502 0.43743,-0.422603 1.03928,-0.633905 1.80424,-0.633905 z m 0.0321,1.000986 c -0.54367,0 -0.95787,0.125802 -1.23843,0.376814 -0.28142,0.252102 -0.42145,0.572225 -0.42145,0.959027 0,0.386811 0.13854,0.705927 0.41911,0.954199 0.27924,0.246767 0.6971,0.371909 1.25434,0.371909 0.55116,0 0.9626,-0.12114 1.23443,-0.362256 0.27217,-0.242276 0.40663,-0.563555 0.40663,-0.963852 0,-0.400375 -0.13721,-0.722824 -0.41146,-0.969103 -0.27424,-0.243024 -0.68811,-0.366738 -1.24317,-0.366738 z m -1.173,-4.847082 -0.0614,0.985077 c -0.54525,-0.01248 -0.98135,-0.150933 -1.3102,-0.41519 -0.32861,-0.263011 -0.55607,-0.646401 -0.68087,-1.148185 -0.15452,-0.619346 -0.0692,-1.182567 0.25459,-1.686685 0.32362,-0.504446 0.85404,-0.849296 1.58804,-1.032037 0.77735,-0.193995 1.42983,-0.14354 1.96109,0.15052 0.52917,0.294474 0.8761,0.767541 1.03929,1.422766 0.14211,0.569553 0.089,1.076334 -0.15961,1.517423 -0.14562,0.262178 -0.39396,0.492959 -0.74114,0.692356 l -0.45616,-0.87752 c 0.22987,-0.114972 0.39189,-0.27824 0.48837,-0.489714 0.0963,-0.209884 0.1134,-0.439756 0.0504,-0.690767 -0.0854,-0.344939 -0.28024,-0.595536 -0.58188,-0.748808 -0.30147,-0.153272 -0.73174,-0.160855 -1.28756,-0.02231 -0.59111,0.147199 -0.98533,0.357254 -1.18173,0.632917 -0.19882,0.274247 -0.25435,0.581956 -0.17076,0.921896 0.0634,0.250683 0.19699,0.445914 0.40063,0.586705 0.2039,0.141281 0.48722,0.207635 0.84888,0.201562 z m -3.19453,-4.292021 4.43055,-1.880835 0.37948,0.894673 -4.43072,1.879754 z m -1.7587,-3.665347 4.21442,-2.240831 0.45583,0.857953 -3.49817,1.859853 1.13428,2.133272 -0.71684,0.380309 z m 1.21279,-6.778623 1.10347,1.575627 c 0.21846,0.311705 0.36808,0.553976 0.44983,0.726825 0.0814,0.17034 0.12214,0.344755 0.12489,0.524013 0.002,0.179168 -0.0371,0.355833 -0.11889,0.53275 -0.0791,0.176426 -0.20515,0.324867 -0.37591,0.443752 -0.1839,0.129387 -0.38755,0.198822 -0.61151,0.20723 -0.22471,0.0087 -0.43484,-0.04553 -0.63008,-0.161687 0.0974,0.288986 0.10731,0.557152 0.0295,0.803342 -0.0778,0.248351 -0.23095,0.450995 -0.4585,0.610269 -0.17916,0.124958 -0.38314,0.20639 -0.61026,0.241443 -0.22754,0.03557 -0.44417,0.01559 -0.64532,-0.05743 -0.20123,-0.0726 -0.38947,-0.207553 -0.56114,-0.402372 -0.10616,-0.122481 -0.34003,-0.436521 -0.69927,-0.941882 l -0.93947,-1.342171 z m -0.0989,1.255591 -0.91082,0.638985 0.36441,0.521432 c 0.21721,0.310548 0.35717,0.499449 0.41903,0.568476 0.11015,0.124971 0.23195,0.199146 0.36558,0.222287 0.13221,0.02387 0.26225,-0.0096 0.38955,-0.09982 0.12213,-0.08509 0.19757,-0.187912 0.22713,-0.307715 0.0286,-0.120967 0.005,-0.25335 -0.0727,-0.39672 -0.0458,-0.08533 -0.20032,-0.314952 -0.46224,-0.689605 z m -1.5673,1.097476 -1.05402,0.737904 0.51552,0.736481 c 0.20115,0.286897 0.33578,0.463316 0.40637,0.529006 0.10383,0.103822 0.22505,0.163012 0.3595,0.179245 0.13496,0.01598 0.27308,-0.0247 0.41287,-0.122467 0.11847,-0.08267 0.1979,-0.181911 0.24086,-0.296637 0.042,-0.116065 0.0448,-0.240945 0.006,-0.375739 -0.0384,-0.134627 -0.18407,-0.382893 -0.43742,-0.74489 z m -2.50001,-6.480649 0.71051,0.662552 -1.77694,1.906561 c -0.28207,0.301635 -0.45615,0.506776 -0.52277,0.613017 -0.10373,0.171588 -0.13845,0.356247 -0.10648,0.548738 0.0334,0.193907 0.14962,0.384309 0.34718,0.568308 0.20156,0.18949 0.39313,0.289645 0.5723,0.302968 0.17926,0.01345 0.33478,-0.03079 0.46699,-0.132123 0.13363,-0.100246 0.32886,-0.290486 0.58979,-0.568477 l 1.81548,-1.947616 0.71042,0.663471 -1.72374,1.847706 c -0.39463,0.422694 -0.69202,0.704513 -0.89358,0.842548 -0.20032,0.138539 -0.40787,0.220378 -0.62425,0.243525 -0.2138,0.02354 -0.44243,-0.0096 -0.68079,-0.09865 -0.23978,-0.09025 -0.49837,-0.265838 -0.77736,-0.525183 -0.33495,-0.31404 -0.55482,-0.589541 -0.65531,-0.829231 -0.10107,-0.239859 -0.1442,-0.468652 -0.12947,-0.686197 0.0148,-0.218626 0.0691,-0.410283 0.16444,-0.575546 0.14096,-0.246184 0.39521,-0.564725 0.76354,-0.959279 z m -6.968788,0.970183 2.62099,-4.036086 1.30779,0.848795 c 0.494208,0.321284 0.804248,0.552398 0.927968,0.689437 0.19315,0.211473 0.30164,0.46882 0.32611,0.772622 0.0239,0.305218 -0.0678,0.617842 -0.2769,0.937878 -0.16044,0.248266 -0.34094,0.42744 -0.54125,0.537503 -0.199968,0.110232 -0.398798,0.169254 -0.601858,0.175585 -0.19998,0.0065 -0.38189,-0.02231 -0.54483,-0.084 -0.21996,-0.08758 -0.51402,-0.25077 -0.88359,-0.490628 l -0.53159,-0.344431 -0.9885,1.522167 z m 2.99173,-2.823962 -0.74264,1.144267 0.445,0.289322 c 0.32129,0.208717 0.54999,0.327609 0.68603,0.355917 0.13446,0.02716 0.26176,0.01727 0.38273,-0.03344 0.12006,-0.05064 0.21913,-0.134633 0.29681,-0.253343 0.0952,-0.147038 0.129788,-0.296313 0.10623,-0.448673 -0.0244,-0.149282 -0.095,-0.28149 -0.21114,-0.390389 -0.0853,-0.08292 -0.27574,-0.217384 -0.5683,-0.407786 z m -7.035378,0.873604 1.957598,-4.395334 3.2588,1.450405 -0.33135,0.744307 -2.37138,-1.056763 -0.4351,0.974923 2.20712,0.982588 -0.32861,0.74031 -2.20696,-0.982587 -0.53284,1.196226 2.45565,1.093725 -0.33004,0.7404 z m -4.693814,-1.407525 1.326184,-4.626791 1.966009,0.564647 c 0.494457,0.140868 0.84172,0.286897 1.042037,0.43385 0.200057,0.147109 0.337271,0.345925 0.411446,0.597017 0.07309,0.252192 0.07068,0.512443 -0.0071,0.787025 -0.100161,0.346099 -0.284161,0.604274 -0.552741,0.772285 -0.268082,0.167177 -0.615346,0.222707 -1.037949,0.164429 0.167921,0.177085 0.297632,0.353588 0.38905,0.532756 0.09025,0.177998 0.195492,0.478139 0.315625,0.902074 l 0.306466,1.065514 -1.116218,-0.320113 -0.386799,-1.201641 c -0.137213,-0.428598 -0.23612,-0.701686 -0.298059,-0.820235 -0.06034,-0.118891 -0.136871,-0.210218 -0.224796,-0.272997 -0.09016,-0.06306 -0.240861,-0.124887 -0.456149,-0.186742 l -0.188999,-0.05452 -0.553652,1.931537 z m 1.700585,-2.402355 0.689612,0.197651 c 0.448583,0.128464 0.733985,0.190402 0.856459,0.185578 0.122216,-0.0065 0.227532,-0.04702 0.317707,-0.120968 0.08866,-0.07426 0.154514,-0.180752 0.193985,-0.320456 0.04553,-0.155607 0.03952,-0.292645 -0.0163,-0.412617 -0.05543,-0.120139 -0.155355,-0.213975 -0.300141,-0.283151 -0.07301,-0.03066 -0.297723,-0.101326 -0.676949,-0.209895 l -0.728326,-0.208711 z m -6.544838,0.363581 V 18.23964 h 2.094473 v 1.916637 c -0.203641,0.19782 -0.498945,0.37074 -0.884515,0.521516 -0.386974,0.149611 -0.778941,0.223871 -1.17416,0.223871 -0.503194,0 -0.941455,-0.10498 -1.316192,-0.315205 -0.374239,-0.212721 -0.654894,-0.514188 -0.844139,-0.906821 -0.187814,-0.393467 -0.281644,-0.820985 -0.281644,-1.281565 0,-0.500781 0.104979,-0.946952 0.313704,-1.33734 0.211388,-0.388222 0.517939,-0.687193 0.924639,-0.894837 0.307715,-0.160425 0.692024,-0.239775 1.151769,-0.239775 0.596772,0 1.063761,0.124881 1.398949,0.375488 0.336024,0.251099 0.552657,0.597444 0.6489,1.039702 l -0.965359,0.180079 c -0.06793,-0.235861 -0.195239,-0.423527 -0.383229,-0.559726 -0.18632,-0.137213 -0.42019,-0.205147 -0.699261,-0.205147 -0.424937,0 -0.762293,0.134963 -1.013314,0.402877 -0.251015,0.270831 -0.375902,0.668457 -0.375902,1.198801 0,0.571141 0.127299,1.000159 0.382065,1.285141 0.252018,0.285409 0.585797,0.427441 0.995995,0.427441 0.203641,0 0.40787,-0.03913 0.613018,-0.119726 0.20397,-0.07892 0.380726,-0.176425 0.527666,-0.288978 v -0.610269 z m -7.022145,2.497265 -0.752391,-4.752842 0.934308,-0.148195 2.448064,2.865671 -0.503201,-3.173716 0.892341,-0.142038 0.752799,4.753178 -0.963942,0.153272 -2.407435,-2.796489 0.491707,3.099043 z m -1.788096,0.683532 -1.406522,-4.602305 0.929632,-0.284161 1.406361,4.602306 z m -5.133645,2.158914 -1.956353,-4.397002 1.328518,-0.590621 2.131686,2.64321 -0.546079,-3.350135 1.331021,-0.592122 1.957602,4.395671 -0.824491,0.367493 -1.540987,-3.460541 0.668625,3.848188 -0.85503,0.380726 -2.411352,-3.072229 1.540994,3.460535 z m -4.517058,3.396177 -2.962165,-3.792891 1.145522,-0.894837 2.708983,2.048929 -1.340929,-3.117688 1.14827,-0.89734 2.96333,3.792819 -0.710418,0.554733 -2.331924,-2.985726 1.578039,3.574012 -0.736643,0.575972 -3.083482,-2.398772 2.332261,2.985804 z m -0.447257,0.277991 -0.69335,0.798517 -1.101065,-0.399553 -1.261658,1.451155 0.564725,1.016968 -0.676036,0.778533 -2.402608,-4.572756 0.673372,-0.774782 z m -2.610239,0.102826 -1.78318,-0.671296 0.92198,1.662291 z m -2.970825,7.178333 -3.892554,-2.828543 1.202216,-1.655875 c 0.301642,-0.415373 0.556233,-0.692354 0.763716,-0.829316 0.206389,-0.138119 0.439916,-0.199061 0.702009,-0.182828 0.260762,0.01688 0.505697,0.108647 0.736812,0.276658 0.29132,0.211221 0.470488,0.473399 0.536009,0.783519 0.06577,0.308802 -0.0013,0.653731 -0.199986,1.03079 0.223211,-0.09774 0.434684,-0.159598 0.63383,-0.182822 0.198809,-0.02471 0.516523,-0.02115 0.956614,0.01093 l 1.104635,0.07685 -0.68328,0.93921 -1.260579,-0.04702 c -0.448582,-0.01733 -0.738893,-0.0185 -0.872517,-0.0013 -0.133631,0.01714 -0.243448,0.05672 -0.333611,0.118555 -0.09033,0.06183 -0.200317,0.183081 -0.331192,0.364409 l -0.116227,0.158692 1.625162,1.181067 z m -1.675614,-2.419425 0.422777,-0.580706 c 0.272998,-0.37823 0.428521,-0.624252 0.465651,-0.741481 0.03596,-0.116142 0.03473,-0.22995 -0.0052,-0.34002 -0.03919,-0.109888 -0.116059,-0.207637 -0.233618,-0.292975 -0.130875,-0.09499 -0.261757,-0.135707 -0.394139,-0.124551 -0.130876,0.0108 -0.253182,0.07269 -0.368154,0.185241 -0.05446,0.05672 -0.197813,0.245026 -0.428934,0.564816 l -0.445834,0.611769 z m -1.045522,4.588825 -0.746726,-0.31637 0.818243,-1.928041 1.764774,0.748969 c 0.10249,0.265836 0.147109,0.604272 0.133624,1.018217 -0.01358,0.413867 -0.09649,0.803428 -0.252263,1.167838 -0.196326,0.463319 -0.464822,0.826817 -0.804506,1.088985 -0.341178,0.261842 -0.729154,0.40271 -1.164252,0.422365 -0.434593,0.01864 -0.86486,-0.06186 -1.289966,-0.241031 -0.461239,-0.196064 -0.830479,-0.466985 -1.107474,-0.813073 -0.27541,-0.344853 -0.431263,-0.745475 -0.463322,-1.198889 -0.02749,-0.345933 0.04948,-0.731491 0.229957,-1.154096 0.231865,-0.550071 0.531256,-0.930724 0.892004,-1.142027 0.362249,-0.211298 0.76512,-0.274408 1.209964,-0.19024 l -0.210218,0.957784 c -0.24469,-0.02831 -0.466905,0.01605 -0.666135,0.134622 -0.198738,0.118886 -0.352011,0.30655 -0.462074,0.563472 -0.165599,0.39181 -0.174168,0.755052 -0.02445,1.09024 0.150446,0.337276 0.469486,0.608016 0.956614,0.814327 0.525015,0.222633 0.970009,0.274409 1.331843,0.151941 0.361997,-0.122384 0.62292,-0.371987 0.783526,-0.751471 0.08026,-0.187654 0.122384,-0.390385 0.129711,-0.61026 0.0065,-0.218712 -0.01475,-0.419114 -0.0615,-0.598284 l -0.562423,-0.238607 z m -2.586601,7.679291 c -0.483306,-0.08542 -0.876107,-0.22879 -1.177743,-0.431519 -0.222706,-0.150772 -0.412701,-0.334767 -0.572298,-0.555982 -0.15811,-0.219884 -0.26459,-0.448587 -0.318542,-0.687108 -0.07335,-0.31771 -0.07576,-0.668547 -0.0076,-1.055273 0.123723,-0.698515 0.438675,-1.218618 0.945452,-1.560885 0.506447,-0.343596 1.146692,-0.446249 1.918059,-0.310544 0.76479,0.134959 1.327103,0.448663 1.685438,0.940705 0.358414,0.493132 0.477053,1.086246 0.353337,1.782261 -0.123723,0.7041 -0.437427,1.226952 -0.940045,1.568136 -0.503194,0.339766 -1.132283,0.442581 -1.886084,0.310209 z m 0.140784,-0.991083 c 0.536171,0.09383 0.966348,0.04071 1.28639,-0.157266 0.32129,-0.19882 0.51444,-0.4893 0.580796,-0.871189 0.0681,-0.380319 -0.01332,-0.718006 -0.247102,-1.012067 -0.231043,-0.291725 -0.621425,-0.486965 -1.170253,-0.584455 -0.543577,-0.09524 -0.968935,-0.04704 -1.279062,0.142121 -0.309293,0.191648 -0.497787,0.484217 -0.568386,0.878517 -0.06935,0.395797 0.01112,0.736731 0.238694,1.025715 0.227208,0.289226 0.613018,0.482128 1.158923,0.578624 z m 2.260233,6.03923 -4.811114,0.08384 -0.0357,-2.045022 c -0.0087,-0.514109 0.02846,-0.887262 0.109902,-1.121876 0.08259,-0.235113 0.232285,-0.425352 0.451247,-0.568721 0.219958,-0.143281 0.470649,-0.217132 0.755217,-0.22263 0.360742,-0.0058 0.660884,0.09566 0.900749,0.302891 0.237109,0.207806 0.391882,0.522842 0.459816,0.944203 0.119726,-0.212298 0.250601,-0.38914 0.395388,-0.527672 0.144612,-0.139536 0.400374,-0.327612 0.771115,-0.566144 l 0.92797,-0.604022 0.02115,1.160254 -1.035705,0.721664 c -0.369569,0.256096 -0.601854,0.430265 -0.698013,0.524011 -0.095,0.09408 -0.159603,0.191907 -0.195575,0.295315 -0.03441,0.10415 -0.04909,0.266998 -0.0443,0.490788 l 0.0026,0.196485 2.009218,-0.0348 z m -2.794147,-0.923062 -0.01196,-0.717664 c -0.0076,-0.466151 -0.03227,-0.757886 -0.07335,-0.874024 -0.04197,-0.113812 -0.111389,-0.203975 -0.208718,-0.268088 -0.09775,-0.06311 -0.217545,-0.09516 -0.362416,-0.09274 -0.162515,0.0038 -0.291314,0.04945 -0.390382,0.137035 -0.09741,0.08809 -0.15811,0.211388 -0.182751,0.369487 -0.0084,0.07909 -0.0099,0.314961 -0.0026,0.70951 l 0.01268,0.757551 z m 3.477434,5.369513 -4.739358,0.836977 -0.270663,-1.534661 c -0.102153,-0.582291 -0.144366,-0.966601 -0.128126,-1.15101 0.02205,-0.284234 0.137032,-0.539919 0.343344,-0.764963 0.205148,-0.224788 0.496869,-0.370483 0.873604,-0.437508 0.291812,-0.05037 0.545161,-0.04063 0.761459,0.02989 0.217468,0.07026 0.396714,0.176498 0.538752,0.320038 0.142122,0.142113 0.24586,0.295306 0.311382,0.456154 0.08542,0.219969 0.166763,0.547246 0.243765,0.981093 l 0.109824,0.62292 1.788005,-0.315287 z m -4.105191,-0.261758 1.343419,-0.237274 -0.09142,-0.522681 c -0.06669,-0.37707 -0.135791,-0.625504 -0.20789,-0.74398 -0.07143,-0.117392 -0.166595,-0.204311 -0.28548,-0.25826 -0.1184,-0.0522 -0.247024,-0.06785 -0.387892,-0.04338 -0.171594,0.03106 -0.305296,0.106406 -0.400297,0.228541 -0.09292,0.119892 -0.141204,0.260759 -0.141204,0.42036 -0.0019,0.118887 0.02865,0.349671 0.08934,0.69435 z m 49.392142,-4.005449 0.29173,1.167839 c 0,0 -0.32852,0.911072 -0.36441,1.129364 -0.0371,0.219136 -0.073,1.095153 -0.073,1.349832 0,0.255761 -0.0371,1.532412 -0.0371,1.532412 l -0.766288,1.641144 -0.18159,-0.911991 -0.32844,-0.839221 -0.54649,-1.312278 v -1.495449 c 0,0 -0.0729,-0.766201 0.14578,-0.874851 0.21872,-0.110065 0.61901,-0.40179 0.61901,-0.40179 l 0.693608,-0.43743 z"
         fill="#1b1918"
         fill-rule="evenodd"
         id="path2418"
         style="stroke-width:0.0858949" />
    </g>
  </g>
</svg>
