<?xml version="1.0" encoding="UTF-8" standalone="no"?>
<!-- Created with Inkscape (http://www.inkscape.org/) -->

<svg
   width="160"
   height="90"
   id="svg1968"
   sodipodi:version="0.32"
   inkscape:version="1.1.2 (0a00cf5339, 2022-02-04)"
   version="1.0"
   sodipodi:docname="dart-logo.svg"
   inkscape:export-filename="/home/michael/programming/websites/workspace/src/content/dart/dart-logo.png"
   inkscape:export-xdpi="1228.8"
   inkscape:export-ydpi="1228.8"
   xmlns:inkscape="http://www.inkscape.org/namespaces/inkscape"
   xmlns:sodipodi="http://sodipodi.sourceforge.net/DTD/sodipodi-0.dtd"
   xmlns="http://www.w3.org/2000/svg"
   xmlns:svg="http://www.w3.org/2000/svg"
   xmlns:rdf="http://www.w3.org/1999/02/22-rdf-syntax-ns#"
   xmlns:cc="http://creativecommons.org/ns#"
   xmlns:dc="http://purl.org/dc/elements/1.1/">
  <defs
     id="defs1970" />
  <sodipodi:namedview
     id="base"
     pagecolor="#ffffff"
     bordercolor="#666666"
     borderopacity="1.0"
     inkscape:pageopacity="0.0"
     inkscape:pageshadow="2"
     inkscape:zoom="5.8530765"
     inkscape:cx="67.058751"
     inkscape:cy="42.968856"
     inkscape:document-units="px"
     inkscape:current-layer="Ebene_x0020_1"
     width="68.51mm"
     height="129.89mm"
     units="mm"
     inkscape:window-width="2496"
     inkscape:window-height="1369"
     inkscape:window-x="2624"
     inkscape:window-y="34"
     inkscape:pagecheckerboard="0"
     showgrid="false"
     inkscape:window-maximized="1" />
  <metadata
     id="metadata1973">
    <rdf:RDF>
      <cc:Work
         rdf:about="">
        <dc:format>image/svg+xml</dc:format>
        <dc:type
           rdf:resource="http://purl.org/dc/dcmitype/StillImage" />
      </cc:Work>
    </rdf:RDF>
  </metadata>
  <g
     inkscape:label="Ebene 1"
     inkscape:groupmode="layer"
     id="layer1"
     transform="translate(3824.556,782.8939)">
    <g
       id="Ebene_x0020_1"
       transform="translate(-3826.724,-785.8793)"
       inkscape:label="Ebene 1"
       inkscape:groupmode="layer">
      <metadata
         id="CorelCorpID_0Corel-Layer" />
      <g
         id="g2546"
         transform="matrix(0.26257334,0,0,0.26257334,20.412064,28.292399)">
        <g
           id="g2526">
          <path
             fill="#757575"
             d="m 220.57,22.87 h 30.32 c 10.29,0 19.28,2.13 26.95,6.39 7.67,4.26 13.57,10.18 17.69,17.76 4.12,7.58 6.18,16.28 6.18,26.11 0,9.83 -2.06,18.53 -6.18,26.11 -4.12,7.58 -10.01,13.5 -17.69,17.76 -7.67,4.26 -16.66,6.39 -26.95,6.39 H 220.57 Z M 250.89,112 c 11.88,0 21.31,-3.41 28.28,-10.25 6.97,-6.83 10.46,-16.37 10.46,-28.63 0,-12.26 -3.49,-21.8 -10.46,-28.63 -6.97,-6.83 -16.4,-10.25 -28.28,-10.25 H 232.36 V 112 Z"
             id="path2518" />
          <path
             fill="#757575"
             d="m 320.08,122.53 c -4.12,-2.06 -7.3,-4.89 -9.54,-8.49 -2.25,-3.6 -3.37,-7.7 -3.37,-12.28 0,-7.58 2.85,-13.5 8.56,-17.76 5.71,-4.26 12.91,-6.39 21.62,-6.39 4.3,0 8.3,0.47 12,1.4 3.7,0.94 6.53,2.01 8.49,3.23 V 77.9 c 0,-5.33 -1.87,-9.61 -5.61,-12.84 -3.74,-3.23 -8.47,-4.84 -14.18,-4.84 -4.02,0 -7.72,0.87 -11.09,2.6 -3.37,1.73 -6.04,4.14 -8,7.23 l -8.98,-6.74 c 2.81,-4.3 6.67,-7.67 11.58,-10.11 4.91,-2.43 10.36,-3.65 16.35,-3.65 9.73,0 17.38,2.55 22.95,7.65 5.57,5.1 8.35,12.05 8.35,20.84 v 45.34 h -11.37 v -10.25 h -0.56 c -2.06,3.46 -5.15,6.41 -9.26,8.84 -4.12,2.43 -8.75,3.65 -13.9,3.65 -5.24,0 -9.92,-1.03 -14.04,-3.09 z M 346.47,112 c 3.46,-2.06 6.22,-4.82 8.28,-8.28 2.06,-3.46 3.09,-7.25 3.09,-11.37 -2.25,-1.5 -5.01,-2.71 -8.28,-3.65 -3.28,-0.93 -6.74,-1.4 -10.39,-1.4 -6.55,0 -11.49,1.36 -14.81,4.07 -3.32,2.72 -4.98,6.22 -4.98,10.53 0,3.93 1.5,7.11 4.49,9.54 2.99,2.43 6.78,3.65 11.37,3.65 4.03,0 7.77,-1.03 11.23,-3.09 z"
             id="path2520" />
          <path
             fill="#757575"
             d="m 381.8,51.99 h 11.37 v 11.37 h 0.56 c 1.68,-4.21 4.54,-7.49 8.56,-9.83 4.02,-2.34 8.42,-3.51 13.19,-3.51 2.06,0 3.79,0.14 5.19,0.42 v 12.21 c -1.59,-0.37 -3.74,-0.56 -6.46,-0.56 -6.08,0 -11.02,2.01 -14.81,6.04 -3.79,4.02 -5.68,9.26 -5.68,15.72 v 39.72 H 381.8 Z"
             id="path2522" />
          <path
             fill="#757575"
             d="m 452.49,123.28 c -2.48,-0.95 -4.56,-2.24 -6.25,-3.86 -1.87,-1.81 -3.28,-3.91 -4.21,-6.29 -0.94,-2.38 -1.4,-5.29 -1.4,-8.72 V 61.68 H 428.14 V 50.87 h 12.49 V 30.66 h 11.93 v 20.21 h 17.41 v 10.81 h -17.41 v 39.88 c 0,4.02 0.75,6.98 2.25,8.9 1.78,2.11 4.35,3.16 7.72,3.16 2.71,0 5.33,-0.79 7.86,-2.39 v 11.65 c -1.4,0.65 -2.83,1.12 -4.28,1.4 -1.45,0.28 -3.3,0.42 -5.54,0.42 -2.92,0 -5.61,-0.47 -8.08,-1.42 z"
             id="path2524" />
        </g>
        <g
           id="g2544">
          <path
             fill="#40c4ff"
             d="m 25.66,25.66 v 79.93 c 0,7.92 0.99,9.86 4.93,13.82 L 61.18,150 h 62.17 v -26.64 z"
             id="path2528" />
          <path
             fill="#29b6f6"
             d="m 25.66,105.59 c 0,7.92 0.99,9.86 4.93,13.82 l 3.95,3.95 h 88.82 l -97.7,-97.7 z"
             id="path2530" />
          <path
             fill="#01579b"
             d="M 25.66,25.66 1.97,75 C 1.13,76.79 0,79.91 0,81.91 c 0,4.31 1.89,8.72 4.93,11.84 l 25.66,25.66 c -3.94,-3.96 -4.93,-5.9 -4.93,-13.82 z"
             id="path2532" />
          <path
             fill="#55c5f8"
             d="m 31.58,120.39 c -3.94,-3.96 -4.93,-5.9 -4.93,-13.82 V 26.64 l -0.99,-0.99 v 79.93 c 0,7.92 0.99,9.86 4.93,13.82 l 3.95,3.95 v 0 z"
             id="path2534" />
          <path
             fill="#01579b"
             d="M 104.61,25.66 H 25.66 l 97.7,97.7 H 150 V 62.17 L 118.42,30.59 c -4.43,-4.45 -8.37,-4.93 -13.81,-4.93 z"
             id="path2536" />
          <path
             fill="#40c4ff"
             d="M 118.42,30.59 92.76,4.93 C 90.52,2.68 85.86,0 81.91,0 78.52,0 75.19,0.68 73.03,1.97 L 25.66,25.66 h 78.95 c 5.44,0 9.38,0.48 13.81,4.93 z"
             id="path2538" />
          <polygon
             fill="#075087"
             points="123.36,123.36 150,123.36 150,62.17 149.01,61.18 149.01,122.37 122.37,122.37 "
             id="polygon2540" />
          <path
             fill="#3379ae"
             d="m 118.42,30.59 c -4.89,-4.89 -8.9,-4.93 -14.8,-4.93 H 25.66 l 0.99,0.99 h 76.97 c 2.95,-0.01 10.38,-0.5 14.8,3.94 z"
             id="path2542" />
        </g>
      </g>
    </g>
  </g>
  <style
     type="text/css"
     id="style2424">
	.st0{fill:#00ACD7;}
</style>
</svg>
