<?xml version="1.0" encoding="UTF-8" standalone="no"?>
<!-- Created with Inkscape (http://www.inkscape.org/) -->

<svg
   width="160"
   height="90"
   id="svg1968"
   sodipodi:version="0.32"
   inkscape:version="1.1.2 (0a00cf5339, 2022-02-04)"
   version="1.0"
   sodipodi:docname="cobol-logo.svg"
   inkscape:export-filename="/home/michael/programming/websites/workspace/src/content/cobol/cobol-logo.png"
   inkscape:export-xdpi="1228.8"
   inkscape:export-ydpi="1228.8"
   xmlns:inkscape="http://www.inkscape.org/namespaces/inkscape"
   xmlns:sodipodi="http://sodipodi.sourceforge.net/DTD/sodipodi-0.dtd"
   xmlns="http://www.w3.org/2000/svg"
   xmlns:svg="http://www.w3.org/2000/svg"
   xmlns:rdf="http://www.w3.org/1999/02/22-rdf-syntax-ns#"
   xmlns:cc="http://creativecommons.org/ns#"
   xmlns:dc="http://purl.org/dc/elements/1.1/">
  <defs
     id="defs1970" />
  <sodipodi:namedview
     id="base"
     pagecolor="#ffffff"
     bordercolor="#666666"
     borderopacity="1.0"
     inkscape:pageopacity="0.0"
     inkscape:pageshadow="2"
     inkscape:zoom="9.05625"
     inkscape:cx="85.189786"
     inkscape:cy="44.665286"
     inkscape:document-units="px"
     inkscape:current-layer="Ebene_x0020_1"
     width="68.51mm"
     height="129.89mm"
     units="mm"
     inkscape:window-width="2496"
     inkscape:window-height="1369"
     inkscape:window-x="2624"
     inkscape:window-y="34"
     inkscape:pagecheckerboard="0"
     showgrid="false"
     inkscape:window-maximized="1"
     inkscape:snap-to-guides="false" />
  <metadata
     id="metadata1973">
    <rdf:RDF>
      <cc:Work
         rdf:about="">
        <dc:format>image/svg+xml</dc:format>
        <dc:type
           rdf:resource="http://purl.org/dc/dcmitype/StillImage" />
      </cc:Work>
    </rdf:RDF>
  </metadata>
  <g
     inkscape:label="Ebene 1"
     inkscape:groupmode="layer"
     id="layer1"
     transform="translate(3824.556,782.8939)">
    <g
       id="Ebene_x0020_1"
       transform="translate(-3826.724,-785.8793)"
       inkscape:label="Ebene 1"
       inkscape:groupmode="layer">
      <metadata
         id="CorelCorpID_0Corel-Layer" />
      <g
         id="g2452"
         transform="matrix(0.02957912,0,0,0.02957912,70.385775,-2.4107642)">
        <path
           style="fill:#006d8c;fill-opacity:1;stroke-width:4.91927"
           d="m 1318.1779,2010.6802 c -100.7864,-19.7873 -169.0715,-57.6833 -213.9567,-118.7389 -21.9274,-29.8271 -31.0855,-49.5749 -48.5746,-104.7424 -3.063,-9.6617 -5.5311,-45.0805 -5.4847,-78.7084 0.1353,-98.0946 20.9743,-160.2303 71.3051,-212.6102 64.0838,-66.6928 165.349,-96.7212 326.6882,-96.8736 147.9588,-0.1398 229.9315,22.4785 305.1989,84.2118 23.6407,19.3898 59.1013,71.0897 70.3996,102.6395 18.0933,50.524 23.7796,134.8369 13.1271,194.6376 -18.0353,101.2453 -83.2082,176.4195 -183.714,211.9067 -57.2366,20.2093 -106.2071,26.3655 -204.3979,25.6951 -58.8492,-0.4019 -109.5162,-3.2796 -130.591,-7.4172 z m 176.1892,-141.9352 c 76.0482,-19.808 114.3373,-74.4308 113.8134,-162.3648 -0.3374,-56.6707 -11.8304,-86.7353 -46.0565,-120.4817 -36.1686,-35.6616 -65.98,-46.1342 -123.8815,-43.5191 -71.6123,3.2344 -120.6299,34.9898 -141.9309,91.9481 -13.7867,36.8653 -14.675,103.9164 -1.8493,139.5835 27.2623,75.8139 114.3368,117.1217 199.9048,94.834 z m -3017.0685,135.441 c -146.6176,-17.624 -239.7915,-90.989 -278.2547,-219.0975 -6.5361,-21.7697 -8.8256,-45.653 -8.724,-91.0065 0.1203,-53.6734 1.8322,-66.4941 13.466,-100.8451 19.732,-58.2624 49.6048,-99.0643 98.8785,-135.0535 52.3304,-38.2217 114.8824,-56.6076 220.8592,-64.9172 141.7755,-11.1167 270.0836,8.3926 345.6399,52.5544 31.4964,18.4093 76.1841,63.8214 86.9752,88.3851 4.7544,10.8224 10.4791,23.0859 12.7216,27.2523 2.2424,4.1663 5.6634,19.1086 7.6022,33.2051 l 3.525,25.6298 -55.8034,0.5339 c -30.6919,0.2937 -86.561,1.9539 -124.1537,3.6895 l -68.3501,3.1555 -8.5151,-19.6771 c -11.0354,-25.5013 -27.8814,-43.1532 -54.6236,-57.2368 -18.2383,-9.6051 -29.0457,-11.3602 -70.7209,-11.4853 -54.4233,-0.1633 -79.3313,6.9962 -110.658,31.8074 -39.2781,31.1087 -59.3962,95.6868 -49.8354,159.9688 6.7199,45.1818 18.0201,68.5328 44.9295,92.8438 33.1215,29.9233 59.1821,39.0368 110.6447,38.6926 65.267,-0.4363 107.8233,-21.7646 126.166,-63.2313 5.1667,-11.6803 11.0843,-22.2814 13.1502,-23.5582 2.0659,-1.2768 55.6844,0.7711 119.1523,4.5508 63.4678,3.7798 118.1632,6.9464 121.5452,7.0369 11.5632,0.31 6.3038,32.9689 -10.8129,67.1438 -37.2682,74.4094 -103.0535,118.7159 -211.7842,142.6369 -39.3025,8.6467 -220.6917,13.3119 -273.0195,7.0219 z m 959.25787,1.6531 c -38.3599,-4.8087 -99.4311,-21.7478 -140.1992,-38.8866 -46.7311,-19.6457 -99.5355,-68.1374 -125.7217,-115.4538 -43.3375,-78.3073 -45.1823,-221.8778 -3.8873,-302.5352 46.9584,-91.7193 122.0658,-133.4319 274.7275,-152.5762 150.70942,-18.8994 281.82479,0.9168 364.87788,55.1461 58.85353,38.4282 96.543459,89.7753 116.125459,158.2041 10.85846,37.9446 10.59257,134.3772 -0.49453,179.3541 -26.471239,107.3853 -95.554489,171.3691 -222.247039,205.8415 -27.47423,7.4756 -55.8141,9.743 -140.19924,11.2169 -58.17039,1.0161 -113.51223,0.8762 -122.98183,-0.3109 z M -394.83,1852.751 c 57.65101,-19.95 89.73116,-75.0263 89.55436,-153.7497 -0.12588,-56.0508 -11.4222,-88.2334 -41.54335,-118.3545 -35.9093,-35.9093 -51.89182,-41.5218 -118.23907,-41.5218 -53.5141,0 -57.99546,0.7886 -82.91637,14.592 -57.707,31.9633 -82.528,81.2761 -78.4686,155.8967 2.5916,47.6391 13.6762,76.7099 40.6213,106.5349 41.8101,46.2789 119.82439,61.2298 190.99173,36.6024 z m 2450.4649,149.4086 c -1.1655,-3.0483 -1.5447,-136.1491 -0.8426,-295.7794 l 1.2764,-290.237 112.3356,-1.3233 112.3356,-1.3232 -3.1709,214.2152 c -1.744,117.8184 -1.7848,218.5826 -0.091,223.9203 2.9837,9.4009 8.1413,9.705 164.5584,9.705 124.8398,0 161.9304,1.3952 163.4716,6.1491 1.0964,3.382 1.1131,36.7097 0.039,74.0615 l -1.9565,67.9126 -272.9175,-0.8792 c -197.1438,-0.635 -273.5059,-2.4179 -275.0366,-6.4216 z m -1927.78943,-9.5083 c -0.99409,-3.2299 -2.90596,-134.8232 -4.24863,-292.4295 l -2.44119,-286.5567 11.04928,-2.7732 c 6.07712,-1.5253 140.37309,-1.8995 298.43558,-0.8316 318.34973,2.1507 313.59781,1.6901 362.40481,35.1312 31.89666,21.8547 55.24982,67.1543 55.30412,107.2769 0.0541,40.0346 -15.46486,78.2428 -40.47522,99.6507 -11.12006,9.5183 -19.28227,18.1286 -18.13834,19.134 1.14398,1.0054 11.7727,7.8675 23.61934,15.2491 25.72184,16.0271 41.39041,32.6634 55.78676,59.2321 8.73451,16.1198 10.70807,28.1258 10.9166,66.4102 0.21989,40.3226 -1.4898,50.4444 -12.46234,73.7891 -22.59062,48.0627 -59.81982,81.7251 -106.52319,96.3175 -36.84559,11.5123 -147.72872,16.0014 -398.72408,16.1423 -176.1238,0.099 -233.13545,-1.2971 -234.5035,-5.7421 z m 494.2555,-150.6273 c 15.33844,-7.7051 17.37674,-11.0437 18.67715,-30.592 1.10644,-16.6319 -0.81807,-24.0043 -7.95126,-30.4597 -13.11832,-11.872 -64.13314,-19.0588 -113.88975,-16.0444 -23.07508,1.3979 -72.39264,2.632 -109.59463,2.7424 l -67.63999,0.2008 v 40.9939 c 0,22.5467 1.66025,42.6949 3.68945,44.7739 2.0292,2.079 61.24494,2.2622 131.59052,0.4068 107.64887,-2.8389 130.62732,-4.7425 145.11851,-12.0219 z m -61.49089,-216.7104 c 46.75866,-7.5421 65.1408,-36.2529 39.57775,-61.8159 l -12.07455,-12.0746 H 464.90786 341.70249 v 36.0747 c 0,19.8411 1.47578,37.5504 3.27953,39.3541 5.07812,5.0782 182.45352,3.8128 215.62806,-1.5383 z"
           id="path2449"
           sodipodi:nodetypes="ssssssssssssssssssssssssssssscsscsssssssssscsssssssssssssssssssssscscccssssccsccsscsssssssssssssssssscssssssscccsss" />
      </g>
    </g>
  </g>
</svg>
