<?xml version="1.0" standalone="no"?>
<!DOCTYPE svg PUBLIC "-//W3C//DTD SVG 20010904//EN"
 "http://www.w3.org/TR/2001/REC-SVG-20010904/DTD/svg10.dtd">
<svg version="1.0" xmlns="http://www.w3.org/2000/svg"
 width="512.000000pt" height="512.000000pt" viewBox="0 0 512.000000 512.000000"
 preserveAspectRatio="xMidYMid meet">
<metadata>
Created by potrace 1.14, written by Peter Selinger 2001-2017
</metadata>
<g transform="translate(0.000000,512.000000) scale(0.100000,-0.100000)"
fill="#000000" stroke="none">
<path d="M1665 4930 c-581 -35 -888 -140 -1121 -382 -201 -210 -291 -450 -340
-913 -13 -119 -17 -310 -21 -915 -6 -958 7 -1257 67 -1550 108 -518 407 -814
930 -920 274 -56 552 -70 1380 -70 654 0 933 9 1162 35 540 62 851 248 1037
621 100 202 149 456 172 900 14 267 6 1703 -10 1854 -54 505 -137 738 -343
955 -212 224 -475 325 -983 376 -134 14 -1726 21 -1930 9z m1369 -1374 c18 -8
46 -31 62 -52 24 -31 29 -47 29 -93 -1 -53 -25 -107 -413 -915 -226 -472 -419
-869 -427 -883 -30 -45 -74 -64 -138 -60 -97 6 -152 63 -152 155 1 54 22 101
418 926 229 478 425 878 434 889 40 45 124 59 187 33z m-1250 -336 c58 -29 80
-63 84 -135 6 -96 -1 -102 -348 -322 -168 -106 -305 -197 -305 -202 0 -5 131
-92 290 -192 308 -193 328 -208 352 -253 60 -115 -50 -258 -179 -232 -24 5
-821 497 -889 549 -34 26 -59 81 -59 131 0 59 25 103 79 139 49 32 727 459
800 504 65 39 115 43 175 13z m1711 -3 c78 -45 800 -501 832 -524 42 -32 63
-80 63 -143 0 -47 -4 -55 -42 -95 -51 -52 -860 -562 -906 -571 -100 -20 -194
58 -194 161 0 53 22 96 64 129 18 13 159 104 313 201 154 97 280 180 280 186
0 6 -137 97 -305 203 -349 220 -354 225 -348 323 3 53 9 68 33 94 59 62 140
76 210 36z"/>
</g>
</svg>
