<?xml version="1.0" standalone="no"?>
<!DOCTYPE svg PUBLIC "-//W3C//DTD SVG 20010904//EN"
 "http://www.w3.org/TR/2001/REC-SVG-20010904/DTD/svg10.dtd">
<svg version="1.0" xmlns="http://www.w3.org/2000/svg"
 width="512.000000pt" height="512.000000pt" viewBox="0 0 512.000000 512.000000"
 preserveAspectRatio="xMidYMid meet">
<metadata>
Created by potrace 1.14, written by Peter Selinger 2001-2017
</metadata>
<g transform="translate(0.000000,512.000000) scale(0.100000,-0.100000)"
fill="#000000" stroke="none">
<path d="M1920 4944 c-753 -21 -1106 -119 -1366 -379 -181 -181 -283 -415
-333 -763 -39 -267 -45 -444 -45 -1242 0 -798 6 -976 45 -1242 65 -456 231
-741 535 -919 208 -122 444 -179 874 -211 229 -17 1633 -17 1865 1 554 41 845
140 1070 366 225 225 326 519 367 1070 17 235 17 1637 0 1870 -41 551 -142
847 -366 1071 -221 221 -520 325 -1051 364 -141 11 -1344 21 -1595 14z m1096
-1477 c18 -16 27 -34 27 -53 0 -35 -808 -1729 -840 -1761 -12 -13 -33 -23 -47
-23 -37 0 -79 41 -79 76 0 37 815 1743 844 1767 29 24 63 21 95 -6z m-1267
-322 c47 -24 56 -81 19 -118 -13 -12 -179 -121 -370 -241 -192 -121 -348 -222
-348 -225 0 -3 160 -107 355 -229 195 -123 362 -233 370 -245 21 -30 19 -60
-6 -91 -42 -54 -53 -49 -507 235 -229 144 -425 271 -434 283 -20 24 -23 58 -8
86 5 10 92 70 192 133 101 63 295 185 432 271 136 86 255 156 263 156 7 0 27
-7 42 -15z m2098 -246 c230 -144 428 -272 441 -286 27 -29 29 -76 4 -101 -10
-10 -205 -136 -434 -280 -454 -285 -464 -290 -507 -236 -25 31 -27 61 -7 90 8
12 175 122 370 245 196 123 356 227 356 230 0 4 -156 105 -347 225 -192 120
-358 229 -370 241 -48 47 -11 131 59 133 9 0 204 -118 435 -261z"/>
</g>
</svg>
