<?xml version="1.0" encoding="UTF-8" standalone="no"?>
<!-- Created with Inkscape (http://www.inkscape.org/) -->

<svg
   width="924.46448"
   height="557.29724"
   id="svg2"
   version="1.1"
   inkscape:version="1.2.2 (b0a8486541, 2022-12-01)"
   sodipodi:docname="html-css-logo.svg"
   xml:space="preserve"
   inkscape:export-filename="html-css-logo.png"
   inkscape:export-xdpi="212.67232"
   inkscape:export-ydpi="212.67232"
   xmlns:inkscape="http://www.inkscape.org/namespaces/inkscape"
   xmlns:sodipodi="http://sodipodi.sourceforge.net/DTD/sodipodi-0.dtd"
   xmlns="http://www.w3.org/2000/svg"
   xmlns:svg="http://www.w3.org/2000/svg"
   xmlns:rdf="http://www.w3.org/1999/02/22-rdf-syntax-ns#"
   xmlns:cc="http://creativecommons.org/ns#"
   xmlns:dc="http://purl.org/dc/elements/1.1/"><defs
     id="defs4" /><sodipodi:namedview
     id="base"
     pagecolor="#ffffff"
     bordercolor="#666666"
     borderopacity="1.0"
     inkscape:pageopacity="0.0"
     inkscape:pageshadow="2"
     inkscape:zoom="1.2489371"
     inkscape:cx="461.99283"
     inkscape:cy="275.03386"
     inkscape:document-units="px"
     inkscape:current-layer="layer1"
     showgrid="false"
     fit-margin-top="0"
     fit-margin-left="0"
     fit-margin-right="0"
     fit-margin-bottom="0"
     inkscape:window-width="2476"
     inkscape:window-height="1363"
     inkscape:window-x="2644"
     inkscape:window-y="40"
     inkscape:window-maximized="1"
     inkscape:showpageshadow="2"
     inkscape:pagecheckerboard="0"
     inkscape:deskcolor="#d1d1d1" /><metadata
     id="metadata7"><rdf:RDF><cc:Work
         rdf:about=""><dc:format>image/svg+xml</dc:format><dc:type
           rdf:resource="http://purl.org/dc/dcmitype/StillImage" /></cc:Work></rdf:RDF></metadata><g
     inkscape:label="Calque 1"
     inkscape:groupmode="layer"
     id="layer1"
     transform="translate(-575.23643,-248.62171)"><g
       id="g945"
       transform="translate(-1.1799712,1.0892406)"><g
         id="g3054"
         transform="translate(524,270.18109)"><polygon
           id="polygon3028"
           points="404.321,470.819 255.778,512 107.644,470.877 74.633,100.62 437.367,100.62 "
           style="fill:#e44d26" /><polygon
           id="polygon3030"
           points="404.27,130.894 256,130.894 256,480.523 376.03,447.246 "
           style="fill:#f16529" /><polygon
           id="polygon3032"
           points="154.38,313.627 256,313.627 256,268.217 195.91,268.217 191.76,221.716 256,221.716 256,176.305 255.843,176.305 142.132,176.305 143.219,188.488 "
           style="fill:#ebebeb" /><polygon
           id="polygon3034"
           points="256,386.153 255.801,386.206 205.227,372.55 201.994,336.333 177.419,336.333 156.409,336.333 162.771,407.634 255.791,433.457 256,433.399 "
           style="fill:#ebebeb" /><path
           id="path971"
           d="m 108.382,0 h 23.077 v 22.8 h 21.11 V 0 h 23.078 V 69.044 H 152.57 v -23.12 h -21.11 v 23.12 H 108.383 V 0 Z"
           inkscape:connector-curvature="0"
           style="stroke:#ffffff;stroke-width:6.49999943;stroke-dasharray:none;fill:#ffffff;stroke-linecap:round;stroke-linejoin:round;opacity:0.8" /><path
           id="path973"
           d="M 205.994,22.896 H 185.678 V 0 h 63.72 V 22.896 H 229.073 V 69.044 H 205.995 V 22.896 Z"
           inkscape:connector-curvature="0"
           style="stroke:#ffffff;stroke-width:6.49999943;stroke-dasharray:none;fill:#ffffff;stroke-linecap:round;stroke-linejoin:round;opacity:0.8" /><path
           id="path3036"
           d="m 108.382,0 h 23.077 v 22.8 h 21.11 V 0 h 23.078 V 69.044 H 152.57 v -23.12 h -21.11 v 23.12 H 108.383 V 0 Z"
           inkscape:connector-curvature="0"
           style="stroke:none;stroke-width:1;stroke-dasharray:none;fill:#000000" /><path
           id="path975"
           d="m 259.511,0 h 24.063 L 298.376,24.26 313.163,0 h 24.072 V 69.044 H 314.253 V 34.822 l -15.877,24.549 h -0.397 L 282.091,34.822 v 34.222 h -22.58 z"
           inkscape:connector-curvature="0"
           style="stroke:#ffffff;stroke-width:6.49999943;stroke-dasharray:none;fill:#ffffff;stroke-linecap:round;stroke-linejoin:round;opacity:0.8" /><path
           id="path3038"
           d="M 205.994,22.896 H 185.678 V 0 h 63.72 V 22.896 H 229.073 V 69.044 H 205.995 V 22.896 Z"
           inkscape:connector-curvature="0"
           style="stroke:none;stroke-width:1;stroke-dasharray:none;fill:#000000" /><path
           id="path977"
           d="m 348.72,0 h 23.084 v 46.222 h 32.453 V 69.044 H 348.72 Z"
           inkscape:connector-curvature="0"
           style="stroke:#ffffff;stroke-width:6.49999943;stroke-dasharray:none;fill:#ffffff;stroke-linecap:round;stroke-linejoin:round;opacity:0.8" /><path
           id="path3040"
           d="m 259.511,0 h 24.063 L 298.376,24.26 313.163,0 h 24.072 V 69.044 H 314.253 V 34.822 l -15.877,24.549 h -0.397 L 282.091,34.822 v 34.222 h -22.58 z"
           inkscape:connector-curvature="0"
           style="stroke:none;stroke-width:1;stroke-dasharray:none;fill:#000000" /><path
           id="path3042"
           d="m 348.72,0 h 23.084 v 46.222 h 32.453 V 69.044 H 348.72 Z"
           inkscape:connector-curvature="0"
           style="stroke:none;stroke-width:1;stroke-dasharray:none;fill:#000000" /><polygon
           id="polygon3044"
           points="349.62,399.962 360.291,280.411 361.399,268.217 349.162,268.217 255.843,268.217 255.843,313.627 311.761,313.627 306.49,372.521 255.843,386.191 255.843,433.435 348.937,407.634 "
           style="fill:#ffffff" /><polygon
           id="polygon3046"
           points="368.511,188.488 369.597,176.305 255.843,176.305 255.843,204.509 255.843,221.605 255.843,221.716 365.385,221.716 365.531,221.716 366.442,211.509 "
           style="fill:#ffffff" /></g><g
         id="g823"
         transform="matrix(0.40726508,0,0,0.40726508,1071.3992,374.91601)"><path
           id="bg"
           fill="#663399"
           d="m 0,0 h 840 a 160,160 0 0 1 160,160 V 840 A 160,160 0 0 1 840,1000 H 160 A 160,160 0 0 1 0,840 Z" /><path
           id="fg"
           fill="#ffffff"
           d="M 358.1,920 C 293.87,919.94 254.24,883.77 255,817.21 c 0,0 0,-168.39 0,-168.39 0,-33.74 9.88,-59.4 29.64,-76.96 35.49,-34.19 117.83,-36.27 152.59,0.52 21.42,18.89 29.5,57.48 27.58,93.49 h -73.72 c 0.56,-14.15 -0.19,-35.58 -8.51,-43.65 -10.81,-14.63 -39.36,-12.91 -46.91,2.32 -4.64,8.26 -6.96,20.49 -6.96,36.67 v 146.18 c 0,30.65 10.65,46.15 31.96,46.49 9.96,0 17.53,-3.62 22.68,-10.85 7.19,-8.58 8.31,-27.58 7.73,-41.32 H 464.8 C 469.84,871.78 428.48,920.87 358.09,920 Z m 234.04,0 C 520.97,920.98 489.13,870.34 491.1,801.71 h 69.59 c -1.93,29.92 8.35,57.17 32.99,55.27 10.99,0 18.73,-3.44 23.2,-10.33 8.5,-12.59 10.09,-48.95 -2.06,-63.02 -8.49,-13.55 -39.03,-25.51 -55.16,-33.57 -23.03,-11.02 -39.61,-24.1 -49.75,-39.26 -22.87,-33.64 -20.75,-107.48 11.34,-137.4 31.18,-36.92 112.61,-38.62 143.82,-0.77 19.25,19.51 27.66,57.9 26.03,93.23 h -67.02 c 0.57,-14.52 -0.8,-37.95 -6.44,-46.49 -3.95,-7.23 -11.43,-10.85 -22.42,-10.85 -19.59,0 -29.38,11.71 -29.38,35.12 0.21,24.86 9.9,35.06 32.48,45.45 29.24,11.36 66.42,30.76 79.9,54.24 40.2,71.54 12.62,180.82 -86.09,176.65 z m 224.76,0 C 745.73,920.98 713.89,870.34 715.86,801.71 h 69.59 c -1.93,29.92 8.35,57.17 32.99,55.27 10.99,0 18.73,-3.44 23.2,-10.33 8.5,-12.59 10.09,-48.95 -2.06,-63.02 -8.49,-13.55 -39.03,-25.51 -55.16,-33.57 -23.03,-11.02 -39.61,-24.1 -49.75,-39.26 -22.87,-33.64 -20.75,-107.48 11.34,-137.4 31.18,-36.92 112.61,-38.62 143.82,-0.77 19.25,19.51 27.66,57.9 26.03,93.23 h -67.02 c 0.57,-14.52 -0.8,-37.95 -6.44,-46.49 -3.95,-7.23 -11.43,-10.85 -22.42,-10.85 -19.59,0 -29.38,11.71 -29.38,35.12 0.21,24.86 9.9,35.06 32.48,45.45 29.24,11.36 66.42,30.76 79.9,54.24 40.2,71.54 12.62,180.82 -86.09,176.65 z" /></g></g></g></svg>
