<?xml version="1.0" encoding="UTF-8" standalone="no"?>
<!-- Created with Inkscape (http://www.inkscape.org/) -->

<svg
   width="160"
   height="90"
   id="svg1968"
   sodipodi:version="0.32"
   inkscape:version="1.1.2 (0a00cf5339, 2022-02-04)"
   version="1.0"
   sodipodi:docname="clisp-logo.svg"
   inkscape:export-filename="/home/michael/programming/websites/workspace/src/content/clisp/clisp-logo.png"
   inkscape:export-xdpi="1228.8"
   inkscape:export-ydpi="1228.8"
   xmlns:inkscape="http://www.inkscape.org/namespaces/inkscape"
   xmlns:sodipodi="http://sodipodi.sourceforge.net/DTD/sodipodi-0.dtd"
   xmlns="http://www.w3.org/2000/svg"
   xmlns:svg="http://www.w3.org/2000/svg"
   xmlns:rdf="http://www.w3.org/1999/02/22-rdf-syntax-ns#"
   xmlns:cc="http://creativecommons.org/ns#"
   xmlns:dc="http://purl.org/dc/elements/1.1/">
  <defs
     id="defs1970" />
  <sodipodi:namedview
     id="base"
     pagecolor="#ffffff"
     bordercolor="#666666"
     borderopacity="1.0"
     inkscape:pageopacity="0.0"
     inkscape:pageshadow="2"
     inkscape:zoom="4.0423327"
     inkscape:cx="18.182571"
     inkscape:cy="32.530722"
     inkscape:document-units="px"
     inkscape:current-layer="g2452"
     width="68.51mm"
     height="129.89mm"
     units="mm"
     inkscape:window-width="2496"
     inkscape:window-height="1369"
     inkscape:window-x="2624"
     inkscape:window-y="34"
     inkscape:pagecheckerboard="0"
     showgrid="false"
     inkscape:window-maximized="1"
     inkscape:snap-to-guides="false" />
  <metadata
     id="metadata1973">
    <rdf:RDF>
      <cc:Work
         rdf:about="">
        <dc:format>image/svg+xml</dc:format>
        <dc:type
           rdf:resource="http://purl.org/dc/dcmitype/StillImage" />
      </cc:Work>
    </rdf:RDF>
  </metadata>
  <g
     inkscape:label="Ebene 1"
     inkscape:groupmode="layer"
     id="layer1"
     transform="translate(3824.556,782.8939)">
    <g
       id="Ebene_x0020_1"
       transform="translate(-3826.724,-785.8793)"
       inkscape:label="Ebene 1"
       inkscape:groupmode="layer">
      <metadata
         id="CorelCorpID_0Corel-Layer" />
      <g
         id="g2452"
         transform="matrix(0.20328214,0,0,0.20328214,51.065833,12.985399)">
        <g
           id="g2628"
           transform="matrix(0.69850933,0,0,0.69850933,-25.821303,-6.6423292)">
          <circle
             cx="256"
             cy="256"
             r="235"
             fill="#ffffff"
             id="circle2613" />
          <path
             stroke="#000000"
             stroke-width="5"
             d="M 255.56,20.008 C 193.186,20.1249 133.39,44.93 89.26,89 -2.976,181.091 -3.093,330.52 88.9983,422.75 c 92.09,92.236 241.52,92.353 333.75,0.262 92.236,-92.091 92.353,-241.52 0.262,-333.75 -44.377,-44.447 -104.64,-69.371 -167.45,-69.254 z m 2.281,1.0059 c 59.934,0.4846 119.39,23.809 164.46,68.953 91.701,91.845 91.585,240.64 -0.259,332.34 -45.922,45.851 -120.32,45.793 -166.17,-0.129 -45.851,-45.922 -45.793,-120.32 0.129,-166.17 46.412,-46.339 46.471,-121.53 0.13,-167.94 -37.084,-37.141 -94.457,-46.553 -140.66,-21.658 42.416,-31.541 92.711,-45.798 142.37,-45.396 z m -190.84,130.26 h 40 c 9.943,42.147 25.204,79.418 40.75,116.43 15.9,-41.326 33.203,-81.249 55.25,-116.43 h 40 c -48.928,97.364 -102.19,164.06 -24,250 h -40 c -47.567,-77.243 -82.439,-147.67 -112,-250 z"
             id="path2615" />
          <path
             d="m 293,110.72 c 78.194,85.936 24.928,152.64 -24,250 h 40 c 22.047,-35.179 39.35,-75.102 55.25,-116.43 15.546,37.01 30.807,74.282 40.75,116.43 h 40 C 415.439,258.39 380.567,187.96 333,110.72 Z"
             id="path2617" />
        </g>
      </g>
    </g>
  </g>
</svg>
